<?xml version="1.0" encoding="UTF-8" standalone="no"?>
<svg id="svg2" xmlns:rdf="http://www.w3.org/1999/02/22-rdf-syntax-ns#" xmlns="http://www.w3.org/2000/svg" viewBox="518 79 59.542686 79.000003" height="4.8171cm" width="3.7805cm" version="1.1" xmlns:cc="http://creativecommons.org/ns#" xmlns:dc="http://purl.org/dc/elements/1.1/">
 <metadata id="metadata24">
  <rdf:RDF>
   <cc:Work rdf:about="">
    <dc:format>image/svg+xml</dc:format>
    <dc:type rdf:resource="http://purl.org/dc/dcmitype/StillImage"/>
   </cc:Work>
  </rdf:RDF>
 </metadata>
 <g id="g4" transform="translate(-2.2287 -3)">
  <path id="ellipse6" fill="#c00" d="m540 150a10 10 0 0 1 -10 10 10 10 0 0 1 -10 -10 10 10 0 0 1 10 -10 10 10 0 0 1 10 10z"/>
  <path id="ellipse8" d="m540 150a10 10 0 0 1 -10 10 10 10 0 0 1 -10 -10 10 10 0 0 1 10 -10 10 10 0 0 1 10 10z" stroke="#c00" stroke-width="2" fill="none"/>
 </g>
 <g id="g10" transform="translate(-2.2287 -3)">
  <path id="ellipse12" fill="#c00" d="m580 150a10 10 0 0 1 -10 10 10 10 0 0 1 -10 -10 10 10 0 0 1 10 -10 10 10 0 0 1 10 10z"/>
  <path id="ellipse14" d="m580 150a10 10 0 0 1 -10 10 10 10 0 0 1 -10 -10 10 10 0 0 1 10 -10 10 10 0 0 1 10 10z" stroke="#c00" stroke-width="2" fill="none"/>
 </g>
 <path id="polyline16" d="m533.48 139.56 16.52-49.56l16.521 49.563" transform="translate(-2.2287 -3)" stroke="#008000" stroke-width="2" fill="none"/>
 <path id="line18" d="m547.77 79v10" stroke="#734610" stroke-width="4" fill="none"/>
</svg>
