<?xml version="1.0" encoding="UTF-8"?>
<svg id="svg111" width="38.629cm" height="6.9615cm" version="1.1" viewBox="153 68 763.67 138.24" xmlns="http://www.w3.org/2000/svg" xmlns:cc="http://creativecommons.org/ns#" xmlns:dc="http://purl.org/dc/elements/1.1/" xmlns:rdf="http://www.w3.org/1999/02/22-rdf-syntax-ns#">
 <metadata id="metadata115">
  <rdf:RDF>
   <cc:Work rdf:about="">
    <dc:format>image/svg+xml</dc:format>
    <dc:type rdf:resource="http://purl.org/dc/dcmitype/StillImage"/>
   </cc:Work>
  </rdf:RDF>
 </metadata>
 <g id="Háttér" transform="translate(-2.6332 -1)">
  <path id="rect4" d="m320 100h39v60h-39z" fill="#7babe3" stroke="#000" stroke-width="2"/>
  <path id="rect6" d="m400 100h40v60h-40z" fill="#7babe3" stroke="#000" stroke-width="2"/>
  <path id="rect8" d="m240 100h39.5v60h-39.5z" fill="#7babe3" stroke="#000" stroke-width="2"/>
  <path id="rect10" d="m480 100h40v60h-40z" fill="#fdfd04" stroke="#000" stroke-width="2"/>
  <path id="rect12" d="m159.5 100h39v60h-39z" fill="#fdfd04" stroke="#000" stroke-width="2"/>
  <g id="g18" stroke="#000" stroke-width="2">
   <path id="line14" d="m480 130h-30.264" fill="none"/>
   <path id="polygon16" d="m449.74 130 2.5 5-10-5 10-5z" fill-rule="evenodd"/>
  </g>
  <g id="g24" stroke="#000" stroke-width="2">
   <path id="line20" d="m400 130h-31.264" fill="none"/>
   <path id="polygon22" d="m368.74 130 2.5 5-10-5 10-5z" fill-rule="evenodd"/>
  </g>
  <g id="g30" stroke="#000" stroke-width="2">
   <path id="line26" d="m320 130h-30.764" fill="none"/>
   <path id="polygon28" d="m289.24 130 2.5 5-10-5 10-5z" fill-rule="evenodd"/>
  </g>
  <g id="g36" stroke="#000" stroke-width="2">
   <path id="line32" d="m240 130h-31.764" fill="none"/>
   <path id="polygon34" d="m208.24 130 2.5 5-10-5 10-5z" fill-rule="evenodd"/>
  </g>
  <g id="text40" aria-label=" vége">
   <path id="path74" d="m160.22 85.822h1.7198l3.0868 8.2903 3.0868-8.2903h1.7198l-3.7042 9.8778h-2.2049z" style=""/>
   <path id="path76" d="m180.53 90.355v0.79375h-7.4612q0.10583 1.6757 1.0054 2.5576 0.9084 0.87312 2.5224 0.87312 0.93486 0 1.808-0.2293 0.88194-0.22931 1.7462-0.68792v1.5346q-0.87313 0.37042-1.7904 0.56444t-1.8609 0.19403q-2.3636 0-3.7483-1.3758-1.3758-1.3758-1.3758-3.7218 0-2.4253 1.3053-3.8453 1.3141-1.4287 3.5366-1.4287 1.9932 0 3.1485 1.2876 1.1642 1.2788 1.1642 3.4837zm-1.6228-0.47625q-0.0176-1.3317-0.74966-2.1255-0.72319-0.79375-1.9226-0.79375-1.3582 0-2.1784 0.76729-0.81139 0.76729-0.93486 2.1608zm-1.561-8.6254h1.7551l-2.8751 3.3161h-1.3494z" style=""/>
   <path id="path78" d="m189.69 90.646q0-1.7639-0.73201-2.734-0.72319-0.97014-2.0373-0.97014-1.3053 0-2.0373 0.97014-0.72319 0.97014-0.72319 2.734 0 1.7551 0.72319 2.7252 0.73201 0.97014 2.0373 0.97014 1.3141 0 2.0373-0.97014 0.73201-0.97014 0.73201-2.7252zm1.6228 3.8276q0 2.5224-1.1201 3.7483-1.1201 1.2347-3.4308 1.2347-0.85548 0-1.614-0.13229-0.75847-0.12347-1.4728-0.38806v-1.5787q0.71437 0.38806 1.4111 0.57326 0.69673 0.18521 1.4199 0.18521 1.5963 0 2.3901-0.83785 0.79375-0.82903 0.79375-2.5135v-0.80257q-0.5027 0.87312-1.2876 1.3053-0.78493 0.43215-1.8785 0.43215-1.8168 0-2.9281-1.3847-1.1112-1.3847-1.1112-3.6689 0-2.2931 1.1112-3.6777 1.1112-1.3847 2.9281-1.3847 1.0936 0 1.8785 0.43215 0.78493 0.43215 1.2876 1.3053v-1.4993h1.6228z" style=""/>
   <path id="path80" d="m203.1 90.355v0.79375h-7.4612q0.10583 1.6757 1.0054 2.5576 0.9084 0.87312 2.5224 0.87312 0.93486 0 1.808-0.2293 0.88194-0.22931 1.7462-0.68792v1.5346q-0.87313 0.37042-1.7904 0.56444t-1.8609 0.19403q-2.3636 0-3.7483-1.3758-1.3758-1.3758-1.3758-3.7218 0-2.4253 1.3053-3.8453 1.3141-1.4287 3.5366-1.4287 1.9932 0 3.1485 1.2876 1.1642 1.2788 1.1642 3.4837zm-1.6228-0.47625q-0.0176-1.3317-0.74966-2.1255-0.72319-0.79375-1.9226-0.79375-1.3582 0-2.1784 0.76729-0.81139 0.76729-0.93486 2.1608z" style=""/>
  </g>
  <g id="text44" aria-label="eleje">
   <path id="path83" d="m488.47 90.355v0.79375h-7.4612q0.10583 1.6757 1.0054 2.5576 0.90841 0.87312 2.5224 0.87312 0.93486 0 1.808-0.2293 0.88194-0.22931 1.7462-0.68792v1.5346q-0.87312 0.37042-1.7903 0.56444t-1.8609 0.19403q-2.3636 0-3.7483-1.3758-1.3758-1.3758-1.3758-3.7218 0-2.4253 1.3053-3.8453 1.3141-1.4287 3.5366-1.4287 1.9932 0 3.1485 1.2876 1.1642 1.2788 1.1642 3.4837zm-1.6228-0.47625q-0.0176-1.3317-0.74965-2.1255-0.72319-0.79375-1.9226-0.79375-1.3582 0-2.1784 0.76729-0.81139 0.76729-0.93486 2.1608z" style=""/>
   <path id="path85" d="m491.14 81.977h1.6228v13.723h-1.6228z" style=""/>
   <path id="path87" d="m504.59 90.355v0.79375h-7.4612q0.10584 1.6757 1.0054 2.5576 0.9084 0.87312 2.5224 0.87312 0.93486 0 1.808-0.2293 0.88195-0.22931 1.7462-0.68792v1.5346q-0.87312 0.37042-1.7904 0.56444-0.91722 0.19403-1.8609 0.19403-2.3636 0-3.7483-1.3758-1.3758-1.3758-1.3758-3.7218 0-2.4253 1.3053-3.8453 1.3141-1.4287 3.5366-1.4287 1.9932 0 3.1485 1.2876 1.1642 1.2788 1.1642 3.4837zm-1.6228-0.47625q-0.0176-1.3317-0.74965-2.1255-0.7232-0.79375-1.9226-0.79375-1.3582 0-2.1784 0.76729-0.81139 0.76729-0.93486 2.1608z" style=""/>
   <path id="path89" d="m507.26 85.822h1.6228v10.054q0 1.8874-0.72319 2.734-0.71438 0.84667-2.3107 0.84667h-0.61736v-1.3758h0.43215q0.92604 0 1.2612-0.43215 0.33514-0.42333 0.33514-1.7727zm0-3.8453h1.6228v2.0549h-1.6228z" style=""/>
   <path id="path91" d="m520.72 90.355v0.79375h-7.4612q0.10583 1.6757 1.0054 2.5576 0.9084 0.87312 2.5224 0.87312 0.93486 0 1.808-0.2293 0.88194-0.22931 1.7462-0.68792v1.5346q-0.87312 0.37042-1.7903 0.56444t-1.8609 0.19403q-2.3636 0-3.7483-1.3758-1.3758-1.3758-1.3758-3.7218 0-2.4253 1.3053-3.8453 1.3141-1.4287 3.5366-1.4287 1.9932 0 3.1485 1.2876 1.1642 1.2788 1.1642 3.4837zm-1.6228-0.47625q-0.0176-1.3317-0.74965-2.1255-0.72319-0.79375-1.9226-0.79375-1.3582 0-2.1784 0.76729-0.81139 0.76729-0.93486 2.1608z" style=""/>
  </g>
  <g id="g50" stroke="#000" stroke-width="2">
   <path id="line46" d="m200 200h270.26" fill="none"/>
   <path id="polygon48" d="m470.26 200-2.5-5 10 5-10 5z" fill-rule="evenodd"/>
  </g>
  <g id="text54" aria-label="haladási irány">
   <path id="path96" d="m286.4 189.74v5.9619h-1.6228v-5.909q0-1.4023-0.54681-2.099-0.5468-0.69673-1.6404-0.69673-1.3141 0-2.0726 0.83784-0.75847 0.83785-0.75847 2.2842v5.5827h-1.6316v-13.723h1.6316v5.3798q0.58208-0.89076 1.367-1.3317 0.79375-0.44097 1.8256-0.44097 1.7022 0 2.5753 1.0583 0.87312 1.0495 0.87312 3.0956z" style=""/>
   <path id="path98" d="m294.14 190.73q-1.9667 0-2.7252 0.44979t-0.75847 1.5346q0 0.8643 0.56444 1.3758 0.57326 0.50271 1.5522 0.50271 1.3494 0 2.1608-0.9525 0.82021-0.96132 0.82021-2.5488v-0.36159zm3.2367-0.67028v5.6356h-1.6228v-1.4993q-0.55562 0.89959-1.3846 1.3317-0.82903 0.42333-2.0285 0.42333-1.5169 0-2.4165-0.84667-0.89076-0.85548-0.89076-2.2842 0-1.6669 1.1112-2.5135 1.1201-0.84666 3.3338-0.84666h2.2754v-0.15875q0-1.1201-0.74083-1.7286-0.73201-0.61736-2.0638-0.61736-0.84666 0-1.6492 0.20284-0.80257 0.20285-1.5434 0.60855v-1.4993q0.89076-0.34396 1.7286-0.51153 0.83785-0.17638 1.6316-0.17638 2.1431 0 3.2014 1.1112 1.0583 1.1112 1.0583 3.369z" style=""/>
   <path id="path100" d="m300.73 181.98h1.6228v13.723h-1.6228z" style=""/>
   <path id="path102" d="m310.23 190.73q-1.9667 0-2.7252 0.44979-0.75848 0.44979-0.75848 1.5346 0 0.8643 0.56445 1.3758 0.57326 0.50271 1.5522 0.50271 1.3494 0 2.1608-0.9525 0.82021-0.96132 0.82021-2.5488v-0.36159zm3.2367-0.67028v5.6356h-1.6228v-1.4993q-0.55563 0.89959-1.3846 1.3317-0.82903 0.42333-2.0285 0.42333-1.517 0-2.4165-0.84667-0.89076-0.85548-0.89076-2.2842 0-1.6669 1.1112-2.5135 1.1201-0.84666 3.3337-0.84666h2.2754v-0.15875q0-1.1201-0.74084-1.7286-0.73201-0.61736-2.0637-0.61736-0.84667 0-1.6492 0.20284-0.80257 0.20285-1.5434 0.60855v-1.4993q0.89076-0.34396 1.7286-0.51153 0.83785-0.17638 1.6316-0.17638 2.1431 0 3.2014 1.1112 1.0583 1.1112 1.0583 3.369z" style=""/>
   <path id="path104" d="m323.31 187.32v-5.3446h1.6228v13.723h-1.6228v-1.4817q-0.51153 0.88195-1.2965 1.3141-0.77611 0.42333-1.8697 0.42333-1.7903 0-2.9192-1.4288-1.1201-1.4288-1.1201-3.7571t1.1201-3.7571q1.1289-1.4287 2.9192-1.4287 1.0936 0 1.8697 0.43215 0.78493 0.42333 1.2965 1.3053zm-5.5298 3.4484q0 1.7904 0.73201 2.8134 0.74083 1.0142 2.0285 1.0142t2.0285-1.0142q0.74083-1.023 0.74083-2.8134 0-1.7903-0.74083-2.8046-0.74083-1.023-2.0285-1.023t-2.0285 1.023q-0.73201 1.0142-0.73201 2.8046z" style=""/>
   <path id="path106" d="m332.77 190.73q-1.9667 0-2.7252 0.44979t-0.75847 1.5346q0 0.8643 0.56444 1.3758 0.57326 0.50271 1.5522 0.50271 1.3494 0 2.1608-0.9525 0.82021-0.96132 0.82021-2.5488v-0.36159zm3.2367-0.67028v5.6356h-1.6228v-1.4993q-0.55562 0.89959-1.3846 1.3317-0.82903 0.42333-2.0285 0.42333-1.5169 0-2.4165-0.84667-0.89076-0.85548-0.89076-2.2842 0-1.6669 1.1112-2.5135 1.1201-0.84666 3.3338-0.84666h2.2754v-0.15875q0-1.1201-0.74083-1.7286-0.73202-0.61736-2.0638-0.61736-0.84667 0-1.6492 0.20284-0.80257 0.20285-1.5434 0.60855v-1.4993q0.89077-0.34396 1.7286-0.51153 0.83785-0.17638 1.6316-0.17638 2.1431 0 3.2014 1.1112 1.0583 1.1112 1.0583 3.369zm-2.9633-8.8106h1.7551l-2.8751 3.3161h-1.3494z" style=""/>
   <path id="path108" d="m345.65 186.11v1.5346q-0.68792-0.35277-1.4288-0.52916t-1.5346-0.17639q-1.2083 0-1.8168 0.37042-0.59972 0.37041-0.59972 1.1112 0 0.56445 0.43215 0.89077 0.43216 0.3175 1.7374 0.60854l0.55563 0.12347q1.7286 0.37042 2.4518 1.0495 0.73201 0.67028 0.73201 1.8785 0 1.3758-1.0936 2.1784-1.0848 0.80257-2.9898 0.80257-0.79374 0-1.658-0.15875-0.85548-0.14993-1.808-0.45861v-1.6757q0.89958 0.46743 1.7727 0.70555 0.87313 0.22931 1.7286 0.22931 1.1465 0 1.7639-0.38806 0.61736-0.39687 0.61736-1.1112 0-0.66145-0.44979-1.0142-0.44097-0.35278-1.9491-0.6791l-0.56444-0.13229q-1.5081-0.3175-2.1784-0.97014-0.67028-0.66145-0.67028-1.808 0-1.3935 0.98778-2.1519t2.8046-0.75847q0.89958 0 1.6933 0.13229t1.464 0.39687z" style=""/>
   <path id="path110" d="m348.78 185.82h1.6228v9.8778h-1.6228zm0-3.8453h1.6228v2.0549h-1.6228z" style=""/>
   <path id="path112" d="m359.54 185.82h1.6228v9.8778h-1.6228zm0-3.8453h1.6228v2.0549h-1.6228z" style=""/>
   <path id="path114" d="m370.27 187.34q-0.2734-0.15875-0.59972-0.2293-0.3175-0.0794-0.70555-0.0794-1.3758 0-2.1167 0.89959-0.73201 0.89076-0.73201 2.5664v5.2035h-1.6316v-9.8778h1.6316v1.5346q0.51153-0.89958 1.3317-1.3317 0.8202-0.44097 1.9932-0.44097 0.16757 0 0.37041 0.0264 0.20285 0.0176 0.4498 0.0617z" style=""/>
   <path id="path116" d="m376.48 190.73q-1.9667 0-2.7252 0.44979t-0.75847 1.5346q0 0.8643 0.56444 1.3758 0.57327 0.50271 1.5522 0.50271 1.3494 0 2.1608-0.9525 0.8202-0.96132 0.8202-2.5488v-0.36159zm3.2367-0.67028v5.6356h-1.6228v-1.4993q-0.55562 0.89959-1.3846 1.3317-0.82902 0.42333-2.0285 0.42333-1.5169 0-2.4165-0.84667-0.89076-0.85548-0.89076-2.2842 0-1.6669 1.1112-2.5135 1.1201-0.84666 3.3338-0.84666h2.2754v-0.15875q0-1.1201-0.74083-1.7286-0.73201-0.61736-2.0638-0.61736-0.84666 0-1.6492 0.20284-0.80257 0.20285-1.5434 0.60855v-1.4993q0.89076-0.34396 1.7286-0.51153 0.83784-0.17638 1.6316-0.17638 2.1431 0 3.2015 1.1112 1.0583 1.1112 1.0583 3.369zm-2.9633-8.8106h1.7551l-2.8751 3.3161h-1.3494z" style=""/>
   <path id="path118" d="m391.28 189.74v5.9619h-1.6228v-5.909q0-1.4023-0.5468-2.099-0.54681-0.69673-1.6404-0.69673-1.3141 0-2.0726 0.83784-0.75848 0.83785-0.75848 2.2842v5.5827h-1.6316v-9.8778h1.6316v1.5346q0.58209-0.89076 1.367-1.3317 0.79375-0.44097 1.8256-0.44097 1.7022 0 2.5753 1.0583 0.87313 1.0495 0.87313 3.0956z" style=""/>
   <path id="path120" d="m398.64 196.62q-0.68791 1.7639-1.3406 2.3019t-1.7462 0.53799h-1.2964v-1.3582h0.95249q0.67028 0 1.0407-0.3175 0.37041-0.3175 0.82021-1.4993l0.29104-0.74083-3.9952-9.719h1.7198l3.0868 7.7258 3.0868-7.7258h1.7198z" style=""/>
  </g>
  <path id="rect56" d="m800 100h39v60h-39z" fill="#7babe3" stroke="#000" stroke-width="2"/>
  <path id="rect58" d="m880 100h40v60h-40z" fill="#fdfd04" stroke="#000" stroke-width="2"/>
  <path id="rect60" d="m720.5 100h39.5v60h-39.5z" fill="#7babe3" stroke="#000" stroke-width="2"/>
  <path id="rect62" d="m640 100h40v60h-40z" fill="#fdfd04" stroke="#000" stroke-width="2"/>
  <g id="g68" stroke="#000" stroke-width="2">
   <path id="line64" d="m880 130h-31.264" fill="none"/>
   <path id="polygon66" d="m848.74 130 2.5 5-10-5 10-5z" fill-rule="evenodd"/>
  </g>
  <g id="g74" stroke="#000" stroke-width="2">
   <path id="line70" d="m800 130h-30.264" fill="none"/>
   <path id="polygon72" d="m769.74 130 2.5 5-10-5 10-5z" fill-rule="evenodd"/>
  </g>
  <g id="g80" stroke="#000" stroke-width="2">
   <path id="line76" d="m720.5 130h-30.764" fill="none"/>
   <path id="polygon78" d="m689.74 130 2.5 5-10-5 10-5z" fill-rule="evenodd"/>
  </g>
  <g id="text84" aria-label="vége">
   <path id="path133" d="m638.35 85.822h1.7198l3.0868 8.2903 3.0868-8.2903h1.7198l-3.7042 9.8778h-2.2049z" style=""/>
   <path id="path135" d="m658.65 90.355v0.79375h-7.4612q0.10583 1.6757 1.0054 2.5576 0.9084 0.87312 2.5224 0.87312 0.93486 0 1.808-0.2293 0.88195-0.22931 1.7462-0.68792v1.5346q-0.87312 0.37042-1.7903 0.56444-0.91723 0.19403-1.8609 0.19403-2.3636 0-3.7483-1.3758-1.3758-1.3758-1.3758-3.7218 0-2.4253 1.3053-3.8453 1.3141-1.4287 3.5366-1.4287 1.9932 0 3.1485 1.2876 1.1642 1.2788 1.1642 3.4837zm-1.6228-0.47625q-0.0176-1.3317-0.74965-2.1255-0.72319-0.79375-1.9226-0.79375-1.3582 0-2.1784 0.76729-0.81139 0.76729-0.93486 2.1608zm-1.561-8.6254h1.7551l-2.8751 3.3161h-1.3494z" style=""/>
   <path id="path137" d="m667.81 90.646q0-1.7639-0.73202-2.734-0.72319-0.97014-2.0373-0.97014-1.3053 0-2.0373 0.97014-0.7232 0.97014-0.7232 2.734 0 1.7551 0.7232 2.7252 0.73201 0.97014 2.0373 0.97014 1.3141 0 2.0373-0.97014 0.73202-0.97014 0.73202-2.7252zm1.6228 3.8276q0 2.5224-1.1201 3.7483-1.1201 1.2347-3.4308 1.2347-0.85549 0-1.614-0.13229-0.75847-0.12347-1.4728-0.38806v-1.5787q0.71438 0.38806 1.4111 0.57326 0.69674 0.18521 1.4199 0.18521 1.5963 0 2.3901-0.83785 0.79375-0.82903 0.79375-2.5135v-0.80257q-0.50271 0.87312-1.2876 1.3053-0.78493 0.43215-1.8785 0.43215-1.8168 0-2.928-1.3847t-1.1112-3.6689q0-2.2931 1.1112-3.6777 1.1112-1.3847 2.928-1.3847 1.0936 0 1.8785 0.43215 0.78493 0.43215 1.2876 1.3053v-1.4993h1.6228z" style=""/>
   <path id="path139" d="m681.23 90.355v0.79375h-7.4612q0.10583 1.6757 1.0054 2.5576 0.90841 0.87312 2.5224 0.87312 0.93486 0 1.808-0.2293 0.88194-0.22931 1.7462-0.68792v1.5346q-0.87312 0.37042-1.7903 0.56444t-1.8609 0.19403q-2.3636 0-3.7483-1.3758-1.3758-1.3758-1.3758-3.7218 0-2.4253 1.3053-3.8453 1.3141-1.4287 3.5366-1.4287 1.9932 0 3.1485 1.2876 1.1642 1.2788 1.1642 3.4837zm-1.6228-0.47625q-0.0176-1.3317-0.74965-2.1255-0.72319-0.79375-1.9226-0.79375-1.3582 0-2.1784 0.76729-0.81139 0.76729-0.93486 2.1608z" style=""/>
  </g>
  <g id="text88" aria-label="eleje">
   <path id="path142" d="m888.47 90.355v0.79375h-7.4612q0.10583 1.6757 1.0054 2.5576 0.90841 0.87312 2.5224 0.87312 0.93486 0 1.808-0.2293 0.88194-0.22931 1.7462-0.68792v1.5346q-0.87312 0.37042-1.7903 0.56444t-1.8609 0.19403q-2.3636 0-3.7483-1.3758-1.3758-1.3758-1.3758-3.7218 0-2.4253 1.3053-3.8453 1.3141-1.4287 3.5366-1.4287 1.9932 0 3.1485 1.2876 1.1642 1.2788 1.1642 3.4837zm-1.6228-0.47625q-0.0176-1.3317-0.74965-2.1255-0.72319-0.79375-1.9226-0.79375-1.3582 0-2.1784 0.76729-0.81139 0.76729-0.93486 2.1608z" style=""/>
   <path id="path144" d="m891.14 81.977h1.6228v13.723h-1.6228z" style=""/>
   <path id="path146" d="m904.59 90.355v0.79375h-7.4612q0.10584 1.6757 1.0054 2.5576 0.9084 0.87312 2.5224 0.87312 0.93486 0 1.808-0.2293 0.88195-0.22931 1.7462-0.68792v1.5346q-0.87312 0.37042-1.7904 0.56444-0.91722 0.19403-1.8609 0.19403-2.3636 0-3.7483-1.3758-1.3758-1.3758-1.3758-3.7218 0-2.4253 1.3053-3.8453 1.3141-1.4287 3.5366-1.4287 1.9932 0 3.1485 1.2876 1.1642 1.2788 1.1642 3.4837zm-1.6228-0.47625q-0.0176-1.3317-0.74965-2.1255-0.7232-0.79375-1.9226-0.79375-1.3582 0-2.1784 0.76729-0.81139 0.76729-0.93486 2.1608z" style=""/>
   <path id="path148" d="m907.26 85.822h1.6228v10.054q0 1.8874-0.72319 2.734-0.71438 0.84667-2.3107 0.84667h-0.61736v-1.3758h0.43215q0.92604 0 1.2612-0.43215 0.33514-0.42333 0.33514-1.7727zm0-3.8453h1.6228v2.0549h-1.6228z" style=""/>
   <path id="path150" d="m920.72 90.355v0.79375h-7.4612q0.10583 1.6757 1.0054 2.5576 0.9084 0.87312 2.5224 0.87312 0.93486 0 1.808-0.2293 0.88194-0.22931 1.7462-0.68792v1.5346q-0.87312 0.37042-1.7903 0.56444t-1.8609 0.19403q-2.3636 0-3.7483-1.3758-1.3758-1.3758-1.3758-3.7218 0-2.4253 1.3053-3.8453 1.3141-1.4287 3.5366-1.4287 1.9932 0 3.1485 1.2876 1.1642 1.2788 1.1642 3.4837zm-1.6228-0.47625q-0.0176-1.3317-0.74965-2.1255-0.72319-0.79375-1.9226-0.79375-1.3582 0-2.1784 0.76729-0.81139 0.76729-0.93486 2.1608z" style=""/>
  </g>
  <g id="g94" stroke="#000" stroke-width="2">
   <path id="line90" d="m680 200h190.26" fill="none"/>
   <path id="polygon92" d="m870.26 200-2.5-5 10 5-10 5z" fill-rule="evenodd"/>
  </g>
  <g id="text98" aria-label="haladási irány">
   <path id="path155" d="m726.4 189.74v5.9619h-1.6228v-5.909q0-1.4023-0.54681-2.099-0.5468-0.69673-1.6404-0.69673-1.3141 0-2.0726 0.83784-0.75847 0.83785-0.75847 2.2842v5.5827h-1.6316v-13.723h1.6316v5.3798q0.58208-0.89076 1.367-1.3317 0.79375-0.44097 1.8256-0.44097 1.7022 0 2.5753 1.0583 0.87312 1.0495 0.87312 3.0956z" style=""/>
   <path id="path157" d="m734.14 190.73q-1.9667 0-2.7252 0.44979t-0.75847 1.5346q0 0.8643 0.56444 1.3758 0.57326 0.50271 1.5522 0.50271 1.3494 0 2.1608-0.9525 0.82021-0.96132 0.82021-2.5488v-0.36159zm3.2367-0.67028v5.6356h-1.6228v-1.4993q-0.55562 0.89959-1.3846 1.3317-0.82903 0.42333-2.0285 0.42333-1.5169 0-2.4165-0.84667-0.89076-0.85548-0.89076-2.2842 0-1.6669 1.1112-2.5135 1.1201-0.84666 3.3338-0.84666h2.2754v-0.15875q0-1.1201-0.74083-1.7286-0.73201-0.61736-2.0638-0.61736-0.84666 0-1.6492 0.20284-0.80257 0.20285-1.5434 0.60855v-1.4993q0.89076-0.34396 1.7286-0.51153 0.83785-0.17638 1.6316-0.17638 2.1431 0 3.2014 1.1112 1.0583 1.1112 1.0583 3.369z" style=""/>
   <path id="path159" d="m740.73 181.98h1.6228v13.723h-1.6228z" style=""/>
   <path id="path161" d="m750.23 190.73q-1.9667 0-2.7252 0.44979-0.75848 0.44979-0.75848 1.5346 0 0.8643 0.56445 1.3758 0.57326 0.50271 1.5522 0.50271 1.3494 0 2.1608-0.9525 0.82021-0.96132 0.82021-2.5488v-0.36159zm3.2367-0.67028v5.6356h-1.6228v-1.4993q-0.55563 0.89959-1.3846 1.3317-0.82903 0.42333-2.0285 0.42333-1.517 0-2.4165-0.84667-0.89076-0.85548-0.89076-2.2842 0-1.6669 1.1112-2.5135 1.1201-0.84666 3.3337-0.84666h2.2754v-0.15875q0-1.1201-0.74084-1.7286-0.73201-0.61736-2.0637-0.61736-0.84667 0-1.6492 0.20284-0.80257 0.20285-1.5434 0.60855v-1.4993q0.89076-0.34396 1.7286-0.51153 0.83785-0.17638 1.6316-0.17638 2.1431 0 3.2014 1.1112 1.0583 1.1112 1.0583 3.369z" style=""/>
   <path id="path163" d="m763.31 187.32v-5.3446h1.6228v13.723h-1.6228v-1.4817q-0.51153 0.88195-1.2965 1.3141-0.77611 0.42333-1.8697 0.42333-1.7903 0-2.9192-1.4288-1.1201-1.4288-1.1201-3.7571t1.1201-3.7571q1.1289-1.4287 2.9192-1.4287 1.0936 0 1.8697 0.43215 0.78493 0.42333 1.2965 1.3053zm-5.5298 3.4484q0 1.7904 0.73201 2.8134 0.74083 1.0142 2.0285 1.0142t2.0285-1.0142q0.74083-1.023 0.74083-2.8134 0-1.7903-0.74083-2.8046-0.74083-1.023-2.0285-1.023t-2.0285 1.023q-0.73201 1.0142-0.73201 2.8046z" style=""/>
   <path id="path165" d="m772.77 190.73q-1.9667 0-2.7252 0.44979t-0.75847 1.5346q0 0.8643 0.56444 1.3758 0.57326 0.50271 1.5522 0.50271 1.3494 0 2.1608-0.9525 0.82021-0.96132 0.82021-2.5488v-0.36159zm3.2367-0.67028v5.6356h-1.6228v-1.4993q-0.55562 0.89959-1.3846 1.3317-0.82903 0.42333-2.0285 0.42333-1.5169 0-2.4165-0.84667-0.89076-0.85548-0.89076-2.2842 0-1.6669 1.1112-2.5135 1.1201-0.84666 3.3338-0.84666h2.2754v-0.15875q0-1.1201-0.74083-1.7286-0.73202-0.61736-2.0638-0.61736-0.84667 0-1.6492 0.20284-0.80257 0.20285-1.5434 0.60855v-1.4993q0.89077-0.34396 1.7286-0.51153 0.83785-0.17638 1.6316-0.17638 2.1431 0 3.2014 1.1112 1.0583 1.1112 1.0583 3.369zm-2.9633-8.8106h1.7551l-2.8751 3.3161h-1.3494z" style=""/>
   <path id="path167" d="m785.65 186.11v1.5346q-0.68792-0.35277-1.4288-0.52916t-1.5346-0.17639q-1.2083 0-1.8168 0.37042-0.59972 0.37041-0.59972 1.1112 0 0.56445 0.43215 0.89077 0.43216 0.3175 1.7374 0.60854l0.55563 0.12347q1.7286 0.37042 2.4518 1.0495 0.73201 0.67028 0.73201 1.8785 0 1.3758-1.0936 2.1784-1.0848 0.80257-2.9898 0.80257-0.79374 0-1.658-0.15875-0.85548-0.14993-1.808-0.45861v-1.6757q0.89958 0.46743 1.7727 0.70555 0.87313 0.22931 1.7286 0.22931 1.1465 0 1.7639-0.38806 0.61736-0.39687 0.61736-1.1112 0-0.66145-0.44979-1.0142-0.44097-0.35278-1.9491-0.6791l-0.56444-0.13229q-1.5081-0.3175-2.1784-0.97014-0.67028-0.66145-0.67028-1.808 0-1.3935 0.98778-2.1519t2.8046-0.75847q0.89958 0 1.6933 0.13229t1.464 0.39687z" style=""/>
   <path id="path169" d="m788.78 185.82h1.6228v9.8778h-1.6228zm0-3.8453h1.6228v2.0549h-1.6228z" style=""/>
   <path id="path171" d="m799.54 185.82h1.6228v9.8778h-1.6228zm0-3.8453h1.6228v2.0549h-1.6228z" style=""/>
   <path id="path173" d="m810.27 187.34q-0.2734-0.15875-0.59972-0.2293-0.3175-0.0794-0.70555-0.0794-1.3758 0-2.1167 0.89959-0.73201 0.89076-0.73201 2.5664v5.2035h-1.6316v-9.8778h1.6316v1.5346q0.51153-0.89958 1.3317-1.3317 0.8202-0.44097 1.9932-0.44097 0.16757 0 0.37041 0.0264 0.20285 0.0176 0.4498 0.0617z" style=""/>
   <path id="path175" d="m816.48 190.73q-1.9667 0-2.7252 0.44979t-0.75847 1.5346q0 0.8643 0.56444 1.3758 0.57327 0.50271 1.5522 0.50271 1.3494 0 2.1608-0.9525 0.8202-0.96132 0.8202-2.5488v-0.36159zm3.2367-0.67028v5.6356h-1.6228v-1.4993q-0.55562 0.89959-1.3846 1.3317-0.82902 0.42333-2.0285 0.42333-1.5169 0-2.4165-0.84667-0.89076-0.85548-0.89076-2.2842 0-1.6669 1.1112-2.5135 1.1201-0.84666 3.3338-0.84666h2.2754v-0.15875q0-1.1201-0.74083-1.7286-0.73201-0.61736-2.0638-0.61736-0.84666 0-1.6492 0.20284-0.80257 0.20285-1.5434 0.60855v-1.4993q0.89076-0.34396 1.7286-0.51153 0.83784-0.17638 1.6316-0.17638 2.1431 0 3.2015 1.1112 1.0583 1.1112 1.0583 3.369zm-2.9633-8.8106h1.7551l-2.8751 3.3161h-1.3494z" style=""/>
   <path id="path177" d="m831.28 189.74v5.9619h-1.6228v-5.909q0-1.4023-0.5468-2.099-0.54681-0.69673-1.6404-0.69673-1.3141 0-2.0726 0.83784-0.75848 0.83785-0.75848 2.2842v5.5827h-1.6316v-9.8778h1.6316v1.5346q0.58209-0.89076 1.367-1.3317 0.79375-0.44097 1.8256-0.44097 1.7022 0 2.5753 1.0583 0.87313 1.0495 0.87313 3.0956z" style=""/>
   <path id="path179" d="m838.64 196.62q-0.68791 1.7639-1.3406 2.3019t-1.7462 0.53799h-1.2964v-1.3582h0.95249q0.67028 0 1.0407-0.3175 0.37041-0.3175 0.82021-1.4993l0.29104-0.74083-3.9952-9.719h1.7198l3.0868 7.7258 3.0868-7.7258h1.7198z" style=""/>
  </g>
  <path id="rect100" d="m570 70h20v52h-20z" fill="#5f5f5f" stroke="#000" stroke-width="2"/>
  <path id="ellipse102" d="m586 112a6 6 0 0 1-6 6 6 6 0 0 1-6-6 6 6 0 0 1 6-6 6 6 0 0 1 6 6z" fill="#0f0" stroke="#000" stroke-width="2"/>
  <path id="ellipse104" d="m586 96a6 6 0 0 1-6 6 6 6 0 0 1-6-6 6 6 0 0 1 6-6 6 6 0 0 1 6 6z" fill="#fc0" stroke="#000" stroke-width="2"/>
  <path id="ellipse106" d="m586 80a6 6 0 0 1-6 6 6 6 0 0 1-6-6 6 6 0 0 1 6-6 6 6 0 0 1 6 6z" fill="#f00" stroke="#000" stroke-width="2"/>
  <path id="rect108" d="m578 122h4v40h-4z" fill="#7f7f7f" stroke="#000" stroke-width="2"/>
 </g>
</svg>
