<?xml version="1.0" encoding="UTF-8"?>
<svg id="svg105" width="28.807cm" height="10.618cm" version="1.1" viewBox="-36 48 575.15 205.61" xmlns="http://www.w3.org/2000/svg" xmlns:cc="http://creativecommons.org/ns#" xmlns:dc="http://purl.org/dc/elements/1.1/" xmlns:rdf="http://www.w3.org/1999/02/22-rdf-syntax-ns#">
 <metadata id="metadata109">
  <rdf:RDF>
   <cc:Work rdf:about="">
    <dc:format>image/svg+xml</dc:format>
    <dc:type rdf:resource="http://purl.org/dc/dcmitype/StillImage"/>
   </cc:Work>
  </rdf:RDF>
 </metadata>
 <g id="Háttér" transform="translate(-1.8287 -4.1955)">
  <g id="g8" stroke="#f62e2e" stroke-width="2">
   <path id="path4" d="m390 220h40.264" fill="none"/>
   <path id="polygon6" d="m430.26 220-2.5-5 10 5-10 5z" fill="#f62e2e" fill-rule="evenodd"/>
  </g>
  <path id="rect10" d="m280 100h60v60h-60z" fill="#7babe3" stroke="#000" stroke-width="2"/>
  <path id="rect12" d="m380 100h60v60h-60z" fill="#7babe3" stroke="#000" stroke-width="2"/>
  <g id="text16" fill="#173b8f" aria-label="(2)">
   <path id="path61" d="m435.6 52.545q-1.1818 2.0285-1.7551 4.0128-0.57326 1.9844-0.57326 4.0217t0.57326 4.0393q0.58209 1.9932 1.7551 4.0128h-1.4111q-1.3229-2.0726-1.9844-4.0746-0.65264-2.002-0.65264-3.9776 0-1.9667 0.65264-3.9599t1.9844-4.0746z" style=""/>
   <path id="path63" d="m440.52 64.751h6.2177v1.4993h-8.3608v-1.4993q1.0142-1.0495 2.7605-2.8134 1.7551-1.7727 2.2048-2.2842 0.85549-0.96132 1.1906-1.6228 0.34396-0.67028 0.34396-1.3141 0-1.0495-0.74084-1.711-0.73201-0.66146-1.9138-0.66146-0.83785 0-1.7727 0.29104-0.92604 0.29104-1.9844 0.88194v-1.7992q1.076-0.43215 2.0108-0.65264 0.93486-0.22048 1.711-0.22048 2.0461 0 3.2632 1.0231t1.2171 2.734q0 0.81139-0.30868 1.5434-0.29986 0.72319-1.1024 1.711-0.22049 0.25576-1.4023 1.4817-1.1818 1.2171-3.3338 3.4131z" style=""/>
   <path id="path65" d="m450 52.545h1.4111q1.3229 2.0814 1.9756 4.0746 0.66146 1.9932 0.66146 3.9599 0 1.9756-0.66146 3.9776-0.65264 2.002-1.9756 4.0746h-1.4111q1.173-2.0196 1.7462-4.0128 0.58209-2.002 0.58209-4.0393t-0.58209-4.0217q-0.57326-1.9844-1.7462-4.0128z" style=""/>
  </g>
  <g id="g22" stroke="#000" stroke-width="2">
   <path id="path18" d="m240 160c40 0 0-30 30.264-30" fill="none"/>
   <path id="polygon20" d="m270.26 130-2.5-5 10 5-10 5z" fill-rule="evenodd"/>
  </g>
  <g id="g28" stroke="#f62e2e" stroke-width="2">
   <path id="path24" d="M 431.205,190.904 C 398.994,166.746 470,185 440,160" fill="none"/>
   <path id="polygon26" d="m431.2 190.9 1-5.5 5 10-11-2z" fill="#f62e2e" fill-rule="evenodd"/>
  </g>
  <g id="text32" fill="#173b8f" aria-label="(1)">
   <path id="path70" d="m404.79 231.09q-1.1818 2.0285-1.7551 4.0128-0.57327 1.9844-0.57327 4.0217t0.57327 4.0393q0.58208 1.9932 1.7551 4.0128h-1.4111q-1.3229-2.0726-1.9844-4.0746-0.65264-2.002-0.65264-3.9776 0-1.9667 0.65264-3.9599t1.9844-4.0746z" style=""/>
   <path id="path72" d="m408.49 243.3h2.9104v-10.045l-3.1662 0.635v-1.6228l3.1485-0.635h1.7815v11.668h2.9104v1.4993h-7.5847z" style=""/>
   <path id="path74" d="m419.2 231.09h1.4111q1.3229 2.0814 1.9756 4.0746 0.66146 1.9932 0.66146 3.9599 0 1.9756-0.66146 3.9776-0.65264 2.002-1.9756 4.0746h-1.4111q1.173-2.0196 1.7462-4.0128 0.58208-2.002 0.58208-4.0393t-0.58208-4.0217q-0.57327-1.9844-1.7462-4.0128z" style=""/>
  </g>
  <g id="text36" fill="#173b8f" aria-label="(3a)">
   <path id="path77" d="m465.6 160.54q-1.1818 2.0285-1.7551 4.0128-0.57326 1.9844-0.57326 4.0217t0.57326 4.0393q0.58209 1.9932 1.7551 4.0128h-1.4111q-1.3229-2.0726-1.9844-4.0746-0.65264-2.002-0.65264-3.9776 0-1.9667 0.65264-3.9599t1.9844-4.0746z" style=""/>
   <path id="path79" d="m474.38 167.15q1.2788 0.2734 1.9932 1.1377 0.72319 0.86431 0.72319 2.1343 0 1.9491-1.3406 3.0162-1.3406 1.0672-3.81 1.0672-0.82902 0-1.711-0.16757-0.87312-0.15875-1.808-0.48506v-1.7198q0.74083 0.43215 1.6228 0.65263 0.88195 0.22049 1.8433 0.22049 1.6757 0 2.5488-0.66146 0.88195-0.66146 0.88195-1.9226 0-1.1642-0.82021-1.8168-0.81139-0.66146-2.2666-0.66146h-1.5346v-1.464h1.6051q1.3141 0 2.0108-0.52035 0.69674-0.52916 0.69674-1.5169 0-1.0142-0.7232-1.5522-0.71437-0.54681-2.0549-0.54681-0.73201 0-1.5698 0.15875-0.83785 0.15875-1.8433 0.49389v-1.5875q1.0142-0.28222 1.8962-0.42333 0.89076-0.14111 1.6757-0.14111 2.0285 0 3.2103 0.92604 1.1818 0.91722 1.1818 2.4871 0 1.0936-0.62618 1.8521-0.62618 0.74965-1.7815 1.0407z" style=""/>
   <path id="path81" d="m484.75 169.28q-1.9667 0-2.7252 0.44979t-0.75847 1.5346q0 0.86431 0.56444 1.3758 0.57326 0.50271 1.5522 0.50271 1.3494 0 2.1608-0.9525 0.82021-0.96132 0.82021-2.5488v-0.3616zm3.2367-0.67028v5.6356h-1.6228v-1.4993q-0.55563 0.89958-1.3846 1.3317-0.82903 0.42333-2.0285 0.42333-1.517 0-2.4165-0.84666-0.89076-0.85549-0.89076-2.2842 0-1.6669 1.1112-2.5135 1.1201-0.84667 3.3337-0.84667h2.2754v-0.15875q0-1.1201-0.74083-1.7286-0.73202-0.61736-2.0638-0.61736-0.84667 0-1.6492 0.20285-0.80256 0.20285-1.5434 0.60854v-1.4993q0.89077-0.34396 1.7286-0.51153 0.83785-0.17639 1.6316-0.17639 2.1431 0 3.2014 1.1112t1.0583 3.369z" style=""/>
   <path id="path83" d="m491.08 160.54h1.4111q1.3229 2.0814 1.9756 4.0746 0.66145 1.9932 0.66145 3.9599 0 1.9756-0.66145 3.9776-0.65264 2.002-1.9756 4.0746h-1.4111q1.173-2.0196 1.7462-4.0128 0.58208-2.002 0.58208-4.0393t-0.58208-4.0217q-0.57326-1.9844-1.7462-4.0128z" style=""/>
  </g>
  <path id="rect38" d="m370 210h20v20h-20z" fill="#fdfd04" stroke="#000" stroke-width="2"/>
  <g id="text42" aria-label="ListaElem *uj">
   <path id="path87" d="m242.71 213.08h1.7815v11.668h6.4117v1.4993h-8.1932z" style=""/>
   <path id="path89" d="m252.69 216.37h1.6228v9.8778h-1.6228zm0-3.8453h1.6228v2.0549h-1.6228z" style=""/>
   <path id="path91" d="m264 216.66v1.5346q-0.68791-0.35278-1.4288-0.52917-0.74083-0.17639-1.5346-0.17639-1.2083 0-1.8168 0.37042-0.59972 0.37041-0.59972 1.1112 0 0.56444 0.43215 0.89076 0.43215 0.3175 1.7374 0.60854l0.55562 0.12347q1.7286 0.37042 2.4518 1.0495 0.73201 0.67027 0.73201 1.8785 0 1.3758-1.0936 2.1784-1.0848 0.80256-2.9898 0.80256-0.79375 0-1.658-0.15875-0.85549-0.14993-1.808-0.45861v-1.6757q0.89959 0.46743 1.7727 0.70556 0.87312 0.2293 1.7286 0.2293 1.1465 0 1.7639-0.38805 0.61737-0.39688 0.61737-1.1112 0-0.66146-0.4498-1.0142-0.44097-0.35278-1.9491-0.67909l-0.56444-0.1323q-1.5081-0.3175-2.1784-0.97013-0.67028-0.66146-0.67028-1.808 0-1.3935 0.98778-2.1519 0.98777-0.75847 2.8046-0.75847 0.89959 0 1.6933 0.13229t1.464 0.39688z" style=""/>
   <path id="path93" d="m268.73 213.57v2.8046h3.3426v1.2612h-3.3426v5.3622q0 1.2083 0.32632 1.5522 0.33514 0.34396 1.3494 0.34396h1.6669v1.3582h-1.6669q-1.8785 0-2.5929-0.69674-0.71438-0.70555-0.71438-2.5576v-5.3622h-1.1906v-1.2612h1.1906v-2.8046z" style=""/>
   <path id="path95" d="m278.7 221.28q-1.9667 0-2.7252 0.44979t-0.75847 1.5346q0 0.86431 0.56445 1.3758 0.57326 0.50271 1.5522 0.50271 1.3494 0 2.1608-0.9525 0.8202-0.96132 0.8202-2.5488v-0.3616zm3.2367-0.67028v5.6356h-1.6228v-1.4993q-0.55562 0.89958-1.3846 1.3317-0.82902 0.42333-2.0285 0.42333-1.5169 0-2.4165-0.84666-0.89076-0.85549-0.89076-2.2842 0-1.6669 1.1112-2.5135 1.1201-0.84667 3.3338-0.84667h2.2754v-0.15875q0-1.1201-0.74083-1.7286-0.73201-0.61736-2.0638-0.61736-0.84666 0-1.6492 0.20285t-1.5434 0.60854v-1.4993q0.89076-0.34396 1.7286-0.51153 0.83784-0.17639 1.6316-0.17639 2.1431 0 3.2015 1.1112t1.0583 3.369z" style=""/>
   <path id="path97" d="m285.36 213.08h8.3255v1.4993h-6.544v3.8982h6.2706v1.4993h-6.2706v4.7713h6.7028v1.4993h-8.4843z" style=""/>
   <path id="path99" d="m296.72 212.53h1.6228v13.723h-1.6228z" style=""/>
   <path id="path101" d="m310.18 220.91v0.79375h-7.4612q0.10583 1.6757 1.0054 2.5576 0.9084 0.87312 2.5224 0.87312 0.93486 0 1.808-0.2293 0.88195-0.22931 1.7462-0.68792v1.5346q-0.87312 0.37042-1.7903 0.56445-0.91722 0.19402-1.8609 0.19402-2.3636 0-3.7483-1.3758-1.3758-1.3758-1.3758-3.7218 0-2.4253 1.3053-3.8453 1.3141-1.4288 3.5366-1.4288 1.9932 0 3.1485 1.2876 1.1642 1.2788 1.1642 3.4837zm-1.6228-0.47625q-0.0176-1.3317-0.74965-2.1255-0.72319-0.79375-1.9226-0.79375-1.3582 0-2.1784 0.76729-0.81138 0.76729-0.93486 2.1608z" style=""/>
   <path id="path103" d="m320.53 218.27q0.60854-1.0936 1.4552-1.614 0.84666-0.52035 1.9932-0.52035 1.5434 0 2.3812 1.0848 0.83784 1.076 0.83784 3.0692v5.9619h-1.6316v-5.909q0-1.4199-0.50271-2.1078-0.50271-0.68791-1.5346-0.68791-1.2612 0-1.9932 0.83784-0.73202 0.83785-0.73202 2.2842v5.5827h-1.6316v-5.909q0-1.4288-0.50271-2.1078-0.50271-0.68791-1.5522-0.68791-1.2435 0-1.9756 0.84666-0.73202 0.83785-0.73202 2.2754v5.5827h-1.6316v-9.8778h1.6316v1.5346q0.55563-0.90841 1.3317-1.3406t1.8433-0.43215q1.076 0 1.8256 0.5468 0.75847 0.54681 1.1201 1.5875z" style=""/>
   <path id="path105" d="m342.99 215.25-3.1662 1.711 3.1662 1.7198-0.51152 0.8643-2.9633-1.7903v3.3249h-1.0054v-3.3249l-2.9633 1.7903-0.51152-0.8643 3.1662-1.7198-3.1662-1.711 0.51152-0.87313 2.9633 1.7904v-3.3249h1.0054v3.3249l2.9633-1.7904z" style=""/>
   <path id="path107" d="m345.06 222.35v-5.9796h1.6228v5.9178q0 1.4023 0.54681 2.1078 0.5468 0.69673 1.6404 0.69673 1.3141 0 2.0726-0.83784 0.76729-0.83785 0.76729-2.2842v-5.6003h1.6228v9.8778h-1.6228v-1.5169q-0.5909 0.89958-1.3758 1.3406-0.77611 0.43215-1.808 0.43215-1.7022 0-2.5841-1.0583-0.88194-1.0583-0.88194-3.0956zm4.0834-6.2177z" style=""/>
   <path id="path109" d="m356.69 216.37h1.6228v10.054q0 1.8874-0.7232 2.734-0.71437 0.84667-2.3107 0.84667h-0.61736v-1.3758h0.43215q0.92604 0 1.2612-0.43216 0.33514-0.42333 0.33514-1.7727zm0-3.8453h1.6228v2.0549h-1.6228z" style=""/>
  </g>
  <path id="rect44" d="m440 190h60v60h-60z" fill="#7be38e" stroke="#000" stroke-width="2"/>
  <g id="g50" stroke="#000" stroke-width="2">
   <path id="line46" d="m410 70v20.264" fill="none"/>
   <path id="polygon48" d="m410 90.264 5-2.5-5 10-5-10z" fill-rule="evenodd"/>
  </g>
  <g id="text54" aria-label="ListaElem *mozgo">
   <path id="path115" d="m228.54 53.083h1.7815v11.668h6.4117v1.4993h-8.1933z" style=""/>
   <path id="path117" d="m238.53 56.372h1.6228v9.8778h-1.6228zm0-3.8453h1.6228v2.0549h-1.6228z" style=""/>
   <path id="path119" d="m249.83 56.663v1.5346q-0.68792-0.35278-1.4288-0.52917t-1.5346-0.17639q-1.2083 0-1.8168 0.37042-0.59972 0.37042-0.59972 1.1112 0 0.56444 0.43216 0.89076 0.43215 0.3175 1.7374 0.60854l0.55563 0.12347q1.7286 0.37042 2.4518 1.0495 0.73201 0.67028 0.73201 1.8785 0 1.3758-1.0936 2.1784-1.0848 0.80257-2.9898 0.80257-0.79375 0-1.6581-0.15875-0.85548-0.14993-1.808-0.45861v-1.6757q0.89958 0.46743 1.7727 0.70555 0.87313 0.22931 1.7286 0.22931 1.1465 0 1.7639-0.38806 0.61736-0.39688 0.61736-1.1112 0-0.66146-0.44979-1.0142-0.44097-0.35278-1.9491-0.6791l-0.56444-0.13229q-1.5081-0.3175-2.1784-0.97014-0.67028-0.66146-0.67028-1.808 0-1.3935 0.98778-2.1519 0.98778-0.75847 2.8046-0.75847 0.89958 0 1.6933 0.13229 0.79375 0.13229 1.464 0.39687z" style=""/>
   <path id="path121" d="m254.56 53.568v2.8046h3.3426v1.2612h-3.3426v5.3622q0 1.2083 0.32632 1.5522 0.33514 0.34396 1.3494 0.34396h1.6669v1.3582h-1.6669q-1.8785 0-2.5929-0.69674-0.71437-0.70556-0.71437-2.5576v-5.3622h-1.1906v-1.2612h1.1906v-2.8046z" style=""/>
   <path id="path123" d="m264.53 61.285q-1.9667 0-2.7252 0.44979t-0.75847 1.5346q0 0.8643 0.56444 1.3758 0.57326 0.50271 1.5522 0.50271 1.3494 0 2.1608-0.9525 0.82021-0.96132 0.82021-2.5488v-0.3616zm3.2367-0.67028v5.6356h-1.6228v-1.4993q-0.55563 0.89958-1.3846 1.3317-0.82903 0.42333-2.0285 0.42333-1.5169 0-2.4165-0.84667-0.89076-0.85548-0.89076-2.2842 0-1.6669 1.1112-2.5135 1.1201-0.84667 3.3338-0.84667h2.2754v-0.15875q0-1.1201-0.74083-1.7286-0.73202-0.61736-2.0638-0.61736-0.84667 0-1.6492 0.20285-0.80257 0.20285-1.5434 0.60854v-1.4993q0.89077-0.34396 1.7286-0.51153 0.83785-0.17639 1.6316-0.17639 2.1431 0 3.2014 1.1112 1.0583 1.1112 1.0583 3.369z" style=""/>
   <path id="path125" d="m271.19 53.083h8.3256v1.4993h-6.544v3.8982h6.2706v1.4993h-6.2706v4.7713h6.7028v1.4993h-8.4843z" style=""/>
   <path id="path127" d="m282.55 52.527h1.6228v13.723h-1.6228z" style=""/>
   <path id="path129" d="m296.01 60.905v0.79375h-7.4612q0.10583 1.6757 1.0054 2.5576 0.9084 0.87312 2.5224 0.87312 0.93486 0 1.808-0.2293 0.88194-0.22931 1.7462-0.68792v1.5346q-0.87313 0.37042-1.7904 0.56444t-1.8609 0.19403q-2.3636 0-3.7483-1.3758-1.3758-1.3758-1.3758-3.7218 0-2.4253 1.3053-3.8453 1.3141-1.4287 3.5366-1.4287 1.9932 0 3.1485 1.2876 1.1642 1.2788 1.1642 3.4837zm-1.6228-0.47625q-0.0176-1.3317-0.74966-2.1255-0.72319-0.79375-1.9226-0.79375-1.3582 0-2.1784 0.76729-0.81139 0.76729-0.93486 2.1608z" style=""/>
   <path id="path131" d="m306.37 58.268q0.60854-1.0936 1.4552-1.614 0.84667-0.52035 1.9932-0.52035 1.5434 0 2.3812 1.0848 0.83785 1.076 0.83785 3.0692v5.9619h-1.6316v-5.909q0-1.4199-0.50271-2.1078-0.5027-0.68792-1.5346-0.68792-1.2612 0-1.9932 0.83785t-0.73201 2.2842v5.5827h-1.6316v-5.909q0-1.4287-0.50271-2.1078-0.5027-0.68792-1.5522-0.68792-1.2435 0-1.9756 0.84666-0.73201 0.83785-0.73201 2.2754v5.5827h-1.6316v-9.8778h1.6316v1.5346q0.55562-0.9084 1.3317-1.3406 0.77611-0.43215 1.8433-0.43215 1.076 0 1.8256 0.5468 0.75847 0.5468 1.1201 1.5875z" style=""/>
   <path id="path133" d="m328.82 55.252-3.1662 1.711 3.1662 1.7198-0.51153 0.8643-2.9633-1.7903v3.3249h-1.0054v-3.3249l-2.9633 1.7903-0.51153-0.8643 3.1662-1.7198-3.1662-1.711 0.51153-0.87312 2.9633 1.7903v-3.3249h1.0054v3.3249l2.9633-1.7903z" style=""/>
   <path id="path135" d="m338.75 58.268q0.60854-1.0936 1.4552-1.614 0.84666-0.52035 1.9932-0.52035 1.5434 0 2.3812 1.0848 0.83784 1.076 0.83784 3.0692v5.9619h-1.6316v-5.909q0-1.4199-0.50271-2.1078-0.50271-0.68792-1.5346-0.68792-1.2612 0-1.9932 0.83785-0.73201 0.83785-0.73201 2.2842v5.5827h-1.6316v-5.909q0-1.4287-0.50271-2.1078-0.50271-0.68792-1.5522-0.68792-1.2435 0-1.9756 0.84666-0.73202 0.83785-0.73202 2.2754v5.5827h-1.6316v-9.8778h1.6316v1.5346q0.55563-0.9084 1.3317-1.3406 0.77611-0.43215 1.8433-0.43215 1.076 0 1.8256 0.5468 0.75847 0.5468 1.1201 1.5875z" style=""/>
   <path id="path137" d="m352.49 57.51q-1.3053 0-2.0638 1.0231-0.75847 1.0142-0.75847 2.7869 0 1.7727 0.74965 2.7958 0.75847 1.0142 2.0726 1.0142 1.2965 0 2.0549-1.0231 0.75847-1.0231 0.75847-2.7869 0-1.7551-0.75847-2.7781-0.75847-1.0319-2.0549-1.0319zm0-1.3758q2.1167 0 3.3249 1.3758 1.2083 1.3758 1.2083 3.81 0 2.4253-1.2083 3.81-1.2083 1.3758-3.3249 1.3758-2.1255 0-3.3338-1.3758-1.1994-1.3847-1.1994-3.81 0-2.4342 1.1994-3.81 1.2083-1.3758 3.3338-1.3758z" style=""/>
   <path id="path139" d="m359 56.372h7.7082v1.4817l-6.103 7.0996h6.103v1.2965h-7.9287v-1.4817l6.103-7.0996h-5.8826z" style=""/>
   <path id="path141" d="m375.69 61.196q0-1.7639-0.73202-2.734-0.72319-0.97014-2.0373-0.97014-1.3053 0-2.0373 0.97014-0.7232 0.97014-0.7232 2.734 0 1.7551 0.7232 2.7252 0.73201 0.97014 2.0373 0.97014 1.3141 0 2.0373-0.97014 0.73202-0.97014 0.73202-2.7252zm1.6228 3.8276q0 2.5224-1.1201 3.7483-1.1201 1.2347-3.4308 1.2347-0.85548 0-1.614-0.13229-0.75847-0.12347-1.4728-0.38806v-1.5787q0.71438 0.38806 1.4111 0.57326 0.69674 0.18521 1.4199 0.18521 1.5963 0 2.3901-0.83785 0.79375-0.82903 0.79375-2.5135v-0.80257q-0.50271 0.87312-1.2876 1.3053-0.78493 0.43215-1.8785 0.43215-1.8168 0-2.928-1.3847t-1.1112-3.6689q0-2.2931 1.1112-3.6777 1.1112-1.3847 2.928-1.3847 1.0936 0 1.8785 0.43215 0.78493 0.43215 1.2876 1.3053v-1.4993h1.6228z" style=""/>
   <path id="path143" d="m384.49 57.51q-1.3053 0-2.0638 1.0231-0.75847 1.0142-0.75847 2.7869 0 1.7727 0.74965 2.7958 0.75847 1.0142 2.0726 1.0142 1.2965 0 2.0549-1.0231 0.75847-1.0231 0.75847-2.7869 0-1.7551-0.75847-2.7781-0.75847-1.0319-2.0549-1.0319zm0-1.3758q2.1167 0 3.3249 1.3758 1.2083 1.3758 1.2083 3.81 0 2.4253-1.2083 3.81-1.2083 1.3758-3.3249 1.3758-2.1255 0-3.3338-1.3758-1.1994-1.3847-1.1994-3.81 0-2.4342 1.1994-3.81 1.2083-1.3758 3.3338-1.3758z" style=""/>
  </g>
  <path id="rect56" d="m120 120h20v20h-20z" fill="#fdfd04" stroke="#000" stroke-width="2"/>
  <g id="text60" aria-label="ListaElem *eleje">
   <path id="path147" d="m-34.171 123.08h1.7815v11.668h6.4117v1.4993h-8.1933z" style=""/>
   <path id="path149" d="m-24.188 126.37h1.6228v9.8778h-1.6228zm0-3.8453h1.6228v2.0549h-1.6228z" style=""/>
   <path id="path151" d="m-12.881 126.66v1.5346q-0.68792-0.35278-1.4287-0.52917-0.74083-0.17639-1.5346-0.17639-1.2083 0-1.8168 0.37042-0.59972 0.37041-0.59972 1.1112 0 0.56444 0.43215 0.89076 0.43215 0.3175 1.7374 0.60854l0.55562 0.12347q1.7286 0.37042 2.4518 1.0495 0.73201 0.67027 0.73201 1.8785 0 1.3758-1.0936 2.1784-1.0848 0.80256-2.9898 0.80256-0.79375 0-1.6581-0.15875-0.85548-0.14993-1.808-0.45861v-1.6757q0.89958 0.46743 1.7727 0.70556 0.87312 0.2293 1.7286 0.2293 1.1465 0 1.7639-0.38805 0.61736-0.39688 0.61736-1.1112 0-0.66146-0.44979-1.0142-0.44097-0.35278-1.9491-0.67909l-0.56444-0.1323q-1.5081-0.3175-2.1784-0.97013-0.67028-0.66146-0.67028-1.808 0-1.3935 0.98778-2.1519 0.98778-0.75847 2.8046-0.75847 0.89958 0 1.6933 0.13229t1.464 0.39688z" style=""/>
   <path id="path153" d="m-8.154 123.57v2.8046h3.3426v1.2612h-3.3426v5.3622q0 1.2083 0.32632 1.5522 0.33514 0.34396 1.3494 0.34396h1.6669v1.3582h-1.6669q-1.8785 0-2.5929-0.69674-0.71437-0.70555-0.71437-2.5576v-5.3622h-1.1906v-1.2612h1.1906v-2.8046z" style=""/>
   <path id="path155" d="m1.8208 131.28q-1.9667 0-2.7252 0.44979-0.75847 0.44979-0.75847 1.5346 0 0.86431 0.56444 1.3758 0.57326 0.50271 1.5522 0.50271 1.3494 0 2.1608-0.9525 0.82021-0.96132 0.82021-2.5488v-0.3616zm3.2367-0.67028v5.6356h-1.6228v-1.4993q-0.55562 0.89958-1.3847 1.3317-0.82903 0.42333-2.0285 0.42333-1.5169 0-2.4165-0.84666-0.89076-0.85549-0.89076-2.2842 0-1.6669 1.1112-2.5135 1.1201-0.84667 3.3337-0.84667h2.2754v-0.15875q0-1.1201-0.74083-1.7286-0.73201-0.61736-2.0637-0.61736-0.84667 0-1.6492 0.20285-0.80257 0.20285-1.5434 0.60854v-1.4993q0.89076-0.34396 1.7286-0.51153 0.83785-0.17639 1.6316-0.17639 2.1431 0 3.2015 1.1112 1.0583 1.1112 1.0583 3.369z" style=""/>
   <path id="path157" d="m8.4795 123.08h8.3255v1.4993h-6.544v3.8982h6.2706v1.4993h-6.2706v4.7713h6.7028v1.4993h-8.4843z" style=""/>
   <path id="path159" d="m19.839 122.53h1.6228v13.723h-1.6228z" style=""/>
   <path id="path161" d="m33.297 130.91v0.79375h-7.4612q0.10583 1.6757 1.0054 2.5576 0.9084 0.87312 2.5224 0.87312 0.93486 0 1.808-0.2293 0.88194-0.22931 1.7462-0.68792v1.5346q-0.87312 0.37042-1.7903 0.56445-0.91722 0.19402-1.8609 0.19402-2.3636 0-3.7483-1.3758-1.3758-1.3758-1.3758-3.7218 0-2.4253 1.3053-3.8453 1.3141-1.4288 3.5366-1.4288 1.9932 0 3.1485 1.2876 1.1642 1.2788 1.1642 3.4837zm-1.6228-0.47625q-0.01764-1.3317-0.74965-2.1255-0.72319-0.79375-1.9226-0.79375-1.3582 0-2.1784 0.76729-0.81139 0.76729-0.93486 2.1608z" style=""/>
   <path id="path163" d="m43.651 128.27q0.60854-1.0936 1.4552-1.614 0.84667-0.52035 1.9932-0.52035 1.5434 0 2.3812 1.0848 0.83785 1.076 0.83785 3.0692v5.9619h-1.6316v-5.909q0-1.4199-0.50271-2.1078-0.50271-0.68791-1.5346-0.68791-1.2612 0-1.9932 0.83784-0.73201 0.83785-0.73201 2.2842v5.5827h-1.6316v-5.909q0-1.4288-0.50271-2.1078-0.50271-0.68791-1.5522-0.68791-1.2435 0-1.9756 0.84666-0.73201 0.83785-0.73201 2.2754v5.5827h-1.6316v-9.8778h1.6316v1.5346q0.55562-0.90841 1.3317-1.3406t1.8433-0.43215q1.076 0 1.8256 0.5468 0.75847 0.54681 1.1201 1.5875z" style=""/>
   <path id="path165" d="m66.106 125.25-3.1662 1.711 3.1662 1.7198-0.51153 0.8643-2.9633-1.7903v3.3249h-1.0054v-3.3249l-2.9633 1.7903-0.51153-0.8643 3.1662-1.7198-3.1662-1.711 0.51153-0.87313 2.9633 1.7904v-3.3249h1.0054v3.3249l2.9633-1.7904z" style=""/>
   <path id="path167" d="m76.795 130.91v0.79375h-7.4612q0.10583 1.6757 1.0054 2.5576 0.9084 0.87312 2.5224 0.87312 0.93486 0 1.808-0.2293 0.88194-0.22931 1.7462-0.68792v1.5346q-0.87312 0.37042-1.7903 0.56445-0.91722 0.19402-1.8609 0.19402-2.3636 0-3.7483-1.3758-1.3758-1.3758-1.3758-3.7218 0-2.4253 1.3053-3.8453 1.3141-1.4288 3.5366-1.4288 1.9932 0 3.1485 1.2876 1.1642 1.2788 1.1642 3.4837zm-1.6228-0.47625q-0.01764-1.3317-0.74965-2.1255-0.72319-0.79375-1.9226-0.79375-1.3582 0-2.1784 0.76729-0.81139 0.76729-0.93486 2.1608z" style=""/>
   <path id="path169" d="m79.458 122.53h1.6228v13.723h-1.6228z" style=""/>
   <path id="path171" d="m92.917 130.91v0.79375h-7.4612q0.10583 1.6757 1.0054 2.5576 0.9084 0.87312 2.5224 0.87312 0.93486 0 1.808-0.2293 0.88194-0.22931 1.7462-0.68792v1.5346q-0.87312 0.37042-1.7903 0.56445-0.91722 0.19402-1.8609 0.19402-2.3636 0-3.7483-1.3758-1.3758-1.3758-1.3758-3.7218 0-2.4253 1.3053-3.8453 1.3141-1.4288 3.5366-1.4288 1.9932 0 3.1485 1.2876 1.1642 1.2788 1.1642 3.4837zm-1.6228-0.47625q-0.01764-1.3317-0.74965-2.1255-0.72319-0.79375-1.9226-0.79375-1.3582 0-2.1784 0.76729-0.81139 0.76729-0.93486 2.1608z" style=""/>
   <path id="path173" d="m95.58 126.37h1.6228v10.054q0 1.8874-0.72319 2.734-0.71437 0.84667-2.3107 0.84667h-0.61736v-1.3758h0.43215q0.92604 0 1.2612-0.43216 0.33514-0.42333 0.33514-1.7727zm0-3.8453h1.6228v2.0549h-1.6228z" style=""/>
   <path id="path175" d="m109.04 130.91v0.79375h-7.4612q0.10584 1.6757 1.0054 2.5576 0.9084 0.87312 2.5224 0.87312 0.93486 0 1.808-0.2293 0.88194-0.22931 1.7462-0.68792v1.5346q-0.87313 0.37042-1.7904 0.56445-0.91722 0.19402-1.8609 0.19402-2.3636 0-3.7483-1.3758-1.3758-1.3758-1.3758-3.7218 0-2.4253 1.3053-3.8453 1.3141-1.4288 3.5366-1.4288 1.9932 0 3.1485 1.2876 1.1642 1.2788 1.1642 3.4837zm-1.6228-0.47625q-0.0176-1.3317-0.74965-2.1255-0.7232-0.79375-1.9226-0.79375-1.3582 0-2.1784 0.76729-0.81139 0.76729-0.93486 2.1608z" style=""/>
  </g>
  <path id="rect62" d="m180 100h60v60h-60z" fill="#7babe3" stroke="#000" stroke-width="2"/>
  <g id="g68" stroke="#000" stroke-width="2">
   <path id="path64" d="m139.5 130h30.764" fill="none"/>
   <path id="polygon66" d="m170.26 130-2.5-5 10 5-10 5z" fill-rule="evenodd"/>
  </g>
  <g id="text72" fill="#173b8f" aria-label="(3b)">
   <path id="path180" d="m511.06 237.09q-1.1818 2.0285-1.7551 4.0128-0.57326 1.9844-0.57326 4.0217t0.57326 4.0393q0.58209 1.9932 1.7551 4.0128h-1.4111q-1.3229-2.0726-1.9844-4.0746-0.65264-2.002-0.65264-3.9776 0-1.9667 0.65264-3.9599t1.9844-4.0746z" style=""/>
   <path id="path182" d="m519.85 243.7q1.2788 0.2734 1.9932 1.1377 0.72319 0.8643 0.72319 2.1343 0 1.9491-1.3406 3.0162-1.3406 1.0672-3.81 1.0672-0.82902 0-1.711-0.16757-0.87312-0.15875-1.808-0.48507v-1.7198q0.74083 0.43215 1.6228 0.65264 0.88195 0.22048 1.8433 0.22048 1.6757 0 2.5488-0.66145 0.88195-0.66146 0.88195-1.9226 0-1.1642-0.82021-1.8168-0.81139-0.66146-2.2666-0.66146h-1.5346v-1.464h1.6051q1.3141 0 2.0108-0.52034 0.69674-0.52917 0.69674-1.517 0-1.0142-0.7232-1.5522-0.71437-0.5468-2.0549-0.5468-0.73201 0-1.5698 0.15875-0.83785 0.15875-1.8433 0.49389v-1.5875q1.0142-0.28222 1.8962-0.42334 0.89076-0.14111 1.6757-0.14111 2.0285 0 3.2103 0.92604 1.1818 0.91723 1.1818 2.4871 0 1.0936-0.62618 1.8521-0.62618 0.74965-1.7815 1.0407z" style=""/>
   <path id="path184" d="m532.81 245.87q0-1.7904-0.74083-2.8046-0.73201-1.023-2.0196-1.023t-2.0285 1.023q-0.73201 1.0142-0.73201 2.8046 0 1.7903 0.73201 2.8134 0.74083 1.0142 2.0285 1.0142t2.0196-1.0142q0.74083-1.0231 0.74083-2.8134zm-5.521-3.4484q0.51153-0.88194 1.2876-1.3053 0.78493-0.43215 1.8697-0.43215 1.7992 0 2.9192 1.4288 1.1289 1.4288 1.1289 3.7571t-1.1289 3.7571q-1.1201 1.4288-2.9192 1.4288-1.0848 0-1.8697-0.42334-0.77611-0.43215-1.2876-1.3141v1.4817h-1.6316v-13.723h1.6316z" style=""/>
   <path id="path186" d="m536.93 237.09h1.4111q1.3229 2.0814 1.9756 4.0746 0.66146 1.9932 0.66146 3.9599 0 1.9756-0.66146 3.9776-0.65264 2.002-1.9756 4.0746h-1.4111q1.173-2.0196 1.7462-4.0128 0.58208-2.002 0.58208-4.0393t-0.58208-4.0217q-0.57327-1.9844-1.7462-4.0128z" style=""/>
  </g>
  <path id="rect74" d="m180 150h60v20h-60z" fill="#fdfd04" stroke="#000" stroke-width="2"/>
  <path id="rect76" d="m280 150h60v20h-60z" fill="#fdfd04" stroke="#000" stroke-width="2"/>
  <path id="rect78" d="m380 150h60v20h-60z" fill="#fdfd04" stroke="#000" stroke-width="2"/>
  <path id="line80" d="m380 170 60-20" fill="none" stroke="#000" stroke-width="2"/>
  <path id="line82" d="m380 150 60 20" fill="none" stroke="#000" stroke-width="2"/>
  <path id="rect84" d="m440 240h60v20h-60z" fill="#fdfd04" stroke="#000" stroke-width="2"/>
  <path id="line86" d="m440 240 60 20" fill="none" stroke="#f62e2e" stroke-width="2"/>
  <g id="g92" fill="none" stroke="#f62e2e" stroke-width="2">
   <path id="line88" d="m400 150 20 20"/>
   <path id="line90" d="m400 170 20-20"/>
  </g>
  <path id="line94" d="m440 260 60-20" fill="none" stroke="#f62e2e" stroke-width="2"/>
  <path id="rect96" d="m400 50h20v20h-20z" fill="#fdfd04" stroke="#000" stroke-width="2"/>
  <g id="g102" stroke="#000" stroke-width="2">
   <path id="path98" d="m340 160c40 0 0-30 30.264-30" fill="none"/>
   <path id="polygon100" d="m370.26 130-2.5-5 10 5-10 5z" fill-rule="evenodd"/>
  </g>
 </g>
</svg>
