<?xml version="1.0" encoding="UTF-8" standalone="no"?>
<svg id="svg2" xmlns:rdf="http://www.w3.org/1999/02/22-rdf-syntax-ns#" xmlns="http://www.w3.org/2000/svg" viewBox="-37 98 476.19431 107.40948" height="6.1127cm" width="23.859cm" version="1.1" xmlns:cc="http://creativecommons.org/ns#" xmlns:dc="http://purl.org/dc/elements/1.1/">
 <metadata id="metadata100">
  <rdf:RDF>
   <cc:Work rdf:about="">
    <dc:format>image/svg+xml</dc:format>
    <dc:type rdf:resource="http://purl.org/dc/dcmitype/StillImage"/>
   </cc:Work>
  </rdf:RDF>
 </metadata>
 <g id="g4" transform="translate(-1.8057 -8.2953)">
  <path id="rect6" fill="#7babe3" d="m280 100h60v60h-60z"/>
  <path id="rect8" d="m280 100h60v60h-60z" stroke="#000" stroke-width="2" fill="none"/>
 </g>
 <g id="g10" transform="translate(-1.8057 -8.2953)">
  <path id="rect12" fill="#7babe3" d="m380 100h60v60h-60z"/>
  <path id="rect14" d="m380 100h60v60h-60z" stroke="#000" stroke-width="2" fill="none"/>
 </g>
 <g id="g16" transform="translate(-1.8057 -8.2953)">
  <path id="path18" d="m240 160c40 0 0-30 30.264-30" stroke="#000" stroke-width="2" fill="none"/>
  <path id="polygon20" d="m267.76 135 2.5-5-2.5-5 10 5z"/>
  <path id="polygon22" d="m267.76 135 2.5-5-2.5-5 10 5z" stroke="#000" stroke-width="2" fill="none"/>
 </g>
 <g id="text24">
  <path id="path60" style="" d="m-37 194.79h1.7815v11.668h6.4117v1.4993h-8.1933v-13.167z"/>
  <path id="path62" style="" d="m-27.016 198.08h1.6228v9.8778h-1.6228v-9.8778zm0-3.8453h1.6228v2.0549h-1.6228v-2.0549z"/>
  <path id="path64" style="" d="m-15.71 198.37v1.5346q-0.68792-0.35277-1.4287-0.52916-0.74083-0.17639-1.5346-0.17639-1.2083 0-1.8168 0.37042-0.59972 0.37041-0.59972 1.1112 0 0.56445 0.43215 0.89077 0.43215 0.3175 1.7374 0.60854l0.55562 0.12347q1.7286 0.37042 2.4518 1.0495 0.73201 0.67028 0.73201 1.8785 0 1.3758-1.0936 2.1784-1.0848 0.80257-2.9898 0.80257-0.79375 0-1.6581-0.15875-0.85548-0.14993-1.808-0.45861v-1.6757q0.89958 0.46743 1.7727 0.70555 0.87312 0.22931 1.7286 0.22931 1.1465 0 1.7639-0.38806 0.61736-0.39687 0.61736-1.1112 0-0.66145-0.44979-1.0142-0.44097-0.35278-1.9491-0.6791l-0.56444-0.13229q-1.5081-0.3175-2.1784-0.97014-0.67028-0.66145-0.67028-1.808 0-1.3935 0.98778-2.1519 0.98778-0.75847 2.8046-0.75847 0.89958 0 1.6933 0.13229 0.79375 0.13229 1.464 0.39687z"/>
  <path id="path66" style="" d="m-10.983 195.27v2.8046h3.3426v1.2612h-3.3426v5.3622q0 1.2083 0.32632 1.5522 0.33514 0.34395 1.3494 0.34395h1.6669v1.3582h-1.6669q-1.8785 0-2.5929-0.69674-0.71437-0.70555-0.71437-2.5576v-5.3622h-1.1906v-1.2612h1.1906v-2.8046h1.6316z"/>
  <path id="path68" style="" d="m-1.0079 202.99q-1.9667 0-2.7252 0.44979-0.75847 0.44979-0.75847 1.5346 0 0.8643 0.56444 1.3758 0.57326 0.50271 1.5522 0.50271 1.3494 0 2.1608-0.9525 0.82021-0.96132 0.82021-2.5488v-0.36159h-1.614zm3.2367-0.67028v5.6356h-1.6228v-1.4993q-0.55562 0.89959-1.3847 1.3317-0.82903 0.42333-2.0285 0.42333-1.5169 0-2.4165-0.84666-0.89076-0.85549-0.89076-2.2842 0-1.6669 1.1112-2.5135 1.1201-0.84666 3.3337-0.84666h2.2754v-0.15875q0-1.1201-0.74083-1.7286-0.73201-0.61736-2.0637-0.61736-0.84667 0-1.6492 0.20285-0.80257 0.20284-1.5434 0.60854v-1.4993q0.89076-0.34396 1.7286-0.51152 0.83785-0.17639 1.6316-0.17639 2.1431 0 3.2015 1.1112 1.0583 1.1112 1.0583 3.369z"/>
  <path id="path70" style="" d="m5.6508 194.79h8.3255v1.4993h-6.544v3.8982h6.2706v1.4993h-6.2706v4.7713h6.7028v1.4993h-8.4843v-13.167z"/>
  <path id="path72" style="" d="m17.01 194.23h1.6228v13.723h-1.6228v-13.723z"/>
  <path id="path74" style="" d="m30.469 202.61v0.79375h-7.4612q0.10583 1.6757 1.0054 2.5576 0.9084 0.87312 2.5224 0.87312 0.93486 0 1.808-0.22931 0.88194-0.2293 1.7462-0.68791v1.5346q-0.87312 0.37042-1.7903 0.56444-0.91722 0.19403-1.8609 0.19403-2.3636 0-3.7483-1.3758-1.3758-1.3758-1.3758-3.7218 0-2.4254 1.3053-3.8453 1.3141-1.4287 3.5366-1.4287 1.9932 0 3.1485 1.2876 1.1642 1.2788 1.1642 3.4837zm-1.6228-0.47625q-0.01764-1.3317-0.74965-2.1255-0.72319-0.79375-1.9226-0.79375-1.3582 0-2.1784 0.76729-0.81139 0.76729-0.93486 2.1608l5.7855-0.009z"/>
  <path id="path76" style="" d="m40.823 199.97q0.60854-1.0936 1.4552-1.614 0.84667-0.52034 1.9932-0.52034 1.5434 0 2.3812 1.0848 0.83785 1.076 0.83785 3.0692v5.9619h-1.6316v-5.909q0-1.4199-0.50271-2.1078-0.50271-0.68791-1.5346-0.68791-1.2612 0-1.9932 0.83784-0.73201 0.83785-0.73201 2.2842v5.5827h-1.6316v-5.909q0-1.4288-0.50271-2.1078-0.50271-0.68791-1.5522-0.68791-1.2435 0-1.9756 0.84666-0.73201 0.83785-0.73201 2.2754v5.5827h-1.6316v-9.8778h1.6316v1.5346q0.55562-0.9084 1.3317-1.3406 0.77611-0.43215 1.8433-0.43215 1.076 0 1.8256 0.5468 0.75847 0.54681 1.1201 1.5875z"/>
  <path id="path78" style="" d="m63.277 196.96-3.1662 1.711 3.1662 1.7198-0.51153 0.86431-2.9633-1.7904v3.3249h-1.0054v-3.3249l-2.9633 1.7904-0.51153-0.86431 3.1662-1.7198-3.1662-1.711 0.51153-0.87312 2.9633 1.7903v-3.3249h1.0054v3.3249l2.9633-1.7903 0.51153 0.87312z"/>
  <path id="path80" style="" d="m64.353 198.08h1.7198l3.0868 8.2903 3.0868-8.2903h1.7198l-3.7042 9.8778h-2.2049l-3.7042-9.8778z"/>
  <path id="path83" style="" d="m84.655 202.61v0.79375h-7.4612q0.10583 1.6757 1.0054 2.5576 0.9084 0.87312 2.5224 0.87312 0.93486 0 1.808-0.22931 0.88194-0.2293 1.7462-0.68791v1.5346q-0.87312 0.37042-1.7903 0.56444-0.91722 0.19403-1.8609 0.19403-2.3636 0-3.7483-1.3758-1.3758-1.3758-1.3758-3.7218 0-2.4254 1.3053-3.8453 1.3141-1.4287 3.5366-1.4287 1.9932 0 3.1485 1.2876 1.1642 1.2788 1.1642 3.4837zm-1.6228-0.47625q-0.01764-1.3317-0.74965-2.1255-0.72319-0.79375-1.9226-0.79375-1.3582 0-2.1784 0.76729-0.81139 0.76729-0.93486 2.1608l5.7855-0.009z"/>
  <path id="path85" style="" d="m93.819 202.9q0-1.7639-0.73201-2.734-0.72319-0.97014-2.0373-0.97014-1.3053 0-2.0373 0.97014-0.72319 0.97013-0.72319 2.734 0 1.7551 0.72319 2.7252 0.73201 0.97013 2.0373 0.97013 1.3141 0 2.0373-0.97013 0.73201-0.97014 0.73201-2.7252zm1.6228 3.8276q0 2.5224-1.1201 3.7483-1.1201 1.2347-3.4308 1.2347-0.85548 0-1.614-0.1323-0.75847-0.12347-1.4728-0.38805v-1.5787q0.71437 0.38806 1.4111 0.57326 0.69674 0.18521 1.4199 0.18521 1.5963 0 2.3901-0.83784 0.79375-0.82903 0.79375-2.5135v-0.80257q-0.50271 0.87312-1.2876 1.3053-0.78493 0.43216-1.8785 0.43216-1.8168 0-2.9281-1.3846-1.1112-1.3847-1.1112-3.6689 0-2.293 1.1112-3.6777 1.1112-1.3846 2.9281-1.3846 1.0936 0 1.8785 0.43215 0.78493 0.43215 1.2876 1.3053v-1.4993h1.6228v8.6519z"/>
  <path id="path87" style="" d="m107.23 202.61v0.79375h-7.4612q0.10583 1.6757 1.0054 2.5576 0.9084 0.87312 2.5224 0.87312 0.93486 0 1.808-0.22931 0.88194-0.2293 1.7462-0.68791v1.5346q-0.87313 0.37042-1.7904 0.56444-0.91722 0.19403-1.8609 0.19403-2.3636 0-3.7483-1.3758-1.3758-1.3758-1.3758-3.7218 0-2.4254 1.3053-3.8453 1.3141-1.4287 3.5366-1.4287 1.9932 0 3.1485 1.2876 1.1642 1.2788 1.1642 3.4837zm-1.6228-0.47625q-0.0176-1.3317-0.74966-2.1255-0.72319-0.79375-1.9226-0.79375-1.3582 0-2.1784 0.76729-0.81139 0.76729-0.93486 2.1608l5.7856-0.009z"/>
 </g>
 <g id="g28" transform="translate(-1.8057 -8.2953)">
  <path id="rect30" fill="#fdfd04" d="m120 120h20v20h-20z"/>
  <path id="rect32" d="m120 120h20v20h-20z" stroke="#000" stroke-width="2" fill="none"/>
 </g>
 <g id="text34">
  <path id="path92" style="" d="m-35.977 114.79h1.7815v11.668h6.4117v1.4993h-8.1933v-13.167z"/>
  <path id="path94" style="" d="m-25.993 118.08h1.6228v9.8778h-1.6228v-9.8778zm0-3.8453h1.6228v2.0549h-1.6228v-2.0549z"/>
  <path id="path96" style="" d="m-14.687 118.37v1.5346q-0.68792-0.35278-1.4287-0.52917-0.74083-0.17639-1.5346-0.17639-1.2083 0-1.8168 0.37042-0.59972 0.37041-0.59972 1.1112 0 0.56444 0.43215 0.89076 0.43215 0.3175 1.7374 0.60854l0.55562 0.12347q1.7286 0.37042 2.4518 1.0495 0.73201 0.67027 0.73201 1.8785 0 1.3758-1.0936 2.1784-1.0848 0.80256-2.9898 0.80256-0.79375 0-1.6581-0.15875-0.85548-0.14993-1.808-0.45861v-1.6757q0.89958 0.46743 1.7727 0.70556 0.87312 0.2293 1.7286 0.2293 1.1465 0 1.7639-0.38805 0.61736-0.39688 0.61736-1.1112 0-0.66146-0.44979-1.0142-0.44097-0.35278-1.9491-0.67909l-0.56444-0.1323q-1.5081-0.3175-2.1784-0.97013-0.67028-0.66146-0.67028-1.808 0-1.3935 0.98778-2.1519 0.98778-0.75847 2.8046-0.75847 0.89958 0 1.6933 0.13229 0.79375 0.13229 1.464 0.39688z"/>
  <path id="path98" style="" d="m-9.9596 115.27v2.8046h3.3426v1.2612h-3.3426v5.3622q0 1.2083 0.32632 1.5522 0.33514 0.34396 1.3494 0.34396h1.6669v1.3582h-1.6669q-1.8785 0-2.5929-0.69674-0.71437-0.70555-0.71437-2.5576v-5.3622h-1.1906v-1.2612h1.1906v-2.8046h1.6316z"/>
  <path id="path100" style="" d="m0.015159 122.99q-1.9667 0-2.7252 0.44979-0.75847 0.44979-0.75847 1.5346 0 0.86431 0.56444 1.3758 0.57326 0.50271 1.5522 0.50271 1.3494 0 2.1608-0.9525 0.82021-0.96132 0.82021-2.5488v-0.3616h-1.614zm3.2367-0.67028v5.6356h-1.6228v-1.4993q-0.55562 0.89958-1.3847 1.3317-0.82903 0.42333-2.0285 0.42333-1.5169 0-2.4165-0.84666-0.89076-0.85549-0.89076-2.2842 0-1.6669 1.1112-2.5135 1.1201-0.84667 3.3337-0.84667h2.2754v-0.15875q0-1.1201-0.74083-1.7286-0.73201-0.61736-2.0637-0.61736-0.84667 0-1.6492 0.20285-0.80257 0.20285-1.5434 0.60854v-1.4993q0.89076-0.34396 1.7286-0.51153 0.83785-0.17639 1.6316-0.17639 2.1431 0 3.2015 1.1112 1.0583 1.1112 1.0583 3.369z"/>
  <path id="path102" style="" d="m6.6738 114.79h8.3255v1.4993h-6.544v3.8982h6.2706v1.4993h-6.2706v4.7713h6.7028v1.4993h-8.4843v-13.167z"/>
  <path id="path104" style="" d="m18.033 114.23h1.6228v13.723h-1.6228v-13.723z"/>
  <path id="path106" style="" d="m31.492 122.61v0.79375h-7.4612q0.10583 1.6757 1.0054 2.5576 0.9084 0.87312 2.5224 0.87312 0.93486 0 1.808-0.2293 0.88194-0.22931 1.7462-0.68792v1.5346q-0.87312 0.37042-1.7903 0.56445-0.91722 0.19402-1.8609 0.19402-2.3636 0-3.7483-1.3758-1.3758-1.3758-1.3758-3.7218 0-2.4253 1.3053-3.8453 1.3141-1.4288 3.5366-1.4288 1.9932 0 3.1485 1.2876 1.1642 1.2788 1.1642 3.4837zm-1.6228-0.47625q-0.01764-1.3317-0.74965-2.1255-0.72319-0.79375-1.9226-0.79375-1.3582 0-2.1784 0.76729-0.81139 0.76729-0.93486 2.1608l5.7855-0.009z"/>
  <path id="path108" style="" d="m41.846 119.97q0.60854-1.0936 1.4552-1.614 0.84667-0.52035 1.9932-0.52035 1.5434 0 2.3812 1.0848 0.83785 1.076 0.83785 3.0692v5.9619h-1.6316v-5.909q0-1.4199-0.50271-2.1078-0.50271-0.68791-1.5346-0.68791-1.2612 0-1.9932 0.83785-0.73201 0.83784-0.73201 2.2842v5.5827h-1.6316v-5.909q0-1.4288-0.50271-2.1078-0.50271-0.68791-1.5522-0.68791-1.2435 0-1.9756 0.84666-0.73201 0.83785-0.73201 2.2754v5.5827h-1.6316v-9.8778h1.6316v1.5346q0.55562-0.90841 1.3317-1.3406 0.77611-0.43215 1.8433-0.43215 1.076 0 1.8256 0.5468 0.75847 0.54681 1.1201 1.5875z"/>
  <path id="path110" style="" d="m64.3 116.96-3.1662 1.711 3.1662 1.7198-0.51153 0.8643-2.9633-1.7903v3.3249h-1.0054v-3.3249l-2.9633 1.7903-0.51153-0.8643 3.1662-1.7198-3.1662-1.711 0.51153-0.87313 2.9633 1.7904v-3.3249h1.0054v3.3249l2.9633-1.7904 0.51153 0.87313z"/>
  <path id="path112" style="" d="m74.989 122.61v0.79375h-7.4612q0.10583 1.6757 1.0054 2.5576 0.9084 0.87312 2.5224 0.87312 0.93486 0 1.808-0.2293 0.88194-0.22931 1.7462-0.68792v1.5346q-0.87312 0.37042-1.7903 0.56445-0.91722 0.19402-1.8609 0.19402-2.3636 0-3.7483-1.3758-1.3758-1.3758-1.3758-3.7218 0-2.4253 1.3053-3.8453 1.3141-1.4288 3.5366-1.4288 1.9932 0 3.1485 1.2876 1.1642 1.2788 1.1642 3.4837zm-1.6228-0.47625q-0.01764-1.3317-0.74965-2.1255-0.72319-0.79375-1.9226-0.79375-1.3582 0-2.1784 0.76729-0.81139 0.76729-0.93486 2.1608l5.7855-0.009z"/>
  <path id="path114" style="" d="m77.653 114.23h1.6228v13.723h-1.6228v-13.723z"/>
  <path id="path116" style="" d="m91.111 122.61v0.79375h-7.4612q0.10583 1.6757 1.0054 2.5576 0.9084 0.87312 2.5224 0.87312 0.93486 0 1.808-0.2293 0.88194-0.22931 1.7462-0.68792v1.5346q-0.87312 0.37042-1.7903 0.56445-0.91722 0.19402-1.8609 0.19402-2.3636 0-3.7483-1.3758-1.3758-1.3758-1.3758-3.7218 0-2.4253 1.3053-3.8453 1.3141-1.4288 3.5366-1.4288 1.9932 0 3.1485 1.2876 1.1642 1.2788 1.1642 3.4837zm-1.6228-0.47625q-0.01764-1.3317-0.74965-2.1255-0.72319-0.79375-1.9226-0.79375-1.3582 0-2.1784 0.76729-0.81139 0.76729-0.93486 2.1608l5.7855-0.009z"/>
  <path id="path118" style="" d="m93.775 118.08h1.6228v10.054q0 1.8874-0.72319 2.734-0.71437 0.84667-2.3107 0.84667h-0.61736v-1.3758h0.43215q0.92604 0 1.2612-0.43216 0.33514-0.42333 0.33514-1.7727v-10.054zm0-3.8453h1.6228v2.0549h-1.6228v-2.0549z"/>
  <path id="path120" style="" d="m107.23 122.61v0.79375h-7.4612q0.10583 1.6757 1.0054 2.5576 0.90841 0.87312 2.5224 0.87312 0.93486 0 1.808-0.2293 0.88194-0.22931 1.7462-0.68792v1.5346q-0.87312 0.37042-1.7903 0.56445-0.91722 0.19402-1.8609 0.19402-2.3636 0-3.7483-1.3758-1.3758-1.3758-1.3758-3.7218 0-2.4253 1.3053-3.8453 1.3141-1.4288 3.5366-1.4288 1.9932 0 3.1485 1.2876 1.1642 1.2788 1.1642 3.4837zm-1.6228-0.47625q-0.0176-1.3317-0.74965-2.1255-0.72319-0.79375-1.9226-0.79375-1.3582 0-2.1784 0.76729-0.81139 0.76729-0.93486 2.1608l5.7855-0.009z"/>
 </g>
 <g id="g38" transform="translate(-1.8057 -8.2953)">
  <path id="rect40" fill="#7babe3" d="m180 100h60v60h-60z"/>
  <path id="rect42" d="m180 100h60v60h-60z" stroke="#000" stroke-width="2" fill="none"/>
 </g>
 <g id="g44" transform="translate(-1.8057 -8.2953)">
  <path id="path46" d="m139.5 130h30.764" stroke="#000" stroke-width="2" fill="none"/>
  <path id="polygon48" d="m167.76 135 2.5-5-2.5-5 10 5z"/>
  <path id="polygon50" d="m167.76 135 2.5-5-2.5-5 10 5z" stroke="#000" stroke-width="2" fill="none"/>
 </g>
 <g id="g52" transform="translate(-1.8057 -8.2953)">
  <path id="rect54" fill="#fdfd04" d="m180 150h60v20h-60z"/>
  <path id="rect56" d="m180 150h60v20h-60z" stroke="#000" stroke-width="2" fill="none"/>
 </g>
 <g id="g58" transform="translate(-1.8057 -8.2953)">
  <path id="rect60" fill="#fdfd04" d="m280 150h60v20h-60z"/>
  <path id="rect62" d="m280 150h60v20h-60z" stroke="#000" stroke-width="2" fill="none"/>
 </g>
 <g id="g64" transform="translate(-1.8057 -8.2953)">
  <path id="rect66" fill="#fdfd04" d="m380 150h60v20h-60z"/>
  <path id="rect68" d="m380 150h60v20h-60z" stroke="#000" stroke-width="2" fill="none"/>
 </g>
 <path id="line70" d="m378.19 161.7 60-20" stroke="#000" stroke-width="2" fill="none"/>
 <path id="line72" d="m378.19 141.7 60 20" stroke="#000" stroke-width="2" fill="none"/>
 <g id="g74" transform="translate(-1.8057 -8.2953)">
  <path id="rect76" fill="#fdfd04" d="m120 200h20v20h-20z"/>
  <path id="rect78" d="m120 200h20v20h-20z" stroke="#000" stroke-width="2" fill="none"/>
 </g>
 <g id="g80" transform="translate(-1.8057 -8.2953)">
  <path id="path82" d="m340 160c40 0 0-30 30.264-30" stroke="#000" stroke-width="2" fill="none"/>
  <path id="polygon84" d="m367.76 135 2.5-5-2.5-5 10 5z"/>
  <path id="polygon86" d="m367.76 135 2.5-5-2.5-5 10 5z" stroke="#000" stroke-width="2" fill="none"/>
 </g>
 <g id="g88" transform="translate(-1.8057 -8.2953)">
  <path id="path90" d="m140 210c40 0 270 10 270-30.264" stroke="#000" stroke-width="2" fill="none"/>
  <path id="polygon92" d="m415 182.24-5-2.5-5 2.5 5-10z"/>
  <path id="polygon94" d="m415 182.24-5-2.5-5 2.5 5-10z" stroke="#000" stroke-width="2" fill="none"/>
 </g>
</svg>
