<?xml version="1.0" encoding="UTF-8"?>
<svg id="svg77" width="16.948cm" height="5.8049cm" version="1.1" viewBox="118 58 327 109.33" xmlns="http://www.w3.org/2000/svg" xmlns:cc="http://creativecommons.org/ns#" xmlns:dc="http://purl.org/dc/elements/1.1/" xmlns:rdf="http://www.w3.org/1999/02/22-rdf-syntax-ns#">
 <metadata id="metadata81">
  <rdf:RDF>
   <cc:Work rdf:about="">
    <dc:format>image/svg+xml</dc:format>
    <dc:type rdf:resource="http://purl.org/dc/dcmitype/StillImage"/>
   </cc:Work>
  </rdf:RDF>
 </metadata>
 <g id="Háttér" transform="translate(-1 -2.3374)">
  <g id="g8" stroke="#000" stroke-width="2">
   <path id="path4" d="m140 120c40 0 0 15 30.264 15" fill="none"/>
   <path id="polygon6" d="m170.26 135-2.5-5 10 5-10 5z" fill-rule="evenodd"/>
  </g>
  <path id="rect10" d="m280 120h60v30h-60z" fill="#7babe3" stroke="#000" stroke-width="2"/>
  <path id="rect12" d="m380 120h60v30h-60z" fill="#7babe3" stroke="#000" stroke-width="2"/>
  <path id="rect14" d="m180 120h60v30h-60z" fill="#7babe3" stroke="#000" stroke-width="2"/>
  <path id="rect16" d="m120 110h20v20h-20z" fill="#fdfd04" stroke="#000" stroke-width="2"/>
  <g id="g22" stroke="#000" stroke-width="2">
   <path id="path18" d="m240 160c40 0 0-25 30.264-25" fill="none"/>
   <path id="polygon20" d="m270.26 135-2.5-5 10 5-10 5z" fill-rule="evenodd"/>
  </g>
  <path id="rect24" d="m180 150h60v20h-60z" fill="#fdfd04" stroke="#000" stroke-width="2"/>
  <path id="rect26" d="m280 150h60v20h-60z" fill="#fdfd04" stroke="#000" stroke-width="2"/>
  <path id="rect28" d="m380 150h60v20h-60z" fill="#fdfd04" stroke="#000" stroke-width="2"/>
  <path id="line30" d="m380 150 60 20" fill="none" stroke="#000" stroke-width="2"/>
  <path id="line32" d="m380 170 60-20" fill="none" stroke="#000" stroke-width="2"/>
  <g id="g38" stroke="#000" stroke-width="2">
   <path id="path34" d="m340 160c40 0 0-25 30.264-25" fill="none"/>
   <path id="polygon36" d="m370.26 135-2.5-5 10 5-10 5z" fill-rule="evenodd"/>
  </g>
  <path id="rect40" d="m196 60h28v30h-28z" fill="#7babe3" stroke="#000" stroke-width="2"/>
  <g id="g46" stroke="#000" stroke-width="2">
   <path id="line42" d="m210 120v-19.257" fill="none"/>
   <path id="polygon44" d="m210 100.74-5 2.5 5-9.9999 5 9.9999z" fill-rule="evenodd"/>
  </g>
  <g id="text50" aria-label="a">
   <path id="path59" d="m210.65 76.285q-1.9667 0-2.7252 0.44979t-0.75847 1.5346q0 0.8643 0.56445 1.3758 0.57326 0.50271 1.5522 0.50271 1.3494 0 2.1608-0.9525 0.8202-0.96132 0.8202-2.5488v-0.3616zm3.2367-0.67028v5.6356h-1.6228v-1.4993q-0.55562 0.89958-1.3846 1.3317-0.82902 0.42333-2.0285 0.42333-1.5169 0-2.4165-0.84667-0.89076-0.85548-0.89076-2.2842 0-1.6669 1.1112-2.5135 1.1201-0.84667 3.3338-0.84667h2.2754v-0.15875q0-1.1201-0.74083-1.7286-0.73201-0.61736-2.0638-0.61736-0.84666 0-1.6492 0.20285t-1.5434 0.60854v-1.4993q0.89076-0.34396 1.7286-0.51153 0.83784-0.17639 1.6316-0.17639 2.1431 0 3.2015 1.1112t1.0583 3.369z" style=""/>
  </g>
  <path id="rect52" d="m280 60h60v30h-60z" fill="#7babe3" stroke="#000" stroke-width="2"/>
  <g id="g58" stroke="#000" stroke-width="2">
   <path id="line54" d="m310 120v-19.257" fill="none"/>
   <path id="polygon56" d="m310 100.74-5 2.5 5-9.9998 5 9.9998z" fill-rule="evenodd"/>
  </g>
  <g id="text62" aria-label="kutya">
   <path id="path65" d="m286.52 67.527h1.6316v8.1051l4.8419-4.2598h2.0726l-5.2388 4.6214 5.4592 5.2564h-2.1167l-5.0183-4.8242v4.8242h-1.6316z" style=""/>
   <path id="path67" d="m296.33 77.352v-5.9796h1.6228v5.9178q0 1.4023 0.54681 2.1078 0.5468 0.69674 1.6404 0.69674 1.3141 0 2.0726-0.83785 0.76729-0.83785 0.76729-2.2842v-5.6003h1.6228v9.8778h-1.6228v-1.5169q-0.5909 0.89958-1.3758 1.3406-0.77611 0.43215-1.808 0.43215-1.7022 0-2.5841-1.0583-0.88194-1.0583-0.88194-3.0956zm4.0834-6.2177z" style=""/>
   <path id="path69" d="m309.57 68.568v2.8046h3.3426v1.2612h-3.3426v5.3622q0 1.2083 0.32632 1.5522 0.33513 0.34396 1.3494 0.34396h1.6669v1.3582h-1.6669q-1.8785 0-2.5929-0.69674-0.71438-0.70556-0.71438-2.5576v-5.3622h-1.1906v-1.2612h1.1906v-2.8046z" style=""/>
   <path id="path71" d="m319.16 82.167q-0.68791 1.7639-1.3406 2.3019-0.65264 0.53799-1.7462 0.53799h-1.2965v-1.3582h0.9525q0.67028 0 1.0407-0.3175 0.37041-0.3175 0.8202-1.4993l0.29104-0.74083-3.9952-9.719h1.7198l3.0868 7.7258 3.0868-7.7258h1.7198z" style=""/>
   <path id="path73" d="m330.23 76.285q-1.9667 0-2.7252 0.44979t-0.75847 1.5346q0 0.8643 0.56444 1.3758 0.57326 0.50271 1.5522 0.50271 1.3494 0 2.1608-0.9525 0.82021-0.96132 0.82021-2.5488v-0.3616zm3.2367-0.67028v5.6356h-1.6228v-1.4993q-0.55563 0.89958-1.3846 1.3317-0.82903 0.42333-2.0285 0.42333-1.517 0-2.4165-0.84667-0.89076-0.85548-0.89076-2.2842 0-1.6669 1.1112-2.5135 1.1201-0.84667 3.3337-0.84667h2.2754v-0.15875q0-1.1201-0.74083-1.7286-0.73202-0.61736-2.0638-0.61736-0.84667 0-1.6492 0.20285-0.80256 0.20285-1.5434 0.60854v-1.4993q0.89077-0.34396 1.7286-0.51153 0.83785-0.17639 1.6316-0.17639 2.1431 0 3.2014 1.1112t1.0583 3.369z" style=""/>
  </g>
  <path id="rect64" d="m375 60h70v29.981h-70z" fill="#7babe3" stroke="#000" stroke-width="2"/>
  <g id="g70" stroke="#000" stroke-width="2">
   <path id="line66" d="m410 120v-19.362" fill="none"/>
   <path id="polygon68" d="m410 100.64-5 2.5 5-9.9997 5 9.9997z" fill-rule="evenodd"/>
  </g>
  <g id="text74" aria-label="alszik">
   <path id="path79" d="m390.95 76.275q-1.9667 0-2.7252 0.44979-0.75847 0.44979-0.75847 1.5346 0 0.8643 0.56444 1.3758 0.57326 0.50271 1.5522 0.50271 1.3494 0 2.1608-0.9525 0.82021-0.96132 0.82021-2.5488v-0.3616zm3.2367-0.67028v5.6356h-1.6228v-1.4993q-0.55563 0.89958-1.3846 1.3317-0.82903 0.42333-2.0285 0.42333-1.5169 0-2.4165-0.84666-0.89076-0.85549-0.89076-2.2842 0-1.6669 1.1112-2.5135 1.1201-0.84666 3.3338-0.84666h2.2754v-0.15875q0-1.1201-0.74083-1.7286-0.73202-0.61736-2.0638-0.61736-0.84667 0-1.6492 0.20285-0.80257 0.20285-1.5434 0.60854v-1.4993q0.89077-0.34396 1.7286-0.51153 0.83785-0.17639 1.6316-0.17639 2.1431 0 3.2014 1.1112 1.0583 1.1112 1.0583 3.369z" style=""/>
   <path id="path81" d="m397.54 67.518h1.6228v13.723h-1.6228z" style=""/>
   <path id="path83" d="m408.84 71.654v1.5346q-0.68791-0.35278-1.4287-0.52917-0.74084-0.17639-1.5346-0.17639-1.2083 0-1.8168 0.37042-0.59972 0.37042-0.59972 1.1112 0 0.56444 0.43215 0.89076 0.43215 0.3175 1.7374 0.60854l0.55562 0.12347q1.7286 0.37042 2.4518 1.0495 0.73201 0.67028 0.73201 1.8785 0 1.3758-1.0936 2.1784-1.0848 0.80257-2.9898 0.80257-0.79375 0-1.658-0.15875-0.85549-0.14993-1.808-0.45861v-1.6757q0.89959 0.46743 1.7727 0.70556 0.87312 0.2293 1.7286 0.2293 1.1465 0 1.7639-0.38806 0.61736-0.39687 0.61736-1.1112 0-0.66146-0.44979-1.0142-0.44098-0.35278-1.9491-0.6791l-0.56444-0.13229q-1.5081-0.3175-2.1784-0.97014-0.67028-0.66146-0.67028-1.808 0-1.3935 0.98778-2.1519 0.98777-0.75847 2.8046-0.75847 0.89958 0 1.6933 0.13229 0.79375 0.13229 1.464 0.39688z" style=""/>
   <path id="path85" d="m411.26 71.363h7.7082v1.4817l-6.103 7.0996h6.103v1.2965h-7.9287v-1.4817l6.103-7.0996h-5.8826z" style=""/>
   <path id="path87" d="m421.46 71.363h1.6228v9.8778h-1.6228zm0-3.8453h1.6228v2.0549h-1.6228z" style=""/>
   <path id="path89" d="m426.4 67.518h1.6316v8.1051l4.8419-4.2598h2.0726l-5.2388 4.6214 5.4592 5.2564h-2.1167l-5.0183-4.8242v4.8242h-1.6316z" style=""/>
  </g>
 </g>
</svg>
