<?xml version="1.0" encoding="UTF-8"?>
<svg id="svg103" width="19.889cm" height="9.1228cm" version="1.1" viewBox="73 38 396.79 166.95" xmlns="http://www.w3.org/2000/svg" xmlns:cc="http://creativecommons.org/ns#" xmlns:dc="http://purl.org/dc/elements/1.1/" xmlns:rdf="http://www.w3.org/1999/02/22-rdf-syntax-ns#">
 <metadata id="metadata107">
  <rdf:RDF>
   <cc:Work rdf:about="">
    <dc:format>image/svg+xml</dc:format>
    <dc:type rdf:resource="http://purl.org/dc/dcmitype/StillImage"/>
   </cc:Work>
  </rdf:RDF>
 </metadata>
 <g id="Háttér" transform="translate(-1.5469 -8.5263)">
  <g id="g8" stroke="#000" stroke-width="2">
   <path id="path4" d="m150 90h30.264" fill="none"/>
   <path id="polygon6" d="m180.26 90-2.5-5 10 5-10 5z" fill-rule="evenodd"/>
  </g>
  <path id="rect10" d="m290 70h60v40h-60z" fill="#7babe3" stroke="#000" stroke-width="2"/>
  <path id="rect12" d="m390 70h60v40h-60z" fill="#7babe3" stroke="#000" stroke-width="2"/>
  <path id="rect14" d="m190 70h60v40h-60z" fill="#7babe3" stroke="#000" stroke-width="2"/>
  <path id="rect16" d="m130 80h20v20h-20z" fill="#fdfd04" stroke="#000" stroke-width="2"/>
  <path id="rect18" d="m390 100h60v20h-60z" fill="#fdfd04" stroke="#000" stroke-width="2"/>
  <path id="line20" d="m390 100 60 20" fill="none" stroke="#000" stroke-width="2"/>
  <path id="line22" d="m390 120 60-20" fill="none" stroke="#000" stroke-width="2"/>
  <g id="g28" stroke="#000" stroke-width="2">
   <path id="path24" d="m250 110c40 0 0-20 30.264-20" fill="none"/>
   <path id="polygon26" d="m280.26 90-2.5-5 10 5-10 5z" fill-rule="evenodd"/>
  </g>
  <g id="g34" stroke="#000" stroke-width="2">
   <path id="path30" d="m150 190h30.264" fill="none"/>
   <path id="polygon32" d="m180.26 190-2.5-5 10 5-10 5z" fill-rule="evenodd"/>
  </g>
  <path id="rect36" d="m290 170h60v40h-60z" fill="#7babe3" stroke="#000" stroke-width="2"/>
  <path id="rect38" d="m390 170h60v40h-60z" fill="#7babe3" stroke="#000" stroke-width="2"/>
  <path id="rect40" d="m190 170h60v40h-60z" fill="#7babe3" stroke="#000" stroke-width="2"/>
  <path id="rect42" d="m130 180h20v20h-20z" fill="#fdfd04" stroke="#000" stroke-width="2"/>
  <g id="g48" stroke="#f62e2e" stroke-width="2">
   <path id="path44" d="m450 110c130 80-410.98-16.521-269.57 58.898" fill="none"/>
   <path id="polygon46" d="m180.43 168.9 0.147-5.589 6.471 9.118-11.177-0.294z" fill="#f62e2e" fill-rule="evenodd"/>
  </g>
  <g id="g54" stroke="#f62e2e" stroke-width="2">
   <path id="path50" d="m150 50c30 10 10 20 30.764 26.921" fill="none"/>
   <path id="polygon52" d="m180.76 76.921-0.791-5.534 7.906 7.9057-11.068 1.5811z" fill="#f62e2e" fill-rule="evenodd"/>
  </g>
  <path id="rect56" d="m390 200h60v20h-60z" fill="#fdfd04" stroke="#000" stroke-width="2"/>
  <path id="line58" d="m390 200 60 20" fill="none" stroke="#000" stroke-width="2"/>
  <path id="line60" d="m390 220 60-20" fill="none" stroke="#000" stroke-width="2"/>
  <path id="rect62" d="m190 100h60v20h-60z" fill="#fdfd04" stroke="#000" stroke-width="2"/>
  <path id="rect64" d="m290 100h60v20h-60z" fill="#fdfd04" stroke="#000" stroke-width="2"/>
  <path id="rect66" d="m190 200h60v20h-60z" fill="#fdfd04" stroke="#000" stroke-width="2"/>
  <path id="rect68" d="m290 200h60v20h-60z" fill="#fdfd04" stroke="#000" stroke-width="2"/>
  <g id="g74" stroke="#000" stroke-width="2">
   <path id="path70" d="m350 110c40 0 0-20 30.264-20" fill="none"/>
   <path id="polygon72" d="m380.26 90-2.5-5 10 5-10 5z" fill-rule="evenodd"/>
  </g>
  <g id="g80" stroke="#000" stroke-width="2">
   <path id="path76" d="m250 210c40 0 0-20 30.264-20" fill="none"/>
   <path id="polygon78" d="m280.26 190-2.5-5 10 5-10 5z" fill-rule="evenodd"/>
  </g>
  <g id="g86" stroke="#000" stroke-width="2">
   <path id="path82" d="m350 210c40 0-1.006-20 29.258-20" fill="none"/>
   <path id="polygon84" d="m379.26 190-2.5-5 10 5-10 5z" fill-rule="evenodd"/>
  </g>
  <path id="rect88" d="m130 40h20v20h-20z" fill="#fdfd04" stroke="#ff3776" stroke-width="2"/>
  <g id="text92" fill="#f00" aria-label="futo">
   <path id="path84" d="m94.41 43.467v1.1807h-1.3582q-0.76398 0-1.0649 0.30868-0.29325 0.30868-0.29325 1.1112v0.76398h2.3382v1.1035h-2.3382v7.5395h-1.4276v-7.5395h-1.3582v-1.1035h1.3582v-0.60192q0-1.4431 0.67138-2.099 0.67138-0.66366 2.1299-0.66366z" style=""/>
   <path id="path86" d="m95.445 52.064v-5.2321h1.4199v5.1781q0 1.227 0.47845 1.8444 0.47845 0.60964 1.4354 0.60964 1.1498 0 1.8135-0.73311 0.67138-0.73311 0.67138-1.9987v-4.9003h1.4199v8.643h-1.4199v-1.3273q-0.51704 0.78713-1.2038 1.173-0.67909 0.37813-1.582 0.37813-1.4894 0-2.2611-0.92604t-0.7717-2.7087zm3.573-5.4405z" style=""/>
   <path id="path88" d="m107.03 44.378v2.454h2.9247v1.1035h-2.9247v4.6919q0 1.0572 0.28552 1.3582 0.29325 0.30096 1.1807 0.30096h1.4585v1.1884h-1.4585q-1.6437 0-2.2688-0.60964-0.62508-0.61736-0.62508-2.2379v-4.6919h-1.0418v-1.1035h1.0418v-2.454z" style=""/>
   <path id="path90" d="m115.18 47.827q-1.1421 0-1.8058 0.89517-0.66366 0.88745-0.66366 2.4386 0 1.5511 0.65595 2.4463 0.66366 0.88745 1.8135 0.88745 1.1344 0 1.7981-0.89517t0.66366-2.4386q0-1.5357-0.66366-2.4309-0.66366-0.90289-1.7981-0.90289zm0-1.2039q1.8521 0 2.9093 1.2039 1.0572 1.2039 1.0572 3.3337 0 2.1222-1.0572 3.3337-1.0572 1.2039-2.9093 1.2039-1.8598 0-2.917-1.2039-1.0495-1.2116-1.0495-3.3337 0-2.1299 1.0495-3.3337 1.0572-1.2039 2.917-1.2039z" style=""/>
  </g>
  <g id="text96" aria-label="egyik">
   <path id="path93" d="m86.223 90.799v0.69453h-6.5286q0.0926 1.4662 0.87974 2.2379 0.79485 0.76398 2.2071 0.76398 0.818 0 1.582-0.20064 0.7717-0.20064 1.528-0.60193v1.3428q-0.76398 0.32411-1.5666 0.49389-0.80257 0.16977-1.6283 0.16977-2.0682 0-3.2797-1.2039-1.2039-1.2038-1.2039-3.2566 0-2.1222 1.1421-3.3646 1.1498-1.2502 3.0945-1.2502 1.744 0 2.755 1.1267 1.0186 1.119 1.0186 3.0482zm-1.4199-0.41672q-0.01543-1.1653-0.65594-1.8598-0.63279-0.69453-1.6823-0.69453-1.1884 0-1.9061 0.67138-0.70996 0.67138-0.818 1.8907z" style=""/>
   <path id="path95" d="m94.241 91.053q0-1.5434-0.64051-2.3923-0.63279-0.84887-1.7826-0.84887-1.1421 0-1.7826 0.84887-0.63279 0.84887-0.63279 2.3923 0 1.5357 0.63279 2.3846 0.64051 0.84887 1.7826 0.84887 1.1498 0 1.7826-0.84887 0.64051-0.84887 0.64051-2.3846zm1.4199 3.3492q0 2.2071-0.98006 3.2797-0.98006 1.0804-3.0019 1.0804-0.74855 0-1.4122-0.11576-0.66366-0.10804-1.2887-0.33955v-1.3813q0.62508 0.33955 1.2347 0.5016 0.60964 0.16206 1.2424 0.16206 1.3968 0 2.0913-0.73311 0.69453-0.7254 0.69453-2.1993v-0.70225q-0.43987 0.76398-1.1267 1.1421-0.68681 0.37813-1.6437 0.37813-1.5897 0-2.562-1.2116-0.97234-1.2116-0.97234-3.2103 0-2.0064 0.97234-3.218t2.562-1.2116q0.95691 0 1.6437 0.37813 0.68681 0.37813 1.1267 1.1421v-1.3119h1.4199z" style=""/>
   <path id="path97" d="m102.18 96.278q-0.60192 1.5434-1.173 2.0141-0.57106 0.47074-1.528 0.47074h-1.1344v-1.1884h0.83344q0.58649 0 0.9106-0.27781 0.32411-0.27781 0.71768-1.3119l0.25466-0.64823-3.4958-8.5041h1.5048l2.7009 6.7601 2.701-6.7601h1.5048z" style=""/>
   <path id="path99" d="m107.94 86.832h1.4199v8.643h-1.4199zm0-3.3646h1.4199v1.7981h-1.4199z" style=""/>
   <path id="path101" d="m112.27 83.467h1.4276v7.0919l4.2366-3.7273h1.8135l-4.5839 4.0437 4.7768 4.5993h-1.8521l-4.391-4.2212v4.2212h-1.4276z" style=""/>
  </g>
  <g id="text100" aria-label="masik">
   <path id="path104" d="m81.33 188.49q0.53247-0.95691 1.2733-1.4122t1.744-0.4553q1.3505 0 2.0836 0.94919 0.73311 0.94147 0.73311 2.6855v5.2167h-1.4276v-5.1704q0-1.2424-0.43987-1.8444-0.43987-0.60193-1.3428-0.60193-1.1035 0-1.744 0.73312-0.64051 0.73311-0.64051 1.9987v4.8849h-1.4276v-5.1704q0-1.2502-0.43987-1.8444-0.43987-0.60193-1.3582-0.60193-1.0881 0-1.7286 0.74084-0.64051 0.73311-0.64051 1.991v4.8849h-1.4276v-8.643h1.4276v1.3428q0.48617-0.79485 1.1653-1.173 0.6791-0.37813 1.6129-0.37813 0.94147 0 1.5974 0.47845 0.66366 0.47845 0.98006 1.3891z" style=""/>
   <path id="path106" d="m93.932 191.13q-1.7209 0-2.3846 0.39357-0.66366 0.39356-0.66366 1.3428 0 0.75627 0.49389 1.2038 0.5016 0.43987 1.3582 0.43987 1.1807 0 1.8907-0.83343 0.71768-0.84116 0.71768-2.2302v-0.3164zm2.8321-0.58649v4.9312h-1.4199v-1.3119q-0.48617 0.78713-1.2116 1.1653-0.7254 0.37042-1.7749 0.37042-1.3273 0-2.1145-0.74083-0.77942-0.74855-0.77942-1.9987 0-1.4585 0.97234-2.1994 0.98006-0.74083 2.917-0.74083h1.991v-0.1389q0-0.98006-0.64823-1.5125-0.64051-0.54019-1.8058-0.54019-0.74083 0-1.4431 0.17749-0.70225 0.17749-1.3505 0.53247v-1.3119q0.77942-0.30096 1.5125-0.44758 0.73312-0.15434 1.4276-0.15434 1.8752 0 2.8013 0.97234t0.92604 2.9479z" style=""/>
   <path id="path108" d="m105.21 187.09v1.3428q-0.60193-0.30868-1.2502-0.46302-0.64822-0.15434-1.3428-0.15434-1.0572 0-1.5897 0.32412-0.52476 0.32411-0.52476 0.97234 0 0.49388 0.37813 0.77941 0.37814 0.27782 1.5202 0.53248l0.48617 0.10803q1.5125 0.32412 2.1453 0.91833 0.64052 0.58649 0.64052 1.6437 0 1.2038-0.95691 1.9061-0.94919 0.70225-2.6161 0.70225-0.69453 0-1.4508-0.13891-0.74854-0.13119-1.582-0.40128v-1.4662q0.78713 0.409 1.5511 0.61736 0.76398 0.20064 1.5125 0.20064 1.0032 0 1.5434-0.33955 0.54019-0.34726 0.54019-0.97234 0-0.57877-0.39356-0.88745-0.38585-0.30868-1.7055-0.59421l-0.49389-0.11575q-1.3196-0.27782-1.9061-0.84887-0.58649-0.57878-0.58649-1.582 0-1.2193 0.8643-1.8829 0.8643-0.66366 2.454-0.66366 0.78714 0 1.4817 0.11575 0.69453 0.11576 1.281 0.34727z" style=""/>
   <path id="path110" d="m107.94 186.83h1.4199v8.643h-1.4199zm0-3.3646h1.4199v1.7981h-1.4199z" style=""/>
   <path id="path112" d="m112.27 183.47h1.4276v7.0919l4.2366-3.7273h1.8135l-4.5839 4.0437 4.7768 4.5993h-1.8521l-4.391-4.2212v4.2212h-1.4276z" style=""/>
  </g>
 </g>
</svg>
