<?xml version="1.0" encoding="UTF-8"?>
<svg id="svg47" width="8.9379cm" height="7.9607cm" version="1.1" viewBox="429 119 161.88 144.29" xmlns="http://www.w3.org/2000/svg" xmlns:cc="http://creativecommons.org/ns#" xmlns:dc="http://purl.org/dc/elements/1.1/" xmlns:rdf="http://www.w3.org/1999/02/22-rdf-syntax-ns#">
 <metadata id="metadata51">
  <rdf:RDF>
   <cc:Work rdf:about="">
    <dc:format>image/svg+xml</dc:format>
    <dc:type rdf:resource="http://purl.org/dc/dcmitype/StillImage"/>
   </cc:Work>
  </rdf:RDF>
 </metadata>
 <g id="Háttér" transform="translate(-.062067)">
  <path id="rect4" d="m430 120h40v60h-40z" fill="#7babe3" stroke="#000" stroke-width="2"/>
  <path id="rect6" d="m550 120h40v60h-40z" fill="#7babe3" stroke="#000" stroke-width="2"/>
  <path id="rect8" d="m440 220h20v20h-20z" fill="#fdfd04" stroke="#000" stroke-width="2"/>
  <path id="rect10" d="m560 220h20v20h-20z" fill="#fdfd04" stroke="#000" stroke-width="2"/>
  <path id="rect12" d="m500 220h20v20h-20z" fill="#fdfd04" stroke="#000" stroke-width="2"/>
  <g id="text16" aria-label="p1">
   <path id="path34" d="m442.82 258.7v4.5839h-1.4276v-11.93h1.4276v1.3119q0.44759-0.7717 1.1267-1.1421 0.68681-0.37813 1.636-0.37813 1.5743 0 2.5543 1.2502 0.98777 1.2502 0.98777 3.2874 0 2.0373-0.98777 3.2874-0.98006 1.2502-2.5543 1.2502-0.94919 0-1.636-0.37041-0.67909-0.37814-1.1267-1.1498zm4.8308-3.0174q0-1.5666-0.64823-2.454-0.64051-0.89517-1.7672-0.89517t-1.7749 0.89517q-0.64051 0.88745-0.64051 2.454t0.64051 2.4617q0.64823 0.88746 1.7749 0.88746t1.7672-0.88746q0.64823-0.89517 0.64823-2.4617z" style=""/>
   <path id="path36" d="m451.94 258.69h2.5466v-8.7896l-2.7704 0.55562v-1.4199l2.755-0.55562h1.5588v10.21h2.5466v1.3119h-6.6366z" style=""/>
  </g>
  <g id="text20" aria-label="p2">
   <path id="path39" d="m562.82 258.7v4.5839h-1.4276v-11.93h1.4276v1.3119q0.44759-0.7717 1.1267-1.1421 0.68681-0.37813 1.636-0.37813 1.5743 0 2.5543 1.2502 0.98777 1.2502 0.98777 3.2874 0 2.0373-0.98777 3.2874-0.98006 1.2502-2.5543 1.2502-0.94919 0-1.636-0.37041-0.67909-0.37814-1.1267-1.1498zm4.8308-3.0174q0-1.5666-0.64823-2.454-0.64051-0.89517-1.7672-0.89517t-1.7749 0.89517q-0.64051 0.88745-0.64051 2.454t0.64051 2.4617q0.64823 0.88746 1.7749 0.88746t1.7672-0.88746q0.64823-0.89517 0.64823-2.4617z" style=""/>
   <path id="path41" d="m573.02 258.69h5.4405v1.3119h-7.3157v-1.3119q0.88746-0.91832 2.4154-2.4617 1.5357-1.5511 1.9292-1.9987 0.74855-0.84115 1.0418-1.4199 0.30096-0.58649 0.30096-1.1498 0-0.91832-0.64823-1.4971-0.64051-0.57877-1.6746-0.57877-0.73311 0-1.5511 0.25466-0.81029 0.25466-1.7363 0.7717v-1.5743q0.94148-0.37813 1.7595-0.57105 0.818-0.19293 1.4971-0.19293 1.7903 0 2.8553 0.89517 1.065 0.89517 1.065 2.3923 0 0.70996-0.2701 1.3505-0.26237 0.6328-0.96462 1.4971-0.19293 0.22379-1.227 1.2965-1.0341 1.0649-2.917 2.9865z" style=""/>
  </g>
  <g id="text24" aria-label="p">
   <path id="path44" d="m507.85 258.7v4.5839h-1.4276v-11.93h1.4276v1.3119q0.44758-0.7717 1.1267-1.1421 0.68681-0.37813 1.636-0.37813 1.5743 0 2.5543 1.2502 0.98777 1.2502 0.98777 3.2874 0 2.0373-0.98777 3.2874-0.98006 1.2502-2.5543 1.2502-0.94919 0-1.636-0.37041-0.6791-0.37814-1.1267-1.1498zm4.8308-3.0174q0-1.5666-0.64823-2.454-0.64051-0.89517-1.7672-0.89517t-1.7749 0.89517q-0.64051 0.88745-0.64051 2.454t0.64051 2.4617q0.64823 0.88746 1.7749 0.88746t1.7672-0.88746q0.64823-0.89517 0.64823-2.4617z" style=""/>
  </g>
  <g id="g30" stroke="#000" stroke-width="2">
   <path id="line26" d="m450 220v-29.28" fill="none"/>
   <path id="polygon28" d="m450 190.72-5 2.5 5-10 5 10z" fill-rule="evenodd"/>
  </g>
  <g id="g36" stroke="#000" stroke-width="2">
   <path id="line32" d="m570 220v-30.264" fill="none"/>
   <path id="polygon34" d="m570 189.74-5 2.5 5-10 5 10z" fill-rule="evenodd"/>
  </g>
  <g id="g42" stroke="#f62e2e" stroke-width="2">
   <path id="line38" d="m510 220v-30.264" fill="none"/>
   <path id="polygon40" d="m510 189.74-5 2.5 5-10 5 10z" fill="#f62e2e" fill-rule="evenodd"/>
  </g>
  <path id="rect44" d="m490 120h40v60h-40z" fill="#7babe3" stroke="#000" stroke-width="2"/>
 </g>
</svg>
