<?xml version="1.0" encoding="UTF-8" standalone="no"?>
<svg
   xmlns:dc="http://purl.org/dc/elements/1.1/"
   xmlns:cc="http://creativecommons.org/ns#"
   xmlns:rdf="http://www.w3.org/1999/02/22-rdf-syntax-ns#"
   xmlns:svg="http://www.w3.org/2000/svg"
   xmlns="http://www.w3.org/2000/svg"
   xmlns:sodipodi="http://sodipodi.sourceforge.net/DTD/sodipodi-0.dtd"
   xmlns:inkscape="http://www.inkscape.org/namespaces/inkscape"
   version="1.1"
   id="svg2"
   viewBox="178 98 262 177.2943"
   height="9.6882133cm"
   width="13.946768cm"
   inkscape:version="0.91 r13725"
   sodipodi:docname="sor.svg">
  <sodipodi:namedview
     pagecolor="#ffffff"
     bordercolor="#666666"
     borderopacity="1"
     objecttolerance="10"
     gridtolerance="10"
     guidetolerance="10"
     inkscape:pageopacity="0"
     inkscape:pageshadow="2"
     inkscape:window-width="640"
     inkscape:window-height="480"
     id="namedview43"
     showgrid="false"
     inkscape:zoom="0.66604444"
     inkscape:cx="246.14532"
     inkscape:cy="172.44182"
     inkscape:window-x="0"
     inkscape:window-y="25"
     inkscape:window-maximized="0"
     inkscape:current-layer="svg2" />
  <metadata
     id="metadata84">
    <rdf:RDF>
      <cc:Work
         rdf:about="">
        <dc:format>image/svg+xml</dc:format>
        <dc:type
           rdf:resource="http://purl.org/dc/dcmitype/StillImage" />
      </cc:Work>
    </rdf:RDF>
  </metadata>
  <defs
     id="defs82" />
  <g
     id="g4"
     transform="translate(-1,-3.352852)">
    <path
       style="fill:#7babe3"
       d="m 210,220 200,0 0,60 -200,0 z"
       id="rect6" />
    <path
       style="fill:none;fill-opacity:0;stroke:#000000;stroke-width:2"
       d="m 210,220 200,0 0,60 -200,0 z"
       id="rect8" />
  </g>
  <g
     id="g10"
     transform="translate(-1,-3.352852)">
    <path
       style="fill:#7babe3"
       d="m 280,100 60,0 0,60 -60,0 z"
       id="rect12" />
    <path
       style="fill:none;fill-opacity:0;stroke:#000000;stroke-width:2"
       d="m 280,100 60,0 0,60 -60,0 z"
       id="rect14" />
  </g>
  <g
     id="g16"
     transform="translate(-1,-3.352852)">
    <path
       style="fill:#7babe3"
       d="m 380,100 60,0 0,60 -60,0 z"
       id="rect18" />
    <path
       style="fill:none;fill-opacity:0;stroke:#000000;stroke-width:2"
       d="m 380,100 60,0 0,60 -60,0 z"
       id="rect20" />
  </g>
  <g
     id="g22"
     transform="translate(-1,-3.352852)">
    <path
       style="fill:#7babe3"
       d="m 180,100 60,0 0,60 -60,0 z"
       id="rect24" />
    <path
       style="fill:none;fill-opacity:0;stroke:#000000;stroke-width:2"
       d="m 180,100 60,0 0,60 -60,0 z"
       id="rect26" />
  </g>
  <g
     id="g28"
     transform="translate(-1,-3.352852)">
    <path
       style="fill:#fdfd04"
       d="m 280,240 20,0 0,20 -20,0 z"
       id="rect30" />
    <path
       style="fill:none;fill-opacity:0;stroke:#000000;stroke-width:2"
       d="m 280,240 20,0 0,20 -20,0 z"
       id="rect32" />
  </g>
  <g
     style="font-style:normal;font-weight:normal;font-size:18.06220055px;font-family:sans-serif;text-anchor:end;fill:#000000"
     id="text34">
    <path
       d="m 235.79483,247.55256 0,0.79375 -7.46124,0 q 0.10583,1.6757 1.00542,2.55764 0.9084,0.87312 2.52235,0.87312 0.93486,0 1.80799,-0.2293 0.88194,-0.22931 1.74625,-0.68792 l 0,1.53458 q -0.87313,0.37042 -1.79035,0.56445 -0.91722,0.19402 -1.8609,0.19402 -2.36361,0 -3.74826,-1.37583 -1.37583,-1.37583 -1.37583,-3.7218 0,-2.42534 1.30528,-3.84527 1.31409,-1.42875 3.53659,-1.42875 1.99319,0 3.14854,1.28764 1.16416,1.27882 1.16416,3.48367 z m -1.62277,-0.47625 q -0.0176,-1.33173 -0.74966,-2.12548 -0.72319,-0.79375 -1.92263,-0.79375 -1.3582,0 -2.1784,0.76729 -0.81139,0.76729 -0.93486,2.16076 l 5.78555,-0.009 z"
       style=""
       id="path56" />
    <path
       d="m 238.4583,239.1741 1.62278,0 0,13.72304 -1.62278,0 0,-13.72304 z"
       style=""
       id="path58" />
    <path
       d="m 251.91676,247.55256 0,0.79375 -7.46124,0 q 0.10583,1.6757 1.00541,2.55764 0.9084,0.87312 2.52236,0.87312 0.93486,0 1.80798,-0.2293 0.88195,-0.22931 1.74625,-0.68792 l 0,1.53458 q -0.87312,0.37042 -1.79034,0.56445 -0.91722,0.19402 -1.8609,0.19402 -2.36361,0 -3.74826,-1.37583 -1.37584,-1.37583 -1.37584,-3.7218 0,-2.42534 1.30528,-3.84527 1.3141,-1.42875 3.53659,-1.42875 1.9932,0 3.14854,1.28764 1.16417,1.27882 1.16417,3.48367 z m -1.62278,-0.47625 q -0.0176,-1.33173 -0.74965,-2.12548 -0.72319,-0.79375 -1.92264,-0.79375 -1.35819,0 -2.1784,0.76729 -0.81139,0.76729 -0.93486,2.16076 l 5.78555,-0.009 z"
       style=""
       id="path60" />
    <path
       d="m 254.58023,243.01937 1.62277,0 0,10.05416 q 0,1.88736 -0.72319,2.73402 -0.71437,0.84667 -2.31069,0.84667 l -0.61736,0 0,-1.37583 0.43215,0 q 0.92604,0 1.26118,-0.43215 0.33514,-0.42334 0.33514,-1.77271 l 0,-10.05416 z m 0,-3.84527 1.62277,0 0,2.05493 -1.62277,0 0,-2.05493 z"
       style=""
       id="path62" />
    <path
       d="m 268.03868,247.55256 0,0.79375 -7.46124,0 q 0.10583,1.6757 1.00542,2.55764 0.9084,0.87312 2.52235,0.87312 0.93486,0 1.80799,-0.2293 0.88194,-0.22931 1.74625,-0.68792 l 0,1.53458 q -0.87313,0.37042 -1.79035,0.56445 -0.91722,0.19402 -1.8609,0.19402 -2.36361,0 -3.74826,-1.37583 -1.37583,-1.37583 -1.37583,-3.7218 0,-2.42534 1.30528,-3.84527 1.31409,-1.42875 3.53659,-1.42875 1.99319,0 3.14854,1.28764 1.16416,1.27882 1.16416,3.48367 z m -1.62277,-0.47625 q -0.0176,-1.33173 -0.74966,-2.12548 -0.72319,-0.79375 -1.92263,-0.79375 -1.35819,0 -2.1784,0.76729 -0.81139,0.76729 -0.93486,2.16076 l 5.78555,-0.009 z"
       style=""
       id="path64" />
  </g>
  <g
     id="g38"
     transform="translate(-1,-3.352852)">
    <path
       style="fill:#fdfd04"
       d="m 320,240 20,0 0,20 -20,0 z"
       id="rect40" />
    <path
       style="fill:none;fill-opacity:0;stroke:#000000;stroke-width:2"
       d="m 320,240 20,0 0,20 -20,0 z"
       id="rect42" />
  </g>
  <g
     style="font-style:normal;font-weight:normal;font-size:18.06220055px;font-family:sans-serif;text-anchor:start;fill:#000000"
     id="text44">
    <path
       d="m 349.53799,243.01937 1.71979,0 3.0868,8.29027 3.0868,-8.29027 1.71979,0 -3.70416,9.87777 -2.20486,0 -3.70416,-9.87777 z"
       style=""
       id="path69" />
    <path
       d="m 369.84032,247.55256 0,0.79375 -7.46124,0 q 0.10583,1.6757 1.00542,2.55764 0.9084,0.87312 2.52235,0.87312 0.93486,0 1.80799,-0.2293 0.88194,-0.22931 1.74625,-0.68792 l 0,1.53458 q -0.87313,0.37042 -1.79035,0.56445 -0.91722,0.19402 -1.8609,0.19402 -2.36361,0 -3.74826,-1.37583 -1.37583,-1.37583 -1.37583,-3.7218 0,-2.42534 1.30528,-3.84527 1.31409,-1.42875 3.53659,-1.42875 1.99319,0 3.14854,1.28764 1.16416,1.27882 1.16416,3.48367 z m -1.62277,-0.47625 q -0.0176,-1.33173 -0.74966,-2.12548 -0.72319,-0.79375 -1.92263,-0.79375 -1.3582,0 -2.1784,0.76729 -0.81139,0.76729 -0.93486,2.16076 l 5.78555,-0.009 z m -1.56104,-8.6254 1.75506,0 -2.87513,3.3161 -1.34938,0 2.46945,-3.3161 z"
       style=""
       id="path71" />
    <path
       d="m 379.00371,247.8436 q 0,-1.76388 -0.73201,-2.73402 -0.72319,-0.97014 -2.03729,-0.97014 -1.30528,0 -2.03729,0.97014 -0.72319,0.97014 -0.72319,2.73402 0,1.75507 0.72319,2.72521 0.73201,0.97014 2.03729,0.97014 1.3141,0 2.03729,-0.97014 0.73201,-0.97014 0.73201,-2.72521 z m 1.62278,3.82764 q 0,2.52236 -1.12007,3.74826 -1.12007,1.23472 -3.43076,1.23472 -0.85548,0 -1.61396,-0.13229 -0.75847,-0.12347 -1.47284,-0.38806 l 0,-1.57868 q 0.71437,0.38806 1.41111,0.57327 0.69673,0.18521 1.41993,0.18521 1.59631,0 2.39006,-0.83785 0.79375,-0.82903 0.79375,-2.51354 l 0,-0.80257 q -0.5027,0.87313 -1.28763,1.30528 -0.78493,0.43215 -1.87854,0.43215 -1.81681,0 -2.92806,-1.38465 -1.11124,-1.38465 -1.11124,-3.66889 0,-2.29305 1.11124,-3.6777 1.11125,-1.38465 2.92806,-1.38465 1.09361,0 1.87854,0.43215 0.78493,0.43215 1.28763,1.30528 l 0,-1.49931 1.62278,0 0,8.65187 z"
       style=""
       id="path73" />
    <path
       d="m 392.41808,247.55256 0,0.79375 -7.46125,0 q 0.10584,1.6757 1.00542,2.55764 0.9084,0.87312 2.52236,0.87312 0.93486,0 1.80798,-0.2293 0.88194,-0.22931 1.74625,-0.68792 l 0,1.53458 q -0.87312,0.37042 -1.79035,0.56445 -0.91722,0.19402 -1.8609,0.19402 -2.3636,0 -3.74826,-1.37583 -1.37583,-1.37583 -1.37583,-3.7218 0,-2.42534 1.30528,-3.84527 1.31409,-1.42875 3.53659,-1.42875 1.99319,0 3.14854,1.28764 1.16417,1.27882 1.16417,3.48367 z m -1.62278,-0.47625 q -0.0176,-1.33173 -0.74965,-2.12548 -0.7232,-0.79375 -1.92264,-0.79375 -1.35819,0 -2.1784,0.76729 -0.81139,0.76729 -0.93486,2.16076 l 5.78555,-0.009 z"
       style=""
       id="path75" />
  </g>
  <g
     id="g48"
     transform="translate(-1,-3.352852)">
    <path
       style="fill:none;fill-opacity:0;stroke:#000000;stroke-width:2"
       d="m 240,130 30.26401,0"
       id="line50" />
    <path
       style="fill:#000000"
       d="m 267.764,135 2.5,-5 -2.5,-5 10,5 z"
       id="polygon52" />
    <path
       style="fill:none;fill-opacity:0;stroke:#000000;stroke-width:2"
       d="m 267.764,135 2.5,-5 -2.5,-5 10,5 z"
       id="polygon54" />
  </g>
  <g
     id="g56"
     transform="translate(-1,-3.352852)">
    <path
       style="fill:none;fill-opacity:0;stroke:#000000;stroke-width:2"
       d="m 340,130 30.26401,0"
       id="line58" />
    <path
       style="fill:#000000"
       d="m 367.764,135 2.5,-5 -2.5,-5 10,5 z"
       id="polygon60" />
    <path
       style="fill:none;fill-opacity:0;stroke:#000000;stroke-width:2"
       d="m 367.764,135 2.5,-5 -2.5,-5 10,5 z"
       id="polygon62" />
  </g>
  <g
     id="g64"
     transform="translate(-1,-3.352852)">
    <path
       style="fill:none;fill-opacity:0;stroke:#000000;stroke-width:2"
       d="M 290,240 216.884,166.884"
       id="line66" />
    <path
       style="fill:#000000"
       d="m 222.188,165.117 -5.304,1.767 -1.767,5.304 -3.536,-10.607 z"
       id="polygon68" />
    <path
       style="fill:none;fill-opacity:0;stroke:#000000;stroke-width:2"
       d="m 222.188,165.117 -5.304,1.767 -1.767,5.304 -3.536,-10.607 z"
       id="polygon70" />
  </g>
  <g
     id="g72"
     transform="translate(-1,-3.352852)">
    <path
       style="fill:none;fill-opacity:0;stroke:#000000;stroke-width:2"
       d="m 330,240 73.116,-73.116"
       id="line74" />
    <path
       style="fill:#000000"
       d="m 404.883,172.188 -1.767,-5.304 -5.304,-1.767 10.607,-3.536 z"
       id="polygon76" />
    <path
       style="fill:none;fill-opacity:0;stroke:#000000;stroke-width:2"
       d="m 404.883,172.188 -1.767,-5.304 -5.304,-1.767 10.607,-3.536 z"
       id="polygon78" />
  </g>
</svg>
