<?xml version="1.0" encoding="UTF-8" standalone="no"?>
<!-- Created with Inkscape (http://www.inkscape.org/) -->
<svg id="svg2" xmlns:rdf="http://www.w3.org/1999/02/22-rdf-syntax-ns#" xmlns="http://www.w3.org/2000/svg" height="387.84" width="311.04" version="1.1" xmlns:cc="http://creativecommons.org/ns#" xmlns:dc="http://purl.org/dc/elements/1.1/" viewBox="298 98 158.98523 202">
 <metadata id="metadata74">
  <rdf:RDF>
   <cc:Work rdf:about="">
    <dc:format>image/svg+xml</dc:format>
    <dc:type rdf:resource="http://purl.org/dc/dcmitype/StillImage"/>
   </cc:Work>
  </rdf:RDF>
 </metadata>
 <g id="g4" transform="translate(-2.5074 -1)">
  <path id="rect6" fill="#f0f0f0" d="m300 100h160v200h-160z"/>
  <path id="rect8" d="m300 100h160v200h-160z" stroke="#000" stroke-width="2" fill="none"/>
 </g>
 <g id="g10" transform="translate(-2.5074 -1)">
  <path id="rect12" fill="#e0e0e0" d="m300 100h160v100h-160z"/>
  <path id="rect14" d="m300 100h160v100h-160z" stroke="#000" stroke-width="2" fill="none"/>
 </g>
 <g id="g16" transform="translate(-2.5074 -1)">
  <path id="rect18" fill="#d0d0d0" d="m300 100h80v100h-80z"/>
  <path id="rect20" d="m300 100h80v100h-80z" stroke="#000" stroke-width="2" fill="none"/>
 </g>
 <g id="text22">
  <path id="path3022" style="" d="m360.24 233.51-7.2496 19.659h14.526l-7.276-19.659m-3.0162-5.2652h6.059l15.055 39.502h-5.5562l-3.5983-10.134h-17.806l-3.5983 10.134h-5.6356l15.081-39.502"/>
  <path id="path3024" style="" d="m385.48 263.25h8.7313v-30.136l-9.4986 1.905v-4.8683l9.4456-1.905h5.3446v35.004h8.7312v4.4979h-22.754v-4.4979"/>
 </g>
 <g id="text26">
  <path id="path3027" style="" d="m405.99 138.68-4.833 13.106h9.6837l-4.8507-13.106m-2.0108-3.5101h4.0393l10.037 26.335h-3.7042l-2.3989-6.7557h-11.871l-2.3989 6.7557h-3.7571l10.054-26.335"/>
  <path id="path3029" style="" d="m425.27 158.5h12.435v2.9986h-16.722v-2.9986c1.3523-1.3993 3.1926-3.2749 5.521-5.6268 2.3401-2.3636 3.81-3.8864 4.4097-4.5685 1.1406-1.2818 1.9344-2.3636 2.3812-3.2456 0.45859-0.89369 0.6879-1.7698 0.68792-2.6282-0.00002-1.3993-0.49391-2.54-1.4817-3.4219-0.97603-0.88192-2.2519-1.3229-3.8276-1.3229-1.1171 0.00002-2.2989 0.19405-3.5454 0.58208-1.2347 0.38808-2.5576 0.97604-3.9687 1.7639v-3.5983c1.4346-0.57618 2.7752-1.0113 4.0217-1.3053 1.2465-0.29395 2.3871-0.44094 3.4219-0.44097 2.7281 0.00003 4.9036 0.68206 6.5264 2.0461 1.6228 1.3641 2.4342 3.1868 2.4342 5.468-0.00002 1.0819-0.20581 2.1108-0.61736 3.0868-0.39984 0.96427-1.1348 2.1049-2.2049 3.4219-0.294 0.34103-1.2289 1.3288-2.8046 2.9633-1.5758 1.6228-3.7982 3.8982-6.6675 6.8262"/>
 </g>
 <g id="g30" transform="translate(-2.5074 -1)">
  <path id="rect32" fill="#c0c0c0" d="m300 150h80v50h-80z"/>
  <path id="rect34" d="m300 150h80v50h-80z" stroke="#000" stroke-width="2" fill="none"/>
 </g>
 <g id="text36">
  <path id="path3034" style="" d="m331.74 169.84-2.4165 6.5528h4.8419l-2.4254-6.5528m-1.0054-1.7551h2.0196l5.0183 13.167h-1.8521l-1.1994-3.3778h-5.9355l-1.1994 3.3778h-1.8785l5.0271-13.167"/>
  <path id="path3036" style="" d="m345.24 174.15c0.85253 0.18227 1.5169 0.56151 1.9932 1.1377 0.48212 0.57621 0.72318 1.2876 0.72319 2.1343-0.00001 1.2994-0.44686 2.3048-1.3406 3.0162-0.89371 0.71144-2.1637 1.0672-3.81 1.0672-0.55269 0-1.123-0.0559-1.711-0.16757-0.58208-0.10583-1.1847-0.26752-1.808-0.48506v-1.7198c0.49389 0.2881 1.0348 0.50565 1.6228 0.65263 0.58796 0.147 1.2024 0.22049 1.8433 0.22049 1.1171 0 1.9667-0.22048 2.5488-0.66146 0.58796-0.44097 0.88194-1.0818 0.88195-1.9226-0.00001-0.77611-0.27341-1.3817-0.82021-1.8168-0.54093-0.44096-1.2965-0.66145-2.2666-0.66146h-1.5346v-1.464h1.6051c0.87606 0.00001 1.5463-0.17344 2.0108-0.52035 0.46448-0.35277 0.69673-0.85841 0.69674-1.5169-0.00001-0.67615-0.24108-1.1936-0.7232-1.5522-0.47625-0.36453-1.1612-0.54679-2.0549-0.54681-0.48801 0.00002-1.0113 0.0529-1.5698 0.15875-0.55857 0.10585-1.173 0.27048-1.8433 0.49389v-1.5875c0.67616-0.18813 1.3082-0.32924 1.8962-0.42333 0.59384-0.0941 1.1524-0.1411 1.6757-0.14111 1.3523 0.00001 2.4224 0.30869 3.2103 0.92604 0.78786 0.61149 1.1818 1.4405 1.1818 2.4871-0.00001 0.72908-0.20873 1.3464-0.62618 1.8521-0.41746 0.49978-1.0113 0.84668-1.7815 1.0407"/>
 </g>
 <g id="g40" transform="translate(-2.5074 -1)">
  <path id="rect42" fill="#b0b0b0" d="m340 100h40v50h-40z"/>
  <path id="rect44" d="m340 100h40v50h-40z" stroke="#000" stroke-width="2" fill="none"/>
 </g>
 <g id="text46">
  <path id="path3041" style="" d="m353.18 123.14-1.8124 4.9146h3.6314l-1.819-4.9146m-0.75407-1.3163h1.5147l3.7637 9.8756h-1.3891l-0.89959-2.5334h-4.4516l-0.89959 2.5334h-1.4089l3.7703-9.8756"/>
  <path id="path3043" style="" d="m362.93 122.99-3.3734 5.2718h3.3734v-5.2718m-0.35058-1.1642h1.6801v6.436h1.4089v1.1112h-1.4089v2.3283h-1.3295v-2.3283h-4.4582v-1.2898l4.1077-6.2574"/>
 </g>
 <g id="text50">
  <path id="path3046" style="" d="m354.49 178.38-9.6661 26.211h19.368l-9.7014-26.211m-4.0217-7.0203h8.0786l20.073 52.67h-7.4083l-4.7978-13.511h-23.742l-4.7978 13.511h-7.5142l20.108-52.67"/>
  <path id="path3048" style="" d="m402.15 176.05c-3.6689 0.00005-6.4323 1.811-8.2903 5.4328-1.8345 3.5984-2.7517 9.0194-2.7517 16.263-0.00001 7.2202 0.91721 12.641 2.7517 16.263 1.8579 3.5983 4.6214 5.3975 8.2903 5.3975 3.6924 0.00001 6.4558-1.7992 8.2903-5.3975 1.8579-3.6218 2.7869-9.0428 2.787-16.263-0.00003-7.2437-0.92902-12.665-2.787-16.263-1.8345-3.6218-4.5979-5.4327-8.2903-5.4328m0-5.6444c5.9031 0.00006 10.407 2.3402 13.511 7.0203 3.1279 4.6567 4.6919 11.43 4.6919 20.32-0.00004 8.8665-1.564 15.64-4.6919 20.32-3.1045 4.6567-7.6083 6.985-13.511 6.985-5.9032 0-10.419-2.3283-13.547-6.985-3.1045-4.6802-4.6567-11.454-4.6567-20.32-0.00001-8.89 1.5522-15.663 4.6567-20.32 3.128-4.6801 7.6435-7.0202 13.547-7.0203"/>
 </g>
 <g id="g54" transform="translate(-2.5074 -1)">
  <path id="rect56" fill="#b0b0b0" d="m300 100h40v50h-40z"/>
  <path id="rect58" d="m300 100h40v50h-40z" stroke="#000" stroke-width="2" fill="none"/>
 </g>
 <g id="g60" transform="translate(-2.5074 -1)">
  <path id="rect62" fill="#a0a0a0" d="m300 124h40v26h-40z"/>
  <path id="rect64" d="m300 124h40v26h-40z" stroke="#000" stroke-width="2" fill="none"/>
 </g>
 <g id="text66">
  <path id="path3055" style="" d="m314.26 133.11-1.3593 3.686h2.7236l-1.3643-3.686m-0.56554-0.98723h1.136l2.8228 7.4067h-1.0418l-0.67469-1.9h-3.3387l-0.67469 1.9h-1.0567l2.8277-7.4067"/>
  <path id="path3057" style="" d="m318.83 132.12h3.934v0.84336h-3.0162v1.8157c0.14552-0.0496 0.29104-0.086 0.43656-0.10914 0.14552-0.0265 0.29104-0.0397 0.43657-0.0397 0.82681 0 1.4817 0.22655 1.9645 0.67965 0.48286 0.4531 0.72429 1.0666 0.72429 1.8405 0 0.79706-0.24805 1.4172-0.74414 1.8604-0.4961 0.43987-1.1956 0.6598-2.0985 0.6598-0.31089 0-0.62839-0.0265-0.9525-0.0794-0.32081-0.0529-0.65319-0.1323-0.99715-0.23813v-1.0071c0.29765 0.16206 0.60523 0.28278 0.92273 0.36215 0.3175 0.0794 0.65319 0.11906 1.0071 0.11906 0.57216 0 1.0253-0.15048 1.3593-0.45144 0.33403-0.30097 0.50105-0.70942 0.50105-1.2254 0-0.51593-0.16702-0.92438-0.50105-1.2254-0.33404-0.30096-0.78714-0.45144-1.3593-0.45144-0.26789 0-0.53578 0.0298-0.80367 0.0893-0.26458 0.0595-0.53578 0.15214-0.81359 0.27782v-3.7207"/>
 </g>
</svg>
