<?xml version="1.0" encoding="UTF-8" standalone="no"?>
<svg
   xmlns:dc="http://purl.org/dc/elements/1.1/"
   xmlns:cc="http://creativecommons.org/ns#"
   xmlns:rdf="http://www.w3.org/1999/02/22-rdf-syntax-ns#"
   xmlns:svg="http://www.w3.org/2000/svg"
   xmlns="http://www.w3.org/2000/svg"
   xmlns:sodipodi="http://sodipodi.sourceforge.net/DTD/sodipodi-0.dtd"
   xmlns:inkscape="http://www.inkscape.org/namespaces/inkscape"
   version="1.1"
   id="svg2"
   viewBox="53 118 546.51122 69.550368"
   height="4.1897812cm"
   width="27.923931cm"
   inkscape:version="0.91 r13725"
   sodipodi:docname="alista.svg">
  <sodipodi:namedview
     pagecolor="#ffffff"
     bordercolor="#666666"
     borderopacity="1"
     objecttolerance="10"
     gridtolerance="10"
     guidetolerance="10"
     inkscape:pageopacity="0"
     inkscape:pageshadow="2"
     inkscape:window-width="640"
     inkscape:window-height="480"
     id="namedview66"
     showgrid="false"
     inkscape:zoom="0.41526984"
     inkscape:cx="493.36765"
     inkscape:cy="72.954291"
     inkscape:window-x="0"
     inkscape:window-y="25"
     inkscape:window-maximized="0"
     inkscape:current-layer="svg2" />
  <metadata
     id="metadata130">
    <rdf:RDF>
      <cc:Work
         rdf:about="">
        <dc:format>image/svg+xml</dc:format>
        <dc:type
           rdf:resource="http://purl.org/dc/dcmitype/StillImage" />
      </cc:Work>
    </rdf:RDF>
  </metadata>
  <defs
     id="defs128" />
  <g
     id="g4"
     transform="translate(-1.4887697,-7.2248178)">
    <path
       style="fill:#7babe3"
       d="m 120,120 80,0 0,60 -80,0 z"
       id="rect6" />
    <path
       style="fill:none;fill-opacity:0;stroke:#000000;stroke-width:2"
       d="m 120,120 80,0 0,60 -80,0 z"
       id="rect8" />
  </g>
  <g
     id="g10"
     transform="translate(-1.4887697,-7.2248178)">
    <path
       style="fill:#fdfd04"
       d="m 120,180 80,0 0,20 -80,0 z"
       id="rect12" />
    <path
       style="fill:none;fill-opacity:0;stroke:#000000;stroke-width:2"
       d="m 120,180 80,0 0,20 -80,0 z"
       id="rect14" />
  </g>
  <g
     style="font-style:normal;font-weight:normal;font-size:18.06220055px;font-family:sans-serif;text-anchor:middle;fill:#000000"
     id="text16">
    <path
       d="m 150.47673,147.52587 6.2177,0 0,1.49931 -8.36083,0 0,-1.49931 q 1.01424,-1.04951 2.76049,-2.8134 1.75506,-1.7727 2.20486,-2.28423 0.85548,-0.96132 1.19062,-1.62278 0.34396,-0.67027 0.34396,-1.31409 0,-1.04951 -0.74084,-1.71097 -0.73201,-0.66146 -1.91381,-0.66146 -0.83785,0 -1.77271,0.29104 -0.92604,0.29104 -1.98437,0.88195 l 0,-1.79917 q 1.07597,-0.43215 2.01083,-0.65264 0.93486,-0.22048 1.71097,-0.22048 2.04611,0 3.26319,1.02305 1.21708,1.02306 1.21708,2.73403 0,0.81138 -0.30868,1.5434 -0.29986,0.72319 -1.10243,1.71097 -0.22048,0.25576 -1.40229,1.48166 -1.1818,1.21708 -3.33374,3.41312 z"
       style=""
       id="path73" />
    <path
       d="m 159.9929,135.85776 8.46665,0 0,0.75847 -4.78013,12.40895 -1.8609,0 4.49791,-11.66811 -6.32353,0 0,-1.49931 z"
       style=""
       id="path75" />
  </g>
  <g
     id="g20"
     transform="translate(-1.4887697,-7.2248178)">
    <path
       style="fill:#7babe3"
       d="m 240,120 80,0 0,60 -80,0 z"
       id="rect22" />
    <path
       style="fill:none;fill-opacity:0;stroke:#000000;stroke-width:2"
       d="m 240,120 80,0 0,60 -80,0 z"
       id="rect24" />
  </g>
  <g
     id="g26"
     transform="translate(-1.4887697,-7.2248178)">
    <path
       style="fill:#fdfd04"
       d="m 240,180 80,0 0,20 -80,0 z"
       id="rect28" />
    <path
       style="fill:none;fill-opacity:0;stroke:#000000;stroke-width:2"
       d="m 240,180 80,0 0,20 -80,0 z"
       id="rect30" />
  </g>
  <g
     style="font-style:normal;font-weight:normal;font-size:18.06220055px;font-family:sans-serif;text-anchor:middle;fill:#000000"
     id="text32">
    <path
       d="m 269.25082,147.52587 2.91042,0 0,-10.04533 -3.16618,0.635 0,-1.62278 3.14854,-0.635 1.78152,0 0,11.66811 2.91042,0 0,1.49931 -7.58472,0 0,-1.49931 z"
       style=""
       id="path83" />
    <path
       d="m 284.25268,142.7722 q -1.27,0 -2.00201,0.67909 -0.72319,0.6791 -0.72319,1.86972 0,1.19063 0.72319,1.86972 0.73201,0.6791 2.00201,0.6791 1.27,0 2.00201,-0.6791 0.73202,-0.68791 0.73202,-1.86972 0,-1.19062 -0.73202,-1.86972 -0.72319,-0.67909 -2.00201,-0.67909 z m -1.78152,-0.75847 q -1.14653,-0.28222 -1.79035,-1.06715 -0.635,-0.78493 -0.635,-1.91382 0,-1.57868 1.12007,-2.4959 1.12889,-0.91722 3.0868,-0.91722 1.96674,0 3.0868,0.91722 1.12007,0.91722 1.12007,2.4959 0,1.12889 -0.64382,1.91382 -0.635,0.78493 -1.7727,1.06715 1.28763,0.29986 2.00201,1.17298 0.72319,0.87313 0.72319,2.1343 0,1.91382 -1.17298,2.93688 -1.16417,1.02305 -3.34257,1.02305 -2.1784,0 -3.35138,-1.02305 -1.16417,-1.02306 -1.16417,-2.93688 0,-1.26117 0.7232,-2.1343 0.72319,-0.87312 2.01083,-1.17298 z m -0.65264,-2.8134 q 0,1.02305 0.635,1.59632 0.64382,0.57326 1.79916,0.57326 1.14653,0 1.79035,-0.57326 0.65264,-0.57327 0.65264,-1.59632 0,-1.02306 -0.65264,-1.59632 -0.64382,-0.57326 -1.79035,-0.57326 -1.15534,0 -1.79916,0.57326 -0.635,0.57326 -0.635,1.59632 z"
       style=""
       id="path85" />
  </g>
  <g
     id="g36"
     transform="translate(-1.4887697,-7.2248178)">
    <path
       style="fill:#7babe3"
       d="m 520,120 80,0 0,60 -80,0 z"
       id="rect38" />
    <path
       style="fill:none;fill-opacity:0;stroke:#000000;stroke-width:2"
       d="m 520,120 80,0 0,60 -80,0 z"
       id="rect40" />
  </g>
  <g
     id="g42"
     transform="translate(-1.4887697,-7.2248178)">
    <path
       style="fill:#fdfd04"
       d="m 520,180 80,0 0,20 -80,0 z"
       id="rect44" />
    <path
       style="fill:none;fill-opacity:0;stroke:#000000;stroke-width:2"
       d="m 520,180 80,0 0,20 -80,0 z"
       id="rect46" />
  </g>
  <g
     style="font-style:normal;font-weight:normal;font-size:18.06220055px;font-family:sans-serif;text-anchor:middle;fill:#000000"
     id="text48">
    <path
       d="m 558.50241,142.7722 q -1.27,0 -2.00201,0.67909 -0.72319,0.6791 -0.72319,1.86972 0,1.19063 0.72319,1.86972 0.73201,0.6791 2.00201,0.6791 1.27,0 2.00201,-0.6791 0.73202,-0.68791 0.73202,-1.86972 0,-1.19062 -0.73202,-1.86972 -0.72319,-0.67909 -2.00201,-0.67909 z m -1.78152,-0.75847 q -1.14653,-0.28222 -1.79035,-1.06715 -0.635,-0.78493 -0.635,-1.91382 0,-1.57868 1.12007,-2.4959 1.12889,-0.91722 3.0868,-0.91722 1.96673,0 3.0868,0.91722 1.12007,0.91722 1.12007,2.4959 0,1.12889 -0.64382,1.91382 -0.635,0.78493 -1.7727,1.06715 1.28763,0.29986 2.00201,1.17298 0.72319,0.87313 0.72319,2.1343 0,1.91382 -1.17298,2.93688 -1.16417,1.02305 -3.34257,1.02305 -2.1784,0 -3.35138,-1.02305 -1.16417,-1.02306 -1.16417,-2.93688 0,-1.26117 0.72319,-2.1343 0.7232,-0.87312 2.01084,-1.17298 z m -0.65264,-2.8134 q 0,1.02305 0.635,1.59632 0.64382,0.57326 1.79916,0.57326 1.14653,0 1.79035,-0.57326 0.65263,-0.57327 0.65263,-1.59632 0,-1.02306 -0.65263,-1.59632 -0.64382,-0.57326 -1.79035,-0.57326 -1.15534,0 -1.79916,0.57326 -0.635,0.57326 -0.635,1.59632 z"
       style=""
       id="path92" />
  </g>
  <g
     id="g52"
     transform="translate(-1.4887697,-7.2248178)">
    <path
       style="fill:#7babe3"
       d="m 360,120 80,0 0,60 -80,0 z"
       id="rect54" />
    <path
       style="fill:none;fill-opacity:0;stroke:#000000;stroke-width:2"
       d="m 360,120 80,0 0,60 -80,0 z"
       id="rect56" />
  </g>
  <g
     id="g58"
     transform="translate(-1.4887697,-7.2248178)">
    <path
       style="fill:#fdfd04"
       d="m 360,180 80,0 0,20 -80,0 z"
       id="rect60" />
    <path
       style="fill:none;fill-opacity:0;stroke:#000000;stroke-width:2"
       d="m 360,180 80,0 0,20 -80,0 z"
       id="rect62" />
  </g>
  <g
     style="font-style:normal;font-weight:normal;font-size:18.06220055px;font-family:sans-serif;text-anchor:middle;fill:#000000"
     id="text64">
    <path
       d="m 394.24262,135.85776 8.46666,0 0,0.75847 -4.78013,12.40895 -1.8609,0 4.49791,-11.66811 -6.32354,0 0,-1.49931 z"
       style=""
       id="path99" />
  </g>
  <g
     id="g68"
     transform="translate(-1.4887697,-7.2248178)">
    <path
       id="path70"
       d="m 200,190 c 30,0 10,-40 30.264,-40"
       style="fill:none;fill-opacity:0;stroke:#000000;stroke-width:2"
       inkscape:connector-curvature="0" />
    <path
       style="fill:#000000"
       d="m 227.764,155 2.5,-5 -2.5,-5 10,5 z"
       id="polygon72" />
    <path
       style="fill:none;fill-opacity:0;stroke:#000000;stroke-width:2"
       d="m 227.764,155 2.5,-5 -2.5,-5 10,5 z"
       id="polygon74" />
  </g>
  <g
     style="font-style:normal;font-weight:normal;font-size:12.80000019px;font-family:sans-serif;text-anchor:middle;fill:#000000"
     id="text76">
    <path
       d="m 473.76748,151.18768 1.31875,0 0,1.5875 -1.31875,0 0,-1.5875 z"
       style=""
       id="path104" />
    <path
       d="m 477.84248,151.18768 1.31875,0 0,1.5875 -1.31875,0 0,-1.5875 z"
       style=""
       id="path106" />
    <path
       d="m 481.91748,151.18768 1.31875,0 0,1.5875 -1.31875,0 0,-1.5875 z"
       style=""
       id="path109" />
  </g>
  <g
     id="g80"
     transform="translate(-1.4887697,-7.2248178)">
    <path
       id="path82"
       d="m 320,190 c 30,0 10,-40 30.264,-40"
       style="fill:none;fill-opacity:0;stroke:#000000;stroke-width:2"
       inkscape:connector-curvature="0" />
    <path
       style="fill:#000000"
       d="m 347.764,155 2.5,-5 -2.5,-5 10,5 z"
       id="polygon84" />
    <path
       style="fill:none;fill-opacity:0;stroke:#000000;stroke-width:2"
       d="m 347.764,155 2.5,-5 -2.5,-5 10,5 z"
       id="polygon86" />
  </g>
  <g
     id="g88"
     transform="translate(-1.4887697,-7.2248178)">
    <path
       id="path90"
       d="m 440,190 c 30,0 0,-30 20.264,-30"
       style="fill:none;fill-opacity:0;stroke:#000000;stroke-width:2"
       inkscape:connector-curvature="0" />
    <path
       style="fill:#000000"
       d="m 457.764,165 2.5,-5 -2.5,-5 10,5 z"
       id="polygon92" />
    <path
       style="fill:none;fill-opacity:0;stroke:#000000;stroke-width:2"
       d="m 457.764,165 2.5,-5 -2.5,-5 10,5 z"
       id="polygon94" />
  </g>
  <g
     id="g96"
     transform="translate(-1.4887697,-7.2248178)">
    <path
       id="path98"
       d="m 490,160 c 30,0 0,-10 20.264,-10"
       style="fill:none;fill-opacity:0;stroke:#000000;stroke-width:2"
       inkscape:connector-curvature="0" />
    <path
       style="fill:#000000"
       d="m 507.764,155 2.5,-5 -2.5,-5 10,5 z"
       id="polygon100" />
    <path
       style="fill:none;fill-opacity:0;stroke:#000000;stroke-width:2"
       d="m 507.764,155 2.5,-5 -2.5,-5 10,5 z"
       id="polygon102" />
  </g>
  <path
     style="fill:none;fill-opacity:0;stroke:#000000;stroke-width:2"
     d="m 518.51123,192.77518 80,-20"
     id="line104" />
  <g
     id="g106"
     transform="translate(-1.4887697,-7.2248178)">
    <path
       id="path108"
       d="m 80,130 c 30,0 10,20 30.264,20"
       style="fill:none;fill-opacity:0;stroke:#000000;stroke-width:2"
       inkscape:connector-curvature="0" />
    <path
       style="fill:#000000"
       d="m 107.764,155 2.5,-5 -2.5,-5 10,5 z"
       id="polygon110" />
    <path
       style="fill:none;fill-opacity:0;stroke:#000000;stroke-width:2"
       d="m 107.764,155 2.5,-5 -2.5,-5 10,5 z"
       id="polygon112" />
  </g>
  <g
     id="g114"
     transform="translate(-1.4887697,-7.2248178)">
    <path
       style="fill:#fdfd04"
       d="m 60,120 20,0 0,20 -20,0 z"
       id="rect116" />
    <path
       style="fill:none;fill-opacity:0;stroke:#000000;stroke-width:2"
       d="m 60,120 20,0 0,20 -20,0 z"
       id="rect118" />
  </g>
  <g
     style="font-style:normal;font-weight:normal;font-size:13.54669952px;font-family:sans-serif;text-anchor:middle;fill:#000000"
     id="text120">
    <path
       d="m 59.865957,151.36674 0,0.59531 -5.595951,0 q 0.07937,1.25677 0.754064,1.91823 0.681304,0.65485 1.891775,0.65485 0.701148,0 1.355993,-0.17198 0.66146,-0.17198 1.309691,-0.51594 l 0,1.15094 q -0.654845,0.27781 -1.342764,0.42334 -0.687918,0.14552 -1.39568,0.14552 -1.772713,0 -2.811205,-1.03188 -1.031877,-1.03188 -1.031877,-2.79136 0,-1.81902 0.97896,-2.88397 0.985576,-1.07156 2.652455,-1.07156 1.494899,0 2.361412,0.96573 0.873127,0.95912 0.873127,2.61277 z m -1.217087,-0.35719 q -0.01323,-0.99881 -0.562241,-1.59412 -0.542397,-0.59531 -1.441982,-0.59531 -1.018648,0 -1.633806,0.57547 -0.608543,0.57547 -0.701148,1.62057 l 4.339177,-0.007 z"
       style=""
       id="path123" />
    <path
       d="m 61.863566,145.08287 1.217086,0 0,10.29231 -1.217086,0 0,-10.29231 z"
       style=""
       id="path125" />
    <path
       d="m 71.957445,151.36674 0,0.59531 -5.595951,0 q 0.07938,1.25677 0.754064,1.91823 0.681304,0.65485 1.891775,0.65485 0.701148,0 1.355993,-0.17198 0.66146,-0.17198 1.309691,-0.51594 l 0,1.15094 q -0.654846,0.27781 -1.342764,0.42334 -0.687918,0.14552 -1.39568,0.14552 -1.772713,0 -2.811205,-1.03188 -1.031878,-1.03188 -1.031878,-2.79136 0,-1.81902 0.978961,-2.88397 0.985575,-1.07156 2.652455,-1.07156 1.494899,0 2.361411,0.96573 0.873128,0.95912 0.873128,2.61277 z m -1.217087,-0.35719 q -0.01323,-0.99881 -0.562241,-1.59412 -0.542397,-0.59531 -1.441982,-0.59531 -1.018649,0 -1.633806,0.57547 -0.608543,0.57547 -0.701148,1.62057 l 4.339177,-0.007 z"
       style=""
       id="path127" />
    <path
       d="m 73.955055,147.96683 1.217086,0 0,7.54065 q 0,1.41552 -0.542397,2.05052 -0.535783,0.635 -1.733025,0.635 l -0.463022,0 0,-1.03188 0.324115,0 q 0.694533,0 0.945888,-0.32411 0.251355,-0.3175 0.251355,-1.32953 l 0,-7.54065 z m 0,-2.88396 1.217086,0 0,1.5412 -1.217086,0 0,-1.5412 z"
       style=""
       id="path129" />
    <path
       d="m 84.048932,151.36674 0,0.59531 -5.595951,0 q 0.07938,1.25677 0.754065,1.91823 0.681303,0.65485 1.891775,0.65485 0.701148,0 1.355993,-0.17198 0.66146,-0.17198 1.309691,-0.51594 l 0,1.15094 q -0.654846,0.27781 -1.342764,0.42334 -0.687918,0.14552 -1.39568,0.14552 -1.772713,0 -2.811205,-1.03188 -1.031878,-1.03188 -1.031878,-2.79136 0,-1.81902 0.978961,-2.88397 0.985575,-1.07156 2.652454,-1.07156 1.4949,0 2.361412,0.96573 0.873127,0.95912 0.873127,2.61277 z m -1.217086,-0.35719 q -0.01323,-0.99881 -0.562241,-1.59412 -0.542397,-0.59531 -1.441982,-0.59531 -1.018649,0 -1.633806,0.57547 -0.608544,0.57547 -0.701148,1.62057 l 4.339177,-0.007 z"
       style=""
       id="path131" />
  </g>
  <path
     style="fill:none;fill-opacity:0;stroke:#000000;stroke-width:2"
     d="m 518.51123,172.77518 80,20"
     id="line124" />
</svg>
