<?xml version="1.0" encoding="UTF-8"?>
<svg id="svg153" width="41.589cm" height="21.87cm" version="1.1" viewBox="232 156 821.88 435.42" xmlns="http://www.w3.org/2000/svg" xmlns:cc="http://creativecommons.org/ns#" xmlns:dc="http://purl.org/dc/elements/1.1/" xmlns:rdf="http://www.w3.org/1999/02/22-rdf-syntax-ns#">
 <metadata id="metadata159">
  <rdf:RDF>
   <cc:Work rdf:about="">
    <dc:format>image/svg+xml</dc:format>
    <dc:type rdf:resource="http://purl.org/dc/dcmitype/StillImage"/>
   </cc:Work>
  </rdf:RDF>
 </metadata>
 <g id="Háttér" transform="translate(-3.0645 -2.5)">
  <g id="g6" stroke="#000" stroke-width="3">
   <path id="polygon2" d="m313.25 160 17.75 17.75v71h-71v-88.75z" fill="#fff" fill-rule="evenodd"/>
   <path id="polyline4" d="m313.25 160v17.75h17.75" fill="none"/>
  </g>
  <g id="g12" stroke="#000" stroke-width="3">
   <path id="polygon8" d="m313.25 440 17.75 17.75v71h-71v-88.75z" fill="#fff" fill-rule="evenodd"/>
   <path id="polyline10" d="m313.25 440v17.75h17.75" fill="none"/>
  </g>
  <g id="g18" stroke="#000" stroke-width="3">
   <path id="polygon14" d="m573.25 160 17.75 17.75v71h-71v-88.75z" fill="#1e90ff" fill-rule="evenodd"/>
   <path id="polyline16" d="m573.25 160v17.75h17.75" fill="none"/>
  </g>
  <g id="g24" stroke="#000" stroke-width="3">
   <path id="polygon20" d="m573.25 440 17.75 17.75v71h-71v-88.75z" fill="#1e90ff" fill-rule="evenodd"/>
   <path id="polyline22" d="m573.25 440v17.75h17.75" fill="none"/>
  </g>
  <g id="g30" stroke="#000" stroke-width="3">
   <path id="polygon26" d="m833.25 300 17.75 17.75v71h-71v-88.75z" fill="#90ee90" fill-rule="evenodd"/>
   <path id="polyline28" d="m833.25 300v17.75h17.75" fill="none"/>
  </g>
  <g id="g36" fill="none" stroke="#f00" stroke-width="3">
   <path id="line32" d="m349.18 204.38h159.34" stroke-dasharray="8"/>
   <path id="polyline34" d="m355.83 199.38-10 5 10 5"/>
  </g>
  <g id="g42" fill="none" stroke="#f00" stroke-width="3">
   <path id="line38" d="m349.18 484.38h159.34" stroke-dasharray="8"/>
   <path id="polyline40" d="m355.83 479.38-10 5 10 5"/>
  </g>
  <g id="g48" fill="none" stroke="#f00" stroke-width="3">
   <path id="line44" d="m607.19 232.21 162.53 87.518" stroke-dasharray="8"/>
   <path id="polyline46" d="m615.41 230.95-11.175-0.338 6.434 9.143"/>
  </g>
  <g id="g54" fill="none" stroke="#f00" stroke-width="3">
   <path id="line50" d="m607.19 456.54 162.53-87.518" stroke-dasharray="8"/>
   <path id="polyline52" d="m610.67 448.99-6.434 9.143 11.175-0.338"/>
  </g>
  <g id="text58" fill="#00f" aria-label="fordítás">
   <path id="path101" d="m965.52 330.67v1.6867h-1.9403q-1.0914 0-1.5214 0.44097-0.41892 0.44097-0.41892 1.5875v1.0914h3.3404v1.5765h-3.3404v10.771h-2.0395v-10.771h-1.9403v-1.5765h1.9403v-0.8599q0-2.0616 0.95911-2.9986 0.95912-0.94809 3.0427-0.94809z" style=""/>
   <path id="path103" d="m971.99 336.9q-1.6316 0-2.5797 1.2788-0.94809 1.2678-0.94809 3.4837t0.93707 3.4947q0.94809 1.2678 2.5907 1.2678 1.6206 0 2.5687-1.2788t0.94809-3.4837q0-2.1938-0.94809-3.4727-0.94809-1.2898-2.5687-1.2898zm0-1.7198q2.6458 0 4.1562 1.7198 1.5103 1.7198 1.5103 4.7625 0 3.0317-1.5103 4.7625-1.5103 1.7198-4.1562 1.7198-2.6569 0-4.1672-1.7198-1.4993-1.7308-1.4993-4.7625 0-3.0427 1.4993-4.7625 1.5103-1.7198 4.1672-1.7198z" style=""/>
   <path id="path105" d="m988.16 337.37q-0.34175-0.19844-0.74965-0.28663-0.39688-0.0992-0.88195-0.0992-1.7198 0-2.6458 1.1245-0.91502 1.1135-0.91502 3.2081v6.5043h-2.0395v-12.347h2.0395v1.9182q0.63941-1.1245 1.6647-1.6647 1.0253-0.55122 2.4915-0.55122 0.20946 0 0.46302 0.0331 0.25356 0.022 0.56224 0.0772z" style=""/>
   <path id="path107" d="m998.04 337.35v-6.6807h2.0284v17.154h-2.0284v-1.8521q-0.63941 1.1024-1.6206 1.6426-0.97014 0.52917-2.3372 0.52917-2.2379 0-3.649-1.7859-1.4001-1.7859-1.4001-4.6964t1.4001-4.6964q1.4111-1.7859 3.649-1.7859 1.367 0 2.3372 0.54019 0.98116 0.52917 1.6206 1.6316zm-6.9122 4.3105q0 2.2379 0.91502 3.5168 0.92605 1.2678 2.5356 1.2678t2.5356-1.2678q0.92604-1.2788 0.92604-3.5168t-0.92604-3.5057q-0.92604-1.2788-2.5356-1.2788t-2.5356 1.2788q-0.91502 1.2678-0.91502 3.5057z" style=""/>
   <path id="path109" d="m1006.8 329.77h2.1938l-3.5939 4.1451h-1.6867zm-2.5466 5.7106h2.0284v12.347h-2.0284zm1.0142-0.29766z" style=""/>
   <path id="path111" d="m1012.5 331.97v3.5057h4.1782v1.5765h-4.1782v6.7028q0 1.5103 0.4079 1.9403 0.4189 0.42995 1.6867 0.42995h2.0836v1.6977h-2.0836q-2.3482 0-3.2411-0.87092-0.893-0.88194-0.893-3.197v-6.7028h-1.4883v-1.5765h1.4883v-3.5057z" style=""/>
   <path id="path113" d="m1025 341.62q-2.4584 0-3.4065 0.56224t-0.9481 1.9182q0 1.0804 0.7056 1.7198 0.7165 0.62838 1.9402 0.62838 1.6868 0 2.701-1.1906 1.0253-1.2016 1.0253-3.186v-0.452zm4.0459-0.83785v7.0445h-2.0284v-1.8741q-0.6946 1.1245-1.7309 1.6647-1.0363 0.52917-2.5356 0.52917-1.8961 0-3.0206-1.0583-1.1135-1.0694-1.1135-2.8553 0-2.0836 1.3891-3.1419 1.4001-1.0583 4.1672-1.0583h2.8443v-0.19844q0-1.4001-0.9261-2.1608-0.915-0.77171-2.5797-0.77171-1.0583 0-2.0615 0.25356t-1.9293 0.76068v-1.8741q1.1135-0.42995 2.1608-0.63941 1.0473-0.22049 2.0395-0.22049 2.6789 0 4.0018 1.3891 1.3229 1.3891 1.3229 4.2113zm-3.7041-11.013h2.1938l-3.5939 4.1451h-1.6868z" style=""/>
   <path id="path115" d="m1041.1 335.84v1.9182q-0.8599-0.44097-1.7859-0.66146-0.9261-0.22048-1.9182-0.22048-1.5104 0-2.271 0.46302-0.7497 0.46302-0.7497 1.3891 0 0.70556 0.5402 1.1135 0.5402 0.39687 2.1718 0.76067l0.6945 0.15435q2.1608 0.46302 3.0648 1.3119 0.915 0.83785 0.915 2.3482 0 1.7198-1.367 2.723-1.356 1.0032-3.7373 1.0032-0.9922 0-2.0725-0.19844-1.0694-0.18741-2.26-0.57326v-2.0946q1.1245 0.58428 2.2159 0.88194 1.0914 0.28663 2.1607 0.28663 1.4332 0 2.2049-0.48507 0.7717-0.49609 0.7717-1.3891 0-0.82682-0.5622-1.2678-0.5513-0.44097-2.4364-0.84887l-0.7056-0.16536q-1.8851-0.39688-2.723-1.2127-0.8378-0.82682-0.8378-2.26 0-1.7418 1.2347-2.6899t3.5057-0.94809q1.1245 0 2.1167 0.16537 0.9922 0.16536 1.83 0.49609z" style=""/>
  </g>
  <g id="g64" fill="none" stroke="#00f" stroke-width="3">
   <path id="path60" d="m341.65 184.01c34-15.002 132.54-11.583 161.3-0.284"/>
   <path id="polyline62" d="m494.94 185.95 11.136-0.997-7.479-8.311"/>
  </g>
  <g id="g70" fill="none" stroke="#00f" stroke-width="3">
   <path id="path66" d="m341.65 504.74c34 15 132.78 17.27 161.69 3.848"/>
   <path id="polyline68" d="m499.42 515.92 6.965-8.745-11.175-0.325"/>
  </g>
  <g id="g76" fill="none" stroke="#00f" stroke-width="3">
   <path id="path72" d="m940 360h113.29"/>
   <path id="polyline74" d="m1046.6 365 10-5-10-5"/>
  </g>
  <g id="text80" fill="#f00" aria-label="függőség">
   <path id="path121" d="m956.01 190.67v1.6867h-1.9403q-1.0914 0-1.5214 0.44097-0.41892 0.44098-0.41892 1.5875v1.0914h3.3404v1.5765h-3.3404v10.771h-2.0395v-10.771h-1.9403v-1.5765h1.9403v-0.85989q0-2.0616 0.95911-2.9986 0.95912-0.94809 3.0427-0.94809z" style=""/>
   <path id="path123" d="m957.49 202.95v-7.4745h2.0285v7.3973q0 1.7529 0.68351 2.6348 0.6835 0.87092 2.0505 0.87092 1.6426 0 2.5907-1.0473 0.95912-1.0473 0.95912-2.8553v-7.0004h2.0285v12.347h-2.0285v-1.8962q-0.73863 1.1245-1.7198 1.6757-0.97014 0.54019-2.26 0.54019-2.1277 0-3.2301-1.3229-1.1024-1.3229-1.1024-3.8695zm5.1043-7.7721zm1.0142-4.4648h2.2379v2.2269h-2.2379zm-4.3105 0h2.2379v2.2269h-2.2379z" style=""/>
   <path id="path125" d="m980.16 201.51q0-2.2049-0.91502-3.4175-0.90399-1.2127-2.5466-1.2127-1.6316 0-2.5466 1.2127-0.904 1.2127-0.904 3.4175 0 2.1938 0.904 3.4065 0.91501 1.2127 2.5466 1.2127 1.6426 0 2.5466-1.2127 0.91502-1.2127 0.91502-3.4065zm2.0285 4.7846q0 3.153-1.4001 4.6853-1.4001 1.5434-4.2885 1.5434-1.0694 0-2.0174-0.16537-0.9481-0.15434-1.8411-0.48507v-1.9734q0.89296 0.48507 1.7639 0.71658 0.87092 0.23151 1.7749 0.23151 1.9954 0 2.9876-1.0473 0.99219-1.0363 0.99219-3.1419v-1.0032q-0.62839 1.0914-1.6096 1.6316-0.98117 0.54019-2.3482 0.54019-2.271 0-3.6601-1.7308-1.3891-1.7308-1.3891-4.5861 0-2.8663 1.3891-4.5971 1.3891-1.7308 3.6601-1.7308 1.367 0 2.3482 0.54019 0.98116 0.54019 1.6096 1.6316v-1.8741h2.0285z" style=""/>
   <path id="path127" d="m994.49 201.51q0-2.2049-0.91502-3.4175-0.90399-1.2127-2.5466-1.2127-1.6316 0-2.5466 1.2127-0.904 1.2127-0.904 3.4175 0 2.1938 0.904 3.4065 0.91502 1.2127 2.5466 1.2127 1.6426 0 2.5466-1.2127 0.91502-1.2127 0.91502-3.4065zm2.0285 4.7846q0 3.153-1.4001 4.6853-1.4001 1.5434-4.2885 1.5434-1.0694 0-2.0174-0.16537-0.94809-0.15434-1.8411-0.48507v-1.9734q0.89297 0.48507 1.7639 0.71658t1.7749 0.23151q1.9954 0 2.9876-1.0473 0.99219-1.0363 0.99219-3.1419v-1.0032q-0.62839 1.0914-1.6096 1.6316-0.98116 0.54019-2.3482 0.54019-2.271 0-3.6601-1.7308-1.3891-1.7308-1.3891-4.5861 0-2.8663 1.3891-4.5971 1.3891-1.7308 3.6601-1.7308 1.367 0 2.3482 0.54019t1.6096 1.6316v-1.8741h2.0285z" style=""/>
   <path id="path129" d="m1008.8 189.77h1.9623l-2.734 4.1451h-1.4883zm-3.6821 0h1.8741l-2.4584 4.1451h-1.5103zm0.4079 7.1327q-1.6316 0-2.5797 1.2788-0.9481 1.2678-0.9481 3.4837 0 2.2159 0.9371 3.4947 0.9481 1.2678 2.5907 1.2678 1.6206 0 2.5687-1.2788 0.948-1.2788 0.948-3.4837 0-2.1938-0.948-3.4727-0.9481-1.2898-2.5687-1.2898zm0-1.7198q2.6458 0 4.1562 1.7198 1.5103 1.7198 1.5103 4.7625 0 3.0317-1.5103 4.7625-1.5104 1.7198-4.1562 1.7198-2.6569 0-4.1672-1.7198-1.4993-1.7308-1.4993-4.7625 0-3.0427 1.4993-4.7625 1.5103-1.7198 4.1672-1.7198z" style=""/>
   <path id="path131" d="m1022.4 195.84v1.9182q-0.8599-0.44098-1.7859-0.66146-0.926-0.22049-1.9182-0.22049-1.5104 0-2.271 0.46302-0.7497 0.46302-0.7497 1.3891 0 0.70555 0.5402 1.1134 0.5402 0.39688 2.1718 0.76068l0.6945 0.15434q2.1608 0.46302 3.0648 1.3119 0.915 0.83785 0.915 2.3482 0 1.7198-1.367 2.723-1.356 1.0032-3.7373 1.0032-0.9922 0-2.0725-0.19844-1.0694-0.18741-2.26-0.57326v-2.0946q1.1245 0.58429 2.2159 0.88195 1.0914 0.28663 2.1607 0.28663 1.4332 0 2.2049-0.48507 0.7717-0.4961 0.7717-1.3891 0-0.82682-0.5622-1.2678-0.5513-0.44098-2.4364-0.84888l-0.7056-0.16536q-1.8851-0.39688-2.723-1.2127-0.8378-0.82683-0.8378-2.26 0-1.7418 1.2347-2.6899t3.5057-0.94809q1.1245 0 2.1167 0.16536 0.9922 0.16537 1.83 0.49609z" style=""/>
   <path id="path133" d="m1036.8 201.14v0.99219h-9.3265q0.1323 2.0946 1.2567 3.197 1.1355 1.0914 3.153 1.0914 1.1686 0 2.26-0.28663 1.1024-0.28664 2.1828-0.8599v1.9182q-1.0914 0.46302-2.2379 0.70556-1.1466 0.24253-2.3262 0.24253-2.9545 0-4.6853-1.7198-1.7198-1.7198-1.7198-4.6523 0-3.0317 1.6316-4.8066 1.6426-1.7859 4.4208-1.7859 2.4914 0 3.9356 1.6096 1.4552 1.5985 1.4552 4.3546zm-2.0284-0.59531q-0.022-1.6647-0.9371-2.6569-0.904-0.99219-2.4033-0.99219-1.6977 0-2.723 0.95911-1.0142 0.95912-1.1686 2.701zm-1.9513-10.782h2.1938l-3.5939 4.1451h-1.6867z" style=""/>
   <path id="path135" d="m1048.3 201.51q0-2.2049-0.915-3.4175-0.904-1.2127-2.5466-1.2127-1.6316 0-2.5466 1.2127-0.904 1.2127-0.904 3.4175 0 2.1938 0.904 3.4065 0.915 1.2127 2.5466 1.2127 1.6426 0 2.5466-1.2127 0.915-1.2127 0.915-3.4065zm2.0285 4.7846q0 3.153-1.4001 4.6853-1.4001 1.5434-4.2885 1.5434-1.0693 0-2.0174-0.16537-0.9481-0.15434-1.8411-0.48507v-1.9734q0.893 0.48507 1.7639 0.71658t1.7749 0.23151q1.9954 0 2.9876-1.0473 0.9922-1.0363 0.9922-3.1419v-1.0032q-0.6284 1.0914-1.6095 1.6316-0.9812 0.54019-2.3482 0.54019-2.271 0-3.6601-1.7308t-1.3891-4.5861q0-2.8663 1.3891-4.5971 1.3891-1.7308 3.6601-1.7308 1.367 0 2.3482 0.54019 0.9811 0.54019 1.6095 1.6316v-1.8741h2.0285z" style=""/>
  </g>
  <g id="g86" fill="none" stroke="#f00" stroke-width="3">
   <path id="line82" d="m946.71 220h113.29" stroke-dasharray="8"/>
   <path id="polyline84" d="m953.35 215-10 5 10 5"/>
  </g>
  <g id="text90" fill="#00c000" aria-label="linkelés">
   <path id="path140" d="m959.64 470.67h2.0285v17.154h-2.0285z" style=""/>
   <path id="path142" d="m965.9 475.48h2.0285v12.347h-2.0285zm0-4.8066h2.0285v2.5687h-2.0285z" style=""/>
   <path id="path144" d="m982.43 480.37v7.4524h-2.0285v-7.3863q0-1.7529-0.6835-2.6238-0.68351-0.87092-2.0505-0.87092-1.6426 0-2.5907 1.0473t-0.94809 2.8553v6.9784h-2.0395v-12.347h2.0395v1.9182q0.7276-1.1135 1.7088-1.6647 0.99219-0.55122 2.282-0.55122 2.1277 0 3.2191 1.3229 1.0914 1.3119 1.0914 3.8695z" style=""/>
   <path id="path146" d="m986.42 470.67h2.0395v10.131l6.0524-5.3247h2.5907l-6.5484 5.7767 6.824 6.5705h-2.6458l-6.2728-6.0303v6.0303h-2.0395z" style=""/>
   <path id="path148" d="m1009.4 481.14v0.99218h-9.3265q0.1323 2.0946 1.2567 3.1971 1.1355 1.0914 3.153 1.0914 1.1686 0 2.26-0.28663 1.1024-0.28663 2.1828-0.85989v1.9182q-1.0914 0.46302-2.2379 0.70555-1.1466 0.24254-2.3262 0.24254-2.9545 0-4.6853-1.7198-1.7198-1.7198-1.7198-4.6523 0-3.0317 1.6316-4.8066 1.6426-1.7859 4.4208-1.7859 2.4914 0 3.9356 1.6096 1.4552 1.5985 1.4552 4.3546zm-2.0284-0.59532q-0.022-1.6647-0.9371-2.6569-0.904-0.99219-2.4033-0.99219-1.6977 0-2.723 0.95912-1.0142 0.95912-1.1686 2.701z" style=""/>
   <path id="path150" d="m1012.7 470.67h2.0285v17.154h-2.0285z" style=""/>
   <path id="path152" d="m1029.5 481.14v0.99218h-9.3266q0.1323 2.0946 1.2568 3.1971 1.1355 1.0914 3.153 1.0914 1.1685 0 2.2599-0.28663 1.1025-0.28663 2.1829-0.85989v1.9182q-1.0915 0.46302-2.238 0.70555-1.1465 0.24254-2.3261 0.24254-2.9545 0-4.6854-1.7198-1.7197-1.7198-1.7197-4.6523 0-3.0317 1.6316-4.8066 1.6426-1.7859 4.4207-1.7859 2.4915 0 3.9357 1.6096 1.4552 1.5985 1.4552 4.3546zm-2.0285-0.59532q-0.022-1.6647-0.937-2.6569-0.904-0.99219-2.4033-0.99219-1.6978 0-2.7231 0.95912-1.0142 0.95912-1.1685 2.701zm-1.9513-10.782h2.1939l-3.594 4.1451h-1.6867z" style=""/>
   <path id="path154" d="m1040.7 475.84v1.9182q-0.8599-0.44097-1.7859-0.66146-0.9261-0.22048-1.9183-0.22048-1.5103 0-2.271 0.46302-0.7496 0.46302-0.7496 1.3891 0 0.70556 0.5402 1.1135 0.5402 0.39687 2.1717 0.76067l0.6946 0.15435q2.1607 0.46302 3.0647 1.3119 0.9151 0.83785 0.9151 2.3482 0 1.7198-1.3671 2.723-1.3559 1.0032-3.7372 1.0032-0.9922 0-2.0726-0.19844-1.0693-0.18741-2.26-0.57326v-2.0946q1.1245 0.58428 2.2159 0.88194 1.0914 0.28663 2.1608 0.28663 1.4332 0 2.2049-0.48507 0.7717-0.49609 0.7717-1.3891 0-0.82682-0.5623-1.2678-0.5512-0.44097-2.4364-0.84887l-0.7055-0.16536q-1.8852-0.39688-2.723-1.2127-0.8379-0.82682-0.8379-2.26 0-1.7418 1.2348-2.6899 1.2347-0.94809 3.5057-0.94809 1.1245 0 2.1167 0.16537 0.9922 0.16536 1.83 0.49609z" style=""/>
  </g>
  <g id="g96" fill="none" stroke="#00c000" stroke-width="3">
   <path id="line92" d="m940 500h113.29"/>
   <path id="polyline94" d="m1046.6 505 10-5-10-5"/>
  </g>
  <g id="g102" fill="none" stroke="#00c000" stroke-width="3">
   <path id="path98" d="m602.49 202.41c104.5-4.376 123.26 29.784 167.07 84.546"/>
   <path id="polyline100" d="m761.51 284.89 10.152 4.685-2.343-10.932"/>
  </g>
  <g id="g108" fill="none" stroke="#00c000" stroke-width="3">
   <path id="path104" d="m602.49 482.41c104.5-4.376 113.46-38.252 164.22-89.127"/>
   <path id="polyline106" d="m765.55 401.52 3.524-10.611-10.603 3.548"/>
  </g>
  <g id="text112" aria-label="jatekallas.c">
   <path id="path161" d="m234.54 264.65h2.0285v12.568q0 2.3592-0.904 3.4175-0.89297 1.0583-2.8884 1.0583h-0.7717v-1.7198h0.54019q1.1576 0 1.5765-0.5402 0.41892-0.52916 0.41892-2.2159zm0-4.8066h2.0285v2.5687h-2.0285z" style=""/>
   <path id="path163" d="m246.41 270.79q-2.4584 0-3.4065 0.56224t-0.94809 1.9182q0 1.0804 0.70555 1.7198 0.71658 0.62839 1.9403 0.62839 1.6867 0 2.701-1.1906 1.0253-1.2016 1.0253-3.186v-0.452zm4.0459-0.83785v7.0445h-2.0285v-1.8741q-0.69453 1.1245-1.7308 1.6647-1.0363 0.52917-2.5356 0.52917-1.8962 0-3.0207-1.0583-1.1135-1.0694-1.1135-2.8553 0-2.0836 1.3891-3.1419 1.4001-1.0583 4.1672-1.0583h2.8443v-0.19844q0-1.4001-0.92604-2.1608-0.91502-0.7717-2.5797-0.7717-1.0583 0-2.0616 0.25356-1.0032 0.25356-1.9292 0.76068v-1.8741q1.1134-0.42995 2.1608-0.63942 1.0473-0.22048 2.0395-0.22048 2.6789 0 4.0018 1.3891 1.3229 1.3891 1.3229 4.2113z" style=""/>
   <path id="path165" d="m256.65 261.15v3.5057h4.1782v1.5765h-4.1782v6.7028q0 1.5103 0.4079 1.9403 0.41893 0.42995 1.6867 0.42995h2.0836v1.6977h-2.0836q-2.3482 0-3.2412-0.87092-0.89297-0.88195-0.89297-3.197v-6.7028h-1.4883v-1.5765h1.4883v-3.5057z" style=""/>
   <path id="path167" d="m274.07 270.32v0.99219h-9.3266q0.13229 2.0946 1.2568 3.197 1.1355 1.0914 3.153 1.0914 1.1686 0 2.26-0.28663 1.1024-0.28663 2.1828-0.8599v1.9182q-1.0914 0.46303-2.2379 0.70556-1.1465 0.24254-2.3261 0.24254-2.9545 0-4.6853-1.7198-1.7198-1.7198-1.7198-4.6523 0-3.0317 1.6316-4.8066 1.6426-1.7859 4.4208-1.7859 2.4915 0 3.9357 1.6096 1.4552 1.5985 1.4552 4.3546zm-2.0285-0.59531q-0.022-1.6647-0.93707-2.6569-0.90399-0.99219-2.4033-0.99219-1.6977 0-2.723 0.95912-1.0142 0.95911-1.1686 2.701z" style=""/>
   <path id="path169" d="m277.32 259.85h2.0395v10.131l6.0524-5.3247h2.5907l-6.5484 5.7767 6.824 6.5705h-2.6458l-6.2728-6.0303v6.0303h-2.0395z" style=""/>
   <path id="path171" d="m295.71 270.79q-2.4584 0-3.4065 0.56224-0.94809 0.56224-0.94809 1.9182 0 1.0804 0.70556 1.7198 0.71658 0.62839 1.9403 0.62839 1.6867 0 2.701-1.1906 1.0253-1.2016 1.0253-3.186v-0.452zm4.0459-0.83785v7.0445h-2.0285v-1.8741q-0.69453 1.1245-1.7308 1.6647-1.0363 0.52917-2.5356 0.52917-1.8962 0-3.0207-1.0583-1.1135-1.0694-1.1135-2.8553 0-2.0836 1.3891-3.1419 1.4001-1.0583 4.1672-1.0583h2.8443v-0.19844q0-1.4001-0.92604-2.1608-0.91502-0.7717-2.5797-0.7717-1.0583 0-2.0616 0.25356t-1.9293 0.76068v-1.8741q1.1135-0.42995 2.1608-0.63942 1.0473-0.22048 2.0395-0.22048 2.6789 0 4.0018 1.3891 1.3229 1.3891 1.3229 4.2113z" style=""/>
   <path id="path173" d="m303.95 259.85h2.0285v17.154h-2.0285z" style=""/>
   <path id="path175" d="m310.21 259.85h2.0285v17.154h-2.0285z" style=""/>
   <path id="path177" d="m322.08 270.79q-2.4584 0-3.4065 0.56224t-0.94809 1.9182q0 1.0804 0.70556 1.7198 0.71658 0.62839 1.9403 0.62839 1.6867 0 2.701-1.1906 1.0253-1.2016 1.0253-3.186v-0.452zm4.0459-0.83785v7.0445h-2.0285v-1.8741q-0.69454 1.1245-1.7308 1.6647-1.0363 0.52917-2.5356 0.52917-1.8962 0-3.0207-1.0583-1.1134-1.0694-1.1134-2.8553 0-2.0836 1.3891-3.1419 1.4001-1.0583 4.1672-1.0583h2.8443v-0.19844q0-1.4001-0.92605-2.1608-0.91502-0.7717-2.5797-0.7717-1.0583 0-2.0615 0.25356-1.0032 0.25356-1.9293 0.76068v-1.8741q1.1135-0.42995 2.1608-0.63942 1.0473-0.22048 2.0395-0.22048 2.6789 0 4.0018 1.3891 1.3229 1.3891 1.3229 4.2113z" style=""/>
   <path id="path179" d="m338.19 265.02v1.9182q-0.85989-0.44097-1.7859-0.66146-0.92604-0.22049-1.9182-0.22049-1.5103 0-2.271 0.46302-0.74965 0.46303-0.74965 1.3891 0 0.70555 0.54019 1.1134 0.54019 0.39688 2.1718 0.76068l0.69453 0.15434q2.1608 0.46302 3.0648 1.3119 0.91502 0.83784 0.91502 2.3482 0 1.7198-1.367 2.723-1.356 1.0032-3.7372 1.0032-0.99219 0-2.0726-0.19844-1.0694-0.18742-2.26-0.57327v-2.0946q1.1245 0.58429 2.2159 0.88195 1.0914 0.28663 2.1608 0.28663 1.4332 0 2.2049-0.48507 0.77171-0.49609 0.77171-1.3891 0-0.82683-0.56224-1.2678-0.55122-0.44097-2.4364-0.84887l-0.70555-0.16537q-1.8852-0.39687-2.723-1.2127-0.83785-0.82683-0.83785-2.26 0-1.7418 1.2347-2.6899 1.2347-0.94809 3.5057-0.94809 1.1245 0 2.1167 0.16536 0.99218 0.16537 1.83 0.4961z" style=""/>
   <path id="path181" d="m342.38 274.2h2.3261v2.8002h-2.3261z" style=""/>
   <path id="path183" d="m358.17 265.13v1.8962q-0.85989-0.47404-1.7308-0.70555-0.85989-0.24254-1.7418-0.24254-1.9734 0-3.0648 1.2568-1.0914 1.2458-1.0914 3.5057 0 2.26 1.0914 3.5168 1.0914 1.2458 3.0648 1.2458 0.88195 0 1.7418-0.23151 0.87093-0.24253 1.7308-0.71658v1.8741q-0.84887 0.39688-1.7639 0.59532-0.90399 0.19844-1.9292 0.19844-2.7892 0-4.4318-1.7529t-1.6426-4.7294q0-3.0207 1.6536-4.7515 1.6647-1.7308 4.553-1.7308 0.93706 0 1.83 0.19844 0.89297 0.18741 1.7308 0.57326z" style=""/>
  </g>
  <g id="text116" aria-label="main.c">
   <path id="path186" d="m269.71 547.02q0.76068-1.367 1.819-2.0174 1.0583-0.65043 2.4915-0.65043 1.9293 0 2.9766 1.356 1.0473 1.345 1.0473 3.8365v7.4524h-2.0395v-7.3863q0-1.7749-0.62839-2.6348-0.62838-0.8599-1.9182-0.8599-1.5765 0-2.4915 1.0473-0.91502 1.0473-0.91502 2.8553v6.9784h-2.0395v-7.3863q0-1.7859-0.62839-2.6348-0.62838-0.8599-1.9403-0.8599-1.5544 0-2.4694 1.0583-0.91502 1.0473-0.91502 2.8443v6.9784h-2.0395v-12.347h2.0395v1.9182q0.69453-1.1355 1.6647-1.6757t2.3041-0.54019q1.345 0 2.282 0.68351 0.94809 0.6835 1.4001 1.9844z" style=""/>
   <path id="path188" d="m287.71 550.79q-2.4584 0-3.4065 0.56224t-0.94809 1.9182q0 1.0804 0.70555 1.7198 0.71658 0.62839 1.9403 0.62839 1.6867 0 2.701-1.1906 1.0253-1.2016 1.0253-3.186v-0.452zm4.0459-0.83785v7.0445h-2.0285v-1.8741q-0.69453 1.1245-1.7308 1.6647-1.0363 0.52917-2.5356 0.52917-1.8962 0-3.0207-1.0583-1.1135-1.0694-1.1135-2.8553 0-2.0836 1.3891-3.1419 1.4001-1.0583 4.1672-1.0583h2.8443v-0.19844q0-1.4001-0.92604-2.1608-0.91502-0.7717-2.5797-0.7717-1.0583 0-2.0616 0.25356-1.0032 0.25356-1.9292 0.76068v-1.8741q1.1134-0.42995 2.1608-0.63942 1.0473-0.22048 2.0395-0.22048 2.6789 0 4.0018 1.3891 1.3229 1.3891 1.3229 4.2113z" style=""/>
   <path id="path190" d="m295.94 544.65h2.0285v12.347h-2.0285zm0-4.8066h2.0285v2.5687h-2.0285z" style=""/>
   <path id="path192" d="m312.47 549.55v7.4524h-2.0285v-7.3863q0-1.7529-0.6835-2.6238-0.68351-0.87092-2.0505-0.87092-1.6426 0-2.5907 1.0473t-0.94809 2.8553v6.9784h-2.0395v-12.347h2.0395v1.9182q0.7276-1.1135 1.7088-1.6647 0.99218-0.55121 2.282-0.55121 2.1277 0 3.2191 1.3229 1.0914 1.3119 1.0914 3.8695z" style=""/>
   <path id="path194" d="m316.82 554.2h2.3261v2.8002h-2.3261z" style=""/>
   <path id="path196" d="m332.61 545.13v1.8962q-0.85989-0.47404-1.7308-0.70555-0.8599-0.24254-1.7418-0.24254-1.9734 0-3.0648 1.2568-1.0914 1.2458-1.0914 3.5057 0 2.26 1.0914 3.5168 1.0914 1.2458 3.0648 1.2458 0.88195 0 1.7418-0.23151 0.87092-0.24253 1.7308-0.71658v1.8741q-0.84887 0.39688-1.7639 0.59532-0.90399 0.19844-1.9292 0.19844-2.7892 0-4.4318-1.7529-1.6426-1.7529-1.6426-4.7294 0-3.0207 1.6536-4.7515 1.6647-1.7308 4.553-1.7308 0.93707 0 1.83 0.19844 0.89297 0.18741 1.7308 0.57326z" style=""/>
  </g>
  <g id="text122" aria-label="main.o(tárgykód)">
   <path id="path199" d="m529.02 551.02q0.76067-1.367 1.819-2.0174 1.0583-0.65043 2.4915-0.65043 1.9293 0 2.9766 1.356 1.0473 1.345 1.0473 3.8365v7.4524h-2.0395v-7.3863q0-1.7749-0.62838-2.6348-0.62839-0.8599-1.9182-0.8599-1.5765 0-2.4915 1.0473t-0.91502 2.8553v6.9784h-2.0395v-7.3863q0-1.7859-0.62838-2.6348-0.62839-0.8599-1.9403-0.8599-1.5544 0-2.4694 1.0583-0.91502 1.0473-0.91502 2.8443v6.9784h-2.0395v-12.347h2.0395v1.9182q0.69453-1.1355 1.6647-1.6757t2.3041-0.54019q1.345 0 2.282 0.68351 0.94809 0.6835 1.4001 1.9844z" style=""/>
   <path id="path201" d="m547.03 554.79q-2.4584 0-3.4065 0.56224t-0.94809 1.9182q0 1.0804 0.70556 1.7198 0.71658 0.62839 1.9403 0.62839 1.6867 0 2.701-1.1906 1.0253-1.2016 1.0253-3.186v-0.452zm4.0459-0.83785v7.0445h-2.0285v-1.8741q-0.69454 1.1245-1.7308 1.6647-1.0363 0.52917-2.5356 0.52917-1.8962 0-3.0207-1.0583-1.1134-1.0694-1.1134-2.8553 0-2.0836 1.3891-3.1419 1.4001-1.0583 4.1672-1.0583h2.8443v-0.19844q0-1.4001-0.92605-2.1608-0.91502-0.7717-2.5797-0.7717-1.0583 0-2.0615 0.25356-1.0032 0.25356-1.9293 0.76068v-1.8741q1.1135-0.42995 2.1608-0.63942 1.0473-0.22048 2.0395-0.22048 2.6789 0 4.0018 1.3891 1.3229 1.3891 1.3229 4.2113z" style=""/>
   <path id="path203" d="m555.26 548.65h2.0285v12.347h-2.0285zm0-4.8066h2.0285v2.5687h-2.0285z" style=""/>
   <path id="path205" d="m571.79 553.55v7.4524h-2.0285v-7.3863q0-1.7529-0.68351-2.6238t-2.0505-0.87092q-1.6426 0-2.5907 1.0473t-0.94809 2.8553v6.9784h-2.0395v-12.347h2.0395v1.9182q0.7276-1.1135 1.7088-1.6647 0.99219-0.55121 2.282-0.55121 2.1277 0 3.2191 1.3229 1.0914 1.3119 1.0914 3.8695z" style=""/>
   <path id="path207" d="m576.14 558.2h2.3261v2.8002h-2.3261z" style=""/>
   <path id="path209" d="m587.83 550.07q-1.6316 0-2.5797 1.2788-0.94809 1.2678-0.94809 3.4837 0 2.2159 0.93707 3.4947 0.94809 1.2678 2.5907 1.2678 1.6206 0 2.5687-1.2788t0.94809-3.4837q0-2.1938-0.94809-3.4727-0.94809-1.2898-2.5687-1.2898zm0-1.7198q2.6458 0 4.1562 1.7198 1.5103 1.7198 1.5103 4.7625 0 3.0317-1.5103 4.7625-1.5103 1.7198-4.1562 1.7198-2.6569 0-4.1672-1.7198-1.4993-1.7308-1.4993-4.7625 0-3.0427 1.4993-4.7625 1.5103-1.7198 4.1672-1.7198z" style=""/>
   <path id="path211" d="m504.31 572.09q-1.4773 2.5356-2.1938 5.0161t-0.71658 5.0271 0.71658 5.0491q0.7276 2.4915 2.1938 5.0161h-1.7639q-1.6536-2.5907-2.4805-5.0932-0.8158-2.5025-0.8158-4.972 0-2.4584 0.8158-4.9499 0.8158-2.4915 2.4805-5.0932z" style=""/>
   <path id="path213" d="m510.26 573.37v3.5057h4.1782v1.5765h-4.1782v6.7028q0 1.5103 0.4079 1.9403 0.41892 0.42995 1.6867 0.42995h2.0836v1.6977h-2.0836q-2.3482 0-3.2412-0.87092-0.89297-0.88194-0.89297-3.197v-6.7028h-1.4883v-1.5765h1.4883v-3.5057z" style=""/>
   <path id="path215" d="m522.73 583.02q-2.4584 0-3.4065 0.56224t-0.94809 1.9182q0 1.0804 0.70555 1.7198 0.71658 0.62839 1.9403 0.62839 1.6867 0 2.701-1.1906 1.0253-1.2016 1.0253-3.186v-0.452zm4.0459-0.83784v7.0445h-2.0285v-1.8741q-0.69453 1.1245-1.7308 1.6647-1.0363 0.52917-2.5356 0.52917-1.8962 0-3.0207-1.0583-1.1135-1.0694-1.1135-2.8553 0-2.0836 1.3891-3.1419 1.4001-1.0583 4.1672-1.0583h2.8443v-0.19843q0-1.4001-0.92604-2.1608-0.91502-0.7717-2.5797-0.7717-1.0583 0-2.0616 0.25356-1.0032 0.25356-1.9292 0.76067v-1.8741q1.1134-0.42995 2.1608-0.63941 1.0473-0.22049 2.0395-0.22049 2.6789 0 4.0018 1.3891 1.3229 1.3891 1.3229 4.2113zm-3.7042-11.013h2.1938l-3.5939 4.1452h-1.6867z" style=""/>
   <path id="path217" d="m538.12 578.77q-0.34176-0.19844-0.74966-0.28663-0.39687-0.0992-0.88194-0.0992-1.7198 0-2.6458 1.1245-0.91502 1.1135-0.91502 3.2081v6.5043h-2.0395v-12.347h2.0395v1.9182q0.63941-1.1245 1.6647-1.6647 1.0253-0.55122 2.4915-0.55122 0.20946 0 0.46302 0.0331 0.25356 0.022 0.56224 0.0772z" style=""/>
   <path id="path219" d="m548 582.91q0-2.2049-0.91502-3.4175-0.904-1.2127-2.5466-1.2127-1.6316 0-2.5466 1.2127-0.90399 1.2127-0.90399 3.4175 0 2.1938 0.90399 3.4065 0.91502 1.2127 2.5466 1.2127 1.6426 0 2.5466-1.2127 0.91502-1.2127 0.91502-3.4065zm2.0285 4.7846q0 3.153-1.4001 4.6853-1.4001 1.5434-4.2885 1.5434-1.0694 0-2.0174-0.16536-0.94809-0.15434-1.8411-0.48507v-1.9734q0.89297 0.48507 1.7639 0.71658t1.7749 0.23151q1.9954 0 2.9876-1.0473 0.99219-1.0363 0.99219-3.1419v-1.0032q-0.62839 1.0914-1.6096 1.6316-0.98117 0.54019-2.3482 0.54019-2.271 0-3.6601-1.7308-1.3891-1.7308-1.3891-4.5861 0-2.8663 1.3891-4.5971 1.3891-1.7308 3.6601-1.7308 1.367 0 2.3482 0.5402 0.98116 0.54019 1.6096 1.6316v-1.8741h2.0285z" style=""/>
   <path id="path221" d="m559.34 590.37q-0.8599 2.2049-1.6757 2.8774t-2.1828 0.67248h-1.6206v-1.6977h1.1906q0.83785 0 1.3009-0.39688 0.46302-0.39687 1.0253-1.8741l0.3638-0.92604-4.994-12.149h2.1497l3.8585 9.6573 3.8585-9.6573h2.1497z" style=""/>
   <path id="path223" d="m567.49 572.07h2.0395v10.131l6.0524-5.3248h2.5907l-6.5484 5.7767 6.824 6.5705h-2.6458l-6.2728-6.0303v6.0303h-2.0395z" style=""/>
   <path id="path225" d="m584.65 578.3q-1.6316 0-2.5797 1.2788-0.94809 1.2678-0.94809 3.4837t0.93707 3.4947q0.94809 1.2678 2.5907 1.2678 1.6206 0 2.5687-1.2788t0.94809-3.4837q0-2.1938-0.94809-3.4727-0.94809-1.2898-2.5687-1.2898zm0-1.7198q2.6458 0 4.1562 1.7198 1.5103 1.7198 1.5103 4.7625 0 3.0317-1.5103 4.7625-1.5103 1.7198-4.1562 1.7198-2.6569 0-4.1672-1.7198-1.4993-1.7308-1.4993-4.7625 0-3.0427 1.4993-4.7625 1.5103-1.7198 4.1672-1.7198zm1.5324-5.4129h2.1938l-3.5939 4.1452h-1.6867z" style=""/>
   <path id="path227" d="m601.8 578.75v-6.6807h2.0285v17.154h-2.0285v-1.8521q-0.63941 1.1024-1.6206 1.6426-0.97014 0.52917-2.3372 0.52917-2.2379 0-3.649-1.7859-1.4001-1.7859-1.4001-4.6964t1.4001-4.6964q1.4111-1.7859 3.649-1.7859 1.367 0 2.3372 0.5402 0.98116 0.52916 1.6206 1.6316zm-6.9122 4.3105q0 2.2379 0.91502 3.5168 0.92604 1.2678 2.5356 1.2678t2.5356-1.2678q0.92604-1.2788 0.92604-3.5168 0-2.2379-0.92604-3.5057-0.92604-1.2788-2.5356-1.2788t-2.5356 1.2788q-0.91502 1.2678-0.91502 3.5057z" style=""/>
   <path id="path229" d="m607.68 572.09h1.7639q1.6536 2.6017 2.4694 5.0932 0.82682 2.4915 0.82682 4.9499 0 2.4694-0.82682 4.972-0.8158 2.5025-2.4694 5.0932h-1.7639q1.4662-2.5246 2.1828-5.0161 0.72761-2.5025 0.72761-5.0491t-0.72761-5.0271q-0.71658-2.4805-2.1828-5.0161z" style=""/>
  </g>
  <g id="text128" aria-label="tictactoe.exe(program)">
   <path id="path232" d="m746.89 405.15v3.5057h4.1782v1.5765h-4.1782v6.7028q0 1.5103 0.4079 1.9403 0.41892 0.42995 1.6867 0.42995h2.0836v1.6977h-2.0836q-2.3482 0-3.2412-0.87092-0.89297-0.88195-0.89297-3.197v-6.7028h-1.4883v-1.5765h1.4883v-3.5057z" style=""/>
   <path id="path234" d="m753.75 408.65h2.0285v12.347h-2.0285zm0-4.8066h2.0285v2.5687h-2.0285z" style=""/>
   <path id="path236" d="m768.89 409.13v1.8962q-0.85989-0.47404-1.7308-0.70555-0.8599-0.24254-1.7418-0.24254-1.9734 0-3.0648 1.2568-1.0914 1.2458-1.0914 3.5057 0 2.26 1.0914 3.5168 1.0914 1.2458 3.0648 1.2458 0.88195 0 1.7418-0.23151 0.87092-0.24253 1.7308-0.71658v1.8741q-0.84887 0.39688-1.7639 0.59532-0.90399 0.19844-1.9292 0.19844-2.7892 0-4.4318-1.7529-1.6426-1.7529-1.6426-4.7294 0-3.0207 1.6536-4.7515 1.6647-1.7308 4.553-1.7308 0.93707 0 1.83 0.19844 0.89297 0.18741 1.7308 0.57326z" style=""/>
   <path id="path238" d="m774.45 405.15v3.5057h4.1782v1.5765h-4.1782v6.7028q0 1.5103 0.4079 1.9403 0.41892 0.42995 1.6867 0.42995h2.0836v1.6977h-2.0836q-2.3482 0-3.2412-0.87092-0.89297-0.88195-0.89297-3.197v-6.7028h-1.4883v-1.5765h1.4883v-3.5057z" style=""/>
   <path id="path240" d="m786.92 414.79q-2.4584 0-3.4065 0.56224t-0.94809 1.9182q0 1.0804 0.70555 1.7198 0.71658 0.62839 1.9403 0.62839 1.6867 0 2.701-1.1906 1.0253-1.2016 1.0253-3.186v-0.452zm4.0459-0.83785v7.0445h-2.0285v-1.8741q-0.69453 1.1245-1.7308 1.6647-1.0363 0.52917-2.5356 0.52917-1.8962 0-3.0207-1.0583-1.1135-1.0694-1.1135-2.8553 0-2.0836 1.3891-3.1419 1.4001-1.0583 4.1672-1.0583h2.8443v-0.19844q0-1.4001-0.92604-2.1608-0.91502-0.7717-2.5797-0.7717-1.0583 0-2.0616 0.25356-1.0032 0.25356-1.9292 0.76068v-1.8741q1.1134-0.42995 2.1608-0.63942 1.0473-0.22048 2.0395-0.22048 2.6789 0 4.0018 1.3891 1.3229 1.3891 1.3229 4.2113z" style=""/>
   <path id="path242" d="m804.04 409.13v1.8962q-0.8599-0.47404-1.7308-0.70555-0.8599-0.24254-1.7418-0.24254-1.9734 0-3.0648 1.2568-1.0914 1.2458-1.0914 3.5057 0 2.26 1.0914 3.5168 1.0914 1.2458 3.0648 1.2458 0.88194 0 1.7418-0.23151 0.87092-0.24253 1.7308-0.71658v1.8741q-0.84888 0.39688-1.7639 0.59532-0.904 0.19844-1.9293 0.19844-2.7892 0-4.4318-1.7529-1.6426-1.7529-1.6426-4.7294 0-3.0207 1.6536-4.7515 1.6647-1.7308 4.553-1.7308 0.93707 0 1.83 0.19844 0.89297 0.18741 1.7308 0.57326z" style=""/>
   <path id="path244" d="m809.59 405.15v3.5057h4.1782v1.5765h-4.1782v6.7028q0 1.5103 0.4079 1.9403 0.41893 0.42995 1.6867 0.42995h2.0836v1.6977h-2.0836q-2.3482 0-3.2412-0.87092-0.89297-0.88195-0.89297-3.197v-6.7028h-1.4883v-1.5765h1.4883v-3.5057z" style=""/>
   <path id="path246" d="m821.24 410.07q-1.6316 0-2.5797 1.2788-0.94809 1.2678-0.94809 3.4837 0 2.2159 0.93706 3.4947 0.9481 1.2678 2.5907 1.2678 1.6206 0 2.5687-1.2788 0.9481-1.2788 0.9481-3.4837 0-2.1938-0.9481-3.4727-0.94809-1.2898-2.5687-1.2898zm0-1.7198q2.6458 0 4.1562 1.7198 1.5103 1.7198 1.5103 4.7625 0 3.0317-1.5103 4.7625-1.5103 1.7198-4.1562 1.7198-2.6569 0-4.1672-1.7198-1.4993-1.7308-1.4993-4.7625 0-3.0427 1.4993-4.7625 1.5103-1.7198 4.1672-1.7198z" style=""/>
   <path id="path248" d="m840.82 414.32v0.99219h-9.3266q0.13229 2.0946 1.2568 3.197 1.1355 1.0914 3.153 1.0914 1.1686 0 2.26-0.28663 1.1024-0.28663 2.1828-0.8599v1.9182q-1.0914 0.46303-2.2379 0.70556-1.1465 0.24254-2.3261 0.24254-2.9545 0-4.6853-1.7198-1.7198-1.7198-1.7198-4.6523 0-3.0317 1.6316-4.8066 1.6426-1.7859 4.4208-1.7859 2.4915 0 3.9357 1.6096 1.4552 1.5985 1.4552 4.3546zm-2.0285-0.59531q-0.022-1.6647-0.93707-2.6569-0.90399-0.99219-2.4033-0.99219-1.6977 0-2.723 0.95912-1.0142 0.95911-1.1686 2.701z" style=""/>
   <path id="path250" d="m844.43 418.2h2.3261v2.8002h-2.3261z" style=""/>
   <path id="path252" d="m861.89 414.32v0.99219h-9.3266q0.13229 2.0946 1.2568 3.197 1.1355 1.0914 3.153 1.0914 1.1686 0 2.26-0.28663 1.1024-0.28663 2.1828-0.8599v1.9182q-1.0914 0.46303-2.2379 0.70556-1.1465 0.24254-2.3261 0.24254-2.9545 0-4.6853-1.7198-1.7198-1.7198-1.7198-4.6523 0-3.0317 1.6316-4.8066 1.6426-1.7859 4.4208-1.7859 2.4915 0 3.9357 1.6096 1.4552 1.5985 1.4552 4.3546zm-2.0285-0.59531q-0.0221-1.6647-0.93707-2.6569-0.90399-0.99219-2.4033-0.99219-1.6977 0-2.723 0.95912-1.0142 0.95911-1.1686 2.701z" style=""/>
   <path id="path254" d="m875.09 408.65-4.4648 6.0082 4.6964 6.339h-2.3923l-3.5939-4.8507-3.5939 4.8507h-2.3923l4.7956-6.4602-4.3877-5.887h2.3923l3.2742 4.3987 3.2742-4.3987z" style=""/>
   <path id="path256" d="m888.04 414.32v0.99219h-9.3266q0.13229 2.0946 1.2568 3.197 1.1355 1.0914 3.153 1.0914 1.1686 0 2.26-0.28663 1.1024-0.28663 2.1828-0.8599v1.9182q-1.0914 0.46303-2.2379 0.70556-1.1465 0.24254-2.3261 0.24254-2.9545 0-4.6853-1.7198-1.7198-1.7198-1.7198-4.6523 0-3.0317 1.6316-4.8066 1.6426-1.7859 4.4208-1.7859 2.4915 0 3.9357 1.6096 1.4552 1.5985 1.4552 4.3546zm-2.0285-0.59531q-0.0221-1.6647-0.93706-2.6569-0.904-0.99219-2.4033-0.99219-1.6977 0-2.723 0.95912-1.0142 0.95911-1.1686 2.701z" style=""/>
   <path id="path258" d="m765.96 432.09q-1.4773 2.5356-2.1938 5.0161t-0.71658 5.0271 0.71658 5.0491q0.7276 2.4915 2.1938 5.0161h-1.7639q-1.6536-2.5907-2.4805-5.0932-0.8158-2.5025-0.8158-4.972 0-2.4584 0.8158-4.9499 0.8158-2.4915 2.4805-5.0932z" style=""/>
   <path id="path260" d="m771.87 447.37v6.5484h-2.0395v-17.044h2.0395v1.8741q0.63941-1.1024 1.6096-1.6316 0.98116-0.5402 2.3372-0.5402 2.249 0 3.649 1.7859 1.4111 1.7859 1.4111 4.6964t-1.4111 4.6964q-1.4001 1.7859-3.649 1.7859-1.356 0-2.3372-0.52917-0.97014-0.54019-1.6096-1.6426zm6.9012-4.3105q0-2.2379-0.92604-3.5057-0.91502-1.2788-2.5246-1.2788t-2.5356 1.2788q-0.91502 1.2678-0.91502 3.5057 0 2.2379 0.91502 3.5168 0.92604 1.2678 2.5356 1.2678t2.5246-1.2678q0.92604-1.2788 0.92604-3.5168z" style=""/>
   <path id="path262" d="m791.39 438.77q-0.34176-0.19844-0.74966-0.28663-0.39687-0.0992-0.88194-0.0992-1.7198 0-2.6458 1.1245-0.91502 1.1135-0.91502 3.2081v6.5043h-2.0395v-12.347h2.0395v1.9182q0.63941-1.1245 1.6647-1.6647 1.0253-0.55122 2.4915-0.55122 0.20946 0 0.46302 0.0331 0.25356 0.0221 0.56224 0.0772z" style=""/>
   <path id="path264" d="m797.84 438.3q-1.6316 0-2.5797 1.2788-0.94809 1.2678-0.94809 3.4837t0.93707 3.4947q0.94809 1.2678 2.5907 1.2678 1.6206 0 2.5687-1.2788 0.94809-1.2788 0.94809-3.4837 0-2.1938-0.94809-3.4727-0.9481-1.2898-2.5687-1.2898zm0-1.7198q2.6458 0 4.1562 1.7198 1.5103 1.7198 1.5103 4.7625 0 3.0317-1.5103 4.7625-1.5103 1.7198-4.1562 1.7198-2.6569 0-4.1672-1.7198-1.4993-1.7308-1.4993-4.7625 0-3.0427 1.4993-4.7625 1.5103-1.7198 4.1672-1.7198z" style=""/>
   <path id="path266" d="m814.99 442.91q0-2.2049-0.91501-3.4175-0.904-1.2127-2.5466-1.2127-1.6316 0-2.5466 1.2127-0.90399 1.2127-0.90399 3.4175 0 2.1938 0.90399 3.4065 0.91502 1.2127 2.5466 1.2127 1.6426 0 2.5466-1.2127 0.91501-1.2127 0.91501-3.4065zm2.0285 4.7846q0 3.153-1.4001 4.6853-1.4001 1.5434-4.2885 1.5434-1.0694 0-2.0174-0.16536-0.94809-0.15434-1.8411-0.48507v-1.9734q0.89297 0.48507 1.7639 0.71658t1.7749 0.23151q1.9954 0 2.9876-1.0473 0.99218-1.0363 0.99218-3.1419v-1.0032q-0.62838 1.0914-1.6096 1.6316-0.98116 0.54019-2.3482 0.54019-2.271 0-3.6601-1.7308-1.3891-1.7308-1.3891-4.5861 0-2.8663 1.3891-4.5971 1.3891-1.7308 3.6601-1.7308 1.367 0 2.3482 0.5402 0.98117 0.54019 1.6096 1.6316v-1.8741h2.0285z" style=""/>
   <path id="path268" d="m828.35 438.77q-0.34176-0.19844-0.74966-0.28663-0.39687-0.0992-0.88194-0.0992-1.7198 0-2.6458 1.1245-0.91502 1.1135-0.91502 3.2081v6.5043h-2.0395v-12.347h2.0395v1.9182q0.63941-1.1245 1.6647-1.6647 1.0253-0.55122 2.4915-0.55122 0.20946 0 0.46302 0.0331 0.25356 0.0221 0.56224 0.0772z" style=""/>
   <path id="path270" d="m836.11 443.02q-2.4584 0-3.4065 0.56224t-0.94809 1.9182q0 1.0804 0.70555 1.7198 0.71658 0.62839 1.9403 0.62839 1.6867 0 2.701-1.1906 1.0253-1.2016 1.0253-3.186v-0.452zm4.0459-0.83784v7.0445h-2.0285v-1.8741q-0.69453 1.1245-1.7308 1.6647-1.0363 0.52917-2.5356 0.52917-1.8962 0-3.0207-1.0583-1.1135-1.0694-1.1135-2.8553 0-2.0836 1.3891-3.1419 1.4001-1.0583 4.1672-1.0583h2.8443v-0.19843q0-1.4001-0.92604-2.1608-0.91502-0.7717-2.5797-0.7717-1.0583 0-2.0616 0.25356t-1.9292 0.76067v-1.8741q1.1134-0.42995 2.1608-0.63941 1.0473-0.22049 2.0395-0.22049 2.6789 0 4.0018 1.3891 1.3229 1.3891 1.3229 4.2113z" style=""/>
   <path id="path272" d="m853.96 439.24q0.76068-1.367 1.819-2.0174 1.0583-0.65044 2.4915-0.65044 1.9292 0 2.9766 1.356 1.0473 1.345 1.0473 3.8365v7.4524h-2.0395v-7.3863q0-1.7749-0.62839-2.6348t-1.9182-0.8599q-1.5765 0-2.4915 1.0473t-0.91502 2.8553v6.9784h-2.0395v-7.3863q0-1.7859-0.62839-2.6348-0.62839-0.8599-1.9403-0.8599-1.5544 0-2.4694 1.0583-0.91502 1.0473-0.91502 2.8443v6.9784h-2.0395v-12.347h2.0395v1.9182q0.69454-1.1355 1.6647-1.6757 0.97014-0.5402 2.3041-0.5402 1.345 0 2.282 0.68351 0.94809 0.68351 1.4001 1.9844z" style=""/>
   <path id="path274" d="m866.03 432.09h1.7639q1.6536 2.6017 2.4694 5.0932 0.82682 2.4915 0.82682 4.9499 0 2.4694-0.82682 4.972-0.8158 2.5025-2.4694 5.0932h-1.7639q1.4662-2.5246 2.1828-5.0161 0.7276-2.5025 0.7276-5.0491t-0.7276-5.0271q-0.71659-2.4805-2.1828-5.0161z" style=""/>
  </g>
  <g id="text134" aria-label="jatekallas.o(tárgykód)">
   <path id="path277" d="m493.86 268.65h2.0285v12.568q0 2.3592-0.90399 3.4175-0.89297 1.0583-2.8884 1.0583h-0.77171v-1.7198h0.5402q1.1576 0 1.5765-0.5402 0.41893-0.52916 0.41893-2.2159zm0-4.8066h2.0285v2.5687h-2.0285z" style=""/>
   <path id="path279" d="m505.73 274.79q-2.4584 0-3.4065 0.56224t-0.94809 1.9182q0 1.0804 0.70556 1.7198 0.71658 0.62839 1.9403 0.62839 1.6867 0 2.701-1.1906 1.0253-1.2016 1.0253-3.186v-0.452zm4.0459-0.83785v7.0445h-2.0285v-1.8741q-0.69454 1.1245-1.7308 1.6647-1.0363 0.52917-2.5356 0.52917-1.8962 0-3.0207-1.0583-1.1134-1.0694-1.1134-2.8553 0-2.0836 1.3891-3.1419 1.4001-1.0583 4.1672-1.0583h2.8443v-0.19844q0-1.4001-0.92605-2.1608-0.91502-0.7717-2.5797-0.7717-1.0583 0-2.0615 0.25356-1.0032 0.25356-1.9293 0.76068v-1.8741q1.1135-0.42995 2.1608-0.63942 1.0473-0.22048 2.0395-0.22048 2.6789 0 4.0018 1.3891 1.3229 1.3891 1.3229 4.2113z" style=""/>
   <path id="path281" d="m515.97 265.15v3.5057h4.1782v1.5765h-4.1782v6.7028q0 1.5103 0.4079 1.9403 0.41893 0.42995 1.6867 0.42995h2.0836v1.6977h-2.0836q-2.3482 0-3.2411-0.87092-0.89297-0.88195-0.89297-3.197v-6.7028h-1.4883v-1.5765h1.4883v-3.5057z" style=""/>
   <path id="path283" d="m533.39 274.32v0.99219h-9.3266q0.1323 2.0946 1.2568 3.197 1.1355 1.0914 3.153 1.0914 1.1686 0 2.26-0.28663 1.1024-0.28663 2.1828-0.8599v1.9182q-1.0914 0.46303-2.2379 0.70556-1.1465 0.24254-2.3261 0.24254-2.9545 0-4.6853-1.7198-1.7198-1.7198-1.7198-4.6523 0-3.0317 1.6316-4.8066 1.6426-1.7859 4.4208-1.7859 2.4915 0 3.9357 1.6096 1.4552 1.5985 1.4552 4.3546zm-2.0285-0.59531q-0.022-1.6647-0.93706-2.6569-0.904-0.99219-2.4033-0.99219-1.6977 0-2.723 0.95912-1.0142 0.95911-1.1686 2.701z" style=""/>
   <path id="path285" d="m536.64 263.85h2.0395v10.131l6.0524-5.3247h2.5907l-6.5484 5.7767 6.824 6.5705h-2.6458l-6.2728-6.0303v6.0303h-2.0395z" style=""/>
   <path id="path287" d="m555.03 274.79q-2.4584 0-3.4065 0.56224t-0.94809 1.9182q0 1.0804 0.70555 1.7198 0.71658 0.62839 1.9403 0.62839 1.6867 0 2.701-1.1906 1.0253-1.2016 1.0253-3.186v-0.452zm4.0459-0.83785v7.0445h-2.0285v-1.8741q-0.69453 1.1245-1.7308 1.6647-1.0363 0.52917-2.5356 0.52917-1.8962 0-3.0207-1.0583-1.1135-1.0694-1.1135-2.8553 0-2.0836 1.3891-3.1419 1.4001-1.0583 4.1672-1.0583h2.8443v-0.19844q0-1.4001-0.92604-2.1608-0.91502-0.7717-2.5797-0.7717-1.0583 0-2.0616 0.25356t-1.9292 0.76068v-1.8741q1.1134-0.42995 2.1608-0.63942 1.0473-0.22048 2.0395-0.22048 2.6789 0 4.0018 1.3891 1.3229 1.3891 1.3229 4.2113z" style=""/>
   <path id="path289" d="m563.27 263.85h2.0285v17.154h-2.0285z" style=""/>
   <path id="path291" d="m569.53 263.85h2.0285v17.154h-2.0285z" style=""/>
   <path id="path293" d="m581.4 274.79q-2.4584 0-3.4065 0.56224t-0.94809 1.9182q0 1.0804 0.70556 1.7198 0.71658 0.62839 1.9403 0.62839 1.6867 0 2.701-1.1906 1.0253-1.2016 1.0253-3.186v-0.452zm4.0459-0.83785v7.0445h-2.0285v-1.8741q-0.69453 1.1245-1.7308 1.6647-1.0363 0.52917-2.5356 0.52917-1.8962 0-3.0207-1.0583-1.1134-1.0694-1.1134-2.8553 0-2.0836 1.3891-3.1419 1.4001-1.0583 4.1672-1.0583h2.8443v-0.19844q0-1.4001-0.92605-2.1608-0.91501-0.7717-2.5797-0.7717-1.0583 0-2.0615 0.25356-1.0032 0.25356-1.9293 0.76068v-1.8741q1.1135-0.42995 2.1608-0.63942 1.0473-0.22048 2.0395-0.22048 2.6789 0 4.0018 1.3891 1.3229 1.3891 1.3229 4.2113z" style=""/>
   <path id="path295" d="m597.51 269.02v1.9182q-0.85989-0.44097-1.7859-0.66146-0.92605-0.22049-1.9182-0.22049-1.5103 0-2.271 0.46302-0.74966 0.46303-0.74966 1.3891 0 0.70555 0.54019 1.1134 0.54019 0.39688 2.1718 0.76068l0.69454 0.15434q2.1608 0.46302 3.0648 1.3119 0.91501 0.83784 0.91501 2.3482 0 1.7198-1.367 2.723-1.356 1.0032-3.7372 1.0032-0.99219 0-2.0726-0.19844-1.0694-0.18742-2.26-0.57327v-2.0946q1.1245 0.58429 2.2159 0.88195 1.0914 0.28663 2.1608 0.28663 1.4332 0 2.2049-0.48507 0.7717-0.49609 0.7717-1.3891 0-0.82683-0.56224-1.2678-0.55122-0.44097-2.4364-0.84887l-0.70555-0.16537q-1.8852-0.39687-2.723-1.2127-0.83785-0.82683-0.83785-2.26 0-1.7418 1.2347-2.6899 1.2347-0.94809 3.5057-0.94809 1.1245 0 2.1167 0.16536 0.99219 0.16537 1.83 0.4961z" style=""/>
   <path id="path297" d="m601.7 278.2h2.3261v2.8002h-2.3261z" style=""/>
   <path id="path299" d="m613.38 270.07q-1.6316 0-2.5797 1.2788-0.94809 1.2678-0.94809 3.4837 0 2.2159 0.93706 3.4947 0.9481 1.2678 2.5907 1.2678 1.6206 0 2.5687-1.2788 0.9481-1.2788 0.9481-3.4837 0-2.1938-0.9481-3.4727-0.94809-1.2898-2.5687-1.2898zm0-1.7198q2.6458 0 4.1562 1.7198 1.5103 1.7198 1.5103 4.7625 0 3.0317-1.5103 4.7625-1.5103 1.7198-4.1562 1.7198-2.6569 0-4.1672-1.7198-1.4993-1.7308-1.4993-4.7625 0-3.0427 1.4993-4.7625 1.5103-1.7198 4.1672-1.7198z" style=""/>
   <path id="path301" d="m504.31 292.09q-1.4773 2.5356-2.1938 5.0161t-0.71658 5.0271 0.71658 5.0491q0.7276 2.4915 2.1938 5.0161h-1.7639q-1.6536-2.5907-2.4805-5.0932-0.8158-2.5025-0.8158-4.972 0-2.4584 0.8158-4.9499 0.8158-2.4915 2.4805-5.0932z" style=""/>
   <path id="path303" d="m510.26 293.37v3.5057h4.1782v1.5765h-4.1782v6.7028q0 1.5103 0.4079 1.9403 0.41892 0.42995 1.6867 0.42995h2.0836v1.6977h-2.0836q-2.3482 0-3.2412-0.87092-0.89297-0.88194-0.89297-3.197v-6.7028h-1.4883v-1.5765h1.4883v-3.5057z" style=""/>
   <path id="path305" d="m522.73 303.02q-2.4584 0-3.4065 0.56224t-0.94809 1.9182q0 1.0804 0.70555 1.7198 0.71658 0.62839 1.9403 0.62839 1.6867 0 2.701-1.1906 1.0253-1.2016 1.0253-3.186v-0.452zm4.0459-0.83784v7.0445h-2.0285v-1.8741q-0.69453 1.1245-1.7308 1.6647-1.0363 0.52917-2.5356 0.52917-1.8962 0-3.0207-1.0583-1.1135-1.0694-1.1135-2.8553 0-2.0836 1.3891-3.1419 1.4001-1.0583 4.1672-1.0583h2.8443v-0.19843q0-1.4001-0.92604-2.1608-0.91502-0.7717-2.5797-0.7717-1.0583 0-2.0616 0.25356-1.0032 0.25356-1.9292 0.76067v-1.8741q1.1134-0.42995 2.1608-0.63941 1.0473-0.22049 2.0395-0.22049 2.6789 0 4.0018 1.3891 1.3229 1.3891 1.3229 4.2113zm-3.7042-11.013h2.1938l-3.5939 4.1452h-1.6867z" style=""/>
   <path id="path307" d="m538.12 298.77q-0.34176-0.19844-0.74966-0.28663-0.39687-0.0992-0.88194-0.0992-1.7198 0-2.6458 1.1245-0.91502 1.1135-0.91502 3.2081v6.5043h-2.0395v-12.347h2.0395v1.9182q0.63941-1.1245 1.6647-1.6647 1.0253-0.55122 2.4915-0.55122 0.20946 0 0.46302 0.0331 0.25356 0.0221 0.56224 0.0772z" style=""/>
   <path id="path309" d="m548 302.91q0-2.2049-0.91502-3.4175-0.904-1.2127-2.5466-1.2127-1.6316 0-2.5466 1.2127-0.90399 1.2127-0.90399 3.4175 0 2.1938 0.90399 3.4065 0.91502 1.2127 2.5466 1.2127 1.6426 0 2.5466-1.2127 0.91502-1.2127 0.91502-3.4065zm2.0285 4.7846q0 3.153-1.4001 4.6853-1.4001 1.5434-4.2885 1.5434-1.0694 0-2.0174-0.16536-0.94809-0.15434-1.8411-0.48507v-1.9734q0.89297 0.48507 1.7639 0.71658t1.7749 0.23151q1.9954 0 2.9876-1.0473 0.99219-1.0363 0.99219-3.1419v-1.0032q-0.62839 1.0914-1.6096 1.6316-0.98117 0.54019-2.3482 0.54019-2.271 0-3.6601-1.7308-1.3891-1.7308-1.3891-4.5861 0-2.8663 1.3891-4.5971 1.3891-1.7308 3.6601-1.7308 1.367 0 2.3482 0.5402 0.98116 0.54019 1.6096 1.6316v-1.8741h2.0285z" style=""/>
   <path id="path311" d="m559.34 310.37q-0.8599 2.2049-1.6757 2.8774t-2.1828 0.67248h-1.6206v-1.6977h1.1906q0.83785 0 1.3009-0.39688 0.46302-0.39687 1.0253-1.8741l0.3638-0.92604-4.994-12.149h2.1497l3.8585 9.6573 3.8585-9.6573h2.1497z" style=""/>
   <path id="path313" d="m567.49 292.07h2.0395v10.131l6.0524-5.3248h2.5907l-6.5484 5.7767 6.824 6.5705h-2.6458l-6.2728-6.0303v6.0303h-2.0395z" style=""/>
   <path id="path315" d="m584.65 298.3q-1.6316 0-2.5797 1.2788-0.94809 1.2678-0.94809 3.4837t0.93707 3.4947q0.94809 1.2678 2.5907 1.2678 1.6206 0 2.5687-1.2788t0.94809-3.4837q0-2.1938-0.94809-3.4727-0.94809-1.2898-2.5687-1.2898zm0-1.7198q2.6458 0 4.1562 1.7198 1.5103 1.7198 1.5103 4.7625 0 3.0317-1.5103 4.7625-1.5103 1.7198-4.1562 1.7198-2.6569 0-4.1672-1.7198-1.4993-1.7308-1.4993-4.7625 0-3.0427 1.4993-4.7625 1.5103-1.7198 4.1672-1.7198zm1.5324-5.4129h2.1938l-3.5939 4.1452h-1.6867z" style=""/>
   <path id="path317" d="m601.8 298.75v-6.6807h2.0285v17.154h-2.0285v-1.8521q-0.63941 1.1024-1.6206 1.6426-0.97014 0.52917-2.3372 0.52917-2.2379 0-3.649-1.7859-1.4001-1.7859-1.4001-4.6964t1.4001-4.6964q1.4111-1.7859 3.649-1.7859 1.367 0 2.3372 0.5402 0.98116 0.52916 1.6206 1.6316zm-6.9122 4.3105q0 2.2379 0.91502 3.5168 0.92604 1.2678 2.5356 1.2678t2.5356-1.2678q0.92604-1.2788 0.92604-3.5168 0-2.2379-0.92604-3.5057-0.92604-1.2788-2.5356-1.2788t-2.5356 1.2788q-0.91502 1.2678-0.91502 3.5057z" style=""/>
   <path id="path319" d="m607.68 292.09h1.7639q1.6536 2.6017 2.4694 5.0932 0.82682 2.4915 0.82682 4.9499 0 2.4694-0.82682 4.972-0.8158 2.5025-2.4694 5.0932h-1.7639q1.4662-2.5246 2.1828-5.0161 0.72761-2.5025 0.72761-5.0491t-0.72761-5.0271q-0.71658-2.4805-2.1828-5.0161z" style=""/>
  </g>
  <g id="text142" aria-label="010100110110101">
   <path id="path322" d="m539.19 184.3q-0.975 0-1.4688 0.9625-0.4875 0.95625-0.4875 2.8812 0 1.9188 0.4875 2.8812 0.49375 0.95625 1.4688 0.95625 0.98125 0 1.4688-0.95625 0.49375-0.9625 0.49375-2.8812 0-1.925-0.49375-2.8812-0.4875-0.9625-1.4688-0.9625zm0-1q1.5688 0 2.3938 1.2438 0.83125 1.2375 0.83125 3.6 0 2.3562-0.83125 3.6-0.825 1.2375-2.3938 1.2375t-2.4-1.2375q-0.825-1.2438-0.825-3.6 0-2.3625 0.825-3.6 0.83125-1.2438 2.4-1.2438z" style=""/>
   <path id="path324" d="m544.86 191.74h2.0625v-7.1188l-2.2438 0.45v-1.15l2.2312-0.45h1.2625v8.2688h2.0625v1.0625h-5.375z" style=""/>
   <path id="path326" d="m555.49 184.3q-0.975 0-1.4688 0.9625-0.4875 0.95625-0.4875 2.8812 0 1.9188 0.4875 2.8812 0.49375 0.95625 1.4688 0.95625 0.98125 0 1.4688-0.95625 0.49375-0.9625 0.49375-2.8812 0-1.925-0.49375-2.8812-0.4875-0.9625-1.4688-0.9625zm0-1q1.5688 0 2.3938 1.2438 0.83125 1.2375 0.83125 3.6 0 2.3562-0.83125 3.6-0.825 1.2375-2.3938 1.2375t-2.4-1.2375q-0.825-1.2438-0.825-3.6 0-2.3625 0.825-3.6 0.83125-1.2438 2.4-1.2438z" style=""/>
   <path id="path328" d="m561.16 191.74h2.0625v-7.1188l-2.2438 0.45v-1.15l2.2312-0.45h1.2625v8.2688h2.0625v1.0625h-5.375z" style=""/>
   <path id="path330" d="m571.79 184.3q-0.975 0-1.4688 0.9625-0.4875 0.95625-0.4875 2.8812 0 1.9188 0.4875 2.8812 0.49375 0.95625 1.4688 0.95625 0.98125 0 1.4688-0.95625 0.49375-0.9625 0.49375-2.8812 0-1.925-0.49375-2.8812-0.4875-0.9625-1.4688-0.9625zm0-1q1.5688 0 2.3938 1.2438 0.83125 1.2375 0.83125 3.6 0 2.3562-0.83125 3.6-0.825 1.2375-2.3938 1.2375t-2.4-1.2375q-0.825-1.2438-0.825-3.6 0-2.3625 0.825-3.6 0.83125-1.2438 2.4-1.2438z" style=""/>
   <path id="path332" d="m539.19 200.3q-0.975 0-1.4688 0.9625-0.4875 0.95625-0.4875 2.8812 0 1.9188 0.4875 2.8812 0.49375 0.95625 1.4688 0.95625 0.98125 0 1.4688-0.95625 0.49375-0.9625 0.49375-2.8812 0-1.925-0.49375-2.8812-0.4875-0.9625-1.4688-0.9625zm0-1q1.5688 0 2.3938 1.2438 0.83125 1.2375 0.83125 3.6 0 2.3562-0.83125 3.6-0.825 1.2375-2.3938 1.2375t-2.4-1.2375q-0.825-1.2438-0.825-3.6 0-2.3625 0.825-3.6 0.83125-1.2438 2.4-1.2438z" style=""/>
   <path id="path334" d="m544.86 207.74h2.0625v-7.1188l-2.2438 0.45v-1.15l2.2312-0.45h1.2625v8.2688h2.0625v1.0625h-5.375z" style=""/>
   <path id="path336" d="m553.01 207.74h2.0625v-7.1188l-2.2438 0.45v-1.15l2.2312-0.45h1.2625v8.2688h2.0625v1.0625h-5.375z" style=""/>
   <path id="path338" d="m563.64 200.3q-0.975 0-1.4688 0.9625-0.4875 0.95625-0.4875 2.8812 0 1.9188 0.4875 2.8812 0.49375 0.95625 1.4688 0.95625 0.98125 0 1.4688-0.95625 0.49375-0.9625 0.49375-2.8812 0-1.925-0.49375-2.8812-0.4875-0.9625-1.4688-0.9625zm0-1q1.5688 0 2.3938 1.2438 0.83125 1.2375 0.83125 3.6 0 2.3562-0.83125 3.6-0.825 1.2375-2.3938 1.2375t-2.4-1.2375q-0.825-1.2438-0.825-3.6 0-2.3625 0.825-3.6 0.83125-1.2438 2.4-1.2438z" style=""/>
   <path id="path340" d="m569.31 207.74h2.0625v-7.1188l-2.2438 0.45v-1.15l2.2312-0.45h1.2625v8.2688h2.0625v1.0625h-5.375z" style=""/>
   <path id="path342" d="m536.71 223.74h2.0625v-7.1188l-2.2438 0.45v-1.15l2.2312-0.45h1.2625v8.2688h2.0625v1.0625h-5.375z" style=""/>
   <path id="path344" d="m547.34 216.3q-0.975 0-1.4688 0.9625-0.4875 0.95625-0.4875 2.8812 0 1.9188 0.4875 2.8812 0.49375 0.95625 1.4688 0.95625 0.98125 0 1.4688-0.95625 0.49375-0.9625 0.49375-2.8812 0-1.925-0.49375-2.8812-0.4875-0.9625-1.4688-0.9625zm0-1q1.5688 0 2.3938 1.2438 0.83125 1.2375 0.83125 3.6 0 2.3562-0.83125 3.6-0.825 1.2375-2.3938 1.2375t-2.4-1.2375q-0.825-1.2438-0.825-3.6 0-2.3625 0.825-3.6 0.83125-1.2438 2.4-1.2438z" style=""/>
   <path id="path346" d="m553.01 223.74h2.0625v-7.1188l-2.2438 0.45v-1.15l2.2312-0.45h1.2625v8.2688h2.0625v1.0625h-5.375z" style=""/>
   <path id="path348" d="m563.64 216.3q-0.975 0-1.4688 0.9625-0.4875 0.95625-0.4875 2.8812 0 1.9188 0.4875 2.8812 0.49375 0.95625 1.4688 0.95625 0.98125 0 1.4688-0.95625 0.49375-0.9625 0.49375-2.8812 0-1.925-0.49375-2.8812-0.4875-0.9625-1.4688-0.9625zm0-1q1.5688 0 2.3938 1.2438 0.83125 1.2375 0.83125 3.6 0 2.3562-0.83125 3.6-0.825 1.2375-2.3938 1.2375t-2.4-1.2375q-0.825-1.2438-0.825-3.6 0-2.3625 0.825-3.6 0.83125-1.2438 2.4-1.2438z" style=""/>
   <path id="path350" d="m569.31 223.74h2.0625v-7.1188l-2.2438 0.45v-1.15l2.2312-0.45h1.2625v8.2688h2.0625v1.0625h-5.375z" style=""/>
  </g>
  <g id="text150" aria-label="010100110110101">
   <path id="path353" d="m539.19 464.3q-0.975 0-1.4688 0.9625-0.4875 0.95625-0.4875 2.8812 0 1.9188 0.4875 2.8812 0.49375 0.95625 1.4688 0.95625 0.98125 0 1.4688-0.95625 0.49375-0.9625 0.49375-2.8812 0-1.925-0.49375-2.8812-0.4875-0.9625-1.4688-0.9625zm0-1q1.5688 0 2.3938 1.2438 0.83125 1.2375 0.83125 3.6 0 2.3562-0.83125 3.6-0.825 1.2375-2.3938 1.2375t-2.4-1.2375q-0.825-1.2438-0.825-3.6 0-2.3625 0.825-3.6 0.83125-1.2438 2.4-1.2438z" style=""/>
   <path id="path355" d="m544.86 471.74h2.0625v-7.1188l-2.2438 0.45v-1.15l2.2312-0.45h1.2625v8.2688h2.0625v1.0625h-5.375z" style=""/>
   <path id="path357" d="m555.49 464.3q-0.975 0-1.4688 0.9625-0.4875 0.95625-0.4875 2.8812 0 1.9188 0.4875 2.8812 0.49375 0.95625 1.4688 0.95625 0.98125 0 1.4688-0.95625 0.49375-0.9625 0.49375-2.8812 0-1.925-0.49375-2.8812-0.4875-0.9625-1.4688-0.9625zm0-1q1.5688 0 2.3938 1.2438 0.83125 1.2375 0.83125 3.6 0 2.3562-0.83125 3.6-0.825 1.2375-2.3938 1.2375t-2.4-1.2375q-0.825-1.2438-0.825-3.6 0-2.3625 0.825-3.6 0.83125-1.2438 2.4-1.2438z" style=""/>
   <path id="path359" d="m561.16 471.74h2.0625v-7.1188l-2.2438 0.45v-1.15l2.2312-0.45h1.2625v8.2688h2.0625v1.0625h-5.375z" style=""/>
   <path id="path361" d="m571.79 464.3q-0.975 0-1.4688 0.9625-0.4875 0.95625-0.4875 2.8812 0 1.9188 0.4875 2.8812 0.49375 0.95625 1.4688 0.95625 0.98125 0 1.4688-0.95625 0.49375-0.9625 0.49375-2.8812 0-1.925-0.49375-2.8812-0.4875-0.9625-1.4688-0.9625zm0-1q1.5688 0 2.3938 1.2438 0.83125 1.2375 0.83125 3.6 0 2.3562-0.83125 3.6-0.825 1.2375-2.3938 1.2375t-2.4-1.2375q-0.825-1.2438-0.825-3.6 0-2.3625 0.825-3.6 0.83125-1.2438 2.4-1.2438z" style=""/>
   <path id="path363" d="m539.19 480.3q-0.975 0-1.4688 0.9625-0.4875 0.95625-0.4875 2.8812 0 1.9188 0.4875 2.8812 0.49375 0.95625 1.4688 0.95625 0.98125 0 1.4688-0.95625 0.49375-0.9625 0.49375-2.8812 0-1.925-0.49375-2.8812-0.4875-0.9625-1.4688-0.9625zm0-1q1.5688 0 2.3938 1.2438 0.83125 1.2375 0.83125 3.6 0 2.3562-0.83125 3.6-0.825 1.2375-2.3938 1.2375t-2.4-1.2375q-0.825-1.2438-0.825-3.6 0-2.3625 0.825-3.6 0.83125-1.2438 2.4-1.2438z" style=""/>
   <path id="path365" d="m544.86 487.74h2.0625v-7.1188l-2.2438 0.45v-1.15l2.2312-0.45h1.2625v8.2688h2.0625v1.0625h-5.375z" style=""/>
   <path id="path367" d="m553.01 487.74h2.0625v-7.1188l-2.2438 0.45v-1.15l2.2312-0.45h1.2625v8.2688h2.0625v1.0625h-5.375z" style=""/>
   <path id="path369" d="m563.64 480.3q-0.975 0-1.4688 0.9625-0.4875 0.95625-0.4875 2.8812 0 1.9188 0.4875 2.8812 0.49375 0.95625 1.4688 0.95625 0.98125 0 1.4688-0.95625 0.49375-0.9625 0.49375-2.8812 0-1.925-0.49375-2.8812-0.4875-0.9625-1.4688-0.9625zm0-1q1.5688 0 2.3938 1.2438 0.83125 1.2375 0.83125 3.6 0 2.3562-0.83125 3.6-0.825 1.2375-2.3938 1.2375t-2.4-1.2375q-0.825-1.2438-0.825-3.6 0-2.3625 0.825-3.6 0.83125-1.2438 2.4-1.2438z" style=""/>
   <path id="path371" d="m569.31 487.74h2.0625v-7.1188l-2.2438 0.45v-1.15l2.2312-0.45h1.2625v8.2688h2.0625v1.0625h-5.375z" style=""/>
   <path id="path373" d="m536.71 503.74h2.0625v-7.1188l-2.2438 0.45v-1.15l2.2312-0.45h1.2625v8.2688h2.0625v1.0625h-5.375z" style=""/>
   <path id="path375" d="m547.34 496.3q-0.975 0-1.4688 0.9625-0.4875 0.95625-0.4875 2.8812 0 1.9188 0.4875 2.8812 0.49375 0.95625 1.4688 0.95625 0.98125 0 1.4688-0.95625 0.49375-0.9625 0.49375-2.8812 0-1.925-0.49375-2.8812-0.4875-0.9625-1.4688-0.9625zm0-1q1.5688 0 2.3938 1.2438 0.83125 1.2375 0.83125 3.6 0 2.3562-0.83125 3.6-0.825 1.2375-2.3938 1.2375t-2.4-1.2375q-0.825-1.2438-0.825-3.6 0-2.3625 0.825-3.6 0.83125-1.2438 2.4-1.2438z" style=""/>
   <path id="path377" d="m553.01 503.74h2.0625v-7.1188l-2.2438 0.45v-1.15l2.2312-0.45h1.2625v8.2688h2.0625v1.0625h-5.375z" style=""/>
   <path id="path379" d="m563.64 496.3q-0.975 0-1.4688 0.9625-0.4875 0.95625-0.4875 2.8812 0 1.9188 0.4875 2.8812 0.49375 0.95625 1.4688 0.95625 0.98125 0 1.4688-0.95625 0.49375-0.9625 0.49375-2.8812 0-1.925-0.49375-2.8812-0.4875-0.9625-1.4688-0.9625zm0-1q1.5688 0 2.3938 1.2438 0.83125 1.2375 0.83125 3.6 0 2.3562-0.83125 3.6-0.825 1.2375-2.3938 1.2375t-2.4-1.2375q-0.825-1.2438-0.825-3.6 0-2.3625 0.825-3.6 0.83125-1.2438 2.4-1.2438z" style=""/>
   <path id="path381" d="m569.31 503.74h2.0625v-7.1188l-2.2438 0.45v-1.15l2.2312-0.45h1.2625v8.2688h2.0625v1.0625h-5.375z" style=""/>
  </g>
 </g>
</svg>
