<?xml version="1.0" encoding="UTF-8" standalone="no"?>
<!DOCTYPE svg PUBLIC "-//W3C//DTD SVG 1.1//EN"
 "http://www.w3.org/Graphics/SVG/1.1/DTD/svg11.dtd">
<!-- Generated by graphviz version 2.40.1 (20161225.0304)
 -->
<!-- Title: %3 Pages: 1 -->
<svg width="882pt" height="348pt"
 viewBox="0.00 0.00 882.00 348.00" xmlns="http://www.w3.org/2000/svg" xmlns:xlink="http://www.w3.org/1999/xlink">
<g id="graph0" class="graph" transform="scale(1 1) rotate(0) translate(4 344)">
<title>%3</title>
<polygon fill="#ffffff" stroke="transparent" points="-4,4 -4,-344 878,-344 878,4 -4,4"/>
<!-- fopen -->
<g id="node1" class="node">
<title>fopen</title>
<ellipse fill="#eeeeee" stroke="#000000" cx="156.5" cy="-113" rx="37.8943" ry="18"/>
<text text-anchor="middle" x="156.5" y="-109.3" font-family="sans" font-size="14.00" fill="#000000">fopen</text>
</g>
<!-- fclose -->
<g id="node2" class="node">
<title>fclose</title>
<ellipse fill="#eeeeee" stroke="#000000" cx="56.5" cy="-113" rx="38.1938" ry="18"/>
<text text-anchor="middle" x="56.5" y="-109.3" font-family="sans" font-size="14.00" fill="#000000">fclose</text>
</g>
<!-- jatek_uj -->
<g id="node3" class="node">
<title>jatek_uj</title>
<polygon fill="#8dd3c7" stroke="#000000" points="306.5,-240 234.5,-240 234.5,-198 306.5,-198 306.5,-240"/>
<text text-anchor="middle" x="270.5" y="-215.3" font-family="sans" font-size="14.00" fill="#000000">jatek_uj</text>
</g>
<!-- jatek_kovetkezo_neve -->
<g id="node4" class="node">
<title>jatek_kovetkezo_neve</title>
<polygon fill="#8dd3c7" stroke="#000000" points="498.5,-234 324.5,-234 324.5,-204 498.5,-204 498.5,-234"/>
<text text-anchor="middle" x="411.5" y="-215.3" font-family="sans" font-size="14.00" fill="#000000">jatek_kovetkezo_neve</text>
</g>
<!-- harmas -->
<g id="node5" class="node">
<title>harmas</title>
<polygon fill="#8dd3c7" stroke="#000000" points="485,-39 414,-39 414,0 485,0 485,-39"/>
<text text-anchor="middle" x="449.5" y="-15.8" font-family="sans" font-size="14.00" fill="#000000">harmas</text>
</g>
<!-- nyert_e -->
<g id="node6" class="node">
<title>nyert_e</title>
<polygon fill="#8dd3c7" stroke="#000000" points="485,-151 414,-151 414,-75 485,-75 485,-151"/>
<text text-anchor="middle" x="449.5" y="-109.3" font-family="sans" font-size="14.00" fill="#000000">nyert_e</text>
</g>
<!-- nyert_e&#45;&gt;harmas -->
<g id="edge1" class="edge">
<title>nyert_e&#45;&gt;harmas</title>
<path fill="none" stroke="#000000" d="M449.5,-74.97C449.5,-66.3924 449.5,-57.4088 449.5,-49.23"/>
<polygon fill="#000000" stroke="#000000" points="453.0001,-49.0437 449.5,-39.0437 446.0001,-49.0438 453.0001,-49.0437"/>
</g>
<!-- mivel_jatszik -->
<g id="node7" class="node">
<title>mivel_jatszik</title>
<polygon fill="#8dd3c7" stroke="#000000" points="611.5,-126.5 503.5,-126.5 503.5,-99.5 611.5,-99.5 611.5,-126.5"/>
<text text-anchor="middle" x="557.5" y="-109.3" font-family="sans" font-size="14.00" fill="#000000">mivel_jatszik</text>
</g>
<!-- kovetkezo -->
<g id="node8" class="node">
<title>kovetkezo</title>
<polygon fill="#8dd3c7" stroke="#000000" points="719,-126.5 630,-126.5 630,-99.5 719,-99.5 719,-126.5"/>
<text text-anchor="middle" x="674.5" y="-109.3" font-family="sans" font-size="14.00" fill="#000000">kovetkezo</text>
</g>
<!-- jatek_lep -->
<g id="node9" class="node">
<title>jatek_lep</title>
<polygon fill="#8dd3c7" stroke="#000000" points="598,-241 517,-241 517,-197 598,-197 598,-241"/>
<text text-anchor="middle" x="557.5" y="-215.3" font-family="sans" font-size="14.00" fill="#000000">jatek_lep</text>
</g>
<!-- jatek_lep&#45;&gt;nyert_e -->
<g id="edge3" class="edge">
<title>jatek_lep&#45;&gt;nyert_e</title>
<path fill="none" stroke="#000000" d="M534.8597,-196.7789C522.6397,-184.7853 507.1409,-169.5735 492.7131,-155.4129"/>
<polygon fill="#000000" stroke="#000000" points="494.8775,-152.633 485.289,-148.1262 489.9742,-157.6288 494.8775,-152.633"/>
</g>
<!-- jatek_lep&#45;&gt;mivel_jatszik -->
<g id="edge2" class="edge">
<title>jatek_lep&#45;&gt;mivel_jatszik</title>
<path fill="none" stroke="#000000" d="M557.5,-196.7789C557.5,-179.2836 557.5,-154.9406 557.5,-137.0015"/>
<polygon fill="#000000" stroke="#000000" points="561.0001,-136.7778 557.5,-126.7778 554.0001,-136.7778 561.0001,-136.7778"/>
</g>
<!-- jatek_lep&#45;&gt;kovetkezo -->
<g id="edge4" class="edge">
<title>jatek_lep&#45;&gt;kovetkezo</title>
<path fill="none" stroke="#000000" d="M582.027,-196.7789C602.6132,-178.1282 631.7888,-151.6956 651.8339,-133.5351"/>
<polygon fill="#000000" stroke="#000000" points="654.2315,-136.0858 659.2924,-126.7778 649.5316,-130.8981 654.2315,-136.0858"/>
</g>
<!-- jatek_ment -->
<g id="node10" class="node">
<title>jatek_ment</title>
<polygon fill="#8dd3c7" stroke="#000000" points="216,-250 119,-250 119,-188 216,-188 216,-250"/>
<text text-anchor="middle" x="167.5" y="-215.3" font-family="sans" font-size="14.00" fill="#000000">jatek_ment</text>
</g>
<!-- jatek_ment&#45;&gt;fopen -->
<g id="edge5" class="edge">
<title>jatek_ment&#45;&gt;fopen</title>
<path fill="none" stroke="#000000" d="M164.2591,-187.7698C162.734,-173.0732 160.9284,-155.6734 159.4429,-141.3586"/>
<polygon fill="#000000" stroke="#000000" points="162.8928,-140.6944 158.3792,-131.1091 155.9302,-141.417 162.8928,-140.6944"/>
</g>
<!-- jatek_ment&#45;&gt;fclose -->
<g id="edge6" class="edge">
<title>jatek_ment&#45;&gt;fclose</title>
<path fill="none" stroke="#000000" d="M134.7967,-187.7698C117.5403,-171.2907 96.725,-151.4131 80.8955,-136.2966"/>
<polygon fill="#000000" stroke="#000000" points="83.2119,-133.6691 73.5626,-129.294 78.3775,-138.7316 83.2119,-133.6691"/>
</g>
<!-- jatek_betolt -->
<g id="node11" class="node">
<title>jatek_betolt</title>
<polygon fill="#8dd3c7" stroke="#000000" points="101,-251 0,-251 0,-187 101,-187 101,-251"/>
<text text-anchor="middle" x="50.5" y="-215.3" font-family="sans" font-size="14.00" fill="#000000">jatek_betolt</text>
</g>
<!-- jatek_betolt&#45;&gt;fopen -->
<g id="edge7" class="edge">
<title>jatek_betolt&#45;&gt;fopen</title>
<path fill="none" stroke="#000000" d="M82.5912,-186.9088C98.7807,-170.7193 118.0702,-151.4298 132.8828,-136.6172"/>
<polygon fill="#000000" stroke="#000000" points="135.5844,-138.8653 140.1807,-129.3193 130.6347,-133.9156 135.5844,-138.8653"/>
</g>
<!-- jatek_betolt&#45;&gt;fclose -->
<g id="edge8" class="edge">
<title>jatek_betolt&#45;&gt;fclose</title>
<path fill="none" stroke="#000000" d="M52.3165,-186.9088C53.141,-172.3417 54.1077,-155.2647 54.9039,-141.1976"/>
<polygon fill="#000000" stroke="#000000" points="58.4036,-141.3004 55.4744,-131.1185 51.4148,-140.9047 58.4036,-141.3004"/>
</g>
<!-- main -->
<g id="node12" class="node">
<title>main</title>
<polygon fill="#ffffb3" stroke="#000000" points="438.5,-340 384.5,-340 384.5,-287 438.5,-287 438.5,-340"/>
<text text-anchor="middle" x="411.5" y="-309.8" font-family="sans" font-size="14.00" fill="#000000">main</text>
</g>
<!-- main&#45;&gt;jatek_uj -->
<g id="edge9" class="edge">
<title>main&#45;&gt;jatek_uj</title>
<path fill="none" stroke="#000000" d="M384.4078,-296.2817C365.0699,-283.8898 338.5167,-266.6665 315.5,-251 313.1225,-249.3818 310.6843,-247.7034 308.2322,-246.0011"/>
<polygon fill="#000000" stroke="#000000" points="310.1091,-243.0426 299.9099,-240.1744 306.0944,-248.7769 310.1091,-243.0426"/>
</g>
<!-- main&#45;&gt;jatek_kovetkezo_neve -->
<g id="edge11" class="edge">
<title>main&#45;&gt;jatek_kovetkezo_neve</title>
<path fill="none" stroke="#000000" d="M411.5,-286.925C411.5,-273.6184 411.5,-257.5867 411.5,-244.4404"/>
<polygon fill="#000000" stroke="#000000" points="415.0001,-244.1994 411.5,-234.1995 408.0001,-244.1995 415.0001,-244.1994"/>
</g>
<!-- main&#45;&gt;jatek_lep -->
<g id="edge13" class="edge">
<title>main&#45;&gt;jatek_lep</title>
<path fill="none" stroke="#000000" d="M438.6193,-295.9467C460.0119,-282.1002 490.2448,-262.5316 514.868,-246.594"/>
<polygon fill="#000000" stroke="#000000" points="516.8268,-249.4954 523.3199,-241.1234 513.0231,-243.6189 516.8268,-249.4954"/>
</g>
<!-- main&#45;&gt;jatek_ment -->
<g id="edge14" class="edge">
<title>main&#45;&gt;jatek_ment</title>
<path fill="none" stroke="#000000" d="M384.4405,-306.0729C347.7184,-295.621 280.3869,-275.128 225.5,-251 225.4046,-250.9581 225.3091,-250.916 225.2136,-250.8739"/>
<polygon fill="#000000" stroke="#000000" points="226.7771,-247.7411 216.234,-246.6953 223.8238,-254.0876 226.7771,-247.7411"/>
</g>
<!-- main&#45;&gt;jatek_betolt -->
<g id="edge15" class="edge">
<title>main&#45;&gt;jatek_betolt</title>
<path fill="none" stroke="#000000" d="M384.105,-310.5542C331.8179,-304.3624 214.4465,-287.7173 110.8941,-251.1809"/>
<polygon fill="#000000" stroke="#000000" points="111.8331,-247.7989 101.2387,-247.7006 109.4594,-254.3842 111.8331,-247.7989"/>
</g>
<!-- jatek_kirajzol -->
<g id="node13" class="node">
<title>jatek_kirajzol</title>
<polygon fill="#bebada" stroke="#000000" points="726.5,-239.5 616.5,-239.5 616.5,-198.5 726.5,-198.5 726.5,-239.5"/>
<text text-anchor="middle" x="671.5" y="-215.3" font-family="sans" font-size="14.00" fill="#000000">jatek_kirajzol</text>
</g>
<!-- main&#45;&gt;jatek_kirajzol -->
<g id="edge10" class="edge">
<title>main&#45;&gt;jatek_kirajzol</title>
<path fill="none" stroke="#000000" d="M438.7567,-306.1394C476.8706,-295.5383 547.9891,-274.6297 606.5,-251 611.8795,-248.8275 617.4307,-246.399 622.9169,-243.8773"/>
<polygon fill="#000000" stroke="#000000" points="624.4934,-247.0036 632.0469,-239.5743 621.509,-240.6717 624.4934,-247.0036"/>
</g>
<!-- pozicio_beolvas -->
<g id="node14" class="node">
<title>pozicio_beolvas</title>
<polygon fill="#bebada" stroke="#000000" points="874,-234.5 745,-234.5 745,-203.5 874,-203.5 874,-234.5"/>
<text text-anchor="middle" x="809.5" y="-215.3" font-family="sans" font-size="14.00" fill="#000000">pozicio_beolvas</text>
</g>
<!-- main&#45;&gt;pozicio_beolvas -->
<g id="edge12" class="edge">
<title>main&#45;&gt;pozicio_beolvas</title>
<path fill="none" stroke="#000000" d="M438.8701,-310.2664C495.2854,-303.1579 628.211,-284.1125 735.5,-251 746.3542,-247.6501 757.7635,-243.2081 768.285,-238.7032"/>
<polygon fill="#000000" stroke="#000000" points="769.9143,-241.8101 777.6567,-234.5778 767.0941,-235.4034 769.9143,-241.8101"/>
</g>
</g>
</svg>
