<?xml version="1.0" encoding="UTF-8"?>
<svg id="svg165" width="26.948cm" height="12.7cm" version="1.1" viewBox="78 -2 522 241.3" xmlns="http://www.w3.org/2000/svg" xmlns:cc="http://creativecommons.org/ns#" xmlns:dc="http://purl.org/dc/elements/1.1/" xmlns:rdf="http://www.w3.org/1999/02/22-rdf-syntax-ns#">
 <metadata id="metadata169">
  <rdf:RDF>
   <cc:Work rdf:about="">
    <dc:format>image/svg+xml</dc:format>
    <dc:type rdf:resource="http://purl.org/dc/dcmitype/StillImage"/>
   </cc:Work>
  </rdf:RDF>
 </metadata>
 <g id="Háttér" transform="translate(-1 -3.3518)">
  <path id="rect4" d="m320 80h40v30h-40z" fill="#7babe3" stroke="#000" stroke-width="2"/>
  <g id="text8" aria-label="5">
   <path id="path894" d="m334.3 84.624h10.491v2.249h-8.0433v4.8419q0.58208-0.19844 1.1642-0.29104 0.58209-0.10583 1.1642-0.10583 3.3073 0 5.2387 1.8124 1.9315 1.8124 1.9315 4.908 0 3.1882-1.9844 4.9609-1.9844 1.7595-5.5959 1.7595-1.2435 0-2.54-0.21167-1.2832-0.21167-2.6591-0.635v-2.6855q1.1906 0.64823 2.4606 0.96573t2.6855 0.3175q2.2886 0 3.6248-1.2038 1.3361-1.2039 1.3361-3.2676 0-2.0637-1.3361-3.2676-1.3362-1.2039-3.6248-1.2039-1.0716 0-2.1431 0.23812-1.0583 0.23812-2.1696 0.74083z" style=""/>
  </g>
  <path id="rect10" d="m160 140h40v30h-40z" fill="#7babe3" stroke="#000" stroke-width="2"/>
  <g id="text14" aria-label="3">
   <path id="path898" d="m182.37 153.73q1.9182 0.41011 2.9898 1.7066 1.0848 1.2965 1.0848 3.2015 0 2.9236-2.0108 4.5244-2.0108 1.6007-5.715 1.6007-1.2435 0-2.5664-0.25136-1.3097-0.23812-2.712-0.7276v-2.5797q1.1112 0.64823 2.4342 0.97896 1.3229 0.33073 2.7649 0.33073 2.5135 0 3.8232-0.99219 1.3229-0.99218 1.3229-2.884 0-1.7462-1.2303-2.7252-1.2171-0.99218-3.3999-0.99218h-2.3019v-2.196h2.4077q1.9711 0 3.0162-0.78052 1.0451-0.79375 1.0451-2.2754 0-1.5214-1.0848-2.3283-1.0716-0.8202-3.0824-0.8202-1.098 0-2.3548 0.23812-1.2568 0.23813-2.7649 0.74083v-2.3812q1.5214-0.42334 2.8443-0.635 1.3361-0.21167 2.5135-0.21167 3.0427 0 4.8154 1.3891 1.7727 1.3758 1.7727 3.7306 0 1.6404-0.93927 2.7781-0.93927 1.1245-2.6723 1.561z" style=""/>
  </g>
  <path id="rect16" d="m480 140h40v30h-40z" fill="#7babe3" stroke="#000" stroke-width="2"/>
  <g id="text20" aria-label="7">
   <path id="path902" d="m493.6 144.62h12.7v1.1377l-7.1702 18.613h-2.7914l6.7469-17.502h-9.4853z" style=""/>
  </g>
  <path id="rect22" d="m80 200h40v30h-40z" fill="#7babe3" stroke="#000" stroke-width="2"/>
  <g id="text26" aria-label="1">
   <path id="path906" d="m94.735 222.13h4.3656v-15.068l-4.7493 0.9525v-2.4342l4.7228-0.9525h2.6723v17.502h4.3656v2.249h-11.377z" style=""/>
  </g>
  <path id="rect28" d="m240 200h40v30h-40z" fill="#7babe3" stroke="#000" stroke-width="2"/>
  <g id="text32" aria-label="4">
   <path id="path910" d="m261.61 206.95-6.7469 10.544h6.7469zm-0.70115-2.3283h3.3602v12.872h2.8178v2.2225h-2.8178v4.6567h-2.6591v-4.6567h-8.9164v-2.5797z" style=""/>
  </g>
  <path id="rect34" d="m400 200h40v30h-40z" fill="#7babe3" stroke="#000" stroke-width="2"/>
  <g id="text38" aria-label="6">
   <path id="path914" d="m420.32 213.43q-1.7992 0-2.8575 1.2303-1.0451 1.2303-1.0451 3.3734 0 2.1299 1.0451 3.3734 1.0583 1.2303 2.8575 1.2303t2.8443-1.2303q1.0583-1.2435 1.0583-3.3734 0-2.1431-1.0583-3.3734-1.0451-1.2303-2.8443-1.2303zm5.3049-8.374v2.4342q-1.0054-0.47625-2.0373-0.7276-1.0186-0.25135-2.0241-0.25135-2.6458 0-4.0481 1.7859-1.3891 1.7859-1.5875 5.3975 0.78052-1.1509 1.9579-1.7595 1.1774-0.62177 2.5929-0.62177 2.9766 0 4.6964 1.8124 1.733 1.7992 1.733 4.908 0 3.0427-1.7992 4.8816-1.7992 1.8389-4.789 1.8389-3.4264 0-5.2387-2.6194-1.8124-2.6326-1.8124-7.62 0-4.6831 2.2225-7.4612 2.2225-2.7914 5.9664-2.7914 1.0054 0 2.0241 0.19844 1.0319 0.19844 2.1431 0.59531z" style=""/>
  </g>
  <path id="rect40" d="m560 200h40v30h-40z" fill="#7babe3" stroke="#000" stroke-width="2"/>
  <g id="text44" aria-label="9">
   <path id="path918" d="m574.35 223.96v-2.4342q1.0054 0.47625 2.0373 0.72761 1.0319 0.25135 2.0241 0.25135 2.6458 0 4.0349-1.7727 1.4023-1.7859 1.6007-5.4107-0.76729 1.1377-1.9447 1.7462-1.1774 0.60854-2.6061 0.60854-2.9633 0-4.6964-1.7859-1.7198-1.7992-1.7198-4.908 0-3.0427 1.7992-4.8816 1.7992-1.8388 4.789-1.8388 3.4264 0 5.2255 2.6326 1.8124 2.6194 1.8124 7.62 0 4.6699-2.2225 7.4612-2.2093 2.7781-5.9531 2.7781-1.0054 0-2.0373-0.19844-1.0319-0.19844-2.1431-0.59531zm5.3181-8.3741q1.7992 0 2.8443-1.2303 1.0583-1.2303 1.0583-3.3734 0-2.1299-1.0583-3.3602-1.0451-1.2435-2.8443-1.2435-1.7992 0-2.8575 1.2435-1.0451 1.2303-1.0451 3.3602 0 2.1431 1.0451 3.3734 1.0583 1.2303 2.8575 1.2303z" style=""/>
  </g>
  <g id="g50" stroke="#000" stroke-width="2">
   <path id="line46" d="m320 124-109.5 24.246" fill="none"/>
   <path id="polygon48" d="m210.5 148.25 3.522 4.342-10.845-2.72 8.683-7.044z" fill-rule="evenodd"/>
  </g>
  <g id="g56" stroke="#000" stroke-width="2">
   <path id="line52" d="m160 184-30.359 15.685" fill="none"/>
   <path id="polygon54" d="m129.64 199.68 4.516 3.295-11.179 0.148 6.589-9.032z" fill-rule="evenodd"/>
  </g>
  <g id="g62" stroke="#000" stroke-width="2">
   <path id="line58" d="m200 184 30.359 15.685" fill="none"/>
   <path id="polygon60" d="m230.36 199.68 0.074-5.589 6.589 9.032-11.179-0.148z" fill-rule="evenodd"/>
  </g>
  <g id="g68" stroke="#000" stroke-width="2">
   <path id="line64" d="m480 184-30.359 15.685" fill="none"/>
   <path id="polygon66" d="m449.64 199.68 4.516 3.295-11.179 0.148 6.589-9.032z" fill-rule="evenodd"/>
  </g>
  <g id="g74" stroke="#000" stroke-width="2">
   <path id="line70" d="m520 184 30.359 15.685" fill="none"/>
   <path id="polygon72" d="m550.36 199.68 0.074-5.589 6.589 9.032-11.179-0.148z" fill-rule="evenodd"/>
  </g>
  <g id="g80" stroke="#000" stroke-width="2">
   <path id="line76" d="m360 124 109.5 24.246" fill="none"/>
   <path id="polygon78" d="m469.5 148.25-1.36-5.422 8.683 7.044-10.845 2.72z" fill-rule="evenodd"/>
  </g>
  <g id="g86" stroke="#000" stroke-width="2">
   <path id="line82" d="m340 60v10.264" fill="none"/>
   <path id="polygon84" d="m340 70.264 5-2.5-5 10-5-10z" fill-rule="evenodd"/>
  </g>
  <path id="rect88" d="m330 40h20v20h-20z" fill="#fdfd04" stroke="#000" stroke-width="2"/>
  <path id="rect90" d="m80 230h20v14h-20z" fill="#bfbfbf" stroke="#000" stroke-width="2"/>
  <path id="rect92" d="m100 230h20v14h-20z" fill="#bfbfbf" stroke="#000" stroke-width="2"/>
  <path id="rect94" d="m160 170h20v14h-20z" fill="#fdfd04" stroke="#000" stroke-width="2"/>
  <path id="rect96" d="m180 170h20v14h-20z" fill="#fdfd04" stroke="#000" stroke-width="2"/>
  <path id="rect98" d="m240 230h20v14h-20z" fill="#bfbfbf" stroke="#000" stroke-width="2"/>
  <path id="rect100" d="m260 230h20v14h-20z" fill="#bfbfbf" stroke="#000" stroke-width="2"/>
  <path id="rect102" d="m400 230h20v14h-20z" fill="#bfbfbf" stroke="#000" stroke-width="2"/>
  <path id="rect104" d="m420 230h20v14h-20z" fill="#bfbfbf" stroke="#000" stroke-width="2"/>
  <path id="rect106" d="m480 170h20v14h-20z" fill="#fdfd04" stroke="#000" stroke-width="2"/>
  <path id="rect108" d="m500 170h20v14h-20z" fill="#fdfd04" stroke="#000" stroke-width="2"/>
  <path id="rect110" d="m320 110h20v14h-20z" fill="#fdfd04" stroke="#000" stroke-width="2"/>
  <path id="rect112" d="m340 110h20v14h-20z" fill="#fdfd04" stroke="#000" stroke-width="2"/>
  <path id="rect114" d="m560 230h20v14h-20z" fill="#bfbfbf" stroke="#000" stroke-width="2"/>
  <path id="rect116" d="m580 230h20v14h-20z" fill="#bfbfbf" stroke="#000" stroke-width="2"/>
  <path id="rect118" d="m330 0h20v20h-20z" fill="#fdfd04" stroke="#000" stroke-width="2"/>
  <g id="g124" stroke="#000" stroke-width="2">
   <path id="line120" d="m340 20v10.264" fill="none"/>
   <path id="polygon122" d="m340 30.264 5-2.5-5 10-5-10z" fill-rule="evenodd"/>
  </g>
  <g id="text128" aria-label="pgyoker (BinFa **)">
   <path id="path953" d="m198.39 13.589v3.9291h-1.2237v-10.226h1.2237v1.1245q0.38365-0.66146 0.96573-0.97896 0.5887-0.32412 1.4023-0.32412 1.3494 0 2.1894 1.0716 0.84667 1.0716 0.84667 2.8178 0 1.7463-0.84667 2.8178-0.84005 1.0716-2.1894 1.0716-0.8136 0-1.4023-0.3175-0.58208-0.32412-0.96573-0.98558zm4.1407-2.5863q0-1.3428-0.55563-2.1034-0.54901-0.76729-1.5147-0.76729t-1.5214 0.76729q-0.54901 0.76068-0.54901 2.1034 0 1.3428 0.54901 2.1101 0.55563 0.76068 1.5214 0.76068t1.5147-0.76068q0.55563-0.76729 0.55563-2.1101z" style=""/>
   <path id="path955" d="m210.69 10.91q0-1.3229-0.54901-2.0505-0.5424-0.72761-1.528-0.72761-0.97896 0-1.528 0.72761-0.54239 0.72761-0.54239 2.0505 0 1.3163 0.54239 2.0439 0.54902 0.72761 1.528 0.72761 0.98557 0 1.528-0.72761 0.54901-0.72761 0.54901-2.0439zm1.2171 2.8707q0 1.8918-0.84006 2.8112-0.84005 0.92604-2.5731 0.92604-0.64161 0-1.2105-0.09922-0.56885-0.0926-1.1046-0.29104v-1.184q0.53579 0.29104 1.0583 0.42995 0.52255 0.13891 1.065 0.13891 1.1972 0 1.7926-0.62839 0.59531-0.62177 0.59531-1.8852v-0.60193q-0.37703 0.65484-0.96573 0.97896-0.5887 0.32412-1.4089 0.32412-1.3626 0-2.196-1.0385t-0.83344-2.7517q0-1.7198 0.83344-2.7583t2.196-1.0385q0.82021 0 1.4089 0.32412t0.96573 0.97896v-1.1245h1.2171z" style=""/>
   <path id="path957" d="m217.49 15.388q-0.51594 1.3229-1.0054 1.7264-0.48948 0.40349-1.3097 0.40349h-0.97234v-1.0186h0.71437q0.50271 0 0.78053-0.23813 0.27781-0.23812 0.61515-1.1245l0.21829-0.55563-2.9964-7.2893h1.2898l2.3151 5.7944 2.3151-5.7944h1.2898z" style=""/>
   <path id="path959" d="m225.3 8.1449q-0.97896 0-1.5478 0.76729-0.56885 0.76068-0.56885 2.0902 0 1.3295 0.56224 2.0968 0.56885 0.76068 1.5544 0.76068 0.97235 0 1.5412-0.76729 0.56886-0.76729 0.56886-2.0902 0-1.3163-0.56886-2.0836-0.56885-0.77391-1.5412-0.77391zm0-1.0319q1.5875 0 2.4937 1.0319t0.9062 2.8575q0 1.819-0.9062 2.8575-0.9062 1.0319-2.4937 1.0319-1.5941 0-2.5003-1.0319-0.89958-1.0385-0.89958-2.8575 0-1.8256 0.89958-2.8575 0.9062-1.0319 2.5003-1.0319z" style=""/>
   <path id="path961" d="m230.66 4.4077h1.2237v6.0788l3.6314-3.1949h1.5544l-3.9291 3.4661 4.0944 3.9423h-1.5875l-3.7637-3.6182v3.6182h-1.2237z" style=""/>
   <path id="path963" d="m244.43 10.692v0.59531h-5.596q0.0794 1.2568 0.75406 1.9182 0.68131 0.65485 1.8918 0.65485 0.70115 0 1.356-0.17198 0.66146-0.17198 1.3097-0.51594v1.1509q-0.65484 0.27781-1.3428 0.42333t-1.3957 0.14552q-1.7727 0-2.8112-1.0319-1.0319-1.0319-1.0319-2.7914 0-1.819 0.97896-2.884 0.98557-1.0716 2.6524-1.0716 1.4949 0 2.3614 0.96573 0.87313 0.95912 0.87313 2.6128zm-1.2171-0.35719q-0.0132-0.9988-0.56225-1.5941-0.54239-0.59531-1.442-0.59531-1.0186 0-1.6338 0.57547-0.60855 0.57547-0.70115 1.6206z" style=""/>
   <path id="path965" d="m250.72 8.4294q-0.20506-0.11906-0.4498-0.17198-0.23812-0.059531-0.52916-0.059531-1.0319 0-1.5875 0.67469-0.54901 0.66807-0.54901 1.9248v3.9026h-1.2237v-7.4084h1.2237v1.1509q0.38365-0.67469 0.9988-0.9988 0.61516-0.33073 1.4949-0.33073 0.12568 0 0.27782 0.019844 0.15213 0.013229 0.33734 0.046302z" style=""/>
   <path id="path967" d="m259.24 4.4209q-0.88635 1.5214-1.3163 3.0096t-0.42995 3.0163q0 1.528 0.42995 3.0295 0.43656 1.4949 1.3163 3.0096h-1.0583q-0.99219-1.5544-1.4883-3.0559-0.48948-1.5015-0.48948-2.9832 0-1.4751 0.48948-2.97 0.48948-1.4949 1.4883-3.0559z" style=""/>
   <path id="path969" d="m263 9.9838v3.6182h2.1431q1.0782 0 1.5941-0.44318 0.52255-0.44979 0.52255-1.3692 0-0.92604-0.52255-1.3626-0.51594-0.44318-1.5941-0.44318zm0-4.0614v2.9766h1.9778q0.97897 0 1.4552-0.3638 0.48286-0.37042 0.48286-1.1245 0-0.74745-0.48286-1.1179-0.47625-0.37042-1.4552-0.37042zm-1.3362-1.098h3.4131q1.528 0 2.3548 0.635 0.82683 0.635 0.82683 1.8058 0 0.9062-0.42334 1.442-0.42333 0.53578-1.2435 0.66807 0.98557 0.21167 1.528 0.88636 0.54901 0.66807 0.54901 1.6735 0 1.3229-0.89958 2.0439-0.89959 0.72099-2.5598 0.72099h-3.5454z" style=""/>
   <path id="path971" d="m270.9 7.2916h1.2171v7.4084h-1.2171zm0-2.884h1.2171v1.5412h-1.2171z" style=""/>
   <path id="path973" d="m280.82 10.229v4.4715h-1.2171v-4.4318q0-1.0517-0.4101-1.5743-0.41011-0.52255-1.2303-0.52255-0.98557 0-1.5544 0.62839-0.56885 0.62839-0.56885 1.7132v4.187h-1.2237v-7.4084h1.2237v1.1509q0.43656-0.66807 1.0253-0.9988 0.59531-0.33073 1.3692-0.33073 1.2766 0 1.9315 0.79375 0.65485 0.78714 0.65485 2.3217z" style=""/>
   <path id="path975" d="m283.31 4.8244h5.6753v1.1245h-4.3392v2.9104h3.9158v1.1245h-3.9158v4.7162h-1.3362z" style=""/>
   <path id="path977" d="m293.18 10.976q-1.4751 0-2.0439 0.33734-0.56885 0.33734-0.56885 1.1509 0 0.64823 0.42333 1.0319 0.42995 0.37703 1.1642 0.37703 1.012 0 1.6206-0.71438 0.61516-0.72099 0.61516-1.9116v-0.2712zm2.4276-0.50271v4.2267h-1.2171v-1.1245q-0.41672 0.67469-1.0385 0.9988-0.62178 0.3175-1.5214 0.3175-1.1377 0-1.8124-0.635-0.66808-0.64162-0.66808-1.7132 0-1.2502 0.83344-1.8852 0.84006-0.635 2.5003-0.635h1.7066v-0.11906q0-0.84005-0.55563-1.2965-0.54901-0.46302-1.5478-0.46302-0.635 0-1.2369 0.15214-0.60192 0.15214-1.1576 0.45641v-1.1245q0.66807-0.25797 1.2965-0.38365 0.62839-0.13229 1.2237-0.13229 1.6074 0 2.4011 0.83344 0.79375 0.83344 0.79375 2.5268z" style=""/>
   <path id="path979" d="m307.53 6.4516-2.3746 1.2832 2.3746 1.2898-0.38365 0.64823-2.2225-1.3428v2.4937h-0.75407v-2.4937l-2.2225 1.3428-0.38365-0.64823 2.3746-1.2898-2.3746-1.2832 0.38365-0.65485 2.2225 1.3428v-2.4937h0.75407v2.4937l2.2225-1.3428z" style=""/>
   <path id="path981" d="m314.3 6.4516-2.3746 1.2832 2.3746 1.2898-0.38365 0.64823-2.2225-1.3428v2.4937h-0.75407v-2.4937l-2.2225 1.3428-0.38365-0.64823 2.3746-1.2898-2.3746-1.2832 0.38365-0.65485 2.2225 1.3428v-2.4937h0.75407v2.4937l2.2225-1.3428z" style=""/>
   <path id="path983" d="m315.79 4.4209h1.0583q0.99219 1.561 1.4817 3.0559 0.49609 1.4949 0.49609 2.97 0 1.4817-0.49609 2.9832-0.48948 1.5015-1.4817 3.0559h-1.0583q0.87974-1.5147 1.3097-3.0096 0.43657-1.5015 0.43657-3.0295 0-1.528-0.43657-3.0163-0.42995-1.4883-1.3097-3.0096z" style=""/>
  </g>
  <g id="text132" fill="#7f7f7f" aria-label="gyoker (BinFa *)">
   <path id="path986" d="m217.46 50.91q0-1.3229-0.54901-2.0505-0.5424-0.72761-1.528-0.72761-0.97896 0-1.528 0.72761-0.54239 0.7276-0.54239 2.0505 0 1.3163 0.54239 2.0439 0.54902 0.7276 1.528 0.7276 0.98557 0 1.528-0.7276 0.54901-0.72761 0.54901-2.0439zm1.2171 2.8707q0 1.8918-0.84006 2.8112-0.84005 0.92604-2.5731 0.92604-0.64161 0-1.2105-0.09922-0.56885-0.0926-1.1046-0.29104v-1.184q0.53579 0.29104 1.0583 0.42995 0.52255 0.13891 1.065 0.13891 1.1972 0 1.7926-0.62839 0.59531-0.62177 0.59531-1.8852v-0.60193q-0.37703 0.65484-0.96573 0.97896-0.5887 0.32412-1.4089 0.32412-1.3626 0-2.196-1.0385t-0.83344-2.7517q0-1.7198 0.83344-2.7583t2.196-1.0385q0.82021 0 1.4089 0.32412 0.5887 0.32412 0.96573 0.97896v-1.1245h1.2171z" style=""/>
   <path id="path988" d="m224.27 55.388q-0.51594 1.3229-1.0054 1.7264-0.48948 0.40349-1.3097 0.40349h-0.97234v-1.0186h0.71437q0.50271 0 0.78053-0.23813 0.27781-0.23812 0.61515-1.1245l0.21829-0.55563-2.9964-7.2893h1.2898l2.3151 5.7944 2.3151-5.7944h1.2898z" style=""/>
   <path id="path990" d="m232.07 48.145q-0.97896 0-1.5478 0.76729-0.56885 0.76068-0.56885 2.0902 0 1.3295 0.56224 2.0968 0.56885 0.76068 1.5544 0.76068 0.97235 0 1.5412-0.76729 0.56886-0.76729 0.56886-2.0902 0-1.3163-0.56886-2.0836-0.56885-0.77391-1.5412-0.77391zm0-1.0319q1.5875 0 2.4937 1.0319 0.9062 1.0319 0.9062 2.8575 0 1.819-0.9062 2.8575-0.9062 1.0319-2.4937 1.0319-1.5941 0-2.5003-1.0319-0.89958-1.0385-0.89958-2.8575 0-1.8256 0.89958-2.8575 0.9062-1.0319 2.5003-1.0319z" style=""/>
   <path id="path992" d="m237.44 44.408h1.2237v6.0788l3.6314-3.1949h1.5544l-3.9291 3.4661 4.0944 3.9423h-1.5875l-3.7637-3.6182v3.6182h-1.2237z" style=""/>
   <path id="path994" d="m251.2 50.692v0.59531h-5.596q0.0794 1.2568 0.75406 1.9182 0.68131 0.65485 1.8918 0.65485 0.70115 0 1.356-0.17198 0.66146-0.17198 1.3097-0.51594v1.1509q-0.65484 0.27781-1.3428 0.42333t-1.3957 0.14552q-1.7727 0-2.8112-1.0319-1.0319-1.0319-1.0319-2.7914 0-1.819 0.97896-2.884 0.98557-1.0716 2.6524-1.0716 1.4949 0 2.3614 0.96573 0.87313 0.95912 0.87313 2.6128zm-1.2171-0.35719q-0.0132-0.9988-0.56224-1.5941-0.54239-0.59531-1.442-0.59531-1.0186 0-1.6338 0.57547-0.60854 0.57547-0.70114 1.6206z" style=""/>
   <path id="path996" d="m257.49 48.429q-0.20506-0.11906-0.4498-0.17198-0.23812-0.05953-0.52917-0.05953-1.0319 0-1.5875 0.67469-0.54901 0.66807-0.54901 1.9248v3.9026h-1.2237v-7.4084h1.2237v1.1509q0.38365-0.67469 0.9988-0.9988 0.61516-0.33073 1.4949-0.33073 0.12568 0 0.27782 0.01984 0.15213 0.01323 0.33734 0.0463z" style=""/>
   <path id="path998" d="m266.02 44.421q-0.88635 1.5214-1.3163 3.0096t-0.42995 3.0163q0 1.528 0.42995 3.0295 0.43656 1.4949 1.3163 3.0096h-1.0583q-0.99219-1.5544-1.4883-3.0559-0.48948-1.5015-0.48948-2.9832 0-1.4751 0.48948-2.97 0.48948-1.4949 1.4883-3.0559z" style=""/>
   <path id="path1000" d="m269.78 49.984v3.6182h2.1431q1.0782 0 1.5941-0.44318 0.52256-0.44979 0.52256-1.3692 0-0.92604-0.52256-1.3626-0.51594-0.44318-1.5941-0.44318zm0-4.0614v2.9766h1.9778q0.97896 0 1.4552-0.3638 0.48287-0.37042 0.48287-1.1245 0-0.74745-0.48287-1.1179-0.47625-0.37042-1.4552-0.37042zm-1.3361-1.098h3.4131q1.528 0 2.3548 0.635 0.82682 0.635 0.82682 1.8058 0 0.9062-0.42333 1.442-0.42334 0.53578-1.2436 0.66807 0.98558 0.21167 1.528 0.88636 0.54902 0.66807 0.54902 1.6735 0 1.3229-0.89959 2.0439-0.89958 0.72099-2.5598 0.72099h-3.5454z" style=""/>
   <path id="path1002" d="m277.67 47.292h1.2171v7.4084h-1.2171zm0-2.884h1.2171v1.5412h-1.2171z" style=""/>
   <path id="path1004" d="m287.59 50.229v4.4715h-1.2171v-4.4318q0-1.0517-0.41011-1.5743-0.4101-0.52255-1.2303-0.52255-0.98558 0-1.5544 0.62839-0.56885 0.62839-0.56885 1.7132v4.187h-1.2237v-7.4084h1.2237v1.1509q0.43656-0.66808 1.0253-0.9988 0.59532-0.33073 1.3692-0.33073 1.2766 0 1.9315 0.79375 0.65484 0.78714 0.65484 2.3217z" style=""/>
   <path id="path1006" d="m290.08 44.824h5.6753v1.1245h-4.3392v2.9104h3.9158v1.1245h-3.9158v4.7162h-1.3362z" style=""/>
   <path id="path1008" d="m299.96 50.976q-1.475 0-2.0439 0.33734-0.56886 0.33734-0.56886 1.1509 0 0.64823 0.42334 1.0319 0.42995 0.37703 1.1642 0.37703 1.012 0 1.6206-0.71438 0.61516-0.72099 0.61516-1.9116v-0.2712zm2.4276-0.50271v4.2267h-1.2171v-1.1245q-0.41672 0.67469-1.0385 0.9988-0.62177 0.3175-1.5214 0.3175-1.1377 0-1.8124-0.635-0.66807-0.64162-0.66807-1.7132 0-1.2502 0.83344-1.8852 0.84005-0.635 2.5003-0.635h1.7066v-0.11906q0-0.84005-0.55562-1.2965-0.54902-0.46302-1.5478-0.46302-0.635 0-1.2369 0.15214-0.60193 0.15214-1.1576 0.45641v-1.1245q0.66807-0.25797 1.2965-0.38365 0.62838-0.13229 1.2237-0.13229 1.6074 0 2.4011 0.83344 0.79375 0.83344 0.79375 2.5268z" style=""/>
   <path id="path1010" d="m314.3 46.452-2.3746 1.2832 2.3746 1.2898-0.38365 0.64823-2.2225-1.3428v2.4937h-0.75407v-2.4937l-2.2225 1.3428-0.38365-0.64823 2.3746-1.2898-2.3746-1.2832 0.38365-0.65484 2.2225 1.3428v-2.4937h0.75407v2.4937l2.2225-1.3428z" style=""/>
   <path id="path1012" d="m315.79 44.421h1.0583q0.99219 1.561 1.4817 3.0559 0.49609 1.4949 0.49609 2.97 0 1.4817-0.49609 2.9832-0.48948 1.5015-1.4817 3.0559h-1.0583q0.87974-1.5147 1.3097-3.0096 0.43657-1.5015 0.43657-3.0295 0-1.528-0.43657-3.0163-0.42995-1.4883-1.3097-3.0096z" style=""/>
  </g>
  <path id="rect134" d="m520 0h20v20h-20z" fill="#fdfd04" stroke="#000" stroke-width="2"/>
  <g id="text138" aria-label="mozgo (BinFa **)">
   <path id="path1016" d="m402.29 8.7138q0.45641-0.82021 1.0914-1.2105t1.4949-0.39026q1.1576 0 1.7859 0.8136 0.62839 0.80698 0.62839 2.3019v4.4715h-1.2237v-4.4318q0-1.065-0.37703-1.5809-0.37703-0.51594-1.1509-0.51594-0.94589 0-1.4949 0.62839-0.54901 0.62839-0.54901 1.7132v4.187h-1.2237v-4.4318q0-1.0716-0.37703-1.5809-0.37703-0.51594-1.1642-0.51594-0.93266 0-1.4817 0.635-0.54901 0.62839-0.54901 1.7066v4.187h-1.2237v-7.4084h1.2237v1.1509q0.41672-0.6813 0.9988-1.0054 0.58209-0.32412 1.3824-0.32412 0.80698 0 1.3692 0.41011 0.56886 0.41011 0.84006 1.1906z" style=""/>
   <path id="path1018" d="m412.6 8.1449q-0.97896 0-1.5478 0.76729-0.56886 0.76068-0.56886 2.0902 0 1.3295 0.56224 2.0968 0.56886 0.76068 1.5544 0.76068 0.97235 0 1.5412-0.76729 0.56885-0.76729 0.56885-2.0902 0-1.3163-0.56885-2.0836-0.56886-0.77391-1.5412-0.77391zm0-1.0319q1.5875 0 2.4937 1.0319t0.9062 2.8575q0 1.819-0.9062 2.8575-0.9062 1.0319-2.4937 1.0319-1.5941 0-2.5003-1.0319-0.89959-1.0385-0.89959-2.8575 0-1.8256 0.89959-2.8575 0.9062-1.0319 2.5003-1.0319z" style=""/>
   <path id="path1020" d="m417.48 7.2916h5.7812v1.1113l-4.5773 5.3248h4.5773v0.97235h-5.9465v-1.1113l4.5773-5.3248h-4.4119z" style=""/>
   <path id="path1022" d="m430 10.91q0-1.3229-0.54902-2.0505-0.54239-0.72761-1.528-0.72761-0.97896 0-1.528 0.72761-0.5424 0.72761-0.5424 2.0505 0 1.3163 0.5424 2.0439 0.54901 0.72761 1.528 0.72761 0.98558 0 1.528-0.72761 0.54902-0.72761 0.54902-2.0439zm1.2171 2.8707q0 1.8918-0.84005 2.8112-0.84006 0.92604-2.5731 0.92604-0.64162 0-1.2105-0.09922-0.56886-0.0926-1.1046-0.29104v-1.184q0.53578 0.29104 1.0583 0.42995 0.52256 0.13891 1.065 0.13891 1.1972 0 1.7926-0.62839 0.59532-0.62177 0.59532-1.8852v-0.60193q-0.37704 0.65484-0.96574 0.97896-0.5887 0.32412-1.4089 0.32412-1.3626 0-2.196-1.0385t-0.83344-2.7517q0-1.7198 0.83344-2.7583t2.196-1.0385q0.82021 0 1.4089 0.32412t0.96574 0.97896v-1.1245h1.2171z" style=""/>
   <path id="path1024" d="m436.6 8.1449q-0.97896 0-1.5478 0.76729-0.56886 0.76068-0.56886 2.0902 0 1.3295 0.56224 2.0968 0.56886 0.76068 1.5544 0.76068 0.97235 0 1.5412-0.76729 0.56886-0.76729 0.56886-2.0902 0-1.3163-0.56886-2.0836-0.56885-0.77391-1.5412-0.77391zm0-1.0319q1.5875 0 2.4937 1.0319t0.9062 2.8575q0 1.819-0.9062 2.8575-0.9062 1.0319-2.4937 1.0319-1.5941 0-2.5003-1.0319-0.89958-1.0385-0.89958-2.8575 0-1.8256 0.89958-2.8575 0.9062-1.0319 2.5003-1.0319z" style=""/>
   <path id="path1026" d="m449.24 4.4209q-0.88636 1.5214-1.3163 3.0096t-0.42995 3.0163q0 1.528 0.42995 3.0295 0.43656 1.4949 1.3163 3.0096h-1.0583q-0.99219-1.5544-1.4883-3.0559-0.48948-1.5015-0.48948-2.9832 0-1.4751 0.48948-2.97 0.48948-1.4949 1.4883-3.0559z" style=""/>
   <path id="path1028" d="m453 9.9838v3.6182h2.1431q1.0782 0 1.5941-0.44318 0.52255-0.44979 0.52255-1.3692 0-0.92604-0.52255-1.3626-0.51594-0.44318-1.5941-0.44318zm0-4.0614v2.9766h1.9778q0.97896 0 1.4552-0.3638 0.48287-0.37042 0.48287-1.1245 0-0.74745-0.48287-1.1179-0.47625-0.37042-1.4552-0.37042zm-1.3362-1.098h3.4131q1.528 0 2.3548 0.635 0.82682 0.635 0.82682 1.8058 0 0.9062-0.42333 1.442-0.42333 0.53578-1.2436 0.66807 0.98558 0.21167 1.528 0.88636 0.54901 0.66807 0.54901 1.6735 0 1.3229-0.89959 2.0439-0.89958 0.72099-2.5598 0.72099h-3.5454z" style=""/>
   <path id="path1030" d="m460.9 7.2916h1.2171v7.4084h-1.2171zm0-2.884h1.2171v1.5412h-1.2171z" style=""/>
   <path id="path1032" d="m470.82 10.229v4.4715h-1.2171v-4.4318q0-1.0517-0.4101-1.5743-0.41011-0.52255-1.2303-0.52255-0.98557 0-1.5544 0.62839-0.56885 0.62839-0.56885 1.7132v4.187h-1.2237v-7.4084h1.2237v1.1509q0.43656-0.66807 1.0253-0.9988 0.59531-0.33073 1.3692-0.33073 1.2766 0 1.9315 0.79375 0.65484 0.78714 0.65484 2.3217z" style=""/>
   <path id="path1034" d="m473.31 4.8244h5.6753v1.1245h-4.3392v2.9104h3.9158v1.1245h-3.9158v4.7162h-1.3362z" style=""/>
   <path id="path1036" d="m483.18 10.976q-1.4751 0-2.0439 0.33734-0.56886 0.33734-0.56886 1.1509 0 0.64823 0.42333 1.0319 0.42995 0.37703 1.1642 0.37703 1.012 0 1.6206-0.71438 0.61516-0.72099 0.61516-1.9116v-0.2712zm2.4276-0.50271v4.2267h-1.2171v-1.1245q-0.41672 0.67469-1.0385 0.9988-0.62178 0.3175-1.5214 0.3175-1.1377 0-1.8124-0.635-0.66808-0.64162-0.66808-1.7132 0-1.2502 0.83344-1.8852 0.84006-0.635 2.5003-0.635h1.7066v-0.11906q0-0.84005-0.55563-1.2965-0.54901-0.46302-1.5478-0.46302-0.63501 0-1.2369 0.15214-0.60193 0.15214-1.1576 0.45641v-1.1245q0.66808-0.25797 1.2965-0.38365 0.62839-0.13229 1.2237-0.13229 1.6074 0 2.4011 0.83344 0.79376 0.83344 0.79376 2.5268z" style=""/>
   <path id="path1038" d="m497.53 6.4516-2.3746 1.2832 2.3746 1.2898-0.38365 0.64823-2.2225-1.3428v2.4937h-0.75407v-2.4937l-2.2225 1.3428-0.38365-0.64823 2.3746-1.2898-2.3746-1.2832 0.38365-0.65485 2.2225 1.3428v-2.4937h0.75407v2.4937l2.2225-1.3428z" style=""/>
   <path id="path1040" d="m504.3 6.4516-2.3746 1.2832 2.3746 1.2898-0.38364 0.64823-2.2225-1.3428v2.4937h-0.75406v-2.4937l-2.2225 1.3428-0.38365-0.64823 2.3746-1.2898-2.3746-1.2832 0.38365-0.65485 2.2225 1.3428v-2.4937h0.75406v2.4937l2.2225-1.3428z" style=""/>
   <path id="path1042" d="m505.79 4.4209h1.0583q0.99219 1.561 1.4817 3.0559 0.49609 1.4949 0.49609 2.97 0 1.4817-0.49609 2.9832-0.48948 1.5015-1.4817 3.0559h-1.0583q0.87975-1.5147 1.3097-3.0096 0.43657-1.5015 0.43657-3.0295 0-1.528-0.43657-3.0163-0.42994-1.4883-1.3097-3.0096z" style=""/>
  </g>
  <g id="g144" stroke="#f62e2e" stroke-width="2">
   <path id="path140" d="m519 21.002c-30 30-129 48.998-160.29 33.352" fill="none"/>
   <path id="polygon142" d="m358.71 54.354v5.5902l-6.708-8.9443h11.18z" fill="#f62e2e" fill-rule="evenodd"/>
  </g>
  <g id="g150" stroke="#f62e2e" stroke-width="2">
   <path id="path146" d="m519 20.999c-40 40-108 87.461-148.36 93.111" fill="none"/>
   <path id="polygon148" d="m370.64 114.11 3.169 4.605-10.596-3.565 9.21-6.338z" fill="#f62e2e" fill-rule="evenodd"/>
  </g>
  <g id="g156" stroke="#f62e2e" stroke-width="2">
   <path id="path152" d="m519.01 20.99c-60 60 61.983 135.89 11.35 150.24" fill="none"/>
   <path id="polygon154" d="m530.36 171.23 3.769 4.129-10.985-2.084 8.259-7.537z" fill="#f62e2e" fill-rule="evenodd"/>
  </g>
  <g id="g162" stroke="#f62e2e" stroke-width="2">
   <path id="path158" d="m521.23 20.962c-40 50 32.104 81.205 38.77 119.04s-60.951 65.072-9.83 88.077" fill="none"/>
   <path id="polygon160" d="m550.17 228.08-0.228-5.586 7.068 8.663-11.171 0.456z" fill="#f62e2e" fill-rule="evenodd"/>
  </g>
 </g>
</svg>
