<?xml version="1.0" encoding="UTF-8"?>
<svg id="svg127" width="14.947cm" height="11.82cm" version="1.1" viewBox="178 78 282 220.64" xmlns="http://www.w3.org/2000/svg" xmlns:cc="http://creativecommons.org/ns#" xmlns:dc="http://purl.org/dc/elements/1.1/" xmlns:rdf="http://www.w3.org/1999/02/22-rdf-syntax-ns#">
 <metadata id="metadata131">
  <rdf:RDF>
   <cc:Work rdf:about="">
    <dc:format>image/svg+xml</dc:format>
    <dc:type rdf:resource="http://purl.org/dc/dcmitype/StillImage"/>
   </cc:Work>
  </rdf:RDF>
 </metadata>
 <g id="Háttér" transform="translate(-1 -2.182)">
  <path id="rect4" d="m300 80h40v40h-40z" fill="#7babe3" stroke="#000" stroke-width="2"/>
  <path id="rect6" d="m220 140h40v40h-40z" fill="#7babe3" stroke="#000" stroke-width="2"/>
  <path id="rect8" d="m180 200h40v40h-40z" fill="#7babe3" stroke="#000" stroke-width="2"/>
  <path id="rect10" d="m260 200h40v40h-40z" fill="#7babe3" stroke="#000" stroke-width="2"/>
  <path id="rect12" d="m380 140h40v40h-40z" fill="#7babe3" stroke="#000" stroke-width="2"/>
  <g id="g18" fill="none" stroke="#000" stroke-width="2">
   <path id="line14" d="m299.02 115.73-34.469 25.852"/>
   <path id="polyline16" d="m267.76 132.93-5 10 11-2"/>
  </g>
  <g id="g24" fill="none" stroke="#000" stroke-width="2">
   <path id="line20" d="m226.01 180.99-9.531 14.297"/>
   <path id="polyline22" d="m216.62 186.05-1.387 11.094 9.708-5.547"/>
  </g>
  <g id="g30" fill="none" stroke="#000" stroke-width="2">
   <path id="line26" d="m253.99 180.99 9.531 14.297"/>
   <path id="polyline28" d="m255.06 191.6 9.708 5.547-1.387-11.094"/>
  </g>
  <g id="g36" fill="none" stroke="#000" stroke-width="2">
   <path id="line32" d="m340.98 115.73 34.469 25.852"/>
   <path id="polyline34" d="m366.24 140.93 11 2-5-10"/>
  </g>
  <g id="text40" aria-label="5">
   <path id="path82" d="m314.3 89.624h10.491v2.249h-8.0433v4.8419q0.58208-0.19844 1.1642-0.29104 0.58209-0.10583 1.1642-0.10583 3.3073 0 5.2387 1.8124 1.9315 1.8124 1.9315 4.908 0 3.1882-1.9844 4.9609-1.9844 1.7595-5.5959 1.7595-1.2435 0-2.54-0.21167-1.2832-0.21167-2.6591-0.635v-2.6855q1.1906 0.64823 2.4606 0.96573t2.6855 0.3175q2.2886 0 3.6248-1.2038 1.3361-1.2039 1.3361-3.2676 0-2.0638-1.3361-3.2676-1.3362-1.2039-3.6248-1.2039-1.0716 0-2.1431 0.23812-1.0583 0.23812-2.1696 0.74083z" style=""/>
  </g>
  <g id="text44" aria-label="3">
   <path id="path85" d="m242.37 158.73q1.9182 0.41011 2.9898 1.7066 1.0848 1.2965 1.0848 3.2015 0 2.9236-2.0108 4.5244-2.0108 1.6007-5.715 1.6007-1.2435 0-2.5664-0.25136-1.3097-0.23812-2.712-0.7276v-2.5797q1.1112 0.64823 2.4342 0.97896 1.3229 0.33073 2.7649 0.33073 2.5135 0 3.8232-0.99219 1.3229-0.99218 1.3229-2.884 0-1.7462-1.2303-2.7252-1.2171-0.99218-3.3999-0.99218h-2.3019v-2.196h2.4077q1.9711 0 3.0162-0.78052 1.0451-0.79375 1.0451-2.2754 0-1.5214-1.0848-2.3283-1.0716-0.8202-3.0824-0.8202-1.098 0-2.3548 0.23812-1.2568 0.23813-2.7649 0.74083v-2.3812q1.5214-0.42334 2.8443-0.635 1.3361-0.21167 2.5135-0.21167 3.0427 0 4.8154 1.3891 1.7727 1.3758 1.7727 3.7306 0 1.6404-0.93927 2.7781-0.93927 1.1245-2.6723 1.561z" style=""/>
  </g>
  <g id="text48" aria-label="1">
   <path id="path88" d="m194.73 227.13h4.3656v-15.068l-4.7493 0.9525v-2.4342l4.7228-0.9525h2.6723v17.502h4.3656v2.249h-11.377z" style=""/>
  </g>
  <g id="text52" aria-label="4">
   <path id="path91" d="m281.61 211.95-6.7469 10.544h6.7469zm-0.70115-2.3283h3.3602v12.872h2.8178v2.2225h-2.8178v4.6567h-2.6591v-4.6567h-8.9164v-2.5797z" style=""/>
  </g>
  <g id="text56" aria-label="8">
   <path id="path94" d="m399.99 160q-1.905 0-3.003 1.0186-1.0848 1.0186-1.0848 2.8046 0 1.7859 1.0848 2.8046 1.098 1.0186 3.003 1.0186t3.003-1.0186q1.098-1.0319 1.098-2.8046 0-1.7859-1.098-2.8046-1.0848-1.0186-3.003-1.0186zm-2.6723-1.1377q-1.7198-0.42334-2.6855-1.6007-0.95249-1.1774-0.95249-2.8707 0-2.368 1.6801-3.7438 1.6933-1.3758 4.6302-1.3758 2.9501 0 4.6302 1.3758 1.6801 1.3758 1.6801 3.7438 0 1.6933-0.96573 2.8707-0.9525 1.1774-2.6591 1.6007 1.9314 0.44979 3.003 1.7595 1.0848 1.3097 1.0848 3.2015 0 2.8707-1.7595 4.4053-1.7462 1.5346-5.0138 1.5346t-5.0271-1.5346q-1.7462-1.5346-1.7462-4.4053 0-1.8918 1.0848-3.2015 1.0848-1.3097 3.0162-1.7595zm-0.97895-4.2201q0 1.5346 0.95249 2.3945 0.96573 0.8599 2.6988 0.8599 1.7198 0 2.6855-0.8599 0.97896-0.85989 0.97896-2.3945t-0.97896-2.3945q-0.96573-0.85989-2.6855-0.85989-1.733 0-2.6988 0.85989-0.95249 0.8599-0.95249 2.3945z" style=""/>
  </g>
  <path id="rect58" d="m200 260h40v40h-40z" fill="#ff7f2a" stroke="#000" stroke-width="2"/>
  <g id="text62" aria-label="2">
   <path id="path98" d="m216.57 287.13h9.3266v2.249h-12.541v-2.249q1.5214-1.5743 4.1407-4.2201 2.6326-2.6591 3.3073-3.4264 1.2832-1.442 1.7859-2.4342 0.51594-1.0054 0.51594-1.9711 0-1.5743-1.1112-2.5665-1.098-0.99218-2.8707-0.99218-1.2568 0-2.6591 0.43656-1.3891 0.43656-2.9766 1.3229v-2.6987q1.614-0.64823 3.0162-0.97896t2.5665-0.33073q3.0692 0 4.8948 1.5346 1.8256 1.5346 1.8256 4.101 0 1.2171-0.46302 2.3151-0.44979 1.0848-1.6536 2.5665-0.33072 0.38364-2.1034 2.2225-1.7727 1.8256-5.0006 5.1197z" style=""/>
  </g>
  <path id="rect64" d="m340 200h40v40h-40z" fill="#7babe3" stroke="#000" stroke-width="2"/>
  <g id="text68" aria-label="6">
   <path id="path102" d="m360.32 218.43q-1.7992 0-2.8575 1.2303-1.0451 1.2303-1.0451 3.3734 0 2.1299 1.0451 3.3734 1.0583 1.2303 2.8575 1.2303t2.8443-1.2303q1.0583-1.2435 1.0583-3.3734 0-2.1431-1.0583-3.3734-1.0451-1.2303-2.8443-1.2303zm5.3049-8.374v2.4342q-1.0054-0.47625-2.0373-0.7276-1.0186-0.25135-2.0241-0.25135-2.6458 0-4.0481 1.7859-1.3891 1.7859-1.5875 5.3975 0.78052-1.1509 1.9579-1.7595 1.1774-0.62177 2.5929-0.62177 2.9766 0 4.6964 1.8124 1.733 1.7992 1.733 4.908 0 3.0427-1.7992 4.8816-1.7992 1.8389-4.789 1.8389-3.4264 0-5.2387-2.6194-1.8124-2.6326-1.8124-7.62 0-4.6831 2.2225-7.4612 2.2225-2.7914 5.9664-2.7914 1.0054 0 2.0241 0.19844 1.0319 0.19844 2.1431 0.59531z" style=""/>
  </g>
  <path id="rect70" d="m360 260h40v40h-40z" fill="#7babe3" stroke="#000" stroke-width="2"/>
  <g id="text74" aria-label="7">
   <path id="path106" d="m373.6 269.62h12.7v1.1377l-7.1702 18.613h-2.7914l6.7469-17.502h-9.4853z" style=""/>
  </g>
  <path id="rect76" d="m420 200h40v40h-40z" fill="#7babe3" stroke="#000" stroke-width="2"/>
  <g id="text80" aria-label="9">
   <path id="path110" d="m434.35 228.96v-2.4342q1.0054 0.47625 2.0373 0.72761 1.0319 0.25135 2.0241 0.25135 2.6458 0 4.0349-1.7727 1.4023-1.7859 1.6007-5.4107-0.76729 1.1377-1.9447 1.7462-1.1774 0.60854-2.6061 0.60854-2.9633 0-4.6964-1.7859-1.7198-1.7992-1.7198-4.908 0-3.0427 1.7992-4.8816 1.7992-1.8388 4.789-1.8388 3.4264 0 5.2255 2.6326 1.8124 2.6194 1.8124 7.62 0 4.6699-2.2225 7.4612-2.2093 2.7781-5.9531 2.7781-1.0054 0-2.0373-0.19844-1.0319-0.19844-2.1431-0.59531zm5.3181-8.3741q1.7992 0 2.8443-1.2303 1.0583-1.2303 1.0583-3.3734 0-2.1299-1.0583-3.3602-1.0451-1.2435-2.8443-1.2435-1.7992 0-2.8575 1.2435-1.0451 1.2303-1.0451 3.3602 0 2.1431 1.0451 3.3734 1.0583 1.2303 2.8575 1.2303z" style=""/>
  </g>
  <g id="g86" fill="none" stroke="#000" stroke-width="2">
   <path id="line82" d="m207 240.99 4.592 13.775"/>
   <path id="polyline84" d="m204.39 248.98 7.906 7.905 1.581-11.068"/>
  </g>
  <g id="g92" fill="none" stroke="#000" stroke-width="2">
   <path id="line88" d="m367 240.99 4.592 13.775"/>
   <path id="polyline90" d="m364.39 248.98 7.906 7.905 1.581-11.068"/>
  </g>
  <g id="g98" fill="none" stroke="#000" stroke-width="2">
   <path id="line94" d="m386.01 180.99-9.531 14.297"/>
   <path id="polyline96" d="m376.62 186.05-1.387 11.094 9.708-5.547"/>
  </g>
  <g id="g104" fill="none" stroke="#000" stroke-width="2">
   <path id="line100" d="m413.99 180.99 9.531 14.297"/>
   <path id="polyline102" d="m415.06 191.6 9.708 5.547-1.387-11.094"/>
  </g>
  <g id="text108" aria-label="gyoker">
   <path id="path121" d="m205.4 97.196q0-1.7639-0.73201-2.734-0.7232-0.97014-2.0373-0.97014-1.3053 0-2.0373 0.97014-0.72319 0.97014-0.72319 2.734 0 1.7551 0.72319 2.7252 0.73201 0.97014 2.0373 0.97014 1.3141 0 2.0373-0.97014 0.73201-0.97014 0.73201-2.7252zm1.6228 3.8276q0 2.5224-1.1201 3.7483-1.1201 1.2347-3.4308 1.2347-0.85549 0-1.614-0.13229-0.75847-0.12347-1.4728-0.38806v-1.5787q0.71437 0.38806 1.4111 0.57327 0.69673 0.1852 1.4199 0.1852 1.5963 0 2.3901-0.83784 0.79375-0.82903 0.79375-2.5135v-0.80257q-0.50271 0.87313-1.2876 1.3053t-1.8785 0.43215q-1.8168 0-2.928-1.3846-1.1112-1.3847-1.1112-3.6689 0-2.2931 1.1112-3.6777 1.1112-1.3847 2.928-1.3847 1.0936 0 1.8785 0.43215 0.78493 0.43215 1.2876 1.3053v-1.4993h1.6228z" style=""/>
   <path id="path123" d="m214.48 103.17q-0.68792 1.7639-1.3406 2.3019-0.65263 0.53799-1.7462 0.53799h-1.2965v-1.3582h0.9525q0.67028 0 1.0407-0.3175 0.37042-0.3175 0.82021-1.4993l0.29104-0.74083-3.9952-9.719h1.7198l3.0868 7.7258 3.0868-7.7258h1.7198z" style=""/>
   <path id="path125" d="m224.89 93.51q-1.3053 0-2.0638 1.0231-0.75847 1.0142-0.75847 2.7869 0 1.7727 0.74965 2.7958 0.75848 1.0142 2.0726 1.0142 1.2965 0 2.0549-1.023 0.75847-1.0231 0.75847-2.7869 0-1.7551-0.75847-2.7781-0.75847-1.0319-2.0549-1.0319zm0-1.3758q2.1167 0 3.3249 1.3758t1.2083 3.81q0 2.4253-1.2083 3.81-1.2083 1.3758-3.3249 1.3758-2.1255 0-3.3338-1.3758-1.1994-1.3846-1.1994-3.81 0-2.4342 1.1994-3.81 1.2083-1.3758 3.3338-1.3758z" style=""/>
   <path id="path127" d="m232.04 88.527h1.6316v8.1051l4.8419-4.2598h2.0726l-5.2387 4.6214 5.4592 5.2564h-2.1167l-5.0182-4.8242v4.8242h-1.6316z" style=""/>
   <path id="path129" d="m250.39 96.905v0.79375h-7.4612q0.10583 1.6757 1.0054 2.5576 0.9084 0.87312 2.5224 0.87312 0.93486 0 1.808-0.2293 0.88194-0.22931 1.7462-0.68792v1.5346q-0.87313 0.37042-1.7904 0.56445-0.91722 0.19402-1.8609 0.19402-2.3636 0-3.7483-1.3758-1.3758-1.3758-1.3758-3.7218 0-2.4253 1.3053-3.8453 1.3141-1.4287 3.5366-1.4287 1.9932 0 3.1485 1.2876 1.1642 1.2788 1.1642 3.4837zm-1.6228-0.47625q-0.0176-1.3317-0.74965-2.1255-0.7232-0.79375-1.9226-0.79375-1.3582 0-2.1784 0.76729-0.81139 0.76729-0.93486 2.1608z" style=""/>
   <path id="path131" d="m258.78 93.889q-0.27341-0.15875-0.59973-0.22931-0.3175-0.07937-0.70555-0.07937-1.3758 0-2.1167 0.89958-0.73202 0.89076-0.73202 2.5665v5.2035h-1.6316v-9.8778h1.6316v1.5346q0.51153-0.89958 1.3317-1.3317 0.8202-0.44097 1.9932-0.44097 0.16757 0 0.37041 0.02646 0.20285 0.01764 0.4498 0.06174z" style=""/>
  </g>
  <g id="g114" fill="none" stroke="#000" stroke-width="2">
   <path id="line110" d="m260 96 34.547 2.3031"/>
   <path id="polyline112" d="m286.47 102.78 10.311-4.3242-9.646-5.6541"/>
  </g>
  <g id="text118" aria-label="mozgo">
   <path id="path136" d="m283.07 290.27q0.60854-1.0936 1.4552-1.614 0.84667-0.52035 1.9932-0.52035 1.5434 0 2.3812 1.0848 0.83785 1.076 0.83785 3.0692v5.9619h-1.6316v-5.909q0-1.4199-0.50271-2.1078-0.50271-0.68791-1.5346-0.68791-1.2612 0-1.9932 0.83784-0.73201 0.83785-0.73201 2.2842v5.5827h-1.6316v-5.909q0-1.4288-0.50271-2.1078-0.5027-0.68791-1.5522-0.68791-1.2435 0-1.9756 0.84666-0.73201 0.83785-0.73201 2.2754v5.5827h-1.6316v-9.8778h1.6316v1.5346q0.55562-0.90841 1.3317-1.3406t1.8433-0.43215q1.076 0 1.8256 0.5468 0.75847 0.54681 1.1201 1.5875z" style=""/>
   <path id="path138" d="m296.81 289.51q-1.3053 0-2.0638 1.0231-0.75847 1.0142-0.75847 2.7869 0 1.7727 0.74965 2.7958 0.75848 1.0142 2.0726 1.0142 1.2965 0 2.0549-1.023 0.75847-1.0231 0.75847-2.7869 0-1.7551-0.75847-2.7781-0.75847-1.0319-2.0549-1.0319zm0-1.3758q2.1167 0 3.3249 1.3758t1.2083 3.81q0 2.4253-1.2083 3.81-1.2083 1.3758-3.3249 1.3758-2.1255 0-3.3337-1.3758-1.1994-1.3846-1.1994-3.81 0-2.4342 1.1994-3.81 1.2083-1.3758 3.3337-1.3758z" style=""/>
   <path id="path140" d="m303.32 288.37h7.7082v1.4817l-6.103 7.0996h6.103v1.2965h-7.9287v-1.4817l6.103-7.0996h-5.8826z" style=""/>
   <path id="path142" d="m320.02 293.2q0-1.7639-0.73201-2.734-0.7232-0.97014-2.0373-0.97014-1.3053 0-2.0373 0.97014-0.72319 0.97014-0.72319 2.734 0 1.7551 0.72319 2.7252 0.73201 0.97014 2.0373 0.97014 1.3141 0 2.0373-0.97014 0.73201-0.97014 0.73201-2.7252zm1.6228 3.8276q0 2.5224-1.1201 3.7483-1.1201 1.2347-3.4308 1.2347-0.85549 0-1.614-0.13229-0.75847-0.12347-1.4728-0.38806v-1.5787q0.71437 0.38806 1.4111 0.57327 0.69673 0.1852 1.4199 0.1852 1.5963 0 2.3901-0.83784 0.79375-0.82903 0.79375-2.5135v-0.80257q-0.50271 0.87313-1.2876 1.3053t-1.8785 0.43215q-1.8168 0-2.928-1.3846t-1.1112-3.6689q0-2.293 1.1112-3.6777t2.928-1.3846q1.0936 0 1.8785 0.43215t1.2876 1.3053v-1.4993h1.6228z" style=""/>
   <path id="path144" d="m328.81 289.51q-1.3053 0-2.0638 1.0231-0.75847 1.0142-0.75847 2.7869 0 1.7727 0.74965 2.7958 0.75847 1.0142 2.0726 1.0142 1.2964 0 2.0549-1.023 0.75848-1.0231 0.75848-2.7869 0-1.7551-0.75848-2.7781-0.75847-1.0319-2.0549-1.0319zm0-1.3758q2.1167 0 3.3249 1.3758t1.2083 3.81q0 2.4253-1.2083 3.81-1.2083 1.3758-3.3249 1.3758-2.1255 0-3.3338-1.3758-1.1994-1.3846-1.1994-3.81 0-2.4342 1.1994-3.81 1.2083-1.3758 3.3338-1.3758z" style=""/>
  </g>
  <g id="g124" fill="none" stroke="#000" stroke-width="2">
   <path id="line120" d="m272 288-26.575-4.089"/>
   <path id="polyline122" d="m253.86 280.15-10.644 3.421 9.124 6.463"/>
  </g>
 </g>
</svg>
