<?xml version="1.0" encoding="UTF-8" standalone="no"?>
<svg id="svg2" xmlns:rdf="http://www.w3.org/1999/02/22-rdf-syntax-ns#" xmlns="http://www.w3.org/2000/svg" viewBox="98 78 781.99998 292.16472" height="15.428cm" width="39.949cm" version="1.1" xmlns:cc="http://creativecommons.org/ns#" xmlns:dc="http://purl.org/dc/elements/1.1/">
 <metadata id="metadata348">
  <rdf:RDF>
   <cc:Work rdf:about="">
    <dc:format>image/svg+xml</dc:format>
    <dc:type rdf:resource="http://purl.org/dc/dcmitype/StillImage"/>
   </cc:Work>
  </rdf:RDF>
 </metadata>
 <g id="g4" transform="translate(-1 -5.9176)">
  <path id="rect6" fill="#7babe3" d="m260 80h40v40h-40z"/>
  <path id="rect8" d="m260 80h40v40h-40z" stroke="#000" stroke-width="2" fill="none"/>
 </g>
 <g id="g10" transform="translate(-1 -5.9176)">
  <path id="rect12" fill="#7babe3" d="m160 160h40v40h-40z"/>
  <path id="rect14" d="m160 160h40v40h-40z" stroke="#000" stroke-width="2" fill="none"/>
 </g>
 <g id="g16" stroke="#000" stroke-width="2" fill="none" transform="translate(-1 -5.9176)">
  <path id="line18" d="m259 116.8-54.51 43.6"/>
  <path id="polyline20" d="m207.43 151.65-4.685 10.151 10.932-2.342"/>
 </g>
 <g id="g22" stroke="#000" stroke-width="2" fill="none" transform="translate(-1 -5.9176)">
  <path id="line24" d="m159.01 200.99-14.856 14.856"/>
  <path id="polyline26" d="m146.11 206.82-3.536 10.607 10.607-3.536"/>
 </g>
 <g id="g28" stroke="#000" stroke-width="2" fill="none" transform="translate(-1 -5.9176)">
  <path id="line30" d="m200.99 200.99 14.856 14.856"/>
  <path id="polyline32" d="m206.82 213.89 10.607 3.536-3.536-10.607"/>
 </g>
 <g id="g34" stroke="#000" stroke-width="2" fill="none" transform="translate(-1 -5.9176)">
  <path id="line36" d="m301 116.8 54.504 43.603"/>
  <path id="polyline38" d="m346.32 159.46 10.932 2.342-4.685-10.151"/>
 </g>
 <g id="text40">
  <path id="path190" style="" d="m264.67 83.706h10.491v2.249h-8.0433v4.8419q0.58209-0.19844 1.1642-0.29104 0.58208-0.10583 1.1642-0.10583 3.3073 0 5.2388 1.8124 1.9314 1.8124 1.9314 4.908 0 3.1882-1.9844 4.9609-1.9844 1.7595-5.5959 1.7595-1.2435 0-2.54-0.21166-1.2832-0.21167-2.6591-0.635v-2.6855q1.1906 0.64823 2.4606 0.96573t2.6855 0.3175q2.2886 0 3.6248-1.2039 1.3361-1.2038 1.3361-3.2676 0-2.0637-1.3361-3.2676t-3.6248-1.2039q-1.0716 0-2.1431 0.23812-1.0583 0.23812-2.1696 0.74083v-9.9219z"/>
  <path id="path192" style="" d="m287.61 85.466q-2.0638 0-3.1088 2.0373-1.0319 2.0241-1.0319 6.0986 0 4.0613 1.0319 6.0986 1.0451 2.0241 3.1088 2.0241 2.077 0 3.1088-2.0241 1.0451-2.0373 1.0451-6.0986 0-4.0746-1.0451-6.0986-1.0319-2.0373-3.1088-2.0373zm0-2.1167q3.3205 0 5.0668 2.6326 1.7595 2.6194 1.7595 7.62 0 4.9874-1.7595 7.62-1.7462 2.6194-5.0668 2.6194-3.3205 0-5.08-2.6194-1.7462-2.6326-1.7462-7.62 0-5.0006 1.7462-7.62 1.7595-2.6326 5.08-2.6326z"/>
 </g>
 <g id="text44">
  <path id="path195" style="" d="m165.11 181.21h4.3656v-15.068l-4.7493 0.9525v-2.4342l4.7228-0.9525h2.6723v17.502h4.3656v2.249h-11.377v-2.249z"/>
  <path id="path197" style="" d="m181.22 163.71h12.7v1.1377l-7.1702 18.613h-2.7914l6.7469-17.502h-9.4853v-2.249z"/>
 </g>
 <g id="g48" transform="translate(-1 -5.9176)">
  <path id="rect50" fill="#7babe3" d="m360 160h40v40h-40z"/>
  <path id="rect52" d="m360 160h40v40h-40z" stroke="#000" stroke-width="2" fill="none"/>
 </g>
 <g id="text54">
  <path id="path202" style="" d="m363.97 163.71h12.7v1.1377l-7.1702 18.613h-2.7914l6.7469-17.502h-9.4853v-2.249z"/>
  <path id="path204" style="" d="m387.94 172.52q-1.7992 0-2.8575 1.2303-1.0451 1.2303-1.0451 3.3734 0 2.1299 1.0451 3.3734 1.0583 1.2303 2.8575 1.2303t2.8443-1.2303q1.0583-1.2435 1.0583-3.3734 0-2.1431-1.0583-3.3734-1.0451-1.2303-2.8443-1.2303zm5.3049-8.374v2.4342q-1.0054-0.47625-2.0373-0.72761-1.0186-0.25135-2.0241-0.25135-2.6458 0-4.0481 1.7859-1.3891 1.7859-1.5875 5.3975 0.78052-1.1509 1.9579-1.7595 1.1774-0.62177 2.5929-0.62177 2.9766 0 4.6963 1.8124 1.733 1.7992 1.733 4.908 0 3.0427-1.7992 4.8816-1.7992 1.8388-4.789 1.8388-3.4264 0-5.2388-2.6194-1.8124-2.6326-1.8124-7.62 0-4.6831 2.2225-7.4612 2.2225-2.7914 5.9663-2.7914 1.0054 0 2.0241 0.19844 1.0319 0.19844 2.1431 0.59531z"/>
 </g>
 <g id="g58" transform="translate(-1 -5.9176)">
  <path id="rect60" fill="#7babe3" d="m320 220h40v40h-40z"/>
  <path id="rect62" d="m320 220h40v40h-40z" stroke="#000" stroke-width="2" fill="none"/>
 </g>
 <g id="text64">
  <path id="path209" style="" d="m324.67 223.71h10.491v2.249h-8.0433v4.8419q0.58209-0.19844 1.1642-0.29105 0.58208-0.10583 1.1642-0.10583 3.3073 0 5.2388 1.8124 1.9314 1.8124 1.9314 4.908 0 3.1882-1.9844 4.9609-1.9844 1.7595-5.5959 1.7595-1.2435 0-2.54-0.21167-1.2832-0.21167-2.6591-0.635v-2.6855q1.1906 0.64823 2.4606 0.96573t2.6855 0.3175q2.2886 0 3.6248-1.2038 1.3361-1.2038 1.3361-3.2676t-1.3361-3.2676-3.6248-1.2038q-1.0716 0-2.1431 0.23812-1.0583 0.23813-2.1696 0.74083v-9.9219z"/>
  <path id="path211" style="" d="m349.24 226.03-6.7469 10.544h6.7469v-10.544zm-0.70114-2.3283h3.3602v12.872h2.8178v2.2225h-2.8178v4.6567h-2.6591v-4.6567h-8.9164v-2.5797l8.2153-12.515z"/>
 </g>
 <g id="g68" transform="translate(-1 -5.9176)">
  <path id="rect70" fill="#7babe3" d="m360 280h40v40h-40z"/>
  <path id="rect72" d="m360 280h40v40h-40z" stroke="#000" stroke-width="2" fill="none"/>
 </g>
 <g id="text74">
  <path id="path216" style="" d="m363.97 283.71h12.7v1.1377l-7.1702 18.613h-2.7914l6.7469-17.502h-9.4853v-2.249z"/>
  <path id="path218" style="" d="m384.2 301.21h9.3266v2.249h-12.541v-2.249q1.5214-1.5743 4.1407-4.2201 2.6326-2.6591 3.3073-3.4264 1.2832-1.442 1.7859-2.4342 0.51594-1.0054 0.51594-1.9711 0-1.5743-1.1112-2.5665-1.098-0.99219-2.8707-0.99219-1.2568 0-2.6591 0.43657-1.3891 0.43656-2.9766 1.3229v-2.6988q1.614-0.64822 3.0162-0.97895 1.4023-0.33073 2.5665-0.33073 3.0692 0 4.8948 1.5346t1.8256 4.101q0 1.2171-0.46302 2.3151-0.44979 1.0848-1.6536 2.5664-0.33073 0.38365-2.1034 2.2225-1.7727 1.8256-5.0006 5.1197z"/>
 </g>
 <g id="g78" transform="translate(-1 -5.9176)">
  <path id="rect80" fill="#7babe3" d="m340 340h40v40h-40z"/>
  <path id="rect82" d="m340 340h40v40h-40z" stroke="#000" stroke-width="2" fill="none"/>
 </g>
 <g id="text84">
  <path id="path223" style="" d="m350.69 352.52q-1.7992 0-2.8575 1.2303-1.0451 1.2303-1.0451 3.3734 0 2.1299 1.0451 3.3734 1.0583 1.2303 2.8575 1.2303t2.8443-1.2303q1.0583-1.2435 1.0583-3.3734 0-2.1431-1.0583-3.3734-1.0451-1.2303-2.8443-1.2303zm5.3049-8.374v2.4342q-1.0054-0.47625-2.0373-0.7276-1.0186-0.25136-2.0241-0.25136-2.6458 0-4.0481 1.7859-1.3891 1.7859-1.5875 5.3975 0.78052-1.1509 1.9579-1.7595 1.1774-0.62177 2.5929-0.62177 2.9766 0 4.6964 1.8124 1.733 1.7992 1.733 4.908 0 3.0427-1.7992 4.8816-1.7992 1.8388-4.789 1.8388-3.4264 0-5.2387-2.6194-1.8124-2.6326-1.8124-7.62 0-4.6831 2.2225-7.4612 2.2225-2.7914 5.9664-2.7914 1.0054 0 2.0241 0.19844 1.0319 0.19843 2.1431 0.59531z"/>
  <path id="path225" style="" d="m361.22 343.71h12.7v1.1377l-7.1702 18.613h-2.7914l6.7469-17.502h-9.4853v-2.249z"/>
 </g>
 <g id="g88" transform="translate(-1 -5.9176)">
  <path id="rect90" fill="#7babe3" d="m100 220h40v40h-40z"/>
  <path id="rect92" d="m100 220h40v40h-40z" stroke="#000" stroke-width="2" fill="none"/>
 </g>
 <g id="text94">
  <path id="path230" style="" d="m113.35 243.05v-2.4342q1.0054 0.47625 2.0373 0.72761 1.0319 0.25135 2.0241 0.25135 2.6458 0 4.0349-1.7727 1.4023-1.7859 1.6007-5.4107-0.76729 1.1377-1.9447 1.7462-1.1774 0.60854-2.6061 0.60854-2.9633 0-4.6964-1.7859-1.7198-1.7992-1.7198-4.908 0-3.0427 1.7992-4.8816t4.789-1.8389q3.4264 0 5.2255 2.6326 1.8124 2.6194 1.8124 7.62 0 4.6699-2.2225 7.4612-2.2093 2.7781-5.9531 2.7781-1.0054 0-2.0373-0.19844t-2.1431-0.59531zm5.3181-8.374q1.7992 0 2.8443-1.2303 1.0583-1.2303 1.0583-3.3734 0-2.1299-1.0583-3.3602-1.0451-1.2435-2.8443-1.2435t-2.8575 1.2435q-1.0451 1.2303-1.0451 3.3602 0 2.1431 1.0451 3.3734 1.0583 1.2303 2.8575 1.2303z"/>
 </g>
 <g id="g98" transform="translate(-1 -5.9176)">
  <path id="rect100" fill="#7babe3" d="m220 220h40v40h-40z"/>
  <path id="rect102" d="m220 220h40v40h-40z" stroke="#000" stroke-width="2" fill="none"/>
 </g>
 <g id="text104">
  <path id="path235" style="" d="m226.95 241.21h9.3266v2.249h-12.541v-2.249q1.5214-1.5743 4.1407-4.2201 2.6326-2.6591 3.3073-3.4264 1.2832-1.442 1.7859-2.4342 0.51593-1.0054 0.51593-1.9711 0-1.5743-1.1112-2.5664-1.098-0.99219-2.8707-0.99219-1.2568 0-2.6591 0.43656-1.3891 0.43656-2.9766 1.3229v-2.6988q1.614-0.64823 3.0162-0.97896 1.4023-0.33073 2.5664-0.33073 3.0692 0 4.8948 1.5346t1.8256 4.101q0 1.2171-0.46302 2.3151-0.44979 1.0848-1.6536 2.5665-0.33073 0.38364-2.1034 2.2225-1.7727 1.8256-5.0006 5.1197z"/>
  <path id="path237" style="" d="m249.99 232.81q1.9182 0.4101 2.9898 1.7066 1.0848 1.2964 1.0848 3.2014 0 2.9236-2.0108 4.5244-2.0108 1.6007-5.715 1.6007-1.2435 0-2.5665-0.25136-1.3097-0.23812-2.712-0.7276v-2.5797q1.1112 0.64822 2.4342 0.97895 1.3229 0.33073 2.7649 0.33073 2.5135 0 3.8232-0.99218 1.3229-0.99219 1.3229-2.884 0-1.7462-1.2303-2.7252-1.2171-0.99219-3.3999-0.99219h-2.3019v-2.196h2.4077q1.9712 0 3.0162-0.78052 1.0451-0.79375 1.0451-2.2754 0-1.5214-1.0848-2.3283-1.0716-0.82021-3.0824-0.82021-1.098 0-2.3548 0.23812-1.2568 0.23813-2.7649 0.74084v-2.3812q1.5214-0.42333 2.8443-0.635 1.3361-0.21167 2.5135-0.21167 3.0427 0 4.8154 1.3891 1.7727 1.3758 1.7727 3.7306 0 1.6404-0.93927 2.7781-0.93927 1.1245-2.6723 1.561z"/>
 </g>
 <g id="g108" transform="translate(-1 -5.9176)">
  <path id="rect110" fill="#7babe3" d="m200 280h40v40h-40z"/>
  <path id="rect112" d="m200 280h40v40h-40z" stroke="#000" stroke-width="2" fill="none"/>
 </g>
 <g id="text114">
  <path id="path242" style="" d="m205.11 301.21h4.3656v-15.068l-4.7493 0.9525v-2.4342l4.7228-0.95249h2.6723v17.502h4.3656v2.249h-11.377v-2.249z"/>
  <path id="path244" style="" d="m221.98 303.05v-2.4342q1.0054 0.47625 2.0373 0.7276 1.0319 0.25136 2.0241 0.25136 2.6458 0 4.0349-1.7727 1.4023-1.7859 1.6007-5.4107-0.76729 1.1377-1.9447 1.7462-1.1774 0.60854-2.6061 0.60854-2.9633 0-4.6964-1.7859-1.7198-1.7992-1.7198-4.908 0-3.0427 1.7992-4.8816 1.7992-1.8388 4.789-1.8388 3.4264 0 5.2255 2.6326 1.8124 2.6194 1.8124 7.62 0 4.6699-2.2225 7.4612-2.2093 2.7781-5.9531 2.7781-1.0054 0-2.0373-0.19843-1.0319-0.19844-2.1431-0.59532zm5.3181-8.374q1.7992 0 2.8443-1.2303 1.0583-1.2303 1.0583-3.3734 0-2.1299-1.0583-3.3602-1.0451-1.2435-2.8443-1.2435t-2.8575 1.2435q-1.0451 1.2303-1.0451 3.3602 0 2.1431 1.0451 3.3734 1.0583 1.2303 2.8575 1.2303z"/>
 </g>
 <g id="g118" transform="translate(-1 -5.9176)">
  <path id="rect120" fill="#7babe3" d="m140 280h40v40h-40z"/>
  <path id="rect122" d="m140 280h40v40h-40z" stroke="#000" stroke-width="2" fill="none"/>
 </g>
 <g id="text124">
  <path id="path249" style="" d="m145.11 301.21h4.3656v-15.068l-4.7493 0.9525v-2.4342l4.7228-0.95249h2.6723v17.502h4.3656v2.249h-11.377v-2.249z"/>
  <path id="path251" style="" d="m169.24 286.03-6.7469 10.544h6.7469v-10.544zm-0.70114-2.3283h3.3602v12.872h2.8178v2.2225h-2.8178v4.6567h-2.6591v-4.6567h-8.9164v-2.5797l8.2153-12.515z"/>
 </g>
 <g id="g128" stroke="#000" stroke-width="2" fill="none" transform="translate(-1 -5.9176)">
  <path id="line130" d="m133.99 260.99 9.531 14.297"/>
  <path id="polyline132" d="m135.06 271.6 9.708 5.547-1.387-11.094"/>
 </g>
 <g id="g134" stroke="#000" stroke-width="2" fill="none" transform="translate(-1 -5.9176)">
  <path id="line136" d="m233 260.99-4.59 13.78"/>
  <path id="polyline138" d="m226.12 265.82 1.581 11.068 7.906-7.905"/>
 </g>
 <g id="g140" stroke="#000" stroke-width="2" fill="none" transform="translate(-1 -5.9176)">
  <path id="line142" d="m366.01 200.99-9.531 14.297"/>
  <path id="polyline144" d="m356.62 206.05-1.387 11.094 9.708-5.547"/>
 </g>
 <g id="g146" stroke="#000" stroke-width="2" fill="none" transform="translate(-1 -5.9176)">
  <path id="line148" d="m353.99 260.99 9.531 14.297"/>
  <path id="polyline150" d="m355.06 271.6 9.708 5.547-1.387-11.094"/>
 </g>
 <g id="g152" stroke="#000" stroke-width="2" fill="none" transform="translate(-1 -5.9176)">
  <path id="line154" d="m373 320.99-4.592 13.775"/>
  <path id="polyline156" d="m366.12 325.82 1.581 11.068 7.906-7.905"/>
 </g>
 <g id="g158" transform="translate(-1 -5.9176)">
  <path id="rect160" fill="#7babe3" d="m120 340h40v40h-40z"/>
  <path id="rect162" d="m120 340h40v40h-40z" stroke="#000" stroke-width="2" fill="none"/>
 </g>
 <g id="text164">
  <path id="path266" style="" d="m125.11 361.21h4.3656v-15.068l-4.7493 0.9525v-2.4342l4.7228-0.95249h2.6723v17.502h4.3656v2.249h-11.377v-2.249z"/>
  <path id="path268" style="" d="m144.2 361.21h9.3266v2.249h-12.541v-2.249q1.5214-1.5743 4.1407-4.2201 2.6326-2.6591 3.3073-3.4264 1.2832-1.442 1.7859-2.4342 0.51594-1.0054 0.51594-1.9711 0-1.5743-1.1112-2.5665-1.098-0.99219-2.8707-0.99219-1.2568 0-2.6591 0.43657-1.3891 0.43656-2.9766 1.3229v-2.6988q1.614-0.64822 3.0162-0.97895 1.4023-0.33073 2.5665-0.33073 3.0692 0 4.8948 1.5346t1.8256 4.101q0 1.2171-0.46302 2.3151-0.44979 1.0848-1.6536 2.5664-0.33073 0.38365-2.1034 2.2225-1.7727 1.8256-5.0006 5.1197z"/>
 </g>
 <g id="g168" stroke="#000" stroke-width="2" fill="none" transform="translate(-1 -5.9176)">
  <path id="line170" d="m153 320.99-4.59 13.78"/>
  <path id="polyline172" d="m146.12 325.82 1.581 11.068 7.906-7.905"/>
 </g>
 <g id="g174" transform="translate(-1 -5.9176)">
  <path id="rect176" fill="#7babe3" d="m580 160h40v40h-40z"/>
  <path id="rect178" d="m580 160h40v40h-40z" stroke="#000" stroke-width="2" fill="none"/>
 </g>
 <g id="text180">
  <path id="path275" style="" d="m585.11 181.21h4.3656v-15.068l-4.7493 0.9525v-2.4342l4.7228-0.9525h2.6723v17.502h4.3656v2.249h-11.377v-2.249z"/>
  <path id="path277" style="" d="m601.22 163.71h12.7v1.1377l-7.1702 18.613h-2.7914l6.7469-17.502h-9.4853v-2.249z"/>
 </g>
 <g id="g184" transform="translate(-1 -5.9176)">
  <path id="rect186" fill="#7babe3" d="m680 80h40v40h-40z"/>
  <path id="rect188" d="m680 80h40v40h-40z" stroke="#000" stroke-width="2" fill="none"/>
 </g>
 <g id="text190">
  <path id="path282" style="" d="m684.67 83.706h10.491v2.249h-8.0433v4.8419q0.58209-0.19844 1.1642-0.29104 0.58208-0.10583 1.1642-0.10583 3.3073 0 5.2388 1.8124 1.9314 1.8124 1.9314 4.908 0 3.1882-1.9844 4.9609-1.9844 1.7595-5.5959 1.7595-1.2435 0-2.54-0.21166-1.2832-0.21167-2.6591-0.635v-2.6855q1.1906 0.64823 2.4606 0.96573t2.6855 0.3175q2.2886 0 3.6248-1.2039 1.3361-1.2038 1.3361-3.2676 0-2.0637-1.3361-3.2676t-3.6248-1.2039q-1.0716 0-2.1431 0.23812-1.0583 0.23812-2.1696 0.74083v-9.9219z"/>
  <path id="path284" style="" d="m707.61 85.466q-2.0638 0-3.1088 2.0373-1.0319 2.0241-1.0319 6.0986 0 4.0613 1.0319 6.0986 1.0451 2.0241 3.1088 2.0241 2.077 0 3.1088-2.0241 1.0451-2.0373 1.0451-6.0986 0-4.0746-1.0451-6.0986-1.0319-2.0373-3.1088-2.0373zm0-2.1167q3.3205 0 5.0668 2.6326 1.7595 2.6194 1.7595 7.62 0 4.9874-1.7595 7.62-1.7462 2.6194-5.0668 2.6194-3.3205 0-5.08-2.6194-1.7462-2.6326-1.7462-7.62 0-5.0006 1.7462-7.62 1.7595-2.6326 5.08-2.6326z"/>
 </g>
 <g id="g194" transform="translate(-1 -5.9176)">
  <path id="rect196" fill="#7babe3" d="m780 160h40v40h-40z"/>
  <path id="rect198" d="m780 160h40v40h-40z" stroke="#000" stroke-width="2" fill="none"/>
 </g>
 <g id="text200">
  <path id="path289" style="" d="m783.97 163.71h12.7v1.1377l-7.1702 18.613h-2.7914l6.7469-17.502h-9.4853v-2.249z"/>
  <path id="path291" style="" d="m804.2 181.21h9.3266v2.249h-12.541v-2.249q1.5214-1.5743 4.1407-4.2201 2.6326-2.6591 3.3073-3.4264 1.2832-1.442 1.7859-2.4342 0.51594-1.0054 0.51594-1.9711 0-1.5743-1.1112-2.5664-1.098-0.99219-2.8707-0.99219-1.2568 0-2.6591 0.43656-1.3891 0.43656-2.9766 1.3229v-2.6988q1.614-0.64823 3.0162-0.97896 1.4023-0.33073 2.5665-0.33073 3.0692 0 4.8948 1.5346t1.8256 4.101q0 1.2171-0.46302 2.3151-0.44979 1.0848-1.6536 2.5665-0.33073 0.38364-2.1034 2.2225-1.7727 1.8256-5.0006 5.1197z"/>
 </g>
 <g id="g204" transform="translate(-1 -5.9176)">
  <path id="rect206" fill="#7babe3" d="m520 220h40v40h-40z"/>
  <path id="rect208" d="m520 220h40v40h-40z" stroke="#000" stroke-width="2" fill="none"/>
 </g>
 <g id="text210">
  <path id="path296" style="" d="m525.11 241.21h4.3656v-15.068l-4.7493 0.9525v-2.4342l4.7228-0.9525h2.6723v17.502h4.3656v2.249h-11.377v-2.249z"/>
  <path id="path298" style="" d="m544.2 241.21h9.3266v2.249h-12.541v-2.249q1.5214-1.5743 4.1407-4.2201 2.6326-2.6591 3.3073-3.4264 1.2832-1.442 1.7859-2.4342 0.51594-1.0054 0.51594-1.9711 0-1.5743-1.1112-2.5664-1.098-0.99219-2.8707-0.99219-1.2568 0-2.6591 0.43656-1.3891 0.43656-2.9766 1.3229v-2.6988q1.614-0.64823 3.0162-0.97896 1.4023-0.33073 2.5665-0.33073 3.0692 0 4.8948 1.5346t1.8256 4.101q0 1.2171-0.46302 2.3151-0.44979 1.0848-1.6536 2.5665-0.33073 0.38364-2.1034 2.2225-1.7727 1.8256-5.0006 5.1197z"/>
 </g>
 <g id="g214" transform="translate(-1 -5.9176)">
  <path id="rect216" fill="#7babe3" d="m480 280h40v40h-40z"/>
  <path id="rect218" d="m480 280h40v40h-40z" stroke="#000" stroke-width="2" fill="none"/>
 </g>
 <g id="text220">
  <path id="path303" style="" d="m493.35 303.05v-2.4342q1.0054 0.47625 2.0373 0.7276 1.0319 0.25136 2.0241 0.25136 2.6458 0 4.0349-1.7727 1.4023-1.7859 1.6007-5.4107-0.76729 1.1377-1.9447 1.7462-1.1774 0.60854-2.6061 0.60854-2.9633 0-4.6964-1.7859-1.7198-1.7992-1.7198-4.908 0-3.0427 1.7992-4.8816 1.7992-1.8388 4.789-1.8388 3.4264 0 5.2255 2.6326 1.8124 2.6194 1.8124 7.62 0 4.6699-2.2225 7.4612-2.2093 2.7781-5.9531 2.7781-1.0054 0-2.0373-0.19843-1.0319-0.19844-2.1431-0.59532zm5.3181-8.374q1.7992 0 2.8443-1.2303 1.0583-1.2303 1.0583-3.3734 0-2.1299-1.0583-3.3602-1.0451-1.2435-2.8443-1.2435t-2.8575 1.2435q-1.0451 1.2303-1.0451 3.3602 0 2.1431 1.0451 3.3734 1.0583 1.2303 2.8575 1.2303z"/>
 </g>
 <g id="g224" transform="translate(-1 -5.9176)">
  <path id="rect226" fill="#7babe3" d="m560 280h40v40h-40z"/>
  <path id="rect228" d="m560 280h40v40h-40z" stroke="#000" stroke-width="2" fill="none"/>
 </g>
 <g id="text230">
  <path id="path308" style="" d="m565.11 301.21h4.3656v-15.068l-4.7493 0.9525v-2.4342l4.7228-0.95249h2.6723v17.502h4.3656v2.249h-11.377v-2.249z"/>
  <path id="path310" style="" d="m589.24 286.03-6.7469 10.544h6.7469v-10.544zm-0.70114-2.3283h3.3602v12.872h2.8178v2.2225h-2.8178v4.6567h-2.6591v-4.6567h-8.9164v-2.5797l8.2153-12.515z"/>
 </g>
 <g id="g234" transform="translate(-1 -5.9176)">
  <path id="rect236" fill="#7babe3" d="m640 220h40v40h-40z"/>
  <path id="rect238" d="m640 220h40v40h-40z" stroke="#000" stroke-width="2" fill="none"/>
 </g>
 <g id="text240">
  <path id="path315" style="" d="m646.95 241.21h9.3266v2.249h-12.541v-2.249q1.5214-1.5743 4.1407-4.2201 2.6326-2.6591 3.3073-3.4264 1.2832-1.442 1.7859-2.4342 0.51593-1.0054 0.51593-1.9711 0-1.5743-1.1112-2.5664-1.098-0.99219-2.8707-0.99219-1.2568 0-2.6591 0.43656-1.3891 0.43656-2.9766 1.3229v-2.6988q1.614-0.64823 3.0162-0.97896 1.4023-0.33073 2.5664-0.33073 3.0692 0 4.8948 1.5346t1.8256 4.101q0 1.2171-0.46302 2.3151-0.44979 1.0848-1.6536 2.5665-0.33073 0.38364-2.1034 2.2225-1.7727 1.8256-5.0006 5.1197z"/>
  <path id="path317" style="" d="m669.99 232.81q1.9182 0.4101 2.9898 1.7066 1.0848 1.2964 1.0848 3.2014 0 2.9236-2.0108 4.5244-2.0108 1.6007-5.715 1.6007-1.2435 0-2.5665-0.25136-1.3097-0.23812-2.712-0.7276v-2.5797q1.1112 0.64822 2.4342 0.97895 1.3229 0.33073 2.7649 0.33073 2.5135 0 3.8232-0.99218 1.3229-0.99219 1.3229-2.884 0-1.7462-1.2303-2.7252-1.2171-0.99219-3.3999-0.99219h-2.3019v-2.196h2.4077q1.9712 0 3.0162-0.78052 1.0451-0.79375 1.0451-2.2754 0-1.5214-1.0848-2.3283-1.0716-0.82021-3.0824-0.82021-1.098 0-2.3548 0.23812-1.2568 0.23813-2.7649 0.74084v-2.3812q1.5214-0.42333 2.8443-0.635 1.3361-0.21167 2.5135-0.21167 3.0427 0 4.8154 1.3891 1.7727 1.3758 1.7727 3.7306 0 1.6404-0.93927 2.7781-0.93927 1.1245-2.6723 1.561z"/>
 </g>
 <g id="g244" transform="translate(-1 -5.9176)">
  <path id="rect246" fill="#7babe3" d="m620 280h40v40h-40z"/>
  <path id="rect248" d="m620 280h40v40h-40z" stroke="#000" stroke-width="2" fill="none"/>
 </g>
 <g id="text250">
  <path id="path322" style="" d="m625.11 301.21h4.3656v-15.068l-4.7493 0.9525v-2.4342l4.7228-0.95249h2.6723v17.502h4.3656v2.249h-11.377v-2.249z"/>
  <path id="path324" style="" d="m641.98 303.05v-2.4342q1.0054 0.47625 2.0373 0.7276 1.0319 0.25136 2.0241 0.25136 2.6458 0 4.0349-1.7727 1.4023-1.7859 1.6007-5.4107-0.76729 1.1377-1.9447 1.7462-1.1774 0.60854-2.6061 0.60854-2.9633 0-4.6964-1.7859-1.7198-1.7992-1.7198-4.908 0-3.0427 1.7992-4.8816 1.7992-1.8388 4.789-1.8388 3.4264 0 5.2255 2.6326 1.8124 2.6194 1.8124 7.62 0 4.6699-2.2225 7.4612-2.2093 2.7781-5.9531 2.7781-1.0054 0-2.0373-0.19843-1.0319-0.19844-2.1431-0.59532zm5.3181-8.374q1.7992 0 2.8443-1.2303 1.0583-1.2303 1.0583-3.3734 0-2.1299-1.0583-3.3602-1.0451-1.2435-2.8443-1.2435t-2.8575 1.2435q-1.0451 1.2303-1.0451 3.3602 0 2.1431 1.0451 3.3734 1.0583 1.2303 2.8575 1.2303z"/>
 </g>
 <g id="g254" transform="translate(-1 -5.9176)">
  <path id="rect256" fill="#7babe3" d="m720 220h40v40h-40z"/>
  <path id="rect258" d="m720 220h40v40h-40z" stroke="#000" stroke-width="2" fill="none"/>
 </g>
 <g id="text260">
  <path id="path329" style="" d="m724.67 223.71h10.491v2.249h-8.0433v4.8419q0.58209-0.19844 1.1642-0.29105 0.58208-0.10583 1.1642-0.10583 3.3073 0 5.2388 1.8124 1.9314 1.8124 1.9314 4.908 0 3.1882-1.9844 4.9609-1.9844 1.7595-5.5959 1.7595-1.2435 0-2.54-0.21167-1.2832-0.21167-2.6591-0.635v-2.6855q1.1906 0.64823 2.4606 0.96573t2.6855 0.3175q2.2886 0 3.6248-1.2038 1.3361-1.2038 1.3361-3.2676t-1.3361-3.2676-3.6248-1.2038q-1.0716 0-2.1431 0.23812-1.0583 0.23813-2.1696 0.74083v-9.9219z"/>
  <path id="path331" style="" d="m749.24 226.03-6.7469 10.544h6.7469v-10.544zm-0.70114-2.3283h3.3602v12.872h2.8178v2.2225h-2.8178v4.6567h-2.6591v-4.6567h-8.9164v-2.5797l8.2153-12.515z"/>
 </g>
 <g id="g264" transform="translate(-1 -5.9176)">
  <path id="rect266" fill="#7babe3" d="m840 220h40v40h-40z"/>
  <path id="rect268" d="m840 220h40v40h-40z" stroke="#000" stroke-width="2" fill="none"/>
 </g>
 <g id="text270">
  <path id="path336" style="" d="m843.97 223.71h12.7v1.1377l-7.1702 18.613h-2.7914l6.7469-17.502h-9.4853v-2.249z"/>
  <path id="path338" style="" d="m867.94 232.52q-1.7992 0-2.8575 1.2303-1.0451 1.2303-1.0451 3.3734 0 2.1299 1.0451 3.3734 1.0583 1.2303 2.8575 1.2303t2.8443-1.2303q1.0583-1.2435 1.0583-3.3734 0-2.1431-1.0583-3.3734-1.0451-1.2303-2.8443-1.2303zm5.3049-8.374v2.4342q-1.0054-0.47625-2.0373-0.72761-1.0186-0.25135-2.0241-0.25135-2.6458 0-4.0481 1.7859-1.3891 1.7859-1.5875 5.3975 0.78052-1.1509 1.9579-1.7595 1.1774-0.62177 2.5929-0.62177 2.9766 0 4.6963 1.8124 1.733 1.7992 1.733 4.908 0 3.0427-1.7992 4.8816-1.7992 1.8388-4.789 1.8388-3.4264 0-5.2388-2.6194-1.8124-2.6326-1.8124-7.62 0-4.6831 2.2225-7.4612 2.2225-2.7914 5.9663-2.7914 1.0054 0 2.0241 0.19844 1.0319 0.19844 2.1431 0.59531z"/>
 </g>
 <g id="g274" transform="translate(-1 -5.9176)">
  <path id="rect276" fill="#7babe3" d="m740 280h40v40h-40z"/>
  <path id="rect278" d="m740 280h40v40h-40z" stroke="#000" stroke-width="2" fill="none"/>
 </g>
 <g id="text280">
  <path id="path343" style="" d="m750.69 292.52q-1.7992 0-2.8575 1.2303-1.0451 1.2303-1.0451 3.3734 0 2.1299 1.0451 3.3734 1.0583 1.2303 2.8575 1.2303t2.8443-1.2303q1.0583-1.2435 1.0583-3.3734 0-2.1431-1.0583-3.3734-1.0451-1.2303-2.8443-1.2303zm5.3049-8.374v2.4342q-1.0054-0.47625-2.0373-0.7276-1.0186-0.25136-2.0241-0.25136-2.6458 0-4.0481 1.7859-1.3891 1.7859-1.5875 5.3975 0.78052-1.1509 1.9579-1.7595 1.1774-0.62177 2.5929-0.62177 2.9766 0 4.6964 1.8124 1.733 1.7992 1.733 4.908 0 3.0427-1.7992 4.8816-1.7992 1.8388-4.789 1.8388-3.4264 0-5.2387-2.6194-1.8124-2.6326-1.8124-7.62 0-4.6831 2.2225-7.4612 2.2225-2.7914 5.9664-2.7914 1.0054 0 2.0241 0.19844 1.0319 0.19843 2.1431 0.59531z"/>
  <path id="path345" style="" d="m761.22 283.71h12.7v1.1377l-7.1702 18.613h-2.7914l6.7469-17.502h-9.4853v-2.249z"/>
 </g>
 <g id="g284" stroke="#000" stroke-width="2" fill="none" transform="translate(-1 -5.9176)">
  <path id="line286" d="m679 116.8-54.504 43.603"/>
  <path id="polyline288" d="m627.43 151.65-4.685 10.151 10.932-2.342"/>
 </g>
 <g id="g290" stroke="#000" stroke-width="2" fill="none" transform="translate(-1 -5.9176)">
  <path id="line292" d="m579.01 200.99-14.856 14.856"/>
  <path id="polyline294" d="m566.11 206.82-3.536 10.607 10.607-3.536"/>
 </g>
 <g id="g296" stroke="#000" stroke-width="2" fill="none" transform="translate(-1 -5.9176)">
  <path id="line298" d="m620.99 200.99 14.856 14.856"/>
  <path id="polyline300" d="m626.82 213.89 10.607 3.536-3.536-10.607"/>
 </g>
 <g id="g302" stroke="#000" stroke-width="2" fill="none" transform="translate(-1 -5.9176)">
  <path id="line304" d="m526.01 260.99-9.531 14.297"/>
  <path id="polyline306" d="m516.62 266.05-1.387 11.094 9.708-5.547"/>
 </g>
 <g id="g308" stroke="#000" stroke-width="2" fill="none" transform="translate(-1 -5.9176)">
  <path id="line310" d="m553.99 260.99 9.531 14.297"/>
  <path id="polyline312" d="m555.06 271.6 9.708 5.547-1.387-11.094"/>
 </g>
 <g id="g314" stroke="#000" stroke-width="2" fill="none" transform="translate(-1 -5.9176)">
  <path id="line316" d="m653 260.99-4.592 13.775"/>
  <path id="polyline318" d="m646.12 265.82 1.581 11.068 7.906-7.905"/>
 </g>
 <g id="g320" stroke="#000" stroke-width="2" fill="none" transform="translate(-1 -5.9176)">
  <path id="line322" d="m721 116.8 54.504 43.603"/>
  <path id="polyline324" d="m766.32 159.46 10.932 2.342-4.685-10.151"/>
 </g>
 <g id="g326" stroke="#000" stroke-width="2" fill="none" transform="translate(-1 -5.9176)">
  <path id="line328" d="m779.01 200.99-14.856 14.856"/>
  <path id="polyline330" d="m766.11 206.82-3.536 10.607 10.607-3.536"/>
 </g>
 <g id="g332" stroke="#000" stroke-width="2" fill="none" transform="translate(-1 -5.9176)">
  <path id="line334" d="m820.99 200.99 14.856 14.856"/>
  <path id="polyline336" d="m826.82 213.89 10.607 3.536-3.536-10.607"/>
 </g>
 <g id="g338" stroke="#000" stroke-width="2" fill="none" transform="translate(-1 -5.9176)">
  <path id="line340" d="m747 260.99 4.592 13.775"/>
  <path id="polyline342" d="m744.39 268.98 7.906 7.905 1.581-11.068"/>
 </g>
</svg>
