<?xml version="1.0" encoding="UTF-8"?>
<svg id="svg29" width="5.8719cm" height="3.6117cm" version="1.1" viewBox="209 78 100.8 56.883" xmlns="http://www.w3.org/2000/svg" xmlns:cc="http://creativecommons.org/ns#" xmlns:dc="http://purl.org/dc/elements/1.1/" xmlns:rdf="http://www.w3.org/1999/02/22-rdf-syntax-ns#">
 <metadata id="metadata33">
  <rdf:RDF>
   <cc:Work rdf:about="">
    <dc:format>image/svg+xml</dc:format>
    <dc:type rdf:resource="http://purl.org/dc/dcmitype/StillImage"/>
   </cc:Work>
  </rdf:RDF>
 </metadata>
 <g id="Háttér" transform="translate(-1.1991 -3.5583)">
  <g id="text6" aria-label="gyoker">
   <path id="path828" d="m217.4 91.196q0-1.7639-0.73201-2.734-0.7232-0.97014-2.0373-0.97014-1.3053 0-2.0373 0.97014-0.72319 0.97014-0.72319 2.734 0 1.7551 0.72319 2.7252 0.73201 0.97014 2.0373 0.97014 1.3141 0 2.0373-0.97014 0.73201-0.97014 0.73201-2.7252zm1.6228 3.8276q0 2.5224-1.1201 3.7483-1.1201 1.2347-3.4308 1.2347-0.85549 0-1.614-0.13229-0.75847-0.12347-1.4728-0.38806v-1.5787q0.71437 0.38806 1.4111 0.57326 0.69673 0.18521 1.4199 0.18521 1.5963 0 2.3901-0.83785 0.79375-0.82903 0.79375-2.5135v-0.80257q-0.50271 0.87312-1.2876 1.3053-0.78493 0.43215-1.8785 0.43215-1.8168 0-2.928-1.3847t-1.1112-3.6689q0-2.2931 1.1112-3.6777 1.1112-1.3847 2.928-1.3847 1.0936 0 1.8785 0.43215 0.78493 0.43215 1.2876 1.3053v-1.4993h1.6228z" style=""/>
   <path id="path830" d="m226.48 97.167q-0.68792 1.7639-1.3406 2.3019-0.65263 0.53799-1.7462 0.53799h-1.2965v-1.3582h0.9525q0.67028 0 1.0407-0.3175 0.37042-0.3175 0.82021-1.4993l0.29104-0.74083-3.9952-9.719h1.7198l3.0868 7.7258 3.0868-7.7258h1.7198z" style=""/>
   <path id="path832" d="m236.89 87.51q-1.3053 0-2.0638 1.0231-0.75847 1.0142-0.75847 2.7869 0 1.7727 0.74965 2.7958 0.75848 1.0142 2.0726 1.0142 1.2965 0 2.0549-1.0231 0.75847-1.0231 0.75847-2.7869 0-1.7551-0.75847-2.7781-0.75847-1.0319-2.0549-1.0319zm0-1.3758q2.1167 0 3.3249 1.3758t1.2083 3.81q0 2.4253-1.2083 3.81-1.2083 1.3758-3.3249 1.3758-2.1255 0-3.3338-1.3758-1.1994-1.3847-1.1994-3.81 0-2.4342 1.1994-3.81 1.2083-1.3758 3.3338-1.3758z" style=""/>
   <path id="path834" d="m244.04 82.527h1.6316v8.1051l4.8419-4.2598h2.0726l-5.2387 4.6214 5.4592 5.2564h-2.1167l-5.0182-4.8242v4.8242h-1.6316z" style=""/>
   <path id="path836" d="m262.39 90.905v0.79375h-7.4612q0.10583 1.6757 1.0054 2.5576 0.9084 0.87312 2.5224 0.87312 0.93486 0 1.808-0.2293 0.88194-0.22931 1.7462-0.68792v1.5346q-0.87313 0.37042-1.7904 0.56444t-1.8609 0.19403q-2.3636 0-3.7483-1.3758-1.3758-1.3758-1.3758-3.7218 0-2.4253 1.3053-3.8453 1.3141-1.4287 3.5366-1.4287 1.9932 0 3.1485 1.2876 1.1642 1.2788 1.1642 3.4837zm-1.6228-0.47625q-0.0176-1.3317-0.74965-2.1255-0.7232-0.79375-1.9226-0.79375-1.3582 0-2.1784 0.76729-0.81139 0.76729-0.93486 2.1608z" style=""/>
   <path id="path838" d="m270.78 87.889q-0.27341-0.15875-0.59973-0.22931-0.3175-0.07937-0.70555-0.07937-1.3758 0-2.1167 0.89958-0.73202 0.89076-0.73202 2.5665v5.2035h-1.6316v-9.8778h1.6316v1.5346q0.51153-0.89958 1.3317-1.3317 0.8202-0.44097 1.9932-0.44097 0.16757 0 0.37041 0.02646 0.20285 0.01764 0.4498 0.06174z" style=""/>
  </g>
  <g id="text10" aria-label="mozgo">
   <path id="path841" d="m219.07 128.27q0.60854-1.0936 1.4552-1.614 0.84667-0.52035 1.9932-0.52035 1.5434 0 2.3812 1.0848 0.83785 1.076 0.83785 3.0692v5.9619h-1.6316v-5.909q0-1.4199-0.50271-2.1078-0.50271-0.68791-1.5346-0.68791-1.2612 0-1.9932 0.83784-0.73201 0.83785-0.73201 2.2842v5.5827h-1.6316v-5.909q0-1.4288-0.50271-2.1078-0.5027-0.68791-1.5522-0.68791-1.2435 0-1.9756 0.84666-0.73201 0.83785-0.73201 2.2754v5.5827h-1.6316v-9.8778h1.6316v1.5346q0.55562-0.90841 1.3317-1.3406t1.8433-0.43215q1.076 0 1.8256 0.5468 0.75847 0.54681 1.1201 1.5875z" style=""/>
   <path id="path843" d="m232.81 127.51q-1.3053 0-2.0638 1.0231-0.75847 1.0142-0.75847 2.7869 0 1.7727 0.74965 2.7958 0.75848 1.0142 2.0726 1.0142 1.2965 0 2.0549-1.023 0.75847-1.0231 0.75847-2.7869 0-1.7551-0.75847-2.7781-0.75847-1.0319-2.0549-1.0319zm0-1.3758q2.1167 0 3.3249 1.3758t1.2083 3.81q0 2.4253-1.2083 3.81-1.2083 1.3758-3.3249 1.3758-2.1255 0-3.3337-1.3758-1.1994-1.3846-1.1994-3.81 0-2.4342 1.1994-3.81 1.2083-1.3758 3.3337-1.3758z" style=""/>
   <path id="path845" d="m239.32 126.37h7.7082v1.4817l-6.103 7.0996h6.103v1.2965h-7.9287v-1.4817l6.103-7.0996h-5.8826z" style=""/>
   <path id="path847" d="m256.02 131.2q0-1.7639-0.73201-2.734-0.7232-0.97014-2.0373-0.97014-1.3053 0-2.0373 0.97014-0.72319 0.97014-0.72319 2.734 0 1.7551 0.72319 2.7252 0.73201 0.97014 2.0373 0.97014 1.3141 0 2.0373-0.97014 0.73201-0.97014 0.73201-2.7252zm1.6228 3.8276q0 2.5224-1.1201 3.7483-1.1201 1.2347-3.4308 1.2347-0.85549 0-1.614-0.13229-0.75847-0.12347-1.4728-0.38806v-1.5787q0.71437 0.38806 1.4111 0.57327 0.69673 0.1852 1.4199 0.1852 1.5963 0 2.3901-0.83784 0.79375-0.82903 0.79375-2.5135v-0.80257q-0.50271 0.87313-1.2876 1.3053t-1.8785 0.43215q-1.8168 0-2.928-1.3846t-1.1112-3.6689q0-2.293 1.1112-3.6777t2.928-1.3846q1.0936 0 1.8785 0.43215t1.2876 1.3053v-1.4993h1.6228z" style=""/>
   <path id="path849" d="m264.81 127.51q-1.3053 0-2.0638 1.0231-0.75847 1.0142-0.75847 2.7869 0 1.7727 0.74965 2.7958 0.75847 1.0142 2.0726 1.0142 1.2964 0 2.0549-1.023 0.75848-1.0231 0.75848-2.7869 0-1.7551-0.75848-2.7781-0.75847-1.0319-2.0549-1.0319zm0-1.3758q2.1167 0 3.3249 1.3758t1.2083 3.81q0 2.4253-1.2083 3.81-1.2083 1.3758-3.3249 1.3758-2.1255 0-3.3338-1.3758-1.1994-1.3846-1.1994-3.81 0-2.4342 1.1994-3.81 1.2083-1.3758 3.3338-1.3758z" style=""/>
  </g>
  <g id="g18" stroke="#000" stroke-width="2">
   <path id="rect12" d="m290 80h20v20h-20z" fill="#fdfd04"/>
   <path id="line14" d="m290 80 20 20" fill="none"/>
   <path id="line16" d="m290 100 20-20" fill="none"/>
  </g>
  <g id="g26" stroke="#000" stroke-width="2">
   <path id="rect20" d="m290 120h20v20h-20z" fill="#fdfd04"/>
   <path id="line22" d="m290 120 20 20" fill="none"/>
   <path id="line24" d="m290 140 20-20" fill="none"/>
  </g>
 </g>
</svg>
