<?xml version="1.0" encoding="UTF-8"?>
<svg id="svg47" width="11.946cm" height="11.946cm" version="1.1" viewBox="358 78 222 222" xmlns="http://www.w3.org/2000/svg" xmlns:cc="http://creativecommons.org/ns#" xmlns:dc="http://purl.org/dc/elements/1.1/" xmlns:rdf="http://www.w3.org/1999/02/22-rdf-syntax-ns#">
 <metadata id="metadata51">
  <rdf:RDF>
   <cc:Work rdf:about="">
    <dc:format>image/svg+xml</dc:format>
    <dc:type rdf:resource="http://purl.org/dc/dcmitype/StillImage"/>
   </cc:Work>
  </rdf:RDF>
 </metadata>
 <g id="Háttér" transform="translate(-1,-1)">
  <path id="rect4" d="m360 80h40v40h-40z" fill="#7babe3" stroke="#000" stroke-width="2"/>
  <g id="text8" aria-label="1">
   <path id="path30" d="m374.73 107.13h4.3656v-15.068l-4.7493 0.9525v-2.4342l4.7228-0.9525h2.6723v17.502h4.3656v2.249h-11.377z" style=""/>
  </g>
  <path id="rect10" d="m420 140h40v40h-40z" fill="#7babe3" stroke="#000" stroke-width="2"/>
  <g id="text14" aria-label="2">
   <path id="path34" d="m436.57 167.13h9.3266v2.249h-12.541v-2.249q1.5214-1.5743 4.1407-4.2201 2.6326-2.6591 3.3073-3.4264 1.2832-1.442 1.7859-2.4342 0.51594-1.0054 0.51594-1.9711 0-1.5743-1.1112-2.5665-1.098-0.99218-2.8707-0.99218-1.2568 0-2.6591 0.43656-1.3891 0.43656-2.9766 1.3229v-2.6987q1.614-0.64823 3.0162-0.97896t2.5665-0.33073q3.0692 0 4.8948 1.5346 1.8256 1.5346 1.8256 4.101 0 1.2171-0.46302 2.3151-0.44979 1.0848-1.6536 2.5665-0.33072 0.38364-2.1034 2.2225-1.7727 1.8256-5.0006 5.1197z" style=""/>
  </g>
  <path id="rect16" d="m480 200h40v40h-40z" fill="#7babe3" stroke="#000" stroke-width="2"/>
  <g id="text20" aria-label="3">
   <path id="path38" d="m502.37 218.73q1.9182 0.41011 2.9898 1.7066 1.0848 1.2965 1.0848 3.2015 0 2.9236-2.0108 4.5244-2.0108 1.6007-5.715 1.6007-1.2435 0-2.5664-0.25136-1.3097-0.23812-2.712-0.7276v-2.5797q1.1112 0.64823 2.4342 0.97896 1.3229 0.33073 2.7649 0.33073 2.5135 0 3.8232-0.99219 1.3229-0.99218 1.3229-2.884 0-1.7462-1.2303-2.7252-1.2171-0.99218-3.3999-0.99218h-2.3019v-2.196h2.4077q1.9711 0 3.0162-0.78052 1.0451-0.79375 1.0451-2.2754 0-1.5214-1.0848-2.3283-1.0716-0.8202-3.0824-0.8202-1.098 0-2.3548 0.23812-1.2568 0.23813-2.7649 0.74083v-2.3812q1.5214-0.42334 2.8443-0.635 1.3361-0.21167 2.5135-0.21167 3.0427 0 4.8154 1.3891 1.7727 1.3758 1.7727 3.7306 0 1.6404-0.93927 2.7781-0.93927 1.1245-2.6723 1.561z" style=""/>
  </g>
  <path id="rect22" d="m540 260h40v40h-40z" fill="#7babe3" stroke="#000" stroke-width="2"/>
  <g id="text26" aria-label="4">
   <path id="path42" d="m561.61 271.95-6.7469 10.544h6.7469zm-0.70115-2.3283h3.3602v12.872h2.8178v2.2225h-2.8178v4.6567h-2.6591v-4.6567h-8.9164v-2.5797z" style=""/>
  </g>
  <g id="g32" fill="none" stroke="#000" stroke-width="2">
   <path id="line28" d="m460.99 180.99 14.856 14.856"/>
   <path id="polyline30" d="m466.82 193.89 10.607 3.536-3.536-10.607"/>
  </g>
  <g id="g38" fill="none" stroke="#000" stroke-width="2">
   <path id="line34" d="m520.99 240.99 14.856 14.856"/>
   <path id="polyline36" d="m526.82 253.89 10.607 3.536-3.536-10.607"/>
  </g>
  <g id="g44" fill="none" stroke="#000" stroke-width="2">
   <path id="line40" d="m400.99 120.99 14.856 14.856"/>
   <path id="polyline42" d="m406.82 133.89 10.607 3.536-3.536-10.607"/>
  </g>
 </g>
</svg>
