<?xml version="1.0" encoding="UTF-8"?>
<svg id="svg107" width="18.948cm" height="11.62cm" version="1.1" viewBox="158 78 362 215.94" xmlns="http://www.w3.org/2000/svg" xmlns:cc="http://creativecommons.org/ns#" xmlns:dc="http://purl.org/dc/elements/1.1/" xmlns:rdf="http://www.w3.org/1999/02/22-rdf-syntax-ns#">
 <metadata id="metadata111">
  <rdf:RDF>
   <cc:Work rdf:about="">
    <dc:format>image/svg+xml</dc:format>
    <dc:type rdf:resource="http://purl.org/dc/dcmitype/StillImage"/>
   </cc:Work>
  </rdf:RDF>
 </metadata>
 <g id="Háttér" transform="translate(-1 -4.0324)">
  <path id="rect4" d="m320 80h40v40h-40z" fill="#7babe3" stroke="#000" stroke-width="2"/>
  <g id="text8" aria-label="5">
   <path id="path60" d="m334.3 89.624h10.491v2.249h-8.0433v4.8419q0.58208-0.19844 1.1642-0.29104 0.58209-0.10583 1.1642-0.10583 3.3073 0 5.2387 1.8124 1.9315 1.8124 1.9315 4.908 0 3.1882-1.9844 4.9609-1.9844 1.7595-5.5959 1.7595-1.2435 0-2.54-0.21167-1.2832-0.21167-2.6591-0.635v-2.6855q1.1906 0.64823 2.4606 0.96573t2.6855 0.3175q2.2886 0 3.6248-1.2038 1.3361-1.2039 1.3361-3.2676 0-2.0638-1.3361-3.2676-1.3362-1.2039-3.6248-1.2039-1.0716 0-2.1431 0.23812-1.0583 0.23812-2.1696 0.74083z" style=""/>
  </g>
  <path id="rect10" d="m220 140h40v40h-40z" fill="#7babe3" stroke="#000" stroke-width="2"/>
  <g id="text14" aria-label="3">
   <path id="path64" d="m242.37 158.73q1.9182 0.41011 2.9898 1.7066 1.0848 1.2965 1.0848 3.2015 0 2.9236-2.0108 4.5244-2.0108 1.6007-5.715 1.6007-1.2435 0-2.5664-0.25136-1.3097-0.23812-2.712-0.7276v-2.5797q1.1112 0.64823 2.4342 0.97896 1.3229 0.33073 2.7649 0.33073 2.5135 0 3.8232-0.99219 1.3229-0.99218 1.3229-2.884 0-1.7462-1.2303-2.7252-1.2171-0.99218-3.3999-0.99218h-2.3019v-2.196h2.4077q1.9711 0 3.0162-0.78052 1.0451-0.79375 1.0451-2.2754 0-1.5214-1.0848-2.3283-1.0716-0.8202-3.0824-0.8202-1.098 0-2.3548 0.23812-1.2568 0.23813-2.7649 0.74083v-2.3812q1.5214-0.42334 2.8443-0.635 1.3361-0.21167 2.5135-0.21167 3.0427 0 4.8154 1.3891 1.7727 1.3758 1.7727 3.7306 0 1.6404-0.93927 2.7781-0.93927 1.1245-2.6723 1.561z" style=""/>
  </g>
  <path id="rect16" d="m420 140h40v40h-40z" fill="#7babe3" stroke="#000" stroke-width="2"/>
  <g id="text20" aria-label="7">
   <path id="path68" d="m433.6 149.62h12.7v1.1377l-7.1702 18.613h-2.7914l6.7469-17.502h-9.4853z" style=""/>
  </g>
  <path id="rect22" d="m160 200h40v40h-40z" fill="#7babe3" stroke="#000" stroke-width="2"/>
  <g id="text26" aria-label="1">
   <path id="path72" d="m174.73 227.13h4.3656v-15.068l-4.7493 0.9525v-2.4342l4.7228-0.9525h2.6723v17.502h4.3656v2.249h-11.377z" style=""/>
  </g>
  <path id="rect28" d="m280 200h40v40h-40z" fill="#7babe3" stroke="#000" stroke-width="2"/>
  <g id="text32" aria-label="4">
   <path id="path76" d="m301.61 211.95-6.7469 10.544h6.7469zm-0.70115-2.3283h3.3602v12.872h2.8178v2.2225h-2.8178v4.6567h-2.6591v-4.6567h-8.9164v-2.5797z" style=""/>
  </g>
  <path id="rect34" d="m360 200h40v40h-40z" fill="#7babe3" stroke="#000" stroke-width="2"/>
  <g id="text38" aria-label="6">
   <path id="path80" d="m380.32 218.43q-1.7992 0-2.8575 1.2303-1.0451 1.2303-1.0451 3.3734 0 2.1299 1.0451 3.3734 1.0583 1.2303 2.8575 1.2303t2.8443-1.2303q1.0583-1.2435 1.0583-3.3734 0-2.1431-1.0583-3.3734-1.0451-1.2303-2.8443-1.2303zm5.3049-8.374v2.4342q-1.0054-0.47625-2.0373-0.7276-1.0186-0.25135-2.0241-0.25135-2.6458 0-4.0481 1.7859-1.3891 1.7859-1.5875 5.3975 0.78052-1.1509 1.9579-1.7595 1.1774-0.62177 2.5929-0.62177 2.9766 0 4.6964 1.8124 1.733 1.7992 1.733 4.908 0 3.0427-1.7992 4.8816-1.7992 1.8389-4.789 1.8389-3.4264 0-5.2387-2.6194-1.8124-2.6326-1.8124-7.62 0-4.6831 2.2225-7.4612 2.2225-2.7914 5.9664-2.7914 1.0054 0 2.0241 0.19844 1.0319 0.19844 2.1431 0.59531z" style=""/>
  </g>
  <path id="rect40" d="m480 200h40v40h-40z" fill="#7babe3" stroke="#000" stroke-width="2"/>
  <g id="text44" aria-label="9">
   <path id="path84" d="m494.35 228.96v-2.4342q1.0054 0.47625 2.0373 0.72761 1.0319 0.25135 2.0241 0.25135 2.6458 0 4.0349-1.7727 1.4023-1.7859 1.6007-5.4107-0.76729 1.1377-1.9447 1.7462-1.1774 0.60854-2.6061 0.60854-2.9633 0-4.6964-1.7859-1.7198-1.7992-1.7198-4.908 0-3.0427 1.7992-4.8816 1.7992-1.8388 4.789-1.8388 3.4264 0 5.2255 2.6326 1.8124 2.6194 1.8124 7.62 0 4.6699-2.2225 7.4612-2.2093 2.7781-5.9531 2.7781-1.0054 0-2.0373-0.19844-1.0319-0.19844-2.1431-0.59531zm5.3181-8.3741q1.7992 0 2.8443-1.2303 1.0583-1.2303 1.0583-3.3734 0-2.1299-1.0583-3.3602-1.0451-1.2435-2.8443-1.2435-1.7992 0-2.8575 1.2435-1.0451 1.2303-1.0451 3.3602 0 2.1431 1.0451 3.3734 1.0583 1.2303 2.8575 1.2303z" style=""/>
  </g>
  <path id="rect46" d="m180 260h40v40h-40z" fill="#7babe3" stroke="#000" stroke-width="2"/>
  <g id="text50" aria-label="2">
   <path id="path88" d="m196.57 287.13h9.3266v2.249h-12.541v-2.249q1.5214-1.5743 4.1407-4.2201 2.6326-2.6591 3.3073-3.4264 1.2832-1.442 1.7859-2.4342 0.51594-1.0054 0.51594-1.9711 0-1.5743-1.1112-2.5665-1.098-0.99218-2.8707-0.99218-1.2568 0-2.6591 0.43656-1.3891 0.43656-2.9766 1.3229v-2.6987q1.614-0.64823 3.0162-0.97896t2.5665-0.33073q3.0692 0 4.8948 1.5346 1.8256 1.5346 1.8256 4.101 0 1.2171-0.46302 2.3151-0.44979 1.0848-1.6536 2.5665-0.33072 0.38364-2.1034 2.2225-1.7727 1.8256-5.0006 5.1197z" style=""/>
  </g>
  <path id="rect52" d="m460 260h40v40h-40z" fill="#7babe3" stroke="#000" stroke-width="2"/>
  <g id="text56" aria-label="8">
   <path id="path92" d="m479.99 280q-1.905 0-3.003 1.0186-1.0848 1.0186-1.0848 2.8046 0 1.7859 1.0848 2.8046 1.098 1.0186 3.003 1.0186t3.003-1.0186q1.098-1.0319 1.098-2.8046 0-1.7859-1.098-2.8046-1.0848-1.0186-3.003-1.0186zm-2.6723-1.1377q-1.7198-0.42334-2.6855-1.6007-0.95249-1.1774-0.95249-2.8707 0-2.368 1.6801-3.7438 1.6933-1.3758 4.6302-1.3758 2.9501 0 4.6302 1.3758 1.6801 1.3758 1.6801 3.7438 0 1.6933-0.96573 2.8707-0.9525 1.1774-2.6591 1.6007 1.9314 0.44979 3.003 1.7595 1.0848 1.3097 1.0848 3.2015 0 2.8707-1.7595 4.4053-1.7462 1.5346-5.0138 1.5346t-5.0271-1.5346q-1.7462-1.5346-1.7462-4.4053 0-1.8918 1.0848-3.2015 1.0848-1.3097 3.0162-1.7595zm-0.97895-4.2201q0 1.5346 0.95249 2.3945 0.96573 0.8599 2.6988 0.8599 1.7198 0 2.6855-0.8599 0.97896-0.85989 0.97896-2.3945t-0.97896-2.3945q-0.96573-0.85989-2.6855-0.85989-1.733 0-2.6988 0.85989-0.95249 0.8599-0.95249 2.3945z" style=""/>
  </g>
  <g id="g62" fill="none" stroke="#000" stroke-width="2">
   <path id="line58" d="m319 112.6-54.161 32.497"/>
   <path id="polyline60" d="m268.92 136.82-6.002 9.432 11.147-0.857"/>
  </g>
  <g id="g68" fill="none" stroke="#000" stroke-width="2">
   <path id="line64" d="m219.01 180.99-14.856 14.856"/>
   <path id="polyline66" d="m206.11 186.82-3.536 10.607 10.607-3.536"/>
  </g>
  <g id="g74" fill="none" stroke="#000" stroke-width="2">
   <path id="line70" d="m260.99 180.99 14.856 14.856"/>
   <path id="polyline72" d="m266.82 193.89 10.607 3.536-3.536-10.607"/>
  </g>
  <g id="g80" fill="none" stroke="#000" stroke-width="2">
   <path id="line76" d="m187 240.99 4.592 13.775"/>
   <path id="polyline78" d="m184.39 248.98 7.906 7.905 1.581-11.068"/>
  </g>
  <g id="g86" fill="none" stroke="#000" stroke-width="2">
   <path id="line82" d="m419.01 180.99-14.856 14.856"/>
   <path id="polyline84" d="m406.11 186.82-3.536 10.607 10.607-3.536"/>
  </g>
  <g id="g92" fill="none" stroke="#000" stroke-width="2">
   <path id="line88" d="m460.99 180.99 14.856 14.856"/>
   <path id="polyline90" d="m466.82 193.89 10.607 3.536-3.536-10.607"/>
  </g>
  <g id="g98" fill="none" stroke="#000" stroke-width="2">
   <path id="line94" d="m493 240.99-4.592 13.775"/>
   <path id="polyline96" d="m486.12 245.82 1.581 11.068 7.906-7.905"/>
  </g>
  <g id="g104" fill="none" stroke="#000" stroke-width="2">
   <path id="line100" d="m361 112.6 54.161 32.497"/>
   <path id="polyline102" d="m405.93 145.39 11.147 0.857-6.002-9.432"/>
  </g>
 </g>
</svg>
