<?xml version="1.0" encoding="UTF-8"?>
<svg id="svg95" width="19.728cm" height="10.948cm" version="1.1" viewBox="199 79 376.8 212" xmlns="http://www.w3.org/2000/svg" xmlns:cc="http://creativecommons.org/ns#" xmlns:dc="http://purl.org/dc/elements/1.1/" xmlns:rdf="http://www.w3.org/1999/02/22-rdf-syntax-ns#">
 <metadata id="metadata101">
  <rdf:RDF>
   <cc:Work rdf:about="">
    <dc:format>image/svg+xml</dc:format>
    <dc:type rdf:resource="http://purl.org/dc/dcmitype/StillImage"/>
   </cc:Work>
  </rdf:RDF>
 </metadata>
 <g id="Háttér" transform="translate(-2.6005)">
  <g id="g8">
   <path id="rect2" d="m340 80h97.35v30h-97.35z" fill="#7babe3" stroke="#000" stroke-width="2"/>
   <g id="text6" aria-label="mikro; 5">
    <path id="path863" d="m364.28 92.838q0.53248-0.95691 1.2733-1.4122 0.74083-0.4553 1.744-0.4553 1.3505 0 2.0836 0.94919 0.73311 0.94147 0.73311 2.6855v5.2167h-1.4276v-5.1704q0-1.2424-0.43987-1.8444-0.43987-0.60193-1.3428-0.60193-1.1035 0-1.744 0.73312-0.64051 0.73311-0.64051 1.9987v4.8849h-1.4276v-5.1704q0-1.2502-0.43987-1.8444-0.43987-0.60193-1.3582-0.60193-1.0881 0-1.7286 0.74083-0.64051 0.73311-0.64051 1.991v4.8849h-1.4276v-8.643h1.4276v1.3428q0.48617-0.79485 1.1653-1.173 0.67909-0.37813 1.6128-0.37813 0.94147 0 1.5974 0.47845 0.66366 0.47845 0.98005 1.3891z" style=""/>
    <path id="path865" d="m372.96 91.179h1.4199v8.643h-1.4199zm0-3.3646h1.4199v1.7981h-1.4199z" style=""/>
    <path id="path867" d="m377.28 87.815h1.4276v7.0919l4.2366-3.7273h1.8135l-4.5839 4.0437 4.7768 4.5993h-1.8521l-4.391-4.2212v4.2212h-1.4276z" style=""/>
    <path id="path869" d="m391.51 92.506q-0.23923-0.13891-0.52476-0.20064-0.27781-0.06945-0.61735-0.06945-1.2039 0-1.8521 0.78713-0.64051 0.77942-0.64051 2.2456v4.553h-1.4276v-8.643h1.4276v1.3428q0.44758-0.78713 1.1653-1.1653 0.71768-0.38585 1.744-0.38585 0.14663 0 0.32412 0.02315 0.17749 0.01543 0.39356 0.05402z" style=""/>
    <path id="path871" d="m396.03 92.175q-1.1421 0-1.8058 0.89517-0.66367 0.88745-0.66367 2.4386 0 1.5511 0.65595 2.4463 0.66366 0.88745 1.8135 0.88745 1.1344 0 1.7981-0.89517t0.66366-2.4386q0-1.5357-0.66366-2.4309-0.66366-0.90289-1.7981-0.90289zm0-1.2038q1.8521 0 2.9093 1.2038 1.0572 1.2039 1.0572 3.3337 0 2.1222-1.0572 3.3337-1.0572 1.2039-2.9093 1.2039-1.8598 0-2.917-1.2039-1.0495-1.2116-1.0495-3.3337 0-2.1299 1.0495-3.3337 1.0572-1.2038 2.917-1.2038z" style=""/>
    <path id="path873" d="m402.7 91.65h1.6283v1.9601h-1.6283zm0 6.2122h1.6283v1.3273l-1.2656 2.4694h-0.99549l0.63279-2.4694z" style=""/>
    <path id="path875" d="m412.93 88.301h6.1196v1.3119h-4.6919v2.8244q0.33954-0.11576 0.67909-0.16977 0.33955-0.06174 0.6791-0.06174 1.9292 0 3.0559 1.0572t1.1267 2.863q0 1.8598-1.1576 2.8939-1.1576 1.0264-3.2643 1.0264-0.7254 0-1.4817-0.12347-0.74855-0.12347-1.5511-0.37042v-1.5665q0.69453 0.37813 1.4354 0.56334t1.5666 0.18521q1.335 0 2.1145-0.70225 0.77942-0.70225 0.77942-1.9061 0-1.2039-0.77942-1.9061-0.77942-0.70225-2.1145-0.70225-0.62507 0-1.2502 0.13891-0.61736 0.13891-1.2656 0.43215z" style=""/>
   </g>
  </g>
  <g id="g16">
   <path id="rect10" d="m200 140h100v30h-100z" fill="#7babe3" stroke="#000" stroke-width="2"/>
   <g id="text14" aria-label="ablak; 2">
    <path id="path879" d="m223.72 155.48q-1.7209 0-2.3846 0.39357-0.66366 0.39356-0.66366 1.3428 0 0.75627 0.49389 1.2038 0.5016 0.43987 1.3582 0.43987 1.1807 0 1.8907-0.83343 0.71768-0.84116 0.71768-2.2302v-0.3164zm2.8321-0.58649v4.9312h-1.4199v-1.3119q-0.48617 0.78713-1.2116 1.1653-0.7254 0.37042-1.7749 0.37042-1.3273 0-2.1145-0.74083-0.77941-0.74855-0.77941-1.9987 0-1.4585 0.97234-2.1994 0.98005-0.74083 2.917-0.74083h1.991v-0.1389q0-0.98006-0.64822-1.5125-0.64051-0.54019-1.8058-0.54019-0.74083 0-1.4431 0.17749-0.70224 0.17749-1.3505 0.53247v-1.3119q0.77941-0.30096 1.5125-0.44758 0.73311-0.15434 1.4276-0.15434 1.8752 0 2.8013 0.97234t0.92604 2.9479z" style=""/>
    <path id="path881" d="m235.68 155.51q0-1.5666-0.64823-2.454-0.64051-0.89517-1.7672-0.89517t-1.7749 0.89517q-0.64051 0.88746-0.64051 2.454t0.64051 2.4617q0.64823 0.88745 1.7749 0.88745t1.7672-0.88745q0.64823-0.89517 0.64823-2.4617zm-4.8308-3.0174q0.44759-0.7717 1.1267-1.1421 0.68681-0.37813 1.636-0.37813 1.5743 0 2.5543 1.2502 0.98777 1.2502 0.98777 3.2874 0 2.0373-0.98777 3.2874-0.98006 1.2502-2.5543 1.2502-0.94919 0-1.636-0.37042-0.67909-0.37813-1.1267-1.1498v1.2965h-1.4276v-12.008h1.4276z" style=""/>
    <path id="path883" d="m239.51 147.81h1.4199v12.008h-1.4199z" style=""/>
    <path id="path885" d="m247.82 155.48q-1.7209 0-2.3846 0.39357-0.66366 0.39356-0.66366 1.3428 0 0.75627 0.49388 1.2038 0.50161 0.43987 1.3582 0.43987 1.1807 0 1.8907-0.83343 0.71768-0.84116 0.71768-2.2302v-0.3164zm2.8321-0.58649v4.9312h-1.4199v-1.3119q-0.48617 0.78713-1.2116 1.1653-0.7254 0.37042-1.7749 0.37042-1.3273 0-2.1145-0.74083-0.77941-0.74855-0.77941-1.9987 0-1.4585 0.97234-2.1994 0.98006-0.74083 2.917-0.74083h1.991v-0.1389q0-0.98006-0.64823-1.5125-0.64051-0.54019-1.8058-0.54019-0.74083 0-1.4431 0.17749-0.70225 0.17749-1.3505 0.53247v-1.3119q0.77942-0.30096 1.5125-0.44758 0.73312-0.15434 1.4276-0.15434 1.8752 0 2.8013 0.97234 0.92604 0.97234 0.92604 2.9479z" style=""/>
    <path id="path887" d="m253.53 147.81h1.4276v7.0919l4.2366-3.7273h1.8135l-4.5839 4.0437 4.7768 4.5993h-1.8521l-4.391-4.2212v4.2212h-1.4276z" style=""/>
    <path id="path889" d="m263.12 151.65h1.6283v1.9601h-1.6283zm0 6.2122h1.6283v1.3273l-1.2656 2.4694h-0.99549l0.6328-2.4694z" style=""/>
    <path id="path891" d="m274.67 158.51h5.4405v1.3119h-7.3157v-1.3119q0.88745-0.91832 2.4154-2.4617 1.5357-1.5511 1.9292-1.9987 0.74855-0.84116 1.0418-1.4199 0.30096-0.58649 0.30096-1.1498 0-0.91832-0.64823-1.4971-0.64051-0.57877-1.6746-0.57877-0.73311 0-1.5511 0.25466-0.81029 0.25466-1.7363 0.7717v-1.5743q0.94147-0.37813 1.7595-0.57106 0.818-0.19292 1.4971-0.19292 1.7903 0 2.8553 0.89517 1.065 0.89517 1.065 2.3923 0 0.70996-0.2701 1.3505-0.26237 0.63279-0.96462 1.4971-0.19293 0.22379-1.227 1.2964-1.0341 1.065-2.917 2.9865z" style=""/>
   </g>
  </g>
  <g id="g24">
   <path id="rect18" d="m480 140h100v30h-100z" fill="#7babe3" stroke="#000" stroke-width="2"/>
   <g id="text22" aria-label="zsiráf; 3">
    <path id="path895" d="m499.31 151.18h6.7446v1.2965l-5.3402 6.2122h5.3402v1.1344h-6.9376v-1.2965l5.3402-6.2122h-5.1472z" style=""/>
    <path id="path897" d="m513.74 151.43v1.3428q-0.60193-0.30868-1.2502-0.46302-0.64822-0.15434-1.3428-0.15434-1.0572 0-1.5897 0.32412-0.52476 0.32411-0.52476 0.97234 0 0.49389 0.37813 0.77941 0.37814 0.27782 1.5202 0.53248l0.48617 0.10803q1.5125 0.32412 2.1453 0.91833 0.64051 0.58649 0.64051 1.6437 0 1.2038-0.95691 1.9061-0.94919 0.70225-2.6161 0.70225-0.69453 0-1.4508-0.13891-0.74854-0.13119-1.582-0.40128v-1.4662q0.78713 0.409 1.5511 0.61736 0.76398 0.20064 1.5125 0.20064 1.0032 0 1.5434-0.33955 0.54019-0.34726 0.54019-0.97234 0-0.57877-0.39357-0.88745-0.38585-0.30868-1.7055-0.59421l-0.49388-0.11575q-1.3196-0.27782-1.9061-0.84887-0.58649-0.57878-0.58649-1.582 0-1.2193 0.8643-1.8829t2.454-0.66366q0.78714 0 1.4817 0.11575 0.69453 0.11576 1.281 0.34727z" style=""/>
    <path id="path899" d="m516.47 151.18h1.4199v8.643h-1.4199zm0-3.3646h1.4199v1.7981h-1.4199z" style=""/>
    <path id="path901" d="m525.86 152.51q-0.23922-0.13891-0.52475-0.20064-0.27781-0.0695-0.61736-0.0695-1.2038 0-1.8521 0.78714-0.64051 0.77941-0.64051 2.2456v4.553h-1.4276v-8.643h1.4276v1.3428q0.44758-0.78713 1.1653-1.1653 0.71768-0.38585 1.744-0.38585 0.14662 0 0.32411 0.0232 0.17749 0.0154 0.39357 0.054z" style=""/>
    <path id="path903" d="m531.3 155.48q-1.7209 0-2.3846 0.39357-0.66366 0.39356-0.66366 1.3428 0 0.75627 0.49389 1.2038 0.50161 0.43987 1.3582 0.43987 1.1807 0 1.8907-0.83343 0.71768-0.84116 0.71768-2.2302v-0.3164zm2.8321-0.58649v4.9312h-1.4199v-1.3119q-0.48617 0.78713-1.2116 1.1653-0.7254 0.37042-1.7749 0.37042-1.3273 0-2.1145-0.74083-0.77941-0.74855-0.77941-1.9987 0-1.4585 0.97234-2.1994 0.98006-0.74083 2.917-0.74083h1.991v-0.1389q0-0.98006-0.64822-1.5125-0.64051-0.54019-1.8058-0.54019-0.74083 0-1.4431 0.17749-0.70224 0.17749-1.3505 0.53247v-1.3119q0.77942-0.30096 1.5125-0.44758 0.73311-0.15434 1.4276-0.15434 1.8752 0 2.8013 0.97234t0.92604 2.9479zm-2.5929-7.7093h1.5357l-2.5157 2.9016h-1.1807z" style=""/>
    <path id="path905" d="m541.44 147.81v1.1807h-1.3582q-0.76398 0-1.0649 0.30868-0.29325 0.30868-0.29325 1.1112v0.76398h2.3382v1.1035h-2.3382v7.5395h-1.4276v-7.5395h-1.3582v-1.1035h1.3582v-0.60192q0-1.4431 0.67138-2.099 0.67137-0.66366 2.1299-0.66366z" style=""/>
    <path id="path907" d="m542.98 151.65h1.6283v1.9601h-1.6283zm0 6.2122h1.6283v1.3273l-1.2656 2.4694h-0.99549l0.63279-2.4694z" style=""/>
    <path id="path909" d="m557.91 153.61q1.119 0.23922 1.744 0.99549 0.63279 0.75626 0.63279 1.8675 0 1.7055-1.173 2.6392-1.173 0.93376-3.3337 0.93376-0.7254 0-1.4971-0.14662-0.76398-0.13891-1.582-0.42444v-1.5048q0.64823 0.37813 1.4199 0.57106 0.7717 0.19292 1.6128 0.19292 1.4662 0 2.2302-0.57877 0.7717-0.57878 0.7717-1.6823 0-1.0186-0.71768-1.5897-0.70997-0.57877-1.9833-0.57877h-1.3428v-1.281h1.4045q1.1498 0 1.7595-0.45531 0.60964-0.46302 0.60964-1.3273 0-0.88745-0.63279-1.3582-0.62508-0.47845-1.7981-0.47845-0.64051 0-1.3736 0.1389-0.73312 0.13891-1.6129 0.43215v-1.389q0.88746-0.24695 1.6592-0.37042 0.77941-0.12347 1.4662-0.12347 1.7749 0 2.809 0.81028 1.0341 0.80257 1.0341 2.1762 0 0.95691-0.54791 1.6206-0.5479 0.65595-1.5588 0.91061z" style=""/>
   </g>
  </g>
  <g id="g32">
   <path id="rect26" d="m260 200h100v30h-100z" fill="#7babe3" stroke="#000" stroke-width="2"/>
   <g id="text30" aria-label="asztal; 9">
    <path id="path913" d="m281.94 215.48q-1.7209 0-2.3846 0.39357-0.66366 0.39356-0.66366 1.3428 0 0.75627 0.49389 1.2038 0.50161 0.43987 1.3582 0.43987 1.1807 0 1.8907-0.83343 0.71769-0.84116 0.71769-2.2302v-0.3164zm2.8321-0.58649v4.9312h-1.4199v-1.3119q-0.48618 0.78713-1.2116 1.1653-0.7254 0.37042-1.7749 0.37042-1.3273 0-2.1145-0.74083-0.77941-0.74855-0.77941-1.9987 0-1.4585 0.97234-2.1994 0.98006-0.74083 2.917-0.74083h1.991v-0.1389q0-0.98006-0.64823-1.5125-0.64051-0.54019-1.8058-0.54019-0.74083 0-1.4431 0.17749-0.70224 0.17749-1.3505 0.53247v-1.3119q0.77942-0.30096 1.5125-0.44758 0.73312-0.15434 1.4276-0.15434 1.8752 0 2.8013 0.97234t0.92604 2.9479z" style=""/>
    <path id="path915" d="m293.22 211.43v1.3428q-0.60192-0.30868-1.2502-0.46302t-1.3428-0.15434q-1.0572 0-1.5897 0.32412-0.52475 0.32411-0.52475 0.97234 0 0.49389 0.37813 0.77941 0.37813 0.27782 1.5202 0.53248l0.48617 0.10803q1.5125 0.32412 2.1453 0.91833 0.64051 0.58649 0.64051 1.6437 0 1.2038-0.95691 1.9061-0.94919 0.70225-2.6161 0.70225-0.69453 0-1.4508-0.13891-0.74855-0.13119-1.582-0.40128v-1.4662q0.78713 0.409 1.5511 0.61736 0.76398 0.20064 1.5125 0.20064 1.0032 0 1.5434-0.33955 0.54019-0.34726 0.54019-0.97234 0-0.57877-0.39357-0.88745-0.38585-0.30868-1.7054-0.59421l-0.49389-0.11575q-1.3196-0.27782-1.9061-0.84887-0.58649-0.57878-0.58649-1.582 0-1.2193 0.8643-1.8829 0.86431-0.66366 2.454-0.66366 0.78713 0 1.4817 0.11575 0.69453 0.11576 1.281 0.34727z" style=""/>
    <path id="path917" d="m295.33 211.18h6.7446v1.2965l-5.3402 6.2122h5.3402v1.1344h-6.9376v-1.2965l5.3402-6.2122h-5.1472z" style=""/>
    <path id="path919" d="m305.66 208.72v2.454h2.9247v1.1035h-2.9247v4.6919q0 1.0572 0.28553 1.3582 0.29325 0.30096 1.1807 0.30096h1.4585v1.1884h-1.4585q-1.6437 0-2.2688-0.60965-0.62508-0.61736-0.62508-2.2379v-4.6919h-1.0418v-1.1035h1.0418v-2.454z" style=""/>
    <path id="path921" d="m314.38 215.48q-1.7209 0-2.3846 0.39357-0.66366 0.39356-0.66366 1.3428 0 0.75627 0.49389 1.2038 0.5016 0.43987 1.3582 0.43987 1.1807 0 1.8907-0.83343 0.71768-0.84116 0.71768-2.2302v-0.3164zm2.8321-0.58649v4.9312h-1.4199v-1.3119q-0.48617 0.78713-1.2116 1.1653-0.7254 0.37042-1.7749 0.37042-1.3273 0-2.1145-0.74083-0.77942-0.74855-0.77942-1.9987 0-1.4585 0.97235-2.1994 0.98005-0.74083 2.917-0.74083h1.991v-0.1389q0-0.98006-0.64822-1.5125-0.64051-0.54019-1.8058-0.54019-0.74083 0-1.4431 0.17749-0.70224 0.17749-1.3505 0.53247v-1.3119q0.77941-0.30096 1.5125-0.44758 0.73311-0.15434 1.4276-0.15434 1.8752 0 2.8013 0.97234t0.92604 2.9479z" style=""/>
    <path id="path923" d="m320.15 207.81h1.4199v12.008h-1.4199z" style=""/>
    <path id="path925" d="m324.89 211.65h1.6283v1.9601h-1.6283zm0 6.2122h1.6283v1.3273l-1.2656 2.4694h-0.99549l0.63279-2.4694z" style=""/>
    <path id="path927" d="m335.15 219.58v-1.4199q0.58649 0.27781 1.1884 0.42444 0.60193 0.14662 1.1807 0.14662 1.5434 0 2.3537-1.0341 0.818-1.0418 0.93375-3.1562-0.44758 0.66366-1.1344 1.0186-0.68682 0.35498-1.5202 0.35498-1.7286 0-2.7395-1.0418-1.0032-1.0495-1.0032-2.863 0-1.7749 1.0495-2.8476t2.7936-1.0727q1.9987 0 3.0482 1.5357 1.0572 1.528 1.0572 4.445 0 2.7241-1.2965 4.3524-1.2887 1.6206-3.4726 1.6206-0.58649 0-1.1884-0.11576-0.60192-0.11575-1.2502-0.34726zm3.1022-4.8849q1.0495 0 1.6592-0.71768 0.61736-0.71768 0.61736-1.9678 0-1.2424-0.61736-1.9601-0.60964-0.72539-1.6592-0.72539t-1.6669 0.72539q-0.60964 0.71768-0.60964 1.9601 0 1.2502 0.60964 1.9678 0.61736 0.71768 1.6669 0.71768z" style=""/>
   </g>
  </g>
  <g id="g40">
   <path id="rect34" d="m320 260h100v30h-100z" fill="#7babe3" stroke="#000" stroke-width="2"/>
   <g id="text38" aria-label="bútor; 1">
    <path id="path931" d="m346.25 275.51q0-1.5666-0.64822-2.454-0.64051-0.89517-1.7672-0.89517-1.1267 0-1.7749 0.89517-0.64051 0.88745-0.64051 2.454t0.64051 2.4617q0.64822 0.88746 1.7749 0.88746 1.1267 0 1.7672-0.88746 0.64822-0.89517 0.64822-2.4617zm-4.8308-3.0173q0.44758-0.7717 1.1267-1.1421 0.68681-0.37813 1.636-0.37813 1.5743 0 2.5543 1.2502 0.98778 1.2502 0.98778 3.2874 0 2.0373-0.98778 3.2874-0.98005 1.2502-2.5543 1.2502-0.94919 0-1.636-0.37041-0.6791-0.37813-1.1267-1.1498v1.2964h-1.4276v-12.008h1.4276z" style=""/>
    <path id="path933" d="m349.94 276.41v-5.2321h1.4199v5.1781q0 1.227 0.47845 1.8444 0.47845 0.60964 1.4354 0.60964 1.1498 0 1.8135-0.73311 0.67138-0.73311 0.67138-1.9987v-4.9003h1.4199v8.643h-1.4199v-1.3273q-0.51704 0.78713-1.2038 1.173-0.67909 0.37813-1.582 0.37813-1.4894 0-2.2611-0.92604-0.7717-0.92603-0.7717-2.7087zm3.573-5.4405zm1.0572-3.789h1.5357l-2.5157 2.9016h-1.1807z" style=""/>
    <path id="path935" d="m361.52 268.72v2.454h2.9247v1.1035h-2.9247v4.6919q0 1.0572 0.28552 1.3582 0.29325 0.30096 1.1807 0.30096h1.4585v1.1884h-1.4585q-1.6437 0-2.2688-0.60964-0.62508-0.61736-0.62508-2.2379v-4.6919h-1.0418v-1.1035h1.0418v-2.454z" style=""/>
    <path id="path937" d="m369.67 272.17q-1.1421 0-1.8058 0.89517-0.66366 0.88746-0.66366 2.4386 0 1.5511 0.65595 2.4463 0.66366 0.88745 1.8135 0.88745 1.1344 0 1.7981-0.89517t0.66366-2.4386q0-1.5357-0.66366-2.4308-0.66366-0.90289-1.7981-0.90289zm0-1.2038q1.8521 0 2.9093 1.2038 1.0572 1.2038 1.0572 3.3337 0 2.1222-1.0572 3.3337-1.0572 1.2038-2.9093 1.2038-1.8598 0-2.917-1.2038-1.0495-1.2116-1.0495-3.3337 0-2.1299 1.0495-3.3337 1.0572-1.2038 2.917-1.2038z" style=""/>
    <path id="path939" d="m380.99 272.51q-0.23923-0.1389-0.52476-0.20064-0.27781-0.0694-0.61736-0.0694-1.2038 0-1.8521 0.78713-0.64051 0.77942-0.64051 2.2456v4.553h-1.4276v-8.643h1.4276v1.3428q0.44759-0.78714 1.1653-1.1653 0.71768-0.38585 1.744-0.38585 0.14662 0 0.32411 0.0231 0.17749 0.0154 0.39357 0.054z" style=""/>
    <path id="path941" d="m382.86 271.65h1.6283v1.9601h-1.6283zm0 6.2122h1.6283v1.3273l-1.2656 2.4694h-0.99549l0.63279-2.4694z" style=""/>
    <path id="path943" d="m393.34 278.51h2.5466v-8.7896l-2.7704 0.55562v-1.4199l2.755-0.55562h1.5588v10.21h2.5466v1.3119h-6.6366z" style=""/>
   </g>
  </g>
  <g id="g48">
   <path id="rect42" d="m200 260h100v30h-100z" fill="#7babe3" stroke="#000" stroke-width="2"/>
   <g id="text46" aria-label="ajtó; 2">
    <path id="path947" d="m230.23 275.48q-1.7209 0-2.3846 0.39357-0.66366 0.39357-0.66366 1.3428 0 0.75626 0.49389 1.2038 0.50161 0.43987 1.3582 0.43987 1.1807 0 1.8907-0.83344 0.71769-0.84115 0.71769-2.2302v-0.3164zm2.8321-0.58649v4.9312h-1.4199v-1.3119q-0.48618 0.78714-1.2116 1.1653-0.7254 0.37041-1.7749 0.37041-1.3273 0-2.1145-0.74083-0.77941-0.74855-0.77941-1.9987 0-1.4585 0.97234-2.1993 0.98006-0.74083 2.917-0.74083h1.991v-0.13891q0-0.98006-0.64823-1.5125-0.64051-0.54019-1.8058-0.54019-0.74083 0-1.4431 0.17749-0.70224 0.17749-1.3505 0.53247v-1.3119q0.77942-0.30097 1.5125-0.44759 0.73312-0.15434 1.4276-0.15434 1.8752 0 2.8013 0.97234t0.92604 2.9479z" style=""/>
    <path id="path949" d="m235.99 271.18h1.4199v8.7974q0 1.6514-0.6328 2.3923-0.62507 0.74083-2.0218 0.74083h-0.54019v-1.2038h0.37813q0.81029 0 1.1035-0.37813 0.29325-0.37042 0.29325-1.5511zm0-3.3646h1.4199v1.7981h-1.4199z" style=""/>
    <path id="path951" d="m241.78 268.72v2.454h2.9247v1.1035h-2.9247v4.6919q0 1.0572 0.28553 1.3582 0.29325 0.30096 1.1807 0.30096h1.4585v1.1884h-1.4585q-1.6437 0-2.2688-0.60964-0.62508-0.61736-0.62508-2.2379v-4.6919h-1.0418v-1.1035h1.0418v-2.454z" style=""/>
    <path id="path953" d="m249.93 272.17q-1.1421 0-1.8058 0.89517-0.66366 0.88746-0.66366 2.4386 0 1.5511 0.65594 2.4463 0.66367 0.88745 1.8135 0.88745 1.1344 0 1.7981-0.89517t0.66366-2.4386q0-1.5357-0.66366-2.4308-0.66366-0.90289-1.7981-0.90289zm0-1.2038q1.8521 0 2.9093 1.2038 1.0572 1.2038 1.0572 3.3337 0 2.1222-1.0572 3.3337-1.0572 1.2038-2.9093 1.2038-1.8598 0-2.917-1.2038-1.0495-1.2116-1.0495-3.3337 0-2.1299 1.0495-3.3337 1.0572-1.2038 2.917-1.2038zm1.0727-3.789h1.5357l-2.5157 2.9016h-1.1807z" style=""/>
    <path id="path955" d="m256.61 271.65h1.6283v1.9601h-1.6283zm0 6.2122h1.6283v1.3273l-1.2656 2.4694h-0.99549l0.6328-2.4694z" style=""/>
    <path id="path957" d="m268.16 278.51h5.4405v1.3119h-7.3157v-1.3119q0.88746-0.91832 2.4154-2.4617 1.5357-1.5511 1.9292-1.9987 0.74855-0.84115 1.0418-1.4199 0.30097-0.58649 0.30097-1.1498 0-0.91832-0.64823-1.4971-0.64051-0.57878-1.6746-0.57878-0.73311 0-1.5511 0.25466-0.81029 0.25466-1.7363 0.7717v-1.5743q0.94148-0.37813 1.7595-0.57105 0.818-0.19293 1.4971-0.19293 1.7904 0 2.8553 0.89517 1.065 0.89517 1.065 2.3923 0 0.70996-0.2701 1.3505-0.26238 0.6328-0.96462 1.4971-0.19293 0.22379-1.227 1.2965-1.0341 1.0649-2.917 2.9865z" style=""/>
   </g>
  </g>
  <g id="g56">
   <path id="rect50" d="m418.89 200h102.75v30h-102.75z" fill="#7babe3" stroke="#000" stroke-width="2"/>
   <g id="text54" aria-label="november; 5">
    <path id="path961" d="m428.5 214.61v5.2167h-1.4199v-5.1704q0-1.227-0.47845-1.8366-0.47846-0.60965-1.4354-0.60965-1.1498 0-1.8135 0.73312-0.66366 0.73311-0.66366 1.9987v4.8849h-1.4276v-8.643h1.4276v1.3428q0.50932-0.77941 1.1961-1.1653 0.69453-0.38585 1.5974-0.38585 1.4894 0 2.2534 0.92604 0.76398 0.91832 0.76398 2.7087z" style=""/>
    <path id="path963" d="m434.7 212.17q-1.1421 0-1.8058 0.89517-0.66367 0.88745-0.66367 2.4386 0 1.5511 0.65595 2.4463 0.66366 0.88746 1.8135 0.88746 1.1344 0 1.7981-0.89517t0.66366-2.4386q0-1.5357-0.66366-2.4309-0.66366-0.90288-1.7981-0.90288zm0-1.2038q1.8521 0 2.9093 1.2038t1.0572 3.3337q0 2.1222-1.0572 3.3337-1.0572 1.2038-2.9093 1.2038-1.8598 0-2.917-1.2038-1.0495-1.2116-1.0495-3.3337 0-2.1299 1.0495-3.3337 1.0572-1.2038 2.917-1.2038z" style=""/>
    <path id="path965" d="m439.99 211.18h1.5048l2.701 7.254 2.701-7.254h1.5048l-3.2411 8.643h-1.9292z" style=""/>
    <path id="path967" d="m457.75 215.15v0.69453h-6.5286q0.0926 1.4662 0.87974 2.2379 0.79485 0.76398 2.2071 0.76398 0.818 0 1.582-0.20064 0.7717-0.20065 1.528-0.60193v1.3428q-0.76399 0.32411-1.5666 0.49389-0.80257 0.16977-1.6283 0.16977-2.0682 0-3.2797-1.2038-1.2038-1.2038-1.2038-3.2566 0-2.1222 1.1421-3.3646 1.1498-1.2502 3.0945-1.2502 1.744 0 2.755 1.1267 1.0186 1.119 1.0186 3.0482zm-1.4199-0.41672q-0.0154-1.1653-0.65594-1.8598-0.6328-0.69453-1.6823-0.69453-1.1884 0-1.9061 0.67138-0.70996 0.67137-0.818 1.8907z" style=""/>
    <path id="path969" d="m466.81 212.84q0.53247-0.95691 1.2733-1.4122t1.744-0.4553q1.3505 0 2.0836 0.94919 0.73311 0.94147 0.73311 2.6855v5.2167h-1.4276v-5.1704q0-1.2424-0.43987-1.8444t-1.3428-0.60193q-1.1035 0-1.744 0.73312-0.64051 0.73311-0.64051 1.9987v4.8849h-1.4276v-5.1704q0-1.2502-0.43987-1.8444-0.43987-0.60193-1.3582-0.60193-1.0881 0-1.7286 0.74084-0.64051 0.73311-0.64051 1.991v4.8849h-1.4276v-8.643h1.4276v1.3428q0.48617-0.79485 1.1653-1.173t1.6128-0.37813q0.94147 0 1.5974 0.47845 0.66366 0.47845 0.98006 1.3891z" style=""/>
    <path id="path971" d="m481.69 215.51q0-1.5666-0.64823-2.454-0.64051-0.89517-1.7672-0.89517t-1.7749 0.89517q-0.64051 0.88746-0.64051 2.454t0.64051 2.4617q0.64823 0.88745 1.7749 0.88745t1.7672-0.88745q0.64823-0.89517 0.64823-2.4617zm-4.8308-3.0174q0.44758-0.7717 1.1267-1.1421 0.68681-0.37813 1.636-0.37813 1.5743 0 2.5543 1.2502 0.98777 1.2502 0.98777 3.2874 0 2.0373-0.98777 3.2874-0.98006 1.2502-2.5543 1.2502-0.94919 0-1.636-0.37042-0.6791-0.37813-1.1267-1.1498v1.2965h-1.4276v-12.008h1.4276z" style=""/>
    <path id="path973" d="m492.91 215.15v0.69453h-6.5286q0.0926 1.4662 0.87973 2.2379 0.79485 0.76398 2.2071 0.76398 0.818 0 1.582-0.20064 0.7717-0.20065 1.528-0.60193v1.3428q-0.76398 0.32411-1.5666 0.49389-0.80257 0.16977-1.6283 0.16977-2.0682 0-3.2797-1.2038-1.2038-1.2038-1.2038-3.2566 0-2.1222 1.1421-3.3646 1.1498-1.2502 3.0945-1.2502 1.744 0 2.755 1.1267 1.0186 1.119 1.0186 3.0482zm-1.4199-0.41672q-0.0154-1.1653-0.65595-1.8598-0.63279-0.69453-1.6823-0.69453-1.1884 0-1.9061 0.67138-0.70996 0.67137-0.818 1.8907z" style=""/>
    <path id="path975" d="m500.25 212.51q-0.23922-0.13891-0.52475-0.20064-0.27781-0.0695-0.61736-0.0695-1.2038 0-1.8521 0.78714-0.64051 0.77941-0.64051 2.2456v4.553h-1.4276v-8.643h1.4276v1.3428q0.44759-0.78713 1.1653-1.1653 0.71768-0.38585 1.744-0.38585 0.14662 0 0.32411 0.0232 0.17749 0.0154 0.39357 0.054z" style=""/>
    <path id="path977" d="m502.12 211.65h1.6283v1.9601h-1.6283zm0 6.2122h1.6283v1.3273l-1.2656 2.4694h-0.99549l0.63279-2.4694z" style=""/>
    <path id="path979" d="m512.34 208.3h6.1196v1.3119h-4.6919v2.8244q0.33954-0.11575 0.67909-0.16977 0.33955-0.0617 0.6791-0.0617 1.9292 0 3.0559 1.0572 1.1267 1.0572 1.1267 2.863 0 1.8598-1.1576 2.8939-1.1576 1.0264-3.2643 1.0264-0.7254 0-1.4817-0.12347-0.74855-0.12347-1.5511-0.37042v-1.5666q0.69453 0.37813 1.4354 0.56334t1.5666 0.18521q1.335 0 2.1145-0.70225 0.77941-0.70224 0.77941-1.9061t-0.77941-1.9061q-0.77942-0.70225-2.1145-0.70225-0.62508 0-1.2502 0.13891-0.61736 0.13891-1.2656 0.43215z" style=""/>
   </g>
  </g>
  <g id="g62" fill="none" stroke="#000" stroke-width="2">
   <path id="line58" d="m351.69 111-60.595 26.218"/>
   <path id="polyline60" d="m296.23 129.55-7.192 8.56 11.163 0.618"/>
  </g>
  <g id="g68" fill="none" stroke="#000" stroke-width="2">
   <path id="line64" d="m426.37 111 61.819 26.246"/>
   <path id="polyline66" d="m479.09 138.82 11.159-0.694-7.251-8.511"/>
  </g>
  <g id="g74" fill="none" stroke="#000" stroke-width="2">
   <path id="line70" d="m514.07 171-24.715 24.824"/>
   <path id="polyline72" d="m491.29 186.8-3.512 10.614 10.599-3.559"/>
  </g>
  <g id="g80" fill="none" stroke="#000" stroke-width="2">
   <path id="line76" d="m266 171 24.831 24.831"/>
   <path id="polyline78" d="m281.81 193.88 10.606 3.535-3.535-10.606"/>
  </g>
  <g id="g86" fill="none" stroke="#000" stroke-width="2">
   <path id="line82" d="m294 231-24.831 24.831"/>
   <path id="polyline84" d="m271.12 246.81-3.535 10.606 10.606-3.535"/>
  </g>
  <g id="g92" fill="none" stroke="#000" stroke-width="2">
   <path id="line88" d="m326 231 24.831 24.831"/>
   <path id="polyline90" d="m341.81 253.88 10.606 3.535-3.535-10.606"/>
  </g>
 </g>
</svg>
