<?xml version="1.0" encoding="UTF-8"?>
<svg id="svg215" width="29cm" height="19.418cm" version="1.1" viewBox="199 15 572 374.77" xmlns="http://www.w3.org/2000/svg" xmlns:cc="http://creativecommons.org/ns#" xmlns:dc="http://purl.org/dc/elements/1.1/" xmlns:rdf="http://www.w3.org/1999/02/22-rdf-syntax-ns#">
 <metadata id="metadata219">
  <rdf:RDF>
   <cc:Work rdf:about="">
    <dc:format>image/svg+xml</dc:format>
    <dc:type rdf:resource="http://purl.org/dc/dcmitype/StillImage"/>
   </cc:Work>
  </rdf:RDF>
 </metadata>
 <g id="Háttér" transform="translate(0 -7.1104)">
  <g id="g10">
   <path id="rect4" d="m200 140h120v40h-120z" fill="#fff" stroke="#000" stroke-width="2"/>
   <g id="text8" aria-label="Tapsi Hapsi">
    <path id="path919" d="m215.63 153.3h9.7466v1.3119h-4.09v10.21h-1.5666v-10.21h-4.09z" style=""/>
    <path id="path921" d="m228.13 160.48q-1.7209 0-2.3846 0.39357-0.66366 0.39356-0.66366 1.3428 0 0.75627 0.49389 1.2038 0.5016 0.43987 1.3582 0.43987 1.1807 0 1.8907-0.83343 0.71768-0.84116 0.71768-2.2302v-0.3164zm2.8321-0.58649v4.9312h-1.4199v-1.3119q-0.48617 0.78713-1.2116 1.1653-0.72539 0.37042-1.7749 0.37042-1.3273 0-2.1144-0.74083-0.77942-0.74855-0.77942-1.9987 0-1.4585 0.97234-2.1994 0.98006-0.74083 2.917-0.74083h1.991v-0.1389q0-0.98006-0.64823-1.5125-0.64051-0.54019-1.8058-0.54019-0.74083 0-1.4431 0.17749t-1.3505 0.53247v-1.3119q0.77941-0.30096 1.5125-0.44758 0.73311-0.15434 1.4276-0.15434 1.8752 0 2.8013 0.97234t0.92604 2.9479z" style=""/>
    <path id="path923" d="m235.27 163.53v4.5839h-1.4276v-11.93h1.4276v1.3119q0.44758-0.7717 1.1267-1.1421 0.68681-0.37813 1.636-0.37813 1.5743 0 2.5543 1.2502 0.98777 1.2502 0.98777 3.2874 0 2.0373-0.98777 3.2874-0.98006 1.2502-2.5543 1.2502-0.94919 0-1.636-0.37042-0.6791-0.37813-1.1267-1.1498zm4.8308-3.0173q0-1.5666-0.64823-2.454-0.64051-0.89517-1.7672-0.89517t-1.7749 0.89517q-0.64051 0.88746-0.64051 2.454t0.64051 2.4617q0.64823 0.88745 1.7749 0.88745t1.7672-0.88745q0.64823-0.89517 0.64823-2.4617z" style=""/>
    <path id="path925" d="m249.44 156.43v1.3428q-0.60193-0.30868-1.2502-0.46302-0.64822-0.15434-1.3428-0.15434-1.0572 0-1.5897 0.32412-0.52476 0.32411-0.52476 0.97234 0 0.49389 0.37813 0.77941 0.37814 0.27782 1.5202 0.53248l0.48617 0.10803q1.5125 0.32412 2.1453 0.91833 0.64051 0.58649 0.64051 1.6437 0 1.2038-0.95691 1.9061-0.94919 0.70225-2.6161 0.70225-0.69453 0-1.4508-0.13891-0.74854-0.13119-1.582-0.40128v-1.4662q0.78713 0.409 1.5511 0.61736 0.76398 0.20064 1.5125 0.20064 1.0032 0 1.5434-0.33955 0.54019-0.34726 0.54019-0.97234 0-0.57877-0.39357-0.88745-0.38585-0.30868-1.7055-0.59421l-0.49388-0.11575q-1.3196-0.27782-1.9061-0.84887-0.58649-0.57878-0.58649-1.582 0-1.2193 0.8643-1.8829t2.454-0.66366q0.78714 0 1.4817 0.11575 0.69453 0.11576 1.281 0.34727z" style=""/>
    <path id="path927" d="m252.17 156.18h1.4199v8.643h-1.4199zm0-3.3646h1.4199v1.7981h-1.4199z" style=""/>
    <path id="path929" d="m261.64 153.3h1.5588v4.7228h5.6643v-4.7228h1.5588v11.521h-1.5588v-5.4868h-5.6643v5.4868h-1.5588z" style=""/>
    <path id="path931" d="m277.39 160.48q-1.7209 0-2.3846 0.39357-0.66366 0.39356-0.66366 1.3428 0 0.75627 0.49389 1.2038 0.5016 0.43987 1.3582 0.43987 1.1807 0 1.8907-0.83343 0.71768-0.84116 0.71768-2.2302v-0.3164zm2.8321-0.58649v4.9312h-1.4199v-1.3119q-0.48617 0.78713-1.2116 1.1653-0.72539 0.37042-1.7749 0.37042-1.3273 0-2.1144-0.74083-0.77942-0.74855-0.77942-1.9987 0-1.4585 0.97234-2.1994 0.98006-0.74083 2.917-0.74083h1.991v-0.1389q0-0.98006-0.64823-1.5125-0.64051-0.54019-1.8058-0.54019-0.74083 0-1.4431 0.17749t-1.3505 0.53247v-1.3119q0.77941-0.30096 1.5125-0.44758 0.73311-0.15434 1.4276-0.15434 1.8752 0 2.8013 0.97234t0.92604 2.9479z" style=""/>
    <path id="path933" d="m284.53 163.53v4.5839h-1.4276v-11.93h1.4276v1.3119q0.44759-0.7717 1.1267-1.1421 0.68681-0.37813 1.636-0.37813 1.5743 0 2.5543 1.2502 0.98777 1.2502 0.98777 3.2874 0 2.0373-0.98777 3.2874-0.98006 1.2502-2.5543 1.2502-0.94919 0-1.636-0.37042-0.67909-0.37813-1.1267-1.1498zm4.8308-3.0173q0-1.5666-0.64823-2.454-0.64051-0.89517-1.7672-0.89517t-1.7749 0.89517q-0.64051 0.88746-0.64051 2.454t0.64051 2.4617q0.64823 0.88745 1.7749 0.88745t1.7672-0.88745q0.64823-0.89517 0.64823-2.4617z" style=""/>
    <path id="path935" d="m298.7 156.43v1.3428q-0.60193-0.30868-1.2502-0.46302-0.64822-0.15434-1.3428-0.15434-1.0572 0-1.5897 0.32412-0.52476 0.32411-0.52476 0.97234 0 0.49389 0.37813 0.77941 0.37814 0.27782 1.5202 0.53248l0.48617 0.10803q1.5125 0.32412 2.1453 0.91833 0.64051 0.58649 0.64051 1.6437 0 1.2038-0.95691 1.9061-0.94919 0.70225-2.6161 0.70225-0.69453 0-1.4508-0.13891-0.74854-0.13119-1.582-0.40128v-1.4662q0.78713 0.409 1.5511 0.61736 0.76398 0.20064 1.5125 0.20064 1.0032 0 1.5434-0.33955 0.54018-0.34726 0.54018-0.97234 0-0.57877-0.39356-0.88745-0.38585-0.30868-1.7055-0.59421l-0.49388-0.11575q-1.3196-0.27782-1.9061-0.84887-0.58649-0.57878-0.58649-1.582 0-1.2193 0.8643-1.8829t2.454-0.66366q0.78714 0 1.4817 0.11575 0.69453 0.11576 1.281 0.34727z" style=""/>
    <path id="path937" d="m301.43 156.18h1.4199v8.643h-1.4199zm0-3.3646h1.4199v1.7981h-1.4199z" style=""/>
   </g>
  </g>
  <g id="g18">
   <path id="rect12" d="m200 200h120v40h-120z" fill="#fff" stroke="#000" stroke-width="2"/>
   <g id="text16" aria-label="Donald Kacsa">
    <path id="path941" d="m209.4 214.58v8.9594h1.883q2.3846 0 3.4881-1.0804 1.1112-1.0804 1.1112-3.4109 0-2.3151-1.1112-3.3878-1.1035-1.0804-3.4881-1.0804zm-1.5588-1.281h3.2026q3.3492 0 4.9157 1.3968 1.5666 1.3891 1.5666 4.3524 0 2.9788-1.5743 4.3755-1.5743 1.3968-4.908 1.3968h-3.2026z" style=""/>
    <path id="path943" d="m223.29 217.17q-1.1421 0-1.8058 0.89517-0.66366 0.88745-0.66366 2.4386 0 1.5511 0.65594 2.4463 0.66366 0.88746 1.8135 0.88746 1.1344 0 1.7981-0.89517 0.66366-0.89517 0.66366-2.4386 0-1.5357-0.66366-2.4309-0.66367-0.90288-1.7981-0.90288zm0-1.2038q1.8521 0 2.9093 1.2038t1.0572 3.3337q0 2.1222-1.0572 3.3337-1.0572 1.2038-2.9093 1.2038-1.8598 0-2.917-1.2038-1.0495-1.2116-1.0495-3.3337 0-2.1299 1.0495-3.3337 1.0572-1.2038 2.917-1.2038z" style=""/>
    <path id="path945" d="m236.79 219.61v5.2167h-1.4199v-5.1704q0-1.227-0.47845-1.8366-0.47846-0.60965-1.4354-0.60965-1.1498 0-1.8135 0.73312-0.66366 0.73311-0.66366 1.9987v4.8849h-1.4276v-8.643h1.4276v1.3428q0.50932-0.77941 1.1961-1.1653 0.69452-0.38585 1.5974-0.38585 1.4894 0 2.2534 0.92604 0.76399 0.91832 0.76399 2.7087z" style=""/>
    <path id="path947" d="m243.56 220.48q-1.7209 0-2.3846 0.39357-0.66366 0.39356-0.66366 1.3428 0 0.75627 0.49389 1.2038 0.5016 0.43987 1.3582 0.43987 1.1807 0 1.8907-0.83343 0.71768-0.84116 0.71768-2.2302v-0.3164zm2.8321-0.58649v4.9312h-1.4199v-1.3119q-0.48617 0.78713-1.2116 1.1653-0.7254 0.37042-1.7749 0.37042-1.3273 0-2.1145-0.74083-0.77941-0.74855-0.77941-1.9987 0-1.4585 0.97234-2.1994 0.98006-0.74083 2.917-0.74083h1.991v-0.1389q0-0.98006-0.64822-1.5125-0.64051-0.54019-1.8058-0.54019-0.74083 0-1.4431 0.17749-0.70224 0.17749-1.3505 0.53247v-1.3119q0.77942-0.30096 1.5125-0.44758 0.73311-0.15434 1.4276-0.15434 1.8752 0 2.8013 0.97234t0.92604 2.9479z" style=""/>
    <path id="path949" d="m249.33 212.81h1.4199v12.008h-1.4199z" style=""/>
    <path id="path951" d="m259.4 217.49v-4.6765h1.4199v12.008h-1.4199v-1.2965q-0.44758 0.7717-1.1344 1.1498-0.6791 0.37042-1.636 0.37042-1.5666 0-2.5543-1.2502-0.98006-1.2502-0.98006-3.2874 0-2.0373 0.98006-3.2874 0.98777-1.2502 2.5543-1.2502 0.95691 0 1.636 0.37813 0.68681 0.37041 1.1344 1.1421zm-4.8386 3.0174q0 1.5666 0.64051 2.4617 0.64823 0.88745 1.7749 0.88745t1.7749-0.88745q0.64822-0.89517 0.64822-2.4617t-0.64822-2.454q-0.64823-0.89517-1.7749-0.89517t-1.7749 0.89517q-0.64051 0.88746-0.64051 2.454z" style=""/>
    <path id="path953" d="m268.84 213.3h1.5588v4.8694l5.1704-4.8694h2.0064l-5.7183 5.371 6.1273 6.1504h-2.0527l-5.5331-5.5485v5.5485h-1.5588z" style=""/>
    <path id="path955" d="m282.8 220.48q-1.7209 0-2.3846 0.39357-0.66366 0.39356-0.66366 1.3428 0 0.75627 0.49388 1.2038 0.50161 0.43987 1.3582 0.43987 1.1807 0 1.8907-0.83343 0.71768-0.84116 0.71768-2.2302v-0.3164zm2.8321-0.58649v4.9312h-1.4199v-1.3119q-0.48617 0.78713-1.2116 1.1653-0.7254 0.37042-1.7749 0.37042-1.3273 0-2.1144-0.74083-0.77942-0.74855-0.77942-1.9987 0-1.4585 0.97234-2.1994 0.98006-0.74083 2.917-0.74083h1.991v-0.1389q0-0.98006-0.64823-1.5125-0.64051-0.54019-1.8058-0.54019-0.74083 0-1.4431 0.17749-0.70225 0.17749-1.3505 0.53247v-1.3119q0.77942-0.30096 1.5125-0.44758 0.73312-0.15434 1.4276-0.15434 1.8752 0 2.8013 0.97234 0.92604 0.97234 0.92604 2.9479z" style=""/>
    <path id="path957" d="m294.78 216.51v1.3273q-0.60193-0.33183-1.2116-0.49389-0.60193-0.16977-1.2193-0.16977-1.3813 0-2.1453 0.87973-0.76398 0.87202-0.76398 2.454 0 1.582 0.76398 2.4617 0.76398 0.87202 2.1453 0.87202 0.61736 0 1.2193-0.16206 0.60964-0.16977 1.2116-0.5016v1.3119q-0.59421 0.27781-1.2347 0.41671-0.6328 0.13891-1.3505 0.13891-1.9524 0-3.1022-1.227-1.1498-1.227-1.1498-3.3106 0-2.1145 1.1576-3.326 1.1653-1.2116 3.1871-1.2116 0.65594 0 1.281 0.1389 0.62508 0.13119 1.2116 0.40129z" style=""/>
    <path id="path959" d="m302.78 216.43v1.3428q-0.60193-0.30868-1.2502-0.46302-0.64823-0.15434-1.3428-0.15434-1.0572 0-1.5897 0.32412-0.52476 0.32411-0.52476 0.97234 0 0.49389 0.37814 0.77941 0.37813 0.27782 1.5202 0.53248l0.48617 0.10803q1.5125 0.32412 2.1453 0.91833 0.64051 0.58649 0.64051 1.6437 0 1.2038-0.95691 1.9061-0.94919 0.70225-2.6161 0.70225-0.69453 0-1.4508-0.13891-0.74855-0.13119-1.582-0.40128v-1.4662q0.78714 0.409 1.5511 0.61736 0.76398 0.20064 1.5125 0.20064 1.0032 0 1.5434-0.33955 0.54019-0.34726 0.54019-0.97234 0-0.57877-0.39357-0.88745-0.38585-0.30868-1.7054-0.59421l-0.49389-0.11575q-1.3196-0.27782-1.9061-0.84887-0.58649-0.57878-0.58649-1.582 0-1.2193 0.8643-1.8829 0.86431-0.66366 2.454-0.66366 0.78713 0 1.4817 0.11575 0.69453 0.11576 1.281 0.34727z" style=""/>
    <path id="path961" d="m309.44 220.48q-1.7209 0-2.3846 0.39357-0.66366 0.39356-0.66366 1.3428 0 0.75627 0.49389 1.2038 0.5016 0.43987 1.3582 0.43987 1.1807 0 1.8907-0.83343 0.71768-0.84116 0.71768-2.2302v-0.3164zm2.8321-0.58649v4.9312h-1.4199v-1.3119q-0.48617 0.78713-1.2116 1.1653-0.72539 0.37042-1.7749 0.37042-1.3273 0-2.1144-0.74083-0.77942-0.74855-0.77942-1.9987 0-1.4585 0.97234-2.1994 0.98006-0.74083 2.917-0.74083h1.991v-0.1389q0-0.98006-0.64823-1.5125-0.64051-0.54019-1.8058-0.54019-0.74083 0-1.4431 0.17749t-1.3505 0.53247v-1.3119q0.77941-0.30096 1.5125-0.44758 0.73311-0.15434 1.4276-0.15434 1.8752 0 2.8013 0.97234t0.92604 2.9479z" style=""/>
   </g>
  </g>
  <g id="g26">
   <path id="rect20" d="m200 260h120v40h-120z" fill="#fff" stroke="#000" stroke-width="2"/>
   <g id="text24" aria-label="Taz">
    <path id="path965" d="m247.44 273.3h9.7466v1.3119h-4.09v10.21h-1.5666v-10.21h-4.09z" style=""/>
    <path id="path967" d="m259.94 280.48q-1.7209 0-2.3846 0.39357t-0.66366 1.3428q0 0.75626 0.49389 1.2038 0.5016 0.43987 1.3582 0.43987 1.1807 0 1.8907-0.83344 0.71768-0.84115 0.71768-2.2302v-0.3164zm2.8321-0.58649v4.9312h-1.4199v-1.3119q-0.48617 0.78714-1.2116 1.1653-0.7254 0.37041-1.7749 0.37041-1.3273 0-2.1145-0.74083-0.77941-0.74855-0.77941-1.9987 0-1.4585 0.97234-2.1993 0.98005-0.74083 2.917-0.74083h1.991v-0.13891q0-0.98006-0.64822-1.5125-0.64051-0.54019-1.8058-0.54019-0.74083 0-1.4431 0.17749-0.70224 0.17749-1.3505 0.53247v-1.3119q0.77942-0.30097 1.5125-0.44759 0.73311-0.15434 1.4276-0.15434 1.8752 0 2.8013 0.97234t0.92604 2.9479z" style=""/>
    <path id="path969" d="m265.09 276.18h6.7446v1.2964l-5.3402 6.2122h5.3402v1.1344h-6.9376v-1.2964l5.3402-6.2122h-5.1472z" style=""/>
   </g>
  </g>
  <g id="text30" aria-label="nevek">
   <path id="path972" d="m244.67 124.78v5.2167h-1.4199v-5.1704q0-1.227-0.47846-1.8366-0.47845-0.60964-1.4354-0.60964-1.1498 0-1.8135 0.73311-0.66366 0.73312-0.66366 1.9987v4.8849h-1.4276v-8.643h1.4276v1.3428q0.50932-0.77942 1.1961-1.1653 0.69453-0.38585 1.5974-0.38585 1.4894 0 2.2534 0.92604 0.76398 0.91832 0.76398 2.7087z" style=""/>
   <path id="path974" d="m254.91 125.32v0.69453h-6.5286q0.0926 1.4662 0.87973 2.2379 0.79485 0.76398 2.2071 0.76398 0.818 0 1.582-0.20064 0.7717-0.20064 1.528-0.60193v1.3428q-0.76398 0.32412-1.5666 0.49389t-1.6283 0.16977q-2.0682 0-3.2797-1.2038-1.2038-1.2038-1.2038-3.2566 0-2.1222 1.1421-3.3646 1.1498-1.2502 3.0945-1.2502 1.744 0 2.755 1.1267 1.0186 1.119 1.0186 3.0482zm-1.4199-0.41671q-0.0154-1.1653-0.65595-1.8598-0.63279-0.69453-1.6823-0.69453-1.1884 0-1.9061 0.67138-0.70996 0.67138-0.818 1.8907z" style=""/>
   <path id="path976" d="m256.23 121.36h1.5048l2.701 7.254 2.701-7.254h1.5048l-3.2411 8.643h-1.9292z" style=""/>
   <path id="path978" d="m273.99 125.32v0.69453h-6.5286q0.0926 1.4662 0.87974 2.2379 0.79485 0.76398 2.2071 0.76398 0.818 0 1.582-0.20064 0.7717-0.20064 1.528-0.60193v1.3428q-0.76399 0.32412-1.5666 0.49389-0.80257 0.16977-1.6283 0.16977-2.0682 0-3.2797-1.2038-1.2038-1.2038-1.2038-3.2566 0-2.1222 1.1421-3.3646 1.1498-1.2502 3.0945-1.2502 1.744 0 2.755 1.1267 1.0186 1.119 1.0186 3.0482zm-1.4199-0.41671q-0.0154-1.1653-0.65594-1.8598-0.6328-0.69453-1.6823-0.69453-1.1884 0-1.9061 0.67138-0.70997 0.67138-0.81801 1.8907z" style=""/>
   <path id="path980" d="m276.27 117.99h1.4276v7.0919l4.2366-3.7273h1.8135l-4.5839 4.0437 4.7768 4.5993h-1.8521l-4.391-4.2212v4.2212h-1.4276z" style=""/>
  </g>
  <path id="rect32" d="m360 40h40v360h-40z" fill="#7babe3" stroke="#7babe3" stroke-width="2"/>
  <g id="g40">
   <path id="rect34" d="m680 140h90v40h-90z" fill="#fff" stroke="#000" stroke-width="2"/>
   <g id="text38" aria-label="555-1298">
    <path id="path985" d="m688.63 153.3h6.1196v1.3119h-4.6919v2.8244q0.33955-0.11575 0.67909-0.16977 0.33955-0.0617 0.6791-0.0617 1.9292 0 3.0559 1.0572t1.1267 2.863q0 1.8598-1.1576 2.8939-1.1576 1.0264-3.2643 1.0264-0.72539 0-1.4817-0.12347-0.74855-0.12347-1.5511-0.37042v-1.5666q0.69453 0.37813 1.4354 0.56334 0.74084 0.18521 1.5666 0.18521 1.335 0 2.1145-0.70225 0.77942-0.70224 0.77942-1.9061t-0.77942-1.9061-2.1145-0.70225q-0.62507 0-1.2502 0.13891-0.61736 0.13891-1.2656 0.43215z" style=""/>
    <path id="path987" d="m698.69 153.3h6.1196v1.3119h-4.6919v2.8244q0.33954-0.11575 0.67909-0.16977 0.33955-0.0617 0.6791-0.0617 1.9292 0 3.0559 1.0572 1.1267 1.0572 1.1267 2.863 0 1.8598-1.1576 2.8939-1.1576 1.0264-3.2643 1.0264-0.7254 0-1.4817-0.12347-0.74855-0.12347-1.5511-0.37042v-1.5666q0.69453 0.37813 1.4354 0.56334t1.5666 0.18521q1.335 0 2.1145-0.70225 0.77941-0.70224 0.77941-1.9061t-0.77941-1.9061q-0.77942-0.70225-2.1145-0.70225-0.62507 0-1.2502 0.13891-0.61736 0.13891-1.2656 0.43215z" style=""/>
    <path id="path989" d="m708.76 153.3h6.1196v1.3119h-4.6919v2.8244q0.33955-0.11575 0.6791-0.16977 0.33955-0.0617 0.67909-0.0617 1.9292 0 3.0559 1.0572t1.1267 2.863q0 1.8598-1.1575 2.8939-1.1576 1.0264-3.2643 1.0264-0.7254 0-1.4817-0.12347-0.74855-0.12347-1.5511-0.37042v-1.5666q0.69453 0.37813 1.4354 0.56334t1.5666 0.18521q1.335 0 2.1145-0.70225 0.77941-0.70224 0.77941-1.9061t-0.77941-1.9061q-0.77942-0.70225-2.1145-0.70225-0.62508 0-1.2502 0.13891-0.61736 0.13891-1.2656 0.43215z" style=""/>
    <path id="path991" d="m717.88 159.86h4.1595v1.2656h-4.1595z" style=""/>
    <path id="path993" d="m724.78 163.51h2.5466v-8.7897l-2.7704 0.55563v-1.4199l2.755-0.55562h1.5588v10.21h2.5466v1.3119h-6.6366z" style=""/>
    <path id="path995" d="m735.92 163.51h5.4405v1.3119h-7.3157v-1.3119q0.88746-0.91832 2.4154-2.4617 1.5357-1.5511 1.9292-1.9987 0.74855-0.84116 1.0418-1.4199 0.30096-0.58649 0.30096-1.1498 0-0.91832-0.64823-1.4971-0.64051-0.57877-1.6746-0.57877-0.73311 0-1.5511 0.25466-0.81029 0.25466-1.7363 0.7717v-1.5743q0.94148-0.37813 1.7595-0.57106 0.818-0.19292 1.4971-0.19292 1.7903 0 2.8553 0.89517 1.065 0.89517 1.065 2.3923 0 0.70996-0.2701 1.3505-0.26238 0.63279-0.96462 1.4971-0.19293 0.22379-1.227 1.2964-1.0341 1.065-2.917 2.9865z" style=""/>
    <path id="path997" d="m744.69 164.58v-1.4199q0.58649 0.27781 1.1884 0.42444 0.60193 0.14662 1.1807 0.14662 1.5434 0 2.3537-1.0341 0.818-1.0418 0.93375-3.1562-0.44758 0.66366-1.1344 1.0186-0.68681 0.35498-1.5202 0.35498-1.7286 0-2.7395-1.0418-1.0032-1.0495-1.0032-2.863 0-1.7749 1.0495-2.8476t2.7936-1.0727q1.9987 0 3.0482 1.5357 1.0572 1.528 1.0572 4.445 0 2.7241-1.2965 4.3524-1.2887 1.6206-3.4726 1.6206-0.5865 0-1.1884-0.11576-0.60193-0.11575-1.2502-0.34726zm3.1022-4.8849q1.0495 0 1.6592-0.71768 0.61736-0.71768 0.61736-1.9678 0-1.2424-0.61736-1.9601-0.60964-0.72539-1.6592-0.72539t-1.6669 0.72539q-0.60965 0.71768-0.60965 1.9601 0 1.2502 0.60965 1.9678 0.61736 0.71768 1.6669 0.71768z" style=""/>
    <path id="path999" d="m758.04 159.35q-1.1112 0-1.7518 0.59421-0.63279 0.59421-0.63279 1.636t0.63279 1.636q0.64051 0.59421 1.7518 0.59421t1.7518-0.59421q0.64051-0.60192 0.64051-1.636 0-1.0418-0.64051-1.636-0.6328-0.59421-1.7518-0.59421zm-1.5588-0.66366q-1.0032-0.24695-1.5666-0.93376-0.55563-0.68681-0.55563-1.6746 0-1.3813 0.98006-2.1839 0.98778-0.80256 2.701-0.80256 1.7209 0 2.701 0.80256 0.98005 0.80257 0.98005 2.1839 0 0.98778-0.56334 1.6746-0.55562 0.68681-1.5511 0.93376 1.1267 0.26238 1.7518 1.0264 0.63279 0.76398 0.63279 1.8675 0 1.6746-1.0264 2.5698-1.0186 0.89517-2.9247 0.89517t-2.9325-0.89517q-1.0186-0.89517-1.0186-2.5698 0-1.1035 0.63279-1.8675 0.6328-0.76398 1.7595-1.0264zm-0.57106-2.4617q0 0.89517 0.55562 1.3968 0.56334 0.50161 1.5743 0.50161 1.0032 0 1.5666-0.50161 0.57106-0.5016 0.57106-1.3968t-0.57106-1.3968q-0.56334-0.5016-1.5666-0.5016-1.0109 0-1.5743 0.5016-0.55562 0.50161-0.55562 1.3968z" style=""/>
   </g>
  </g>
  <g id="g48">
   <path id="rect42" d="m680 220h90v40h-90z" fill="#fff" stroke="#000" stroke-width="2"/>
   <g id="text46" aria-label="555-9912">
    <path id="path1003" d="m688.63 233.3h6.1196v1.3119h-4.6919v2.8244q0.33955-0.11575 0.67909-0.16977 0.33955-0.0617 0.6791-0.0617 1.9292 0 3.0559 1.0572t1.1267 2.863q0 1.8598-1.1576 2.8939-1.1576 1.0264-3.2643 1.0264-0.72539 0-1.4817-0.12347-0.74855-0.12347-1.5511-0.37042v-1.5666q0.69453 0.37813 1.4354 0.56334 0.74084 0.18521 1.5666 0.18521 1.335 0 2.1145-0.70225 0.77942-0.70224 0.77942-1.9061t-0.77942-1.9061-2.1145-0.70225q-0.62507 0-1.2502 0.13891-0.61736 0.13891-1.2656 0.43215z" style=""/>
    <path id="path1005" d="m698.69 233.3h6.1196v1.3119h-4.6919v2.8244q0.33954-0.11575 0.67909-0.16977 0.33955-0.0617 0.6791-0.0617 1.9292 0 3.0559 1.0572 1.1267 1.0572 1.1267 2.863 0 1.8598-1.1576 2.8939-1.1576 1.0264-3.2643 1.0264-0.7254 0-1.4817-0.12347-0.74855-0.12347-1.5511-0.37042v-1.5666q0.69453 0.37813 1.4354 0.56334t1.5666 0.18521q1.335 0 2.1145-0.70225 0.77941-0.70224 0.77941-1.9061t-0.77941-1.9061q-0.77942-0.70225-2.1145-0.70225-0.62507 0-1.2502 0.13891-0.61736 0.13891-1.2656 0.43215z" style=""/>
    <path id="path1007" d="m708.76 233.3h6.1196v1.3119h-4.6919v2.8244q0.33955-0.11575 0.6791-0.16977 0.33955-0.0617 0.67909-0.0617 1.9292 0 3.0559 1.0572t1.1267 2.863q0 1.8598-1.1575 2.8939-1.1576 1.0264-3.2643 1.0264-0.7254 0-1.4817-0.12347-0.74855-0.12347-1.5511-0.37042v-1.5666q0.69453 0.37813 1.4354 0.56334t1.5666 0.18521q1.335 0 2.1145-0.70225 0.77941-0.70224 0.77941-1.9061t-0.77941-1.9061q-0.77942-0.70225-2.1145-0.70225-0.62508 0-1.2502 0.13891-0.61736 0.13891-1.2656 0.43215z" style=""/>
    <path id="path1009" d="m717.88 239.86h4.1595v1.2656h-4.1595z" style=""/>
    <path id="path1011" d="m724.56 244.58v-1.4199q0.58649 0.27781 1.1884 0.42444 0.60192 0.14662 1.1807 0.14662 1.5434 0 2.3537-1.0341 0.818-1.0418 0.93376-3.1562-0.44759 0.66366-1.1344 1.0186-0.68681 0.35498-1.5202 0.35498-1.7286 0-2.7395-1.0418-1.0032-1.0495-1.0032-2.863 0-1.7749 1.0495-2.8476t2.7936-1.0727q1.9987 0 3.0482 1.5357 1.0572 1.528 1.0572 4.445 0 2.7241-1.2964 4.3524-1.2887 1.6206-3.4726 1.6206-0.58649 0-1.1884-0.11576-0.60192-0.11575-1.2502-0.34726zm3.1022-4.8849q1.0495 0 1.6592-0.71768 0.61735-0.71768 0.61735-1.9678 0-1.2424-0.61735-1.9601-0.60965-0.72539-1.6592-0.72539t-1.6669 0.72539q-0.60964 0.71768-0.60964 1.9601 0 1.2502 0.60964 1.9678 0.61736 0.71768 1.6669 0.71768z" style=""/>
    <path id="path1013" d="m734.62 244.58v-1.4199q0.58649 0.27781 1.1884 0.42444 0.60192 0.14662 1.1807 0.14662 1.5434 0 2.3537-1.0341 0.818-1.0418 0.93375-3.1562-0.44758 0.66366-1.1344 1.0186-0.68682 0.35498-1.5202 0.35498-1.7286 0-2.7395-1.0418-1.0032-1.0495-1.0032-2.863 0-1.7749 1.0495-2.8476t2.7936-1.0727q1.9987 0 3.0482 1.5357 1.0572 1.528 1.0572 4.445 0 2.7241-1.2964 4.3524-1.2887 1.6206-3.4726 1.6206-0.58649 0-1.1884-0.11576-0.60192-0.11575-1.2502-0.34726zm3.1022-4.8849q1.0495 0 1.6592-0.71768 0.61736-0.71768 0.61736-1.9678 0-1.2424-0.61736-1.9601-0.60964-0.72539-1.6592-0.72539t-1.6669 0.72539q-0.60964 0.71768-0.60964 1.9601 0 1.2502 0.60964 1.9678 0.61736 0.71768 1.6669 0.71768z" style=""/>
    <path id="path1015" d="m744.91 243.51h2.5466v-8.7897l-2.7704 0.55563v-1.4199l2.755-0.55562h1.5588v10.21h2.5466v1.3119h-6.6366z" style=""/>
    <path id="path1017" d="m756.05 243.51h5.4405v1.3119h-7.3157v-1.3119q0.88745-0.91832 2.4154-2.4617 1.5357-1.5511 1.9292-1.9987 0.74855-0.84116 1.0418-1.4199 0.30096-0.58649 0.30096-1.1498 0-0.91832-0.64823-1.4971-0.64051-0.57877-1.6746-0.57877-0.73311 0-1.5511 0.25466-0.81028 0.25466-1.7363 0.7717v-1.5743q0.94147-0.37813 1.7595-0.57106 0.818-0.19292 1.4971-0.19292 1.7903 0 2.8553 0.89517 1.065 0.89517 1.065 2.3923 0 0.70996-0.2701 1.3505-0.26237 0.63279-0.96462 1.4971-0.19292 0.22379-1.227 1.2964-1.0341 1.065-2.917 2.9865z" style=""/>
   </g>
  </g>
  <g id="g56">
   <path id="rect50" d="m680 280h90v40h-90z" fill="#fff" stroke="#000" stroke-width="2"/>
   <g id="text54" aria-label="555-9442">
    <path id="path1021" d="m688.63 293.3h6.1196v1.3119h-4.6919v2.8244q0.33955-0.11576 0.67909-0.16977 0.33955-0.0617 0.6791-0.0617 1.9292 0 3.0559 1.0572t1.1267 2.863q0 1.8598-1.1576 2.8939-1.1576 1.0264-3.2643 1.0264-0.72539 0-1.4817-0.12347-0.74855-0.12347-1.5511-0.37041v-1.5666q0.69453 0.37813 1.4354 0.56334 0.74084 0.18521 1.5666 0.18521 1.335 0 2.1145-0.70225t0.77942-1.9061-0.77942-1.9061q-0.77942-0.70224-2.1145-0.70224-0.62507 0-1.2502 0.1389-0.61736 0.13891-1.2656 0.43216z" style=""/>
    <path id="path1023" d="m698.69 293.3h6.1196v1.3119h-4.6919v2.8244q0.33954-0.11576 0.67909-0.16977 0.33955-0.0617 0.6791-0.0617 1.9292 0 3.0559 1.0572 1.1267 1.0572 1.1267 2.863 0 1.8598-1.1576 2.8939-1.1576 1.0264-3.2643 1.0264-0.7254 0-1.4817-0.12347-0.74855-0.12347-1.5511-0.37041v-1.5666q0.69453 0.37813 1.4354 0.56334t1.5666 0.18521q1.335 0 2.1145-0.70225 0.77941-0.70225 0.77941-1.9061t-0.77941-1.9061q-0.77942-0.70224-2.1145-0.70224-0.62507 0-1.2502 0.1389-0.61736 0.13891-1.2656 0.43216z" style=""/>
    <path id="path1025" d="m708.76 293.3h6.1196v1.3119h-4.6919v2.8244q0.33955-0.11576 0.6791-0.16977 0.33955-0.0617 0.67909-0.0617 1.9292 0 3.0559 1.0572t1.1267 2.863q0 1.8598-1.1575 2.8939-1.1576 1.0264-3.2643 1.0264-0.7254 0-1.4817-0.12347-0.74855-0.12347-1.5511-0.37041v-1.5666q0.69453 0.37813 1.4354 0.56334t1.5666 0.18521q1.335 0 2.1145-0.70225 0.77941-0.70225 0.77941-1.9061t-0.77941-1.9061q-0.77942-0.70224-2.1145-0.70224-0.62508 0-1.2502 0.1389-0.61736 0.13891-1.2656 0.43216z" style=""/>
    <path id="path1027" d="m717.88 299.86h4.1595v1.2656h-4.1595z" style=""/>
    <path id="path1029" d="m724.56 304.58v-1.4199q0.58649 0.27781 1.1884 0.42443 0.60192 0.14663 1.1807 0.14663 1.5434 0 2.3537-1.0341 0.818-1.0418 0.93376-3.1562-0.44759 0.66366-1.1344 1.0186t-1.5202 0.35498q-1.7286 0-2.7395-1.0418-1.0032-1.0495-1.0032-2.863 0-1.7749 1.0495-2.8476 1.0495-1.0727 2.7936-1.0727 1.9987 0 3.0482 1.5357 1.0572 1.528 1.0572 4.445 0 2.7241-1.2964 4.3524-1.2887 1.6206-3.4726 1.6206-0.58649 0-1.1884-0.11575-0.60192-0.11576-1.2502-0.34727zm3.1022-4.8848q1.0495 0 1.6592-0.71768 0.61735-0.71768 0.61735-1.9678 0-1.2424-0.61735-1.9601-0.60965-0.7254-1.6592-0.7254t-1.6669 0.7254q-0.60964 0.71768-0.60964 1.9601 0 1.2502 0.60964 1.9678 0.61736 0.71768 1.6669 0.71768z" style=""/>
    <path id="path1031" d="m738.86 294.66-3.9357 6.1504h3.9357zm-0.409-1.3582h1.9601v7.5086h1.6437v1.2965h-1.6437v2.7164h-1.5511v-2.7164h-5.2013v-1.5048z" style=""/>
    <path id="path1033" d="m748.92 294.66-3.9357 6.1504h3.9357zm-0.40901-1.3582h1.9601v7.5086h1.6437v1.2965h-1.6437v2.7164h-1.5511v-2.7164h-5.2013v-1.5048z" style=""/>
    <path id="path1035" d="m756.05 303.51h5.4405v1.3119h-7.3157v-1.3119q0.88745-0.91832 2.4154-2.4617 1.5357-1.5511 1.9292-1.9987 0.74855-0.84115 1.0418-1.4199 0.30096-0.58649 0.30096-1.1498 0-0.91832-0.64823-1.4971-0.64051-0.57878-1.6746-0.57878-0.73311 0-1.5511 0.25466-0.81028 0.25466-1.7363 0.7717v-1.5743q0.94147-0.37813 1.7595-0.57105 0.818-0.19293 1.4971-0.19293 1.7903 0 2.8553 0.89517 1.065 0.89517 1.065 2.3923 0 0.70996-0.2701 1.3505-0.26237 0.6328-0.96462 1.4971-0.19292 0.22379-1.227 1.2965-1.0341 1.0649-2.917 2.9865z" style=""/>
   </g>
  </g>
  <g id="g62" fill="none" stroke="#000" stroke-width="2">
   <path id="polyline58" d="m320 160h60l57.317 76.422"/>
   <path id="polyline60" d="m428.66 233.21 10 5-2-11"/>
  </g>
  <g id="g68" fill="none" stroke="#000" stroke-width="2">
   <path id="polyline64" d="m320 220h60l56.838-56.838"/>
   <path id="polyline66" d="m434.88 172.19 3.536-10.607-10.607 3.536"/>
  </g>
  <g id="g74" fill="none" stroke="#000" stroke-width="2">
   <path id="polyline70" d="m320 280h60l56.279-37.519"/>
   <path id="polyline72" d="m432.59 250.95 5.547-9.708-11.094 1.387"/>
  </g>
  <g id="text78" aria-label="tábla[]">
   <path id="path1044" d="m436.72 38.903v2.454h2.9247v1.1035h-2.9247v4.6919q0 1.0572 0.28553 1.3582 0.29325 0.30096 1.1807 0.30096h1.4585v1.1884h-1.4585q-1.6437 0-2.2688-0.60964-0.62508-0.61736-0.62508-2.2379v-4.6919h-1.0418v-1.1035h1.0418v-2.454z" style=""/>
   <path id="path1046" d="m445.45 45.655q-1.7209 0-2.3846 0.39357t-0.66366 1.3428q0 0.75626 0.49389 1.2038 0.5016 0.43987 1.3582 0.43987 1.1807 0 1.8907-0.83344 0.71768-0.84115 0.71768-2.2302v-0.3164zm2.8321-0.58649v4.9312h-1.4199v-1.3119q-0.48617 0.78713-1.2116 1.1653-0.72539 0.37042-1.7749 0.37042-1.3273 0-2.1145-0.74083-0.77942-0.74855-0.77942-1.9987 0-1.4585 0.97234-2.1993 0.98006-0.74083 2.917-0.74083h1.991v-0.1389q0-0.98006-0.64823-1.5125-0.64051-0.54019-1.8058-0.54019-0.74083 0-1.4431 0.17749-0.70225 0.17749-1.3505 0.53247v-1.3119q0.77941-0.30096 1.5125-0.44758 0.73311-0.15434 1.4276-0.15434 1.8752 0 2.8013 0.97234t0.92604 2.9479zm-2.5929-7.7093h1.5357l-2.5157 2.9016h-1.1807z" style=""/>
   <path id="path1048" d="m457.41 45.686q0-1.5665-0.64823-2.454-0.64051-0.89517-1.7672-0.89517t-1.7749 0.89517q-0.64051 0.88745-0.64051 2.454 0 1.5666 0.64051 2.4617 0.64823 0.88745 1.7749 0.88745t1.7672-0.88745q0.64823-0.89517 0.64823-2.4617zm-4.8308-3.0173q0.44759-0.7717 1.1267-1.1421 0.68681-0.37813 1.636-0.37813 1.5743 0 2.5543 1.2502 0.98777 1.2502 0.98777 3.2874t-0.98777 3.2874q-0.98006 1.2502-2.5543 1.2502-0.94919 0-1.636-0.37042-0.67909-0.37813-1.1267-1.1498v1.2965h-1.4276v-12.008h1.4276z" style=""/>
   <path id="path1050" d="m461.24 37.992h1.4199v12.008h-1.4199z" style=""/>
   <path id="path1052" d="m469.55 45.655q-1.7209 0-2.3846 0.39357-0.66367 0.39357-0.66367 1.3428 0 0.75626 0.49389 1.2038 0.50161 0.43987 1.3582 0.43987 1.1807 0 1.8907-0.83344 0.71768-0.84115 0.71768-2.2302v-0.3164zm2.8321-0.58649v4.9312h-1.4199v-1.3119q-0.48617 0.78713-1.2116 1.1653-0.7254 0.37042-1.7749 0.37042-1.3273 0-2.1145-0.74083-0.77941-0.74855-0.77941-1.9987 0-1.4585 0.97234-2.1993 0.98006-0.74083 2.917-0.74083h1.991v-0.1389q0-0.98006-0.64823-1.5125-0.64051-0.54019-1.8058-0.54019-0.74083 0-1.4431 0.17749-0.70224 0.17749-1.3505 0.53247v-1.3119q0.77942-0.30096 1.5125-0.44758 0.73312-0.15434 1.4276-0.15434 1.8752 0 2.8013 0.97234t0.92604 2.9479z" style=""/>
   <path id="path1054" d="m475.19 37.992h3.272v1.1035h-1.8521v11.884h1.8521v1.1035h-3.272z" style=""/>
   <path id="path1056" d="m484.81 37.992v14.091h-3.272v-1.1035h1.8444v-11.884h-1.8444v-1.1035z" style=""/>
  </g>
  <g id="text82" aria-label="hash()">
   <path id="path1059" d="m363.5 24.783v5.2167h-1.4199v-5.1704q0-1.227-0.47845-1.8366-0.47845-0.60964-1.4354-0.60964-1.1498 0-1.8135 0.73312-0.66367 0.73311-0.66367 1.9987v4.8849h-1.4276v-12.008h1.4276v4.7074q0.50933-0.77942 1.1961-1.1653 0.69453-0.38585 1.5974-0.38585 1.4894 0 2.2534 0.92604 0.76398 0.91832 0.76398 2.7087z" style=""/>
   <path id="path1061" d="m370.28 25.655q-1.7209 0-2.3846 0.39357t-0.66366 1.3428q0 0.75626 0.49389 1.2038 0.5016 0.43987 1.3582 0.43987 1.1807 0 1.8907-0.83344 0.71768-0.84115 0.71768-2.2302v-0.3164zm2.8321-0.58649v4.9312h-1.4199v-1.3119q-0.48617 0.78713-1.2116 1.1653-0.7254 0.37042-1.7749 0.37042-1.3273 0-2.1144-0.74083-0.77942-0.74855-0.77942-1.9987 0-1.4585 0.97234-2.1993 0.98006-0.74083 2.917-0.74083h1.991v-0.1389q0-0.98006-0.64823-1.5125-0.64051-0.54019-1.8058-0.54019-0.74084 0-1.4431 0.17749-0.70225 0.17749-1.3505 0.53247v-1.3119q0.77942-0.30096 1.5125-0.44758 0.73312-0.15434 1.4276-0.15434 1.8752 0 2.8013 0.97234t0.92604 2.9479z" style=""/>
   <path id="path1063" d="m381.55 21.612v1.3428q-0.60193-0.30868-1.2502-0.46302-0.64822-0.15434-1.3428-0.15434-1.0572 0-1.5897 0.32411-0.52476 0.32411-0.52476 0.97234 0 0.49389 0.37813 0.77942 0.37814 0.27781 1.5202 0.53247l0.48617 0.10804q1.5125 0.32411 2.1453 0.91832 0.64051 0.58649 0.64051 1.6437 0 1.2039-0.9569 1.9061-0.94919 0.70225-2.6161 0.70225-0.69453 0-1.4508-0.13891-0.74855-0.13119-1.582-0.40128v-1.4662q0.78713 0.409 1.5511 0.61736 0.76399 0.20064 1.5125 0.20064 1.0032 0 1.5434-0.33955 0.54019-0.34726 0.54019-0.97234 0-0.57877-0.39356-0.88745-0.38585-0.30868-1.7055-0.59421l-0.49389-0.11576q-1.3196-0.27781-1.9061-0.84887-0.58649-0.57878-0.58649-1.582 0-1.2193 0.8643-1.8829t2.454-0.66366q0.78714 0 1.4817 0.11576 0.69453 0.11575 1.281 0.34726z" style=""/>
   <path id="path1065" d="m391.47 24.783v5.2167h-1.4199v-5.1704q0-1.227-0.47845-1.8366-0.47845-0.60964-1.4354-0.60964-1.1498 0-1.8135 0.73312-0.66366 0.73311-0.66366 1.9987v4.8849h-1.4276v-12.008h1.4276v4.7074q0.50932-0.77942 1.1961-1.1653 0.69453-0.38585 1.5974-0.38585 1.4894 0 2.2534 0.92604 0.76398 0.91832 0.76398 2.7087z" style=""/>
   <path id="path1067" d="m397.73 18.008q-1.0341 1.7749-1.5357 3.5112-0.5016 1.7363-0.5016 3.5189t0.5016 3.5344q0.50932 1.744 1.5357 3.5112h-1.2347q-1.1576-1.8135-1.7363-3.5653-0.57106-1.7518-0.57106-3.4804 0-1.7209 0.57106-3.4649 0.57106-1.744 1.7363-3.5652z" style=""/>
   <path id="path1069" d="m400.26 18.008h1.2347q1.1576 1.8212 1.7286 3.5652 0.57877 1.744 0.57877 3.4649 0 1.7286-0.57877 3.4804-0.57106 1.7518-1.7286 3.5653h-1.2347q1.0264-1.7672 1.528-3.5112 0.50932-1.7518 0.50932-3.5344t-0.50932-3.5189q-0.50161-1.7363-1.528-3.5112z" style=""/>
  </g>
  <g id="g90">
   <path id="rect84" d="m560 220h120v40h-120z" fill="#fff" stroke="#000" stroke-width="2"/>
   <g id="text88" aria-label="Tapsi Hapsi">
    <path id="path1073" d="m575.63 233.3h9.7466v1.3119h-4.09v10.21h-1.5666v-10.21h-4.09z" style=""/>
    <path id="path1075" d="m588.13 240.48q-1.7209 0-2.3846 0.39357-0.66366 0.39356-0.66366 1.3428 0 0.75627 0.49389 1.2038 0.5016 0.43987 1.3582 0.43987 1.1807 0 1.8907-0.83343 0.71768-0.84116 0.71768-2.2302v-0.3164zm2.8321-0.58649v4.9312h-1.4199v-1.3119q-0.48617 0.78713-1.2116 1.1653-0.72539 0.37042-1.7749 0.37042-1.3273 0-2.1144-0.74083-0.77942-0.74855-0.77942-1.9987 0-1.4585 0.97234-2.1994 0.98006-0.74083 2.917-0.74083h1.991v-0.1389q0-0.98006-0.64823-1.5125-0.64051-0.54019-1.8058-0.54019-0.74083 0-1.4431 0.17749t-1.3505 0.53247v-1.3119q0.77941-0.30096 1.5125-0.44758 0.73311-0.15434 1.4276-0.15434 1.8752 0 2.8013 0.97234t0.92604 2.9479z" style=""/>
    <path id="path1077" d="m595.27 243.53v4.5839h-1.4276v-11.93h1.4276v1.3119q0.44758-0.7717 1.1267-1.1421 0.68681-0.37813 1.636-0.37813 1.5743 0 2.5543 1.2502 0.98777 1.2502 0.98777 3.2874 0 2.0373-0.98777 3.2874-0.98006 1.2502-2.5543 1.2502-0.94919 0-1.636-0.37042-0.6791-0.37813-1.1267-1.1498zm4.8308-3.0173q0-1.5666-0.64823-2.454-0.64051-0.89517-1.7672-0.89517t-1.7749 0.89517q-0.64051 0.88746-0.64051 2.454t0.64051 2.4617q0.64823 0.88745 1.7749 0.88745t1.7672-0.88745q0.64823-0.89517 0.64823-2.4617z" style=""/>
    <path id="path1079" d="m609.44 236.43v1.3428q-0.60193-0.30868-1.2502-0.46302-0.64822-0.15434-1.3428-0.15434-1.0572 0-1.5897 0.32412-0.52476 0.32411-0.52476 0.97234 0 0.49389 0.37813 0.77941 0.37814 0.27782 1.5202 0.53248l0.48617 0.10803q1.5125 0.32412 2.1453 0.91833 0.64051 0.58649 0.64051 1.6437 0 1.2038-0.95691 1.9061-0.94919 0.70225-2.6161 0.70225-0.69453 0-1.4508-0.13891-0.74854-0.13119-1.582-0.40128v-1.4662q0.78713 0.409 1.5511 0.61736 0.76398 0.20064 1.5125 0.20064 1.0032 0 1.5434-0.33955 0.54019-0.34726 0.54019-0.97234 0-0.57877-0.39357-0.88745-0.38585-0.30868-1.7055-0.59421l-0.49388-0.11575q-1.3196-0.27782-1.9061-0.84887-0.58649-0.57878-0.58649-1.582 0-1.2193 0.8643-1.8829t2.454-0.66366q0.78714 0 1.4817 0.11575 0.69453 0.11576 1.281 0.34727z" style=""/>
    <path id="path1081" d="m612.17 236.18h1.4199v8.643h-1.4199zm0-3.3646h1.4199v1.7981h-1.4199z" style=""/>
    <path id="path1083" d="m621.64 233.3h1.5588v4.7228h5.6643v-4.7228h1.5588v11.521h-1.5588v-5.4868h-5.6643v5.4868h-1.5588z" style=""/>
    <path id="path1085" d="m637.39 240.48q-1.7209 0-2.3846 0.39357-0.66366 0.39356-0.66366 1.3428 0 0.75627 0.49389 1.2038 0.5016 0.43987 1.3582 0.43987 1.1807 0 1.8907-0.83343 0.71768-0.84116 0.71768-2.2302v-0.3164zm2.8321-0.58649v4.9312h-1.4199v-1.3119q-0.48617 0.78713-1.2116 1.1653-0.72539 0.37042-1.7749 0.37042-1.3273 0-2.1144-0.74083-0.77942-0.74855-0.77942-1.9987 0-1.4585 0.97234-2.1994 0.98006-0.74083 2.917-0.74083h1.991v-0.1389q0-0.98006-0.64823-1.5125-0.64051-0.54019-1.8058-0.54019-0.74083 0-1.4431 0.17749t-1.3505 0.53247v-1.3119q0.77941-0.30096 1.5125-0.44758 0.73311-0.15434 1.4276-0.15434 1.8752 0 2.8013 0.97234t0.92604 2.9479z" style=""/>
    <path id="path1087" d="m644.53 243.53v4.5839h-1.4276v-11.93h1.4276v1.3119q0.44759-0.7717 1.1267-1.1421 0.68681-0.37813 1.636-0.37813 1.5743 0 2.5543 1.2502 0.98777 1.2502 0.98777 3.2874 0 2.0373-0.98777 3.2874-0.98006 1.2502-2.5543 1.2502-0.94919 0-1.636-0.37042-0.67909-0.37813-1.1267-1.1498zm4.8308-3.0173q0-1.5666-0.64823-2.454-0.64051-0.89517-1.7672-0.89517t-1.7749 0.89517q-0.64051 0.88746-0.64051 2.454t0.64051 2.4617q0.64823 0.88745 1.7749 0.88745t1.7672-0.88745q0.64823-0.89517 0.64823-2.4617z" style=""/>
    <path id="path1089" d="m658.7 236.43v1.3428q-0.60193-0.30868-1.2502-0.46302-0.64822-0.15434-1.3428-0.15434-1.0572 0-1.5897 0.32412-0.52476 0.32411-0.52476 0.97234 0 0.49389 0.37813 0.77941 0.37814 0.27782 1.5202 0.53248l0.48617 0.10803q1.5125 0.32412 2.1453 0.91833 0.64051 0.58649 0.64051 1.6437 0 1.2038-0.95691 1.9061-0.94919 0.70225-2.6161 0.70225-0.69453 0-1.4508-0.13891-0.74854-0.13119-1.582-0.40128v-1.4662q0.78713 0.409 1.5511 0.61736 0.76398 0.20064 1.5125 0.20064 1.0032 0 1.5434-0.33955 0.54018-0.34726 0.54018-0.97234 0-0.57877-0.39356-0.88745-0.38585-0.30868-1.7055-0.59421l-0.49388-0.11575q-1.3196-0.27782-1.9061-0.84887-0.58649-0.57878-0.58649-1.582 0-1.2193 0.8643-1.8829t2.454-0.66366q0.78714 0 1.4817 0.11575 0.69453 0.11576 1.281 0.34727z" style=""/>
    <path id="path1091" d="m661.43 236.18h1.4199v8.643h-1.4199zm0-3.3646h1.4199v1.7981h-1.4199z" style=""/>
   </g>
  </g>
  <g id="g98">
   <path id="rect92" d="m560 280h120v40h-120z" fill="#fff" stroke="#000" stroke-width="2"/>
   <g id="text96" aria-label="Taz">
    <path id="path1095" d="m607.44 293.3h9.7466v1.3119h-4.09v10.21h-1.5666v-10.21h-4.09z" style=""/>
    <path id="path1097" d="m619.94 300.48q-1.7209 0-2.3846 0.39357t-0.66366 1.3428q0 0.75626 0.49389 1.2038 0.5016 0.43987 1.3582 0.43987 1.1807 0 1.8907-0.83344 0.71768-0.84115 0.71768-2.2302v-0.3164zm2.8321-0.58649v4.9312h-1.4199v-1.3119q-0.48617 0.78714-1.2116 1.1653-0.7254 0.37041-1.7749 0.37041-1.3273 0-2.1145-0.74083-0.77941-0.74855-0.77941-1.9987 0-1.4585 0.97234-2.1993 0.98005-0.74083 2.917-0.74083h1.991v-0.13891q0-0.98006-0.64822-1.5125-0.64051-0.54019-1.8058-0.54019-0.74083 0-1.4431 0.17749-0.70224 0.17749-1.3505 0.53247v-1.3119q0.77942-0.30097 1.5125-0.44759 0.73311-0.15434 1.4276-0.15434 1.8752 0 2.8013 0.97234t0.92604 2.9479z" style=""/>
    <path id="path1099" d="m625.09 296.18h6.7446v1.2964l-5.3402 6.2122h5.3402v1.1344h-6.9376v-1.2964l5.3402-6.2122h-5.1472z" style=""/>
   </g>
  </g>
  <g id="g106">
   <path id="rect100" d="m520 220h40v40h-40z" fill="#fdfd04" stroke="#000" stroke-width="2"/>
  </g>
  <g id="g114">
   <path id="rect108" d="m520 280h40v40h-40z" fill="#bfbfbf" stroke="#000" stroke-width="2"/>
   <g id="text112" aria-label="×">
    <path id="path1105" d="m544.46 296.33-3.5267 3.5421 3.5267 3.5267-0.91832 0.93376-3.5421-3.5421-3.5421 3.5421-0.9106-0.93376 3.5189-3.5267-3.5189-3.5421 0.9106-0.93376 3.5421 3.5421 3.5421-3.5421z" style=""/>
   </g>
  </g>
  <g id="g122">
   <path id="rect116" d="m560 140h120v40h-120z" fill="#fff" stroke="#000" stroke-width="2"/>
   <g id="text120" aria-label="Donald Kacsa">
    <path id="path1109" d="m569.4 154.58v8.9594h1.883q2.3846 0 3.4881-1.0804 1.1112-1.0804 1.1112-3.4109 0-2.3151-1.1112-3.3878-1.1035-1.0804-3.4881-1.0804zm-1.5588-1.281h3.2026q3.3492 0 4.9157 1.3968 1.5666 1.3891 1.5666 4.3524 0 2.9788-1.5743 4.3755-1.5743 1.3968-4.908 1.3968h-3.2026z" style=""/>
    <path id="path1111" d="m583.29 157.17q-1.1421 0-1.8058 0.89517-0.66366 0.88745-0.66366 2.4386 0 1.5511 0.65594 2.4463 0.66366 0.88746 1.8135 0.88746 1.1344 0 1.7981-0.89517 0.66366-0.89517 0.66366-2.4386 0-1.5357-0.66366-2.4309-0.66367-0.90288-1.7981-0.90288zm0-1.2038q1.8521 0 2.9093 1.2038t1.0572 3.3337q0 2.1222-1.0572 3.3337-1.0572 1.2038-2.9093 1.2038-1.8598 0-2.917-1.2038-1.0495-1.2116-1.0495-3.3337 0-2.1299 1.0495-3.3337 1.0572-1.2038 2.917-1.2038z" style=""/>
    <path id="path1113" d="m596.79 159.61v5.2167h-1.4199v-5.1704q0-1.227-0.47845-1.8366-0.47846-0.60965-1.4354-0.60965-1.1498 0-1.8135 0.73312-0.66366 0.73311-0.66366 1.9987v4.8849h-1.4276v-8.643h1.4276v1.3428q0.50932-0.77941 1.1961-1.1653 0.69452-0.38585 1.5974-0.38585 1.4894 0 2.2534 0.92604 0.76399 0.91832 0.76399 2.7087z" style=""/>
    <path id="path1115" d="m603.56 160.48q-1.7209 0-2.3846 0.39357-0.66366 0.39356-0.66366 1.3428 0 0.75627 0.49389 1.2038 0.5016 0.43987 1.3582 0.43987 1.1807 0 1.8907-0.83343 0.71768-0.84116 0.71768-2.2302v-0.3164zm2.8321-0.58649v4.9312h-1.4199v-1.3119q-0.48617 0.78713-1.2116 1.1653-0.7254 0.37042-1.7749 0.37042-1.3273 0-2.1145-0.74083-0.77941-0.74855-0.77941-1.9987 0-1.4585 0.97234-2.1994 0.98006-0.74083 2.917-0.74083h1.991v-0.1389q0-0.98006-0.64822-1.5125-0.64051-0.54019-1.8058-0.54019-0.74083 0-1.4431 0.17749-0.70224 0.17749-1.3505 0.53247v-1.3119q0.77942-0.30096 1.5125-0.44758 0.73311-0.15434 1.4276-0.15434 1.8752 0 2.8013 0.97234t0.92604 2.9479z" style=""/>
    <path id="path1117" d="m609.33 152.81h1.4199v12.008h-1.4199z" style=""/>
    <path id="path1119" d="m619.4 157.49v-4.6765h1.4199v12.008h-1.4199v-1.2965q-0.44758 0.7717-1.1344 1.1498-0.6791 0.37042-1.636 0.37042-1.5666 0-2.5543-1.2502-0.98006-1.2502-0.98006-3.2874 0-2.0373 0.98006-3.2874 0.98777-1.2502 2.5543-1.2502 0.95691 0 1.636 0.37813 0.68681 0.37041 1.1344 1.1421zm-4.8386 3.0174q0 1.5666 0.64051 2.4617 0.64823 0.88745 1.7749 0.88745t1.7749-0.88745q0.64822-0.89517 0.64822-2.4617t-0.64822-2.454q-0.64823-0.89517-1.7749-0.89517t-1.7749 0.89517q-0.64051 0.88746-0.64051 2.454z" style=""/>
    <path id="path1121" d="m628.84 153.3h1.5588v4.8694l5.1704-4.8694h2.0064l-5.7183 5.371 6.1273 6.1504h-2.0527l-5.5331-5.5485v5.5485h-1.5588z" style=""/>
    <path id="path1123" d="m642.8 160.48q-1.7209 0-2.3846 0.39357-0.66366 0.39356-0.66366 1.3428 0 0.75627 0.49388 1.2038 0.50161 0.43987 1.3582 0.43987 1.1807 0 1.8907-0.83343 0.71768-0.84116 0.71768-2.2302v-0.3164zm2.8321-0.58649v4.9312h-1.4199v-1.3119q-0.48617 0.78713-1.2116 1.1653-0.7254 0.37042-1.7749 0.37042-1.3273 0-2.1144-0.74083-0.77942-0.74855-0.77942-1.9987 0-1.4585 0.97234-2.1994 0.98006-0.74083 2.917-0.74083h1.991v-0.1389q0-0.98006-0.64823-1.5125-0.64051-0.54019-1.8058-0.54019-0.74083 0-1.4431 0.17749-0.70225 0.17749-1.3505 0.53247v-1.3119q0.77942-0.30096 1.5125-0.44758 0.73312-0.15434 1.4276-0.15434 1.8752 0 2.8013 0.97234 0.92604 0.97234 0.92604 2.9479z" style=""/>
    <path id="path1125" d="m654.78 156.51v1.3273q-0.60193-0.33183-1.2116-0.49389-0.60193-0.16977-1.2193-0.16977-1.3813 0-2.1453 0.87973-0.76398 0.87202-0.76398 2.454 0 1.582 0.76398 2.4617 0.76398 0.87202 2.1453 0.87202 0.61736 0 1.2193-0.16206 0.60964-0.16977 1.2116-0.5016v1.3119q-0.59421 0.27781-1.2347 0.41671-0.6328 0.13891-1.3505 0.13891-1.9524 0-3.1022-1.227-1.1498-1.227-1.1498-3.3106 0-2.1145 1.1576-3.326 1.1653-1.2116 3.1871-1.2116 0.65594 0 1.281 0.1389 0.62508 0.13119 1.2116 0.40129z" style=""/>
    <path id="path1127" d="m662.78 156.43v1.3428q-0.60193-0.30868-1.2502-0.46302-0.64823-0.15434-1.3428-0.15434-1.0572 0-1.5897 0.32412-0.52476 0.32411-0.52476 0.97234 0 0.49389 0.37814 0.77941 0.37813 0.27782 1.5202 0.53248l0.48617 0.10803q1.5125 0.32412 2.1453 0.91833 0.64051 0.58649 0.64051 1.6437 0 1.2038-0.95691 1.9061-0.94919 0.70225-2.6161 0.70225-0.69453 0-1.4508-0.13891-0.74855-0.13119-1.582-0.40128v-1.4662q0.78714 0.409 1.5511 0.61736 0.76398 0.20064 1.5125 0.20064 1.0032 0 1.5434-0.33955 0.54019-0.34726 0.54019-0.97234 0-0.57877-0.39357-0.88745-0.38585-0.30868-1.7054-0.59421l-0.49389-0.11575q-1.3196-0.27782-1.9061-0.84887-0.58649-0.57878-0.58649-1.582 0-1.2193 0.8643-1.8829 0.86431-0.66366 2.454-0.66366 0.78713 0 1.4817 0.11575 0.69453 0.11576 1.281 0.34727z" style=""/>
    <path id="path1129" d="m669.44 160.48q-1.7209 0-2.3846 0.39357-0.66366 0.39356-0.66366 1.3428 0 0.75627 0.49389 1.2038 0.5016 0.43987 1.3582 0.43987 1.1807 0 1.8907-0.83343 0.71768-0.84116 0.71768-2.2302v-0.3164zm2.8321-0.58649v4.9312h-1.4199v-1.3119q-0.48617 0.78713-1.2116 1.1653-0.72539 0.37042-1.7749 0.37042-1.3273 0-2.1144-0.74083-0.77942-0.74855-0.77942-1.9987 0-1.4585 0.97234-2.1994 0.98006-0.74083 2.917-0.74083h1.991v-0.1389q0-0.98006-0.64823-1.5125-0.64051-0.54019-1.8058-0.54019-0.74083 0-1.4431 0.17749t-1.3505 0.53247v-1.3119q0.77941-0.30096 1.5125-0.44758 0.73311-0.15434 1.4276-0.15434 1.8752 0 2.8013 0.97234t0.92604 2.9479z" style=""/>
   </g>
  </g>
  <g id="g130">
   <path id="rect124" d="m520 140h40v40h-40z" fill="#bfbfbf" stroke="#000" stroke-width="2"/>
   <g id="text128" aria-label="×">
    <path id="path1133" d="m544.46 156.33-3.5267 3.5421 3.5267 3.5267-0.91832 0.93376-3.5421-3.5421-3.5421 3.5421-0.9106-0.93376 3.5189-3.5267-3.5189-3.5421 0.9106-0.93375 3.5421 3.5421 3.5421-3.5421z" style=""/>
   </g>
  </g>
  <g id="g136" fill="none" stroke="#000" stroke-width="2">
   <path id="line132" d="m540 260v15.528"/>
   <path id="polyline134" d="m535 267.76 5 10 5-10"/>
  </g>
  <g id="g142" fill="none" stroke="#000" stroke-width="2">
   <path id="line138" d="m480 160h35.528"/>
   <path id="polyline140" d="m507.76 165 10-5-10-5"/>
  </g>
  <g id="g148" fill="none" stroke="#000" stroke-width="2">
   <path id="line144" d="m480 240h35.528"/>
   <path id="polyline146" d="m507.76 245 10-5-10-5"/>
  </g>
  <g id="g156">
   <path id="rect150" d="m440 100h40v40h-40z" fill="#bfbfbf" stroke="#000" stroke-width="2"/>
   <g id="text154" aria-label="×">
    <path id="path1143" d="m464.46 116.33-3.5267 3.5421 3.5267 3.5267-0.91832 0.93376-3.5421-3.5421-3.5421 3.5421-0.9106-0.93376 3.5189-3.5267-3.5189-3.5421 0.9106-0.93376 3.5421 3.5421 3.5421-3.5421z" style=""/>
   </g>
  </g>
  <g id="g164">
   <path id="rect158" d="m440 60h40v40h-40z" fill="#bfbfbf" stroke="#000" stroke-width="2"/>
   <g id="text162" aria-label="×">
    <path id="path1147" d="m464.46 76.334-3.5267 3.5421 3.5267 3.5267-0.91832 0.93376-3.5421-3.5421-3.5421 3.5421-0.9106-0.93376 3.5189-3.5267-3.5189-3.5421 0.9106-0.93376 3.5421 3.5421 3.5421-3.5421z" style=""/>
   </g>
  </g>
  <g id="g172">
   <path id="rect166" d="m440 180h40v40h-40z" fill="#bfbfbf" stroke="#000" stroke-width="2"/>
   <g id="text170" aria-label="×">
    <path id="path1151" d="m464.46 196.33-3.5267 3.5421 3.5267 3.5267-0.91832 0.93376-3.5421-3.5421-3.5421 3.5421-0.9106-0.93376 3.5189-3.5267-3.5189-3.5421 0.9106-0.93375 3.5421 3.5421 3.5421-3.5421z" style=""/>
   </g>
  </g>
  <g id="g180">
   <path id="rect174" d="m440 260h40v40h-40z" fill="#bfbfbf" stroke="#000" stroke-width="2"/>
   <g id="text178" aria-label="×">
    <path id="path1155" d="m464.46 276.33-3.5267 3.5421 3.5267 3.5267-0.91832 0.93376-3.5421-3.5421-3.5421 3.5421-0.9106-0.93376 3.5189-3.5267-3.5189-3.5421 0.9106-0.93376 3.5421 3.5421 3.5421-3.5421z" style=""/>
   </g>
  </g>
  <g id="g188">
   <path id="rect182" d="m440 300h40v40h-40z" fill="#bfbfbf" stroke="#000" stroke-width="2"/>
   <g id="text186" aria-label="×">
    <path id="path1159" d="m464.46 316.33-3.5267 3.5421 3.5267 3.5267-0.91832 0.93376-3.5421-3.5421-3.5421 3.5421-0.9106-0.93376 3.5189-3.5267-3.5189-3.5421 0.9106-0.93376 3.5421 3.5421 3.5421-3.5421z" style=""/>
   </g>
  </g>
  <g id="g196">
   <path id="rect190" d="m440 340h40v40h-40z" fill="#bfbfbf" stroke="#000" stroke-width="2"/>
   <g id="text194" aria-label="×">
    <path id="path1163" d="m464.46 356.33-3.5267 3.5421 3.5267 3.5267-0.91832 0.93376-3.5421-3.5421-3.5421 3.5421-0.9106-0.93376 3.5189-3.5267-3.5189-3.5421 0.9106-0.93376 3.5421 3.5421 3.5421-3.5421z" style=""/>
   </g>
  </g>
  <g id="g204">
   <path id="rect198" d="m440 140h40v40h-40z" fill="#fdfd04" stroke="#000" stroke-width="2"/>
  </g>
  <g id="g212">
   <path id="rect206" d="m440 220h40v40h-40z" fill="#fdfd04" stroke="#000" stroke-width="2"/>
  </g>
 </g>
</svg>
