<?xml version="1.0" encoding="UTF-8"?>
<svg id="svg189" width="19cm" height="19.65cm" version="1.1" viewBox="189 13 372 381.21" xmlns="http://www.w3.org/2000/svg" xmlns:cc="http://creativecommons.org/ns#" xmlns:dc="http://purl.org/dc/elements/1.1/" xmlns:rdf="http://www.w3.org/1999/02/22-rdf-syntax-ns#">
 <metadata id="metadata193">
  <rdf:RDF>
   <cc:Work rdf:about="">
    <dc:format>image/svg+xml</dc:format>
    <dc:type rdf:resource="http://purl.org/dc/dcmitype/StillImage"/>
   </cc:Work>
  </rdf:RDF>
 </metadata>
 <g id="Háttér" transform="translate(0 -5.0351)">
  <g id="g10">
   <path id="rect4" d="m190 140h120v40h-120z" fill="#fff" stroke="#000" stroke-width="2"/>
   <g id="text8" aria-label="Tapsi Hapsi">
    <path id="path906" d="m199.29 152.34h11.139v1.4993h-4.6743v11.668h-1.7903v-11.668h-4.6743z" style=""/>
    <path id="path908" d="m213.58 160.55q-1.9667 0-2.7252 0.44979t-0.75847 1.5346q0 0.86431 0.56445 1.3758 0.57326 0.50271 1.5522 0.50271 1.3494 0 2.1608-0.9525 0.8202-0.96131 0.8202-2.5488v-0.3616zm3.2367-0.67028v5.6356h-1.6228v-1.4993q-0.55562 0.89958-1.3846 1.3317-0.82902 0.42334-2.0285 0.42334-1.5169 0-2.4165-0.84667-0.89076-0.85549-0.89076-2.2842 0-1.6669 1.1112-2.5135 1.1201-0.84667 3.3338-0.84667h2.2754v-0.15875q0-1.1201-0.74083-1.7286-0.73201-0.61736-2.0638-0.61736-0.84666 0-1.6492 0.20285t-1.5434 0.60854v-1.4993q0.89076-0.34396 1.7286-0.51153 0.83784-0.17639 1.6316-0.17639 2.1431 0 3.2015 1.1112t1.0583 3.369z" style=""/>
    <path id="path910" d="m221.73 164.03v5.2387h-1.6316v-13.635h1.6316v1.4993q0.51153-0.88194 1.2876-1.3053 0.78493-0.43215 1.8697-0.43215 1.7992 0 2.9192 1.4288 1.1289 1.4288 1.1289 3.7571t-1.1289 3.7571q-1.1201 1.4288-2.9192 1.4288-1.0848 0-1.8697-0.42334-0.77611-0.43215-1.2876-1.3141zm5.521-3.4484q0-1.7904-0.74083-2.8046-0.73202-1.0231-2.0196-1.0231-1.2876 0-2.0285 1.0231-0.73202 1.0142-0.73202 2.8046 0 1.7903 0.73202 2.8134 0.74083 1.0142 2.0285 1.0142 1.2876 0 2.0196-1.0142 0.74083-1.0231 0.74083-2.8134z" style=""/>
    <path id="path912" d="m237.93 155.92v1.5346q-0.68791-0.35278-1.4287-0.52917-0.74084-0.17639-1.5346-0.17639-1.2083 0-1.8168 0.37042-0.59972 0.37042-0.59972 1.1112 0 0.56444 0.43215 0.89076 0.43215 0.3175 1.7374 0.60854l0.55563 0.12347q1.7286 0.37042 2.4518 1.0495 0.73201 0.67027 0.73201 1.8785 0 1.3758-1.0936 2.1784-1.0848 0.80257-2.9898 0.80257-0.79375 0-1.658-0.15875-0.85549-0.14994-1.808-0.45862v-1.6757q0.89958 0.46743 1.7727 0.70556 0.87313 0.2293 1.7286 0.2293 1.1465 0 1.7639-0.38805 0.61736-0.39688 0.61736-1.1112 0-0.66146-0.44979-1.0142-0.44098-0.35277-1.9491-0.67909l-0.56444-0.13229q-1.5081-0.3175-2.1784-0.97014-0.67028-0.66146-0.67028-1.808 0-1.3935 0.98778-2.1519 0.98777-0.75847 2.8046-0.75847 0.89958 0 1.6933 0.13229t1.464 0.39688z" style=""/>
    <path id="path914" d="m241.05 155.63h1.6228v9.8778h-1.6228zm0-3.8453h1.6228v2.0549h-1.6228z" style=""/>
    <path id="path916" d="m251.88 152.34h1.7815v5.3975h6.4735v-5.3975h1.7815v13.167h-1.7815v-6.2706h-6.4735v6.2706h-1.7815z" style=""/>
    <path id="path918" d="m269.88 160.55q-1.9667 0-2.7252 0.44979t-0.75847 1.5346q0 0.86431 0.56444 1.3758 0.57326 0.50271 1.5522 0.50271 1.3494 0 2.1608-0.9525 0.82021-0.96131 0.82021-2.5488v-0.3616zm3.2367-0.67028v5.6356h-1.6228v-1.4993q-0.55563 0.89958-1.3846 1.3317-0.82903 0.42334-2.0285 0.42334-1.5169 0-2.4165-0.84667-0.89076-0.85549-0.89076-2.2842 0-1.6669 1.1112-2.5135 1.1201-0.84667 3.3338-0.84667h2.2754v-0.15875q0-1.1201-0.74083-1.7286-0.73202-0.61736-2.0638-0.61736-0.84667 0-1.6492 0.20285-0.80256 0.20285-1.5434 0.60854v-1.4993q0.89077-0.34396 1.7286-0.51153 0.83785-0.17639 1.6316-0.17639 2.1431 0 3.2014 1.1112t1.0583 3.369z" style=""/>
    <path id="path920" d="m278.04 164.03v5.2387h-1.6316v-13.635h1.6316v1.4993q0.51153-0.88194 1.2876-1.3053 0.78493-0.43215 1.8697-0.43215 1.7992 0 2.9192 1.4288 1.1289 1.4288 1.1289 3.7571t-1.1289 3.7571q-1.1201 1.4288-2.9192 1.4288-1.0848 0-1.8697-0.42334-0.77611-0.43215-1.2876-1.3141zm5.521-3.4484q0-1.7904-0.74084-2.8046-0.73201-1.0231-2.0196-1.0231t-2.0285 1.0231q-0.73201 1.0142-0.73201 2.8046 0 1.7903 0.73201 2.8134 0.74083 1.0142 2.0285 1.0142t2.0196-1.0142q0.74084-1.0231 0.74084-2.8134z" style=""/>
    <path id="path922" d="m294.23 155.92v1.5346q-0.68792-0.35278-1.4288-0.52917t-1.5346-0.17639q-1.2083 0-1.8168 0.37042-0.59973 0.37042-0.59973 1.1112 0 0.56444 0.43216 0.89076 0.43215 0.3175 1.7374 0.60854l0.55562 0.12347q1.7286 0.37042 2.4518 1.0495 0.73202 0.67027 0.73202 1.8785 0 1.3758-1.0936 2.1784-1.0848 0.80257-2.9898 0.80257-0.79375 0-1.6581-0.15875-0.85548-0.14994-1.808-0.45862v-1.6757q0.89958 0.46743 1.7727 0.70556 0.87312 0.2293 1.7286 0.2293 1.1465 0 1.7639-0.38805 0.61736-0.39688 0.61736-1.1112 0-0.66146-0.44979-1.0142-0.44097-0.35277-1.9491-0.67909l-0.56445-0.13229q-1.5081-0.3175-2.1784-0.97014-0.67027-0.66146-0.67027-1.808 0-1.3935 0.98777-2.1519 0.98778-0.75847 2.8046-0.75847 0.89958 0 1.6933 0.13229t1.464 0.39688z" style=""/>
    <path id="path924" d="m297.35 155.63h1.6228v9.8778h-1.6228zm0-3.8453h1.6228v2.0549h-1.6228z" style=""/>
   </g>
  </g>
  <g id="g18">
   <path id="rect12" d="m190 200h120v40h-120z" fill="#fff" stroke="#000" stroke-width="2"/>
   <g id="text16" aria-label="DonaldKacsa">
    <path id="path928" d="m195.05 213.81v10.239h2.1519q2.7252 0 3.9864-1.2347 1.27-1.2347 1.27-3.8982 0-2.6458-1.27-3.8717-1.2612-1.2347-3.9864-1.2347zm-1.7815-1.464h3.6601q3.8276 0 5.618 1.5963 1.7903 1.5875 1.7903 4.9742 0 3.4043-1.7992 5.0006-1.7992 1.5963-5.6092 1.5963h-3.6601z" style=""/>
    <path id="path930" d="m210.92 216.77q-1.3053 0-2.0638 1.0231-0.75847 1.0142-0.75847 2.7869 0 1.7727 0.74965 2.7958 0.75847 1.0142 2.0726 1.0142 1.2964 0 2.0549-1.023 0.75847-1.0231 0.75847-2.7869 0-1.7551-0.75847-2.7781-0.75848-1.0319-2.0549-1.0319zm0-1.3758q2.1167 0 3.3249 1.3758 1.2083 1.3758 1.2083 3.81 0 2.4253-1.2083 3.81-1.2083 1.3758-3.3249 1.3758-2.1255 0-3.3338-1.3758-1.1994-1.3846-1.1994-3.81 0-2.4342 1.1994-3.81 1.2083-1.3758 3.3338-1.3758z" style=""/>
    <path id="path932" d="m226.35 219.55v5.9619h-1.6228v-5.909q0-1.4023-0.5468-2.099-0.54681-0.69674-1.6404-0.69674-1.3141 0-2.0726 0.83785-0.75848 0.83784-0.75848 2.2842v5.5827h-1.6316v-9.8778h1.6316v1.5346q0.58209-0.89077 1.367-1.3317 0.79375-0.44097 1.8256-0.44097 1.7022 0 2.5753 1.0583 0.87313 1.0495 0.87313 3.0956z" style=""/>
    <path id="path934" d="m234.09 220.55q-1.9667 0-2.7252 0.44979t-0.75847 1.5346q0 0.86431 0.56444 1.3758 0.57326 0.50271 1.5522 0.50271 1.3494 0 2.1608-0.9525 0.82021-0.96131 0.82021-2.5488v-0.3616zm3.2367-0.67028v5.6356h-1.6228v-1.4993q-0.55563 0.89958-1.3846 1.3317-0.82903 0.42334-2.0285 0.42334-1.5169 0-2.4165-0.84667-0.89076-0.85549-0.89076-2.2842 0-1.6669 1.1112-2.5135 1.1201-0.84667 3.3337-0.84667h2.2754v-0.15875q0-1.1201-0.74083-1.7286-0.73202-0.61736-2.0638-0.61736-0.84667 0-1.6492 0.20285-0.80256 0.20285-1.5434 0.60854v-1.4993q0.89077-0.34396 1.7286-0.51153 0.83785-0.17639 1.6316-0.17639 2.1431 0 3.2014 1.1112t1.0583 3.369z" style=""/>
    <path id="path936" d="m240.68 211.79h1.6228v13.723h-1.6228z" style=""/>
    <path id="path938" d="m252.19 217.13v-5.3446h1.6228v13.723h-1.6228v-1.4817q-0.51153 0.88194-1.2965 1.3141-0.77611 0.42334-1.8697 0.42334-1.7903 0-2.9192-1.4288-1.1201-1.4288-1.1201-3.7571t1.1201-3.7571q1.1289-1.4288 2.9192-1.4288 1.0936 0 1.8697 0.43215 0.78493 0.42334 1.2965 1.3053zm-5.5298 3.4484q0 1.7903 0.73201 2.8134 0.74083 1.0142 2.0285 1.0142t2.0285-1.0142q0.74083-1.0231 0.74083-2.8134 0-1.7904-0.74083-2.8046-0.74083-1.0231-2.0285-1.0231t-2.0285 1.0231q-0.73201 1.0142-0.73201 2.8046z" style=""/>
    <path id="path940" d="m257.22 212.34h1.7815v5.5651l5.909-5.5651h2.2931l-6.5352 6.1383 7.0026 7.0291h-2.346l-6.3235-6.3412v6.3412h-1.7815z" style=""/>
    <path id="path942" d="m273.18 220.55q-1.9667 0-2.7252 0.44979t-0.75847 1.5346q0 0.86431 0.56444 1.3758 0.57326 0.50271 1.5522 0.50271 1.3494 0 2.1608-0.9525 0.82021-0.96131 0.82021-2.5488v-0.3616zm3.2367-0.67028v5.6356h-1.6228v-1.4993q-0.55563 0.89958-1.3846 1.3317-0.82903 0.42334-2.0285 0.42334-1.5169 0-2.4165-0.84667-0.89076-0.85549-0.89076-2.2842 0-1.6669 1.1112-2.5135 1.1201-0.84667 3.3338-0.84667h2.2754v-0.15875q0-1.1201-0.74083-1.7286-0.73202-0.61736-2.0638-0.61736-0.84667 0-1.6492 0.20285-0.80256 0.20285-1.5434 0.60854v-1.4993q0.89077-0.34396 1.7286-0.51153 0.83785-0.17639 1.6316-0.17639 2.1431 0 3.2014 1.1112t1.0583 3.369z" style=""/>
    <path id="path944" d="m286.87 216.01v1.5169q-0.68791-0.37923-1.3846-0.56444-0.68791-0.19403-1.3935-0.19403-1.5787 0-2.4518 1.0054-0.87312 0.99659-0.87312 2.8046 0 1.808 0.87312 2.8134 0.87312 0.99659 2.4518 0.99659 0.70556 0 1.3935-0.1852 0.69674-0.19403 1.3846-0.57327v1.4993q-0.67909 0.3175-1.4111 0.47625-0.72319 0.15875-1.5434 0.15875-2.2313 0-3.5454-1.4023-1.3141-1.4023-1.3141-3.7835 0-2.4165 1.3229-3.8012 1.3317-1.3846 3.6424-1.3846 0.74965 0 1.464 0.15875 0.71438 0.14993 1.3846 0.45861z" style=""/>
    <path id="path946" d="m296.01 215.92v1.5346q-0.68791-0.35278-1.4287-0.52917-0.74084-0.17639-1.5346-0.17639-1.2083 0-1.8168 0.37042-0.59972 0.37042-0.59972 1.1112 0 0.56444 0.43215 0.89076 0.43215 0.3175 1.7374 0.60854l0.55562 0.12347q1.7286 0.37042 2.4518 1.0495 0.73201 0.67027 0.73201 1.8785 0 1.3758-1.0936 2.1784-1.0848 0.80257-2.9898 0.80257-0.79375 0-1.658-0.15875-0.85549-0.14994-1.808-0.45862v-1.6757q0.89958 0.46743 1.7727 0.70556 0.87313 0.2293 1.7286 0.2293 1.1465 0 1.7639-0.38805 0.61736-0.39688 0.61736-1.1112 0-0.66146-0.44979-1.0142-0.44098-0.35277-1.9491-0.67909l-0.56444-0.13229q-1.5081-0.3175-2.1784-0.97014-0.67028-0.66146-0.67028-1.808 0-1.3935 0.98778-2.1519 0.98777-0.75847 2.8046-0.75847 0.89958 0 1.6933 0.13229t1.464 0.39688z" style=""/>
    <path id="path948" d="m303.62 220.55q-1.9667 0-2.7252 0.44979-0.75847 0.44979-0.75847 1.5346 0 0.86431 0.56445 1.3758 0.57326 0.50271 1.5522 0.50271 1.3494 0 2.1608-0.9525 0.82021-0.96131 0.82021-2.5488v-0.3616zm3.2367-0.67028v5.6356h-1.6228v-1.4993q-0.55563 0.89958-1.3847 1.3317-0.82902 0.42334-2.0285 0.42334-1.5169 0-2.4165-0.84667-0.89076-0.85549-0.89076-2.2842 0-1.6669 1.1112-2.5135 1.1201-0.84667 3.3337-0.84667h2.2754v-0.15875q0-1.1201-0.74084-1.7286-0.73201-0.61736-2.0637-0.61736-0.84667 0-1.6492 0.20285t-1.5434 0.60854v-1.4993q0.89076-0.34396 1.7286-0.51153 0.83785-0.17639 1.6316-0.17639 2.1431 0 3.2014 1.1112t1.0583 3.369z" style=""/>
   </g>
  </g>
  <g id="g26">
   <path id="rect20" d="m190 260h120v40h-120z" fill="#fff" stroke="#000" stroke-width="2"/>
   <g id="text24" aria-label="Taz">
    <path id="path952" d="m235.64 272.34h11.139v1.4993h-4.6743v11.668h-1.7904v-11.668h-4.6743z" style=""/>
    <path id="path954" d="m249.93 280.55q-1.9667 0-2.7252 0.44979t-0.75847 1.5346q0 0.8643 0.56444 1.3758 0.57326 0.50271 1.5522 0.50271 1.3494 0 2.1608-0.9525 0.82021-0.96132 0.82021-2.5488v-0.36159zm3.2367-0.67028v5.6356h-1.6228v-1.4993q-0.55562 0.89958-1.3846 1.3317-0.82903 0.42333-2.0285 0.42333-1.5169 0-2.4165-0.84667-0.89076-0.85548-0.89076-2.2842 0-1.6669 1.1112-2.5135 1.1201-0.84666 3.3338-0.84666h2.2754v-0.15875q0-1.1201-0.74083-1.7286-0.73201-0.61736-2.0638-0.61736-0.84666 0-1.6492 0.20284-0.80257 0.20285-1.5434 0.60855v-1.4993q0.89076-0.34396 1.7286-0.51153 0.83785-0.17638 1.6316-0.17638 2.1431 0 3.2014 1.1112 1.0583 1.1112 1.0583 3.369z" style=""/>
    <path id="path956" d="m255.81 275.63h7.7082v1.4817l-6.103 7.0996h6.103v1.2965h-7.9287v-1.4817l6.103-7.0996h-5.8826z" style=""/>
   </g>
  </g>
  <g id="text30" aria-label="nevek">
   <path id="path959" d="m232.48 124.04v5.9619h-1.6228v-5.909q0-1.4023-0.54681-2.099-0.5468-0.69673-1.6404-0.69673-1.3141 0-2.0726 0.83784-0.75847 0.83785-0.75847 2.2842v5.5827h-1.6316v-9.8778h1.6316v1.5346q0.58208-0.89077 1.367-1.3317 0.79375-0.44097 1.8256-0.44097 1.7022 0 2.5753 1.0583 0.87312 1.0495 0.87312 3.0956z" style=""/>
   <path id="path961" d="m244.19 124.66v0.79375h-7.4612q0.10584 1.6757 1.0054 2.5576 0.9084 0.87312 2.5224 0.87312 0.93486 0 1.808-0.2293 0.88194-0.22931 1.7462-0.68792v1.5346q-0.87313 0.37042-1.7904 0.56445-0.91722 0.19402-1.8609 0.19402-2.3636 0-3.7483-1.3758-1.3758-1.3758-1.3758-3.7218 0-2.4253 1.3053-3.8453 1.3141-1.4288 3.5366-1.4288 1.9932 0 3.1485 1.2876 1.1642 1.2788 1.1642 3.4837zm-1.6228-0.47625q-0.0176-1.3317-0.74965-2.1255-0.7232-0.79375-1.9226-0.79375-1.3582 0-2.1784 0.76729-0.81139 0.76729-0.93486 2.1608z" style=""/>
   <path id="path963" d="m245.69 120.12h1.7198l3.0868 8.2903 3.0868-8.2903h1.7198l-3.7042 9.8778h-2.2049z" style=""/>
   <path id="path965" d="m265.99 124.66v0.79375h-7.4612q0.10584 1.6757 1.0054 2.5576 0.9084 0.87312 2.5224 0.87312 0.93486 0 1.808-0.2293 0.88195-0.22931 1.7462-0.68792v1.5346q-0.87312 0.37042-1.7903 0.56445-0.91723 0.19402-1.8609 0.19402-2.3636 0-3.7482-1.3758-1.3758-1.3758-1.3758-3.7218 0-2.4253 1.3053-3.8453 1.3141-1.4288 3.5366-1.4288 1.9932 0 3.1485 1.2876 1.1642 1.2788 1.1642 3.4837zm-1.6228-0.47625q-0.0176-1.3317-0.74965-2.1255-0.7232-0.79375-1.9226-0.79375-1.3582 0-2.1784 0.76729-0.81139 0.76729-0.93486 2.1608z" style=""/>
   <path id="path967" d="m268.59 116.28h1.6316v8.1051l4.8419-4.2598h2.0726l-5.2388 4.6214 5.4592 5.2564h-2.1167l-5.0183-4.8242v4.8242h-1.6316z" style=""/>
  </g>
  <path id="rect32" d="m340 40h40v360h-40z" fill="#7babe3" stroke="#7babe3" stroke-width="2"/>
  <g id="g40">
   <path id="rect34" d="m460 140h100v40h-100z" fill="#fff" stroke="#000" stroke-width="2"/>
   <g id="text38" aria-label="555-1298">
    <path id="path972" d="m468.43 152.34h6.9938v1.4993h-5.3622v3.2279q0.38806-0.13229 0.77611-0.19402 0.38806-0.0706 0.77611-0.0706 2.2049 0 3.4925 1.2083 1.2876 1.2083 1.2876 3.272 0 2.1255-1.3229 3.3073-1.3229 1.173-3.7306 1.173-0.82903 0-1.6933-0.14112-0.85548-0.14111-1.7727-0.42333v-1.7903q0.79375 0.43215 1.6404 0.64381 0.84666 0.21167 1.7903 0.21167 1.5258 0 2.4165-0.80257t0.89076-2.1784-0.89076-2.1784-2.4165-0.80257q-0.71437 0-1.4287 0.15875-0.70556 0.15875-1.4464 0.49389z" style=""/>
    <path id="path974" d="m479.93 152.34h6.9938v1.4993h-5.3622v3.2279q0.38805-0.13229 0.77611-0.19402 0.38805-0.0706 0.77611-0.0706 2.2048 0 3.4925 1.2083 1.2876 1.2083 1.2876 3.272 0 2.1255-1.3229 3.3073-1.3229 1.173-3.7306 1.173-0.82902 0-1.6933-0.14112-0.85548-0.14111-1.7727-0.42333v-1.7903q0.79374 0.43215 1.6404 0.64381 0.84667 0.21167 1.7904 0.21167 1.5258 0 2.4165-0.80257t0.89076-2.1784-0.89076-2.1784-2.4165-0.80257q-0.71438 0-1.4288 0.15875-0.70556 0.15875-1.4464 0.49389z" style=""/>
    <path id="path976" d="m491.44 152.34h6.9938v1.4993h-5.3622v3.2279q0.38805-0.13229 0.77611-0.19402 0.38805-0.0706 0.77611-0.0706 2.2049 0 3.4925 1.2083 1.2876 1.2083 1.2876 3.272 0 2.1255-1.3229 3.3073-1.3229 1.173-3.7306 1.173-0.82902 0-1.6933-0.14112-0.85548-0.14111-1.7727-0.42333v-1.7903q0.79375 0.43215 1.6404 0.64381 0.84667 0.21167 1.7904 0.21167 1.5258 0 2.4165-0.80257t0.89076-2.1784-0.89076-2.1784-2.4165-0.80257q-0.71438 0-1.4288 0.15875-0.70556 0.15875-1.4464 0.49389z" style=""/>
    <path id="path978" d="m501.87 159.84h4.7537v1.4464h-4.7537z" style=""/>
    <path id="path980" d="m509.75 164.01h2.9104v-10.045l-3.1662 0.635v-1.6228l3.1485-0.635h1.7815v11.668h2.9104v1.4993h-7.5847z" style=""/>
    <path id="path982" d="m522.48 164.01h6.2177v1.4993h-8.3608v-1.4993q1.0142-1.0495 2.7605-2.8134 1.7551-1.7727 2.2049-2.2842 0.85548-0.96132 1.1906-1.6228 0.34396-0.67028 0.34396-1.3141 0-1.0495-0.74083-1.711-0.73202-0.66145-1.9138-0.66145-0.83785 0-1.7727 0.29104-0.92604 0.29104-1.9844 0.88194v-1.7992q1.076-0.43216 2.0108-0.65264 0.93486-0.22049 1.711-0.22049 2.0461 0 3.2632 1.0231 1.2171 1.023 1.2171 2.734 0 0.81139-0.30868 1.5434-0.29987 0.7232-1.1024 1.711-0.22049 0.25577-1.4023 1.4817-1.1818 1.2171-3.3338 3.4131z" style=""/>
    <path id="path984" d="m532.5 165.24v-1.6228q0.67027 0.3175 1.3582 0.48507t1.3494 0.16757q1.7639 0 2.6899-1.1818 0.93486-1.1906 1.0672-3.6072-0.51153 0.75847-1.2964 1.1642-0.78493 0.4057-1.7374 0.4057-1.9756 0-3.1309-1.1906-1.1465-1.1994-1.1465-3.272 0-2.0285 1.1994-3.2544 1.1994-1.2259 3.1926-1.2259 2.2842 0 3.4837 1.7551 1.2083 1.7462 1.2083 5.08 0 3.1133-1.4817 4.9742-1.4728 1.8521-3.9687 1.8521-0.67028 0-1.3582-0.1323-0.68792-0.13229-1.4288-0.39687zm3.5454-5.5827q1.1994 0 1.8962-0.82021 0.70555-0.82021 0.70555-2.249 0-1.4199-0.70555-2.2401-0.69674-0.82903-1.8962-0.82903t-1.905 0.82903q-0.69673 0.82021-0.69673 2.2401 0 1.4288 0.69673 2.249 0.70556 0.82021 1.905 0.82021z" style=""/>
    <path id="path986" d="m547.76 159.26q-1.27 0-2.002 0.6791-0.7232 0.6791-0.7232 1.8697t0.7232 1.8697q0.73201 0.6791 2.002 0.6791t2.002-0.6791q0.73201-0.68792 0.73201-1.8697 0-1.1906-0.73201-1.8697-0.72319-0.6791-2.002-0.6791zm-1.7815-0.75847q-1.1465-0.28222-1.7903-1.0672-0.635-0.78493-0.635-1.9138 0-1.5787 1.1201-2.4959 1.1289-0.91722 3.0868-0.91722 1.9667 0 3.0868 0.91722t1.1201 2.4959q0 1.1289-0.64382 1.9138-0.635 0.78493-1.7727 1.0672 1.2876 0.29986 2.002 1.173 0.7232 0.87312 0.7232 2.1343 0 1.9138-1.173 2.9369-1.1642 1.0231-3.3426 1.0231t-3.3514-1.0231q-1.1642-1.023-1.1642-2.9369 0-1.2612 0.72319-2.1343 0.72319-0.87313 2.0108-1.173zm-0.65264-2.8134q0 1.0231 0.635 1.5963 0.64382 0.57326 1.7992 0.57326 1.1465 0 1.7903-0.57326 0.65264-0.57326 0.65264-1.5963 0-1.023-0.65264-1.5963-0.64382-0.57326-1.7903-0.57326-1.1554 0-1.7992 0.57326-0.635 0.57327-0.635 1.5963z" style=""/>
   </g>
  </g>
  <g id="g48">
   <path id="rect42" d="m460 220h100v40h-100z" fill="#fff" stroke="#000" stroke-width="2"/>
   <g id="text46" aria-label="555-9924">
    <path id="path990" d="m468.43 232.34h6.9938v1.4993h-5.3622v3.2279q0.38806-0.13229 0.77611-0.19402 0.38806-0.0706 0.77611-0.0706 2.2049 0 3.4925 1.2083 1.2876 1.2083 1.2876 3.272 0 2.1255-1.3229 3.3073-1.3229 1.173-3.7306 1.173-0.82903 0-1.6933-0.14112-0.85548-0.14111-1.7727-0.42333v-1.7903q0.79375 0.43215 1.6404 0.64381 0.84666 0.21167 1.7903 0.21167 1.5258 0 2.4165-0.80257t0.89076-2.1784-0.89076-2.1784-2.4165-0.80257q-0.71437 0-1.4287 0.15875-0.70556 0.15875-1.4464 0.49389z" style=""/>
    <path id="path992" d="m479.93 232.34h6.9938v1.4993h-5.3622v3.2279q0.38805-0.13229 0.77611-0.19402 0.38805-0.0706 0.77611-0.0706 2.2048 0 3.4925 1.2083 1.2876 1.2083 1.2876 3.272 0 2.1255-1.3229 3.3073-1.3229 1.173-3.7306 1.173-0.82902 0-1.6933-0.14112-0.85548-0.14111-1.7727-0.42333v-1.7903q0.79374 0.43215 1.6404 0.64381 0.84667 0.21167 1.7904 0.21167 1.5258 0 2.4165-0.80257t0.89076-2.1784-0.89076-2.1784-2.4165-0.80257q-0.71438 0-1.4288 0.15875-0.70556 0.15875-1.4464 0.49389z" style=""/>
    <path id="path994" d="m491.44 232.34h6.9938v1.4993h-5.3622v3.2279q0.38805-0.13229 0.77611-0.19402 0.38805-0.0706 0.77611-0.0706 2.2049 0 3.4925 1.2083 1.2876 1.2083 1.2876 3.272 0 2.1255-1.3229 3.3073-1.3229 1.173-3.7306 1.173-0.82902 0-1.6933-0.14112-0.85548-0.14111-1.7727-0.42333v-1.7903q0.79375 0.43215 1.6404 0.64381 0.84667 0.21167 1.7904 0.21167 1.5258 0 2.4165-0.80257t0.89076-2.1784-0.89076-2.1784-2.4165-0.80257q-0.71438 0-1.4288 0.15875-0.70556 0.15875-1.4464 0.49389z" style=""/>
    <path id="path996" d="m501.87 239.84h4.7537v1.4464h-4.7537z" style=""/>
    <path id="path998" d="m509.5 245.24v-1.6228q0.67028 0.3175 1.3582 0.48507 0.68791 0.16757 1.3494 0.16757 1.7639 0 2.6899-1.1818 0.93486-1.1906 1.0672-3.6072-0.51153 0.75847-1.2965 1.1642-0.78493 0.4057-1.7374 0.4057-1.9756 0-3.1309-1.1906-1.1465-1.1994-1.1465-3.272 0-2.0285 1.1994-3.2544t3.1926-1.2259q2.2842 0 3.4837 1.7551 1.2083 1.7462 1.2083 5.08 0 3.1133-1.4817 4.9742-1.4728 1.8521-3.9688 1.8521-0.67027 0-1.3582-0.1323-0.68791-0.13229-1.4288-0.39687zm3.5454-5.5827q1.1994 0 1.8962-0.82021 0.70556-0.82021 0.70556-2.249 0-1.4199-0.70556-2.2401-0.69673-0.82903-1.8962-0.82903-1.1994 0-1.905 0.82903-0.69674 0.82021-0.69674 2.2401 0 1.4288 0.69674 2.249 0.70555 0.82021 1.905 0.82021z" style=""/>
    <path id="path1000" d="m521 245.24v-1.6228q0.67027 0.3175 1.3582 0.48507 0.68791 0.16757 1.3494 0.16757 1.7639 0 2.6899-1.1818 0.93486-1.1906 1.0672-3.6072-0.51153 0.75847-1.2965 1.1642-0.78493 0.4057-1.7374 0.4057-1.9756 0-3.1309-1.1906-1.1465-1.1994-1.1465-3.272 0-2.0285 1.1994-3.2544 1.1994-1.2259 3.1926-1.2259 2.2842 0 3.4837 1.7551 1.2083 1.7462 1.2083 5.08 0 3.1133-1.4817 4.9742-1.4728 1.8521-3.9687 1.8521-0.67028 0-1.3582-0.1323-0.68791-0.13229-1.4287-0.39687zm3.5454-5.5827q1.1994 0 1.8962-0.82021 0.70555-0.82021 0.70555-2.249 0-1.4199-0.70555-2.2401-0.69674-0.82903-1.8962-0.82903-1.1994 0-1.905 0.82903-0.69674 0.82021-0.69674 2.2401 0 1.4288 0.69674 2.249 0.70555 0.82021 1.905 0.82021z" style=""/>
    <path id="path1002" d="m533.98 244.01h6.2177v1.4993h-8.3608v-1.4993q1.0142-1.0495 2.7605-2.8134 1.7551-1.7727 2.2049-2.2842 0.85549-0.96132 1.1906-1.6228 0.34396-0.67028 0.34396-1.3141 0-1.0495-0.74083-1.711-0.73201-0.66145-1.9138-0.66145-0.83784 0-1.7727 0.29104-0.92604 0.29104-1.9844 0.88194v-1.7992q1.076-0.43216 2.0108-0.65264 0.93486-0.22049 1.711-0.22049 2.0461 0 3.2632 1.0231 1.2171 1.023 1.2171 2.734 0 0.81139-0.30868 1.5434-0.29986 0.7232-1.1024 1.711-0.22049 0.25577-1.4023 1.4817-1.1818 1.2171-3.3338 3.4131z" style=""/>
    <path id="path1004" d="m548.84 233.9-4.4979 7.0291h4.4979zm-0.46743-1.5522h2.2401v8.5813h1.8785v1.4817h-1.8785v3.1044h-1.7727v-3.1044h-5.9443v-1.7198z" style=""/>
   </g>
  </g>
  <g id="g56">
   <path id="rect50" d="m460 300h100v40h-100z" fill="#fff" stroke="#000" stroke-width="2"/>
   <g id="text54" aria-label="555-9428">
    <path id="path1008" d="m468.43 312.34h6.9938v1.4993h-5.3622v3.2279q0.38806-0.13229 0.77611-0.19403 0.38806-0.0705 0.77611-0.0705 2.2049 0 3.4925 1.2083t1.2876 3.272q0 2.1255-1.3229 3.3073-1.3229 1.173-3.7306 1.173-0.82903 0-1.6933-0.14111-0.85548-0.14111-1.7727-0.42333v-1.7904q0.79375 0.43215 1.6404 0.64382 0.84666 0.21167 1.7903 0.21167 1.5258 0 2.4165-0.80257t0.89076-2.1784-0.89076-2.1784-2.4165-0.80257q-0.71437 0-1.4287 0.15875-0.70556 0.15875-1.4464 0.49389z" style=""/>
    <path id="path1010" d="m479.93 312.34h6.9938v1.4993h-5.3622v3.2279q0.38805-0.13229 0.77611-0.19403 0.38805-0.0705 0.77611-0.0705 2.2048 0 3.4925 1.2083t1.2876 3.272q0 2.1255-1.3229 3.3073-1.3229 1.173-3.7306 1.173-0.82902 0-1.6933-0.14111-0.85548-0.14111-1.7727-0.42333v-1.7904q0.79374 0.43215 1.6404 0.64382t1.7904 0.21167q1.5258 0 2.4165-0.80257t0.89076-2.1784-0.89076-2.1784-2.4165-0.80257q-0.71438 0-1.4288 0.15875-0.70556 0.15875-1.4464 0.49389z" style=""/>
    <path id="path1012" d="m491.44 312.34h6.9938v1.4993h-5.3622v3.2279q0.38805-0.13229 0.77611-0.19403 0.38805-0.0705 0.77611-0.0705 2.2049 0 3.4925 1.2083 1.2876 1.2083 1.2876 3.272 0 2.1255-1.3229 3.3073-1.3229 1.173-3.7306 1.173-0.82902 0-1.6933-0.14111-0.85548-0.14111-1.7727-0.42333v-1.7904q0.79375 0.43215 1.6404 0.64382 0.84667 0.21167 1.7904 0.21167 1.5258 0 2.4165-0.80257t0.89076-2.1784-0.89076-2.1784-2.4165-0.80257q-0.71438 0-1.4288 0.15875-0.70556 0.15875-1.4464 0.49389z" style=""/>
    <path id="path1014" d="m501.87 319.84h4.7537v1.4464h-4.7537z" style=""/>
    <path id="path1016" d="m509.5 325.24v-1.6228q0.67028 0.3175 1.3582 0.48507 0.68791 0.16757 1.3494 0.16757 1.7639 0 2.6899-1.1818 0.93486-1.1906 1.0672-3.6072-0.51153 0.75847-1.2965 1.1642-0.78493 0.40569-1.7374 0.40569-1.9756 0-3.1309-1.1906-1.1465-1.1994-1.1465-3.272 0-2.0285 1.1994-3.2544t3.1926-1.2259q2.2842 0 3.4837 1.7551 1.2083 1.7462 1.2083 5.08 0 3.1133-1.4817 4.9742-1.4728 1.8521-3.9688 1.8521-0.67027 0-1.3582-0.13229-0.68791-0.13229-1.4288-0.39688zm3.5454-5.5827q1.1994 0 1.8962-0.82021 0.70556-0.8202 0.70556-2.249 0-1.4199-0.70556-2.2401-0.69673-0.82902-1.8962-0.82902-1.1994 0-1.905 0.82902-0.69674 0.82021-0.69674 2.2401 0 1.4288 0.69674 2.249 0.70555 0.82021 1.905 0.82021z" style=""/>
    <path id="path1018" d="m525.84 313.9-4.4979 7.0291h4.4979zm-0.46743-1.5522h2.2401v8.5813h1.8785v1.4817h-1.8785v3.1044h-1.7727v-3.1044h-5.9443v-1.7198z" style=""/>
    <path id="path1020" d="m533.98 324.01h6.2177v1.4993h-8.3608v-1.4993q1.0142-1.0495 2.7605-2.8134 1.7551-1.7727 2.2049-2.2842 0.85549-0.96132 1.1906-1.6228 0.34396-0.67027 0.34396-1.3141 0-1.0495-0.74083-1.711-0.73201-0.66146-1.9138-0.66146-0.83784 0-1.7727 0.29104-0.92604 0.29104-1.9844 0.88195v-1.7992q1.076-0.43215 2.0108-0.65264 0.93486-0.22048 1.711-0.22048 2.0461 0 3.2632 1.023 1.2171 1.0231 1.2171 2.734 0 0.81138-0.30868 1.5434-0.29986 0.72319-1.1024 1.711-0.22049 0.25576-1.4023 1.4817-1.1818 1.2171-3.3338 3.4131z" style=""/>
    <path id="path1022" d="m547.76 319.26q-1.27 0-2.002 0.67909-0.7232 0.6791-0.7232 1.8697 0 1.1906 0.7232 1.8697 0.73201 0.6791 2.002 0.6791t2.002-0.6791q0.73201-0.68791 0.73201-1.8697 0-1.1906-0.73201-1.8697-0.72319-0.67909-2.002-0.67909zm-1.7815-0.75847q-1.1465-0.28223-1.7903-1.0672-0.635-0.78492-0.635-1.9138 0-1.5787 1.1201-2.4959 1.1289-0.91722 3.0868-0.91722 1.9667 0 3.0868 0.91722t1.1201 2.4959q0 1.1289-0.64382 1.9138-0.635 0.78493-1.7727 1.0672 1.2876 0.29986 2.002 1.173 0.7232 0.87313 0.7232 2.1343 0 1.9138-1.173 2.9369-1.1642 1.023-3.3426 1.023t-3.3514-1.023q-1.1642-1.0231-1.1642-2.9369 0-1.2612 0.72319-2.1343 0.72319-0.87312 2.0108-1.173zm-0.65264-2.8134q0 1.023 0.635 1.5963 0.64382 0.57327 1.7992 0.57327 1.1465 0 1.7903-0.57327 0.65264-0.57326 0.65264-1.5963 0-1.0231-0.65264-1.5963-0.64382-0.57326-1.7903-0.57326-1.1554 0-1.7992 0.57326-0.635 0.57326-0.635 1.5963z" style=""/>
   </g>
  </g>
  <g id="g62" fill="none" stroke="#000" stroke-width="2">
   <path id="polyline58" d="m310 160h50l57.317 76.422"/>
   <path id="polyline60" d="m408.66 233.21 10 5-2-11"/>
  </g>
  <g id="g68" fill="none" stroke="#000" stroke-width="2">
   <path id="polyline64" d="m310 220h50l56.838-56.838"/>
   <path id="polyline66" d="m414.88 172.19 3.536-10.607-10.607 3.536"/>
  </g>
  <g id="g74" fill="none" stroke="#000" stroke-width="2">
   <path id="polyline70" d="m310 280h50l56.279 37.519"/>
   <path id="polyline72" d="m407.04 317.37 11.094 1.387-5.547-9.708"/>
  </g>
  <g id="text78" aria-label="telszámok[]">
   <path id="path1031" d="m440.09 37.318v2.8046h3.3426v1.2612h-3.3426v5.3622q0 1.2083 0.32632 1.5522 0.33514 0.34396 1.3494 0.34396h1.6669v1.3582h-1.6669q-1.8785 0-2.5929-0.69674-0.71437-0.70556-0.71437-2.5576v-5.3622h-1.1906v-1.2612h1.1906v-2.8046z" style=""/>
   <path id="path1033" d="m454.03 44.655v0.79375h-7.4612q0.10583 1.6757 1.0054 2.5576 0.90841 0.87312 2.5224 0.87312 0.93486 0 1.808-0.2293 0.88194-0.22931 1.7462-0.68792v1.5346q-0.87312 0.37042-1.7903 0.56444t-1.8609 0.19403q-2.3636 0-3.7483-1.3758-1.3758-1.3758-1.3758-3.7218 0-2.4253 1.3053-3.8453 1.3141-1.4287 3.5366-1.4287 1.9932 0 3.1485 1.2876 1.1642 1.2788 1.1642 3.4837zm-1.6228-0.47625q-0.0176-1.3317-0.74965-2.1255-0.72319-0.79375-1.9226-0.79375-1.3582 0-2.1784 0.76729-0.81138 0.76729-0.93486 2.1608z" style=""/>
   <path id="path1035" d="m456.69 36.277h1.6228v13.723h-1.6228z" style=""/>
   <path id="path1037" d="m468 40.413v1.5346q-0.68791-0.35278-1.4288-0.52917-0.74083-0.17639-1.5346-0.17639-1.2083 0-1.8168 0.37042-0.59972 0.37042-0.59972 1.1112 0 0.56444 0.43215 0.89076 0.43215 0.3175 1.7374 0.60854l0.55562 0.12347q1.7286 0.37042 2.4518 1.0495 0.73201 0.67028 0.73201 1.8785 0 1.3758-1.0936 2.1784-1.0848 0.80257-2.9898 0.80257-0.79375 0-1.658-0.15875-0.85549-0.14993-1.808-0.45861v-1.6757q0.89958 0.46743 1.7727 0.70555 0.87312 0.22931 1.7286 0.22931 1.1465 0 1.7639-0.38806 0.61737-0.39688 0.61737-1.1112 0-0.66146-0.4498-1.0142-0.44097-0.35278-1.9491-0.6791l-0.56444-0.13229q-1.5081-0.3175-2.1784-0.97014-0.67028-0.66146-0.67028-1.808 0-1.3935 0.98777-2.1519 0.98778-0.75847 2.8046-0.75847 0.89959 0 1.6933 0.13229 0.79375 0.13229 1.464 0.39687z" style=""/>
   <path id="path1039" d="m470.41 40.122h7.7082v1.4817l-6.103 7.0996h6.103v1.2965h-7.9287v-1.4817l6.103-7.0996h-5.8826z" style=""/>
   <path id="path1041" d="m485.1 45.035q-1.9667 0-2.7252 0.44979t-0.75847 1.5346q0 0.8643 0.56444 1.3758 0.57327 0.50271 1.5522 0.50271 1.3494 0 2.1608-0.9525 0.82021-0.96132 0.82021-2.5488v-0.3616zm3.2367-0.67028v5.6356h-1.6228v-1.4993q-0.55562 0.89958-1.3846 1.3317-0.82903 0.42333-2.0285 0.42333-1.5169 0-2.4165-0.84667-0.89077-0.85548-0.89077-2.2842 0-1.6669 1.1112-2.5135 1.1201-0.84667 3.3338-0.84667h2.2754v-0.15875q0-1.1201-0.74083-1.7286-0.73201-0.61736-2.0638-0.61736-0.84666 0-1.6492 0.20285t-1.5434 0.60854v-1.4993q0.89076-0.34396 1.7286-0.51153 0.83784-0.17639 1.6316-0.17639 2.1431 0 3.2015 1.1112 1.0583 1.1112 1.0583 3.369zm-2.9633-8.8106h1.7551l-2.8751 3.3161h-1.3494z" style=""/>
   <path id="path1043" d="m499.38 42.018q0.60854-1.0936 1.4552-1.614 0.84666-0.52035 1.9932-0.52035 1.5434 0 2.3812 1.0848 0.83785 1.076 0.83785 3.0692v5.9619h-1.6316v-5.909q0-1.4199-0.50271-2.1078-0.50271-0.68792-1.5346-0.68792-1.2612 0-1.9932 0.83785-0.73201 0.83785-0.73201 2.2842v5.5827h-1.6316v-5.909q0-1.4287-0.50271-2.1078-0.50271-0.68792-1.5522-0.68792-1.2435 0-1.9756 0.84666-0.73201 0.83785-0.73201 2.2754v5.5827h-1.6316v-9.8778h1.6316v1.5346q0.55563-0.9084 1.3317-1.3406 0.77611-0.43215 1.8433-0.43215 1.076 0 1.8256 0.5468 0.75847 0.5468 1.1201 1.5875z" style=""/>
   <path id="path1045" d="m513.12 41.26q-1.3053 0-2.0638 1.0231-0.75847 1.0142-0.75847 2.7869 0 1.7727 0.74965 2.7958 0.75847 1.0142 2.0726 1.0142 1.2964 0 2.0549-1.0231 0.75847-1.0231 0.75847-2.7869 0-1.7551-0.75847-2.7781-0.75847-1.0319-2.0549-1.0319zm0-1.3758q2.1167 0 3.3249 1.3758t1.2083 3.81q0 2.4253-1.2083 3.81-1.2083 1.3758-3.3249 1.3758-2.1255 0-3.3338-1.3758-1.1994-1.3847-1.1994-3.81 0-2.4342 1.1994-3.81 1.2083-1.3758 3.3338-1.3758z" style=""/>
   <path id="path1047" d="m520.27 36.277h1.6316v8.1051l4.8419-4.2598h2.0726l-5.2388 4.6214 5.4592 5.2564h-2.1167l-5.0183-4.8242v4.8242h-1.6316z" style=""/>
   <path id="path1049" d="m530.66 36.277h3.7394v1.2612h-2.1167v13.582h2.1167v1.2612h-3.7394z" style=""/>
   <path id="path1051" d="m541.66 36.277v16.104h-3.7394v-1.2612h2.1078v-13.582h-2.1078v-1.2612z" style=""/>
  </g>
  <g id="text82" aria-label="hash()">
   <path id="path1054" d="m341.14 24.038v5.9619h-1.6228v-5.909q0-1.4023-0.5468-2.099-0.54681-0.69674-1.6404-0.69674-1.3141 0-2.0726 0.83785t-0.75847 2.2842v5.5827h-1.6316v-13.723h1.6316v5.3799q0.58208-0.89076 1.367-1.3317 0.79375-0.44097 1.8256-0.44097 1.7022 0 2.5753 1.0583 0.87312 1.0495 0.87312 3.0956z" style=""/>
   <path id="path1056" d="m348.89 25.035q-1.9667 0-2.7252 0.44979t-0.75847 1.5346q0 0.8643 0.56444 1.3758 0.57326 0.50271 1.5522 0.50271 1.3494 0 2.1608-0.9525 0.82021-0.96132 0.82021-2.5488v-0.3616zm3.2367-0.67028v5.6356h-1.6228v-1.4993q-0.55562 0.89958-1.3846 1.3317-0.82903 0.42333-2.0285 0.42333-1.5169 0-2.4165-0.84667-0.89076-0.85548-0.89076-2.2842 0-1.6669 1.1112-2.5135 1.1201-0.84667 3.3338-0.84667h2.2754v-0.15875q0-1.1201-0.74083-1.7286-0.73202-0.61736-2.0638-0.61736-0.84667 0-1.6492 0.20285-0.80257 0.20285-1.5434 0.60854v-1.4993q0.89076-0.34396 1.7286-0.51153 0.83785-0.17639 1.6316-0.17639 2.1431 0 3.2014 1.1112 1.0583 1.1112 1.0583 3.369z" style=""/>
   <path id="path1058" d="m361.77 20.413v1.5346q-0.68792-0.35278-1.4288-0.52917t-1.5346-0.17639q-1.2083 0-1.8168 0.37042-0.59972 0.37042-0.59972 1.1112 0 0.56444 0.43215 0.89076 0.43216 0.3175 1.7374 0.60854l0.55563 0.12347q1.7286 0.37042 2.4518 1.0495 0.73201 0.67028 0.73201 1.8785 0 1.3758-1.0936 2.1784-1.0848 0.80257-2.9898 0.80257-0.79374 0-1.658-0.15875-0.85548-0.14993-1.808-0.45861v-1.6757q0.89958 0.46743 1.7727 0.70555 0.87313 0.22931 1.7286 0.22931 1.1465 0 1.7639-0.38806 0.61736-0.39688 0.61736-1.1112 0-0.66146-0.44979-1.0142-0.44097-0.35278-1.9491-0.6791l-0.56444-0.13229q-1.5081-0.3175-2.1784-0.97014-0.67028-0.66146-0.67028-1.808 0-1.3935 0.98778-2.1519 0.98778-0.75847 2.8046-0.75847 0.89958 0 1.6933 0.13229 0.79375 0.13229 1.464 0.39687z" style=""/>
   <path id="path1060" d="m373.11 24.038v5.9619h-1.6228v-5.909q0-1.4023-0.5468-2.099-0.54681-0.69674-1.6404-0.69674-1.3141 0-2.0726 0.83785-0.75848 0.83785-0.75848 2.2842v5.5827h-1.6316v-13.723h1.6316v5.3799q0.58209-0.89076 1.367-1.3317 0.79375-0.44097 1.8256-0.44097 1.7022 0 2.5753 1.0583 0.87313 1.0495 0.87313 3.0956z" style=""/>
   <path id="path1062" d="m380.26 16.295q-1.1818 2.0285-1.7551 4.0128-0.57326 1.9844-0.57326 4.0217t0.57326 4.0393q0.58208 1.9932 1.7551 4.0128h-1.4111q-1.3229-2.0726-1.9844-4.0746-0.65264-2.002-0.65264-3.9776 0-1.9667 0.65264-3.9599 0.65263-1.9932 1.9844-4.0746z" style=""/>
   <path id="path1064" d="m383.16 16.295h1.4111q1.3229 2.0814 1.9756 4.0746 0.66145 1.9932 0.66145 3.9599 0 1.9756-0.66145 3.9776-0.65264 2.002-1.9756 4.0746h-1.4111q1.173-2.0196 1.7462-4.0128 0.58209-2.002 0.58209-4.0393t-0.58209-4.0217q-0.57326-1.9844-1.7462-4.0128z" style=""/>
  </g>
  <g id="g90">
   <path id="rect84" d="m460 100h100v40h-100z" fill="#fff" stroke="#000" stroke-width="2"/>
  </g>
  <g id="g98">
   <path id="rect92" d="m460 180h100v40h-100z" fill="#fff" stroke="#000" stroke-width="2"/>
  </g>
  <g id="g106">
   <path id="rect100" d="m460 60h100v40h-100z" fill="#fff" stroke="#000" stroke-width="2"/>
  </g>
  <g id="g114">
   <path id="rect108" d="m460 260h100v40h-100z" fill="#fff" stroke="#000" stroke-width="2"/>
  </g>
  <g id="g122">
   <path id="rect116" d="m460 340h100v40h-100z" fill="#fff" stroke="#000" stroke-width="2"/>
  </g>
  <g id="g130">
   <path id="rect124" d="m420 60h40v40h-40z" fill="#fff" stroke="#000" stroke-width="2"/>
   <g id="text128" aria-label="0">
    <path id="path1078" d="m439.99 73.517q-1.3758 0-2.0726 1.3582-0.68791 1.3494-0.68791 4.0658 0 2.7076 0.68791 4.0658 0.69674 1.3494 2.0726 1.3494 1.3846 0 2.0726-1.3494 0.69673-1.3582 0.69673-4.0658 0-2.7164-0.69673-4.0658-0.68792-1.3582-2.0726-1.3582zm0-1.4111q2.2137 0 3.3778 1.7551 1.173 1.7462 1.173 5.08 0 3.3249-1.173 5.08-1.1642 1.7462-3.3778 1.7462t-3.3867-1.7462q-1.1642-1.7551-1.1642-5.08 0-3.3337 1.1642-5.08 1.173-1.7551 3.3867-1.7551z" style=""/>
   </g>
  </g>
  <g id="g138">
   <path id="rect132" d="m420 100h40v40h-40z" fill="#fff" stroke="#000" stroke-width="2"/>
   <g id="text136" aria-label="1">
    <path id="path1082" d="m436.49 124.01h2.9104v-10.045l-3.1662 0.635v-1.6228l3.1485-0.635h1.7815v11.668h2.9104v1.4993h-7.5847z" style=""/>
   </g>
  </g>
  <g id="g146">
   <path id="rect140" d="m420 140h40v40h-40z" fill="#fff" stroke="#000" stroke-width="2"/>
   <g id="text144" aria-label="2">
    <path id="path1086" d="m437.72 164.01h6.2177v1.4993h-8.3608v-1.4993q1.0142-1.0495 2.7605-2.8134 1.7551-1.7727 2.2049-2.2842 0.85548-0.96132 1.1906-1.6228 0.34396-0.67028 0.34396-1.3141 0-1.0495-0.74084-1.711-0.73201-0.66145-1.9138-0.66145-0.83785 0-1.7727 0.29104-0.92604 0.29104-1.9844 0.88194v-1.7992q1.076-0.43216 2.0108-0.65264 0.93486-0.22049 1.711-0.22049 2.0461 0 3.2632 1.0231 1.2171 1.023 1.2171 2.734 0 0.81139-0.30868 1.5434-0.29986 0.7232-1.1024 1.711-0.22048 0.25577-1.4023 1.4817-1.1818 1.2171-3.3337 3.4131z" style=""/>
   </g>
  </g>
  <g id="g154">
   <path id="rect148" d="m420 180h40v40h-40z" fill="#fff" stroke="#000" stroke-width="2"/>
   <g id="text152" aria-label="3">
    <path id="path1090" d="m441.58 198.41q1.2788 0.2734 1.9932 1.1377 0.72319 0.86431 0.72319 2.1343 0 1.9491-1.3406 3.0162-1.3406 1.0672-3.81 1.0672-0.82902 0-1.711-0.16757-0.87312-0.15875-1.808-0.48507v-1.7198q0.74083 0.43215 1.6228 0.65264 0.88194 0.22048 1.8433 0.22048 1.6757 0 2.5488-0.66146 0.88195-0.66145 0.88195-1.9226 0-1.1642-0.82021-1.8168-0.81139-0.66145-2.2666-0.66145h-1.5346v-1.464h1.6051q1.3141 0 2.0108-0.52035 0.69674-0.52916 0.69674-1.5169 0-1.0142-0.7232-1.5522-0.71437-0.5468-2.0549-0.5468-0.73202 0-1.5699 0.15875-0.83785 0.15875-1.8433 0.49388v-1.5875q1.0142-0.28223 1.8962-0.42334 0.89077-0.14111 1.6757-0.14111 2.0285 0 3.2103 0.92604 1.1818 0.91722 1.1818 2.4871 0 1.0936-0.62618 1.8521-0.62618 0.74966-1.7815 1.0407z" style=""/>
   </g>
  </g>
  <g id="g162">
   <path id="rect156" d="m420 220h40v40h-40z" fill="#fff" stroke="#000" stroke-width="2"/>
   <g id="text160" aria-label="4">
    <path id="path1094" d="m441.08 233.9-4.4979 7.0291h4.4979zm-0.46743-1.5522h2.2401v8.5813h1.8785v1.4817h-1.8785v3.1044h-1.7727v-3.1044h-5.9443v-1.7198z" style=""/>
   </g>
  </g>
  <g id="g170">
   <path id="rect164" d="m420 260h40v40h-40z" fill="#fff" stroke="#000" stroke-width="2"/>
   <g id="text168" aria-label="5">
    <path id="path1098" d="m436.2 272.34h6.9938v1.4993h-5.3622v3.2279q0.38805-0.13229 0.77611-0.19403 0.38805-0.0705 0.77611-0.0705 2.2049 0 3.4925 1.2083 1.2876 1.2083 1.2876 3.272 0 2.1255-1.3229 3.3073-1.3229 1.173-3.7306 1.173-0.82903 0-1.6933-0.14111-0.85549-0.14111-1.7727-0.42333v-1.7904q0.79375 0.43215 1.6404 0.64382 0.84667 0.21167 1.7904 0.21167 1.5258 0 2.4165-0.80257 0.89077-0.80257 0.89077-2.1784t-0.89077-2.1784q-0.89076-0.80257-2.4165-0.80257-0.71437 0-1.4288 0.15875-0.70555 0.15875-1.4464 0.49389z" style=""/>
   </g>
  </g>
  <g id="g178">
   <path id="rect172" d="m420 300h40v40h-40z" fill="#fff" stroke="#000" stroke-width="2"/>
   <g id="text176" aria-label="6">
    <path id="path1102" d="m440.21 318.22q-1.1994 0-1.905 0.82021-0.69674 0.82021-0.69674 2.249 0 1.4199 0.69674 2.249 0.70555 0.82021 1.905 0.82021 1.1994 0 1.8962-0.82021 0.70556-0.82902 0.70556-2.249 0-1.4288-0.70556-2.249-0.69673-0.82021-1.8962-0.82021zm3.5366-5.5827v1.6228q-0.67028-0.3175-1.3582-0.48507-0.6791-0.16757-1.3494-0.16757-1.7639 0-2.6987 1.1906-0.92604 1.1906-1.0583 3.5983 0.52035-0.76729 1.3053-1.173 0.78493-0.41451 1.7286-0.41451 1.9844 0 3.1309 1.2083 1.1553 1.1994 1.1553 3.272 0 2.0285-1.1994 3.2544t-3.1926 1.2259q-2.2842 0-3.4925-1.7462-1.2083-1.7551-1.2083-5.08 0-3.1221 1.4817-4.9742 1.4817-1.8609 3.9776-1.8609 0.67027 0 1.3494 0.13229 0.68792 0.13229 1.4288 0.39687z" style=""/>
   </g>
  </g>
  <g id="g186">
   <path id="rect180" d="m420 340h40v40h-40z" fill="#fff" stroke="#000" stroke-width="2"/>
   <g id="text184" aria-label="7">
    <path id="path1106" d="m435.73 352.34h8.4667v0.75847l-4.7801 12.409h-1.8609l4.4979-11.668h-6.3235z" style=""/>
   </g>
  </g>
 </g>
</svg>
