<?xml version="1.0" encoding="UTF-8"?>
<svg id="svg185" width="18.768cm" height="20.831cm" version="1.1" viewBox="199 13 360.54 404.72" xmlns="http://www.w3.org/2000/svg" xmlns:cc="http://creativecommons.org/ns#" xmlns:dc="http://purl.org/dc/elements/1.1/" xmlns:rdf="http://www.w3.org/1999/02/22-rdf-syntax-ns#">
 <metadata id="metadata189">
  <rdf:RDF>
   <cc:Work rdf:about="">
    <dc:format>image/svg+xml</dc:format>
    <dc:type rdf:resource="http://purl.org/dc/dcmitype/StillImage"/>
   </cc:Work>
  </rdf:RDF>
 </metadata>
 <g id="Háttér" transform="translate(-2.0461 -3.277)">
  <g id="g8" stroke="#eb680e" stroke-width="2">
   <path id="path4" d="m540 320c28 0 28 40 11 40" fill="none"/>
   <path id="polygon6" d="m551 355-10 5 10 5z" fill="#eb680e" fill-rule="evenodd"/>
  </g>
  <g id="g14" stroke="#eb680e" stroke-width="2">
   <path id="path10" d="m540 280c28 0 28 30 11 30" fill="none"/>
   <path id="polygon12" d="m551 305-10 5 10 5z" fill="#eb680e" fill-rule="evenodd"/>
  </g>
  <g id="g22">
   <path id="rect16" d="m200 140h100v40h-100z" fill="#fff" stroke="#000" stroke-width="2"/>
   <g id="text20" aria-label="9957">
    <path id="path906" d="m228.98 165.24v-1.6228q0.67028 0.3175 1.3582 0.48507 0.68792 0.16757 1.3494 0.16757 1.7639 0 2.6899-1.1818 0.93486-1.1906 1.0672-3.6072-0.51152 0.75847-1.2964 1.1642-0.78493 0.4057-1.7374 0.4057-1.9756 0-3.1309-1.1906-1.1465-1.1994-1.1465-3.272 0-2.0285 1.1994-3.2544 1.1994-1.2259 3.1926-1.2259 2.2842 0 3.4837 1.7551 1.2083 1.7462 1.2083 5.08 0 3.1133-1.4817 4.9742-1.4728 1.8521-3.9688 1.8521-0.67028 0-1.3582-0.1323-0.68792-0.13229-1.4288-0.39687zm3.5454-5.5827q1.1994 0 1.8962-0.82021 0.70555-0.82021 0.70555-2.249 0-1.4199-0.70555-2.2401-0.69674-0.82903-1.8962-0.82903t-1.905 0.82903q-0.69673 0.82021-0.69673 2.2401 0 1.4288 0.69673 2.249 0.70556 0.82021 1.905 0.82021z" style=""/>
    <path id="path908" d="m240.48 165.24v-1.6228q0.67028 0.3175 1.3582 0.48507 0.68792 0.16757 1.3494 0.16757 1.7639 0 2.6899-1.1818 0.93486-1.1906 1.0672-3.6072-0.51153 0.75847-1.2965 1.1642-0.78493 0.4057-1.7374 0.4057-1.9756 0-3.1309-1.1906-1.1465-1.1994-1.1465-3.272 0-2.0285 1.1994-3.2544t3.1926-1.2259q2.2842 0 3.4837 1.7551 1.2083 1.7462 1.2083 5.08 0 3.1133-1.4817 4.9742-1.4728 1.8521-3.9688 1.8521-0.67028 0-1.3582-0.1323-0.68792-0.13229-1.4288-0.39687zm3.5454-5.5827q1.1994 0 1.8962-0.82021 0.70556-0.82021 0.70556-2.249 0-1.4199-0.70556-2.2401-0.69673-0.82903-1.8962-0.82903-1.1994 0-1.905 0.82903-0.69674 0.82021-0.69674 2.2401 0 1.4288 0.69674 2.249 0.70555 0.82021 1.905 0.82021z" style=""/>
    <path id="path910" d="m251.95 152.34h6.9938v1.4993h-5.3622v3.2279q0.38806-0.13229 0.77611-0.19402 0.38806-0.0706 0.77611-0.0706 2.2049 0 3.4925 1.2083 1.2876 1.2083 1.2876 3.272 0 2.1255-1.3229 3.3073-1.3229 1.173-3.7306 1.173-0.82903 0-1.6933-0.14112-0.85549-0.14111-1.7727-0.42333v-1.7903q0.79375 0.43215 1.6404 0.64381 0.84666 0.21167 1.7903 0.21167 1.5258 0 2.4165-0.80257 0.89076-0.80257 0.89076-2.1784t-0.89076-2.1784q-0.89077-0.80257-2.4165-0.80257-0.71437 0-1.4288 0.15875-0.70555 0.15875-1.4464 0.49389z" style=""/>
    <path id="path912" d="m262.98 152.34h8.4666v0.75847l-4.7801 12.409h-1.8609l4.4979-11.668h-6.3235z" style=""/>
   </g>
  </g>
  <g id="g30">
   <path id="rect24" d="m200 200h101.9v40h-101.9z" fill="#fff" stroke="#000" stroke-width="2"/>
   <g id="text28" aria-label="1024">
    <path id="path916" d="m230.19 224.01h2.9104v-10.045l-3.1662 0.635v-1.6228l3.1485-0.635h1.7815v11.668h2.9104v1.4993h-7.5847z" style=""/>
    <path id="path918" d="m245.19 213.52q-1.3758 0-2.0726 1.3582-0.68792 1.3494-0.68792 4.0658 0 2.7076 0.68792 4.0658 0.69673 1.3494 2.0726 1.3494 1.3846 0 2.0726-1.3494 0.69674-1.3582 0.69674-4.0658 0-2.7164-0.69674-4.0658-0.68791-1.3582-2.0726-1.3582zm0-1.4111q2.2137 0 3.3778 1.7551 1.173 1.7462 1.173 5.08 0 3.3249-1.173 5.08-1.1642 1.7462-3.3778 1.7462-2.2137 0-3.3867-1.7462-1.1642-1.7551-1.1642-5.08 0-3.3337 1.1642-5.08 1.173-1.7551 3.3867-1.7551z" style=""/>
    <path id="path920" d="m254.42 224.01h6.2177v1.4993h-8.3608v-1.4993q1.0142-1.0495 2.7605-2.8134 1.7551-1.7727 2.2049-2.2842 0.85549-0.96132 1.1906-1.6228 0.34395-0.67028 0.34395-1.3141 0-1.0495-0.74083-1.711-0.73201-0.66145-1.9138-0.66145-0.83785 0-1.7727 0.29104-0.92604 0.29104-1.9844 0.88194v-1.7992q1.076-0.43216 2.0108-0.65264 0.93486-0.22049 1.711-0.22049 2.0461 0 3.2632 1.0231 1.2171 1.023 1.2171 2.734 0 0.81139-0.30868 1.5434-0.29986 0.7232-1.1024 1.711-0.22049 0.25577-1.4023 1.4817-1.1818 1.2171-3.3338 3.4131z" style=""/>
    <path id="path922" d="m269.28 213.9-4.4979 7.0291h4.4979zm-0.46743-1.5522h2.2401v8.5813h1.8785v1.4817h-1.8785v3.1044h-1.7727v-3.1044h-5.9443v-1.7198z" style=""/>
   </g>
  </g>
  <g id="g38">
   <path id="rect32" d="m200 260h100v40h-100z" fill="#fff" stroke="#000" stroke-width="2"/>
   <g id="text36" aria-label="13457">
    <path id="path926" d="m223.49 284.01h2.9104v-10.045l-3.1662 0.635v-1.6228l3.1485-0.635h1.7815v11.668h2.9104v1.4993h-7.5847z" style=""/>
    <path id="path928" d="m240.08 278.41q1.2788 0.2734 1.9932 1.1377 0.72319 0.8643 0.72319 2.1343 0 1.9491-1.3406 3.0162-1.3406 1.0672-3.81 1.0672-0.82902 0-1.711-0.16757-0.87312-0.15875-1.808-0.48507v-1.7198q0.74083 0.43215 1.6228 0.65264 0.88195 0.22049 1.8433 0.22049 1.6757 0 2.5488-0.66146 0.88195-0.66146 0.88195-1.9226 0-1.1642-0.82021-1.8168-0.81139-0.66146-2.2666-0.66146h-1.5346v-1.464h1.6051q1.3141 0 2.0108-0.52035 0.69674-0.52917 0.69674-1.5169 0-1.0142-0.7232-1.5522-0.71437-0.54681-2.0549-0.54681-0.73201 0-1.5698 0.15875-0.83785 0.15875-1.8433 0.49389v-1.5875q1.0142-0.28222 1.8962-0.42333 0.89076-0.14111 1.6757-0.14111 2.0285 0 3.2103 0.92604 1.1818 0.91722 1.1818 2.4871 0 1.0936-0.62618 1.8521-0.62618 0.74965-1.7815 1.0407z" style=""/>
    <path id="path930" d="m251.08 273.9-4.4979 7.0291h4.4979zm-0.46743-1.5522h2.2401v8.5813h1.8785v1.4817h-1.8785v3.1044h-1.7727v-3.1044h-5.9443v-1.7198z" style=""/>
    <path id="path932" d="m257.7 272.34h6.9938v1.4993h-5.3622v3.2279q0.38806-0.13229 0.77611-0.19403 0.38806-0.0705 0.77611-0.0705 2.2049 0 3.4925 1.2083 1.2876 1.2083 1.2876 3.272 0 2.1255-1.3229 3.3073-1.3229 1.173-3.7306 1.173-0.82903 0-1.6933-0.14111-0.85549-0.14111-1.7727-0.42333v-1.7904q0.79375 0.43215 1.6404 0.64382 0.84666 0.21167 1.7903 0.21167 1.5258 0 2.4165-0.80257 0.89076-0.80257 0.89076-2.1784t-0.89076-2.1784q-0.89077-0.80257-2.4165-0.80257-0.71437 0-1.4288 0.15875-0.70555 0.15875-1.4464 0.49389z" style=""/>
    <path id="path934" d="m268.73 272.34h8.4666v0.75847l-4.7801 12.409h-1.8609l4.4979-11.668h-6.3235z" style=""/>
   </g>
  </g>
  <g id="text42" aria-label="kulcsok">
   <path id="path937" d="m218 116.28h1.6316v8.1051l4.8419-4.2598h2.0726l-5.2388 4.6214 5.4592 5.2564h-2.1167l-5.0183-4.8242v4.8242h-1.6316z" style=""/>
   <path id="path939" d="m227.81 126.1v-5.9796h1.6228v5.9178q0 1.4023 0.54681 2.1078 0.5468 0.69673 1.6404 0.69673 1.3141 0 2.0726-0.83784 0.76729-0.83785 0.76729-2.2842v-5.6003h1.6228v9.8778h-1.6228v-1.5169q-0.5909 0.89958-1.3758 1.3406-0.77611 0.43215-1.808 0.43215-1.7022 0-2.5841-1.0583-0.88195-1.0583-0.88195-3.0956zm4.0834-6.2177z" style=""/>
   <path id="path941" d="m239.44 116.28h1.6228v13.723h-1.6228z" style=""/>
   <path id="path943" d="m251.56 120.5v1.5169q-0.68792-0.37923-1.3846-0.56444-0.68792-0.19403-1.3935-0.19403-1.5787 0-2.4518 1.0054-0.87313 0.99659-0.87313 2.8046 0 1.808 0.87313 2.8134 0.87312 0.99659 2.4518 0.99659 0.70555 0 1.3935-0.18521 0.69673-0.19402 1.3846-0.57326v1.4993q-0.6791 0.3175-1.4111 0.47625-0.72319 0.15875-1.5434 0.15875-2.2313 0-3.5454-1.4023-1.3141-1.4023-1.3141-3.7835 0-2.4165 1.3229-3.8012 1.3317-1.3846 3.6424-1.3846 0.74966 0 1.464 0.15875 0.71437 0.14993 1.3846 0.45861z" style=""/>
   <path id="path945" d="m260.7 120.41v1.5346q-0.68791-0.35278-1.4288-0.52917-0.74083-0.17639-1.5346-0.17639-1.2083 0-1.8168 0.37042-0.59972 0.37041-0.59972 1.1112 0 0.56444 0.43215 0.89076 0.43215 0.3175 1.7374 0.60854l0.55562 0.12347q1.7286 0.37042 2.4518 1.0495 0.73201 0.67027 0.73201 1.8785 0 1.3758-1.0936 2.1784-1.0848 0.80256-2.9898 0.80256-0.79375 0-1.658-0.15875-0.85549-0.14993-1.808-0.45861v-1.6757q0.89959 0.46743 1.7727 0.70556 0.87312 0.2293 1.7286 0.2293 1.1465 0 1.7639-0.38805 0.61736-0.39688 0.61736-1.1112 0-0.66146-0.4498-1.0142-0.44097-0.35278-1.9491-0.67909l-0.56444-0.1323q-1.5081-0.3175-2.1784-0.97013-0.67028-0.66146-0.67028-1.808 0-1.3935 0.98778-2.1519 0.98777-0.75847 2.8046-0.75847 0.89958 0 1.6933 0.13229t1.464 0.39688z" style=""/>
   <path id="path947" d="m267.65 121.26q-1.3053 0-2.0638 1.0231-0.75847 1.0142-0.75847 2.7869 0 1.7727 0.74965 2.7958 0.75847 1.0142 2.0726 1.0142 1.2964 0 2.0549-1.023 0.75848-1.0231 0.75848-2.7869 0-1.7551-0.75848-2.7781-0.75847-1.0319-2.0549-1.0319zm0-1.3758q2.1167 0 3.3249 1.3758 1.2083 1.3758 1.2083 3.81 0 2.4253-1.2083 3.81-1.2083 1.3758-3.3249 1.3758-2.1255 0-3.3338-1.3758-1.1994-1.3846-1.1994-3.81 0-2.4342 1.1994-3.81 1.2083-1.3758 3.3338-1.3758z" style=""/>
   <path id="path949" d="m274.8 116.28h1.6316v8.1051l4.8419-4.2598h2.0726l-5.2387 4.6214 5.4592 5.2564h-2.1167l-5.0183-4.8242v4.8242h-1.6316z" style=""/>
  </g>
  <path id="rect44" d="m340 60h40v360h-40z" fill="#7babe3" stroke="#7babe3" stroke-width="2"/>
  <g id="g50" fill="none" stroke="#000" stroke-width="2">
   <path id="polyline46" d="m300 160h58.1l59.85 116.02"/>
   <path id="polyline48" d="m409.95 271.42 9.028 6.595-0.141-11.18"/>
  </g>
  <g id="g56" fill="none" stroke="#000" stroke-width="2">
   <path id="polyline52" d="m301.9 220h58.1l56.838-56.838"/>
   <path id="polyline54" d="m414.88 172.19 3.536-10.607-10.607 3.536"/>
  </g>
  <g id="g62" fill="none" stroke="#000" stroke-width="2">
   <path id="polyline58" d="m300 280h115.53"/>
   <path id="polyline60" d="m407.76 285 10-5-10-5"/>
  </g>
  <g id="text66" aria-label="tábla[100]">
   <path id="path959" d="m436.14 37.318v2.8046h3.3426v1.2612h-3.3426v5.3622q0 1.2083 0.32631 1.5522 0.33514 0.34396 1.3494 0.34396h1.6669v1.3582h-1.6669q-1.8785 0-2.5929-0.69674-0.71437-0.70556-0.71437-2.5576v-5.3622h-1.1906v-1.2612h1.1906v-2.8046z" style=""/>
   <path id="path961" d="m446.12 45.035q-1.9667 0-2.7252 0.44979t-0.75847 1.5346q0 0.8643 0.56444 1.3758 0.57327 0.50271 1.5522 0.50271 1.3494 0 2.1608-0.9525 0.82021-0.96132 0.82021-2.5488v-0.3616zm3.2367-0.67028v5.6356h-1.6228v-1.4993q-0.55562 0.89958-1.3846 1.3317-0.82903 0.42333-2.0285 0.42333-1.5169 0-2.4165-0.84667-0.89077-0.85548-0.89077-2.2842 0-1.6669 1.1112-2.5135 1.1201-0.84667 3.3338-0.84667h2.2754v-0.15875q0-1.1201-0.74083-1.7286-0.73201-0.61736-2.0638-0.61736-0.84666 0-1.6492 0.20285t-1.5434 0.60854v-1.4993q0.89076-0.34396 1.7286-0.51153 0.83784-0.17639 1.6316-0.17639 2.1431 0 3.2015 1.1112 1.0583 1.1112 1.0583 3.369zm-2.9633-8.8106h1.7551l-2.8751 3.3161h-1.3494z" style=""/>
   <path id="path963" d="m459.79 45.07q0-1.7903-0.74084-2.8046-0.73201-1.0231-2.0196-1.0231-1.2876 0-2.0285 1.0231-0.73201 1.0142-0.73201 2.8046 0 1.7903 0.73201 2.8134 0.74084 1.0142 2.0285 1.0142 1.2876 0 2.0196-1.0142 0.74084-1.0231 0.74084-2.8134zm-5.521-3.4484q0.51153-0.88194 1.2876-1.3053 0.78493-0.43215 1.8697-0.43215 1.7992 0 2.9192 1.4287 1.1289 1.4287 1.1289 3.7571 0 2.3283-1.1289 3.7571-1.1201 1.4287-2.9192 1.4287-1.0848 0-1.8697-0.42333-0.77611-0.43215-1.2876-1.3141v1.4817h-1.6316v-13.723h1.6316z" style=""/>
   <path id="path965" d="m464.17 36.277h1.6228v13.723h-1.6228z" style=""/>
   <path id="path967" d="m473.67 45.035q-1.9667 0-2.7252 0.44979t-0.75847 1.5346q0 0.8643 0.56444 1.3758 0.57327 0.50271 1.5522 0.50271 1.3494 0 2.1608-0.9525 0.82021-0.96132 0.82021-2.5488v-0.3616zm3.2367-0.67028v5.6356h-1.6228v-1.4993q-0.55562 0.89958-1.3846 1.3317-0.82903 0.42333-2.0285 0.42333-1.5169 0-2.4165-0.84667-0.89077-0.85548-0.89077-2.2842 0-1.6669 1.1112-2.5135 1.1201-0.84667 3.3338-0.84667h2.2754v-0.15875q0-1.1201-0.74083-1.7286-0.73201-0.61736-2.0638-0.61736-0.84666 0-1.6492 0.20285t-1.5434 0.60854v-1.4993q0.89076-0.34396 1.7286-0.51153 0.83784-0.17639 1.6316-0.17639 2.1431 0 3.2014 1.1112 1.0583 1.1112 1.0583 3.369z" style=""/>
   <path id="path969" d="m480.11 36.277h3.7394v1.2612h-2.1167v13.582h2.1167v1.2612h-3.7394z" style=""/>
   <path id="path971" d="m487.85 48.501h2.9104v-10.045l-3.1662 0.635v-1.6228l3.1485-0.635h1.7815v11.668h2.9104v1.4993h-7.5847z" style=""/>
   <path id="path973" d="m502.85 38.006q-1.3758 0-2.0726 1.3582-0.68791 1.3494-0.68791 4.0658 0 2.7076 0.68791 4.0658 0.69674 1.3494 2.0726 1.3494 1.3846 0 2.0726-1.3494 0.69673-1.3582 0.69673-4.0658 0-2.7164-0.69673-4.0658-0.68792-1.3582-2.0726-1.3582zm0-1.4111q2.2137 0 3.3778 1.7551 1.173 1.7462 1.173 5.08 0 3.3249-1.173 5.08-1.1642 1.7462-3.3778 1.7462t-3.3867-1.7462q-1.1642-1.7551-1.1642-5.08 0-3.3337 1.1642-5.08 1.173-1.7551 3.3867-1.7551z" style=""/>
   <path id="path975" d="m514.35 38.006q-1.3758 0-2.0726 1.3582-0.68792 1.3494-0.68792 4.0658 0 2.7076 0.68792 4.0658 0.69673 1.3494 2.0726 1.3494 1.3846 0 2.0726-1.3494 0.69673-1.3582 0.69673-4.0658 0-2.7164-0.69673-4.0658-0.68792-1.3582-2.0726-1.3582zm0-1.4111q2.2137 0 3.3778 1.7551 1.173 1.7462 1.173 5.08 0 3.3249-1.173 5.08-1.1642 1.7462-3.3778 1.7462t-3.3867-1.7462q-1.1642-1.7551-1.1642-5.08 0-3.3337 1.1642-5.08 1.173-1.7551 3.3867-1.7551z" style=""/>
   <path id="path977" d="m525.61 36.277v16.104h-3.7394v-1.2612h2.1078v-13.582h-2.1078v-1.2612z" style=""/>
  </g>
  <g id="text72" aria-label="hash():kulcs%100">
   <path id="path980" d="m338.09 24.038v5.9619h-1.6228v-5.909q0-1.4023-0.5468-2.099-0.54681-0.69674-1.6404-0.69674-1.3141 0-2.0726 0.83785-0.75847 0.83785-0.75847 2.2842v5.5827h-1.6316v-13.723h1.6316v5.3799q0.58209-0.89076 1.367-1.3317 0.79375-0.44097 1.8256-0.44097 1.7022 0 2.5753 1.0583 0.87313 1.0495 0.87313 3.0956z" style=""/>
   <path id="path982" d="m345.84 25.035q-1.9667 0-2.7252 0.44979-0.75847 0.44979-0.75847 1.5346 0 0.8643 0.56445 1.3758 0.57326 0.50271 1.5522 0.50271 1.3494 0 2.1608-0.9525 0.82021-0.96132 0.82021-2.5488v-0.3616zm3.2367-0.67028v5.6356h-1.6228v-1.4993q-0.55563 0.89958-1.3847 1.3317-0.82902 0.42333-2.0285 0.42333-1.517 0-2.4165-0.84667-0.89076-0.85548-0.89076-2.2842 0-1.6669 1.1112-2.5135 1.1201-0.84667 3.3337-0.84667h2.2754v-0.15875q0-1.1201-0.74084-1.7286-0.73201-0.61736-2.0637-0.61736-0.84667 0-1.6492 0.20285t-1.5434 0.60854v-1.4993q0.89076-0.34396 1.7286-0.51153 0.83785-0.17639 1.6316-0.17639 2.1431 0 3.2014 1.1112t1.0583 3.369z" style=""/>
   <path id="path984" d="m358.72 20.413v1.5346q-0.68791-0.35278-1.4288-0.52917-0.74083-0.17639-1.5346-0.17639-1.2083 0-1.8168 0.37042-0.59972 0.37042-0.59972 1.1112 0 0.56444 0.43215 0.89076 0.43215 0.3175 1.7374 0.60854l0.55562 0.12347q1.7286 0.37042 2.4518 1.0495 0.73201 0.67028 0.73201 1.8785 0 1.3758-1.0936 2.1784-1.0848 0.80257-2.9898 0.80257-0.79375 0-1.658-0.15875-0.85549-0.14993-1.808-0.45861v-1.6757q0.89958 0.46743 1.7727 0.70555 0.87312 0.22931 1.7286 0.22931 1.1465 0 1.7639-0.38806 0.61737-0.39688 0.61737-1.1112 0-0.66146-0.4498-1.0142-0.44097-0.35278-1.9491-0.6791l-0.56444-0.13229q-1.5081-0.3175-2.1784-0.97014-0.67028-0.66146-0.67028-1.808 0-1.3935 0.98777-2.1519 0.98778-0.75847 2.8046-0.75847 0.89959 0 1.6933 0.13229 0.79375 0.13229 1.464 0.39687z" style=""/>
   <path id="path986" d="m370.05 24.038v5.9619h-1.6228v-5.909q0-1.4023-0.54681-2.099-0.5468-0.69674-1.6404-0.69674-1.3141 0-2.0726 0.83785t-0.75847 2.2842v5.5827h-1.6316v-13.723h1.6316v5.3799q0.58208-0.89076 1.367-1.3317 0.79375-0.44097 1.8256-0.44097 1.7022 0 2.5753 1.0583 0.87312 1.0495 0.87312 3.0956z" style=""/>
   <path id="path988" d="m377.21 16.295q-1.1818 2.0285-1.7551 4.0128-0.57327 1.9844-0.57327 4.0217t0.57327 4.0393q0.58208 1.9932 1.7551 4.0128h-1.4111q-1.3229-2.0726-1.9844-4.0746-0.65264-2.002-0.65264-3.9776 0-1.9667 0.65264-3.9599t1.9844-4.0746z" style=""/>
   <path id="path990" d="m380.11 16.295h1.4111q1.3229 2.0814 1.9756 4.0746 0.66146 1.9932 0.66146 3.9599 0 1.9756-0.66146 3.9776-0.65263 2.002-1.9756 4.0746h-1.4111q1.173-2.0196 1.7462-4.0128 0.58208-2.002 0.58208-4.0393t-0.58208-4.0217q-0.57326-1.9844-1.7462-4.0128z" style=""/>
   <path id="path992" d="m387.83 27.76h1.8609v2.2401h-1.8609zm0-7.0996h1.8609v2.2401h-1.8609z" style=""/>
   <path id="path994" d="m312.92 38.855h1.6316v8.1051l4.8419-4.2598h2.0726l-5.2387 4.6214 5.4592 5.2564h-2.1167l-5.0183-4.8242v4.8242h-1.6316z" style=""/>
   <path id="path996" d="m322.73 48.68v-5.9796h1.6228v5.9178q0 1.4023 0.5468 2.1078 0.54681 0.69674 1.6404 0.69674 1.3141 0 2.0726-0.83785 0.76729-0.83785 0.76729-2.2842v-5.6003h1.6228v9.8778h-1.6228v-1.5169q-0.59091 0.89958-1.3758 1.3406-0.77611 0.43215-1.808 0.43215-1.7022 0-2.5841-1.0583-0.88195-1.0583-0.88195-3.0956zm4.0834-6.2177z" style=""/>
   <path id="path998" d="m334.36 38.855h1.6228v13.723h-1.6228z" style=""/>
   <path id="path1000" d="m346.48 43.079v1.5169q-0.68792-0.37924-1.3846-0.56444-0.68792-0.19403-1.3935-0.19403-1.5787 0-2.4518 1.0054-0.87312 0.9966-0.87312 2.8046t0.87312 2.8134q0.87313 0.9966 2.4518 0.9966 0.70555 0 1.3935-0.18521 0.69673-0.19403 1.3846-0.57326v1.4993q-0.6791 0.3175-1.4111 0.47625-0.72319 0.15875-1.5434 0.15875-2.2313 0-3.5454-1.4023-1.3141-1.4023-1.3141-3.7835 0-2.4165 1.3229-3.8012 1.3317-1.3847 3.6424-1.3847 0.74965 0 1.464 0.15875 0.71437 0.14993 1.3846 0.45861z" style=""/>
   <path id="path1002" d="m355.62 42.991v1.5346q-0.68791-0.35278-1.4288-0.52917-0.74083-0.17639-1.5346-0.17639-1.2083 0-1.8168 0.37042-0.59972 0.37042-0.59972 1.1112 0 0.56444 0.43215 0.89076 0.43215 0.3175 1.7374 0.60854l0.55562 0.12347q1.7286 0.37042 2.4518 1.0495 0.73202 0.67028 0.73202 1.8785 0 1.3758-1.0936 2.1784-1.0848 0.80257-2.9898 0.80257-0.79375 0-1.658-0.15875-0.85549-0.14993-1.808-0.45861v-1.6757q0.89958 0.46743 1.7727 0.70555 0.87312 0.22931 1.7286 0.22931 1.1465 0 1.7639-0.38806 0.61736-0.39687 0.61736-1.1112 0-0.66146-0.44979-1.0142-0.44097-0.35278-1.9491-0.6791l-0.56445-0.13229q-1.5081-0.3175-2.1784-0.97014-0.67027-0.66146-0.67027-1.808 0-1.3935 0.98777-2.1519 0.98778-0.75847 2.8046-0.75847 0.89959 0 1.6933 0.13229 0.79374 0.13229 1.464 0.39687z" style=""/>
   <path id="path1004" d="m370.17 46.783q-0.76729 0-1.2083 0.65264-0.43215 0.65264-0.43215 1.8168 0 1.1465 0.43215 1.808 0.44098 0.65264 1.2083 0.65264 0.74965 0 1.1818-0.65264 0.44097-0.66146 0.44097-1.808 0-1.1553-0.44097-1.808-0.43215-0.66146-1.1818-0.66146zm0-1.1201q1.3935 0 2.2137 0.97014 0.82021 0.97014 0.82021 2.6194t-0.82902 2.6194q-0.82021 0.96132-2.2049 0.96132-1.4111 0-2.2313-0.96132-0.82021-0.97014-0.82021-2.6194 0-1.6581 0.82021-2.6194 0.82903-0.97014 2.2313-0.97014zm-9.1017-5.371q-0.75847 0-1.1994 0.66146-0.43215 0.65264-0.43215 1.7992 0 1.1642 0.43215 1.8168t1.1994 0.65264 1.1994-0.65264q0.44098-0.65264 0.44098-1.8168 0-1.1377-0.44098-1.7992-0.44097-0.66146-1.1994-0.66146zm7.964-1.1201h1.4111l-8.2374 13.661h-1.4111zm-7.964 0q1.3935 0 2.2225 0.97014 0.82903 0.96132 0.82903 2.6106 0 1.6669-0.82903 2.6282-0.82021 0.96132-2.2225 0.96132t-2.2225-0.96132q-0.81138-0.97014-0.81138-2.6282 0-1.6404 0.8202-2.6106 0.82021-0.97014 2.2137-0.97014z" style=""/>
   <path id="path1006" d="m376.46 51.078h2.9104v-10.045l-3.1662 0.635v-1.6228l3.1485-0.635h1.7815v11.668h2.9104v1.4993h-7.5847z" style=""/>
   <path id="path1008" d="m391.46 40.583q-1.3758 0-2.0726 1.3582-0.68791 1.3494-0.68791 4.0658 0 2.7076 0.68791 4.0658 0.69674 1.3494 2.0726 1.3494 1.3846 0 2.0726-1.3494 0.69673-1.3582 0.69673-4.0658 0-2.7164-0.69673-4.0658-0.68792-1.3582-2.0726-1.3582zm0-1.4111q2.2137 0 3.3778 1.7551 1.173 1.7462 1.173 5.08 0 3.3249-1.173 5.08-1.1642 1.7462-3.3778 1.7462t-3.3867-1.7462q-1.1642-1.7551-1.1642-5.08 0-3.3337 1.1642-5.08 1.173-1.7551 3.3867-1.7551z" style=""/>
   <path id="path1010" d="m402.96 40.583q-1.3758 0-2.0726 1.3582-0.68791 1.3494-0.68791 4.0658 0 2.7076 0.68791 4.0658 0.69674 1.3494 2.0726 1.3494 1.3846 0 2.0726-1.3494 0.69673-1.3582 0.69673-4.0658 0-2.7164-0.69673-4.0658-0.68792-1.3582-2.0726-1.3582zm0-1.4111q2.2137 0 3.3778 1.7551 1.173 1.7462 1.173 5.08 0 3.3249-1.173 5.08-1.1642 1.7462-3.3778 1.7462t-3.3867-1.7462q-1.1642-1.7551-1.1642-5.08 0-3.3337 1.1642-5.08 1.173-1.7551 3.3867-1.7551z" style=""/>
  </g>
  <g id="g80">
   <path id="rect74" d="m420 260h120v40h-120z" fill="#7babe3" stroke="#000" stroke-width="2"/>
   <g id="text78" aria-label="9957">
    <path id="path1014" d="m458.98 285.24v-1.6228q0.67028 0.3175 1.3582 0.48507 0.68792 0.16757 1.3494 0.16757 1.7639 0 2.6899-1.1818 0.93486-1.1906 1.0672-3.6072-0.51152 0.75847-1.2964 1.1642-0.78493 0.40569-1.7374 0.40569-1.9756 0-3.1309-1.1906-1.1465-1.1994-1.1465-3.272 0-2.0285 1.1994-3.2544 1.1994-1.2259 3.1926-1.2259 2.2842 0 3.4837 1.7551 1.2083 1.7462 1.2083 5.08 0 3.1133-1.4817 4.9742-1.4728 1.8521-3.9688 1.8521-0.67028 0-1.3582-0.13229-0.68792-0.13229-1.4288-0.39688zm3.5454-5.5827q1.1994 0 1.8962-0.82021 0.70555-0.8202 0.70555-2.249 0-1.4199-0.70555-2.2401-0.69674-0.82902-1.8962-0.82902t-1.905 0.82902q-0.69673 0.82021-0.69673 2.2401 0 1.4288 0.69673 2.249 0.70556 0.82021 1.905 0.82021z" style=""/>
    <path id="path1016" d="m470.48 285.24v-1.6228q0.67028 0.3175 1.3582 0.48507 0.68792 0.16757 1.3494 0.16757 1.7639 0 2.6899-1.1818 0.93486-1.1906 1.0672-3.6072-0.51153 0.75847-1.2965 1.1642-0.78493 0.40569-1.7374 0.40569-1.9756 0-3.1309-1.1906-1.1465-1.1994-1.1465-3.272 0-2.0285 1.1994-3.2544t3.1926-1.2259q2.2842 0 3.4837 1.7551 1.2083 1.7462 1.2083 5.08 0 3.1133-1.4817 4.9742-1.4728 1.8521-3.9688 1.8521-0.67028 0-1.3582-0.13229-0.68792-0.13229-1.4288-0.39688zm3.5454-5.5827q1.1994 0 1.8962-0.82021 0.70556-0.8202 0.70556-2.249 0-1.4199-0.70556-2.2401-0.69673-0.82902-1.8962-0.82902-1.1994 0-1.905 0.82902-0.69674 0.82021-0.69674 2.2401 0 1.4288 0.69674 2.249 0.70555 0.82021 1.905 0.82021z" style=""/>
    <path id="path1018" d="m481.95 272.34h6.9938v1.4993h-5.3622v3.2279q0.38806-0.13229 0.77611-0.19403 0.38806-0.0705 0.77611-0.0705 2.2049 0 3.4925 1.2083 1.2876 1.2083 1.2876 3.272 0 2.1255-1.3229 3.3073-1.3229 1.173-3.7306 1.173-0.82903 0-1.6933-0.14111-0.85549-0.14111-1.7727-0.42333v-1.7904q0.79375 0.43215 1.6404 0.64382 0.84666 0.21167 1.7903 0.21167 1.5258 0 2.4165-0.80257 0.89076-0.80257 0.89076-2.1784t-0.89076-2.1784q-0.89077-0.80257-2.4165-0.80257-0.71437 0-1.4288 0.15875-0.70555 0.15875-1.4464 0.49389z" style=""/>
    <path id="path1020" d="m492.98 272.34h8.4666v0.75847l-4.7801 12.409h-1.8609l4.4979-11.668h-6.3235z" style=""/>
   </g>
  </g>
  <g id="g88">
   <path id="rect82" d="m420 300h120v40h-120z" fill="#7babe3" stroke="#000" stroke-width="2"/>
   <g id="text86" aria-label="13457">
    <path id="path1024" d="m453.49 324.01h2.9104v-10.045l-3.1662 0.635v-1.6228l3.1485-0.635h1.7815v11.668h2.9104v1.4993h-7.5847z" style=""/>
    <path id="path1026" d="m470.08 318.41q1.2788 0.2734 1.9932 1.1377 0.72319 0.8643 0.72319 2.1343 0 1.9491-1.3406 3.0162-1.3406 1.0672-3.81 1.0672-0.82902 0-1.711-0.16757-0.87312-0.15875-1.808-0.48507v-1.7198q0.74083 0.43215 1.6228 0.65264 0.88195 0.22049 1.8433 0.22049 1.6757 0 2.5488-0.66146 0.88195-0.66146 0.88195-1.9226 0-1.1642-0.82021-1.8168-0.81139-0.66146-2.2666-0.66146h-1.5346v-1.464h1.6051q1.3141 0 2.0108-0.52035 0.69674-0.52917 0.69674-1.5169 0-1.0142-0.7232-1.5522-0.71437-0.54681-2.0549-0.54681-0.73201 0-1.5698 0.15875-0.83785 0.15875-1.8433 0.49389v-1.5875q1.0142-0.28222 1.8962-0.42333 0.89076-0.14111 1.6757-0.14111 2.0285 0 3.2103 0.92604 1.1818 0.91722 1.1818 2.4871 0 1.0936-0.62618 1.8521-0.62618 0.74965-1.7815 1.0407z" style=""/>
    <path id="path1028" d="m481.08 313.9-4.4979 7.0291h4.4979zm-0.46743-1.5522h2.2401v8.5813h1.8785v1.4817h-1.8785v3.1044h-1.7727v-3.1044h-5.9443v-1.7198z" style=""/>
    <path id="path1030" d="m487.7 312.34h6.9938v1.4993h-5.3622v3.2279q0.38806-0.13229 0.77611-0.19403 0.38806-0.0705 0.77611-0.0705 2.2049 0 3.4925 1.2083 1.2876 1.2083 1.2876 3.272 0 2.1255-1.3229 3.3073-1.3229 1.173-3.7306 1.173-0.82903 0-1.6933-0.14111-0.85549-0.14111-1.7727-0.42333v-1.7904q0.79375 0.43215 1.6404 0.64382 0.84666 0.21167 1.7903 0.21167 1.5258 0 2.4165-0.80257 0.89076-0.80257 0.89076-2.1784t-0.89076-2.1784q-0.89077-0.80257-2.4165-0.80257-0.71437 0-1.4288 0.15875-0.70555 0.15875-1.4464 0.49389z" style=""/>
    <path id="path1032" d="m498.73 312.34h8.4666v0.75847l-4.7801 12.409h-1.8609l4.4979-11.668h-6.3235z" style=""/>
   </g>
  </g>
  <g id="g96">
   <path id="rect90" d="m420 140h120v40h-120z" fill="#7babe3" stroke="#000" stroke-width="2"/>
   <g id="text94" aria-label="1024">
    <path id="path1036" d="m459.24 164.01h2.9104v-10.045l-3.1662 0.635v-1.6228l3.1485-0.635h1.7815v11.668h2.9104v1.4993h-7.5847z" style=""/>
    <path id="path1038" d="m474.24 153.52q-1.3758 0-2.0726 1.3582-0.68791 1.3494-0.68791 4.0658 0 2.7076 0.68791 4.0658 0.69674 1.3494 2.0726 1.3494 1.3846 0 2.0726-1.3494 0.69673-1.3582 0.69673-4.0658 0-2.7164-0.69673-4.0658-0.68792-1.3582-2.0726-1.3582zm0-1.4111q2.2137 0 3.3778 1.7551 1.173 1.7462 1.173 5.08 0 3.3249-1.173 5.08-1.1642 1.7462-3.3778 1.7462t-3.3867-1.7462q-1.1642-1.7551-1.1642-5.08 0-3.3337 1.1642-5.08 1.173-1.7551 3.3867-1.7551z" style=""/>
    <path id="path1040" d="m483.47 164.01h6.2177v1.4993h-8.3608v-1.4993q1.0142-1.0495 2.7605-2.8134 1.7551-1.7727 2.2049-2.2842 0.85548-0.96132 1.1906-1.6228 0.34396-0.67028 0.34396-1.3141 0-1.0495-0.74083-1.711-0.73202-0.66145-1.9138-0.66145-0.83785 0-1.7727 0.29104-0.92604 0.29104-1.9844 0.88194v-1.7992q1.076-0.43216 2.0108-0.65264 0.93486-0.22049 1.711-0.22049 2.0461 0 3.2632 1.0231 1.2171 1.023 1.2171 2.734 0 0.81139-0.30868 1.5434-0.29986 0.7232-1.1024 1.711-0.22048 0.25577-1.4023 1.4817-1.1818 1.2171-3.3337 3.4131z" style=""/>
    <path id="path1042" d="m498.33 153.9-4.4979 7.0291h4.4979zm-0.46743-1.5522h2.2401v8.5813h1.8785v1.4817h-1.8785v3.1044h-1.7727v-3.1044h-5.9443v-1.7198z" style=""/>
   </g>
  </g>
  <g id="g104">
   <path id="rect98" d="m420 100h120v40h-120z" fill="#fff" stroke="#000" stroke-width="2"/>
  </g>
  <g id="g112">
   <path id="rect106" d="m420 60h120v40h-120z" fill="#fff" stroke="#000" stroke-width="2"/>
  </g>
  <g id="g120">
   <path id="rect114" d="m420 180h120v40h-120z" fill="#fff" stroke="#000" stroke-width="2"/>
  </g>
  <g id="g128">
   <path id="rect122" d="m420 340h120v40h-120z" fill="#7babe3" stroke="#000" stroke-width="2"/>
   <g id="text126" aria-label="4458">
    <path id="path1052" d="m463.83 353.9-4.4979 7.0291h4.4979zm-0.46743-1.5522h2.2401v8.5813h1.8785v1.4817h-1.8785v3.1044h-1.7727v-3.1044h-5.9443v-1.7198z" style=""/>
    <path id="path1054" d="m475.33 353.9-4.4979 7.0291h4.4979zm-0.46743-1.5522h2.2401v8.5813h1.8785v1.4817h-1.8785v3.1044h-1.7727v-3.1044h-5.9443v-1.7198z" style=""/>
    <path id="path1056" d="m481.95 352.34h6.9938v1.4993h-5.3622v3.2279q0.38806-0.13229 0.77611-0.19403 0.38806-0.0705 0.77611-0.0705 2.2049 0 3.4925 1.2083 1.2876 1.2083 1.2876 3.272 0 2.1255-1.3229 3.3073-1.3229 1.173-3.7306 1.173-0.82903 0-1.6933-0.14111-0.85549-0.14111-1.7727-0.42333v-1.7904q0.79375 0.43215 1.6404 0.64382 0.84666 0.21167 1.7903 0.21167 1.5258 0 2.4165-0.80257 0.89076-0.80257 0.89076-2.1784t-0.89076-2.1784q-0.89077-0.80257-2.4165-0.80257-0.71437 0-1.4288 0.15875-0.70555 0.15875-1.4464 0.49389z" style=""/>
    <path id="path1058" d="m497.24 359.26q-1.27 0-2.002 0.67909-0.72319 0.6791-0.72319 1.8697 0 1.1906 0.72319 1.8697 0.73201 0.6791 2.002 0.6791t2.002-0.6791q0.73202-0.68791 0.73202-1.8697 0-1.1906-0.73202-1.8697-0.72319-0.67909-2.002-0.67909zm-1.7815-0.75847q-1.1465-0.28223-1.7904-1.0672-0.635-0.78492-0.635-1.9138 0-1.5787 1.1201-2.4959 1.1289-0.91722 3.0868-0.91722 1.9667 0 3.0868 0.91722 1.1201 0.91722 1.1201 2.4959 0 1.1289-0.64382 1.9138-0.63499 0.78493-1.7727 1.0672 1.2876 0.29986 2.002 1.173 0.72319 0.87313 0.72319 2.1343 0 1.9138-1.173 2.9369-1.1642 1.023-3.3426 1.023t-3.3514-1.023q-1.1642-1.0231-1.1642-2.9369 0-1.2612 0.7232-2.1343 0.72319-0.87312 2.0108-1.173zm-0.65264-2.8134q0 1.023 0.635 1.5963 0.64382 0.57327 1.7992 0.57327 1.1465 0 1.7904-0.57327 0.65264-0.57326 0.65264-1.5963 0-1.0231-0.65264-1.5963-0.64382-0.57326-1.7904-0.57326-1.1553 0-1.7992 0.57326-0.635 0.57326-0.635 1.5963z" style=""/>
   </g>
  </g>
  <g id="g136">
   <path id="rect130" d="m420 380h120v40h-120z" fill="#fff" stroke="#000" stroke-width="2"/>
  </g>
  <g id="g144">
   <path id="rect138" d="m200 320h100v40h-100z" fill="#fff" stroke="#000" stroke-width="2"/>
   <g id="text142" aria-label="4458">
    <path id="path1064" d="m233.83 333.9-4.4979 7.0291h4.4979zm-0.46743-1.5522h2.2401v8.5813h1.8785v1.4817h-1.8785v3.1044h-1.7727v-3.1044h-5.9443v-1.7198z" style=""/>
    <path id="path1066" d="m245.33 333.9-4.4979 7.0291h4.4979zm-0.46743-1.5522h2.2401v8.5813h1.8785v1.4817h-1.8785v3.1044h-1.7727v-3.1044h-5.9443v-1.7198z" style=""/>
    <path id="path1068" d="m251.95 332.34h6.9938v1.4993h-5.3622v3.2279q0.38806-0.13229 0.77611-0.19403 0.38806-0.0705 0.77611-0.0705 2.2049 0 3.4925 1.2083 1.2876 1.2083 1.2876 3.272 0 2.1255-1.3229 3.3073-1.3229 1.173-3.7306 1.173-0.82903 0-1.6933-0.14111-0.85549-0.14111-1.7727-0.42333v-1.7904q0.79375 0.43215 1.6404 0.64382 0.84666 0.21167 1.7903 0.21167 1.5258 0 2.4165-0.80257 0.89076-0.80257 0.89076-2.1784t-0.89076-2.1784q-0.89077-0.80257-2.4165-0.80257-0.71437 0-1.4288 0.15875-0.70555 0.15875-1.4464 0.49389z" style=""/>
    <path id="path1070" d="m267.24 339.26q-1.27 0-2.002 0.67909-0.72319 0.6791-0.72319 1.8697 0 1.1906 0.72319 1.8697 0.73201 0.6791 2.002 0.6791t2.002-0.6791q0.73202-0.68791 0.73202-1.8697 0-1.1906-0.73202-1.8697-0.72319-0.67909-2.002-0.67909zm-1.7815-0.75847q-1.1465-0.28223-1.7904-1.0672-0.635-0.78492-0.635-1.9138 0-1.5787 1.1201-2.4959 1.1289-0.91722 3.0868-0.91722 1.9667 0 3.0868 0.91722 1.1201 0.91722 1.1201 2.4959 0 1.1289-0.64382 1.9138-0.63499 0.78493-1.7727 1.0672 1.2876 0.29986 2.002 1.173 0.72319 0.87313 0.72319 2.1343 0 1.9138-1.173 2.9369-1.1642 1.023-3.3426 1.023t-3.3514-1.023q-1.1642-1.0231-1.1642-2.9369 0-1.2612 0.7232-2.1343 0.72319-0.87312 2.0108-1.173zm-0.65264-2.8134q0 1.023 0.635 1.5963 0.64382 0.57327 1.7992 0.57327 1.1465 0 1.7904-0.57327 0.65264-0.57326 0.65264-1.5963 0-1.0231-0.65264-1.5963-0.64382-0.57326-1.7904-0.57326-1.1553 0-1.7992 0.57326-0.635 0.57326-0.635 1.5963z" style=""/>
   </g>
  </g>
  <g id="g150" fill="none" stroke="#000" stroke-width="2">
   <path id="polyline146" d="m300 340h60l55.757-18.586"/>
   <path id="polyline148" d="m409.97 328.61 7.906-7.906-11.068-1.581"/>
  </g>
  <path id="line152" d="m420 220v16" fill="none" stroke="#000" stroke-width="2"/>
  <path id="line154" d="m420 241v19" fill="none" stroke="#000" stroke-width="2"/>
  <path id="line156" d="m540 220v16" fill="none" stroke="#000" stroke-width="2"/>
  <path id="line158" d="m540 240v20" fill="none" stroke="#000" stroke-width="2"/>
  <path id="line160" d="m412 240 4 2" fill="none" stroke="#000"/>
  <path id="line162" d="m416 242 8-2" fill="none" stroke="#000"/>
  <path id="line164" d="m424 240 4 2.75" fill="none" stroke="#000"/>
  <path id="line166" d="m412 234.8 4 2" fill="none" stroke="#000"/>
  <path id="line168" d="m416 236.8 8-2" fill="none" stroke="#000"/>
  <path id="line170" d="m424 234.8 4 2.75" fill="none" stroke="#000"/>
  <path id="line172" d="m532 239.6 4 2" fill="none" stroke="#000"/>
  <path id="line174" d="m536 241.6 8-2" fill="none" stroke="#000"/>
  <path id="line176" d="m544 239.6 4 2.75" fill="none" stroke="#000"/>
  <path id="line178" d="m532 234.4 4 2" fill="none" stroke="#000"/>
  <path id="line180" d="m536 236.4 8-2" fill="none" stroke="#000"/>
  <path id="line182" d="m544 234.4 4 2.75" fill="none" stroke="#000"/>
 </g>
</svg>
