<?xml version="1.0" encoding="UTF-8"?>
<svg id="svg37" width="6.3537cm" height="6.8508cm" version="1.1" viewBox="138 63 114.37 135.06" xmlns="http://www.w3.org/2000/svg" xmlns:cc="http://creativecommons.org/ns#" xmlns:dc="http://purl.org/dc/elements/1.1/" xmlns:rdf="http://www.w3.org/1999/02/22-rdf-syntax-ns#">
 <metadata id="metadata43">
  <rdf:RDF>
   <cc:Work rdf:about="">
    <dc:format>image/svg+xml</dc:format>
    <dc:type rdf:resource="http://purl.org/dc/dcmitype/StillImage"/>
   </cc:Work>
  </rdf:RDF>
 </metadata>
 <g id="Háttér" transform="translate(-6.4461 -2.941)">
  <g id="g8">
   <path id="rect2" d="m140 80h90v40h-90z" fill="#fdfd04" stroke="#000" stroke-width="2"/>
   <g id="text6" aria-label="x címe">
    <path id="path26" d="m169.89 96.725-2.6789 3.605 2.8178 3.8034h-1.4354l-2.1564-2.9104-2.1564 2.9104h-1.4354l2.8774-3.8762-2.6326-3.5322h1.4354l1.9645 2.6392 1.9645-2.6392z" style=""/>
    <path id="path28" d="m181.4 97.009v1.1377q-0.51594-0.28443-1.0385-0.42334-0.51594-0.14552-1.0451-0.14552-1.184 0-1.8388 0.75406-0.65485 0.74745-0.65485 2.1034 0 1.356 0.65485 2.1101 0.65484 0.74745 1.8388 0.74745 0.52917 0 1.0451-0.13891 0.52255-0.14552 1.0385-0.42995v1.1245q-0.50932 0.23812-1.0583 0.35718-0.5424 0.11907-1.1576 0.11907-1.6735 0-2.6591-1.0517-0.98557-1.0517-0.98557-2.8377 0-1.8124 0.99219-2.8509 0.9988-1.0385 2.7318-1.0385 0.56224 0 1.098 0.11906 0.53578 0.11245 1.0385 0.34396z" style=""/>
    <path id="path30" d="m185.05 93.298h1.3163l-2.1564 2.4871h-1.012zm-1.528 3.4264h1.2171v7.4083h-1.2171zm0.60854-0.17859z" style=""/>
    <path id="path32" d="m193.05 98.147q0.4564-0.82021 1.0914-1.2105 0.635-0.39026 1.4949-0.39026 1.1576 0 1.7859 0.8136 0.62838 0.80698 0.62838 2.3019v4.4715h-1.2237v-4.4318q0-1.065-0.37703-1.5809-0.37703-0.51594-1.1509-0.51594-0.94589 0-1.4949 0.62839t-0.54901 1.7132v4.187h-1.2237v-4.4318q0-1.0716-0.37703-1.5809-0.37704-0.51594-1.1642-0.51594-0.93266 0-1.4817 0.635-0.54901 0.62839-0.54901 1.7066v4.187h-1.2237v-7.4083h1.2237v1.1509q0.41672-0.6813 0.9988-1.0054t1.3824-0.32412q0.80698 0 1.3692 0.4101 0.56886 0.4101 0.84006 1.1906z" style=""/>
    <path id="path34" d="m206.82 100.12v0.59531h-5.596q0.0794 1.2568 0.75407 1.9182 0.6813 0.65485 1.8918 0.65485 0.70115 0 1.356-0.17198 0.66146-0.17198 1.3097-0.51594v1.1509q-0.65484 0.27781-1.3428 0.42334-0.68792 0.14552-1.3957 0.14552-1.7727 0-2.8112-1.0319-1.0319-1.0319-1.0319-2.7914 0-1.819 0.97896-2.884 0.98557-1.0716 2.6524-1.0716 1.4949 0 2.3614 0.96573 0.87312 0.95912 0.87312 2.6128zm-1.2171-0.35719q-0.0132-0.9988-0.56224-1.5941-0.5424-0.59531-1.442-0.59531-1.0186 0-1.6338 0.57547-0.60855 0.57547-0.70115 1.6206z" style=""/>
   </g>
  </g>
  <g id="g14" stroke="#000" stroke-width="2">
   <path id="path10" d="m230 100c60 10 30 75-20.396 83.399" fill="none"/>
   <path id="polygon12" d="m209.6 183.4 3.288 4.521-10.686-3.288 9.042-6.576z" fill-rule="evenodd"/>
  </g>
  <g id="g22">
   <path id="rect16" d="m140 170h60v30h-60z" fill="#7babe3" stroke="#000" stroke-width="2"/>
   <g id="text20" aria-label="3">
    <path id="path39" d="m171.18 183.81q0.95912 0.20506 1.4949 0.85329 0.5424 0.64823 0.5424 1.6007 0 1.4618-1.0054 2.2622-1.0054 0.80037-2.8575 0.80037-0.62177 0-1.2832-0.12568-0.65484-0.11906-1.356-0.3638v-1.2898q0.55563 0.32412 1.2171 0.48948 0.66146 0.16537 1.3825 0.16537 1.2568 0 1.9116-0.4961 0.66146-0.49609 0.66146-1.442 0-0.87313-0.61516-1.3626-0.60855-0.49609-1.7-0.49609h-1.1509v-1.098h1.2038q0.98558 0 1.5081-0.39026 0.52255-0.39687 0.52255-1.1377 0-0.76068-0.54239-1.1642-0.53579-0.4101-1.5412-0.4101-0.54902 0-1.1774 0.11906-0.62839 0.11906-1.3824 0.37042v-1.1906q0.76067-0.21167 1.4221-0.3175 0.66808-0.10584 1.2568-0.10584 1.5214 0 2.4077 0.69454 0.88636 0.68792 0.88636 1.8653 0 0.82021-0.46964 1.3891-0.46963 0.56224-1.3362 0.78052z" style=""/>
   </g>
  </g>
  <g id="text28" aria-label="int x">
   <path id="path42" d="m141.28 158.82h1.2171v7.4084h-1.2171zm0-2.884h1.2171v1.5412h-1.2171z" style=""/>
   <path id="path44" d="m151.19 161.76v4.4715h-1.2171v-4.4318q0-1.0517-0.41011-1.5743-0.4101-0.52256-1.2303-0.52256-0.98558 0-1.5544 0.62839-0.56885 0.62839-0.56885 1.7132v4.187h-1.2237v-7.4084h1.2237v1.1509q0.43656-0.66807 1.0253-0.9988 0.59532-0.33073 1.3692-0.33073 1.2766 0 1.9315 0.79375 0.65484 0.78714 0.65484 2.3217z" style=""/>
   <path id="path46" d="m154.84 156.72v2.1034h2.5069v0.94589h-2.5069v4.0217q0 0.9062 0.24474 1.1642 0.25135 0.25797 1.012 0.25797h1.2502v1.0186h-1.2502q-1.4089 0-1.9447-0.52255-0.53578-0.52917-0.53578-1.9182v-4.0217h-0.89298v-0.94589h0.89298v-2.1034z" style=""/>
   <path id="path48" d="m169.42 158.82-2.6789 3.605 2.8178 3.8034h-1.4354l-2.1564-2.9104-2.1564 2.9104h-1.4354l2.8774-3.8762-2.6326-3.5322h1.4354l1.9645 2.6392 1.9645-2.6392z" style=""/>
  </g>
  <g id="text34" aria-label="int *p">
   <path id="path51" d="m141.28 68.825h1.2171v7.4084h-1.2171zm0-2.884h1.2171v1.5412h-1.2171z" style=""/>
   <path id="path53" d="m151.19 71.762v4.4715h-1.2171v-4.4318q0-1.0517-0.41011-1.5743-0.4101-0.52255-1.2303-0.52255-0.98558 0-1.5544 0.62839-0.56885 0.62839-0.56885 1.7132v4.187h-1.2237v-7.4084h1.2237v1.1509q0.43656-0.66807 1.0253-0.9988 0.59532-0.33073 1.3692-0.33073 1.2766 0 1.9315 0.79375 0.65484 0.78714 0.65484 2.3217z" style=""/>
   <path id="path55" d="m154.84 66.722v2.1034h2.5069v0.94589h-2.5069v4.0217q0 0.9062 0.24474 1.1642 0.25135 0.25797 1.012 0.25797h1.2502v1.0186h-1.2502q-1.4089 0-1.9447-0.52255-0.53578-0.52917-0.53578-1.9182v-4.0217h-0.89298v-0.94589h0.89298v-2.1034z" style=""/>
   <path id="path57" d="m168.36 67.985-2.3746 1.2832 2.3746 1.2898-0.38365 0.64823-2.2225-1.3428v2.4937h-0.75407v-2.4937l-2.2225 1.3428-0.38365-0.64823 2.3746-1.2898-2.3746-1.2832 0.38365-0.65485 2.2225 1.3428v-2.4937h0.75407v2.4937l2.2225-1.3428z" style=""/>
   <path id="path59" d="m171.21 75.122v3.9291h-1.2237v-10.226h1.2237v1.1245q0.38364-0.66146 0.96573-0.97896 0.5887-0.32412 1.4023-0.32412 1.3494 0 2.1894 1.0716 0.84667 1.0716 0.84667 2.8178t-0.84667 2.8178q-0.84005 1.0716-2.1894 1.0716-0.81359 0-1.4023-0.3175-0.58209-0.32412-0.96573-0.98558zm4.1407-2.5863q0-1.3428-0.55562-2.1034-0.54901-0.76729-1.5148-0.76729-0.96573 0-1.5214 0.76729-0.54901 0.76068-0.54901 2.1034 0 1.3428 0.54901 2.1101 0.55562 0.76068 1.5214 0.76068 0.96574 0 1.5148-0.76068 0.55562-0.76729 0.55562-2.1101z" style=""/>
  </g>
 </g>
</svg>
