<?xml version="1.0" encoding="UTF-8"?>
<svg id="svg109" width="31.873cm" height="8.6814cm" version="1.1" viewBox="-123 98 631.49 166.88" xmlns="http://www.w3.org/2000/svg" xmlns:cc="http://creativecommons.org/ns#" xmlns:dc="http://purl.org/dc/elements/1.1/" xmlns:rdf="http://www.w3.org/1999/02/22-rdf-syntax-ns#">
 <metadata id="metadata113">
  <rdf:RDF>
   <cc:Work rdf:about="">
    <dc:format>image/svg+xml</dc:format>
    <dc:type rdf:resource="http://purl.org/dc/dcmitype/StillImage"/>
   </cc:Work>
  </rdf:RDF>
 </metadata>
 <g id="Háttér" transform="translate(-2.5115 -3.5622)">
  <g id="g8" stroke="#000" stroke-width="2">
   <path id="path4" d="m410 230c20 0 19.007-4.49 29.272-4.593" fill="none"/>
   <path id="polygon6" d="m439.27 225.41-2.55-4.974 10.049 4.899-9.949 5.1z" fill-rule="evenodd"/>
  </g>
  <g id="g14" stroke="#000" stroke-width="2">
   <path id="path10" d="m240 156c36 0-0.708-21 29.556-21" fill="none"/>
   <path id="polygon12" d="m269.56 135-2.5-5 10 5-10 5z" fill-rule="evenodd"/>
  </g>
  <g id="g20" stroke="#f62e2e" stroke-width="2">
   <path id="path16" d="M 473.814,189.433 C 467.483,153.025 452,160 440,156" fill="none"/>
   <path id="polygon18" d="m473.81 189.43 4.498-3.32-3.212 10.709-6.64-8.995z" fill="#f62e2e" fill-rule="evenodd"/>
  </g>
  <path id="rect22" d="m390 220h20v20h-20z" fill="#fdfd04" stroke="#000" stroke-width="2"/>
  <g id="text26" aria-label="ListaElem *uj">
   <path id="path65" d="m262.71 223.08h1.7815v11.668h6.4117v1.4993h-8.1932z" style=""/>
   <path id="path67" d="m272.69 226.37h1.6228v9.8778h-1.6228zm0-3.8453h1.6228v2.0549h-1.6228z" style=""/>
   <path id="path69" d="m284 226.66v1.5346q-0.68791-0.35278-1.4288-0.52917-0.74083-0.17639-1.5346-0.17639-1.2083 0-1.8168 0.37042-0.59972 0.37041-0.59972 1.1112 0 0.56444 0.43215 0.89076 0.43215 0.3175 1.7374 0.60854l0.55562 0.12347q1.7286 0.37042 2.4518 1.0495 0.73201 0.67027 0.73201 1.8785 0 1.3758-1.0936 2.1784-1.0848 0.80256-2.9898 0.80256-0.79375 0-1.658-0.15875-0.85549-0.14993-1.808-0.45861v-1.6757q0.89959 0.46743 1.7727 0.70556 0.87312 0.2293 1.7286 0.2293 1.1465 0 1.7639-0.38805 0.61737-0.39688 0.61737-1.1112 0-0.66146-0.4498-1.0142-0.44097-0.35278-1.9491-0.67909l-0.56444-0.1323q-1.5081-0.3175-2.1784-0.97013-0.67028-0.66146-0.67028-1.808 0-1.3935 0.98778-2.1519 0.98777-0.75847 2.8046-0.75847 0.89959 0 1.6933 0.13229t1.464 0.39688z" style=""/>
   <path id="path71" d="m288.73 223.57v2.8046h3.3426v1.2612h-3.3426v5.3622q0 1.2083 0.32632 1.5522 0.33514 0.34396 1.3494 0.34396h1.6669v1.3582h-1.6669q-1.8785 0-2.5929-0.69674-0.71438-0.70555-0.71438-2.5576v-5.3622h-1.1906v-1.2612h1.1906v-2.8046z" style=""/>
   <path id="path73" d="m298.7 231.28q-1.9667 0-2.7252 0.44979t-0.75847 1.5346q0 0.86431 0.56445 1.3758 0.57326 0.50271 1.5522 0.50271 1.3494 0 2.1608-0.9525 0.8202-0.96132 0.8202-2.5488v-0.3616zm3.2367-0.67028v5.6356h-1.6228v-1.4993q-0.55562 0.89958-1.3846 1.3317-0.82902 0.42333-2.0285 0.42333-1.5169 0-2.4165-0.84666-0.89076-0.85549-0.89076-2.2842 0-1.6669 1.1112-2.5135 1.1201-0.84667 3.3338-0.84667h2.2754v-0.15875q0-1.1201-0.74083-1.7286-0.73201-0.61736-2.0638-0.61736-0.84666 0-1.6492 0.20285t-1.5434 0.60854v-1.4993q0.89076-0.34396 1.7286-0.51153 0.83784-0.17639 1.6316-0.17639 2.1431 0 3.2015 1.1112t1.0583 3.369z" style=""/>
   <path id="path75" d="m305.36 223.08h8.3255v1.4993h-6.544v3.8982h6.2706v1.4993h-6.2706v4.7713h6.7028v1.4993h-8.4843z" style=""/>
   <path id="path77" d="m316.72 222.53h1.6228v13.723h-1.6228z" style=""/>
   <path id="path79" d="m330.18 230.91v0.79375h-7.4612q0.10583 1.6757 1.0054 2.5576 0.9084 0.87312 2.5224 0.87312 0.93486 0 1.808-0.2293 0.88195-0.22931 1.7462-0.68792v1.5346q-0.87312 0.37042-1.7903 0.56445-0.91722 0.19402-1.8609 0.19402-2.3636 0-3.7483-1.3758-1.3758-1.3758-1.3758-3.7218 0-2.4253 1.3053-3.8453 1.3141-1.4288 3.5366-1.4288 1.9932 0 3.1485 1.2876 1.1642 1.2788 1.1642 3.4837zm-1.6228-0.47625q-0.0176-1.3317-0.74965-2.1255-0.72319-0.79375-1.9226-0.79375-1.3582 0-2.1784 0.76729-0.81138 0.76729-0.93486 2.1608z" style=""/>
   <path id="path81" d="m340.53 228.27q0.60854-1.0936 1.4552-1.614 0.84666-0.52035 1.9932-0.52035 1.5434 0 2.3812 1.0848 0.83784 1.076 0.83784 3.0692v5.9619h-1.6316v-5.909q0-1.4199-0.50271-2.1078-0.50271-0.68791-1.5346-0.68791-1.2612 0-1.9932 0.83784-0.73202 0.83785-0.73202 2.2842v5.5827h-1.6316v-5.909q0-1.4288-0.50271-2.1078-0.50271-0.68791-1.5522-0.68791-1.2435 0-1.9756 0.84666-0.73202 0.83785-0.73202 2.2754v5.5827h-1.6316v-9.8778h1.6316v1.5346q0.55563-0.90841 1.3317-1.3406t1.8433-0.43215q1.076 0 1.8256 0.5468 0.75847 0.54681 1.1201 1.5875z" style=""/>
   <path id="path83" d="m362.99 225.25-3.1662 1.711 3.1662 1.7198-0.51152 0.8643-2.9633-1.7903v3.3249h-1.0054v-3.3249l-2.9633 1.7903-0.51152-0.8643 3.1662-1.7198-3.1662-1.711 0.51152-0.87313 2.9633 1.7904v-3.3249h1.0054v3.3249l2.9633-1.7904z" style=""/>
   <path id="path85" d="m365.06 232.35v-5.9796h1.6228v5.9178q0 1.4023 0.54681 2.1078 0.5468 0.69673 1.6404 0.69673 1.3141 0 2.0726-0.83784 0.76729-0.83785 0.76729-2.2842v-5.6003h1.6228v9.8778h-1.6228v-1.5169q-0.5909 0.89958-1.3758 1.3406-0.77611 0.43215-1.808 0.43215-1.7022 0-2.5841-1.0583-0.88194-1.0583-0.88194-3.0956zm4.0834-6.2177z" style=""/>
   <path id="path87" d="m376.69 226.37h1.6228v10.054q0 1.8874-0.7232 2.734-0.71437 0.84667-2.3107 0.84667h-0.61736v-1.3758h0.43215q0.92604 0 1.2612-0.43216 0.33514-0.42333 0.33514-1.7727zm0-3.8453h1.6228v2.0549h-1.6228z" style=""/>
  </g>
  <path id="rect28" d="m450 250h60v20h-60z" fill="#7be38e" stroke="#000" stroke-width="2"/>
  <path id="rect30" d="m120 120h20v20h-20z" fill="#fdfd04" stroke="#000" stroke-width="2"/>
  <g id="text34" aria-label="ListaElem **peleje">
   <path id="path92" d="m-114.67 123.08h1.7815v11.668h6.4117v1.4993h-8.1932z" style=""/>
   <path id="path94" d="m-104.68 126.37h1.6228v9.8778h-1.6228zm0-3.8453h1.6228v2.0549h-1.6228z" style=""/>
   <path id="path96" d="m-93.378 126.66v1.5346q-0.68792-0.35278-1.4287-0.52917-0.74083-0.17639-1.5346-0.17639-1.2083 0-1.8168 0.37042-0.59972 0.37041-0.59972 1.1112 0 0.56444 0.43215 0.89076 0.43215 0.3175 1.7374 0.60854l0.55562 0.12347q1.7286 0.37042 2.4518 1.0495 0.73201 0.67027 0.73201 1.8785 0 1.3758-1.0936 2.1784-1.0848 0.80256-2.9898 0.80256-0.79375 0-1.6581-0.15875-0.85548-0.14993-1.808-0.45861v-1.6757q0.89959 0.46743 1.7727 0.70556 0.87312 0.2293 1.7286 0.2293 1.1465 0 1.7639-0.38805 0.61736-0.39688 0.61736-1.1112 0-0.66146-0.44979-1.0142-0.44097-0.35278-1.9491-0.67909l-0.56444-0.1323q-1.5081-0.3175-2.1784-0.97013-0.67028-0.66146-0.67028-1.808 0-1.3935 0.98778-2.1519 0.98778-0.75847 2.8046-0.75847 0.89958 0 1.6933 0.13229t1.464 0.39688z" style=""/>
   <path id="path98" d="m-88.65 123.57v2.8046h3.3426v1.2612h-3.3426v5.3622q0 1.2083 0.32632 1.5522 0.33514 0.34396 1.3494 0.34396h1.6669v1.3582h-1.6669q-1.8785 0-2.5929-0.69674-0.71437-0.70555-0.71437-2.5576v-5.3622h-1.1906v-1.2612h1.1906v-2.8046z" style=""/>
   <path id="path100" d="m-78.676 131.28q-1.9667 0-2.7252 0.44979t-0.75847 1.5346q0 0.86431 0.56444 1.3758 0.57326 0.50271 1.5522 0.50271 1.3494 0 2.1608-0.9525 0.82021-0.96132 0.82021-2.5488v-0.3616zm3.2367-0.67028v5.6356h-1.6228v-1.4993q-0.55562 0.89958-1.3847 1.3317-0.82903 0.42333-2.0285 0.42333-1.5169 0-2.4165-0.84666-0.89076-0.85549-0.89076-2.2842 0-1.6669 1.1112-2.5135 1.1201-0.84667 3.3337-0.84667h2.2754v-0.15875q0-1.1201-0.74083-1.7286-0.73201-0.61736-2.0637-0.61736-0.84666 0-1.6492 0.20285-0.80257 0.20285-1.5434 0.60854v-1.4993q0.89076-0.34396 1.7286-0.51153 0.83785-0.17639 1.6316-0.17639 2.1431 0 3.2015 1.1112t1.0583 3.369z" style=""/>
   <path id="path102" d="m-72.017 123.08h8.3255v1.4993h-6.544v3.8982h6.2706v1.4993h-6.2706v4.7713h6.7028v1.4993h-8.4843z" style=""/>
   <path id="path104" d="m-60.657 122.53h1.6228v13.723h-1.6228z" style=""/>
   <path id="path106" d="m-47.199 130.91v0.79375h-7.4612q0.10583 1.6757 1.0054 2.5576 0.9084 0.87312 2.5224 0.87312 0.93486 0 1.808-0.2293 0.88194-0.22931 1.7462-0.68792v1.5346q-0.87312 0.37042-1.7903 0.56445-0.91722 0.19402-1.8609 0.19402-2.3636 0-3.7483-1.3758-1.3758-1.3758-1.3758-3.7218 0-2.4253 1.3053-3.8453 1.3141-1.4288 3.5366-1.4288 1.9932 0 3.1485 1.2876 1.1642 1.2788 1.1642 3.4837zm-1.6228-0.47625q-0.01764-1.3317-0.74965-2.1255-0.72319-0.79375-1.9226-0.79375-1.3582 0-2.1784 0.76729-0.81139 0.76729-0.93486 2.1608z" style=""/>
   <path id="path108" d="m-36.845 128.27q0.60854-1.0936 1.4552-1.614 0.84667-0.52035 1.9932-0.52035 1.5434 0 2.3812 1.0848 0.83785 1.076 0.83785 3.0692v5.9619h-1.6316v-5.909q0-1.4199-0.50271-2.1078-0.50271-0.68791-1.5346-0.68791-1.2612 0-1.9932 0.83784-0.73201 0.83785-0.73201 2.2842v5.5827h-1.6316v-5.909q0-1.4288-0.50271-2.1078-0.50271-0.68791-1.5522-0.68791-1.2435 0-1.9756 0.84666-0.73201 0.83785-0.73201 2.2754v5.5827h-1.6316v-9.8778h1.6316v1.5346q0.55562-0.90841 1.3317-1.3406t1.8433-0.43215q1.076 0 1.8256 0.5468 0.75847 0.54681 1.1201 1.5875z" style=""/>
   <path id="path110" d="m-14.391 125.25-3.1662 1.711 3.1662 1.7198-0.51153 0.8643-2.9633-1.7903v3.3249h-1.0054v-3.3249l-2.9633 1.7903-0.51153-0.8643 3.1662-1.7198-3.1662-1.711 0.51153-0.87313 2.9633 1.7904v-3.3249h1.0054v3.3249l2.9633-1.7904z" style=""/>
   <path id="path112" d="m-5.3596 125.25-3.1662 1.711 3.1662 1.7198-0.51153 0.8643-2.9633-1.7903v3.3249h-1.0054v-3.3249l-2.9633 1.7903-0.51153-0.8643 3.1662-1.7198-3.1662-1.711 0.51153-0.87313 2.9633 1.7904v-3.3249h1.0054v3.3249l2.9633-1.7904z" style=""/>
   <path id="path114" d="m-1.5496 134.77v5.2387h-1.6316v-13.635h1.6316v1.4993q0.51153-0.88195 1.2876-1.3053 0.78493-0.43215 1.8697-0.43215 1.7992 0 2.9192 1.4288 1.1289 1.4288 1.1289 3.7571t-1.1289 3.7571q-1.1201 1.4287-2.9192 1.4287-1.0848 0-1.8697-0.42333-0.77611-0.43215-1.2876-1.3141zm5.521-3.4484q0-1.7904-0.74083-2.8046-0.73201-1.0231-2.0197-1.0231-1.2876 0-2.0285 1.0231-0.73201 1.0142-0.73201 2.8046 0 1.7903 0.73201 2.8134 0.74083 1.0142 2.0285 1.0142 1.2876 0 2.0197-1.0142 0.74083-1.0231 0.74083-2.8134z" style=""/>
   <path id="path116" d="m16.795 130.91v0.79375h-7.4612q0.10583 1.6757 1.0054 2.5576 0.9084 0.87312 2.5224 0.87312 0.93486 0 1.808-0.2293 0.88194-0.22931 1.7462-0.68792v1.5346q-0.87312 0.37042-1.7903 0.56445-0.91722 0.19402-1.8609 0.19402-2.3636 0-3.7483-1.3758-1.3758-1.3758-1.3758-3.7218 0-2.4253 1.3053-3.8453 1.3141-1.4288 3.5366-1.4288 1.9932 0 3.1485 1.2876 1.1642 1.2788 1.1642 3.4837zm-1.6228-0.47625q-0.01764-1.3317-0.74965-2.1255-0.72319-0.79375-1.9226-0.79375-1.3582 0-2.1784 0.76729-0.81139 0.76729-0.93486 2.1608z" style=""/>
   <path id="path118" d="m19.458 122.53h1.6228v13.723h-1.6228z" style=""/>
   <path id="path120" d="m32.917 130.91v0.79375h-7.4612q0.10583 1.6757 1.0054 2.5576 0.9084 0.87312 2.5224 0.87312 0.93486 0 1.808-0.2293 0.88194-0.22931 1.7462-0.68792v1.5346q-0.87312 0.37042-1.7903 0.56445-0.91722 0.19402-1.8609 0.19402-2.3636 0-3.7483-1.3758-1.3758-1.3758-1.3758-3.7218 0-2.4253 1.3053-3.8453 1.3141-1.4288 3.5366-1.4288 1.9932 0 3.1485 1.2876 1.1642 1.2788 1.1642 3.4837zm-1.6228-0.47625q-0.01764-1.3317-0.74965-2.1255-0.72319-0.79375-1.9226-0.79375-1.3582 0-2.1784 0.76729-0.81139 0.76729-0.93486 2.1608z" style=""/>
   <path id="path122" d="m35.58 126.37h1.6228v10.054q0 1.8874-0.72319 2.734-0.71437 0.84667-2.3107 0.84667h-0.61736v-1.3758h0.43215q0.92604 0 1.2612-0.43216 0.33514-0.42333 0.33514-1.7727zm0-3.8453h1.6228v2.0549h-1.6228z" style=""/>
   <path id="path124" d="m49.039 130.91v0.79375h-7.4612q0.10583 1.6757 1.0054 2.5576 0.9084 0.87312 2.5224 0.87312 0.93486 0 1.808-0.2293 0.88194-0.22931 1.7462-0.68792v1.5346q-0.87312 0.37042-1.7903 0.56445-0.91722 0.19402-1.8609 0.19402-2.3636 0-3.7483-1.3758-1.3758-1.3758-1.3758-3.7218 0-2.4253 1.3053-3.8453 1.3141-1.4288 3.5366-1.4288 1.9932 0 3.1485 1.2876 1.1642 1.2788 1.1642 3.4837zm-1.6228-0.47625q-0.01764-1.3317-0.74965-2.1255-0.72319-0.79375-1.9226-0.79375-1.3582 0-2.1784 0.76729-0.81139 0.76729-0.93486 2.1608z" style=""/>
  </g>
  <path id="rect36" d="m180 100h60v50h-60z" fill="#7babe3" stroke="#000" stroke-width="2"/>
  <g id="g42" stroke="#000" stroke-width="2">
   <path id="path38" d="m139.5 130c20.5 0 20.5-4.8 30.764-4.903" fill="none"/>
   <path id="polygon40" d="m170.26 125.1-2.549-4.974 10.049 4.899-9.949 5.1z" fill-rule="evenodd"/>
  </g>
  <path id="rect44" d="m60 120h20v20h-20z" fill="#fdfd04" stroke="#000" stroke-width="2"/>
  <g id="g50" stroke="#000" stroke-width="2">
   <path id="path46" d="m80 130h30.264" fill="none"/>
   <path id="polygon48" d="m110.26 130-2.5-5 10 5-10 5z" fill-rule="evenodd"/>
  </g>
  <g id="text54" aria-label="ListaElem **mozgo">
   <path id="path131" d="m-120.49 223.08h1.7815v11.668h6.4117v1.4993h-8.1933z" style=""/>
   <path id="path133" d="m-110.5 226.37h1.6228v9.8778h-1.6228zm0-3.8453h1.6228v2.0549h-1.6228z" style=""/>
   <path id="path135" d="m-99.198 226.66v1.5346q-0.68792-0.35278-1.4287-0.52917-0.74083-0.17639-1.5346-0.17639-1.2083 0-1.8168 0.37042-0.59972 0.37041-0.59972 1.1112 0 0.56444 0.43215 0.89076 0.43216 0.3175 1.7374 0.60854l0.55563 0.12347q1.7286 0.37042 2.4518 1.0495 0.73201 0.67027 0.73201 1.8785 0 1.3758-1.0936 2.1784-1.0848 0.80256-2.9898 0.80256-0.79375 0-1.6581-0.15875-0.85548-0.14993-1.808-0.45861v-1.6757q0.89958 0.46743 1.7727 0.70556 0.87313 0.2293 1.7286 0.2293 1.1465 0 1.7639-0.38805 0.61736-0.39688 0.61736-1.1112 0-0.66146-0.44979-1.0142-0.44097-0.35278-1.9491-0.67909l-0.56444-0.1323q-1.5081-0.3175-2.1784-0.97013-0.67028-0.66146-0.67028-1.808 0-1.3935 0.98778-2.1519t2.8046-0.75847q0.89958 0 1.6933 0.13229t1.464 0.39688z" style=""/>
   <path id="path137" d="m-94.471 223.57v2.8046h3.3426v1.2612h-3.3426v5.3622q0 1.2083 0.32632 1.5522 0.33514 0.34396 1.3494 0.34396h1.6669v1.3582h-1.6669q-1.8785 0-2.5929-0.69674-0.71437-0.70555-0.71437-2.5576v-5.3622h-1.1906v-1.2612h1.1906v-2.8046z" style=""/>
   <path id="path139" d="m-84.496 231.28q-1.9667 0-2.7252 0.44979-0.75847 0.44979-0.75847 1.5346 0 0.86431 0.56444 1.3758 0.57326 0.50271 1.5522 0.50271 1.3494 0 2.1608-0.9525 0.82021-0.96132 0.82021-2.5488v-0.3616zm3.2367-0.67028v5.6356h-1.6228v-1.4993q-0.55562 0.89958-1.3847 1.3317-0.82903 0.42333-2.0285 0.42333-1.5169 0-2.4165-0.84666-0.89076-0.85549-0.89076-2.2842 0-1.6669 1.1112-2.5135 1.1201-0.84667 3.3337-0.84667h2.2754v-0.15875q0-1.1201-0.74083-1.7286-0.73201-0.61736-2.0637-0.61736-0.84667 0-1.6492 0.20285-0.80257 0.20285-1.5434 0.60854v-1.4993q0.89076-0.34396 1.7286-0.51153 0.83785-0.17639 1.6316-0.17639 2.1431 0 3.2015 1.1112t1.0583 3.369z" style=""/>
   <path id="path141" d="m-77.838 223.08h8.3255v1.4993h-6.544v3.8982h6.2706v1.4993h-6.2706v4.7713h6.7028v1.4993h-8.4843z" style=""/>
   <path id="path143" d="m-66.478 222.53h1.6228v13.723h-1.6228z" style=""/>
   <path id="path145" d="m-53.02 230.91v0.79375h-7.4612q0.10583 1.6757 1.0054 2.5576 0.9084 0.87312 2.5224 0.87312 0.93486 0 1.808-0.2293 0.88194-0.22931 1.7462-0.68792v1.5346q-0.87312 0.37042-1.7903 0.56445-0.91722 0.19402-1.8609 0.19402-2.3636 0-3.7483-1.3758-1.3758-1.3758-1.3758-3.7218 0-2.4253 1.3053-3.8453 1.3141-1.4288 3.5366-1.4288 1.9932 0 3.1485 1.2876 1.1642 1.2788 1.1642 3.4837zm-1.6228-0.47625q-0.01764-1.3317-0.74965-2.1255-0.72319-0.79375-1.9226-0.79375-1.3582 0-2.1784 0.76729-0.81139 0.76729-0.93486 2.1608z" style=""/>
   <path id="path147" d="m-42.666 228.27q0.60854-1.0936 1.4552-1.614 0.84666-0.52035 1.9932-0.52035 1.5434 0 2.3812 1.0848 0.83785 1.076 0.83785 3.0692v5.9619h-1.6316v-5.909q0-1.4199-0.50271-2.1078-0.50271-0.68791-1.5346-0.68791-1.2612 0-1.9932 0.83784-0.73201 0.83785-0.73201 2.2842v5.5827h-1.6316v-5.909q0-1.4288-0.50271-2.1078-0.50271-0.68791-1.5522-0.68791-1.2435 0-1.9756 0.84666-0.73201 0.83785-0.73201 2.2754v5.5827h-1.6316v-9.8778h1.6316v1.5346q0.55562-0.90841 1.3317-1.3406 0.77611-0.43215 1.8433-0.43215 1.076 0 1.8256 0.5468 0.75847 0.54681 1.1201 1.5875z" style=""/>
   <path id="path149" d="m-20.212 225.25-3.1662 1.711 3.1662 1.7198-0.51153 0.8643-2.9633-1.7903v3.3249h-1.0054v-3.3249l-2.9633 1.7903-0.51153-0.8643 3.1662-1.7198-3.1662-1.711 0.51153-0.87313 2.9633 1.7904v-3.3249h1.0054v3.3249l2.9633-1.7904z" style=""/>
   <path id="path151" d="m-11.18 225.25-3.1662 1.711 3.1662 1.7198-0.51153 0.8643-2.9633-1.7903v3.3249h-1.0054v-3.3249l-2.9633 1.7903-0.51153-0.8643 3.1662-1.7198-3.1662-1.711 0.51153-0.87313 2.9633 1.7904v-3.3249h1.0054v3.3249l2.9633-1.7904z" style=""/>
   <path id="path153" d="m-1.2497 228.27q0.60854-1.0936 1.4552-1.614 0.84667-0.52035 1.9932-0.52035 1.5434 0 2.3812 1.0848 0.83785 1.076 0.83785 3.0692v5.9619h-1.6316v-5.909q0-1.4199-0.50271-2.1078-0.50271-0.68791-1.5346-0.68791-1.2612 0-1.9932 0.83784-0.73201 0.83785-0.73201 2.2842v5.5827h-1.6316v-5.909q0-1.4288-0.50271-2.1078-0.50271-0.68791-1.5522-0.68791-1.2435 0-1.9756 0.84666-0.73201 0.83785-0.73201 2.2754v5.5827h-1.6316v-9.8778h1.6316v1.5346q0.55562-0.90841 1.3317-1.3406 0.77611-0.43215 1.8433-0.43215 1.076 0 1.8256 0.5468 0.75847 0.54681 1.1201 1.5875z" style=""/>
   <path id="path155" d="m12.491 227.51q-1.3053 0-2.0637 1.0231-0.75847 1.0142-0.75847 2.7869 0 1.7727 0.74965 2.7958 0.75847 1.0142 2.0726 1.0142 1.2965 0 2.0549-1.023 0.75847-1.0231 0.75847-2.7869 0-1.7551-0.75847-2.7781-0.75847-1.0319-2.0549-1.0319zm0-1.3758q2.1167 0 3.3249 1.3758 1.2083 1.3758 1.2083 3.81 0 2.4253-1.2083 3.81-1.2083 1.3758-3.3249 1.3758-2.1255 0-3.3337-1.3758-1.1994-1.3846-1.1994-3.81 0-2.4342 1.1994-3.81 1.2083-1.3758 3.3337-1.3758z" style=""/>
   <path id="path157" d="m19 226.37h7.7082v1.4817l-6.103 7.0996h6.103v1.2965h-7.9287v-1.4817l6.103-7.0996h-5.8826z" style=""/>
   <path id="path159" d="m35.695 231.2q0-1.7639-0.73201-2.734-0.72319-0.97014-2.0373-0.97014-1.3053 0-2.0373 0.97014-0.72319 0.97014-0.72319 2.734 0 1.7551 0.72319 2.7252 0.73201 0.97014 2.0373 0.97014 1.3141 0 2.0373-0.97014 0.73201-0.97014 0.73201-2.7252zm1.6228 3.8276q0 2.5224-1.1201 3.7483-1.1201 1.2347-3.4308 1.2347-0.85548 0-1.614-0.13229-0.75847-0.12347-1.4728-0.38806v-1.5787q0.71437 0.38806 1.4111 0.57327 0.69674 0.1852 1.4199 0.1852 1.5963 0 2.3901-0.83784 0.79375-0.82903 0.79375-2.5135v-0.80257q-0.50271 0.87313-1.2876 1.3053-0.78493 0.43215-1.8785 0.43215-1.8168 0-2.9281-1.3846t-1.1112-3.6689q0-2.293 1.1112-3.6777t2.9281-1.3846q1.0936 0 1.8785 0.43215 0.78493 0.43215 1.2876 1.3053v-1.4993h1.6228z" style=""/>
   <path id="path161" d="m44.488 227.51q-1.3053 0-2.0637 1.0231-0.75847 1.0142-0.75847 2.7869 0 1.7727 0.74965 2.7958 0.75847 1.0142 2.0726 1.0142 1.2965 0 2.0549-1.023 0.75847-1.0231 0.75847-2.7869 0-1.7551-0.75847-2.7781-0.75847-1.0319-2.0549-1.0319zm0-1.3758q2.1167 0 3.3249 1.3758t1.2083 3.81q0 2.4253-1.2083 3.81-1.2083 1.3758-3.3249 1.3758-2.1255 0-3.3337-1.3758-1.1994-1.3846-1.1994-3.81 0-2.4342 1.1994-3.81 1.2083-1.3758 3.3337-1.3758z" style=""/>
  </g>
  <path id="rect56" d="m60 220h20v20h-20z" fill="#fdfd04" stroke="#000" stroke-width="2"/>
  <g id="g62" stroke="#000" stroke-width="2">
   <path id="path58" d="m340 156c36 0 0-21 30.264-21" fill="none"/>
   <path id="polygon60" d="m370.26 135-2.5-5 10 5-10 5z" fill-rule="evenodd"/>
  </g>
  <g id="g68" stroke="#f62e2e" stroke-width="2">
   <path id="path64" d="M 112.211,145.842 C 80,170 120,200 80,230" fill="none"/>
   <path id="polygon66" d="m112.21 145.84-5-2.5 11-2-5 10z" fill="#f62e2e" fill-rule="evenodd"/>
  </g>
  <g id="g74" stroke="#f62e2e" stroke-width="2">
   <path id="path70" d="M 172.211,175.842 C 140,200 120,230 80,230" fill="none"/>
   <path id="polygon72" d="m172.21 175.84-5-2.5 11-2-5 10z" fill="#f62e2e" fill-rule="evenodd"/>
  </g>
  <g id="g80" stroke="#f62e2e" stroke-width="2">
   <path id="path76" d="M 272.211,175.842 C 240,200 120,230 80,230" fill="none"/>
   <path id="polygon78" d="m272.21 175.84-5-2.5 11-2-5 10z" fill="#f62e2e" fill-rule="evenodd"/>
  </g>
  <g id="g86" stroke="#f62e2e" stroke-width="2">
   <path id="path82" d="M 372.211,175.842 C 340,200 150,230 80,230" fill="none"/>
   <path id="polygon84" d="m372.21 175.84-5-2.5 11-2-5 10z" fill="#f62e2e" fill-rule="evenodd"/>
  </g>
  <path id="rect88" d="m180 150h60v20h-60z" fill="#7babe3" stroke="#000" stroke-width="2"/>
  <path id="rect90" d="m280 100h60v50h-60z" fill="#7babe3" stroke="#000" stroke-width="2"/>
  <path id="rect92" d="m280 150h60v20h-60z" fill="#7babe3" stroke="#000" stroke-width="2"/>
  <path id="rect94" d="m380 100h60v50h-60z" fill="#7babe3" stroke="#000" stroke-width="2"/>
  <path id="rect96" d="m380 150h60v20h-60z" fill="#7babe3" stroke="#000" stroke-width="2"/>
  <path id="line98" d="m380 150 60 20" fill="none" stroke="#000" stroke-width="2"/>
  <path id="line100" d="m380 170 60-20" fill="none" stroke="#000" stroke-width="2"/>
  <path id="line102" d="m450 250 60 20" fill="none" stroke="#f62e2e" stroke-width="2"/>
  <path id="line104" d="m450 270 60-20" fill="none" stroke="#f62e2e" stroke-width="2"/>
  <path id="rect106" d="m450 200h60v50h-60z" fill="#7be38e" stroke="#000" stroke-width="2"/>
 </g>
</svg>
