<?xml version="1.0" encoding="UTF-8" standalone="no"?>
<svg id="svg2" xmlns:rdf="http://www.w3.org/1999/02/22-rdf-syntax-ns#" xmlns="http://www.w3.org/2000/svg" viewBox="353 40 144.41976 216.57765" height="11.76cm" width="7.8065cm" version="1.1" xmlns:cc="http://creativecommons.org/ns#" xmlns:dc="http://purl.org/dc/elements/1.1/">
 <metadata id="metadata110">
  <rdf:RDF>
   <cc:Work rdf:about="">
    <dc:format>image/svg+xml</dc:format>
    <dc:type rdf:resource="http://purl.org/dc/dcmitype/StillImage"/>
   </cc:Work>
  </rdf:RDF>
 </metadata>
 <g id="g4" transform="translate(-3.5802 -3.9324)">
  <path id="rect6" fill="#fff" d="m380 220h120v40h-120z"/>
  <path id="rect8" d="m380 220h120v40h-120z" stroke="#000" stroke-width="2" fill="none"/>
 </g>
 <g id="g10" transform="translate(-3.5802 -3.9324)">
  <path id="rect12" fill="#fff" d="m380 180h120v40h-120z"/>
  <path id="rect14" d="m380 180h120v40h-120z" stroke="#000" stroke-width="2" fill="none"/>
 </g>
 <g id="g16" transform="translate(-3.5802 -3.9324)">
  <path id="rect18" fill="#fff" d="m380 100h120v40h-120z"/>
  <path id="rect20" d="m380 100h120v40h-120z" stroke="#000" stroke-width="2" fill="none"/>
 </g>
 <g id="g22" transform="translate(-3.5802 -3.9324)">
  <path id="rect24" fill="#7babe3" d="m380 60h120v40h-120z"/>
  <path id="rect26" d="m380 60h120v40h-120z" stroke="#000" stroke-width="2" fill="none"/>
 </g>
 <g id="text28">
  <path id="path67" style="" d="m384.3 80.206h5.4405v1.3119h-7.3157v-1.3119q0.88746-0.91832 2.4154-2.4617 1.5357-1.5511 1.9292-1.9987 0.74855-0.84115 1.0418-1.4199 0.30097-0.58649 0.30097-1.1498 0-0.91832-0.64823-1.4971-0.64051-0.57877-1.6746-0.57877-0.73311 0-1.5511 0.25466-0.81029 0.25466-1.7363 0.7717v-1.5743q0.94148-0.37813 1.7595-0.57106 0.818-0.19292 1.4971-0.19292 1.7904 0 2.8553 0.89517 1.065 0.89517 1.065 2.3923 0 0.70996-0.2701 1.3505-0.26238 0.63279-0.96462 1.4971-0.19293 0.22379-1.227 1.2965-1.0341 1.0649-2.917 2.9865z"/>
  <path id="path69" style="" d="m396.35 71.023q-1.2038 0-1.8135 1.1884-0.60193 1.1807-0.60193 3.5575 0 2.3691 0.60193 3.5575 0.60964 1.1807 1.8135 1.1807 1.2116 0 1.8135-1.1807 0.60964-1.1884 0.60964-3.5575 0-2.3768-0.60964-3.5575-0.60193-1.1884-1.8135-1.1884zm0-1.2347q1.937 0 2.9556 1.5357 1.0264 1.528 1.0264 4.445 0 2.9093-1.0264 4.445-1.0186 1.528-2.9556 1.528t-2.9633-1.528q-1.0186-1.5357-1.0186-4.445 0-2.917 1.0186-4.445 1.0264-1.5357 2.9633-1.5357z"/>
  <path id="path71" style="" d="m406.41 71.023q-1.2038 0-1.8135 1.1884-0.60193 1.1807-0.60193 3.5575 0 2.3691 0.60193 3.5575 0.60964 1.1807 1.8135 1.1807 1.2116 0 1.8135-1.1807 0.60965-1.1884 0.60965-3.5575 0-2.3768-0.60965-3.5575-0.60192-1.1884-1.8135-1.1884zm0-1.2347q1.937 0 2.9556 1.5357 1.0264 1.528 1.0264 4.445 0 2.9093-1.0264 4.445-1.0186 1.528-2.9556 1.528t-2.9633-1.528q-1.0186-1.5357-1.0186-4.445 0-2.917 1.0186-4.445 1.0264-1.5357 2.9633-1.5357z"/>
  <path id="path73" style="" d="m416.47 71.023q-1.2038 0-1.8135 1.1884-0.60193 1.1807-0.60193 3.5575 0 2.3691 0.60193 3.5575 0.60964 1.1807 1.8135 1.1807 1.2116 0 1.8135-1.1807 0.60964-1.1884 0.60964-3.5575 0-2.3768-0.60964-3.5575-0.60192-1.1884-1.8135-1.1884zm0-1.2347q1.937 0 2.9556 1.5357 1.0264 1.528 1.0264 4.445 0 2.9093-1.0264 4.445-1.0186 1.528-2.9556 1.528t-2.9633-1.528q-1.0186-1.5357-1.0186-4.445 0-2.917 1.0186-4.445 1.0264-1.5357 2.9633-1.5357z"/>
  <path id="path75" style="" d="m426.54 71.023q-1.2038 0-1.8135 1.1884-0.60192 1.1807-0.60192 3.5575 0 2.3691 0.60192 3.5575 0.60965 1.1807 1.8135 1.1807 1.2116 0 1.8135-1.1807 0.60964-1.1884 0.60964-3.5575 0-2.3768-0.60964-3.5575-0.60193-1.1884-1.8135-1.1884zm0-1.2347q1.937 0 2.9556 1.5357 1.0264 1.528 1.0264 4.445 0 2.9093-1.0264 4.445-1.0186 1.528-2.9556 1.528t-2.9633-1.528q-1.0186-1.5357-1.0186-4.445 0-2.917 1.0186-4.445 1.0264-1.5357 2.9633-1.5357z"/>
 </g>
 <g id="text32">
  <path id="path78" style="" d="m459.39 80.206h5.4405v1.3119h-7.3157v-1.3119q0.88745-0.91832 2.4154-2.4617 1.5357-1.5511 1.9292-1.9987 0.74854-0.84115 1.0418-1.4199 0.30096-0.58649 0.30096-1.1498 0-0.91832-0.64822-1.4971-0.64051-0.57877-1.6746-0.57877-0.73312 0-1.5511 0.25466-0.81028 0.25466-1.7363 0.7717v-1.5743q0.94147-0.37813 1.7595-0.57106 0.818-0.19292 1.4971-0.19292 1.7903 0 2.8553 0.89517 1.0649 0.89517 1.0649 2.3923 0 0.70996-0.27009 1.3505-0.26238 0.63279-0.96463 1.4971-0.19292 0.22379-1.227 1.2965-1.0341 1.0649-2.917 2.9865z"/>
  <path id="path80" style="" d="m471.44 71.023q-1.2038 0-1.8135 1.1884-0.60193 1.1807-0.60193 3.5575 0 2.3691 0.60193 3.5575 0.60964 1.1807 1.8135 1.1807 1.2116 0 1.8135-1.1807 0.60965-1.1884 0.60965-3.5575 0-2.3768-0.60965-3.5575-0.60192-1.1884-1.8135-1.1884zm0-1.2347q1.937 0 2.9556 1.5357 1.0264 1.528 1.0264 4.445 0 2.9093-1.0264 4.445-1.0186 1.528-2.9556 1.528t-2.9633-1.528q-1.0186-1.5357-1.0186-4.445 0-2.917 1.0186-4.445 1.0264-1.5357 2.9633-1.5357z"/>
 </g>
 <g id="text36">
  <path id="path83" style="" d="m383.22 120.21h2.5466v-8.7896l-2.7704 0.55562v-1.4199l2.755-0.55562h1.5588v10.21h2.5466v1.3119h-6.6366v-1.3119z"/>
  <path id="path85" style="" d="m396.35 111.02q-1.2038 0-1.8135 1.1884-0.60193 1.1807-0.60193 3.5575 0 2.3691 0.60193 3.5575 0.60964 1.1807 1.8135 1.1807 1.2116 0 1.8135-1.1807 0.60964-1.1884 0.60964-3.5575 0-2.3768-0.60964-3.5575-0.60193-1.1884-1.8135-1.1884zm0-1.2347q1.937 0 2.9556 1.5357 1.0264 1.528 1.0264 4.445 0 2.9093-1.0264 4.445-1.0186 1.528-2.9556 1.528t-2.9633-1.528q-1.0186-1.5357-1.0186-4.445 0-2.917 1.0186-4.445 1.0264-1.5357 2.9633-1.5357z"/>
  <path id="path87" style="" d="m406.41 111.02q-1.2038 0-1.8135 1.1884-0.60193 1.1807-0.60193 3.5575 0 2.3691 0.60193 3.5575 0.60964 1.1807 1.8135 1.1807 1.2116 0 1.8135-1.1807 0.60965-1.1884 0.60965-3.5575 0-2.3768-0.60965-3.5575-0.60192-1.1884-1.8135-1.1884zm0-1.2347q1.937 0 2.9556 1.5357 1.0264 1.528 1.0264 4.445 0 2.9093-1.0264 4.445-1.0186 1.528-2.9556 1.528t-2.9633-1.528q-1.0186-1.5357-1.0186-4.445 0-2.917 1.0186-4.445 1.0264-1.5357 2.9633-1.5357z"/>
  <path id="path89" style="" d="m416.47 111.02q-1.2038 0-1.8135 1.1884-0.60193 1.1807-0.60193 3.5575 0 2.3691 0.60193 3.5575 0.60964 1.1807 1.8135 1.1807 1.2116 0 1.8135-1.1807 0.60964-1.1884 0.60964-3.5575 0-2.3768-0.60964-3.5575-0.60192-1.1884-1.8135-1.1884zm0-1.2347q1.937 0 2.9556 1.5357 1.0264 1.528 1.0264 4.445 0 2.9093-1.0264 4.445-1.0186 1.528-2.9556 1.528t-2.9633-1.528q-1.0186-1.5357-1.0186-4.445 0-2.917 1.0186-4.445 1.0264-1.5357 2.9633-1.5357z"/>
  <path id="path91" style="" d="m426.54 111.02q-1.2038 0-1.8135 1.1884-0.60192 1.1807-0.60192 3.5575 0 2.3691 0.60192 3.5575 0.60965 1.1807 1.8135 1.1807 1.2116 0 1.8135-1.1807 0.60964-1.1884 0.60964-3.5575 0-2.3768-0.60964-3.5575-0.60193-1.1884-1.8135-1.1884zm0-1.2347q1.937 0 2.9556 1.5357 1.0264 1.528 1.0264 4.445 0 2.9093-1.0264 4.445-1.0186 1.528-2.9556 1.528t-2.9633-1.528q-1.0186-1.5357-1.0186-4.445 0-2.917 1.0186-4.445 1.0264-1.5357 2.9633-1.5357z"/>
 </g>
 <g id="text40">
  <path id="path94" style="" d="m466.41 111.02q-1.2038 0-1.8135 1.1884-0.60193 1.1807-0.60193 3.5575 0 2.3691 0.60193 3.5575 0.60964 1.1807 1.8135 1.1807 1.2116 0 1.8135-1.1807 0.60965-1.1884 0.60965-3.5575 0-2.3768-0.60965-3.5575-0.60192-1.1884-1.8135-1.1884zm0-1.2347q1.937 0 2.9556 1.5357 1.0264 1.528 1.0264 4.445 0 2.9093-1.0264 4.445-1.0186 1.528-2.9556 1.528t-2.9633-1.528q-1.0186-1.5357-1.0186-4.445 0-2.917 1.0186-4.445 1.0264-1.5357 2.9633-1.5357z"/>
 </g>
 <g id="text44">
  <path id="path97" style="" d="m403.09 190h6.1196v1.3119h-4.6919v2.8244q0.33955-0.11576 0.67909-0.16978 0.33955-0.0617 0.6791-0.0617 1.9292 0 3.0559 1.0572t1.1267 2.863q0 1.8598-1.1576 2.8939-1.1576 1.0264-3.2643 1.0264-0.72539 0-1.4817-0.12347-0.74855-0.12347-1.5511-0.37042v-1.5666q0.69453 0.37814 1.4354 0.56335 0.74083 0.1852 1.5665 0.1852 1.335 0 2.1145-0.70224 0.77942-0.70225 0.77942-1.9061t-0.77942-1.9061q-0.77942-0.70224-2.1145-0.70224-0.62507 0-1.2502 0.1389-0.61736 0.13891-1.2656 0.43215v-5.7877z"/>
 </g>
 <g id="text48">
  <path id="path100" style="" d="m458.32 200.21h2.5466v-8.7896l-2.7704 0.55562v-1.4199l2.755-0.55562h1.5588v10.21h2.5466v1.3119h-6.6366v-1.3119z"/>
  <path id="path102" style="" d="m468.16 201.28v-1.4199q0.58649 0.27781 1.1884 0.42443 0.60192 0.14662 1.1807 0.14662 1.5434 0 2.3537-1.0341 0.818-1.0418 0.93376-3.1562-0.44759 0.66366-1.1344 1.0186-0.68681 0.35498-1.5202 0.35498-1.7286 0-2.7395-1.0418-1.0032-1.0495-1.0032-2.863 0-1.7749 1.0495-2.8476t2.7936-1.0727q1.9987 0 3.0482 1.5357 1.0572 1.528 1.0572 4.445 0 2.7241-1.2964 4.3524-1.2887 1.6206-3.4726 1.6206-0.58649 0-1.1884-0.11575-0.60192-0.11576-1.2502-0.34727zm3.1022-4.8848q1.0495 0 1.6592-0.71768 0.61736-0.71768 0.61736-1.9678 0-1.2424-0.61736-1.9601-0.60965-0.7254-1.6592-0.7254-1.0495 0-1.6669 0.7254-0.60964 0.71768-0.60964 1.9601 0 1.2502 0.60964 1.9678 0.61736 0.71768 1.6669 0.71768z"/>
 </g>
 <g id="text52">
  <path id="path105" style="" d="m406.41 231.02q-1.2038 0-1.8135 1.1884-0.60193 1.1807-0.60193 3.5575 0 2.3691 0.60193 3.5575 0.60964 1.1807 1.8135 1.1807 1.2116 0 1.8135-1.1807 0.60965-1.1884 0.60965-3.5575 0-2.3768-0.60965-3.5575-0.60192-1.1884-1.8135-1.1884zm0-1.2347q1.937 0 2.9556 1.5357 1.0264 1.528 1.0264 4.445 0 2.9093-1.0264 4.445-1.0186 1.528-2.9556 1.528t-2.9633-1.528q-1.0186-1.5357-1.0186-4.445 0-2.917 1.0186-4.445 1.0264-1.5357 2.9633-1.5357z"/>
 </g>
 <g id="text56">
  <path id="path108" style="" d="m466.41 231.02q-1.2038 0-1.8135 1.1884-0.60193 1.1807-0.60193 3.5575 0 2.3691 0.60193 3.5575 0.60964 1.1807 1.8135 1.1807 1.2116 0 1.8135-1.1807 0.60965-1.1884 0.60965-3.5575 0-2.3768-0.60965-3.5575-0.60192-1.1884-1.8135-1.1884zm0-1.2347q1.937 0 2.9556 1.5357 1.0264 1.528 1.0264 4.445 0 2.9093-1.0264 4.445-1.0186 1.528-2.9556 1.528t-2.9633-1.528q-1.0186-1.5357-1.0186-4.445 0-2.917 1.0186-4.445 1.0264-1.5357 2.9633-1.5357z"/>
 </g>
 <g id="g60" transform="translate(-3.5802 -3.9324)">
  <path id="rect62" fill="#fff" d="m380 140h120v40h-120z"/>
  <path id="rect64" d="m380 140h120v40h-120z" stroke="#000" stroke-width="2" fill="none"/>
 </g>
 <g id="text66">
  <path id="path113" style="" d="m430.34 155.62h1.6283v1.9601h-1.6283v-1.9601zm5.263 0h1.6283v1.9601h-1.6283v-1.9601zm5.263 0h1.6283v1.9601h-1.6283v-1.9601z"/>
 </g>
 <g id="text70">
  <path id="path116" style="" d="m356.41 71.772q-1.0319 0-1.5544 1.0186-0.51594 1.012-0.51594 3.0493 0 2.0307 0.51594 3.0493 0.52256 1.012 1.5544 1.012 1.0385 0 1.5544-1.012 0.52255-1.0186 0.52255-3.0493 0-2.0373-0.52255-3.0493-0.51594-1.0186-1.5544-1.0186zm0-1.0583q1.6603 0 2.5334 1.3163 0.87974 1.3097 0.87974 3.81 0 2.4937-0.87974 3.81-0.87313 1.3097-2.5334 1.3097t-2.54-1.3097q-0.87313-1.3163-0.87313-3.81 0-2.5003 0.87313-3.81 0.87974-1.3163 2.54-1.3163z"/>
 </g>
 <g id="text74">
  <path id="path119" style="" d="m353.79 119.64h2.1828v-7.534l-2.3746 0.47625v-1.2171l2.3614-0.47625h1.3362v8.7511h2.1828v1.1245h-5.6886v-1.1245z"/>
 </g>
 <g id="text78">
  <path id="path122" style="" d="m356.58 195.3q-0.89959 0-1.4288 0.61515-0.52256 0.61516-0.52256 1.6867 0 1.065 0.52256 1.6867 0.52916 0.61516 1.4288 0.61516 0.89958 0 1.4221-0.61516 0.52917-0.62177 0.52917-1.6867 0-1.0716-0.52917-1.6867-0.52256-0.61515-1.4221-0.61515zm2.6524-4.187v1.2171q-0.50271-0.23813-1.0186-0.3638-0.50933-0.12568-1.012-0.12568-1.3229 0-2.0241 0.89297-0.69453 0.89297-0.79375 2.6988 0.39026-0.57547 0.97896-0.87974 0.5887-0.31089 1.2965-0.31089 1.4883 0 2.3482 0.9062 0.86651 0.89959 0.86651 2.454 0 1.5214-0.89959 2.4408-0.89958 0.91943-2.3945 0.91943-1.7132 0-2.6194-1.3097-0.9062-1.3163-0.9062-3.81 0-2.3416 1.1112-3.7306 1.1112-1.3957 2.9832-1.3957 0.50271 0 1.012 0.0992 0.51594 0.0992 1.0716 0.29765z"/>
 </g>
 <g id="text82">
  <path id="path125" style="" d="m353.22 230.89h6.35v0.56886l-3.5851 9.3067h-1.3957l3.3734-8.7511h-4.7427v-1.1245z"/>
 </g>
 <g id="text86">
  <path id="path128" style="" d="m355.72 160.34h1.3957v1.6801h-1.3957v-1.6801zm0-9.2604h1.3957v1.6801h-1.3957v-1.6801zm0 4.6302h1.3957v1.6801h-1.3957v-1.6801z"/>
 </g>
 <g id="text90">
  <path id="path131" style="" d="m394.64 46.841v0.69453h-6.5286q0.0926 1.4662 0.87973 2.2379 0.79485 0.76398 2.2071 0.76398 0.818 0 1.582-0.20064 0.7717-0.20064 1.528-0.60192v1.3428q-0.76398 0.32411-1.5666 0.49389-0.80257 0.16977-1.6283 0.16977-2.0682 0-3.2797-1.2039-1.2038-1.2039-1.2038-3.2566 0-2.1222 1.1421-3.3646 1.1498-1.2502 3.0945-1.2502 1.744 0 2.755 1.1267 1.0186 1.119 1.0186 3.0482zm-1.4199-0.41672q-0.0154-1.1653-0.65594-1.8598-0.63279-0.69453-1.6823-0.69453-1.1884 0-1.9061 0.67138-0.70996 0.67138-0.818 1.8907l5.0623-0.0077z"/>
  <path id="path133" style="" d="m401.97 44.202q-0.23923-0.13891-0.52475-0.20064-0.27782-0.06945-0.61736-0.06945-1.2038 0-1.8521 0.78713-0.64051 0.77942-0.64051 2.2456v4.553h-1.4276v-8.643h1.4276v1.3428q0.44758-0.78713 1.1653-1.1653 0.71768-0.38585 1.744-0.38585 0.14663 0 0.32412 0.02315 0.17749 0.01543 0.39356 0.05402l0.008 1.4585z"/>
  <path id="path135" style="" d="m404.88 40.421v2.454h2.9247v1.1035h-2.9247v4.6919q0 1.0572 0.28553 1.3582 0.29324 0.30096 1.1807 0.30096h1.4585v1.1884h-1.4585q-1.6437 0-2.2688-0.60964-0.62508-0.61736-0.62508-2.2379v-4.6919h-1.0418v-1.1035h1.0418v-2.454h1.4276z"/>
  <path id="path137" style="" d="m417.08 46.841v0.69453h-6.5286q0.0926 1.4662 0.87974 2.2379 0.79485 0.76398 2.2071 0.76398 0.818 0 1.582-0.20064 0.7717-0.20064 1.528-0.60192v1.3428q-0.76398 0.32411-1.5666 0.49389-0.80256 0.16977-1.6283 0.16977-2.0682 0-3.2797-1.2039-1.2038-1.2039-1.2038-3.2566 0-2.1222 1.1421-3.3646 1.1498-1.2502 3.0945-1.2502 1.744 0 2.755 1.1267 1.0186 1.119 1.0186 3.0482zm-1.4199-0.41672q-0.0154-1.1653-0.65595-1.8598-0.63279-0.69453-1.6823-0.69453-1.1884 0-1.9061 0.67138-0.70996 0.67138-0.818 1.8907l5.0624-0.0077z"/>
  <path id="path139" style="" d="m419.35 39.51h1.4276v7.0919l4.2366-3.7273h1.8135l-4.5839 4.0437 4.7768 4.5993h-1.8521l-4.391-4.2212v4.2212h-1.4276v-12.008z"/>
 </g>
 <g id="text94">
  <path id="path142" style="" d="m450.62 44.186v-4.6765h1.4199v12.008h-1.4199v-1.2965q-0.44759 0.7717-1.1344 1.1498-0.67909 0.37042-1.636 0.37042-1.5666 0-2.5543-1.2502-0.98005-1.2502-0.98005-3.2874 0-2.0373 0.98005-3.2874 0.98778-1.2502 2.5543-1.2502 0.95691 0 1.636 0.37813 0.68681 0.37042 1.1344 1.1421zm-4.8386 3.0173q0 1.5666 0.64051 2.4617 0.64823 0.88745 1.7749 0.88745t1.7749-0.88745q0.64823-0.89517 0.64823-2.4617t-0.64823-2.454q-0.64823-0.89517-1.7749-0.89517t-1.7749 0.89517q-0.64051 0.88745-0.64051 2.454z"/>
  <path id="path144" style="" d="m458.89 47.173q-1.7209 0-2.3846 0.39357-0.66366 0.39357-0.66366 1.3428 0 0.75626 0.49389 1.2038 0.5016 0.43987 1.3582 0.43987 1.1807 0 1.8907-0.83344 0.71768-0.84115 0.71768-2.2302v-0.3164h-1.4122zm2.8321-0.58649v4.9312h-1.4199v-1.3119q-0.48617 0.78713-1.2116 1.1653-0.7254 0.37042-1.7749 0.37042-1.3273 0-2.1145-0.74083-0.77941-0.74855-0.77941-1.9987 0-1.4585 0.97234-2.1993 0.98005-0.74083 2.917-0.74083h1.991v-0.13891q0-0.98006-0.64822-1.5125-0.64051-0.54019-1.8058-0.54019-0.74083 0-1.4431 0.17749-0.70224 0.17749-1.3505 0.53247v-1.3119q0.77942-0.30096 1.5125-0.44758 0.73311-0.15434 1.4276-0.15434 1.8752 0 2.8013 0.97234 0.92604 0.97234 0.92604 2.9479z"/>
  <path id="path146" style="" d="m469.66 44.202q-0.23923-0.13891-0.52476-0.20064-0.27781-0.06945-0.61736-0.06945-1.2038 0-1.8521 0.78713-0.64051 0.77942-0.64051 2.2456v4.553h-1.4276v-8.643h1.4276v1.3428q0.44759-0.78713 1.1653-1.1653 0.71768-0.38585 1.744-0.38585 0.14662 0 0.32411 0.02315 0.17749 0.01543 0.39357 0.05402l0.008 1.4585z"/>
  <path id="path148" style="" d="m475.09 47.173q-1.7209 0-2.3846 0.39357-0.66366 0.39357-0.66366 1.3428 0 0.75626 0.49388 1.2038 0.50161 0.43987 1.3582 0.43987 1.1807 0 1.8907-0.83344 0.71768-0.84115 0.71768-2.2302v-0.3164h-1.4122zm2.8321-0.58649v4.9312h-1.4199v-1.3119q-0.48617 0.78713-1.2116 1.1653-0.7254 0.37042-1.7749 0.37042-1.3273 0-2.1144-0.74083-0.77942-0.74855-0.77942-1.9987 0-1.4585 0.97234-2.1993 0.98006-0.74083 2.917-0.74083h1.991v-0.13891q0-0.98006-0.64823-1.5125-0.64051-0.54019-1.8058-0.54019-0.74083 0-1.4431 0.17749-0.70225 0.17749-1.3505 0.53247v-1.3119q0.77942-0.30096 1.5125-0.44758 0.73312-0.15434 1.4276-0.15434 1.8752 0 2.8013 0.97234 0.92603 0.97234 0.92603 2.9479z"/>
  <path id="path150" style="" d="m487.06 47.204q0-1.5665-0.64822-2.454-0.64051-0.89517-1.7672-0.89517t-1.7749 0.89517q-0.64051 0.88745-0.64051 2.454t0.64051 2.4617q0.64822 0.88745 1.7749 0.88745t1.7672-0.88745q0.64822-0.89517 0.64822-2.4617zm-4.83-3.018q0.44758-0.7717 1.1267-1.1421 0.68681-0.37813 1.636-0.37813 1.5743 0 2.5543 1.2502 0.98778 1.2502 0.98778 3.2874 0 2.0373-0.98778 3.2874-0.98005 1.2502-2.5543 1.2502-0.94919 0-1.636-0.37042-0.6791-0.37813-1.1267-1.1498v1.2965h-1.4276v-12.008h1.4276v4.6765z"/>
 </g>
 <path id="line98" d="m436.42 56.068v40" stroke="#000" stroke-dasharray="4" fill="none"/>
 <path id="line100" d="m436.42 96.068v40" stroke="#000" stroke-dasharray="4" fill="none"/>
 <path id="line102" d="m436.42 217.06v39.009" stroke="#000" stroke-dasharray="4" fill="none"/>
 <path id="line104" d="m436.42 176.07v40" stroke="#000" stroke-dasharray="4" fill="none"/>
</svg>
