<?xml version="1.0" encoding="UTF-8"?>
<!DOCTYPE svg  PUBLIC '-//W3C//DTD SVG 1.1//EN'  'http://www.w3.org/Graphics/SVG/1.1/DTD/svg11.dtd'>
<!-- Generated by graphviz version 2.40.1 (20161225.0304)
 -->
<!-- Title: %3 Pages: 1 -->
<svg width="1683pt" height="355pt" viewBox="0 0 1682.5 355" xmlns="http://www.w3.org/2000/svg">
 <g id="graph0" class="graph" transform="scale(1) translate(4 351)">
  <title>%3</title>
  <polygon points="-4 4 -4 -351 1678.5 -351 1678.5 4" fill="#fff" stroke="transparent"/>
<!-- fopen -->
  <g id="node1" class="node">
   <title>fopen</title>
   <ellipse cx="439.5" cy="-103" rx="37.894" ry="18" fill="#eee" stroke="#000"/>
   <text x="439.5" y="-99.3" fill="#000000" font-family="Sans" font-size="14" text-anchor="middle">fopen</text>
  </g>
<!-- fclose -->
  <g id="node2" class="node">
   <title>fclose</title>
   <ellipse cx="345.5" cy="-103" rx="38.194" ry="18" fill="#eee" stroke="#000"/>
   <text x="345.5" y="-99.3" fill="#000000" font-family="Sans" font-size="14" text-anchor="middle">fclose</text>
  </g>
<!-- malloc -->
  <g id="node3" class="node">
   <title>malloc</title>
   <ellipse cx="531.5" cy="-19.5" rx="41.693" ry="18" fill="#eee" stroke="#000"/>
   <text x="531.5" y="-15.8" fill="#000000" font-family="Sans" font-size="14" text-anchor="middle">malloc</text>
  </g>
<!-- free -->
  <g id="node4" class="node">
   <title>free</title>
   <ellipse cx="1034.5" cy="-19.5" rx="29.795" ry="18" fill="#eee" stroke="#000"/>
   <text x="1034.5" y="-15.8" fill="#000000" font-family="Sans" font-size="14" text-anchor="middle">free</text>
  </g>
<!-- uj_dolgozat -->
  <g id="node5" class="node">
   <title>uj_dolgozat</title>
   <polygon points="593.5 -121 495.5 -121 495.5 -85 593.5 -85" fill="#8dd3c7" stroke="#000"/>
   <text x="544.5" y="-99.3" fill="#000000" font-family="Sans" font-size="14" text-anchor="middle">uj_dolgozat</text>
  </g>
<!-- uj_dolgozat&#45;&gt;malloc -->
  <g id="edge1" class="edge">
   <title>uj_dolgozat-&gt;malloc</title>
   <path d="m541.68-84.882c-1.6865 10.832-3.8657 24.83-5.7749 37.092" fill="none" stroke="#000"/>
   <polygon points="539.31 -46.925 534.32 -37.583 532.4 -48.002" stroke="#000"/>
  </g>
<!-- dolgozatok_felszabadit -->
  <g id="node6" class="node">
   <title>dolgozatok_felszabadit</title>
   <polygon points="1006 -214 825 -214 825 -186 1006 -186" fill="#8dd3c7" stroke="#000"/>
   <text x="915.5" y="-196.3" fill="#000000" font-family="Sans" font-size="14" text-anchor="middle">dolgozatok_felszabadit</text>
  </g>
<!-- dolgozatok_felszabadit&#45;&gt;free -->
  <g id="edge3" class="edge">
   <title>dolgozatok_felszabadit-&gt;free</title>
   <path d="m914.01-185.8c-1.8515 24.832-2.2782 76.731 21.492 110.8 2.2161 3.1758 39.053 23.385 67.149 38.508" fill="none" stroke="#000"/>
   <polygon points="1004.6 -39.405 1011.8 -31.591 1001.3 -33.237" stroke="#000"/>
  </g>
<!-- halmaz_felszabadit -->
  <g id="node23" class="node">
   <title>halmaz_felszabadit</title>
   <polygon points="1099 -115 944 -115 944 -91 1099 -91" fill="#fb8072" stroke="#000"/>
   <text x="1021.5" y="-99.3" fill="#000000" font-family="Sans" font-size="14" text-anchor="middle">halmaz_felszabadit</text>
  </g>
<!-- dolgozatok_felszabadit&#45;&gt;halmaz_felszabadit -->
  <g id="edge2" class="edge">
   <title>dolgozatok_felszabadit-&gt;halmaz_felszabadit</title>
   <path d="m931.14-185.69c18.404 16.842 49.037 44.874 69.463 63.565" fill="none" stroke="#000"/>
   <polygon points="1003.1 -124.55 1008.1 -115.22 998.41 -119.39" stroke="#000"/>
  </g>
<!-- dolgozatok_meret -->
  <g id="node7" class="node">
   <title>dolgozatok_meret</title>
   <polygon points="795.5 -115 649.5 -115 649.5 -91 795.5 -91" fill="#8dd3c7" stroke="#000"/>
   <text x="722.5" y="-99.3" fill="#000000" font-family="Sans" font-size="14" text-anchor="middle">dolgozatok_meret</text>
  </g>
<!-- elvalaszto -->
  <g id="node8" class="node">
   <title>elvalaszto</title>
   <polygon points="99 -38.5 10 -38.5 10 -0.5 99 -0.5" fill="#8dd3c7" stroke="#000"/>
   <text x="54.5" y="-15.8" fill="#000000" font-family="Sans" font-size="14" text-anchor="middle">elvalaszto</text>
  </g>
<!-- szot_beolvas -->
  <g id="node9" class="node">
   <title>szot_beolvas</title>
   <polygon points="109 -131 0 -131 0 -75 109 -75" fill="#8dd3c7" stroke="#000"/>
   <text x="54.5" y="-99.3" fill="#000000" font-family="Sans" font-size="14" text-anchor="middle">szot_beolvas</text>
  </g>
<!-- szot_beolvas&#45;&gt;elvalaszto -->
  <g id="edge4" class="edge">
   <title>szot_beolvas-&gt;elvalaszto</title>
   <path d="m54.5-74.731v26.02" fill="none" stroke="#000"/>
   <polygon points="58 -48.539 54.5 -38.539 51 -48.539" stroke="#000"/>
  </g>
<!-- dolgozatok_beolvas -->
  <g id="node10" class="node">
   <title>dolgozatok_beolvas</title>
   <polygon points="362.5 -233 204.5 -233 204.5 -167 362.5 -167" fill="#8dd3c7" stroke="#000"/>
   <text x="283.5" y="-196.3" fill="#000000" font-family="Sans" font-size="14" text-anchor="middle">dolgozatok_beolvas</text>
  </g>
<!-- dolgozatok_beolvas&#45;&gt;fopen -->
  <g id="edge5" class="edge">
   <title>dolgozatok_beolvas-&gt;fopen</title>
   <path d="m336.75-166.89c23.681 14.725 50.758 31.561 71.17 44.253" fill="none" stroke="#000"/>
   <polygon points="409.87 -125.55 416.51 -117.29 406.17 -119.6" stroke="#000"/>
  </g>
<!-- dolgozatok_beolvas&#45;&gt;fclose -->
  <g id="edge8" class="edge">
   <title>dolgozatok_beolvas-&gt;fclose</title>
   <path d="m304.66-166.89c7.8612 12.299 16.664 26.071 24.078 37.67" fill="none" stroke="#000"/>
   <polygon points="331.91 -130.76 334.35 -120.45 326.01 -126.99" stroke="#000"/>
  </g>
<!-- dolgozatok_beolvas&#45;&gt;szot_beolvas -->
  <g id="edge7" class="edge">
   <title>dolgozatok_beolvas-&gt;szot_beolvas</title>
   <path d="m204.5-167.27c-27.284 11.385-58.021 24.302-85.997 36.27-0.0941 0.0402-0.1882 0.0805-0.2825 0.1209" fill="none" stroke="#000"/>
   <polygon points="119.86 -127.77 109.29 -127.04 117.09 -134.2" stroke="#000"/>
  </g>
<!-- halmaz_betesz -->
  <g id="node20" class="node">
   <title>halmaz_betesz</title>
   <polygon points="251.5 -128 127.5 -128 127.5 -78 251.5 -78" fill="#fb8072" stroke="#000"/>
   <text x="189.5" y="-99.3" fill="#000000" font-family="Sans" font-size="14" text-anchor="middle">halmaz_betesz</text>
  </g>
<!-- dolgozatok_beolvas&#45;&gt;halmaz_betesz -->
  <g id="edge6" class="edge">
   <title>dolgozatok_beolvas-&gt;halmaz_betesz</title>
   <path d="m251.41-166.89c-9.7479 10.059-20.451 21.103-30.176 31.139" fill="none" stroke="#000"/>
   <polygon points="223.5 -133.05 214.02 -128.31 218.47 -137.92" stroke="#000"/>
  </g>
<!-- halmaz_meret -->
  <g id="node22" class="node">
   <title>halmaz_meret</title>
   <polygon points="711.5 -31.5 591.5 -31.5 591.5 -7.5 711.5 -7.5" fill="#fb8072" stroke="#000"/>
   <text x="651.5" y="-15.8" fill="#000000" font-family="Sans" font-size="14" text-anchor="middle">halmaz_meret</text>
  </g>
<!-- dolgozatok_beolvas&#45;&gt;halmaz_meret -->
  <g id="edge9" class="edge">
   <title>dolgozatok_beolvas-&gt;halmaz_meret</title>
   <path d="m277.35-166.82c-3.1713 28.342-2.3446 68.174 21.146 91.821 44.833 45.133 221.66 23.314 284 36 6.6386 1.3509 13.573 3.0088 20.377 4.7819" fill="none" stroke="#000"/>
   <polygon points="603.96 -37.55 612.7 -31.56 602.14 -30.793" stroke="#000"/>
  </g>
<!-- hasonlit -->
  <g id="node11" class="node">
   <title>hasonlit</title>
   <polygon points="887 -126 814 -126 814 -80 887 -80" fill="#ffffb3" stroke="#000"/>
   <text x="850.5" y="-99.3" fill="#000000" font-family="Sans" font-size="14" text-anchor="middle">hasonlit</text>
  </g>
<!-- min -->
  <g id="node13" class="node">
   <title>min</title>
   <polygon points="783.5 -31 729.5 -31 729.5 -8 783.5 -8" fill="#ffffb3" stroke="#000"/>
   <text x="756.5" y="-15.8" fill="#000000" font-family="Sans" font-size="14" text-anchor="middle">min</text>
  </g>
<!-- hasonlit&#45;&gt;min -->
  <g id="edge12" class="edge">
   <title>hasonlit-&gt;min</title>
   <path d="m824.57-79.962c-14.9 13.236-33.362 29.635-47.297 42.014" fill="none" stroke="#000"/>
   <polygon points="779.45 -35.204 769.65 -31.179 774.8 -40.437" stroke="#000"/>
  </g>
<!-- halmaz_metszet_meret -->
  <g id="node21" class="node">
   <title>halmaz_metszet_meret</title>
   <polygon points="987 -39 802 -39 802 0 987 0" fill="#fb8072" stroke="#000"/>
   <text x="894.5" y="-15.8" fill="#000000" font-family="Sans" font-size="14" text-anchor="middle">halmaz_metszet_meret</text>
  </g>
<!-- hasonlit&#45;&gt;halmaz_metszet_meret -->
  <g id="edge10" class="edge">
   <title>hasonlit-&gt;halmaz_metszet_meret</title>
   <path d="m862.76-79.741c5.1396 9.7537 11.168 21.195 16.583 31.471" fill="none" stroke="#000"/>
   <polygon points="882.53 -49.721 884.1 -39.242 876.34 -46.457" stroke="#000"/>
  </g>
<!-- hasonlit&#45;&gt;halmaz_meret -->
  <g id="edge11" class="edge">
   <title>hasonlit-&gt;halmaz_meret</title>
   <path d="m813.95-79.871c-3.1553 1.7259-6.3334 3.3747-9.4522 4.8712-33.562 16.104-73.1 30.331-103.57 40.349" fill="none" stroke="#000"/>
   <polygon points="701.96 -31.308 691.37 -31.55 699.8 -37.966" stroke="#000"/>
  </g>
<!-- hasonlit_osszes -->
  <g id="node12" class="node">
   <title>hasonlit_osszes</title>
   <polygon points="796.5 -228.5 668.5 -228.5 668.5 -171.5 796.5 -171.5" fill="#ffffb3" stroke="#000"/>
   <text x="732.5" y="-196.3" fill="#000000" font-family="Sans" font-size="14" text-anchor="middle">hasonlit_osszes</text>
  </g>
<!-- hasonlit_osszes&#45;&gt;malloc -->
  <g id="edge14" class="edge">
   <title>hasonlit_osszes-&gt;malloc</title>
   <path d="m688.4-171.47c-16.046 11.51-33.711 25.586-47.904 40.467-20.76 21.765-17.459 34.028-38 56-11.832 12.656-26.714 24.749-39.793 34.396" fill="none" stroke="#000"/>
   <polygon points="564.58 -37.641 554.42 -34.635 560.49 -43.321" stroke="#000"/>
  </g>
<!-- hasonlit_osszes&#45;&gt;dolgozatok_meret -->
  <g id="edge13" class="edge">
   <title>hasonlit_osszes-&gt;dolgozatok_meret</title>
   <path d="m729.55-171.42c-1.5275 14.816-3.3644 32.635-4.7808 46.373" fill="none" stroke="#000"/>
   <polygon points="728.25 -124.63 723.74 -115.04 721.29 -125.35" stroke="#000"/>
  </g>
<!-- hasonlit_osszes&#45;&gt;hasonlit -->
  <g id="edge15" class="edge">
   <title>hasonlit_osszes-&gt;hasonlit</title>
   <path d="m767.27-171.42c14.799 12.165 32.06 26.354 47.014 38.647" fill="none" stroke="#000"/>
   <polygon points="816.82 -135.22 822.32 -126.16 812.37 -129.81" stroke="#000"/>
  </g>
<!-- osszkep_szerint -->
  <g id="node14" class="node">
   <title>osszkep_szerint</title>
   <polygon points="1291 -124 1162 -124 1162 -82 1291 -82" fill="#ffffb3" stroke="#000"/>
   <text x="1226.5" y="-99.3" fill="#000000" font-family="Sans" font-size="14" text-anchor="middle">osszkep_szerint</text>
  </g>
<!-- hasonlosag_rendez -->
  <g id="node15" class="node">
   <title>hasonlosag_rendez</title>
   <polygon points="1304 -212 1149 -212 1149 -188 1304 -188" fill="#ffffb3" stroke="#000"/>
   <text x="1226.5" y="-196.3" fill="#000000" font-family="Sans" font-size="14" text-anchor="middle">hasonlosag_rendez</text>
  </g>
<!-- hasonlosag_rendez&#45;&gt;osszkep_szerint -->
  <g id="edge16" class="edge">
   <title>hasonlosag_rendez-&gt;osszkep_szerint</title>
   <path d="m1226.5-187.71v53.5" fill="none" stroke="#000" stroke-dasharray="5,2"/>
   <polygon points="1230 -134.03 1226.5 -124.03 1223 -134.03" stroke="#000"/>
  </g>
<!-- hasonlosag_kepernyore -->
  <g id="node16" class="node">
   <title>hasonlosag_kepernyore</title>
   <polygon points="1510.5 -218 1322.5 -218 1322.5 -182 1510.5 -182" fill="#ffffb3" stroke="#000"/>
   <text x="1416.5" y="-196.3" fill="#000000" font-family="Sans" font-size="14" text-anchor="middle">hasonlosag_kepernyore</text>
  </g>
<!-- hasonlosag_fajlba -->
  <g id="node17" class="node">
   <title>hasonlosag_fajlba</title>
   <polygon points="1674.5 -219 1528.5 -219 1528.5 -181 1674.5 -181" fill="#ffffb3" stroke="#000"/>
   <text x="1601.5" y="-196.3" fill="#000000" font-family="Sans" font-size="14" text-anchor="middle">hasonlosag_fajlba</text>
  </g>
<!-- vezerlofajl_beolvas -->
  <g id="node18" class="node">
   <title>vezerlofajl_beolvas</title>
   <polygon points="621.5 -231 467.5 -231 467.5 -169 621.5 -169" fill="#bebada" stroke="#000"/>
   <text x="544.5" y="-196.3" fill="#000000" font-family="Sans" font-size="14" text-anchor="middle">vezerlofajl_beolvas</text>
  </g>
<!-- vezerlofajl_beolvas&#45;&gt;fopen -->
  <g id="edge17" class="edge">
   <title>vezerlofajl_beolvas-&gt;fopen</title>
   <path d="m510.7-168.77c-14.934 13.796-32.191 29.738-45.975 42.472" fill="none" stroke="#000"/>
   <polygon points="466.77 -123.43 457.05 -119.22 462.02 -128.57" stroke="#000"/>
  </g>
<!-- vezerlofajl_beolvas&#45;&gt;fclose -->
  <g id="edge19" class="edge">
   <title>vezerlofajl_beolvas-&gt;fclose</title>
   <path d="m471.8-168.97c-25.385 11.351-53.877 24.682-79.303 37.974-4.9451 2.5852-10.096 5.4585-15.097 8.3515" fill="none" stroke="#000"/>
   <polygon points="379.03 -119.54 368.64 -117.48 375.47 -125.57" stroke="#000"/>
  </g>
<!-- vezerlofajl_beolvas&#45;&gt;uj_dolgozat -->
  <g id="edge18" class="edge">
   <title>vezerlofajl_beolvas-&gt;uj_dolgozat</title>
   <path d="m544.5-168.77v37.47" fill="none" stroke="#000"/>
   <polygon points="548 -131.16 544.5 -121.16 541 -131.16" stroke="#000"/>
  </g>
<!-- main -->
  <g id="node19" class="node">
   <title>main</title>
   <polygon points="855.5 -347 801.5 -347 801.5 -269 855.5 -269" fill="#bebada" stroke="#000"/>
   <text x="828.5" y="-304.3" fill="#000000" font-family="Sans" font-size="14" text-anchor="middle">main</text>
  </g>
<!-- main&#45;&gt;fopen -->
  <g id="edge25" class="edge">
   <title>main-&gt;fopen</title>
   <path d="m801.26-306.43c-77.302 5.0429-295.51 23.509-342.76 73.429-25.556 26.998-26.272 72.312-23.419 101.68" fill="none" stroke="#000"/>
   <polygon points="438.57 -131.63 436.25 -121.29 431.62 -130.81" stroke="#000"/>
  </g>
<!-- main&#45;&gt;fclose -->
  <g id="edge27" class="edge">
   <title>main-&gt;fclose</title>
   <path d="m801.29-305.68c-79.578 7.2106-310.13 31.268-371.79 72.68-37.076 24.903-61.417 72.269-73.931 102.43" fill="none" stroke="#000"/>
   <polygon points="358.73 -129.05 351.78 -121.06 352.23 -131.64" stroke="#000"/>
  </g>
<!-- main&#45;&gt;free -->
  <g id="edge28" class="edge">
   <title>main-&gt;free</title>
   <path d="m855.94-301.93c62.008 15.497 210.8 63.14 252.56 170.93 8.9918 23.208 11.131 33.739 0 56-8.6451 17.29-25.522 30.591-40.977 39.832" fill="none" stroke="#000"/>
   <polygon points="1069.1 -32.036 1058.7 -30.197 1065.7 -38.142" stroke="#000"/>
  </g>
<!-- main&#45;&gt;dolgozatok_felszabadit -->
  <g id="edge29" class="edge">
   <title>main-&gt;dolgozatok_felszabadit</title>
   <path d="m855.55-274.42c13.677 16.978 29.898 37.114 42.016 52.157" fill="none" stroke="#000"/>
   <polygon points="900.63 -224.04 904.18 -214.06 895.18 -219.65" stroke="#000"/>
  </g>
<!-- main&#45;&gt;dolgozatok_beolvas -->
  <g id="edge21" class="edge">
   <title>main-&gt;dolgozatok_beolvas</title>
   <path d="m801.37-304.89c-69.932 8.342-261.78 33.215-417.87 71.885-3.6295 0.8992-7.3174 1.8654-11.031 2.8821" fill="none" stroke="#000"/>
   <polygon points="373.18 -226.68 362.6 -227.32 371.27 -233.42" stroke="#000"/>
  </g>
<!-- main&#45;&gt;hasonlit_osszes -->
  <g id="edge22" class="edge">
   <title>main-&gt;hasonlit_osszes</title>
   <path d="m801.25-277.34c-11.399 12.824-24.732 27.823-36.606 41.181" fill="none" stroke="#000"/>
   <polygon points="767.1 -233.66 757.84 -228.51 761.87 -238.31" stroke="#000"/>
  </g>
<!-- main&#45;&gt;hasonlosag_rendez -->
  <g id="edge23" class="edge">
   <title>main-&gt;hasonlosag_rendez</title>
   <path d="m855.77-302.32c53.782 11.43 177.12 38.73 278.73 69.315 16.954 5.1034 35.372 11.529 51.243 17.351" fill="none" stroke="#000"/>
   <polygon points="1187.1 -218.88 1195.3 -212.12 1184.7 -212.32" stroke="#000"/>
  </g>
<!-- main&#45;&gt;hasonlosag_kepernyore -->
  <g id="edge24" class="edge">
   <title>main-&gt;hasonlosag_kepernyore</title>
   <path d="m855.6-305.32c74.064 7.6571 285.83 31.712 457.9 72.316 13.824 3.2621 28.47 7.4775 42.247 11.798" fill="none" stroke="#000"/>
   <polygon points="1357.1 -224.43 1365.6 -218.05 1355 -217.76" stroke="#000"/>
  </g>
<!-- main&#45;&gt;hasonlosag_fajlba -->
  <g id="edge26" class="edge">
   <title>main-&gt;hasonlosag_fajlba</title>
   <path d="m855.7-306.05c111.55 8.1526 534.16 40.587 663.8 73.05 10.378 2.5988 21.186 6.2297 31.419 10.138" fill="none" stroke="#000"/>
   <polygon points="1552.5 -225.99 1560.5 -219.06 1549.9 -219.49" stroke="#000"/>
  </g>
<!-- main&#45;&gt;vezerlofajl_beolvas -->
  <g id="edge20" class="edge">
   <title>main-&gt;vezerlofajl_beolvas</title>
   <path d="m801.27-297.64c-38.796 14.754-111.73 42.489-169.98 64.641" fill="none" stroke="#000"/>
   <polygon points="632.29 -229.64 621.7 -229.36 629.81 -236.18" stroke="#000"/>
  </g>
<!-- halmaz_betesz&#45;&gt;malloc -->
  <g id="edge30" class="edge">
   <title>halmaz_betesz-&gt;malloc</title>
   <path d="m251.88-79.188c4.5831 1.4941 9.1564 2.909 13.617 4.1884 74.551 21.385 163.05 38.192 216.84 47.482" fill="none" stroke="#000"/>
   <polygon points="483.03 -30.951 492.3 -25.816 481.85 -24.051" stroke="#000"/>
  </g>
<!-- halmaz_felszabadit&#45;&gt;free -->
  <g id="edge31" class="edge">
   <title>halmaz_felszabadit-&gt;free</title>
   <path d="m1023.4-90.679c1.7618 11.316 4.4375 28.502 6.7182 43.152" fill="none" stroke="#000"/>
   <polygon points="1033.6 -47.848 1031.7 -37.429 1026.7 -46.771" stroke="#000"/>
  </g>
 </g>
</svg>
