<?xml version="1.0" encoding="UTF-8" standalone="no"?>
<!-- Created with Inkscape (http://www.inkscape.org/) -->
<svg id="svg2" xmlns:rdf="http://www.w3.org/1999/02/22-rdf-syntax-ns#" xmlns="http://www.w3.org/2000/svg" height="205.68" width="246.01" version="1.1" xmlns:cc="http://creativecommons.org/ns#" xmlns:dc="http://purl.org/dc/elements/1.1/" viewBox="299 99 122 101.58538">
 <metadata id="metadata44">
  <rdf:RDF>
   <cc:Work rdf:about="">
    <dc:format>image/svg+xml</dc:format>
    <dc:type rdf:resource="http://purl.org/dc/dcmitype/StillImage"/>
   </cc:Work>
  </rdf:RDF>
 </metadata>
 <path id="line4" d="m320 99.793v100" stroke="#ddd" stroke-width="2" fill="none"/>
 <path id="line6" d="m340 99.793v100" stroke="#ddd" stroke-width="2" fill="none"/>
 <path id="line8" d="m360 99.793v100" stroke="#ddd" stroke-width="2" fill="none"/>
 <path id="line10" d="m380 99.793v100" stroke="#ddd" stroke-width="2" fill="none"/>
 <path id="line12" d="m400 99.793v100" stroke="#ddd" stroke-width="2" fill="none"/>
 <path id="line14" d="m420 119.79h-120" stroke="#ddd" stroke-width="2" fill="none"/>
 <path id="line16" d="m420 139.79h-120" stroke="#ddd" stroke-width="2" fill="none"/>
 <path id="line18" d="m420 159.79h-120" stroke="#ddd" stroke-width="2" fill="none"/>
 <path id="line20" d="m420 179.79h-120" stroke="#ddd" stroke-width="2" fill="none"/>
 <path id="line22" d="m320 119.79v60" stroke="#000" stroke-width="2" fill="none"/>
 <path id="line24" d="m320 179.79h80" stroke="#000" stroke-width="2" fill="none"/>
 <path id="line26" d="m320 119.79 80 60" stroke="#000" stroke-width="2" fill="none"/>
 <g id="text28">
  <path id="path3013" style="" d="m361.21 185.63-5.0602 7.9077h5.0602v-7.9077m-0.52586-1.7462h2.5202v9.654h2.1134v1.6669h-2.1134v3.4925h-1.9943v-3.4925h-6.6873v-1.9348l6.1615-9.3861"/>
 </g>
 <g id="text32">
  <path id="path3016" style="" d="m315.31 148.86c0.95911 0.20506 1.7066 0.6317 2.2424 1.2799 0.54238 0.64823 0.81358 1.4486 0.81359 2.4011-0.00001 1.4618-0.50272 2.5929-1.5081 3.3933-1.0054 0.80037-2.4342 1.2006-4.2862 1.2006-0.62178 0-1.2634-0.0628-1.9248-0.18851-0.65484-0.11907-1.3328-0.30097-2.034-0.54571v-1.9348c0.55562 0.32411 1.1642 0.56885 1.8256 0.73422 0.66146 0.16536 1.3527 0.24804 2.0737 0.24804 1.2568 0 2.2126-0.24804 2.8674-0.74414 0.66145-0.49609 0.99217-1.2171 0.99218-2.163-0.00001-0.87312-0.30758-1.5544-0.92273-2.0439-0.60855-0.49609-1.4585-0.74414-2.5499-0.74414h-1.7264v-1.647h1.8058c0.98557 0 1.7396-0.19513 2.2622-0.5854 0.52254-0.39686 0.78382-0.96571 0.78383-1.7066-0.00001-0.76066-0.27121-1.3428-0.8136-1.7462-0.53578-0.41009-1.3064-0.61514-2.3118-0.61515-0.54902 0.00001-1.1377 0.0595-1.7661 0.17859-0.62838 0.11908-1.3196 0.30428-2.0737 0.55562v-1.7859c0.76068-0.21165 1.4717-0.3704 2.1332-0.47625 0.66806-0.10582 1.2964-0.15874 1.8852-0.15875 1.5214 0.00001 2.7252 0.34728 3.6116 1.0418 0.88635 0.68793 1.3295 1.6206 1.3295 2.798-0.00002 0.82022-0.23483 1.5148-0.70446 2.0836-0.46964 0.56224-1.1377 0.9525-2.0042 1.1708"/>
 </g>
 <g id="text36">
  <path id="path3019" style="" d="m362.19 134.98h7.868v1.6867h-6.0325v3.6314c0.29104-0.0992 0.58208-0.17197 0.87313-0.21828 0.29103-0.0529 0.58207-0.0794 0.87312-0.0794 1.6536 0.00001 2.9633 0.45311 3.9291 1.3593 0.96572 0.90621 1.4486 2.1332 1.4486 3.681-0.00001 1.5941-0.49611 2.8344-1.4883 3.7207-0.9922 0.87974-2.3912 1.3196-4.197 1.3196-0.62177 0-1.2568-0.0529-1.905-0.15875-0.64161-0.10583-1.3064-0.26458-1.9943-0.47625v-2.0141c0.59531 0.32411 1.2105 0.56555 1.8455 0.72429 0.635 0.15876 1.3064 0.23813 2.0142 0.23813 1.1443 0 2.0505-0.30096 2.7186-0.90289 0.66806-0.60193 1.0021-1.4188 1.0021-2.4507-0.00001-1.0319-0.33405-1.8488-1.0021-2.4507-0.66808-0.60192-1.5743-0.90288-2.7186-0.90289-0.53579 0.00001-1.0716 0.0595-1.6074 0.1786-0.52917 0.11907-1.0716 0.30427-1.6272 0.55562v-7.4414"/>
 </g>
</svg>
