<?xml version="1.0" encoding="UTF-8" standalone="no"?>
<!-- Created with Inkscape (http://www.inkscape.org/) -->
<svg id="svg2" xmlns:rdf="http://www.w3.org/1999/02/22-rdf-syntax-ns#" xmlns="http://www.w3.org/2000/svg" height="314.3" width="466.77" version="1.1" xmlns:cc="http://creativecommons.org/ns#" xmlns:dc="http://purl.org/dc/elements/1.1/" viewBox="297 57 249.34957 176.41782">
 <metadata id="metadata76">
  <rdf:RDF>
   <cc:Work rdf:about="">
    <dc:format>image/svg+xml</dc:format>
    <dc:type rdf:resource="http://purl.org/dc/dcmitype/StillImage"/>
   </cc:Work>
  </rdf:RDF>
 </metadata>
 <g id="g4" transform="translate(-8.3252 -2)">
  <path id="rect6" fill="#fff" d="m300 100h100v100h-100z"/>
  <path id="rect8" d="m300 100h100v100h-100z" stroke="#000" stroke-width="2" fill="none"/>
 </g>
 <g id="g10" transform="translate(-8.3252 -2)">
  <path id="polygon12" fill="#fff" d="m400 100h-100l40-40h100z"/>
  <path id="polygon14" d="m400 100h-100l40-40h100z" stroke="#000" stroke-width="2" fill="none"/>
 </g>
 <g id="g16" transform="translate(-8.3252 -2)">
  <path id="polygon18" fill="#fff" d="m440 160-40 40v-100l40-40z"/>
  <path id="polygon20" d="m440 160-40 40v-100l40-40z" stroke="#000" stroke-width="2" fill="none"/>
 </g>
 <g id="g22" transform="translate(-8.3252 -2)">
  <path id="rect24" fill="#fff" d="m480 140h60v60h-60z"/>
  <path id="rect26" d="m480 140h60v60h-60z" stroke="#000" stroke-width="2" fill="none"/>
 </g>
 <g id="g28" transform="translate(-8.3252 -2)">
  <path id="polygon30" fill="#fff" d="m540 140h-60l20-20h60z"/>
  <path id="polygon32" d="m540 140h-60l20-20h60z" stroke="#000" stroke-width="2" fill="none"/>
 </g>
 <g id="g34" transform="translate(-8.3252 -2)">
  <path id="polygon36" fill="#fff" d="m560 180-20 20v-60l20-20z"/>
  <path id="polygon38" d="m560 180-20 20v-60l20-20z" stroke="#000" stroke-width="2" fill="none"/>
 </g>
 <g id="g40" transform="translate(-8.3252 -2)">
  <path id="line42" d="m309.74 220h80.528" stroke="#000" stroke-width="2" fill="none"/>
  <path id="polygon44" d="m309.74 220 2.5 5-10-5 10-5z"/>
  <path id="polygon46" d="m309.74 220 2.5 5-10-5 10-5z" stroke="#000" stroke-width="2" fill="none"/>
  <path id="polygon48" d="m390.26 220-2.5-5 10 5-10 5z"/>
  <path id="polygon50" d="m390.26 220-2.5-5 10 5-10 5z" stroke="#000" stroke-width="2" fill="none"/>
 </g>
 <g id="g52" transform="translate(-8.3252 -2)">
  <path id="line54" d="m489.74 220h40.528" stroke="#000" stroke-width="2" fill="none"/>
  <path id="polygon56" d="m489.74 220 2.5 5-10-5 10-5z"/>
  <path id="polygon58" d="m489.74 220 2.5 5-10-5 10-5z" stroke="#000" stroke-width="2" fill="none"/>
  <path id="polygon60" d="m530.26 220-2.5-5 10 5-10 5z"/>
  <path id="polygon62" d="m530.26 220-2.5-5 10 5-10 5z" stroke="#000" stroke-width="2" fill="none"/>
 </g>
 <g id="text64">
  <path id="path3039" style="" d="m345.1 223.19-2.6789 3.605 2.8178 3.8034h-1.4354l-2.1564-2.9104-2.1564 2.9104h-1.4354l2.8774-3.8762-2.6326-3.5322h1.4354l1.9645 2.6392 1.9645-2.6392h1.4354"/>
 </g>
 <g id="text68">
  <path id="path3042" style="" d="m502.03 231.29c-0.34397 0.88195-0.6791 1.4574-1.0054 1.7264-0.32632 0.269-0.76289 0.40349-1.3097 0.4035h-0.97235v-1.0186h0.71438c0.33514 0 0.59531-0.0794 0.78052-0.23813 0.18521-0.15875 0.39026-0.53358 0.61516-1.1245l0.21828-0.55563-2.9964-7.2893h1.2898l2.3151 5.7944 2.3151-5.7944h1.2898l-3.2544 8.0963"/>
 </g>
</svg>
