<?xml version="1.0" encoding="UTF-8" standalone="no"?>
<svg id="svg2" xmlns:rdf="http://www.w3.org/1999/02/22-rdf-syntax-ns#" xmlns="http://www.w3.org/2000/svg" viewBox="249 69 471.00006 61.799503" height="3.7683cm" width="23.848cm" version="1.1" xmlns:cc="http://creativecommons.org/ns#" xmlns:dc="http://purl.org/dc/elements/1.1/">
 <metadata id="metadata66">
  <rdf:RDF>
   <cc:Work rdf:about="">
    <dc:format>image/svg+xml</dc:format>
    <dc:type rdf:resource="http://purl.org/dc/dcmitype/StillImage"/>
   </cc:Work>
  </rdf:RDF>
 </metadata>
 <path id="line4" d="m250 80.106v20" stroke="#000" stroke-width="2" fill="none"/>
 <g id="g6" transform="translate(0 -9.8944)">
  <path id="line8" d="m250 100h460.26" stroke="#000" stroke-width="2" fill="none"/>
  <path id="polygon10" d="m707.76 105 2.5-5-2.5-5 10 5z"/>
  <path id="polygon12" d="m707.76 105 2.5-5-2.5-5 10 5z" stroke="#000" stroke-width="2" fill="none"/>
 </g>
 <path id="line14" d="m400 80.106v20" stroke="#000" stroke-width="2" fill="none"/>
 <path id="line16" d="m480 80.106v20" stroke="#000" stroke-width="2" fill="none"/>
 <path id="line18" d="m570 80.106v20" stroke="#000" stroke-width="2" fill="none"/>
 <path id="line20" d="m650 80.106v20" stroke="#000" stroke-width="2" fill="none"/>
 <g id="text22">
  <path id="path45" style="" d="m392.09 62.688v4.8948h-1.4993v-4.8948h1.4993z"/>
  <path id="path47" style="" d="m400 64.443-2.4165 6.5528h4.8419l-2.42-6.553zm-1.0054-1.7551h2.0196l5.0183 13.167h-1.8521l-1.1994-3.3778h-5.9355l-1.1994 3.3778h-1.8785l5.0271-13.167z"/>
  <path id="path49" style="" d="m409.41 62.688v4.8948h-1.4993v-4.8948h1.4993z"/>
 </g>
 <g id="text26">
  <path id="path52" style="" d="m472.07 62.688v4.8948h-1.4993v-4.8948h1.4993z"/>
  <path id="path54" style="" d="m474.82 62.688h10.345v1.3582l-8.3256 10.31h8.5284v1.4993h-10.751v-1.3582l8.3255-10.31h-8.1227v-1.4993z"/>
  <path id="path56" style="" d="m489.43 62.688v4.8948h-1.4993v-4.8948h1.4993z"/>
 </g>
 <g id="text30">
  <path id="path59" style="" d="m562.72 62.688v4.8948h-1.4993v-4.8948h1.4993z"/>
  <path id="path61" style="" d="m570.65 70.89q-1.9667 0-2.7252 0.44979-0.75847 0.44979-0.75847 1.5346 0 0.8643 0.56445 1.3758 0.57326 0.50271 1.5522 0.50271 1.3494 0 2.1608-0.9525 0.8202-0.96132 0.8202-2.5488v-0.3616h-1.614zm3.2367-0.67028v5.6356h-1.6228v-1.4993q-0.55562 0.89958-1.3846 1.3317-0.82902 0.42333-2.0285 0.42333-1.5169 0-2.4165-0.84667-0.89076-0.85548-0.89076-2.2842 0-1.6669 1.1112-2.5135 1.1201-0.84666 3.3338-0.84666h2.2754v-0.15875q0-1.1201-0.74083-1.7286-0.73201-0.61736-2.0638-0.61736-0.84666 0-1.6492 0.20285-0.80257 0.20285-1.5434 0.60854v-1.4993q0.89076-0.34396 1.7286-0.51153 0.83784-0.17639 1.6316-0.17639 2.1431 0 3.2015 1.1112 1.0583 1.1112 1.0583 3.369z"/>
  <path id="path63" style="" d="m578.78 62.688v4.8948h-1.4993v-4.8948h1.4993z"/>
 </g>
 <g id="text34">
  <path id="path66" style="" d="m643.52 62.688v4.8948h-1.4993v-4.8948h1.4993z"/>
  <path id="path68" style="" d="m646.25 65.978h7.7082v1.4817l-6.103 7.0996h6.103v1.2965h-7.9287v-1.4817l6.103-7.0996h-5.8826v-1.2965z"/>
  <path id="path70" style="" d="m657.98 62.688v4.8948h-1.4993v-4.8948h1.4993z"/>
 </g>
 <path id="path38" d="m572 110.11c0 10 38 0 38 10" stroke="#000" stroke-width="2" fill="none"/>
 <path id="path40" d="m650 110.11c0 10-40 0-40 10" stroke="#000" stroke-width="2" fill="none"/>
 <g id="text42">
  <path id="path73" style="" d="m589.74 123.69v4.8948h-1.4993v-4.8948h1.4993z"/>
  <path id="path75" style="" d="m592.48 126.98h7.7082v1.4817l-6.103 7.0996h6.103v1.2965h-7.9287v-1.4817l6.103-7.0996h-5.8826v-1.2965z"/>
  <path id="path77" style="" d="m604.21 123.69v4.8948h-1.4993v-4.8948h1.4993z"/>
  <path id="path79" style="" d="m606.82 131.18h4.7537v1.4464h-4.7537v-1.4464z"/>
  <path id="path81" style="" d="m615.71 123.69v4.8948h-1.4993v-4.8948h1.4993z"/>
  <path id="path83" style="" d="m623.63 131.89q-1.9667 0-2.7252 0.4498-0.75847 0.44979-0.75847 1.5346 0 0.8643 0.56444 1.3758 0.57327 0.50271 1.5522 0.50271 1.3494 0 2.1608-0.9525 0.82021-0.96132 0.82021-2.5488v-0.3616h-1.614zm3.2367-0.67027v5.6356h-1.6228v-1.4993q-0.55562 0.89958-1.3846 1.3317-0.82903 0.42333-2.0285 0.42333-1.5169 0-2.4165-0.84667-0.89077-0.85548-0.89077-2.2842 0-1.6669 1.1112-2.5135 1.1201-0.84666 3.3338-0.84666h2.2754v-0.15875q0-1.1201-0.74083-1.7286-0.73201-0.61736-2.0638-0.61736-0.84666 0-1.6492 0.20284-0.80257 0.20285-1.5434 0.60854v-1.4993q0.89076-0.34396 1.7286-0.51153 0.83784-0.17639 1.6316-0.17639 2.1431 0 3.2014 1.1112t1.0583 3.369z"/>
  <path id="path85" style="" d="m631.76 123.69v4.8948h-1.4993v-4.8948h1.4993z"/>
 </g>
 <path id="path46" d="m400 110.11c0 10 90 0 90 10" stroke="#000" stroke-width="2" fill="none"/>
 <path id="path48" d="m568 110.11c0 10-78 0-78 10" stroke="#000" stroke-width="2" fill="none"/>
 <g id="text50">
  <path id="path88" style="" d="m468.31 123.69v4.8948h-1.4993v-4.8948h1.4993z"/>
  <path id="path90" style="" d="m476.24 131.89q-1.9667 0-2.7252 0.4498-0.75847 0.44979-0.75847 1.5346 0 0.8643 0.56444 1.3758 0.57326 0.50271 1.5522 0.50271 1.3494 0 2.1608-0.9525 0.82021-0.96132 0.82021-2.5488v-0.3616h-1.614zm3.2367-0.67027v5.6356h-1.6228v-1.4993q-0.55562 0.89958-1.3846 1.3317-0.82903 0.42333-2.0285 0.42333-1.5169 0-2.4165-0.84667-0.89076-0.85548-0.89076-2.2842 0-1.6669 1.1112-2.5135 1.1201-0.84666 3.3338-0.84666h2.2754v-0.15875q0-1.1201-0.74083-1.7286-0.73202-0.61736-2.0638-0.61736-0.84667 0-1.6492 0.20284-0.80257 0.20285-1.5434 0.60854v-1.4993q0.89077-0.34396 1.7286-0.51153 0.83785-0.17639 1.6316-0.17639 2.1431 0 3.2014 1.1112t1.0583 3.369z"/>
  <path id="path92" style="" d="m484.36 123.69v4.8948h-1.4993v-4.8948h1.4993z"/>
  <path id="path94" style="" d="m486.98 131.18h4.7537v1.4464h-4.7537v-1.4464z"/>
  <path id="path96" style="" d="m495.86 123.69v4.8948h-1.4993v-4.8948h1.4993z"/>
  <path id="path98" style="" d="m503.78 125.44-2.4165 6.5528h4.8419l-2.4254-6.5528zm-1.0054-1.7551h2.0196l5.0183 13.167h-1.8521l-1.1994-3.3778h-5.9355l-1.1994 3.3778h-1.8785l5.0271-13.167z"/>
  <path id="path100" style="" d="m513.19 123.69v4.8948h-1.4993v-4.8948h1.4993z"/>
 </g>
 <g id="text54">
  <path id="path103" style="" d="m427.11 69.518h1.3188v1.5875h-1.3188v-1.5875z"/>
  <path id="path105" style="" d="m431.18 69.518h1.3188v1.5875h-1.3188v-1.5875z"/>
  <path id="path107" style="" d="m435.26 69.518h1.3188v1.5875h-1.3188v-1.5875z"/>
  <path id="path109" style="" d="m439.33 69.518h1.3188v1.5875h-1.3188v-1.5875z"/>
  <path id="path111" style="" d="m443.41 69.518h1.3188v1.5875h-1.3188v-1.5875z"/>
  <path id="path113" style="" d="m447.48 69.518h1.3188v1.5875h-1.3188v-1.5875z"/>
  <path id="path115" style="" d="m451.56 69.518h1.3188v1.5875h-1.3188v-1.5875z"/>
 </g>
 <g id="text58">
  <path id="path118" style="" d="m599.11 69.518h1.3188v1.5875h-1.3188v-1.5875z"/>
  <path id="path120" style="" d="m603.18 69.518h1.3188v1.5875h-1.3188v-1.5875z"/>
  <path id="path122" style="" d="m607.26 69.518h1.3188v1.5875h-1.3188v-1.5875z"/>
  <path id="path124" style="" d="m611.33 69.518h1.3188v1.5875h-1.3188v-1.5875z"/>
  <path id="path126" style="" d="m615.41 69.518h1.3188v1.5875h-1.3188v-1.5875z"/>
  <path id="path128" style="" d="m619.48 69.518h1.3188v1.5875h-1.3188v-1.5875z"/>
  <path id="path130" style="" d="m623.56 69.518h1.3188v1.5875h-1.3188v-1.5875z"/>
 </g>
</svg>
