<?xml version="1.0" encoding="UTF-8"?>
<svg id="svg121" width="20.948cm" height="15.737cm" version="1.1" viewBox="118 -82 402 298.02" xmlns="http://www.w3.org/2000/svg" xmlns:cc="http://creativecommons.org/ns#" xmlns:dc="http://purl.org/dc/elements/1.1/" xmlns:rdf="http://www.w3.org/1999/02/22-rdf-syntax-ns#">
 <metadata id="metadata125">
  <rdf:RDF>
   <cc:Work rdf:about="">
    <dc:format>image/svg+xml</dc:format>
    <dc:type rdf:resource="http://purl.org/dc/dcmitype/StillImage"/>
   </cc:Work>
  </rdf:RDF>
 </metadata>
 <g id="Háttér" transform="translate(-1 -2.9905)">
  <path id="rect4" d="m120-80h400v300h-400z" fill="none" stroke="#000" stroke-width="2"/>
  <path id="rect6" d="m260 20h100v40h-100z" fill="#fff" stroke="#000" stroke-width="2"/>
  <path id="rect8" d="m400 20h100v40h-100z" fill="#fff" stroke="#000" stroke-width="2"/>
  <path id="polygon10" d="m320 120 20 40h80l20-40h-80z" fill="#fff" fill-rule="evenodd" stroke="#000" stroke-width="2"/>
  <g id="g16" fill="none" stroke="#000" stroke-width="2">
   <path id="polyline12" d="m340 60v55.528"/>
   <path id="polyline14" d="m335 107.76 5 10 5-10"/>
  </g>
  <g id="g22" fill="none" stroke="#000" stroke-width="2">
   <path id="polyline18" d="m420 60v55.528"/>
   <path id="polyline20" d="m415 107.76 5 10 5-10"/>
  </g>
  <g id="text26" aria-label="szorzat">
   <path id="path74" d="m352.41 136.26v1.7264q-0.77391-0.39687-1.6074-0.59531t-1.7264-0.19844q-1.3593 0-2.0439 0.41672-0.67469 0.41672-0.67469 1.2502 0 0.635 0.48617 1.0021 0.48618 0.35718 1.9546 0.68461l0.62508 0.1389q1.9447 0.41672 2.7583 1.1807 0.82352 0.75407 0.82352 2.1134 0 1.5478-1.2303 2.4507-1.2204 0.90289-3.3635 0.90289-0.89297 0-1.8653-0.1786-0.96242-0.16867-2.034-0.51593v-1.8852q1.012 0.52586 1.9943 0.79375 0.98227 0.25797 1.9447 0.25797 1.2898 0 1.9844-0.43656 0.69453-0.44649 0.69453-1.2502 0-0.74414-0.50601-1.141-0.4961-0.39687-2.1927-0.76398l-0.635-0.14883q-1.6966-0.35719-2.4507-1.0914-0.75406-0.74414-0.75406-2.034 0-1.5676 1.1112-2.4209 1.1112-0.85328 3.1552-0.85328 1.012 0 1.905 0.14883 0.89297 0.14883 1.647 0.44649z" style=""/>
   <path id="path76" d="m355.13 135.94h8.6717v1.6669l-6.8659 7.9871h6.8659v1.4585h-8.9198v-1.6669l6.8659-7.9871h-6.6179z" style=""/>
   <path id="path78" d="m370.9 137.22q-1.4684 0-2.3217 1.1509-0.85328 1.141-0.85328 3.1353 0 1.9943 0.84336 3.1452 0.85328 1.141 2.3316 1.141 1.4585 0 2.3118-1.1509 0.85328-1.1509 0.85328-3.1353 0-1.9745-0.85328-3.1254-0.85328-1.1608-2.3118-1.1608zm0-1.5478q2.3812 0 3.7406 1.5478 1.3593 1.5478 1.3593 4.2862 0 2.7285-1.3593 4.2862-1.3593 1.5478-3.7406 1.5478-2.3912 0-3.7505-1.5478-1.3494-1.5577-1.3494-4.2862 0-2.7384 1.3494-4.2862 1.3593-1.5478 3.7505-1.5478z" style=""/>
   <path id="path80" d="m385.46 137.64q-0.30758-0.1786-0.67469-0.25797-0.35718-0.0893-0.79375-0.0893-1.5478 0-2.3812 1.012-0.82351 1.0021-0.82351 2.8873v5.8539h-1.8356v-11.112h1.8356v1.7264q0.57547-1.012 1.4982-1.4982 0.92274-0.4961 2.2423-0.4961 0.18852 0 0.41672 0.0298 0.22821 0.0198 0.50602 0.0695z" style=""/>
   <path id="path82" d="m386.6 135.94h8.6717v1.6669l-6.8659 7.9871h6.8659v1.4585h-8.9198v-1.6669l6.8659-7.9871h-6.6179z" style=""/>
   <path id="path84" d="m403.12 141.46q-2.2126 0-3.0659 0.50601-0.85328 0.50602-0.85328 1.7264 0 0.97234 0.635 1.5478 0.64492 0.56555 1.7462 0.56555 1.518 0 2.4309-1.0716 0.92273-1.0815 0.92273-2.8674v-0.40679zm3.6413-0.75406v6.3401h-1.8256v-1.6867q-0.62508 1.012-1.5577 1.4982-0.93266 0.47625-2.282 0.47625-1.7066 0-2.7186-0.9525-1.0021-0.96242-1.0021-2.5698 0-1.8752 1.2502-2.8277 1.2601-0.9525 3.7505-0.9525h2.5598v-0.1786q0-1.2601-0.83344-1.9447-0.82351-0.69453-2.3217-0.69453-0.9525 0-1.8554 0.2282t-1.7363 0.68461v-1.6867q1.0021-0.38695 1.9447-0.57547 0.94258-0.19844 1.8356-0.19844 2.411 0 3.6016 1.2502 1.1906 1.2502 1.1906 3.7902z" style=""/>
   <path id="path86" d="m412.34 132.78v3.1552h3.7604v1.4188h-3.7604v6.0325q0 1.3593 0.36711 1.7462 0.37703 0.38695 1.518 0.38695h1.8752v1.528h-1.8752q-2.1134 0-2.917-0.78383-0.80367-0.79375-0.80367-2.8773v-6.0325h-1.3394v-1.4188h1.3394v-3.1552z" style=""/>
  </g>
  <g id="g32" fill="none" stroke="#000" stroke-width="2">
   <path id="line28" d="m450-20v35.528"/>
   <path id="polyline30" d="m445 7.7639 5 10 5-10"/>
  </g>
  <g id="g38" fill="none" stroke="#000" stroke-width="2">
   <path id="polyline34" d="m380 200h99.258v-135.53"/>
   <path id="polyline36" d="m484.26 72.236-5-10-5 10"/>
  </g>
  <path id="ellipse40" d="m330-40a20 20 0 0 1-20 20 20 20 0 0 1-20-20 20 20 0 0 1 20-20 20 20 0 0 1 20 20z" fill="#fff" stroke="#000" stroke-width="2"/>
  <g id="g46" fill="none" stroke="#000" stroke-width="2">
   <path id="line42" d="m290-40h-45.528"/>
   <path id="polyline44" d="m252.24-45-10 5 10 5"/>
  </g>
  <g id="text50" aria-label="=1">
   <path id="path96" d="m297.17-42.177h12.72v1.6669h-12.72zm0 4.0481h12.72v1.6867h-12.72z" style=""/>
   <path id="path98" d="m314.56-34.637h3.2742v-11.301l-3.562 0.71438v-1.8256l3.5421-0.71438h2.0042v13.127h3.2742v1.6867h-8.5328z" style=""/>
  </g>
  <g id="text54" aria-label="N">
   <path id="path101" d="m261.99 0.38664h2.6988l6.5683 12.392v-12.392h1.9447v14.813h-2.6988l-6.5683-12.392v12.392h-1.9447z" style=""/>
  </g>
  <g id="text58" aria-label="A">
   <path id="path104" d="m406.95 2.3611-2.7186 7.372h5.4471zm-1.1311-1.9745h2.2721l5.6455 14.813h-2.0836l-1.3494-3.8001h-6.6774l-1.3494 3.8001h-2.1134z" style=""/>
  </g>
  <path id="polygon60" d="m220 160h40l20-40h-80z" fill="#fff" fill-rule="evenodd" stroke="#000" stroke-width="2"/>
  <path id="line62" d="m380 200v-40" fill="none" stroke="#000" stroke-width="2"/>
  <g id="text66" aria-label="-1">
   <path id="path109" d="m230.85 140.67h5.3479v1.6272h-5.3479z" style=""/>
   <path id="path111" d="m239.72 145.36h3.2742v-11.301l-3.562 0.71437v-1.8256l3.5421-0.71438h2.0042v13.127h3.2742v1.6867h-8.5328z" style=""/>
  </g>
  <path id="polygon68" d="m360-60v40l40-20z" fill="#fff" fill-rule="evenodd" stroke="#000" stroke-width="2"/>
  <g id="text72" aria-label=" 1">
   <path id="path115" d="m368.99-34.637h3.2742v-11.301l-3.562 0.71438v-1.8256l3.5421-0.71438h2.0042v13.127h3.2742v1.6867h-8.5328z" style=""/>
  </g>
  <path id="ellipse74" d="m500 140a20 20 0 0 1-20 20 20 20 0 0 1-20-20 20 20 0 0 1 20-20 20 20 0 0 1 20 20z" fill="#fff" stroke="#000" stroke-width="2"/>
  <path id="line76" d="m400-40h30" fill="none" stroke="#000" stroke-width="2"/>
  <path id="ellipse78" d="m470-40a20 20 0 0 1-20 20 20 20 0 0 1-20-20 20 20 0 0 1 20-20 20 20 0 0 1 20 20z" fill="#fff" stroke="#000" stroke-width="2"/>
  <g id="g84" fill="none" stroke="#000" stroke-width="2">
   <path id="polyline80" d="m290 60v30h-50v25.528"/>
   <path id="polyline82" d="m235 107.76 5 10 5-10"/>
  </g>
  <g id="g90" fill="none" stroke="#000" stroke-width="2">
   <path id="polyline86" d="m240 160v40h-100v-160h115.53"/>
   <path id="polyline88" d="m247.76 45 10-5-10-5"/>
  </g>
  <path id="ellipse92" d="m220 40a20 20 0 0 1-20 20 20 20 0 0 1-20-20 20 20 0 0 1 20-20 20 20 0 0 1 20 20z" fill="#fff" stroke="#000" stroke-width="2"/>
  <g id="g98" fill="none" stroke="#000" stroke-width="2">
   <path id="polyline94" d="m310 20v-35.528"/>
   <path id="polyline96" d="m315-7.7639-5-10-5 10"/>
  </g>
  <path id="ellipse100" d="m240-40a20 20 0 0 1-20 20 20 20 0 0 1-20-20 20 20 0 0 1 20-20 20 20 0 0 1 20 20z" fill="#fff" stroke="#000" stroke-width="2"/>
  <g id="g106" stroke="#000" stroke-width="2">
   <path id="ellipse102" d="m134-70a4 4 0 0 1-4 4 4 4 0 0 1-4-4 4 4 0 0 1 4-4 4 4 0 0 1 4 4z" fill="#fff"/>
   <path id="line104" d="m127.17-72.828 5.656 5.6568" fill="none"/>
  </g>
  <path id="ellipse108" d="m134 210a4 4 0 0 1-4 4 4 4 0 0 1-4-4 4 4 0 0 1 4-4 4 4 0 0 1 4 4z" fill="#fff" stroke="#000" stroke-width="2"/>
  <path id="line110" d="m130 206v8" fill="none" stroke="#000" stroke-width="2"/>
  <path id="ellipse112" d="m514 210a4 4 0 0 1-4 4 4 4 0 0 1-4-4 4 4 0 0 1 4-4 4 4 0 0 1 4 4z" fill="#fff" stroke="#000" stroke-width="2"/>
  <path id="line114" d="m507.17 212.83 5.656-5.656" fill="none" stroke="#000" stroke-width="2"/>
  <path id="ellipse116" d="m514-70a4 4 0 0 1-4 4 4 4 0 0 1-4-4 4 4 0 0 1 4-4 4 4 0 0 1 4 4z" fill="#fff" stroke="#000" stroke-width="2"/>
  <path id="line118" d="m506-70h8" fill="none" stroke="#000" stroke-width="2"/>
 </g>
</svg>
