<?xml version="1.0" encoding="UTF-8" standalone="no"?>
<svg
   xmlns:dc="http://purl.org/dc/elements/1.1/"
   xmlns:cc="http://creativecommons.org/ns#"
   xmlns:rdf="http://www.w3.org/1999/02/22-rdf-syntax-ns#"
   xmlns:svg="http://www.w3.org/2000/svg"
   xmlns="http://www.w3.org/2000/svg"
   xmlns:sodipodi="http://sodipodi.sourceforge.net/DTD/sodipodi-0.dtd"
   xmlns:inkscape="http://www.inkscape.org/namespaces/inkscape"
   version="1.1"
   id="svg2"
   viewBox="-31 138 124.98224 289.99974"
   height="14.795905cm"
   width="6.6278462cm"
   inkscape:version="0.91 r13725"
   sodipodi:docname="folyamatciklus.svg">
  <sodipodi:namedview
     pagecolor="#ffffff"
     bordercolor="#666666"
     borderopacity="1"
     objecttolerance="10"
     gridtolerance="10"
     guidetolerance="10"
     inkscape:pageopacity="0"
     inkscape:pageshadow="2"
     inkscape:window-width="650"
     inkscape:window-height="480"
     id="namedview66"
     showgrid="false"
     inkscape:zoom="0.44402963"
     inkscape:cx="115.77941"
     inkscape:cy="262.13193"
     inkscape:window-x="0"
     inkscape:window-y="25"
     inkscape:window-maximized="0"
     inkscape:current-layer="svg2" />
  <metadata
     id="metadata130">
    <rdf:RDF>
      <cc:Work
         rdf:about="">
        <dc:format>image/svg+xml</dc:format>
        <dc:type
           rdf:resource="http://purl.org/dc/dcmitype/StillImage" />
      </cc:Work>
    </rdf:RDF>
  </metadata>
  <defs
     id="defs128" />
  <g
     id="g4"
     transform="translate(-4.5559774,-2)">
    <path
       style="fill:#ffffff"
       d="m 0,160 80,0 0,30 -80,0 z"
       id="rect6" />
    <path
       style="fill:none;fill-opacity:0;stroke:#000000;stroke-width:2"
       d="m 0,160 80,0 0,30 -80,0 z"
       id="rect8" />
    <g
       style="font-style:normal;font-weight:normal;font-size:13.54669952px;font-family:sans-serif;text-anchor:middle;fill:#000000"
       id="text10">
      <path
         d="m 26.221789,169.2574 1.435369,0 2.454016,3.6711 2.467245,-3.6711 1.435369,0 -3.175008,4.74267 3.386675,5.13293 -1.435368,0 -2.778132,-4.20027 -2.797976,4.20027 -1.441982,0 3.525581,-5.27184 -3.075789,-4.60376 z"
         style=""
         id="path71" />
      <path
         d="m 36.090772,172.98142 8.479916,0 0,1.11125 -8.479916,0 0,-1.11125 z m 0,2.69875 8.479916,0 0,1.12449 -8.479916,0 0,-1.12449 z"
         style=""
         id="path73" />
      <path
         d="m 47.686165,178.00851 2.182818,0 0,-7.53402 -2.374642,0.47625 0,-1.21709 2.361412,-0.47625 1.336149,0 0,8.75111 2.182818,0 0,1.12449 -5.688555,0 0,-1.12449 z"
         style=""
         id="path75" />
    </g>
  </g>
  <g
     id="g14"
     transform="translate(-4.5559774,-2)">
    <path
       style="fill:none;fill-opacity:0;stroke:#000000;stroke-width:2"
       d="m 40,140 0,12.51401"
       id="line16" />
    <path
       style="fill:#000000"
       d="m 36.5,150.764 3.5,1.75 3.5,-1.75 -3.5,7 z"
       id="polygon18" />
    <path
       style="fill:none;fill-opacity:0;stroke:#000000;stroke-width:2"
       d="m 36.5,150.764 3.5,1.75 3.5,-1.75 -3.5,7 z"
       id="polygon20" />
  </g>
  <path
     style="fill:none;fill-opacity:0;stroke:#ff0000;stroke-width:2"
     d="m 95.444023,388 0,-180"
     id="line22" />
  <g
     style="font-style:normal;font-weight:normal;font-size:13.54669952px;font-family:sans-serif;text-anchor:start;fill:#ff0000"
     id="text24">
    <path
       d="m 48.720641,274.59165 1.217086,0 0,7.40835 -1.217086,0 0,-7.40835 z m 0,-2.88397 1.217086,0 0,1.54121 -1.217086,0 0,-1.54121 z"
       style=""
       id="path82" />
    <path
       d="m 57.352693,278.20983 q 0,-1.32292 -0.549012,-2.05052 -0.542397,-0.72761 -1.527972,-0.72761 -0.978961,0 -1.527973,0.72761 -0.542397,0.7276 -0.542397,2.05052 0,1.31631 0.542397,2.04392 0.549012,0.7276 1.527973,0.7276 0.985575,0 1.527972,-0.7276 0.549012,-0.72761 0.549012,-2.04392 z m 1.217086,2.87074 q 0,1.89178 -0.840054,2.81121 -0.840054,0.92604 -2.573079,0.92604 -0.641616,0 -1.210472,-0.0992 -0.568855,-0.0926 -1.104638,-0.29104 l 0,-1.18402 q 0.535783,0.29105 1.058336,0.42995 0.522554,0.13891 1.064951,0.13891 1.197242,0 1.792556,-0.62839 0.595314,-0.62177 0.595314,-1.88516 l 0,-0.60193 q -0.377032,0.65485 -0.965731,0.97896 Q 55.798262,282 54.978052,282 q -1.362608,0 -2.196047,-1.03849 -0.83344,-1.03849 -0.83344,-2.75168 0,-1.71979 0.83344,-2.75828 0.833439,-1.0385 2.196047,-1.0385 0.82021,0 1.40891,0.32412 0.588699,0.32412 0.965731,0.97896 l 0,-1.12448 1.217086,0 0,6.48892 z"
       style=""
       id="path84" />
    <path
       d="m 67.413498,277.99155 0,0.59532 -5.595951,0 q 0.07938,1.25677 0.754065,1.91823 0.681303,0.65485 1.891775,0.65485 0.701148,0 1.355993,-0.17198 0.66146,-0.17198 1.309691,-0.51594 l 0,1.15094 q -0.654846,0.27781 -1.342764,0.42333 -0.687918,0.14552 -1.39568,0.14552 -1.772713,0 -2.811205,-1.03187 -1.031878,-1.03188 -1.031878,-2.79137 0,-1.81901 0.978961,-2.88396 0.985575,-1.07157 2.652454,-1.07157 1.4949,0 2.361412,0.96574 0.873127,0.95911 0.873127,2.61276 z m -1.217086,-0.35719 q -0.01323,-0.9988 -0.562241,-1.59411 -0.542397,-0.59532 -1.441982,-0.59532 -1.018649,0 -1.633806,0.57547 -0.608544,0.57547 -0.701148,1.62058 l 4.339177,-0.007 z"
       style=""
       id="path86" />
    <path
       d="m 75.569301,277.52853 0,4.47147 -1.217087,0 0,-4.43178 q 0,-1.05172 -0.410105,-1.57428 -0.410105,-0.52255 -1.230315,-0.52255 -0.985576,0 -1.554431,0.62839 -0.568856,0.62838 -0.568856,1.71318 l 0,4.18704 -1.223701,0 0,-7.40835 1.223701,0 0,1.15094 q 0.436564,-0.66808 1.025263,-0.99881 0.595314,-0.33073 1.369222,-0.33073 1.276618,0 1.931463,0.79376 0.654846,0.78713 0.654846,2.32172 z"
       style=""
       id="path88" />
  </g>
  <g
     style="font-style:normal;font-weight:normal;font-size:13.54669952px;font-family:sans-serif;text-anchor:end;fill:#ff0000"
     id="text28">
    <path
       d="m -27.257283,237.52853 0,4.47147 -1.217086,0 0,-4.43178 q 0,-1.05172 -0.410105,-1.57428 -0.410105,-0.52255 -1.230316,-0.52255 -0.985575,0 -1.554431,0.62839 -0.568855,0.62838 -0.568855,1.71318 l 0,4.18704 -1.223701,0 0,-7.40835 1.223701,0 0,1.15094 q 0.436563,-0.66808 1.025263,-0.99881 0.595314,-0.33073 1.369222,-0.33073 1.276617,0 1.931463,0.79376 0.654845,0.78713 0.654845,2.32172 z"
       style=""
       id="path91" />
    <path
       d="m -18.47971,237.99155 0,0.59532 -5.595951,0 q 0.07937,1.25677 0.754065,1.91823 0.681303,0.65485 1.891775,0.65485 0.701148,0 1.355993,-0.17198 0.66146,-0.17198 1.309691,-0.51594 l 0,1.15094 q -0.654846,0.27781 -1.342764,0.42333 -0.687918,0.14552 -1.395681,0.14552 -1.772712,0 -2.811204,-1.03187 -1.031878,-1.03188 -1.031878,-2.79137 0,-1.81901 0.978961,-2.88396 0.985575,-1.07157 2.652454,-1.07157 1.4949,0 2.361412,0.96574 0.873127,0.95911 0.873127,2.61276 z m -1.217086,-0.35719 q -0.01323,-0.9988 -0.562241,-1.59411 -0.542397,-0.59532 -1.441983,-0.59532 -1.018648,0 -1.633806,0.57547 -0.608543,0.57547 -0.701147,1.62058 l 4.339177,-0.007 z"
       style=""
       id="path93" />
    <path
       d="m -10.71417,236.01379 q 0.456408,-0.82021 1.0914091,-1.21047 0.6350015,-0.39027 1.4948994,-0.39027 1.1575549,0 1.7859418,0.8136 0.628387,0.80698 0.628387,2.30188 l 0,4.47147 -1.2237009,0 0,-4.43178 q 0,-1.06495 -0.3770322,-1.58089 -0.3770321,-0.51594 -1.1509403,-0.51594 -0.9458877,0 -1.4948994,0.62839 -0.5490115,0.62838 -0.5490115,1.71318 l 0,4.18704 -1.223701,0 0,-4.43178 q 0,-1.07157 -0.377032,-1.58089 -0.377032,-0.51594 -1.16417,-0.51594 -0.932658,0 -1.48167,0.635 -0.549012,0.62839 -0.549012,1.70657 l 0,4.18704 -1.223701,0 0,-7.40835 1.223701,0 0,1.15094 q 0.41672,-0.6813 0.998805,-1.00542 0.582084,-0.32412 1.382451,-0.32412 0.806981,0 1.369222,0.41011 0.568856,0.4101 0.840054,1.19063 z"
       style=""
       id="path95" />
  </g>
  <g
     id="g32"
     transform="translate(-4.5559774,-2)">
    <path
       style="fill:#ffffff"
       d="M 82.7583,250.149 40.3,271.378 -2.15834,250.149 40.3,228.92 Z"
       id="polygon34" />
    <path
       style="fill:none;fill-opacity:0;stroke:#ff0000;stroke-width:2"
       d="M 82.7583,250.149 40.3,271.378 -2.15834,250.149 40.3,228.92 Z"
       id="polygon36" />
    <g
       style="font-style:normal;font-weight:normal;font-size:13.54669952px;font-family:sans-serif;text-anchor:middle;fill:#ff0000"
       id="text38">
      <path
         d="m 18.610728,244.40741 1.435368,0 2.454016,3.6711 2.467246,-3.6711 1.435368,0 -3.175008,4.74267 3.386675,5.13292 -1.435368,0 -2.778132,-4.20027 -2.797975,4.20027 -1.441983,0 3.525582,-5.27183 -3.075789,-4.60376 z"
         style=""
         id="path100" />
      <path
         d="m 36.959627,247.56257 -6.350016,1.83225 6.350016,1.8124 0,1.17739 -8.479917,-2.43417 0,-1.12448 8.479917,-2.42756 0,1.16417 z m -8.479917,5.59595 8.479917,0 0,1.12448 -8.479917,0 0,-1.12448 z"
         style=""
         id="path102" />
      <path
         d="m 40.075103,253.15852 2.182818,0 0,-7.53403 -2.374641,0.47626 0,-1.21709 2.361412,-0.47625 1.336149,0 0,8.75111 2.182818,0 0,1.12448 -5.688556,0 0,-1.12448 z"
         style=""
         id="path104" />
      <path
         d="m 51.326538,245.28715 q -1.031878,0 -1.554431,1.01865 -0.515939,1.01203 -0.515939,3.04933 0,2.03068 0.515939,3.04933 0.522553,1.01203 1.554431,1.01203 1.038492,0 1.554431,-1.01203 0.522553,-1.01865 0.522553,-3.04933 0,-2.0373 -0.522553,-3.04933 -0.515939,-1.01865 -1.554431,-1.01865 z m 0,-1.05834 q 1.660264,0 2.533391,1.31631 0.879742,1.30969 0.879742,3.81001 0,2.4937 -0.879742,3.81001 -0.873127,1.30969 -2.533391,1.30969 -1.660265,0 -2.540006,-1.30969 -0.873127,-1.31631 -0.873127,-3.81001 0,-2.50032 0.873127,-3.81001 0.879741,-1.31631 2.540006,-1.31631 z"
         style=""
         id="path106" />
      <path
         d="m 58.232181,252.6029 1.342763,0 0,1.6801 -1.342763,0 0,-1.6801 z m 1.303076,-0.97235 -1.263389,0 0,-1.01865 q 0,-0.66807 0.185209,-1.09802 0.185209,-0.42995 0.780523,-0.99881 l 0.595314,-0.5887 q 0.377032,-0.35057 0.542397,-0.66146 0.171979,-0.31088 0.171979,-0.635 0,-0.5887 -0.436563,-0.9525 -0.429949,-0.3638 -1.144326,-0.3638 -0.522553,0 -1.117867,0.23151 -0.588699,0.23151 -1.230316,0.67469 l 0,-1.24355 q 0.621773,-0.37703 1.256774,-0.56224 0.641616,-0.18521 1.32292,-0.18521 1.217086,0 1.951307,0.64162 0.740835,0.64162 0.740835,1.69334 0,0.50271 -0.238125,0.95911 -0.238126,0.4498 -0.83344,1.01865 l -0.582085,0.56886 q -0.310886,0.31088 -0.443178,0.48948 -0.125677,0.17198 -0.178594,0.33734 -0.03969,0.13891 -0.05953,0.33735 -0.01984,0.19844 -0.01984,0.54239 l 0,0.8136 z"
         style=""
         id="path108" />
    </g>
  </g>
  <g
     id="g42"
     transform="translate(-4.5559774,-2)">
    <path
       style="fill:#ff0000"
       d="m 42,210 a 2,2 0 0 1 -2,2 2,2 0 0 1 -2,-2 2,2 0 0 1 2,-2 2,2 0 0 1 2,2 z"
       id="ellipse44" />
    <path
       style="fill:none;fill-opacity:0;stroke:#ff0000;stroke-width:2"
       d="m 42,210 a 2,2 0 0 1 -2,2 2,2 0 0 1 -2,-2 2,2 0 0 1 2,-2 2,2 0 0 1 2,2 z"
       id="ellipse46" />
  </g>
  <g
     id="g48"
     transform="translate(-4.5559774,-2)">
    <path
       style="fill:none;fill-opacity:0;stroke:#000000;stroke-width:2"
       d="m 40,190 0,10.51401"
       id="line50" />
    <path
       style="fill:#000000"
       d="m 36.5,198.764 3.5,1.75 3.5,-1.75 -3.5,7 z"
       id="polygon52" />
    <path
       style="fill:none;fill-opacity:0;stroke:#000000;stroke-width:2"
       d="m 36.5,198.764 3.5,1.75 3.5,-1.75 -3.5,7 z"
       id="polygon54" />
  </g>
  <g
     id="g56"
     transform="translate(-4.5559774,-2)">
    <path
       style="fill:none;fill-opacity:0;stroke:#ff0000;stroke-width:2"
       d="m 40.0476,213.002 0.133701,8.433"
       id="line58" />
    <path
       style="fill:#ff0000"
       d="m 36.654,219.741 3.5273,1.694 3.4718,-1.805 -3.3886,7.054 z"
       id="polygon60" />
    <path
       style="fill:none;fill-opacity:0;stroke:#ff0000;stroke-width:2"
       d="m 36.654,219.741 3.5273,1.694 3.4718,-1.805 -3.3886,7.054 z"
       id="polygon62" />
  </g>
  <g
     id="g64"
     transform="translate(-4.5559774,-2)">
    <path
       style="fill:#ffffff"
       d="M 80,290 69.0809,320 0,320 10.9191,290 Z"
       id="polygon66" />
    <path
       style="fill:none;fill-opacity:0;stroke:#000000;stroke-width:2"
       d="M 80,290 69.0809,320 0,320 10.9191,290 Z"
       id="polygon68" />
    <g
       style="font-style:normal;font-weight:normal;font-size:13.54669952px;font-family:sans-serif;text-anchor:middle;fill:#000000"
       id="text70">
      <path
         d="m 25.798455,299.2574 1.336149,0 0,4.17381 4.431782,-4.17381 1.719796,0 -4.901419,4.60376 5.251992,5.27184 -1.759483,0 -4.742668,-4.7559 0,4.7559 -1.336149,0 0,-9.8756 z"
         style=""
         id="path121" />
      <path
         d="m 34.688476,299.2574 1.33615,0 0,9.8756 -1.33615,0 0,-9.8756 z"
         style=""
         id="path123" />
      <path
         d="m 38.941664,307.45289 1.395681,0 0,1.68011 -1.395681,0 0,-1.68011 z m 0,-5.32476 1.395681,0 0,1.68011 -1.395681,0 0,-1.68011 z"
         style=""
         id="path125" />
      <path
         d="m 47.097465,299.2574 1.435368,0 2.454016,3.6711 2.467246,-3.6711 1.435368,0 -3.175008,4.74267 3.386675,5.13293 -1.435368,0 -2.778132,-4.20027 -2.797975,4.20027 -1.441983,0 3.525582,-5.27184 -3.075789,-4.60376 z"
         style=""
         id="path127" />
    </g>
  </g>
  <g
     id="g74"
     transform="translate(-4.5559774,-2)">
    <path
       style="fill:#ffffff"
       d="m 0,340 80,0 0,30 -80,0 z"
       id="rect76" />
    <path
       style="fill:none;fill-opacity:0;stroke:#000000;stroke-width:2"
       d="m 0,340 80,0 0,30 -80,0 z"
       id="rect78" />
    <g
       style="font-style:normal;font-weight:normal;font-size:13.54669952px;font-family:sans-serif;text-anchor:middle;fill:#000000"
       id="text80">
      <path
         d="m 15.903014,349.2574 1.435369,0 2.454016,3.6711 2.467245,-3.6711 1.435369,0 -3.175008,4.74267 3.386675,5.13293 -1.435368,0 -2.778132,-4.20027 -2.797976,4.20027 -1.441982,0 3.525581,-5.27184 -3.075789,-4.60376 z"
         style=""
         id="path132" />
      <path
         d="m 25.771997,352.98142 8.479916,0 0,1.11125 -8.479916,0 0,-1.11125 z m 0,2.69875 8.479916,0 0,1.12449 -8.479916,0 0,-1.12449 z"
         style=""
         id="path134" />
      <path
         d="m 36.540565,349.2574 1.435368,0 2.454016,3.6711 2.467246,-3.6711 1.435368,0 -3.175008,4.74267 3.386675,5.13293 -1.435368,0 -2.778132,-4.20027 -2.797975,4.20027 -1.441983,0 3.525582,-5.27184 -3.075789,-4.60376 z"
         style=""
         id="path136" />
      <path
         d="m 51.205132,350.63985 0,3.68433 3.684332,0 0,1.12448 -3.684332,0 0,3.68434 -1.111253,0 0,-3.68434 -3.684332,0 0,-1.12448 3.684332,0 0,-3.68433 1.111253,0 z"
         style=""
         id="path138" />
      <path
         d="m 58.00494,358.00851 2.182818,0 0,-7.53402 -2.374641,0.47625 0,-1.21709 2.361412,-0.47625 1.336149,0 0,8.75111 2.182818,0 0,1.12449 -5.688556,0 0,-1.12449 z"
         style=""
         id="path140" />
    </g>
  </g>
  <g
     id="g84"
     transform="translate(-4.5559774,-2)">
    <path
       style="fill:none;fill-opacity:0;stroke:#ff0000;stroke-width:2"
       d="m 40.299999,271.38 0,11.13401"
       id="line86" />
    <path
       style="fill:#ff0000"
       d="m 36.8,280.764 3.5,1.75 3.5,-1.75 -3.5,7 z"
       id="polygon88" />
    <path
       style="fill:none;fill-opacity:0;stroke:#ff0000;stroke-width:2"
       d="m 36.8,280.764 3.5,1.75 3.5,-1.75 -3.5,7 z"
       id="polygon90" />
  </g>
  <g
     id="g92"
     transform="translate(-4.5559774,-2)">
    <path
       style="fill:none;fill-opacity:0;stroke:#000000;stroke-width:2"
       d="m 40,320 0,12.51401"
       id="line94" />
    <path
       style="fill:#000000"
       d="m 36.5,330.764 3.5,1.75 3.5,-1.75 -3.5,7 z"
       id="polygon96" />
    <path
       style="fill:none;fill-opacity:0;stroke:#000000;stroke-width:2"
       d="m 36.5,330.764 3.5,1.75 3.5,-1.75 -3.5,7 z"
       id="polygon98" />
  </g>
  <path
     style="fill:none;fill-opacity:0;stroke:#ff0000;stroke-width:2"
     d="m 35.444023,368 0.299999,20"
     id="line100" />
  <path
     style="fill:none;fill-opacity:0;stroke:#ff0000;stroke-width:2"
     d="m 35.444023,388 60,0"
     id="line102" />
  <g
     id="g104"
     transform="translate(-4.5559774,-2)">
    <path
       style="fill:none;fill-opacity:0;stroke:#ff0000;stroke-width:2"
       d="m 100,210 -49.511002,0"
       id="line106" />
    <path
       style="fill:#ff0000"
       d="m 52.239,206.5 -1.75,3.5 1.75,3.5 -7,-3.5 z"
       id="polygon108" />
    <path
       style="fill:none;fill-opacity:0;stroke:#ff0000;stroke-width:2"
       d="m 52.239,206.5 -1.75,3.5 1.75,3.5 -7,-3.5 z"
       id="polygon110" />
  </g>
  <path
     style="fill:none;fill-opacity:0;stroke:#ff0000;stroke-width:2"
     d="m -24.555975,248 17.8416572,0.14999"
     id="line112" />
  <path
     style="fill:none;fill-opacity:0;stroke:#ff0000;stroke-width:2"
     d="m -24.555975,408 0,-160"
     id="line114" />
  <path
     style="fill:none;fill-opacity:0;stroke:#ff0000;stroke-width:2"
     d="m -24.555975,408 59.999998,0"
     id="line116" />
  <g
     id="g118"
     transform="translate(-4.5559774,-2)">
    <path
       style="fill:none;fill-opacity:0;stroke:#ff0000;stroke-width:2"
       d="m 40.299999,410.29999 -0.186001,12.21502"
       id="line120" />
    <path
       style="fill:#ff0000"
       d="m 36.641,420.712 3.473,1.803 3.5262,-1.697 -3.6062,6.946 z"
       id="polygon122" />
    <path
       style="fill:none;fill-opacity:0;stroke:#ff0000;stroke-width:2"
       d="m 36.641,420.712 3.473,1.803 3.5262,-1.697 -3.6062,6.946 z"
       id="polygon124" />
  </g>
</svg>
