<?xml version="1.0" encoding="UTF-8"?>
<svg id="svg67" width="17.76cm" height="9.4409cm" version="1.1" viewBox="105 118 342.38 172.77" xmlns="http://www.w3.org/2000/svg" xmlns:cc="http://creativecommons.org/ns#" xmlns:dc="http://purl.org/dc/elements/1.1/" xmlns:rdf="http://www.w3.org/1999/02/22-rdf-syntax-ns#">
 <metadata id="metadata71">
  <rdf:RDF>
   <cc:Work rdf:about="">
    <dc:format>image/svg+xml</dc:format>
    <dc:type rdf:resource="http://purl.org/dc/dcmitype/StillImage"/>
   </cc:Work>
  </rdf:RDF>
 </metadata>
 <g id="Háttér" transform="translate(-2.5621 -5.6156)">
  <path id="rect4" d="m180 120h180v80h-180z" fill="#fff" stroke="#000" stroke-width="2"/>
  <g id="text8" aria-label="LNKO">
   <path id="path845" d="m236.17 149.62h2.6723v17.502h9.6176v2.249h-12.29z" style=""/>
   <path id="path847" d="m251.25 149.62h3.5983l8.7577 16.523v-16.523h2.5929v19.751h-3.5983l-8.7577-16.523v16.523h-2.5929z" style=""/>
   <path id="path849" d="m271.52 149.62h2.6723v8.3476l8.8635-8.3476h3.4396l-9.8028 9.2075 10.504 10.544h-3.519l-9.4853-9.5118v9.5118h-2.6723z" style=""/>
   <path id="path851" d="m295.84 151.44q-2.9104 0-4.6302 2.1696-1.7066 2.1696-1.7066 5.9134 0 3.7306 1.7066 5.9002 1.7198 2.1696 4.6302 2.1696t4.6037-2.1696q1.7066-2.1696 1.7066-5.9002 0-3.7438-1.7066-5.9134-1.6933-2.1696-4.6037-2.1696zm0-2.1696q4.154 0 6.641 2.7914 2.4871 2.7781 2.4871 7.4612 0 4.6699-2.4871 7.4612-2.4871 2.7781-6.641 2.7781-4.1672 0-6.6675-2.7781-2.4871-2.7781-2.4871-7.4612t2.4871-7.4612q2.5003-2.7914 6.6675-2.7914z" style=""/>
  </g>
  <path id="rect10" d="m180 220h180v80h-180z" fill="#fff" stroke="#000" stroke-width="2"/>
  <g id="text14" aria-label="FAKTORIÁLIS">
   <path id="path855" d="m187.25 249.62h11.351v2.249h-8.6783v5.8208h7.8317v2.249h-7.8317v9.4324h-2.6723z" style=""/>
   <path id="path857" d="m206.98 252.26-3.6248 9.8293h7.2628zm-1.5081-2.6326h3.0295l7.5274 19.751h-2.7781l-1.7992-5.0668h-8.9032l-1.7992 5.0668h-2.8178z" style=""/>
   <path id="path859" d="m218.9 249.62h2.6723v8.3476l8.8635-8.3476h3.4396l-9.8028 9.2075 10.504 10.544h-3.519l-9.4853-9.5118v9.5118h-2.6723z" style=""/>
   <path id="path861" d="m231.82 249.62h16.708v2.249h-7.0114v17.502h-2.6855v-17.502h-7.0114z" style=""/>
   <path id="path863" d="m259.14 251.44q-2.9104 0-4.6302 2.1696-1.7066 2.1696-1.7066 5.9134 0 3.7306 1.7066 5.9002 1.7198 2.1696 4.6302 2.1696t4.6037-2.1696q1.7066-2.1696 1.7066-5.9002 0-3.7438-1.7066-5.9134-1.6933-2.1696-4.6037-2.1696zm0-2.1696q4.154 0 6.641 2.7914 2.4871 2.7781 2.4871 7.4612 0 4.6699-2.4871 7.4612-2.4871 2.7781-6.641 2.7781-4.1672 0-6.6675-2.7781-2.4871-2.7781-2.4871-7.4612t2.4871-7.4612q2.5003-2.7914 6.6675-2.7914z" style=""/>
   <path id="path865" d="m281.81 260.11q0.85989 0.29105 1.6669 1.2435 0.82021 0.9525 1.6404 2.6194l2.712 5.3975h-2.8707l-2.5268-5.0668q-0.97896-1.9844-1.905-2.6326-0.91281-0.64822-2.5003-0.64822h-2.9104v8.3476h-2.6723v-19.751h6.0325q3.3867 0 5.0535 1.4155 1.6669 1.4155 1.6669 4.273 0 1.8653-0.87312 3.0956-0.8599 1.2303-2.5135 1.7066zm-6.694-8.2947v7.0114h3.3602q1.9315 0 2.9104-0.88636 0.99219-0.89958 0.99219-2.6326t-0.99219-2.6061q-0.97895-0.88635-2.9104-0.88635z" style=""/>
   <path id="path867" d="m291.29 249.62h2.6723v19.751h-2.6723z" style=""/>
   <path id="path869" d="m305.88 252.26-3.6248 9.8293h7.2628zm-1.5081-2.6326h3.0295l7.5274 19.751h-2.7781l-1.7992-5.0668h-8.9032l-1.7992 5.0668h-2.8178zm2.2357-5.371h2.4474l-3.0162 3.4925h-2.0241z" style=""/>
   <path id="path871" d="m317.8 249.62h2.6723v17.502h9.6176v2.249h-12.29z" style=""/>
   <path id="path873" d="m332.88 249.62h2.6723v19.751h-2.6723z" style=""/>
   <path id="path875" d="m352.71 250.27v2.6061q-1.5214-0.7276-2.8707-1.0848-1.3494-0.35719-2.6062-0.35719-2.1828 0-3.3734 0.84667-1.1774 0.84666-1.1774 2.4077 0 1.3097 0.78052 1.9844 0.79374 0.66145 2.9898 1.0716l1.614 0.33073q2.9898 0.56885 4.4053 2.0108 1.4288 1.4287 1.4288 3.8364 0 2.8707-1.9315 4.3524-1.9182 1.4817-5.6356 1.4817-1.4023 0-2.9898-0.3175-1.5743-0.3175-3.2676-0.93927v-2.7517q1.6272 0.91281 3.1882 1.3758t3.0692 0.46302q2.2886 0 3.5322-0.89958t1.2435-2.5664q0-1.4552-0.89958-2.2754-0.88635-0.8202-2.9236-1.2303l-1.6272-0.3175q-2.9898-0.59531-4.3259-1.8653-1.3361-1.27-1.3361-3.5322 0-2.6194 1.8388-4.1275 1.8521-1.5081 5.0932-1.5081 1.3891 0 2.831 0.25136 1.442 0.25135 2.9501 0.75406z" style=""/>
  </g>
  <g id="g20" fill="none" stroke="#000" stroke-width="2">
   <path id="line16" d="m140 140h35.528"/>
   <path id="polyline18" d="m167.76 145 10-5-10-5"/>
  </g>
  <g id="g26" fill="none" stroke="#000" stroke-width="2">
   <path id="line22" d="m140 180h35.528"/>
   <path id="polyline24" d="m167.76 185 10-5-10-5"/>
  </g>
  <g id="g32" fill="none" stroke="#000" stroke-width="2">
   <path id="line28" d="m140 260h35.528"/>
   <path id="polyline30" d="m167.76 265 10-5-10-5"/>
  </g>
  <g id="g38" fill="none" stroke="#000" stroke-width="2">
   <path id="line34" d="m360 160h35.528"/>
   <path id="polyline36" d="m387.76 165 10-5-10-5"/>
  </g>
  <g id="g44" fill="none" stroke="#000" stroke-width="2">
   <path id="line40" d="m360 260h35.528"/>
   <path id="polyline42" d="m387.76 265 10-5-10-5"/>
  </g>
  <g id="text48" aria-label="6">
   <path id="path888" d="m408.94 158.43q-1.7992 0-2.8575 1.2303-1.0451 1.2303-1.0451 3.3734 0 2.1299 1.0451 3.3734 1.0583 1.2303 2.8575 1.2303 1.7992 0 2.8443-1.2303 1.0583-1.2435 1.0583-3.3734 0-2.1431-1.0583-3.3734-1.0451-1.2303-2.8443-1.2303zm5.3049-8.374v2.4342q-1.0054-0.47625-2.0373-0.7276-1.0186-0.25135-2.0241-0.25135-2.6458 0-4.0481 1.7859-1.3891 1.7859-1.5875 5.3975 0.78052-1.1509 1.9579-1.7595 1.1774-0.62177 2.5929-0.62177 2.9766 0 4.6963 1.8124 1.733 1.7992 1.733 4.908 0 3.0427-1.7992 4.8816-1.7992 1.8389-4.789 1.8389-3.4264 0-5.2388-2.6194-1.8124-2.6326-1.8124-7.62 0-4.6831 2.2225-7.4612 2.2225-2.7914 5.9663-2.7914 1.0054 0 2.0241 0.19844 1.0319 0.19844 2.1431 0.59531z" style=""/>
  </g>
  <g id="text52" aria-label="30">
   <path id="path891" d="m116.49 138.73q1.9182 0.41011 2.9898 1.7066 1.0848 1.2965 1.0848 3.2015 0 2.9236-2.0108 4.5244t-5.715 1.6007q-1.2435 0-2.5664-0.25136-1.3097-0.23812-2.712-0.7276v-2.5797q1.1112 0.64823 2.4342 0.97896 1.3229 0.33073 2.7649 0.33073 2.5135 0 3.8232-0.99219 1.3229-0.99218 1.3229-2.884 0-1.7462-1.2303-2.7252-1.2171-0.99218-3.3999-0.99218h-2.3019v-2.196h2.4077q1.9711 0 3.0162-0.78052 1.0451-0.79375 1.0451-2.2754 0-1.5214-1.0848-2.3283-1.0716-0.8202-3.0824-0.8202-1.098 0-2.3548 0.23812-1.2568 0.23813-2.7649 0.74083v-2.3812q1.5214-0.42334 2.8443-0.635 1.3362-0.21167 2.5135-0.21167 3.0427 0 4.8154 1.3891 1.7727 1.3758 1.7727 3.7306 0 1.6404-0.93927 2.7781-0.93927 1.1245-2.6723 1.561z" style=""/>
   <path id="path893" d="m131.36 131.38q-2.0638 0-3.1088 2.0373-1.0319 2.0241-1.0319 6.0986 0 4.0614 1.0319 6.0986 1.0451 2.0241 3.1088 2.0241 2.077 0 3.1088-2.0241 1.0451-2.0373 1.0451-6.0986 0-4.0746-1.0451-6.0986-1.0319-2.0373-3.1088-2.0373zm0-2.1167q3.3205 0 5.0668 2.6326 1.7595 2.6194 1.7595 7.62 0 4.9874-1.7595 7.62-1.7462 2.6194-5.0668 2.6194-3.3205 0-5.08-2.6194-1.7462-2.6326-1.7462-7.62 0-5.0006 1.7462-7.62 1.7595-2.6326 5.08-2.6326z" style=""/>
  </g>
  <g id="text56" aria-label="12">
   <path id="path896" d="m108.86 187.13h4.3656v-15.068l-4.7493 0.9525v-2.4342l4.7228-0.9525h2.6723v17.502h4.3656v2.249h-11.377z" style=""/>
   <path id="path898" d="m127.95 187.13h9.3266v2.249h-12.541v-2.249q1.5214-1.5743 4.1407-4.2201 2.6326-2.6591 3.3073-3.4264 1.2832-1.442 1.7859-2.4342 0.51593-1.0054 0.51593-1.9711 0-1.5743-1.1112-2.5665-1.098-0.99218-2.8707-0.99218-1.2568 0-2.6591 0.43656-1.3891 0.43656-2.9766 1.3229v-2.6987q1.614-0.64823 3.0162-0.97896t2.5664-0.33073q3.0692 0 4.8948 1.5346t1.8256 4.101q0 1.2171-0.46302 2.3151-0.44979 1.0848-1.6536 2.5665-0.33073 0.38364-2.1034 2.2225-1.7727 1.8256-5.0006 5.1197z" style=""/>
  </g>
  <g id="text60" aria-label="6">
   <path id="path901" d="m131.69 258.43q-1.7992 0-2.8575 1.2303-1.0451 1.2303-1.0451 3.3734 0 2.1299 1.0451 3.3734 1.0583 1.2303 2.8575 1.2303 1.7992 0 2.8443-1.2303 1.0583-1.2435 1.0583-3.3734 0-2.1431-1.0583-3.3734-1.0451-1.2303-2.8443-1.2303zm5.3049-8.374v2.4342q-1.0054-0.47625-2.0373-0.7276-1.0186-0.25135-2.0241-0.25135-2.6458 0-4.0481 1.7859-1.3891 1.7859-1.5875 5.3975 0.78052-1.1509 1.9579-1.7595 1.1774-0.62177 2.5929-0.62177 2.9766 0 4.6964 1.8124 1.733 1.7992 1.733 4.908 0 3.0427-1.7992 4.8816-1.7992 1.8389-4.789 1.8389-3.4264 0-5.2387-2.6194-1.8124-2.6326-1.8124-7.62 0-4.6831 2.2225-7.4612 2.2225-2.7914 5.9664-2.7914 1.0054 0 2.0241 0.19844 1.0319 0.19844 2.1431 0.59531z" style=""/>
  </g>
  <g id="text64" aria-label="720">
   <path id="path904" d="m402.22 249.62h12.7v1.1377l-7.1702 18.613h-2.7914l6.7469-17.502h-9.4853z" style=""/>
   <path id="path906" d="m422.45 267.13h9.3266v2.249h-12.541v-2.249q1.5214-1.5743 4.1407-4.2201 2.6326-2.6591 3.3073-3.4264 1.2832-1.442 1.7859-2.4342 0.51594-1.0054 0.51594-1.9711 0-1.5743-1.1112-2.5665-1.098-0.99218-2.8707-0.99218-1.2568 0-2.659 0.43656-1.3891 0.43656-2.9766 1.3229v-2.6987q1.614-0.64823 3.0162-0.97896t2.5665-0.33073q3.0692 0 4.8948 1.5346 1.8256 1.5346 1.8256 4.101 0 1.2171-0.46302 2.3151-0.44979 1.0848-1.6536 2.5665-0.33073 0.38364-2.1034 2.2225-1.7727 1.8256-5.0006 5.1197z" style=""/>
   <path id="path908" d="m443.11 251.38q-2.0638 0-3.1088 2.0373-1.0319 2.0241-1.0319 6.0986 0 4.0614 1.0319 6.0986 1.0451 2.0241 3.1088 2.0241 2.077 0 3.1088-2.0241 1.0451-2.0373 1.0451-6.0986 0-4.0746-1.0451-6.0986-1.0319-2.0373-3.1088-2.0373zm0-2.1167q3.3205 0 5.0668 2.6326 1.7595 2.6194 1.7595 7.62 0 4.9874-1.7595 7.62-1.7462 2.6194-5.0668 2.6194-3.3205 0-5.08-2.6194-1.7462-2.6326-1.7462-7.62 0-5.0006 1.7462-7.62 1.7595-2.6326 5.08-2.6326z" style=""/>
  </g>
 </g>
</svg>
