<?xml version="1.0" encoding="UTF-8" standalone="no"?>
<svg id="svg2" xmlns:rdf="http://www.w3.org/1999/02/22-rdf-syntax-ns#" xmlns="http://www.w3.org/2000/svg" viewBox="309 -1 602 191.96407" height="10.402cm" width="31cm" version="1.1" xmlns:cc="http://creativecommons.org/ns#" xmlns:dc="http://purl.org/dc/elements/1.1/">
 <metadata id="metadata142">
  <rdf:RDF>
   <cc:Work rdf:about="">
    <dc:format>image/svg+xml</dc:format>
    <dc:type rdf:resource="http://purl.org/dc/dcmitype/StillImage"/>
   </cc:Work>
  </rdf:RDF>
 </metadata>
 <g id="g4" transform="translate(0 -5.018)">
  <path id="ellipse6" fill="#fff" d="m330 100a10 10 0 0 1 -10 10 10 10 0 0 1 -10 -10 10 10 0 0 1 10 -10 10 10 0 0 1 10 10z"/>
  <path id="ellipse8" d="m330 100a10 10 0 0 1 -10 10 10 10 0 0 1 -10 -10 10 10 0 0 1 10 -10 10 10 0 0 1 10 10z" stroke="#000" stroke-width="2" fill="none"/>
 </g>
 <g id="g10" transform="translate(0 -5.018)">
  <path id="path12" fill="#fff" d="m370 80h40c5.523 0 10 8.9543 10 20s-4.477 20-10 20h-40c-5.523 0-10-8.954-10-20s4.477-20 10-20z"/>
  <path id="path14" d="m370 80h40c5.523 0 10 8.9543 10 20s-4.477 20-10 20h-40c-5.523 0-10-8.954-10-20s4.477-20 10-20" stroke="#000" stroke-width="2" fill="none"/>
  <g id="text16">
   <path id="path77" style="" d="m375.81 94.721v2.1034h2.5069v0.94589h-2.5069v4.0217q0 0.9062 0.24474 1.1642 0.25136 0.25797 1.012 0.25797h1.2502v1.0186h-1.2502q-1.4089 0-1.9447-0.52255-0.53579-0.52917-0.53579-1.9182v-4.0217h-0.89297v-0.94589h0.89297v-2.1034h1.2237z"/>
   <path id="path79" style="" d="m381.45 93.398h1.3163l-2.1564 2.4871h-1.012l1.8521-2.4871zm-1.528 3.4264h1.2171v7.4084h-1.2171v-7.4084zm0.60854-0.17859z"/>
   <path id="path81" style="" d="m384.86 103.12v3.9291h-1.2237v-10.226h1.2237v1.1245q0.38364-0.66146 0.96573-0.97896 0.5887-0.32412 1.4023-0.32412 1.3494 0 2.1894 1.0716 0.84666 1.0716 0.84666 2.8178t-0.84666 2.8178q-0.84006 1.0716-2.1894 1.0716-0.81359 0-1.4023-0.31751-0.58209-0.32411-0.96573-0.98557zm4.1407-2.5863q0-1.3428-0.55563-2.1034-0.54901-0.76729-1.5147-0.76729-0.96574 0-1.5214 0.76729-0.54901 0.76068-0.54901 2.1034 0 1.3428 0.54901 2.1101 0.55562 0.76068 1.5214 0.76068 0.96573 0 1.5147-0.76068 0.55563-0.7673 0.55563-2.1101z"/>
   <path id="path83" style="" d="m392.16 101.31v-4.4847h1.2171v4.4384q0 1.0517 0.4101 1.5809 0.41011 0.52255 1.2303 0.52255 0.98557 0 1.5544-0.62839 0.57547-0.62838 0.57547-1.7132v-4.2003h1.2171v7.4084h-1.2171v-1.1377q-0.44318 0.67469-1.0319 1.0054-0.58208 0.32412-1.356 0.32412-1.2766 0-1.9381-0.79376-0.66146-0.79375-0.66146-2.3217zm3.0626-4.6633z"/>
   <path id="path85" style="" d="m405.6 97.043v1.1509q-0.51594-0.26458-1.0716-0.39688-0.55563-0.13229-1.1509-0.13229-0.9062 0-1.3626 0.27781-0.44979 0.27781-0.44979 0.83344 0 0.42334 0.32411 0.66808 0.32412 0.23812 1.3031 0.45641l0.41672 0.0926q1.2965 0.27782 1.8388 0.78714 0.54902 0.50271 0.54902 1.4089 0 1.0319-0.82021 1.6338-0.8136 0.60193-2.2424 0.60193-0.59532 0-1.2436-0.11907-0.64161-0.11245-1.356-0.34396v-1.2568q0.67469 0.35057 1.3295 0.52917 0.65485 0.17198 1.2965 0.17198 0.85989 0 1.3229-0.29105 0.46302-0.29765 0.46302-0.83344 0-0.49609-0.33735-0.76067-0.33073-0.26459-1.4618-0.50933l-0.42334-0.0992q-1.1311-0.23812-1.6338-0.7276-0.50271-0.4961-0.50271-1.356 0-1.0451 0.74083-1.614 0.74084-0.56886 2.1034-0.56886 0.67469 0 1.27 0.09922t1.098 0.29766z"/>
  </g>
 </g>
 <g id="g20" transform="translate(0 -5.018)">
  <path id="path22" fill="#fff" d="m470 80h40c5.523 0 10 8.9543 10 20s-4.477 20-10 20h-40c-5.523 0-10-8.954-10-20s4.477-20 10-20z"/>
  <path id="path24" d="m470 80h40c5.523 0 10 8.9543 10 20s-4.477 20-10 20h-40c-5.523 0-10-8.954-10-20s4.477-20 10-20" stroke="#000" stroke-width="2" fill="none"/>
  <g id="text26">
   <path id="path88" style="" d="m484.96 99.762v4.4715h-1.2171v-4.4318q0-1.0517-0.41011-1.5743-0.4101-0.52255-1.2303-0.52255-0.98558 0-1.5544 0.62839-0.56886 0.62839-0.56886 1.7132v4.187h-1.2237v-7.4084h1.2237v1.1509q0.43657-0.66808 1.0253-0.9988 0.59532-0.33073 1.3692-0.33073 1.2766 0 1.9315 0.79375 0.65485 0.78714 0.65485 2.3217z"/>
   <path id="path91" style="" d="m493.74 100.22v0.59532h-5.596q0.0794 1.2568 0.75406 1.9182 0.68131 0.65485 1.8918 0.65485 0.70114 0 1.356-0.17198 0.66146-0.17198 1.3097-0.51594v1.1509q-0.65484 0.27781-1.3428 0.42333-0.68792 0.14553-1.3957 0.14553-1.7727 0-2.8112-1.0319-1.0319-1.0319-1.0319-2.7914 0-1.819 0.97897-2.884 0.98557-1.0716 2.6524-1.0716 1.4949 0 2.3614 0.96573 0.87313 0.95912 0.87313 2.6128zm-1.2171-0.35718q-0.0132-0.9988-0.56224-1.5941-0.5424-0.59531-1.442-0.59531-1.0186 0-1.6338 0.57547-0.60854 0.57547-0.70115 1.6206l4.3392-0.0066zm-1.1708-6.4691h1.3163l-2.1564 2.4871h-1.012l1.8521-2.4871z"/>
   <path id="path93" style="" d="m494.86 96.825h1.2898l2.3151 6.2177 2.3151-6.2177h1.2898l-2.7781 7.4084h-1.6536l-2.7781-7.4084z"/>
  </g>
 </g>
 <g id="g30" transform="translate(0 -5.018)">
  <path id="path32" fill="#fff" d="m566.67 160h26.666c3.682 0 6.667 8.954 6.667 20s-2.985 20-6.667 20h-26.666c-3.682 0-6.667-8.954-6.667-20s2.985-20 6.667-20z"/>
  <path id="path34" d="m566.67 160h26.666c3.682 0 6.667 8.954 6.667 20s-2.985 20-6.667 20h-26.666c-3.682 0-6.667-8.954-6.667-20s2.985-20 6.667-20" stroke="#000" stroke-width="2" fill="none"/>
  <g id="text36">
   <path id="path97" style="" d="m575.76 178.08h8.4799v1.1113h-8.4799v-1.1113zm0 2.6988h8.4799v1.1245h-8.4799v-1.1245z"/>
  </g>
 </g>
 <g id="g40" transform="translate(0 -5.018)">
  <path id="path42" fill="#fff" d="m642.75 160h94.5c13.048 0 23.625 8.954 23.625 20s-10.577 20-23.625 20h-94.5c-13.048 0-23.625-8.954-23.625-20s10.577-20 23.625-20z"/>
  <path id="path44" d="m642.75 160h94.5c13.048 0 23.625 8.954 23.625 20s-10.577 20-23.625 20h-94.5c-13.048 0-23.625-8.954-23.625-20s10.577-20 23.625-20" stroke="#000" stroke-width="2" fill="none"/>
  <g id="text46">
   <path id="path100" style="" d="m646.94 173.94h1.2237v6.0788l3.6314-3.1948h1.5544l-3.9291 3.466 4.0944 3.9423h-1.5875l-3.7637-3.6182v3.6182h-1.2237v-10.292z"/>
   <path id="path103" style="" d="m660.7 180.22v0.59532h-5.596q0.0794 1.2568 0.75407 1.9182 0.6813 0.65485 1.8918 0.65485 0.70115 0 1.356-0.17198 0.66146-0.17198 1.3097-0.51594v1.1509q-0.65485 0.27781-1.3428 0.42333-0.68791 0.14553-1.3957 0.14553-1.7727 0-2.8112-1.0319-1.0319-1.0319-1.0319-2.7914 0-1.819 0.97896-2.884 0.98558-1.0716 2.6525-1.0716 1.4949 0 2.3614 0.96573 0.87313 0.95911 0.87313 2.6128zm-1.2171-0.35718q-0.0132-0.99881-0.56224-1.5941-0.5424-0.59532-1.442-0.59532-1.0186 0-1.6338 0.57547-0.60854 0.57547-0.70115 1.6206l4.3392-0.007z"/>
   <path id="path105" style="" d="m662.17 176.82h5.7812v1.1112l-4.5773 5.3248h4.5773v0.97234h-5.9465v-1.1112l4.5773-5.3248h-4.4119v-0.97235z"/>
   <path id="path107" style="" d="m674.69 177.95v-4.0084h1.2171v10.292h-1.2171v-1.1112q-0.38364 0.66146-0.97234 0.98557-0.58209 0.31751-1.4023 0.31751-1.3428 0-2.1894-1.0716-0.84005-1.0716-0.84005-2.8178t0.84005-2.8178q0.84667-1.0716 2.1894-1.0716 0.82021 0 1.4023 0.32411 0.5887 0.3175 0.97234 0.97896zm-4.1474 2.5863q0 1.3428 0.54901 2.1101 0.55563 0.76068 1.5214 0.76068 0.96573 0 1.5214-0.76068 0.55562-0.7673 0.55562-2.1101t-0.55562-2.1034q-0.55563-0.7673-1.5214-0.7673-0.96573 0-1.5214 0.7673-0.54901 0.76068-0.54901 2.1034z"/>
   <path id="path109" style="" d="m684.76 180.22v0.59532h-5.596q0.0794 1.2568 0.75406 1.9182 0.68131 0.65485 1.8918 0.65485 0.70114 0 1.356-0.17198 0.66146-0.17198 1.3097-0.51594v1.1509q-0.65484 0.27781-1.3428 0.42333-0.68792 0.14553-1.3957 0.14553-1.7727 0-2.8112-1.0319-1.0319-1.0319-1.0319-2.7914 0-1.819 0.97896-2.884 0.98558-1.0716 2.6525-1.0716 1.4949 0 2.3614 0.96573 0.87313 0.95911 0.87313 2.6128zm-1.2171-0.35718q-0.0132-0.99881-0.56224-1.5941-0.5424-0.59532-1.442-0.59532-1.0186 0-1.6338 0.57547-0.60854 0.57547-0.70115 1.6206l4.3392-0.007z"/>
   <path id="path111" style="" d="m687.96 174.72v2.1034h2.5069v0.94589h-2.5069v4.0217q0 0.9062 0.24474 1.1642 0.25135 0.25797 1.012 0.25797h1.2502v1.0186h-1.2502q-1.4089 0-1.9447-0.52255-0.53579-0.52917-0.53579-1.9182v-4.0217h-0.89297v-0.94589h0.89297v-2.1034h1.2237z"/>
   <path id="path113" style="" d="m692.07 176.82h1.2171v7.4084h-1.2171v-7.4084zm0-2.884h1.2171v1.5412h-1.2171v-1.5412z"/>
   <path id="path115" style="" d="m706.48 180.22v0.59532h-5.596q0.0794 1.2568 0.75407 1.9182 0.6813 0.65485 1.8918 0.65485 0.70115 0 1.356-0.17198 0.66146-0.17198 1.3097-0.51594v1.1509q-0.65485 0.27781-1.3428 0.42333-0.68791 0.14553-1.3957 0.14553-1.7727 0-2.8112-1.0319-1.0319-1.0319-1.0319-2.7914 0-1.819 0.97896-2.884 0.98558-1.0716 2.6525-1.0716 1.4949 0 2.3614 0.96573 0.87313 0.95911 0.87313 2.6128zm-1.2171-0.35718q-0.0132-0.99881-0.56224-1.5941-0.5424-0.59532-1.442-0.59532-1.0186 0-1.6338 0.57547-0.60854 0.57547-0.70115 1.6206l4.3392-0.007zm-1.1708-6.4691h1.3163l-2.1564 2.4871h-1.012l1.8521-2.4871z"/>
   <path id="path117" style="" d="m712.77 177.96q-0.20506-0.11906-0.4498-0.17198-0.23812-0.0595-0.52916-0.0595-1.0319 0-1.5875 0.67469-0.54901 0.66807-0.54901 1.9248v3.9026h-1.2237v-7.4084h1.2237v1.1509q0.38365-0.67469 0.99881-0.9988 0.61515-0.33073 1.4949-0.33073 0.12568 0 0.27782 0.0198 0.15213 0.0132 0.33734 0.0463l0.007 1.2502z"/>
   <path id="path119" style="" d="m715.26 174.72v2.1034h2.5069v0.94589h-2.5069v4.0217q0 0.9062 0.24474 1.1642 0.25136 0.25797 1.012 0.25797h1.2502v1.0186h-1.2502q-1.4089 0-1.9447-0.52255-0.53578-0.52917-0.53578-1.9182v-4.0217h-0.89297v-0.94589h0.89297v-2.1034h1.2237z"/>
   <path id="path121" style="" d="m725.71 180.22v0.59532h-5.596q0.0794 1.2568 0.75406 1.9182 0.6813 0.65485 1.8918 0.65485 0.70114 0 1.356-0.17198 0.66146-0.17198 1.3097-0.51594v1.1509q-0.65485 0.27781-1.3428 0.42333-0.68792 0.14553-1.3957 0.14553-1.7727 0-2.8112-1.0319-1.0319-1.0319-1.0319-2.7914 0-1.819 0.97896-2.884 0.98558-1.0716 2.6525-1.0716 1.4949 0 2.3614 0.96573 0.87313 0.95911 0.87313 2.6128zm-1.2171-0.35718q-0.0132-0.99881-0.56224-1.5941-0.5424-0.59532-1.442-0.59532-1.0186 0-1.6338 0.57547-0.60854 0.57547-0.70115 1.6206l4.3392-0.007zm-1.1708-6.4691h1.3163l-2.1564 2.4871h-1.012l1.8521-2.4871z"/>
   <path id="path123" style="" d="m727.66 173.94h1.2237v6.0788l3.6314-3.1948h1.5544l-3.9291 3.466 4.0944 3.9423h-1.5875l-3.7637-3.6182v3.6182h-1.2237v-10.292z"/>
  </g>
 </g>
 <g id="g50" stroke="#000" stroke-width="2" fill="none" transform="translate(0 -5.018)">
  <path id="path52" d="m330 100h25.528"/>
  <path id="polyline54" d="m347.76 105 10-5-10-5"/>
 </g>
 <g id="g56" stroke="#000" stroke-width="2" fill="none" transform="translate(0 -5.018)">
  <path id="path58" d="m420 100h35.528"/>
  <path id="polyline60" d="m447.76 105 10-5-10-5"/>
 </g>
 <g id="g62" transform="translate(0 -5.018)">
  <path id="path64" fill="#fff" d="m606.67 0h26.666c3.682 0 6.667 8.9543 6.667 20s-2.985 20-6.667 20h-26.666c-3.69 0-6.67-8.954-6.67-20s2.98-20 6.67-20z"/>
  <path id="path66" d="m606.67 0h26.666c3.682 0 6.667 8.9543 6.667 20s-2.985 20-6.667 20h-26.666c-3.69 0-6.67-8.954-6.67-20s2.98-20 6.67-20" stroke="#000" stroke-width="2" fill="none"/>
  <g id="text68">
   <path id="path128" style="" d="m619.43 22.553h1.3957v1.1377l-1.0848 2.1167h-0.85328l0.54239-2.1167v-1.1377z"/>
  </g>
 </g>
 <g id="g72" transform="translate(0 -5.018)">
  <path id="path74" fill="#fff" d="m826.67 80h26.666c3.682 0 6.667 8.9543 6.667 20s-2.985 20-6.667 20h-26.666c-3.682 0-6.667-8.954-6.667-20s2.985-20 6.667-20z"/>
  <path id="path76" d="m826.67 80h26.666c3.682 0 6.667 8.9543 6.667 20s-2.985 20-6.667 20h-26.666c-3.682 0-6.667-8.954-6.667-20s2.985-20 6.667-20" stroke="#000" stroke-width="2" fill="none"/>
  <g id="text78">
   <path id="path131" style="" d="m839.3 97.228h1.3957v1.6801h-1.3957v-1.6801zm0 5.3247h1.3957v1.1377l-1.0848 2.1167h-0.85328l0.54239-2.1167v-1.1377z"/>
  </g>
 </g>
 <g id="g82" transform="translate(0 -5.018)">
  <path id="ellipse84" fill="#fff" d="m910 100a10 10 0 0 1 -10 10 10 10 0 0 1 -10 -10 10 10 0 0 1 10 -10 10 10 0 0 1 10 10z"/>
  <path id="ellipse86" d="m910 100a10 10 0 0 1 -10 10 10 10 0 0 1 -10 -10 10 10 0 0 1 10 -10 10 10 0 0 1 10 10z" stroke="#000" stroke-width="2" fill="none"/>
 </g>
 <g id="g88" stroke="#000" stroke-width="2" fill="none" transform="translate(0 -5.018)">
  <path id="path90" d="m780 100h35.528"/>
  <path id="polyline92" d="m807.76 105 10-5-10-5"/>
 </g>
 <g id="g94" stroke="#000" stroke-width="2" fill="none" transform="translate(0 -5.018)">
  <path id="path96" d="m860 100h25.528"/>
  <path id="polyline98" d="m877.76 105 10-5-10-5"/>
 </g>
 <g id="g100" stroke="#000" stroke-width="2" fill="none" transform="translate(0 -5.018)">
  <path id="path102" d="m560 100c40 0-40 80-4.472 80"/>
  <path id="polyline104" d="m547.76 185 10-5-10-5"/>
 </g>
 <g id="g106" stroke="#000" stroke-width="2" fill="none" transform="translate(0 -5.018)">
  <path id="path108" d="m600 180h14.654"/>
  <path id="polyline110" d="m606.89 185 10-5-10-5"/>
 </g>
 <g id="g112" stroke="#000" stroke-width="2" fill="none" transform="translate(0 -5.018)">
  <path id="path114" d="m760.87 180c40 0-20.874-80 14.654-80"/>
  <path id="polyline116" d="m767.76 105 10-5-10-5"/>
 </g>
 <g id="g118" stroke="#000" stroke-width="2" fill="none" transform="translate(0 -5.018)">
  <path id="path120" d="m780 100c20 0 60-80-135.53-80"/>
  <path id="polyline122" d="m652.24 15-10 5 10 5"/>
 </g>
 <g id="g124" stroke="#000" stroke-width="2" fill="none" transform="translate(0 -5.018)">
  <path id="path126" d="m600 20c-200 0-160 80-144.47 80"/>
  <path id="polyline128" d="m447.76 105 10-5-10-5"/>
 </g>
 <g id="g130" stroke="#000" stroke-width="2" fill="none" transform="translate(0 -5.018)">
  <path id="path132" d="m519.98 100h35.552"/>
  <path id="polyline134" d="m547.76 105 10-5-10-5"/>
 </g>
 <path id="path136" d="m560 94.982h220" stroke="#000" stroke-width="2" fill="none"/>
</svg>
