<?xml version="1.0" encoding="UTF-8" standalone="no"?>
<svg id="svg2" xmlns:rdf="http://www.w3.org/1999/02/22-rdf-syntax-ns#" xmlns="http://www.w3.org/2000/svg" viewBox="69 98 370.67497 210.14608" height="11.308cm" width="18.882cm" version="1.1" xmlns:cc="http://creativecommons.org/ns#" xmlns:dc="http://purl.org/dc/elements/1.1/">
 <metadata id="metadata180">
  <rdf:RDF>
   <cc:Work rdf:about="">
    <dc:format>image/svg+xml</dc:format>
    <dc:type rdf:resource="http://purl.org/dc/dcmitype/StillImage"/>
   </cc:Work>
  </rdf:RDF>
 </metadata>
 <g id="g4" transform="translate(-1.325 -6.927)">
  <path id="rect6" fill="#fdfd04" d="m160 160h40v20h-40z"/>
  <path id="rect8" d="m160 160h40v20h-40z" stroke="#000" stroke-width="2" fill="none"/>
 </g>
 <g id="g10" transform="translate(-1.325 -6.927)">
  <path id="rect12" fill="#7babe3" d="m160 100h40v60h-40z"/>
  <path id="rect14" d="m160 100h40v60h-40z" stroke="#000" stroke-width="2" fill="none"/>
  <g id="text16">
   <path id="path98" style="" d="m180 125.81-1.7125 4.6438h3.4312l-1.72-4.64zm-0.7125-1.2438h1.4312l3.5562 9.3312h-1.3125l-0.85-2.3938h-4.2062l-0.85 2.3938h-1.3312l3.5625-9.3312z"/>
  </g>
 </g>
 <g id="g20" transform="translate(-1.325 -6.927)">
  <path id="rect22" fill="#fdfd04" d="m240 160h40v20h-40z"/>
  <path id="rect24" d="m240 160h40v20h-40z" stroke="#000" stroke-width="2" fill="none"/>
 </g>
 <g id="g26" transform="translate(-1.325 -6.927)">
  <path id="rect28" fill="#7babe3" d="m240 100h40v60h-40z"/>
  <path id="rect30" d="m240 100h40v60h-40z" stroke="#000" stroke-width="2" fill="none"/>
  <g id="text32">
   <path id="path105" style="" d="m258.13 129.44v3.4188h2.025q1.0188 0 1.5062-0.41875 0.49375-0.425 0.49375-1.2938 0-0.875-0.49375-1.2875-0.4875-0.41875-1.5062-0.41875h-2.025zm0-3.8375v2.8125h1.8688q0.925 0 1.375-0.34375 0.45625-0.35 0.45625-1.0625 0-0.70625-0.45625-1.0562-0.45-0.35-1.375-0.35h-1.8688zm-1.2625-1.0375h3.225q1.4438 0 2.225 0.6 0.78125 0.6 0.78125 1.7062 0 0.85625-0.4 1.3625t-1.175 0.63125q0.93125 0.2 1.4438 0.8375 0.51875 0.63125 0.51875 1.5812 0 1.25-0.85 1.9312-0.85 0.68125-2.4188 0.68125h-3.35v-9.3312z"/>
  </g>
 </g>
 <g id="g36" transform="translate(-1.325 -6.927)">
  <path id="rect38" fill="#fdfd04" d="m320 160h40v20h-40z"/>
  <path id="rect40" d="m320 160h40v20h-40z" stroke="#000" stroke-width="2" fill="none"/>
 </g>
 <g id="g42" transform="translate(-1.325 -6.927)">
  <path id="rect44" fill="#7babe3" d="m320 100h40v60h-40z"/>
  <path id="rect46" d="m320 100h40v60h-40z" stroke="#000" stroke-width="2" fill="none"/>
  <g id="text48">
   <path id="path112" style="" d="m343.77 125.29v1.3312q-0.6375-0.59375-1.3625-0.8875-0.71875-0.29375-1.5312-0.29375-1.6 0-2.45 0.98125-0.85 0.975-0.85 2.825 0 1.8438 0.85 2.825 0.85 0.975 2.45 0.975 0.8125 0 1.5312-0.29375 0.725-0.29375 1.3625-0.8875v1.3188q-0.6625 0.45-1.4062 0.675-0.7375 0.225-1.5625 0.225-2.1188 0-3.3375-1.2938-1.2188-1.3-1.2188-3.5438 0-2.25 1.2188-3.5438 1.2188-1.3 3.3375-1.3 0.8375 0 1.575 0.225 0.74375 0.21875 1.3938 0.6625z"/>
  </g>
 </g>
 <g id="g52" transform="translate(-1.325 -6.927)">
  <path id="path54" d="m101 130h48.305" stroke="#000" stroke-width="2" fill="none"/>
  <path id="polygon56" d="m146.8 135 2.5-5-2.5-5 10 5z"/>
  <path id="polygon58" d="m146.8 135 2.5-5-2.5-5 10 5z" stroke="#000" stroke-width="2" fill="none"/>
 </g>
 <g id="g60" transform="translate(-1.325 -6.927)">
  <path id="path62" d="m200 170c40 0 0-40 30.264-40" stroke="#000" stroke-width="2" fill="none"/>
  <path id="polygon64" d="m227.76 135 2.5-5-2.5-5 10 5z"/>
  <path id="polygon66" d="m227.76 135 2.5-5-2.5-5 10 5z" stroke="#000" stroke-width="2" fill="none"/>
 </g>
 <g id="g68" transform="translate(-1.325 -6.927)">
  <path id="path70" d="m280 170c40 0 0-40 30.264-40" stroke="#000" stroke-width="2" fill="none"/>
  <path id="polygon72" d="m307.76 135 2.5-5-2.5-5 10 5z"/>
  <path id="polygon74" d="m307.76 135 2.5-5-2.5-5 10 5z" stroke="#000" stroke-width="2" fill="none"/>
 </g>
 <path id="line76" d="m318.67 153.07 40 20" stroke="#000" stroke-width="2" fill="none"/>
 <path id="line78" d="m318.67 173.07 40-20" stroke="#000" stroke-width="2" fill="none"/>
 <g id="g80" transform="translate(-1.325 -6.927)">
  <path id="rect82" fill="#fdfd04" d="m400 300h40v20h-40z"/>
  <path id="rect84" d="m400 300h40v20h-40z" stroke="#000" stroke-width="2" fill="none"/>
 </g>
 <g id="g86" transform="translate(-1.325 -6.927)">
  <path id="rect88" fill="#7babe3" d="m400 240h40v60h-40z"/>
  <path id="rect90" d="m400 240h40v60h-40z" stroke="#000" stroke-width="2" fill="none"/>
  <g id="text92">
   <path id="path127" style="" d="m420 265.81-1.7125 4.6438h3.4312l-1.72-4.64zm-0.7125-1.2438h1.4312l3.5562 9.3312h-1.3125l-0.85-2.3938h-4.2062l-0.85 2.3938h-1.3312l3.5625-9.3312z"/>
  </g>
 </g>
 <g id="g96" transform="translate(-1.325 -6.927)">
  <path id="rect98" fill="#fdfd04" d="m240 300h40v20h-40z"/>
  <path id="rect100" d="m240 300h40v20h-40z" stroke="#000" stroke-width="2" fill="none"/>
 </g>
 <g id="g102" transform="translate(-1.325 -6.927)">
  <path id="rect104" fill="#7babe3" d="m240 240h40v60h-40z"/>
  <path id="rect106" d="m240 240h40v60h-40z" stroke="#000" stroke-width="2" fill="none"/>
  <g id="text108">
   <path id="path134" style="" d="m258.13 269.44v3.4188h2.025q1.0188 0 1.5062-0.41875 0.49375-0.425 0.49375-1.2938 0-0.875-0.49375-1.2875-0.4875-0.41875-1.5062-0.41875h-2.025zm0-3.8375v2.8125h1.8688q0.925 0 1.375-0.34375 0.45625-0.35 0.45625-1.0625 0-0.70625-0.45625-1.0562-0.45-0.35-1.375-0.35h-1.8688zm-1.2625-1.0375h3.225q1.4438 0 2.225 0.6 0.78125 0.6 0.78125 1.7062 0 0.85625-0.4 1.3625t-1.175 0.63125q0.93125 0.2 1.4438 0.8375 0.51875 0.63125 0.51875 1.5812 0 1.25-0.85 1.9312-0.85 0.68125-2.4188 0.68125h-3.35v-9.3312z"/>
  </g>
 </g>
 <g id="g112" transform="translate(-1.325 -6.927)">
  <path id="rect114" fill="#fdfd04" d="m320 300h40v20h-40z"/>
  <path id="rect116" d="m320 300h40v20h-40z" stroke="#000" stroke-width="2" fill="none"/>
 </g>
 <g id="g118" transform="translate(-1.325 -6.927)">
  <path id="rect120" fill="#7babe3" d="m320 240h40v60h-40z"/>
  <path id="rect122" d="m320 240h40v60h-40z" stroke="#000" stroke-width="2" fill="none"/>
  <g id="text124">
   <path id="path141" style="" d="m343.77 265.29v1.3312q-0.6375-0.59375-1.3625-0.8875-0.71875-0.29375-1.5312-0.29375-1.6 0-2.45 0.98125-0.85 0.975-0.85 2.825 0 1.8438 0.85 2.825 0.85 0.975 2.45 0.975 0.8125 0 1.5312-0.29375 0.725-0.29375 1.3625-0.8875v1.3188q-0.6625 0.45-1.4062 0.675-0.7375 0.225-1.5625 0.225-2.1188 0-3.3375-1.2938-1.2188-1.3-1.2188-3.5438 0-2.25 1.2188-3.5438 1.2188-1.3 3.3375-1.3 0.8375 0 1.575 0.225 0.74375 0.21875 1.3938 0.6625z"/>
  </g>
 </g>
 <g id="g128" transform="translate(-1.325 -6.927)">
  <path id="path130" d="m280 310c40 0 0-40 30.264-40" stroke="#000" stroke-width="2" fill="none"/>
  <path id="polygon132" d="m307.76 275 2.5-5-2.5-5 10 5z"/>
  <path id="polygon134" d="m307.76 275 2.5-5-2.5-5 10 5z" stroke="#000" stroke-width="2" fill="none"/>
 </g>
 <g id="g136" transform="translate(-1.325 -6.927)">
  <path id="path138" d="m360 310c40 0 0-40 30.264-40" stroke="#c00" stroke-width="2" fill="none"/>
  <path id="polygon140" fill="#c00" d="m387.76 275 2.5-5-2.5-5 10 5z"/>
  <path id="polygon142" d="m387.76 275 2.5-5-2.5-5 10 5z" stroke="#c00" stroke-width="2" fill="none"/>
 </g>
 <g id="g144" transform="translate(-1.325 -6.927)">
  <path id="path146" d="m100 260c138.3 0 103.01 11.583 129.28 10.853" stroke="#c00" stroke-width="2" fill="none"/>
  <path id="polygon148" fill="#c00" d="m226.92 275.92 2.36-5.068-2.638-4.928 10.135 4.72z"/>
  <path id="polygon150" d="m226.92 275.92 2.36-5.068-2.638-4.928 10.135 4.72z" stroke="#c00" stroke-width="2" fill="none"/>
 </g>
 <path id="line152" d="m398.67 293.07 40 20" stroke="#f00" stroke-width="2" fill="none"/>
 <path id="line154" d="m398.67 313.07 40-20" stroke="#f00" stroke-width="2" fill="none"/>
 <g id="g156" transform="translate(-1.325 -6.927)">
  <path id="rect158" fill="#fff" d="m80 120h20v20h-20z"/>
  <path id="rect160" d="m80 120h20v20h-20z" stroke="#000" stroke-width="2" fill="none"/>
 </g>
 <g id="text162">
  <path id="path154" style="" d="m79.419 146.28v1.0875q-0.4875-0.25-1.0125-0.375t-1.0875-0.125q-0.85625 0-1.2875 0.2625-0.425 0.2625-0.425 0.7875 0 0.4 0.30625 0.63125 0.30625 0.225 1.2312 0.43125l0.39375 0.0875q1.225 0.2625 1.7375 0.74375 0.51875 0.475 0.51875 1.3312 0 0.975-0.775 1.5438-0.76875 0.56875-2.1188 0.56875-0.5625 0-1.175-0.1125-0.60625-0.10625-1.2812-0.325v-1.1875q0.6375 0.33125 1.2562 0.5 0.61875 0.1625 1.225 0.1625 0.8125 0 1.25-0.275 0.4375-0.28125 0.4375-0.7875 0-0.46875-0.31875-0.71875-0.3125-0.25-1.3812-0.48125l-0.4-0.0937q-1.0688-0.225-1.5438-0.6875-0.475-0.46875-0.475-1.2812 0-0.9875 0.7-1.525t1.9875-0.5375q0.6375 0 1.2 0.0937t1.0375 0.28125z"/>
  <path id="path156" style="" d="m82.769 144.09v1.9875h2.3688v0.89375h-2.3688v3.8q0 0.85625 0.23125 1.1 0.2375 0.24375 0.95625 0.24375h1.1812v0.9625h-1.1812q-1.3312 0-1.8375-0.49375-0.50625-0.5-0.50625-1.8125v-3.8h-0.84375v-0.89375h0.84375v-1.9875h1.1562z"/>
  <path id="path158" style="" d="m89.838 149.55q-1.3938 0-1.9312 0.31875-0.5375 0.31875-0.5375 1.0875 0 0.6125 0.4 0.975 0.40625 0.35625 1.1 0.35625 0.95625 0 1.5312-0.675 0.58125-0.68125 0.58125-1.8062v-0.25625h-1.1438zm2.2938-0.475v3.9938h-1.15v-1.0625q-0.39375 0.6375-0.98125 0.94375-0.5875 0.3-1.4375 0.3-1.075 0-1.7125-0.6-0.63125-0.60625-0.63125-1.6188 0-1.1812 0.7875-1.7812 0.79375-0.6 2.3625-0.6h1.6125v-0.1125q0-0.79375-0.525-1.225-0.51875-0.4375-1.4625-0.4375-0.6 0-1.1688 0.14375-0.56875 0.14375-1.0938 0.43125v-1.0625q0.63125-0.24375 1.225-0.3625 0.59375-0.125 1.1562-0.125 1.5188 0 2.2688 0.7875t0.75 2.3875z"/>
  <path id="path160" style="" d="m98.563 147.15q-0.19375-0.1125-0.425-0.1625-0.225-0.0563-0.5-0.0563-0.975 0-1.5 0.6375-0.51875 0.63125-0.51875 1.8188v3.6875h-1.1562v-7h1.1562v1.0875q0.3625-0.6375 0.94375-0.94375 0.58125-0.3125 1.4125-0.3125 0.11875 0 0.2625 0.0188 0.14375 0.0125 0.31875 0.0437l0.0062 1.1812z"/>
  <path id="path162" style="" d="m100.92 144.09v1.9875h2.3688v0.89375h-2.3688v3.8q0 0.85625 0.23125 1.1 0.2375 0.24375 0.95625 0.24375h1.1812v0.9625h-1.1812q-1.3312 0-1.8375-0.49375-0.50625-0.5-0.50625-1.8125v-3.8h-0.84375v-0.89375h0.84375v-1.9875h1.1562z"/>
 </g>
 <g id="g166" transform="translate(-1.325 -6.927)">
  <path id="rect168" fill="#fff" d="m80 250h20v20h-20z"/>
  <path id="rect170" d="m80 250h20v20h-20z" stroke="#c00" stroke-width="2" fill="none"/>
 </g>
 <g id="text172">
  <path id="path167" style="" d="m69 280.31v-4.2375h1.15v4.1938q0 0.99375 0.3875 1.4938 0.3875 0.49375 1.1625 0.49375 0.93125 0 1.4688-0.59375 0.54375-0.59375 0.54375-1.6188v-3.9688h1.15v7h-1.15v-1.075q-0.41875 0.6375-0.975 0.95-0.55 0.30625-1.2812 0.30625-1.2062 0-1.8312-0.75t-0.625-2.1938zm2.8938-4.4062z"/>
  <path id="path169" style="" d="m77.244 276.07h1.15v7.125q0 1.3375-0.5125 1.9375-0.50625 0.6-1.6375 0.6h-0.4375v-0.975h0.30625q0.65625 0 0.89375-0.30625 0.2375-0.3 0.2375-1.2562v-7.125zm0-2.725h1.15v1.4562h-1.15v-1.4562z"/>
  <path id="path171" style="" d="m85.256 276.28v1.0875q-0.4875-0.25-1.0125-0.375t-1.0875-0.125q-0.85625 0-1.2875 0.2625-0.425 0.2625-0.425 0.7875 0 0.4 0.30625 0.63125 0.30625 0.225 1.2312 0.43125l0.39375 0.0875q1.225 0.2625 1.7375 0.74375 0.51875 0.475 0.51875 1.3312 0 0.975-0.775 1.5438-0.76875 0.56875-2.1188 0.56875-0.5625 0-1.175-0.1125-0.60625-0.10625-1.2812-0.325v-1.1875q0.6375 0.33125 1.2562 0.5 0.61875 0.1625 1.225 0.1625 0.8125 0 1.25-0.275 0.4375-0.28125 0.4375-0.7875 0-0.46875-0.31875-0.71875-0.3125-0.25-1.3812-0.48125l-0.4-0.0937q-1.0688-0.225-1.5438-0.6875-0.475-0.46875-0.475-1.2812 0-0.9875 0.7-1.525t1.9875-0.5375q0.6375 0 1.2 0.0937t1.0375 0.28125z"/>
  <path id="path173" style="" d="m88.606 274.09v1.9875h2.3688v0.89375h-2.3688v3.8q0 0.85625 0.23125 1.1 0.2375 0.24375 0.95625 0.24375h1.1812v0.9625h-1.1812q-1.3312 0-1.8375-0.49375-0.50625-0.5-0.50625-1.8125v-3.8h-0.84375v-0.89375h0.84375v-1.9875h1.1562z"/>
  <path id="path175" style="" d="m95.675 279.55q-1.3938 0-1.9312 0.31875-0.5375 0.31875-0.5375 1.0875 0 0.6125 0.4 0.975 0.40625 0.35625 1.1 0.35625 0.95625 0 1.5312-0.675 0.58125-0.68125 0.58125-1.8062v-0.25625h-1.1438zm2.2938-0.475v3.9938h-1.15v-1.0625q-0.39375 0.6375-0.98125 0.94375-0.5875 0.3-1.4375 0.3-1.075 0-1.7125-0.6-0.63125-0.60625-0.63125-1.6188 0-1.1812 0.7875-1.7812 0.79375-0.6 2.3625-0.6h1.6125v-0.1125q0-0.79375-0.525-1.225-0.51875-0.4375-1.4625-0.4375-0.6 0-1.1688 0.14375-0.56875 0.14375-1.0938 0.43125v-1.0625q0.63125-0.24375 1.225-0.3625 0.59375-0.125 1.1562-0.125 1.5188 0 2.2688 0.7875t0.75 2.3875z"/>
  <path id="path177" style="" d="m104.4 277.15q-0.19375-0.1125-0.425-0.1625-0.225-0.0563-0.5-0.0563-0.975 0-1.5 0.6375-0.51875 0.63125-0.51875 1.8188v3.6875h-1.1562v-7h1.1562v1.0875q0.3625-0.6375 0.94375-0.94375 0.58125-0.3125 1.4125-0.3125 0.11875 0 0.2625 0.0188 0.14375 0.0125 0.31875 0.0437l0.006 1.1812z"/>
  <path id="path179" style="" d="m106.76 274.09v1.9875h2.3688v0.89375h-2.3688v3.8q0 0.85625 0.23125 1.1 0.2375 0.24375 0.95625 0.24375h1.1812v0.9625h-1.1812q-1.3312 0-1.8375-0.49375-0.50625-0.5-0.50625-1.8125v-3.8h-0.84375v-0.89375h0.84375v-1.9875h1.1562z"/>
 </g>
</svg>
