<?xml version="1.0" encoding="UTF-8"?>
<svg id="svg215" width="27.966cm" height="18.248cm" version="1.1" viewBox="261 -81 549.33 346.71" xmlns="http://www.w3.org/2000/svg" xmlns:cc="http://creativecommons.org/ns#" xmlns:dc="http://purl.org/dc/elements/1.1/" xmlns:rdf="http://www.w3.org/1999/02/22-rdf-syntax-ns#">
 <metadata id="metadata221">
  <rdf:RDF>
   <cc:Work rdf:about="">
    <dc:format>image/svg+xml</dc:format>
    <dc:type rdf:resource="http://purl.org/dc/dcmitype/StillImage"/>
   </cc:Work>
  </rdf:RDF>
 </metadata>
 <g id="Háttér" transform="translate(-.67486 -5.8653)">
  <g id="g8">
   <path id="rect2" d="m300 200h40v40h-40z" fill="#ff0" stroke="#000" stroke-width="2"/>
   <g id="text6" aria-label="3.4">
    <path id="path920" d="m313.83 218.61q1.119 0.23922 1.744 0.99549 0.6328 0.75626 0.6328 1.8675 0 1.7055-1.173 2.6392-1.173 0.93376-3.3337 0.93376-0.72539 0-1.4971-0.14662-0.76399-0.13891-1.582-0.42444v-1.5048q0.64823 0.37813 1.4199 0.57106 0.7717 0.19292 1.6128 0.19292 1.4662 0 2.2302-0.57877 0.7717-0.57878 0.7717-1.6823 0-1.0186-0.71768-1.5897-0.70996-0.57877-1.9833-0.57877h-1.3428v-1.281h1.4045q1.1498 0 1.7595-0.45531 0.60965-0.46302 0.60965-1.3273 0-0.88745-0.6328-1.3582-0.62507-0.47845-1.7981-0.47845-0.64051 0-1.3736 0.1389-0.73312 0.13891-1.6128 0.43215v-1.389q0.88745-0.24695 1.6592-0.37042 0.77942-0.12347 1.4662-0.12347 1.7749 0 2.809 0.81028 1.0341 0.80257 1.0341 2.1762 0 0.95691-0.5479 1.6206-0.54791 0.65595-1.5588 0.91061z" style=""/>
    <path id="path922" d="m319.17 222.86h1.6283v1.9601h-1.6283z" style=""/>
    <path id="path924" d="m328.49 214.66-3.9357 6.1504h3.9357zm-0.409-1.3582h1.9601v7.5086h1.6437v1.2964h-1.6437v2.7164h-1.5511v-2.7164h-5.2012v-1.5048z" style=""/>
   </g>
  </g>
  <g id="g16">
   <path id="rect10" d="m340 200h40v40h-40z" fill="#ff0" stroke="#000" stroke-width="2"/>
   <g id="text14" aria-label="8.5">
    <path id="path928" d="m352.45 219.35q-1.1112 0-1.7518 0.59421-0.6328 0.59421-0.6328 1.636t0.6328 1.636q0.64051 0.59421 1.7518 0.59421 1.1112 0 1.7518-0.59421 0.64051-0.60192 0.64051-1.636 0-1.0418-0.64051-1.636-0.63279-0.59421-1.7518-0.59421zm-1.5588-0.66366q-1.0032-0.24695-1.5666-0.93376-0.55562-0.68681-0.55562-1.6746 0-1.3813 0.98006-2.1839 0.98777-0.80256 2.7009-0.80256 1.7209 0 2.701 0.80256 0.98006 0.80257 0.98006 2.1839 0 0.98778-0.56334 1.6746-0.55562 0.68681-1.5511 0.93376 1.1267 0.26238 1.7518 1.0264 0.63279 0.76398 0.63279 1.8675 0 1.6746-1.0264 2.5698-1.0186 0.89517-2.9247 0.89517-1.9061 0-2.9324-0.89517-1.0186-0.89517-1.0186-2.5698 0-1.1035 0.6328-1.8675 0.63279-0.76398 1.7595-1.0264zm-0.57106-2.4617q0 0.89517 0.55563 1.3968 0.56334 0.50161 1.5743 0.50161 1.0032 0 1.5666-0.50161 0.57106-0.5016 0.57106-1.3968t-0.57106-1.3968q-0.56334-0.5016-1.5666-0.5016-1.0109 0-1.5743 0.5016-0.55563 0.50161-0.55563 1.3968z" style=""/>
    <path id="path930" d="m359.17 222.86h1.6283v1.9601h-1.6283z" style=""/>
    <path id="path932" d="m364.22 213.3h6.1196v1.3119h-4.6919v2.8244q0.33955-0.11575 0.67909-0.16977 0.33955-0.0617 0.6791-0.0617 1.9292 0 3.0559 1.0572t1.1267 2.863q0 1.8598-1.1576 2.8939-1.1576 1.0264-3.2643 1.0264-0.7254 0-1.4817-0.12347-0.74855-0.12347-1.5511-0.37042v-1.5666q0.69453 0.37813 1.4354 0.56334 0.74084 0.18521 1.5666 0.18521 1.335 0 2.1145-0.70225 0.77942-0.70224 0.77942-1.9061t-0.77942-1.9061-2.1145-0.70225q-0.62507 0-1.2502 0.13891-0.61736 0.13891-1.2656 0.43215z" style=""/>
   </g>
  </g>
  <g id="g24">
   <path id="rect18" d="m380 200h40v40h-40z" fill="#ff0" stroke="#000" stroke-width="2"/>
   <g id="text22" aria-label="4.6">
    <path id="path936" d="m393.39 214.66-3.9357 6.1504h3.9357zm-0.409-1.3582h1.9601v7.5086h1.6437v1.2964h-1.6437v2.7164h-1.5511v-2.7164h-5.2012v-1.5048z" style=""/>
    <path id="path938" d="m399.17 222.86h1.6283v1.9601h-1.6283z" style=""/>
    <path id="path940" d="m407.73 218.44q-1.0495 0-1.6669 0.71768-0.60965 0.71768-0.60965 1.9678 0 1.2424 0.60965 1.9678 0.61735 0.71768 1.6669 0.71768 1.0495 0 1.6592-0.71768 0.61736-0.7254 0.61736-1.9678 0-1.2502-0.61736-1.9678-0.60964-0.71768-1.6592-0.71768zm3.0945-4.8848v1.4199q-0.58649-0.27781-1.1884-0.42443-0.59421-0.14662-1.1807-0.14662-1.5434 0-2.3614 1.0418-0.81028 1.0418-0.92604 3.1485 0.45531-0.67137 1.1421-1.0264 0.68681-0.3627 1.5125-0.3627 1.7363 0 2.7395 1.0572 1.0109 1.0495 1.0109 2.863 0 1.7749-1.0495 2.8476t-2.7936 1.0727q-1.9987 0-3.0559-1.528-1.0572-1.5357-1.0572-4.445 0-2.7318 1.2964-4.3524 1.2965-1.6283 3.4804-1.6283 0.58649 0 1.1807 0.11575 0.60192 0.11576 1.2502 0.34727z" style=""/>
   </g>
  </g>
  <g id="g32">
   <path id="rect26" d="m420 200h40v40h-40z" fill="#ff0" stroke="#000" stroke-width="2"/>
   <g id="text30" aria-label="9.1">
    <path id="path944" d="m429.16 224.58v-1.4199q0.58649 0.27781 1.1884 0.42444 0.60193 0.14662 1.1807 0.14662 1.5434 0 2.3537-1.0341 0.818-1.0418 0.93375-3.1562-0.44758 0.66366-1.1344 1.0186-0.68681 0.35498-1.5202 0.35498-1.7286 0-2.7395-1.0418-1.0032-1.0495-1.0032-2.863 0-1.7749 1.0495-2.8476 1.0495-1.0727 2.7936-1.0727 1.9987 0 3.0482 1.5357 1.0572 1.528 1.0572 4.445 0 2.7241-1.2965 4.3524-1.2887 1.6206-3.4726 1.6206-0.5865 0-1.1884-0.11576-0.60193-0.11575-1.2502-0.34726zm3.1022-4.8849q1.0495 0 1.6592-0.71768 0.61736-0.71768 0.61736-1.9678 0-1.2424-0.61736-1.9601-0.60964-0.72539-1.6592-0.72539t-1.6669 0.72539q-0.60965 0.71768-0.60965 1.9601 0 1.2502 0.60965 1.9678 0.61736 0.71768 1.6669 0.71768z" style=""/>
    <path id="path946" d="m439.17 222.86h1.6283v1.9601h-1.6283z" style=""/>
    <path id="path948" d="m444.48 223.51h2.5466v-8.7897l-2.7704 0.55563v-1.4199l2.755-0.55562h1.5588v10.21h2.5466v1.3119h-6.6366z" style=""/>
   </g>
  </g>
  <g id="g40">
   <path id="rect34" d="m460 200h40v40h-40z" fill="#ff0" stroke="#000" stroke-width="2"/>
   <g id="text38" aria-label="1.2">
    <path id="path952" d="m469.38 223.51h2.5466v-8.7897l-2.7704 0.55563v-1.4199l2.755-0.55562h1.5588v10.21h2.5466v1.3119h-6.6366z" style=""/>
    <path id="path954" d="m479.17 222.86h1.6283v1.9601h-1.6283z" style=""/>
    <path id="path956" d="m485.55 223.51h5.4405v1.3119h-7.3157v-1.3119q0.88745-0.91832 2.4154-2.4617 1.5357-1.5511 1.9292-1.9987 0.74855-0.84116 1.0418-1.4199 0.30096-0.58649 0.30096-1.1498 0-0.91832-0.64823-1.4971-0.64051-0.57877-1.6746-0.57877-0.73312 0-1.5511 0.25466-0.81028 0.25466-1.7363 0.7717v-1.5743q0.94147-0.37813 1.7595-0.57106 0.818-0.19292 1.4971-0.19292 1.7903 0 2.8553 0.89517 1.0649 0.89517 1.0649 2.3923 0 0.70996-0.27009 1.3505-0.26238 0.63279-0.96463 1.4971-0.19292 0.22379-1.227 1.2964-1.0341 1.065-2.917 2.9865z" style=""/>
   </g>
  </g>
  <g id="text46" aria-label="szamokdouble[5]">
   <path id="path959" d="m376.76 247.21v1.3428q-0.60193-0.30868-1.2502-0.46302-0.64822-0.15434-1.3428-0.15434-1.0572 0-1.5897 0.32411-0.52476 0.32411-0.52476 0.97234 0 0.49389 0.37813 0.77942 0.37814 0.27781 1.5202 0.53247l0.48617 0.10804q1.5125 0.32411 2.1453 0.91832 0.64051 0.58649 0.64051 1.6437 0 1.2038-0.95691 1.9061-0.94919 0.70224-2.6161 0.70224-0.69453 0-1.4508-0.1389-0.74854-0.13119-1.582-0.40129v-1.4662q0.78713 0.40901 1.5511 0.61736 0.76398 0.20065 1.5125 0.20065 1.0032 0 1.5434-0.33955 0.54019-0.34727 0.54019-0.97234 0-0.57878-0.39356-0.88746-0.38585-0.30868-1.7055-0.59421l-0.49389-0.11575q-1.3196-0.27781-1.9061-0.84887-0.58649-0.57877-0.58649-1.582 0-1.2193 0.8643-1.883t2.454-0.66366q0.78714 0 1.4817 0.11575 0.69452 0.11576 1.281 0.34727z" style=""/>
   <path id="path961" d="m378.88 246.95h6.7446v1.2964l-5.3402 6.2122h5.3402v1.1344h-6.9376v-1.2964l5.3402-6.2122h-5.1472z" style=""/>
   <path id="path963" d="m391.73 251.25q-1.7209 0-2.3846 0.39357t-0.66366 1.3428q0 0.75626 0.49389 1.2038 0.5016 0.43987 1.3582 0.43987 1.1807 0 1.8907-0.83344 0.71768-0.84115 0.71768-2.2302v-0.3164zm2.8321-0.58649v4.9312h-1.4199v-1.3119q-0.48617 0.78713-1.2116 1.1653-0.7254 0.37041-1.7749 0.37041-1.3273 0-2.1145-0.74083-0.77942-0.74855-0.77942-1.9987 0-1.4585 0.97235-2.1993 0.98005-0.74083 2.917-0.74083h1.991v-0.13891q0-0.98006-0.64822-1.5125-0.64051-0.54019-1.8058-0.54019-0.74083 0-1.4431 0.17749-0.70224 0.17749-1.3505 0.53247v-1.3119q0.77941-0.30097 1.5125-0.44759 0.73311-0.15434 1.4276-0.15434 1.8752 0 2.8013 0.97234t0.92604 2.9479z" style=""/>
   <path id="path965" d="m404.22 248.61q0.53248-0.95691 1.2733-1.4122t1.744-0.4553q1.3505 0 2.0836 0.94919 0.73311 0.94147 0.73311 2.6855v5.2167h-1.4276v-5.1704q0-1.2424-0.43987-1.8444-0.43987-0.60192-1.3428-0.60192-1.1035 0-1.744 0.73311-0.64051 0.73312-0.64051 1.9987v4.8849h-1.4276v-5.1704q0-1.2502-0.43987-1.8444-0.43987-0.60192-1.3582-0.60192-1.0881 0-1.7286 0.74083-0.64051 0.73311-0.64051 1.991v4.8849h-1.4276v-8.643h1.4276v1.3428q0.48617-0.79485 1.1653-1.173 0.67909-0.37813 1.6128-0.37813 0.94147 0 1.5974 0.47845 0.66366 0.47846 0.98005 1.3891z" style=""/>
   <path id="path967" d="m416.24 247.95q-1.1421 0-1.8058 0.89517-0.66366 0.88746-0.66366 2.4386 0 1.5511 0.65595 2.4463 0.66366 0.88745 1.8135 0.88745 1.1344 0 1.7981-0.89517t0.66366-2.4386q0-1.5357-0.66366-2.4308-0.66366-0.90289-1.7981-0.90289zm0-1.2038q1.8521 0 2.9093 1.2038 1.0572 1.2038 1.0572 3.3337 0 2.1222-1.0572 3.3337-1.0572 1.2038-2.9093 1.2038-1.8598 0-2.917-1.2038-1.0495-1.2116-1.0495-3.3337 0-2.1299 1.0495-3.3337 1.0572-1.2038 2.917-1.2038z" style=""/>
   <path id="path969" d="m422.5 243.59h1.4276v7.0919l4.2366-3.7273h1.8135l-4.5839 4.0437 4.7768 4.5993h-1.8521l-4.391-4.2212v4.2212h-1.4276z" style=""/>
   <path id="path971" d="m369.04 268.02v-4.6765h1.4199v12.008h-1.4199v-1.2965q-0.44759 0.7717-1.1344 1.1498-0.6791 0.37042-1.636 0.37042-1.5666 0-2.5543-1.2502-0.98006-1.2502-0.98006-3.2874 0-2.0373 0.98006-3.2874 0.98778-1.2502 2.5543-1.2502 0.9569 0 1.636 0.37813 0.68681 0.37041 1.1344 1.1421zm-4.8386 3.0174q0 1.5666 0.64051 2.4617 0.64823 0.88745 1.7749 0.88745t1.7749-0.88745q0.64823-0.89517 0.64823-2.4617t-0.64823-2.454q-0.64823-0.89517-1.7749-0.89517t-1.7749 0.89517q-0.64051 0.88746-0.64051 2.454z" style=""/>
   <path id="path973" d="m376.73 267.71q-1.1421 0-1.8058 0.89517-0.66366 0.88745-0.66366 2.4386 0 1.5511 0.65594 2.4463 0.66367 0.88746 1.8135 0.88746 1.1344 0 1.7981-0.89517t0.66366-2.4386q0-1.5357-0.66366-2.4308-0.66366-0.90289-1.7981-0.90289zm0-1.2038q1.8521 0 2.9093 1.2038 1.0572 1.2038 1.0572 3.3337 0 2.1222-1.0572 3.3337-1.0572 1.2038-2.9093 1.2038-1.8598 0-2.917-1.2038-1.0495-1.2116-1.0495-3.3337 0-2.1299 1.0495-3.3337 1.0572-1.2038 2.917-1.2038z" style=""/>
   <path id="path975" d="m382.9 271.94v-5.2321h1.4199v5.1781q0 1.227 0.47845 1.8444 0.47846 0.60964 1.4354 0.60964 1.1498 0 1.8135-0.73311 0.67138-0.73312 0.67138-1.9987v-4.9003h1.4199v8.643h-1.4199v-1.3273q-0.51704 0.78714-1.2038 1.173-0.6791 0.37813-1.582 0.37813-1.4894 0-2.2611-0.92604t-0.7717-2.7087zm3.573-5.4405z" style=""/>
   <path id="path977" d="m399.28 271.04q0-1.5666-0.64823-2.454-0.64051-0.89517-1.7672-0.89517t-1.7749 0.89517q-0.64051 0.88746-0.64051 2.454t0.64051 2.4617q0.64823 0.88745 1.7749 0.88745t1.7672-0.88745q0.64823-0.89517 0.64823-2.4617zm-4.8308-3.0174q0.44759-0.7717 1.1267-1.1421 0.68682-0.37813 1.636-0.37813 1.5743 0 2.5543 1.2502 0.98778 1.2502 0.98778 3.2874 0 2.0373-0.98778 3.2874-0.98006 1.2502-2.5543 1.2502-0.94919 0-1.636-0.37042-0.67909-0.37813-1.1267-1.1498v1.2965h-1.4276v-12.008h1.4276z" style=""/>
   <path id="path979" d="m403.11 263.35h1.4199v12.008h-1.4199z" style=""/>
   <path id="path981" d="m414.89 270.68v0.69453h-6.5286q0.0926 1.4662 0.87974 2.2379 0.79485 0.76398 2.2071 0.76398 0.818 0 1.582-0.20064 0.7717-0.20064 1.528-0.60193v1.3428q-0.76398 0.32411-1.5666 0.49389-0.80257 0.16977-1.6283 0.16977-2.0682 0-3.2797-1.2038-1.2038-1.2038-1.2038-3.2566 0-2.1222 1.1421-3.3646 1.1498-1.2502 3.0945-1.2502 1.744 0 2.755 1.1267 1.0186 1.119 1.0186 3.0482zm-1.4199-0.41672q-0.0154-1.1653-0.65594-1.8598-0.6328-0.69453-1.6823-0.69453-1.1884 0-1.9061 0.67138-0.70997 0.67137-0.818 1.8907z" style=""/>
   <path id="path983" d="m417.09 263.35h3.272v1.1035h-1.8521v11.884h1.8521v1.1035h-3.272z" style=""/>
   <path id="path985" d="m423.61 263.83h6.1196v1.3119h-4.6919v2.8244q0.33955-0.11576 0.6791-0.16978 0.33955-0.0617 0.67909-0.0617 1.9292 0 3.0559 1.0572 1.1267 1.0572 1.1267 2.863 0 1.8598-1.1576 2.8939-1.1575 1.0264-3.2643 1.0264-0.7254 0-1.4817-0.12347-0.74854-0.12347-1.5511-0.37042v-1.5666q0.69453 0.37814 1.4354 0.56334 0.74083 0.18521 1.5666 0.18521 1.335 0 2.1144-0.70225 0.77942-0.70224 0.77942-1.9061t-0.77942-1.9061q-0.77941-0.70225-2.1144-0.70225-0.62508 0-1.2502 0.13891-0.61736 0.13891-1.2656 0.43215z" style=""/>
   <path id="path987" d="m436.77 263.35v14.091h-3.272v-1.1035h1.8444v-11.884h-1.8444v-1.1035z" style=""/>
  </g>
  <g id="g54">
   <path id="rect48" d="m560 200h40v40h-40z" fill="#ff0" stroke="#000" stroke-width="2"/>
  </g>
  <g id="g62">
   <path id="rect56" d="m680 200h40v40h-40z" fill="#ff0" stroke="#000" stroke-width="2"/>
   <g id="text60" aria-label="3">
    <path id="path993" d="m701.38 218.61q1.119 0.23922 1.744 0.99549 0.6328 0.75626 0.6328 1.8675 0 1.7055-1.173 2.6392-1.173 0.93376-3.3337 0.93376-0.7254 0-1.4971-0.14662-0.76399-0.13891-1.582-0.42444v-1.5048q0.64823 0.37813 1.4199 0.57106 0.7717 0.19292 1.6128 0.19292 1.4662 0 2.2302-0.57877 0.7717-0.57878 0.7717-1.6823 0-1.0186-0.71768-1.5897-0.70996-0.57877-1.9833-0.57877h-1.3428v-1.281h1.4045q1.1498 0 1.7595-0.45531 0.60965-0.46302 0.60965-1.3273 0-0.88745-0.6328-1.3582-0.62507-0.47845-1.7981-0.47845-0.64051 0-1.3736 0.1389-0.73312 0.13891-1.6128 0.43215v-1.389q0.88745-0.24695 1.6592-0.37042 0.77942-0.12347 1.4662-0.12347 1.7749 0 2.809 0.81028 1.0341 0.80257 1.0341 2.1762 0 0.95691-0.54791 1.6206-0.5479 0.65595-1.5588 0.91061z" style=""/>
   </g>
  </g>
  <g id="text68" aria-label="ujdouble*">
   <path id="path996" d="m574.14 252.19v-5.2321h1.4199v5.1781q0 1.227 0.47846 1.8444 0.47845 0.60964 1.4354 0.60964 1.1498 0 1.8135-0.73311 0.67138-0.73311 0.67138-1.9987v-4.9003h1.4199v8.643h-1.4199v-1.3273q-0.51704 0.78713-1.2038 1.173-0.6791 0.37813-1.582 0.37813-1.4894 0-2.2611-0.92604-0.7717-0.92604-0.7717-2.7087zm3.573-5.4405z" style=""/>
   <path id="path998" d="m584.31 246.95h1.4199v8.7974q0 1.6514-0.6328 2.3923-0.62507 0.74083-2.0218 0.74083h-0.54019v-1.2038h0.37813q0.81029 0 1.1035-0.37813 0.29325-0.37042 0.29325-1.5511zm0-3.3646h1.4199v1.7981h-1.4199z" style=""/>
   <path id="path1000" d="m556.29 268.02v-4.6765h1.4199v12.008h-1.4199v-1.2965q-0.44759 0.7717-1.1344 1.1498-0.67909 0.37042-1.636 0.37042-1.5666 0-2.5543-1.2502-0.98005-1.2502-0.98005-3.2874 0-2.0373 0.98005-3.2874 0.98778-1.2502 2.5543-1.2502 0.95691 0 1.636 0.37813 0.68681 0.37041 1.1344 1.1421zm-4.8386 3.0174q0 1.5666 0.64051 2.4617 0.64822 0.88745 1.7749 0.88745t1.7749-0.88745q0.64823-0.89517 0.64823-2.4617t-0.64823-2.454q-0.64823-0.89517-1.7749-0.89517t-1.7749 0.89517q-0.64051 0.88746-0.64051 2.454z" style=""/>
   <path id="path1002" d="m563.99 267.71q-1.1421 0-1.8058 0.89517-0.66366 0.88745-0.66366 2.4386 0 1.5511 0.65595 2.4463 0.66366 0.88746 1.8135 0.88746 1.1344 0 1.7981-0.89517t0.66366-2.4386q0-1.5357-0.66366-2.4308-0.66366-0.90289-1.7981-0.90289zm0-1.2038q1.8521 0 2.9093 1.2038 1.0572 1.2038 1.0572 3.3337 0 2.1222-1.0572 3.3337-1.0572 1.2038-2.9093 1.2038-1.8598 0-2.917-1.2038-1.0495-1.2116-1.0495-3.3337 0-2.1299 1.0495-3.3337 1.0572-1.2038 2.917-1.2038z" style=""/>
   <path id="path1004" d="m570.15 271.94v-5.2321h1.4199v5.1781q0 1.227 0.47846 1.8444 0.47845 0.60964 1.4354 0.60964 1.1498 0 1.8135-0.73311 0.67138-0.73312 0.67138-1.9987v-4.9003h1.4199v8.643h-1.4199v-1.3273q-0.51704 0.78714-1.2038 1.173-0.6791 0.37813-1.582 0.37813-1.4894 0-2.2611-0.92604t-0.7717-2.7087zm3.573-5.4405z" style=""/>
   <path id="path1006" d="m586.54 271.04q0-1.5666-0.64822-2.454-0.64052-0.89517-1.7672-0.89517t-1.7749 0.89517q-0.64051 0.88746-0.64051 2.454t0.64051 2.4617q0.64822 0.88745 1.7749 0.88745t1.7672-0.88745q0.64822-0.89517 0.64822-2.4617zm-4.8308-3.0174q0.44758-0.7717 1.1267-1.1421 0.68681-0.37813 1.636-0.37813 1.5743 0 2.5543 1.2502 0.98778 1.2502 0.98778 3.2874 0 2.0373-0.98778 3.2874-0.98005 1.2502-2.5543 1.2502-0.94919 0-1.636-0.37042-0.6791-0.37813-1.1267-1.1498v1.2965h-1.4276v-12.008h1.4276z" style=""/>
   <path id="path1008" d="m590.36 263.35h1.4199v12.008h-1.4199z" style=""/>
   <path id="path1010" d="m602.14 270.68v0.69453h-6.5286q0.0926 1.4662 0.87973 2.2379 0.79485 0.76398 2.2071 0.76398 0.818 0 1.582-0.20064 0.7717-0.20064 1.528-0.60193v1.3428q-0.76398 0.32411-1.5666 0.49389-0.80257 0.16977-1.6283 0.16977-2.0682 0-3.2797-1.2038-1.2038-1.2038-1.2038-3.2566 0-2.1222 1.1421-3.3646 1.1498-1.2502 3.0945-1.2502 1.744 0 2.755 1.1267 1.0186 1.119 1.0186 3.0482zm-1.4199-0.41672q-0.0154-1.1653-0.65595-1.8598-0.63279-0.69453-1.6823-0.69453-1.1884 0-1.9061 0.67138-0.70996 0.67137-0.818 1.8907z" style=""/>
   <path id="path1012" d="m610.41 265.73-2.7704 1.4971 2.7704 1.5048-0.44759 0.75626-2.5929-1.5666v2.9093h-0.87973v-2.9093l-2.5929 1.5666-0.44759-0.75626 2.7704-1.5048-2.7704-1.4971 0.44759-0.76398 2.5929 1.5665v-2.9093h0.87973v2.9093l2.5929-1.5665z" style=""/>
  </g>
  <g id="text74" aria-label="dbint">
   <path id="path1015" d="m697.14 248.27v-4.6765h1.4199v12.008h-1.4199v-1.2964q-0.44758 0.77169-1.1344 1.1498-0.67909 0.37041-1.636 0.37041-1.5666 0-2.5543-1.2502-0.98006-1.2502-0.98006-3.2874 0-2.0373 0.98006-3.2874 0.98777-1.2502 2.5543-1.2502 0.95691 0 1.636 0.37813 0.68682 0.37042 1.1344 1.1421zm-4.8386 3.0173q0 1.5666 0.64051 2.4617 0.64823 0.88746 1.7749 0.88746t1.7749-0.88746q0.64822-0.89517 0.64822-2.4617t-0.64822-2.454q-0.64823-0.89517-1.7749-0.89517t-1.7749 0.89517q-0.64051 0.88745-0.64051 2.454z" style=""/>
   <path id="path1017" d="m707.69 251.28q0-1.5666-0.64823-2.454-0.64051-0.89517-1.7672-0.89517t-1.7749 0.89517q-0.64051 0.88745-0.64051 2.454t0.64051 2.4617q0.64823 0.88746 1.7749 0.88746t1.7672-0.88746q0.64823-0.89517 0.64823-2.4617zm-4.8308-3.0173q0.44759-0.7717 1.1267-1.1421 0.68681-0.37813 1.636-0.37813 1.5743 0 2.5543 1.2502 0.98778 1.2502 0.98778 3.2874 0 2.0373-0.98778 3.2874-0.98006 1.2502-2.5543 1.2502-0.94919 0-1.636-0.37041-0.6791-0.37814-1.1267-1.1498v1.2964h-1.4276v-12.008h1.4276z" style=""/>
   <path id="path1019" d="m691.18 266.71h1.4199v8.643h-1.4199zm0-3.3646h1.4199v1.7981h-1.4199z" style=""/>
   <path id="path1021" d="m702.75 270.14v5.2167h-1.4199v-5.1704q0-1.227-0.47845-1.8366t-1.4354-0.60964q-1.1498 0-1.8135 0.73311-0.66367 0.73311-0.66367 1.9987v4.8849h-1.4276v-8.643h1.4276v1.3428q0.50933-0.77941 1.1961-1.1653 0.69453-0.38585 1.5974-0.38585 1.4894 0 2.2534 0.92604 0.76398 0.91832 0.76398 2.7087z" style=""/>
   <path id="path1023" d="m707 264.26v2.454h2.9247v1.1035h-2.9247v4.6919q0 1.0572 0.28553 1.3582 0.29325 0.30096 1.1807 0.30096h1.4585v1.1884h-1.4585q-1.6437 0-2.2688-0.60965-0.62508-0.61735-0.62508-2.2379v-4.6919h-1.0418v-1.1035h1.0418v-2.454z" style=""/>
  </g>
  <g id="g82">
   <path id="rect76" d="m320 60h40v40h-40z" fill="#add8e6" stroke="#000" stroke-width="2"/>
  </g>
  <g id="g90">
   <path id="rect84" d="m490-80h40v40h-40z" fill="#90ee90" stroke="#000" stroke-width="2"/>
   <g id="text88" aria-label="3.4">
    <path id="path1029" d="m503.83-61.39q1.119 0.23923 1.744 0.99549 0.6328 0.75626 0.6328 1.8675 0 1.7055-1.173 2.6392-1.173 0.93376-3.3337 0.93376-0.72539 0-1.4971-0.14662-0.76399-0.13891-1.582-0.42444v-1.5048q0.64823 0.37813 1.4199 0.57106t1.6128 0.19292q1.4662 0 2.2302-0.57878 0.7717-0.57877 0.7717-1.6823 0-1.0186-0.71768-1.5897-0.70996-0.57878-1.9833-0.57878h-1.3428v-1.281h1.4045q1.1498 0 1.7595-0.4553 0.60965-0.46302 0.60965-1.3273 0-0.88745-0.6328-1.3582-0.62507-0.47845-1.7981-0.47845-0.64051 0-1.3736 0.13891-0.73312 0.13891-1.6128 0.43215v-1.3891q0.88745-0.24694 1.6592-0.37042 0.77942-0.12347 1.4662-0.12347 1.7749 0 2.809 0.81028 1.0341 0.80257 1.0341 2.1762 0 0.95691-0.5479 1.6206-0.54791 0.65594-1.5588 0.9106z" style=""/>
    <path id="path1031" d="m509.17-57.138h1.6283v1.9601h-1.6283z" style=""/>
    <path id="path1033" d="m518.49-65.341-3.9357 6.1504h3.9357zm-0.409-1.3582h1.9601v7.5086h1.6437v1.2965h-1.6437v2.7164h-1.5511v-2.7164h-5.2012v-1.5048z" style=""/>
   </g>
  </g>
  <g id="g98">
   <path id="rect92" d="m530-80h40v40h-40z" fill="#90ee90" stroke="#000" stroke-width="2"/>
   <g id="text96" aria-label="4.6">
    <path id="path1037" d="m543.39-65.341-3.9357 6.1504h3.9357zm-0.409-1.3582h1.9601v7.5086h1.6437v1.2965h-1.6437v2.7164h-1.5511v-2.7164h-5.2012v-1.5048z" style=""/>
    <path id="path1039" d="m549.17-57.138h1.6283v1.9601h-1.6283z" style=""/>
    <path id="path1041" d="m557.73-61.56q-1.0495 0-1.6669 0.71768-0.60965 0.71768-0.60965 1.9678 0 1.2424 0.60965 1.9678 0.61735 0.71768 1.6669 0.71768 1.0495 0 1.6592-0.71768 0.61736-0.7254 0.61736-1.9678 0-1.2502-0.61736-1.9678-0.60964-0.71768-1.6592-0.71768zm3.0945-4.8849v1.4199q-0.58649-0.27781-1.1884-0.42443-0.59421-0.14662-1.1807-0.14662-1.5434 0-2.3614 1.0418-0.81028 1.0418-0.92604 3.1485 0.45531-0.67138 1.1421-1.0264 0.68681-0.3627 1.5125-0.3627 1.7363 0 2.7395 1.0572 1.0109 1.0495 1.0109 2.863 0 1.7749-1.0495 2.8476t-2.7936 1.0727q-1.9987 0-3.0559-1.528-1.0572-1.5357-1.0572-4.445 0-2.7318 1.2964-4.3524 1.2965-1.6283 3.4804-1.6283 0.58649 0 1.1807 0.11576 0.60192 0.11576 1.2502 0.34726z" style=""/>
   </g>
  </g>
  <g id="g106">
   <path id="rect100" d="m570-80h40v40h-40z" fill="#90ee90" stroke="#000" stroke-width="2"/>
   <g id="text104" aria-label="1.2">
    <path id="path1045" d="m579.38-56.49h2.5466v-8.7897l-2.7704 0.55562v-1.4199l2.755-0.55562h1.5588v10.21h2.5466v1.3119h-6.6366z" style=""/>
    <path id="path1047" d="m589.17-57.138h1.6283v1.9601h-1.6283z" style=""/>
    <path id="path1049" d="m595.55-56.49h5.4405v1.3119h-7.3157v-1.3119q0.88745-0.91832 2.4154-2.4617 1.5357-1.5511 1.9292-1.9987 0.74855-0.84115 1.0418-1.4199 0.30096-0.58649 0.30096-1.1498 0-0.91832-0.64823-1.4971-0.64051-0.57877-1.6746-0.57877-0.73312 0-1.5511 0.25466-0.81028 0.25466-1.7363 0.7717v-1.5743q0.94147-0.37813 1.7595-0.57106t1.4971-0.19292q1.7903 0 2.8553 0.89517 1.0649 0.89517 1.0649 2.3923 0 0.70996-0.27009 1.3505-0.26238 0.63279-0.96463 1.4971-0.19292 0.22379-1.227 1.2965-1.0341 1.0649-2.917 2.9865z" style=""/>
   </g>
  </g>
  <g id="text112" aria-label="eredetidouble*">
   <path id="path1052" d="m320.9 30.921v0.69453h-6.5286q0.0926 1.4662 0.87974 2.2379 0.79485 0.76398 2.2071 0.76398 0.818 0 1.582-0.20064 0.7717-0.20064 1.528-0.60193v1.3428q-0.76398 0.32411-1.5666 0.49389-0.80256 0.16977-1.6283 0.16977-2.0682 0-3.2797-1.2039-1.2038-1.2038-1.2038-3.2566 0-2.1222 1.1421-3.3646 1.1498-1.2502 3.0945-1.2502 1.744 0 2.755 1.1267 1.0186 1.119 1.0186 3.0482zm-1.4199-0.41672q-0.0154-1.1653-0.65595-1.8598-0.63279-0.69453-1.6823-0.69453-1.1884 0-1.9061 0.67138-0.70996 0.67138-0.818 1.8907z" style=""/>
   <path id="path1054" d="m328.24 28.281q-0.23922-0.13891-0.52475-0.20064-0.27781-0.06945-0.61736-0.06945-1.2038 0-1.8521 0.78713-0.64051 0.77942-0.64051 2.2456v4.553h-1.4276v-8.643h1.4276v1.3428q0.44759-0.78713 1.1653-1.1653 0.71768-0.38585 1.744-0.38585 0.14662 0 0.32411 0.02315 0.17749 0.01543 0.39357 0.05402z" style=""/>
   <path id="path1056" d="m336.8 30.921v0.69453h-6.5286q0.0926 1.4662 0.87974 2.2379 0.79485 0.76398 2.2071 0.76398 0.818 0 1.582-0.20064 0.7717-0.20064 1.528-0.60193v1.3428q-0.76398 0.32411-1.5666 0.49389-0.80257 0.16977-1.6283 0.16977-2.0682 0-3.2797-1.2039-1.2038-1.2038-1.2038-3.2566 0-2.1222 1.1421-3.3646 1.1498-1.2502 3.0945-1.2502 1.744 0 2.755 1.1267 1.0186 1.119 1.0186 3.0482zm-1.4199-0.41672q-0.0154-1.1653-0.65594-1.8598-0.6328-0.69453-1.6823-0.69453-1.1884 0-1.9061 0.67138-0.70997 0.67138-0.818 1.8907z" style=""/>
   <path id="path1058" d="m344.82 28.266v-4.6765h1.4199v12.008h-1.4199v-1.2965q-0.44758 0.7717-1.1344 1.1498-0.6791 0.37042-1.636 0.37042-1.5666 0-2.5543-1.2502-0.98006-1.2502-0.98006-3.2874t0.98006-3.2874q0.98777-1.2502 2.5543-1.2502 0.95691 0 1.636 0.37813 0.68681 0.37042 1.1344 1.1421zm-4.8386 3.0173q0 1.5665 0.64051 2.4617 0.64823 0.88745 1.7749 0.88745t1.7749-0.88745q0.64822-0.89517 0.64822-2.4617 0-1.5666-0.64822-2.454-0.64823-0.89517-1.7749-0.89517t-1.7749 0.89517q-0.64051 0.88745-0.64051 2.454z" style=""/>
   <path id="path1060" d="m356.55 30.921v0.69453h-6.5286q0.0926 1.4662 0.87974 2.2379 0.79485 0.76398 2.2071 0.76398 0.818 0 1.582-0.20064 0.7717-0.20064 1.528-0.60193v1.3428q-0.76399 0.32411-1.5666 0.49389-0.80257 0.16977-1.6283 0.16977-2.0682 0-3.2797-1.2039-1.2038-1.2038-1.2038-3.2566 0-2.1222 1.1421-3.3646 1.1498-1.2502 3.0945-1.2502 1.744 0 2.755 1.1267 1.0186 1.119 1.0186 3.0482zm-1.4199-0.41672q-0.0154-1.1653-0.65594-1.8598-0.6328-0.69453-1.6823-0.69453-1.1884 0-1.9061 0.67138-0.70997 0.67138-0.81801 1.8907z" style=""/>
   <path id="path1062" d="m360.29 24.5v2.454h2.9247v1.1035h-2.9247v4.6919q0 1.0572 0.28553 1.3582 0.29325 0.30096 1.1807 0.30096h1.4585v1.1884h-1.4585q-1.6437 0-2.2688-0.60964-0.62508-0.61736-0.62508-2.2379v-4.6919h-1.0418v-1.1035h1.0418v-2.454z" style=""/>
   <path id="path1064" d="m365.09 26.954h1.4199v8.643h-1.4199zm0-3.3646h1.4199v1.7981h-1.4199z" style=""/>
   <path id="path1066" d="m316.29 48.022v-4.6765h1.4199v12.008h-1.4199v-1.2965q-0.44759 0.7717-1.1344 1.1498-0.67909 0.37042-1.636 0.37042-1.5666 0-2.5543-1.2502-0.98005-1.2502-0.98005-3.2874t0.98005-3.2874q0.98778-1.2502 2.5543-1.2502 0.95691 0 1.636 0.37813 0.68681 0.37042 1.1344 1.1421zm-4.8386 3.0173q0 1.5665 0.64051 2.4617 0.64822 0.88745 1.7749 0.88745t1.7749-0.88745q0.64823-0.89517 0.64823-2.4617 0-1.5666-0.64823-2.454-0.64823-0.89517-1.7749-0.89517t-1.7749 0.89517q-0.64051 0.88745-0.64051 2.454z" style=""/>
   <path id="path1068" d="m323.99 47.705q-1.1421 0-1.8058 0.89517-0.66366 0.88745-0.66366 2.4386 0 1.5511 0.65595 2.4463 0.66366 0.88745 1.8135 0.88745 1.1344 0 1.7981-0.89517t0.66366-2.4386q0-1.5357-0.66366-2.4309-0.66366-0.90289-1.7981-0.90289zm0-1.2039q1.8521 0 2.9093 1.2039 1.0572 1.2039 1.0572 3.3337 0 2.1222-1.0572 3.3337-1.0572 1.2039-2.9093 1.2039-1.8598 0-2.917-1.2039-1.0495-1.2116-1.0495-3.3337 0-2.1299 1.0495-3.3337 1.0572-1.2039 2.917-1.2039z" style=""/>
   <path id="path1070" d="m330.15 51.942v-5.2321h1.4199v5.1781q0 1.227 0.47846 1.8444 0.47845 0.60964 1.4354 0.60964 1.1498 0 1.8135-0.73311 0.67138-0.73311 0.67138-1.9987v-4.9003h1.4199v8.643h-1.4199v-1.3273q-0.51704 0.78713-1.2038 1.173-0.6791 0.37813-1.582 0.37813-1.4894 0-2.2611-0.92604t-0.7717-2.7087zm3.573-5.4405z" style=""/>
   <path id="path1072" d="m346.54 51.039q0-1.5666-0.64822-2.454-0.64052-0.89517-1.7672-0.89517t-1.7749 0.89517q-0.64051 0.88745-0.64051 2.454 0 1.5665 0.64051 2.4617 0.64822 0.88745 1.7749 0.88745t1.7672-0.88745q0.64822-0.89517 0.64822-2.4617zm-4.8308-3.0173q0.44758-0.7717 1.1267-1.1421 0.68681-0.37813 1.636-0.37813 1.5743 0 2.5543 1.2502 0.98778 1.2502 0.98778 3.2874t-0.98778 3.2874q-0.98005 1.2502-2.5543 1.2502-0.94919 0-1.636-0.37042-0.6791-0.37813-1.1267-1.1498v1.2965h-1.4276v-12.008h1.4276z" style=""/>
   <path id="path1074" d="m350.36 43.345h1.4199v12.008h-1.4199z" style=""/>
   <path id="path1076" d="m362.14 50.676v0.69453h-6.5286q0.0926 1.4662 0.87973 2.2379 0.79485 0.76398 2.2071 0.76398 0.818 0 1.582-0.20064 0.7717-0.20064 1.528-0.60193v1.3428q-0.76398 0.32411-1.5666 0.49389-0.80257 0.16977-1.6283 0.16977-2.0682 0-3.2797-1.2039-1.2038-1.2038-1.2038-3.2566 0-2.1222 1.1421-3.3646 1.1498-1.2502 3.0945-1.2502 1.744 0 2.755 1.1267 1.0186 1.119 1.0186 3.0482zm-1.4199-0.41672q-0.0154-1.1653-0.65595-1.8598-0.63279-0.69453-1.6823-0.69453-1.1884 0-1.9061 0.67138-0.70996 0.67138-0.818 1.8907z" style=""/>
   <path id="path1078" d="m370.41 45.73-2.7704 1.4971 2.7704 1.5048-0.44759 0.75626-2.5929-1.5665v2.9093h-0.87973v-2.9093l-2.5929 1.5665-0.44759-0.75626 2.7704-1.5048-2.7704-1.4971 0.44759-0.76398 2.5929 1.5665v-2.9093h0.87973v2.9093l2.5929-1.5665z" style=""/>
  </g>
  <g id="g120">
   <path id="rect114" d="m480 60h40v40h-40z" fill="#add8e6" stroke="#000" stroke-width="2"/>
  </g>
  <g id="g128">
   <path id="rect122" d="m560 60h40v40h-40z" fill="#add8e6" stroke="#000" stroke-width="2"/>
  </g>
  <g id="text134" aria-label="ujtombdouble**">
   <path id="path1085" d="m473.48 32.186v-5.2321h1.4199v5.1781q0 1.227 0.47845 1.8444 0.47846 0.60964 1.4354 0.60964 1.1498 0 1.8135-0.73311 0.67138-0.73311 0.67138-1.9987v-4.9003h1.4199v8.643h-1.4199v-1.3273q-0.51704 0.78713-1.2038 1.173-0.6791 0.37813-1.582 0.37813-1.4894 0-2.2611-0.92604t-0.7717-2.7087zm3.573-5.4405z" style=""/>
   <path id="path1087" d="m483.66 26.954h1.4199v8.7974q0 1.6514-0.63279 2.3923-0.62508 0.74083-2.0218 0.74083h-0.54019v-1.2039h0.37813q0.81029 0 1.1035-0.37813 0.29325-0.37042 0.29325-1.5511zm0-3.3646h1.4199v1.7981h-1.4199z" style=""/>
   <path id="path1089" d="m489.45 24.5v2.454h2.9247v1.1035h-2.9247v4.6919q0 1.0572 0.28553 1.3582 0.29325 0.30096 1.1807 0.30096h1.4585v1.1884h-1.4585q-1.6437 0-2.2688-0.60964-0.62507-0.61736-0.62507-2.2379v-4.6919h-1.0418v-1.1035h1.0418v-2.454z" style=""/>
   <path id="path1091" d="m497.6 27.95q-1.1421 0-1.8058 0.89517-0.66366 0.88745-0.66366 2.4386 0 1.5511 0.65594 2.4463 0.66366 0.88745 1.8135 0.88745 1.1344 0 1.7981-0.89517 0.66366-0.89517 0.66366-2.4386 0-1.5357-0.66366-2.4309-0.66367-0.90289-1.7981-0.90289zm0-1.2039q1.8521 0 2.9093 1.2039t1.0572 3.3337q0 2.1222-1.0572 3.3337-1.0572 1.2039-2.9093 1.2039-1.8598 0-2.917-1.2039-1.0495-1.2116-1.0495-3.3337 0-2.1299 1.0495-3.3337 1.0572-1.2039 2.917-1.2039z" style=""/>
   <path id="path1093" d="m510.64 28.613q0.53248-0.95691 1.2733-1.4122 0.74083-0.4553 1.744-0.4553 1.3505 0 2.0836 0.94919 0.73311 0.94147 0.73311 2.6855v5.2167h-1.4276v-5.1704q0-1.2424-0.43987-1.8444-0.43987-0.60192-1.3428-0.60192-1.1035 0-1.744 0.73311-0.64051 0.73312-0.64051 1.9987v4.8849h-1.4276v-5.1704q0-1.2502-0.43987-1.8444-0.43987-0.60192-1.3582-0.60192-1.0881 0-1.7286 0.74083-0.64051 0.73312-0.64051 1.991v4.8849h-1.4276v-8.643h1.4276v1.3428q0.48617-0.79485 1.1653-1.173 0.67909-0.37813 1.6128-0.37813 0.94147 0 1.5974 0.47845 0.66366 0.47845 0.98005 1.3891z" style=""/>
   <path id="path1095" d="m525.52 31.283q0-1.5666-0.64823-2.454-0.64051-0.89517-1.7672-0.89517t-1.7749 0.89517q-0.64051 0.88745-0.64051 2.454 0 1.5665 0.64051 2.4617 0.64823 0.88745 1.7749 0.88745t1.7672-0.88745q0.64823-0.89517 0.64823-2.4617zm-4.8308-3.0173q0.44758-0.7717 1.1267-1.1421 0.68681-0.37813 1.636-0.37813 1.5743 0 2.5543 1.2502 0.98777 1.2502 0.98777 3.2874t-0.98777 3.2874q-0.98006 1.2502-2.5543 1.2502-0.94919 0-1.636-0.37042-0.6791-0.37813-1.1267-1.1498v1.2965h-1.4276v-12.008h1.4276z" style=""/>
   <path id="path1097" d="m472.34 48.022v-4.6765h1.4199v12.008h-1.4199v-1.2965q-0.44759 0.7717-1.1344 1.1498-0.67909 0.37042-1.636 0.37042-1.5666 0-2.5543-1.2502-0.98005-1.2502-0.98005-3.2874t0.98005-3.2874q0.98778-1.2502 2.5543-1.2502 0.95691 0 1.636 0.37813 0.68681 0.37042 1.1344 1.1421zm-4.8386 3.0173q0 1.5665 0.64052 2.4617 0.64822 0.88745 1.7749 0.88745t1.7749-0.88745q0.64823-0.89517 0.64823-2.4617 0-1.5666-0.64823-2.454-0.64823-0.89517-1.7749-0.89517t-1.7749 0.89517q-0.64052 0.88745-0.64052 2.454z" style=""/>
   <path id="path1099" d="m480.04 47.705q-1.1421 0-1.8058 0.89517-0.66366 0.88745-0.66366 2.4386 0 1.5511 0.65595 2.4463 0.66366 0.88745 1.8135 0.88745 1.1344 0 1.7981-0.89517t0.66366-2.4386q0-1.5357-0.66366-2.4309-0.66366-0.90289-1.7981-0.90289zm0-1.2039q1.8521 0 2.9093 1.2039 1.0572 1.2039 1.0572 3.3337 0 2.1222-1.0572 3.3337-1.0572 1.2039-2.9093 1.2039-1.8598 0-2.917-1.2039-1.0495-1.2116-1.0495-3.3337 0-2.1299 1.0495-3.3337 1.0572-1.2039 2.917-1.2039z" style=""/>
   <path id="path1101" d="m486.2 51.942v-5.2321h1.4199v5.1781q0 1.227 0.47846 1.8444 0.47845 0.60964 1.4354 0.60964 1.1498 0 1.8135-0.73311 0.67138-0.73311 0.67138-1.9987v-4.9003h1.4199v8.643h-1.4199v-1.3273q-0.51704 0.78713-1.2038 1.173-0.6791 0.37813-1.582 0.37813-1.4894 0-2.2611-0.92604t-0.7717-2.7087zm3.573-5.4405z" style=""/>
   <path id="path1103" d="m502.59 51.039q0-1.5666-0.64822-2.454-0.64052-0.89517-1.7672-0.89517t-1.7749 0.89517q-0.64051 0.88745-0.64051 2.454 0 1.5665 0.64051 2.4617 0.64822 0.88745 1.7749 0.88745t1.7672-0.88745q0.64822-0.89517 0.64822-2.4617zm-4.8308-3.0173q0.44758-0.7717 1.1267-1.1421 0.68681-0.37813 1.636-0.37813 1.5743 0 2.5543 1.2502 0.98778 1.2502 0.98778 3.2874t-0.98778 3.2874q-0.98005 1.2502-2.5543 1.2502-0.94919 0-1.636-0.37042-0.6791-0.37813-1.1267-1.1498v1.2965h-1.4276v-12.008h1.4276z" style=""/>
   <path id="path1105" d="m506.41 43.345h1.4199v12.008h-1.4199z" style=""/>
   <path id="path1107" d="m518.19 50.676v0.69453h-6.5286q0.0926 1.4662 0.87973 2.2379 0.79485 0.76398 2.2071 0.76398 0.818 0 1.582-0.20064 0.7717-0.20064 1.528-0.60193v1.3428q-0.76398 0.32411-1.5666 0.49389-0.80257 0.16977-1.6283 0.16977-2.0682 0-3.2797-1.2039-1.2038-1.2038-1.2038-3.2566 0-2.1222 1.1421-3.3646 1.1498-1.2502 3.0945-1.2502 1.744 0 2.755 1.1267 1.0186 1.119 1.0186 3.0482zm-1.4199-0.41672q-0.0154-1.1653-0.65595-1.8598-0.63279-0.69453-1.6823-0.69453-1.1884 0-1.9061 0.67138-0.70996 0.67138-0.818 1.8907z" style=""/>
   <path id="path1109" d="m526.46 45.73-2.7704 1.4971 2.7704 1.5048-0.44759 0.75626-2.5929-1.5665v2.9093h-0.87973v-2.9093l-2.5929 1.5665-0.44759-0.75626 2.7704-1.5048-2.7704-1.4971 0.44759-0.76398 2.5929 1.5665v-2.9093h0.87973v2.9093l2.5929-1.5665z" style=""/>
   <path id="path1111" d="m534.36 45.73-2.7704 1.4971 2.7704 1.5048-0.44759 0.75626-2.5929-1.5665v2.9093h-0.87973v-2.9093l-2.5929 1.5665-0.44759-0.75626 2.7704-1.5048-2.7704-1.4971 0.44759-0.76398 2.5929 1.5665v-2.9093h0.87973v2.9093l2.5929-1.5665z" style=""/>
  </g>
  <g id="text140" aria-label="ujmeretint*">
   <path id="path1114" d="m550.52 32.186v-5.2321h1.4199v5.1781q0 1.227 0.47845 1.8444 0.47845 0.60964 1.4354 0.60964 1.1498 0 1.8135-0.73311 0.67138-0.73311 0.67138-1.9987v-4.9003h1.4199v8.643h-1.4199v-1.3273q-0.51704 0.78713-1.2038 1.173-0.67909 0.37813-1.582 0.37813-1.4894 0-2.2611-0.92604t-0.7717-2.7087zm3.573-5.4405z" style=""/>
   <path id="path1116" d="m560.7 26.954h1.4199v8.7974q0 1.6514-0.63279 2.3923-0.62508 0.74083-2.0219 0.74083h-0.54019v-1.2039h0.37814q0.81028 0 1.1035-0.37813 0.29324-0.37042 0.29324-1.5511zm0-3.3646h1.4199v1.7981h-1.4199z" style=""/>
   <path id="path1118" d="m571.81 28.613q0.53247-0.95691 1.2733-1.4122 0.74083-0.4553 1.744-0.4553 1.3505 0 2.0836 0.94919 0.73312 0.94147 0.73312 2.6855v5.2167h-1.4276v-5.1704q0-1.2424-0.43986-1.8444-0.43987-0.60192-1.3428-0.60192-1.1035 0-1.744 0.73311-0.64051 0.73312-0.64051 1.9987v4.8849h-1.4276v-5.1704q0-1.2502-0.43986-1.8444-0.43987-0.60192-1.3582-0.60192-1.0881 0-1.7286 0.74083-0.64051 0.73312-0.64051 1.991v4.8849h-1.4276v-8.643h1.4276v1.3428q0.48617-0.79485 1.1653-1.173 0.6791-0.37813 1.6129-0.37813 0.94147 0 1.5974 0.47845 0.66366 0.47845 0.98006 1.3891z" style=""/>
   <path id="path1120" d="m587.88 30.921v0.69453h-6.5286q0.0926 1.4662 0.87974 2.2379 0.79485 0.76398 2.2071 0.76398 0.818 0 1.582-0.20064 0.7717-0.20064 1.528-0.60193v1.3428q-0.76398 0.32411-1.5666 0.49389-0.80257 0.16977-1.6283 0.16977-2.0682 0-3.2797-1.2039-1.2038-1.2038-1.2038-3.2566 0-2.1222 1.1421-3.3646 1.1498-1.2502 3.0945-1.2502 1.744 0 2.755 1.1267 1.0186 1.119 1.0186 3.0482zm-1.4199-0.41672q-0.0154-1.1653-0.65594-1.8598-0.6328-0.69453-1.6823-0.69453-1.1884 0-1.9061 0.67138-0.70997 0.67138-0.818 1.8907z" style=""/>
   <path id="path1122" d="m595.22 28.281q-0.23923-0.13891-0.52476-0.20064-0.27781-0.06945-0.61735-0.06945-1.2039 0-1.8521 0.78713-0.64051 0.77942-0.64051 2.2456v4.553h-1.4276v-8.643h1.4276v1.3428q0.44758-0.78713 1.1653-1.1653 0.71768-0.38585 1.744-0.38585 0.14663 0 0.32412 0.02315 0.17749 0.01543 0.39356 0.05402z" style=""/>
   <path id="path1124" d="m603.78 30.921v0.69453h-6.5286q0.0926 1.4662 0.87973 2.2379 0.79485 0.76398 2.2071 0.76398 0.818 0 1.582-0.20064 0.7717-0.20064 1.528-0.60193v1.3428q-0.76398 0.32411-1.5666 0.49389-0.80257 0.16977-1.6283 0.16977-2.0682 0-3.2797-1.2039-1.2039-1.2038-1.2039-3.2566 0-2.1222 1.1421-3.3646 1.1498-1.2502 3.0945-1.2502 1.744 0 2.755 1.1267 1.0186 1.119 1.0186 3.0482zm-1.4199-0.41672q-0.0154-1.1653-0.65595-1.8598-0.63279-0.69453-1.6823-0.69453-1.1884 0-1.9061 0.67138-0.70996 0.67138-0.818 1.8907z" style=""/>
   <path id="path1126" d="m607.51 24.5v2.454h2.9247v1.1035h-2.9247v4.6919q0 1.0572 0.28553 1.3582 0.29324 0.30096 1.1807 0.30096h1.4585v1.1884h-1.4585q-1.6437 0-2.2688-0.60964-0.62508-0.61736-0.62508-2.2379v-4.6919h-1.0418v-1.1035h1.0418v-2.454z" style=""/>
   <path id="path1128" d="m567.23 46.71h1.4199v8.643h-1.4199zm0-3.3646h1.4199v1.7981h-1.4199z" style=""/>
   <path id="path1130" d="m578.8 50.136v5.2167h-1.4199v-5.1704q0-1.227-0.47845-1.8366-0.47845-0.60964-1.4354-0.60964-1.1498 0-1.8135 0.73311-0.66367 0.73312-0.66367 1.9987v4.8849h-1.4276v-8.643h1.4276v1.3428q0.50933-0.77942 1.1961-1.1653 0.69453-0.38585 1.5974-0.38585 1.4894 0 2.2534 0.92604 0.76398 0.91832 0.76398 2.7087z" style=""/>
   <path id="path1132" d="m583.05 44.256v2.454h2.9247v1.1035h-2.9247v4.6919q0 1.0572 0.28553 1.3582 0.29325 0.30096 1.1807 0.30096h1.4585v1.1884h-1.4585q-1.6437 0-2.2688-0.60964-0.62508-0.61736-0.62508-2.2379v-4.6919h-1.0418v-1.1035h1.0418v-2.454z" style=""/>
   <path id="path1134" d="m593.79 45.73-2.7704 1.4971 2.7704 1.5048-0.44759 0.75626-2.5929-1.5665v2.9093h-0.87974v-2.9093l-2.5929 1.5665-0.44758-0.75626 2.7704-1.5048-2.7704-1.4971 0.44758-0.76398 2.5929 1.5665v-2.9093h0.87974v2.9093l2.5929-1.5665z" style=""/>
  </g>
  <g id="g148">
   <path id="rect142" d="m400 60h40v40h-40z" fill="#add8e6" stroke="#000" stroke-width="2"/>
   <g id="text146" aria-label="5">
    <path id="path1138" d="m416.67 73.301h6.1196v1.3119h-4.6919v2.8244q0.33955-0.11576 0.6791-0.16977 0.33954-0.06174 0.67909-0.06174 1.9292 0 3.0559 1.0572t1.1267 2.863q0 1.8598-1.1576 2.8939-1.1576 1.0264-3.2643 1.0264-0.72539 0-1.4817-0.12347-0.74855-0.12347-1.5511-0.37042v-1.5665q0.69453 0.37813 1.4354 0.56334t1.5666 0.18521q1.335 0 2.1144-0.70225 0.77942-0.70225 0.77942-1.9061 0-1.2039-0.77942-1.9061-0.77941-0.70225-2.1144-0.70225-0.62508 0-1.2502 0.13891-0.61736 0.13891-1.2656 0.43215z" style=""/>
   </g>
  </g>
  <g id="text154" aria-label="meretint">
   <path id="path1141" d="m404.6 28.613q0.53247-0.95691 1.2733-1.4122 0.74084-0.4553 1.744-0.4553 1.3505 0 2.0836 0.94919 0.73312 0.94147 0.73312 2.6855v5.2167h-1.4276v-5.1704q0-1.2424-0.43987-1.8444-0.43986-0.60192-1.3428-0.60192-1.1035 0-1.744 0.73311-0.64051 0.73312-0.64051 1.9987v4.8849h-1.4276v-5.1704q0-1.2502-0.43987-1.8444-0.43986-0.60192-1.3582-0.60192-1.0881 0-1.7286 0.74083-0.64051 0.73312-0.64051 1.991v4.8849h-1.4276v-8.643h1.4276v1.3428q0.48617-0.79485 1.1653-1.173 0.6791-0.37813 1.6128-0.37813 0.94148 0 1.5974 0.47845 0.66366 0.47845 0.98006 1.3891z" style=""/>
   <path id="path1143" d="m420.67 30.921v0.69453h-6.5286q0.0926 1.4662 0.87974 2.2379 0.79485 0.76398 2.2071 0.76398 0.818 0 1.582-0.20064 0.7717-0.20064 1.528-0.60193v1.3428q-0.76398 0.32411-1.5666 0.49389-0.80257 0.16977-1.6283 0.16977-2.0682 0-3.2797-1.2039-1.2038-1.2038-1.2038-3.2566 0-2.1222 1.1421-3.3646 1.1498-1.2502 3.0945-1.2502 1.744 0 2.755 1.1267 1.0186 1.119 1.0186 3.0482zm-1.4199-0.41672q-0.0154-1.1653-0.65594-1.8598-0.6328-0.69453-1.6823-0.69453-1.1884 0-1.9061 0.67138-0.70997 0.67138-0.818 1.8907z" style=""/>
   <path id="path1145" d="m428.01 28.281q-0.23923-0.13891-0.52476-0.20064-0.27781-0.06945-0.61736-0.06945-1.2038 0-1.8521 0.78713-0.64051 0.77942-0.64051 2.2456v4.553h-1.4276v-8.643h1.4276v1.3428q0.44758-0.78713 1.1653-1.1653 0.71768-0.38585 1.744-0.38585 0.14662 0 0.32412 0.02315 0.17749 0.01543 0.39356 0.05402z" style=""/>
   <path id="path1147" d="m436.57 30.921v0.69453h-6.5286q0.0926 1.4662 0.87973 2.2379 0.79485 0.76398 2.2071 0.76398 0.81801 0 1.582-0.20064 0.7717-0.20064 1.528-0.60193v1.3428q-0.76398 0.32411-1.5666 0.49389-0.80256 0.16977-1.6283 0.16977-2.0682 0-3.2797-1.2039-1.2039-1.2038-1.2039-3.2566 0-2.1222 1.1421-3.3646 1.1498-1.2502 3.0945-1.2502 1.744 0 2.755 1.1267 1.0186 1.119 1.0186 3.0482zm-1.4199-0.41672q-0.0154-1.1653-0.65595-1.8598-0.63279-0.69453-1.6823-0.69453-1.1884 0-1.9061 0.67138-0.70996 0.67138-0.818 1.8907z" style=""/>
   <path id="path1149" d="m440.3 24.5v2.454h2.9247v1.1035h-2.9247v4.6919q0 1.0572 0.28553 1.3582 0.29324 0.30096 1.1807 0.30096h1.4585v1.1884h-1.4585q-1.6437 0-2.2688-0.60964-0.62508-0.61736-0.62508-2.2379v-4.6919h-1.0418v-1.1035h1.0418v-2.454z" style=""/>
   <path id="path1151" d="m411.18 46.71h1.4199v8.643h-1.4199zm0-3.3646h1.4199v1.7981h-1.4199z" style=""/>
   <path id="path1153" d="m422.75 50.136v5.2167h-1.4199v-5.1704q0-1.227-0.47845-1.8366-0.47845-0.60964-1.4354-0.60964-1.1498 0-1.8135 0.73311-0.66367 0.73312-0.66367 1.9987v4.8849h-1.4276v-8.643h1.4276v1.3428q0.50933-0.77942 1.1961-1.1653 0.69453-0.38585 1.5974-0.38585 1.4894 0 2.2534 0.92604 0.76398 0.91832 0.76398 2.7087z" style=""/>
   <path id="path1155" d="m427 44.256v2.454h2.9247v1.1035h-2.9247v4.6919q0 1.0572 0.28553 1.3582 0.29325 0.30096 1.1807 0.30096h1.4585v1.1884h-1.4585q-1.6437 0-2.2688-0.60964-0.62508-0.61736-0.62508-2.2379v-4.6919h-1.0418v-1.1035h1.0418v-2.454z" style=""/>
  </g>
  <g id="g160" stroke="#000" stroke-width="2">
   <path id="path156" d="m480 80c-40 0-30 80 70.85 116.67" fill="none"/>
   <path id="polygon158" d="m550.85 196.67-0.641-5.554 7.69 8.117-11.107 1.281z" fill-rule="evenodd"/>
  </g>
  <g id="g168">
   <path id="rect162" d="m680 60h40v40h-40z" fill="#add8e6" stroke="#000" stroke-width="2"/>
  </g>
  <g id="g176">
   <path id="rect170" d="m770 60h40v40h-40z" fill="#add8e6" stroke="#000" stroke-width="2"/>
   <g id="text174" aria-label="3">
    <path id="path1162" d="m791.38 78.61q1.119 0.23923 1.744 0.99549 0.6328 0.75626 0.6328 1.8675 0 1.7055-1.173 2.6392-1.173 0.93376-3.3337 0.93376-0.7254 0-1.4971-0.14662-0.76399-0.13891-1.582-0.42444v-1.5048q0.64823 0.37813 1.4199 0.57106t1.6128 0.19292q1.4662 0 2.2302-0.57877 0.7717-0.57878 0.7717-1.6823 0-1.0186-0.71768-1.5897-0.70996-0.57878-1.9833-0.57878h-1.3428v-1.281h1.4045q1.1498 0 1.7595-0.4553 0.60965-0.46302 0.60965-1.3273 0-0.88745-0.6328-1.3582-0.62507-0.47845-1.7981-0.47845-0.64051 0-1.3736 0.13891-0.73312 0.13891-1.6128 0.43215v-1.3891q0.88745-0.24694 1.6592-0.37042 0.77942-0.12347 1.4662-0.12347 1.7749 0 2.809 0.81028 1.0341 0.80257 1.0341 2.1762 0 0.95691-0.54791 1.6206-0.5479 0.65594-1.5588 0.9106z" style=""/>
   </g>
  </g>
  <g id="text182" aria-label="ujdouble*">
   <path id="path1165" d="m694.14 32.186v-5.2321h1.4199v5.1781q0 1.227 0.47846 1.8444 0.47845 0.60964 1.4354 0.60964 1.1498 0 1.8135-0.73311 0.67138-0.73311 0.67138-1.9987v-4.9003h1.4199v8.643h-1.4199v-1.3273q-0.51704 0.78713-1.2038 1.173-0.6791 0.37813-1.582 0.37813-1.4894 0-2.2611-0.92604-0.7717-0.92604-0.7717-2.7087zm3.573-5.4405z" style=""/>
   <path id="path1167" d="m704.31 26.954h1.4199v8.7974q0 1.6514-0.6328 2.3923-0.62507 0.74083-2.0218 0.74083h-0.54019v-1.2039h0.37813q0.81029 0 1.1035-0.37813 0.29325-0.37042 0.29325-1.5511zm0-3.3646h1.4199v1.7981h-1.4199z" style=""/>
   <path id="path1169" d="m676.29 48.022v-4.6765h1.4199v12.008h-1.4199v-1.2965q-0.44759 0.7717-1.1344 1.1498-0.67909 0.37042-1.636 0.37042-1.5666 0-2.5543-1.2502-0.98005-1.2502-0.98005-3.2874t0.98005-3.2874q0.98778-1.2502 2.5543-1.2502 0.95691 0 1.636 0.37813 0.68681 0.37042 1.1344 1.1421zm-4.8386 3.0173q0 1.5665 0.64051 2.4617 0.64822 0.88745 1.7749 0.88745t1.7749-0.88745q0.64823-0.89517 0.64823-2.4617 0-1.5666-0.64823-2.454-0.64823-0.89517-1.7749-0.89517t-1.7749 0.89517q-0.64051 0.88745-0.64051 2.454z" style=""/>
   <path id="path1171" d="m683.99 47.705q-1.1421 0-1.8058 0.89517-0.66366 0.88745-0.66366 2.4386 0 1.5511 0.65595 2.4463 0.66366 0.88745 1.8135 0.88745 1.1344 0 1.7981-0.89517t0.66366-2.4386q0-1.5357-0.66366-2.4309-0.66366-0.90289-1.7981-0.90289zm0-1.2039q1.8521 0 2.9093 1.2039 1.0572 1.2039 1.0572 3.3337 0 2.1222-1.0572 3.3337-1.0572 1.2039-2.9093 1.2039-1.8598 0-2.917-1.2039-1.0495-1.2116-1.0495-3.3337 0-2.1299 1.0495-3.3337 1.0572-1.2039 2.917-1.2039z" style=""/>
   <path id="path1173" d="m690.15 51.942v-5.2321h1.4199v5.1781q0 1.227 0.47846 1.8444 0.47845 0.60964 1.4354 0.60964 1.1498 0 1.8135-0.73311 0.67138-0.73311 0.67138-1.9987v-4.9003h1.4199v8.643h-1.4199v-1.3273q-0.51704 0.78713-1.2038 1.173-0.6791 0.37813-1.582 0.37813-1.4894 0-2.2611-0.92604t-0.7717-2.7087zm3.573-5.4405z" style=""/>
   <path id="path1175" d="m706.54 51.039q0-1.5666-0.64822-2.454-0.64052-0.89517-1.7672-0.89517t-1.7749 0.89517q-0.64051 0.88745-0.64051 2.454 0 1.5665 0.64051 2.4617 0.64822 0.88745 1.7749 0.88745t1.7672-0.88745q0.64822-0.89517 0.64822-2.4617zm-4.8308-3.0173q0.44758-0.7717 1.1267-1.1421 0.68681-0.37813 1.636-0.37813 1.5743 0 2.5543 1.2502 0.98778 1.2502 0.98778 3.2874t-0.98778 3.2874q-0.98005 1.2502-2.5543 1.2502-0.94919 0-1.636-0.37042-0.6791-0.37813-1.1267-1.1498v1.2965h-1.4276v-12.008h1.4276z" style=""/>
   <path id="path1177" d="m710.36 43.345h1.4199v12.008h-1.4199z" style=""/>
   <path id="path1179" d="m722.14 50.676v0.69453h-6.5286q0.0926 1.4662 0.87973 2.2379 0.79485 0.76398 2.2071 0.76398 0.818 0 1.582-0.20064 0.7717-0.20064 1.528-0.60193v1.3428q-0.76398 0.32411-1.5666 0.49389-0.80257 0.16977-1.6283 0.16977-2.0682 0-3.2797-1.2039-1.2038-1.2038-1.2038-3.2566 0-2.1222 1.1421-3.3646 1.1498-1.2502 3.0945-1.2502 1.744 0 2.755 1.1267 1.0186 1.119 1.0186 3.0482zm-1.4199-0.41672q-0.0154-1.1653-0.65595-1.8598-0.63279-0.69453-1.6823-0.69453-1.1884 0-1.9061 0.67138-0.70996 0.67138-0.818 1.8907z" style=""/>
   <path id="path1181" d="m730.41 45.73-2.7704 1.4971 2.7704 1.5048-0.44759 0.75626-2.5929-1.5665v2.9093h-0.87973v-2.9093l-2.5929 1.5665-0.44759-0.75626 2.7704-1.5048-2.7704-1.4971 0.44759-0.76398 2.5929 1.5665v-2.9093h0.87973v2.9093l2.5929-1.5665z" style=""/>
  </g>
  <g id="text188" aria-label="dbint">
   <path id="path1184" d="m787.14 28.266v-4.6765h1.4199v12.008h-1.4199v-1.2965q-0.44758 0.7717-1.1344 1.1498-0.67909 0.37042-1.636 0.37042-1.5666 0-2.5543-1.2502-0.98006-1.2502-0.98006-3.2874t0.98006-3.2874q0.98777-1.2502 2.5543-1.2502 0.95691 0 1.636 0.37813 0.68682 0.37042 1.1344 1.1421zm-4.8386 3.0173q0 1.5665 0.64051 2.4617 0.64823 0.88745 1.7749 0.88745t1.7749-0.88745q0.64822-0.89517 0.64822-2.4617 0-1.5666-0.64822-2.454-0.64823-0.89517-1.7749-0.89517t-1.7749 0.89517q-0.64051 0.88745-0.64051 2.454z" style=""/>
   <path id="path1186" d="m797.69 31.283q0-1.5666-0.64823-2.454-0.64051-0.89517-1.7672-0.89517t-1.7749 0.89517q-0.64051 0.88745-0.64051 2.454 0 1.5665 0.64051 2.4617 0.64823 0.88745 1.7749 0.88745t1.7672-0.88745q0.64823-0.89517 0.64823-2.4617zm-4.8308-3.0173q0.44759-0.7717 1.1267-1.1421 0.68681-0.37813 1.636-0.37813 1.5743 0 2.5543 1.2502 0.98778 1.2502 0.98778 3.2874t-0.98778 3.2874q-0.98006 1.2502-2.5543 1.2502-0.94919 0-1.636-0.37042-0.6791-0.37813-1.1267-1.1498v1.2965h-1.4276v-12.008h1.4276z" style=""/>
   <path id="path1188" d="m781.18 46.71h1.4199v8.643h-1.4199zm0-3.3646h1.4199v1.7981h-1.4199z" style=""/>
   <path id="path1190" d="m792.75 50.136v5.2167h-1.4199v-5.1704q0-1.227-0.47845-1.8366-0.47845-0.60964-1.4354-0.60964-1.1498 0-1.8135 0.73311-0.66367 0.73312-0.66367 1.9987v4.8849h-1.4276v-8.643h1.4276v1.3428q0.50933-0.77942 1.1961-1.1653 0.69453-0.38585 1.5974-0.38585 1.4894 0 2.2534 0.92604 0.76398 0.91832 0.76398 2.7087z" style=""/>
   <path id="path1192" d="m797 44.256v2.454h2.9247v1.1035h-2.9247v4.6919q0 1.0572 0.28553 1.3582 0.29325 0.30096 1.1807 0.30096h1.4585v1.1884h-1.4585q-1.6437 0-2.2688-0.60964-0.62508-0.61736-0.62508-2.2379v-4.6919h-1.0418v-1.1035h1.0418v-2.454z" style=""/>
  </g>
  <g id="g194" stroke="#000" stroke-width="2">
   <path id="path190" d="m560 80c-40 0 0 80 110.76 116.92" fill="none"/>
   <path id="polygon192" d="m670.76 196.92-0.791-5.534 7.906 7.906-11.068 1.581z" fill-rule="evenodd"/>
  </g>
  <g id="g200" stroke="#000" stroke-width="2">
   <path id="path196" d="m720 80c150-140-360-40-238.29-114.9" fill="none"/>
   <path id="polygon198" d="m481.71-34.897-4.749-2.948 11.137-0.9827-5.896 9.4993z" fill-rule="evenodd"/>
  </g>
  <g id="g206" stroke="#000" stroke-width="2">
   <path id="path202" d="m320 80c-40 0-90 80-28.453 115.17" fill="none"/>
   <path id="polygon204" d="m291.55 195.17 0.31-5.582 6.202 9.303-11.164-0.621z" fill-rule="evenodd"/>
  </g>
  <g id="g212" stroke="#000" stroke-width="2">
   <path id="path208" d="m600 220c230-290-240-180-118.29-254.9" fill="none"/>
   <path id="polygon210" d="m481.71-34.897-4.749-2.948 11.137-0.9827-5.896 9.4993z" fill-rule="evenodd"/>
  </g>
 </g>
</svg>
