<?xml version="1.0" encoding="UTF-8" standalone="no"?>
<svg
   xmlns:dc="http://purl.org/dc/elements/1.1/"
   xmlns:cc="http://creativecommons.org/ns#"
   xmlns:rdf="http://www.w3.org/1999/02/22-rdf-syntax-ns#"
   xmlns:svg="http://www.w3.org/2000/svg"
   xmlns="http://www.w3.org/2000/svg"
   xmlns:sodipodi="http://sodipodi.sourceforge.net/DTD/sodipodi-0.dtd"
   xmlns:inkscape="http://www.inkscape.org/namespaces/inkscape"
   id="svg103"
   version="1.1"
   viewBox="261 112 200.9594 116.05686"
   height="5.8516064cm"
   width="10.526443cm"
   sodipodi:docname="matrix.svg"
   inkscape:version="0.92.5 (2060ec1f9f, 2020-04-08)">
  <sodipodi:namedview
     pagecolor="#ffffff"
     bordercolor="#666666"
     borderopacity="1"
     objecttolerance="10"
     gridtolerance="10"
     guidetolerance="10"
     inkscape:pageopacity="0"
     inkscape:pageshadow="2"
     inkscape:window-width="452"
     inkscape:window-height="420"
     id="namedview55"
     showgrid="false"
     inkscape:zoom="0.65183712"
     inkscape:cx="198.09221"
     inkscape:cy="112.34639"
     inkscape:window-x="0"
     inkscape:window-y="0"
     inkscape:window-maximized="0"
     inkscape:current-layer="svg103" />
  <metadata
     id="metadata107">
    <rdf:RDF>
      <cc:Work
         rdf:about="">
        <dc:format>image/svg+xml</dc:format>
        <dc:type
           rdf:resource="http://purl.org/dc/dcmitype/StillImage" />
      </cc:Work>
    </rdf:RDF>
  </metadata>
  <defs
     id="defs2" />
  <g
     id="Háttér"
     transform="translate(-5.1330718,-2.3976858)">
    <g
       aria-label="matrix[0] →"
       style="font-style:normal;font-weight:normal;font-size:13.54669952px;font-family:sans-serif;text-anchor:end;fill:#000000;fill-opacity:1;stroke:none"
       id="text6">
      <path
         d="m 268.03977,157.06078 q 0.45641,-0.82021 1.09141,-1.21047 0.635,-0.39026 1.4949,-0.39026 1.15756,0 1.78594,0.8136 0.62839,0.80698 0.62839,2.30188 v 4.47147 h -1.2237 v -4.43178 q 0,-1.06496 -0.37703,-1.58089 -0.37703,-0.51594 -1.15094,-0.51594 -0.94589,0 -1.4949,0.62838 -0.54901,0.62839 -0.54901,1.71319 v 4.18704 h -1.2237 v -4.43178 q 0,-1.07157 -0.37704,-1.58089 -0.37703,-0.51594 -1.16417,-0.51594 -0.93266,0 -1.48167,0.635 -0.54901,0.62839 -0.54901,1.70657 v 4.18704 h -1.2237 v -7.40835 h 1.2237 v 1.15094 q 0.41672,-0.68131 0.99881,-1.00542 0.58208,-0.32412 1.38245,-0.32412 0.80698,0 1.36922,0.41011 0.56885,0.4101 0.84005,1.19062 z"
         style=""
         id="path57" />
      <path
         d="m 278.8348,159.32298 q -1.47506,0 -2.04391,0.33734 -0.56886,0.33735 -0.56886,1.15094 0,0.64823 0.42334,1.03188 0.42995,0.37703 1.16417,0.37703 1.01203,0 1.62057,-0.71437 0.61516,-0.721 0.61516,-1.91162 v -0.2712 z m 2.42756,-0.50271 v 4.22673 h -1.21709 v -1.12448 q -0.41672,0.67468 -1.03849,0.9988 -0.62177,0.3175 -1.52136,0.3175 -1.13771,0 -1.8124,-0.635 -0.66807,-0.64162 -0.66807,-1.71318 0,-1.25016 0.83344,-1.88516 0.84005,-0.635 2.50031,-0.635 h 1.70657 v -0.11907 q 0,-0.84005 -0.55562,-1.29646 -0.54902,-0.46302 -1.54782,-0.46302 -0.635,0 -1.23693,0.15213 -0.60193,0.15214 -1.15756,0.45641 v -1.12448 q 0.66808,-0.25797 1.29647,-0.38365 0.62838,-0.13229 1.2237,-0.13229 1.60734,0 2.4011,0.83344 0.79375,0.83344 0.79375,2.52678 z"
         style=""
         id="path59" />
      <path
         d="m 284.97315,153.5352 v 2.10345 h 2.50693 v 0.94588 h -2.50693 v 4.02168 q 0,0.9062 0.24474,1.16417 0.25135,0.25797 1.01203,0.25797 h 1.25016 v 1.01865 h -1.25016 q -1.40891,0 -1.94469,-0.52256 -0.53578,-0.52916 -0.53578,-1.91823 v -4.02168 h -0.89297 v -0.94588 h 0.89297 v -2.10345 z"
         style=""
         id="path61" />
      <path
         d="m 293.37369,156.77636 q -0.20505,-0.11907 -0.44979,-0.17198 -0.23813,-0.0595 -0.52917,-0.0595 -1.03188,0 -1.58751,0.67469 -0.54901,0.66807 -0.54901,1.92484 v 3.90262 h -1.2237 v -7.40835 h 1.2237 v 1.15094 q 0.38365,-0.67469 0.99881,-0.99881 0.61516,-0.33073 1.4949,-0.33073 0.12567,0 0.27781,0.0198 0.15214,0.0132 0.33734,0.0463 z"
         style=""
         id="path63" />
      <path
         d="m 294.65031,155.63865 h 1.21708 v 7.40835 h -1.21708 z m 0,-2.88397 h 1.21708 v 1.5412 h -1.21708 z"
         style=""
         id="path65" />
      <path
         d="m 304.5722,155.63865 -2.67891,3.60495 2.81782,3.8034 h -1.43537 l -2.15636,-2.91043 -2.15636,2.91043 h -1.43536 l 2.87735,-3.87616 -2.63261,-3.53219 h 1.43536 l 1.96454,2.63922 1.96454,-2.63922 z"
         style=""
         id="path67" />
      <path
         d="m 306.31846,152.75468 h 2.80459 v 0.94589 h -1.5875 v 10.18648 h 1.5875 v 0.94589 h -2.80459 z"
         style=""
         id="path69" />
      <path
         d="m 314.74546,154.05114 q -1.03188,0 -1.55443,1.01865 -0.51594,1.01203 -0.51594,3.04933 0,2.03068 0.51594,3.04933 0.52255,1.01203 1.55443,1.01203 1.03849,0 1.55443,-1.01203 0.52255,-1.01865 0.52255,-3.04933 0,-2.0373 -0.52255,-3.04933 -0.51594,-1.01865 -1.55443,-1.01865 z m 0,-1.05833 q 1.66026,0 2.53339,1.3163 0.87974,1.30969 0.87974,3.81001 0,2.4937 -0.87974,3.81001 -0.87313,1.30969 -2.53339,1.30969 -1.66027,0 -2.54001,-1.30969 -0.87312,-1.31631 -0.87312,-3.81001 0,-2.50032 0.87312,-3.81001 0.87974,-1.3163 2.54001,-1.3163 z"
         style=""
         id="path71" />
      <path
         d="m 323.17907,152.75468 v 12.07826 h -2.80459 v -0.94589 h 1.58089 v -10.18648 h -1.58089 v -0.94589 z"
         style=""
         id="path73" />
      <path
         d="m 339.33854,158.50277 v 0.59531 l -2.59954,2.59954 -0.79375,-0.79375 1.5412,-1.5412 h -8.0632 v -1.12449 h 8.0632 l -1.5412,-1.5412 0.79375,-0.79375 z"
         style=""
         id="path75" />
    </g>
    <g
       aria-label="matrix[1] →"
       style="font-style:normal;font-weight:normal;font-size:13.54669952px;font-family:sans-serif;text-anchor:end;fill:#000000;fill-opacity:1;stroke:none"
       id="text10">
      <path
         d="m 268.03977,172.70379 q 0.45641,-0.82021 1.09141,-1.21047 0.635,-0.39026 1.4949,-0.39026 1.15756,0 1.78594,0.81359 0.62839,0.80698 0.62839,2.30188 V 178.69 h -1.2237 v -4.43178 q 0,-1.06495 -0.37703,-1.58089 -0.37703,-0.51594 -1.15094,-0.51594 -0.94589,0 -1.4949,0.62839 -0.54901,0.62839 -0.54901,1.71318 V 178.69 h -1.2237 v -4.43178 q 0,-1.07156 -0.37704,-1.58089 -0.37703,-0.51594 -1.16417,-0.51594 -0.93266,0 -1.48167,0.635 -0.54901,0.62839 -0.54901,1.70657 V 178.69 h -1.2237 v -7.40835 h 1.2237 v 1.15094 q 0.41672,-0.6813 0.99881,-1.00542 0.58208,-0.32411 1.38245,-0.32411 0.80698,0 1.36922,0.4101 0.56885,0.41011 0.84005,1.19063 z"
         style=""
         id="path78" />
      <path
         d="m 278.8348,174.96598 q -1.47506,0 -2.04391,0.33735 -0.56886,0.33734 -0.56886,1.15094 0,0.64823 0.42334,1.03188 0.42995,0.37703 1.16417,0.37703 1.01203,0 1.62057,-0.71438 0.61516,-0.72099 0.61516,-1.91162 v -0.2712 z m 2.42756,-0.50271 V 178.69 h -1.21709 v -1.12448 q -0.41672,0.67469 -1.03849,0.99881 -0.62177,0.3175 -1.52136,0.3175 -1.13771,0 -1.8124,-0.63501 -0.66807,-0.64161 -0.66807,-1.71318 0,-1.25016 0.83344,-1.88516 0.84005,-0.635 2.50031,-0.635 h 1.70657 v -0.11906 q 0,-0.84006 -0.55562,-1.29646 -0.54902,-0.46303 -1.54782,-0.46303 -0.635,0 -1.23693,0.15214 -0.60193,0.15214 -1.15756,0.45641 V 171.619 q 0.66808,-0.25797 1.29647,-0.38365 0.62838,-0.13229 1.2237,-0.13229 1.60734,0 2.4011,0.83344 0.79375,0.83344 0.79375,2.52677 z"
         style=""
         id="path80" />
      <path
         d="m 284.97315,169.17821 v 2.10344 h 2.50693 v 0.94589 h -2.50693 v 4.02168 q 0,0.9062 0.24474,1.16416 0.25135,0.25797 1.01203,0.25797 h 1.25016 V 178.69 h -1.25016 q -1.40891,0 -1.94469,-0.52255 -0.53578,-0.52917 -0.53578,-1.91823 v -4.02168 h -0.89297 v -0.94589 h 0.89297 v -2.10344 z"
         style=""
         id="path82" />
      <path
         d="m 293.37369,172.41936 q -0.20505,-0.11906 -0.44979,-0.17198 -0.23813,-0.0595 -0.52917,-0.0595 -1.03188,0 -1.58751,0.67469 -0.54901,0.66807 -0.54901,1.92485 V 178.69 h -1.2237 v -7.40835 h 1.2237 v 1.15094 q 0.38365,-0.67469 0.99881,-0.9988 0.61516,-0.33073 1.4949,-0.33073 0.12567,0 0.27781,0.0198 0.15214,0.0132 0.33734,0.0463 z"
         style=""
         id="path84" />
      <path
         d="m 294.65031,171.28165 h 1.21708 V 178.69 h -1.21708 z m 0,-2.88396 h 1.21708 v 1.5412 h -1.21708 z"
         style=""
         id="path86" />
      <path
         d="m 304.5722,171.28165 -2.67891,3.60496 2.81782,3.80339 h -1.43537 l -2.15636,-2.91042 -2.15636,2.91042 h -1.43536 l 2.87735,-3.87615 -2.63261,-3.5322 h 1.43536 l 1.96454,2.63923 1.96454,-2.63923 z"
         style=""
         id="path88" />
      <path
         d="m 306.31846,168.39769 h 2.80459 v 0.94588 h -1.5875 v 10.18649 h 1.5875 v 0.94588 h -2.80459 z"
         style=""
         id="path90" />
      <path
         d="m 312.11946,177.56552 h 2.18282 v -7.53403 l -2.37464,0.47625 v -1.21708 l 2.36141,-0.47625 h 1.33615 v 8.75111 h 2.18282 V 178.69 h -5.68856 z"
         style=""
         id="path92" />
      <path
         d="m 323.17907,168.39769 v 12.07825 h -2.80459 v -0.94588 h 1.58089 v -10.18649 h -1.58089 v -0.94588 z"
         style=""
         id="path94" />
      <path
         d="m 339.33854,174.14577 v 0.59532 l -2.59954,2.59953 -0.79375,-0.79375 1.5412,-1.5412 h -8.0632 v -1.12448 h 8.0632 l -1.5412,-1.5412 0.79375,-0.79375 z"
         style=""
         id="path96" />
    </g>
    <g
       aria-label="matrix[4] →"
       style="font-style:normal;font-weight:normal;font-size:13.54669952px;font-family:sans-serif;text-anchor:end;fill:#000000;fill-opacity:1;stroke:none"
       id="text14">
      <path
         d="m 268.03977,220.70379 q 0.45641,-0.82021 1.09141,-1.21047 0.635,-0.39026 1.4949,-0.39026 1.15756,0 1.78594,0.81359 0.62839,0.80698 0.62839,2.30188 V 226.69 h -1.2237 v -4.43178 q 0,-1.06495 -0.37703,-1.58089 -0.37703,-0.51594 -1.15094,-0.51594 -0.94589,0 -1.4949,0.62839 -0.54901,0.62839 -0.54901,1.71318 V 226.69 h -1.2237 v -4.43178 q 0,-1.07156 -0.37704,-1.58089 -0.37703,-0.51594 -1.16417,-0.51594 -0.93266,0 -1.48167,0.635 -0.54901,0.62839 -0.54901,1.70657 V 226.69 h -1.2237 v -7.40835 h 1.2237 v 1.15094 q 0.41672,-0.6813 0.99881,-1.00542 0.58208,-0.32411 1.38245,-0.32411 0.80698,0 1.36922,0.4101 0.56885,0.41011 0.84005,1.19063 z"
         style=""
         id="path99" />
      <path
         d="m 278.8348,222.96598 q -1.47506,0 -2.04391,0.33735 -0.56886,0.33734 -0.56886,1.15094 0,0.64823 0.42334,1.03188 0.42995,0.37703 1.16417,0.37703 1.01203,0 1.62057,-0.71438 0.61516,-0.72099 0.61516,-1.91162 v -0.2712 z m 2.42756,-0.50271 V 226.69 h -1.21709 v -1.12448 q -0.41672,0.67469 -1.03849,0.99881 -0.62177,0.3175 -1.52136,0.3175 -1.13771,0 -1.8124,-0.63501 -0.66807,-0.64161 -0.66807,-1.71318 0,-1.25016 0.83344,-1.88516 0.84005,-0.635 2.50031,-0.635 h 1.70657 v -0.11906 q 0,-0.84006 -0.55562,-1.29646 -0.54902,-0.46303 -1.54782,-0.46303 -0.635,0 -1.23693,0.15214 -0.60193,0.15214 -1.15756,0.45641 V 219.619 q 0.66808,-0.25797 1.29647,-0.38365 0.62838,-0.13229 1.2237,-0.13229 1.60734,0 2.4011,0.83344 0.79375,0.83344 0.79375,2.52677 z"
         style=""
         id="path101" />
      <path
         d="m 284.97315,217.17821 v 2.10344 h 2.50693 v 0.94589 h -2.50693 v 4.02168 q 0,0.9062 0.24474,1.16416 0.25135,0.25797 1.01203,0.25797 h 1.25016 V 226.69 h -1.25016 q -1.40891,0 -1.94469,-0.52255 -0.53578,-0.52917 -0.53578,-1.91823 v -4.02168 h -0.89297 v -0.94589 h 0.89297 v -2.10344 z"
         style=""
         id="path103" />
      <path
         d="m 293.37369,220.41936 q -0.20505,-0.11906 -0.44979,-0.17198 -0.23813,-0.0595 -0.52917,-0.0595 -1.03188,0 -1.58751,0.67469 -0.54901,0.66807 -0.54901,1.92485 V 226.69 h -1.2237 v -7.40835 h 1.2237 v 1.15094 q 0.38365,-0.67469 0.99881,-0.9988 0.61516,-0.33073 1.4949,-0.33073 0.12567,0 0.27781,0.0198 0.15214,0.0132 0.33734,0.0463 z"
         style=""
         id="path105" />
      <path
         d="m 294.65031,219.28165 h 1.21708 V 226.69 h -1.21708 z m 0,-2.88396 h 1.21708 v 1.5412 h -1.21708 z"
         style=""
         id="path107" />
      <path
         d="m 304.5722,219.28165 -2.67891,3.60496 2.81782,3.80339 h -1.43537 l -2.15636,-2.91042 -2.15636,2.91042 h -1.43536 l 2.87735,-3.87615 -2.63261,-3.5322 h 1.43536 l 1.96454,2.63923 1.96454,-2.63923 z"
         style=""
         id="path109" />
      <path
         d="m 306.31846,216.39769 h 2.80459 v 0.94588 h -1.5875 v 10.18649 h 1.5875 v 0.94588 h -2.80459 z"
         style=""
         id="path111" />
      <path
         d="m 315.55905,217.97858 -3.37344,5.27183 h 3.37344 z m -0.35057,-1.16417 h 1.68011 v 6.436 h 1.40891 v 1.11125 h -1.40891 V 226.69 h -1.32954 v -2.32834 h -4.45824 v -1.28984 z"
         style=""
         id="path113" />
      <path
         d="m 323.17907,216.39769 v 12.07825 h -2.80459 v -0.94588 h 1.58089 v -10.18649 h -1.58089 v -0.94588 z"
         style=""
         id="path115" />
      <path
         d="m 339.33854,222.14577 v 0.59532 l -2.59954,2.59953 -0.79375,-0.79375 1.5412,-1.5412 h -8.0632 v -1.12448 h 8.0632 l -1.5412,-1.5412 0.79375,-0.79375 z"
         style=""
         id="path117" />
    </g>
    <g
       aria-label="matrix[0][0]"
       style="font-style:normal;font-weight:normal;font-size:13.54669952px;font-family:sans-serif;text-anchor:end;fill:#000000;fill-opacity:1;stroke:none"
       id="text18">
      <path
         d="m 294.50758,118.70379 q 0.4564,-0.82021 1.09141,-1.21047 0.635,-0.39026 1.4949,-0.39026 1.15755,0 1.78594,0.81359 0.62838,0.80698 0.62838,2.30188 V 124.69 h -1.2237 v -4.43178 q 0,-1.06495 -0.37703,-1.58089 -0.37703,-0.51594 -1.15094,-0.51594 -0.94589,0 -1.4949,0.62839 -0.54901,0.62839 -0.54901,1.71318 V 124.69 h -1.2237 v -4.43178 q 0,-1.07156 -0.37703,-1.58089 -0.37704,-0.51594 -1.16417,-0.51594 -0.93266,0 -1.48167,0.635 -0.54901,0.62839 -0.54901,1.70657 V 124.69 h -1.22371 v -7.40835 h 1.22371 v 1.15094 q 0.41672,-0.6813 0.9988,-1.00542 0.58208,-0.32411 1.38245,-0.32411 0.80698,0 1.36922,0.4101 0.56886,0.41011 0.84006,1.19063 z"
         style=""
         id="path120" />
      <path
         d="m 305.3026,120.96598 q -1.47505,0 -2.04391,0.33735 -0.56885,0.33734 -0.56885,1.15094 0,0.64823 0.42333,1.03188 0.42995,0.37703 1.16417,0.37703 1.01203,0 1.62058,-0.71438 0.61516,-0.72099 0.61516,-1.91162 v -0.2712 z m 2.42756,-0.50271 V 124.69 h -1.21708 v -1.12448 q -0.41672,0.67469 -1.0385,0.99881 -0.62177,0.3175 -1.52135,0.3175 -1.13772,0 -1.8124,-0.63501 -0.66808,-0.64161 -0.66808,-1.71318 0,-1.25016 0.83344,-1.88516 0.84005,-0.635 2.50032,-0.635 h 1.70657 v -0.11906 q 0,-0.84006 -0.55563,-1.29646 -0.54901,-0.46303 -1.54782,-0.46303 -0.635,0 -1.23693,0.15214 -0.60193,0.15214 -1.15755,0.45641 V 117.619 q 0.66807,-0.25797 1.29646,-0.38365 0.62839,-0.13229 1.2237,-0.13229 1.60735,0 2.4011,0.83344 0.79375,0.83344 0.79375,2.52677 z"
         style=""
         id="path122" />
      <path
         d="m 311.44095,115.17821 v 2.10344 h 2.50693 v 0.94589 h -2.50693 v 4.02168 q 0,0.9062 0.24474,1.16416 0.25136,0.25797 1.01204,0.25797 h 1.25015 V 124.69 h -1.25015 q -1.40891,0 -1.9447,-0.52255 -0.53578,-0.52917 -0.53578,-1.91823 v -4.02168 h -0.89297 v -0.94589 h 0.89297 v -2.10344 z"
         style=""
         id="path124" />
      <path
         d="m 319.84149,118.41936 q -0.20505,-0.11906 -0.44979,-0.17198 -0.23813,-0.0595 -0.52917,-0.0595 -1.03188,0 -1.5875,0.67469 -0.54901,0.66807 -0.54901,1.92485 V 124.69 h -1.2237 v -7.40835 h 1.2237 v 1.15094 q 0.38364,-0.67469 0.9988,-0.9988 0.61516,-0.33073 1.4949,-0.33073 0.12568,0 0.27781,0.0198 0.15214,0.0132 0.33735,0.0463 z"
         style=""
         id="path126" />
      <path
         d="m 321.11811,117.28165 h 1.21709 V 124.69 h -1.21709 z m 0,-2.88396 h 1.21709 v 1.5412 h -1.21709 z"
         style=""
         id="path128" />
      <path
         d="m 331.04001,117.28165 -2.67891,3.60496 2.81782,3.80339 h -1.43537 l -2.15636,-2.91042 -2.15636,2.91042 h -1.43537 l 2.87735,-3.87615 -2.63261,-3.5322 h 1.43537 l 1.96453,2.63923 1.96454,-2.63923 z"
         style=""
         id="path130" />
      <path
         d="m 332.78626,114.39769 h 2.80459 v 0.94588 h -1.5875 v 10.18649 h 1.5875 v 0.94588 h -2.80459 z"
         style=""
         id="path132" />
      <path
         d="m 341.21326,115.69415 q -1.03187,0 -1.55443,1.01865 -0.51594,1.01203 -0.51594,3.04933 0,2.03068 0.51594,3.04933 0.52256,1.01203 1.55443,1.01203 1.0385,0 1.55443,-1.01203 0.52256,-1.01865 0.52256,-3.04933 0,-2.0373 -0.52256,-3.04933 -0.51593,-1.01865 -1.55443,-1.01865 z m 0,-1.05834 q 1.66027,0 2.53339,1.31631 0.87975,1.30969 0.87975,3.81001 0,2.4937 -0.87975,3.81001 -0.87312,1.30969 -2.53339,1.30969 -1.66026,0 -2.54,-1.30969 -0.87313,-1.31631 -0.87313,-3.81001 0,-2.50032 0.87313,-3.81001 0.87974,-1.31631 2.54,-1.31631 z"
         style=""
         id="path134" />
      <path
         d="m 349.64688,114.39769 v 12.07825 h -2.80459 v -0.94588 h 1.58089 v -10.18649 h -1.58089 v -0.94588 z"
         style=""
         id="path136" />
      <path
         d="m 351.97522,114.39769 h 2.80459 v 0.94588 h -1.58751 v 10.18649 h 1.58751 v 0.94588 h -2.80459 z"
         style=""
         id="path138" />
      <path
         d="m 360.40221,115.69415 q -1.03187,0 -1.55443,1.01865 -0.51594,1.01203 -0.51594,3.04933 0,2.03068 0.51594,3.04933 0.52256,1.01203 1.55443,1.01203 1.03849,0 1.55443,-1.01203 0.52256,-1.01865 0.52256,-3.04933 0,-2.0373 -0.52256,-3.04933 -0.51594,-1.01865 -1.55443,-1.01865 z m 0,-1.05834 q 1.66027,0 2.53339,1.31631 0.87975,1.30969 0.87975,3.81001 0,2.4937 -0.87975,3.81001 -0.87312,1.30969 -2.53339,1.30969 -1.66026,0 -2.54,-1.30969 -0.87313,-1.31631 -0.87313,-3.81001 0,-2.50032 0.87313,-3.81001 0.87974,-1.31631 2.54,-1.31631 z"
         style=""
         id="path140" />
      <path
         d="m 368.83583,114.39769 v 12.07825 h -2.80459 v -0.94588 h 1.58089 v -10.18649 h -1.58089 v -0.94588 z"
         style=""
         id="path142" />
    </g>
    <g
       aria-label="↓"
       style="font-style:normal;font-weight:normal;font-size:13.54669952px;font-family:sans-serif;text-anchor:middle;fill:#000000;fill-opacity:1;stroke:none"
       id="text22">
      <path
         d="m 360.29766,140.0463 h -0.59532 l -2.60615,-2.60615 0.79375,-0.79375 1.54782,1.54781 v -8.06981 h 1.12448 v 8.06981 l 1.53459,-1.54781 0.79375,0.79375 z"
         style=""
         id="path145" />
    </g>
    <g
       aria-label="matrix[0][5]"
       style="font-style:normal;font-weight:normal;font-size:13.54669952px;font-family:sans-serif;text-anchor:end;fill:#000000;fill-opacity:1;stroke:none"
       id="text26">
      <path
         d="m 394.60758,118.70379 q 0.45641,-0.82021 1.09141,-1.21047 0.635,-0.39026 1.4949,-0.39026 1.15756,0 1.78594,0.81359 0.62839,0.80698 0.62839,2.30188 V 124.69 h -1.2237 v -4.43178 q 0,-1.06495 -0.37703,-1.58089 -0.37703,-0.51594 -1.15094,-0.51594 -0.94589,0 -1.4949,0.62839 -0.54901,0.62839 -0.54901,1.71318 V 124.69 h -1.2237 v -4.43178 q 0,-1.07156 -0.37704,-1.58089 -0.37703,-0.51594 -1.16417,-0.51594 -0.93266,0 -1.48167,0.635 -0.54901,0.62839 -0.54901,1.70657 V 124.69 h -1.2237 v -7.40835 h 1.2237 v 1.15094 q 0.41672,-0.6813 0.99881,-1.00542 0.58208,-0.32411 1.38245,-0.32411 0.80698,0 1.36922,0.4101 0.56885,0.41011 0.84005,1.19063 z"
         style=""
         id="path148" />
      <path
         d="m 405.40261,120.96598 q -1.47506,0 -2.04391,0.33735 -0.56886,0.33734 -0.56886,1.15094 0,0.64823 0.42334,1.03188 0.42995,0.37703 1.16417,0.37703 1.01203,0 1.62057,-0.71438 0.61516,-0.72099 0.61516,-1.91162 v -0.2712 z m 2.42756,-0.50271 V 124.69 h -1.21709 v -1.12448 q -0.41672,0.67469 -1.03849,0.99881 -0.62177,0.3175 -1.52136,0.3175 -1.13771,0 -1.8124,-0.63501 -0.66807,-0.64161 -0.66807,-1.71318 0,-1.25016 0.83344,-1.88516 0.84005,-0.635 2.50031,-0.635 h 1.70657 v -0.11906 q 0,-0.84006 -0.55562,-1.29646 -0.54902,-0.46303 -1.54782,-0.46303 -0.635,0 -1.23693,0.15214 -0.60193,0.15214 -1.15756,0.45641 V 117.619 q 0.66808,-0.25797 1.29647,-0.38365 0.62838,-0.13229 1.2237,-0.13229 1.60734,0 2.4011,0.83344 0.79375,0.83344 0.79375,2.52677 z"
         style=""
         id="path150" />
      <path
         d="m 411.54096,115.17821 v 2.10344 h 2.50693 v 0.94589 h -2.50693 v 4.02168 q 0,0.9062 0.24474,1.16416 0.25135,0.25797 1.01203,0.25797 h 1.25016 V 124.69 h -1.25016 q -1.40891,0 -1.94469,-0.52255 -0.53578,-0.52917 -0.53578,-1.91823 v -4.02168 h -0.89297 v -0.94589 h 0.89297 v -2.10344 z"
         style=""
         id="path152" />
      <path
         d="m 419.9415,118.41936 q -0.20505,-0.11906 -0.44979,-0.17198 -0.23813,-0.0595 -0.52917,-0.0595 -1.03188,0 -1.58751,0.67469 -0.54901,0.66807 -0.54901,1.92485 V 124.69 h -1.2237 v -7.40835 h 1.2237 v 1.15094 q 0.38365,-0.67469 0.99881,-0.9988 0.61516,-0.33073 1.4949,-0.33073 0.12567,0 0.27781,0.0198 0.15214,0.0132 0.33734,0.0463 z"
         style=""
         id="path154" />
      <path
         d="m 421.21812,117.28165 h 1.21708 V 124.69 h -1.21708 z m 0,-2.88396 h 1.21708 v 1.5412 h -1.21708 z"
         style=""
         id="path156" />
      <path
         d="m 431.14001,117.28165 -2.67891,3.60496 2.81782,3.80339 h -1.43537 l -2.15636,-2.91042 -2.15636,2.91042 h -1.43536 l 2.87735,-3.87615 -2.63261,-3.5322 h 1.43536 l 1.96454,2.63923 1.96454,-2.63923 z"
         style=""
         id="path158" />
      <path
         d="m 432.88627,114.39769 h 2.80459 v 0.94588 h -1.5875 v 10.18649 h 1.5875 v 0.94588 h -2.80459 z"
         style=""
         id="path160" />
      <path
         d="m 441.31327,115.69415 q -1.03188,0 -1.55443,1.01865 -0.51594,1.01203 -0.51594,3.04933 0,2.03068 0.51594,3.04933 0.52255,1.01203 1.55443,1.01203 1.03849,0 1.55443,-1.01203 0.52255,-1.01865 0.52255,-3.04933 0,-2.0373 -0.52255,-3.04933 -0.51594,-1.01865 -1.55443,-1.01865 z m 0,-1.05834 q 1.66026,0 2.53339,1.31631 0.87974,1.30969 0.87974,3.81001 0,2.4937 -0.87974,3.81001 -0.87313,1.30969 -2.53339,1.30969 -1.66027,0 -2.54001,-1.30969 -0.87312,-1.31631 -0.87312,-3.81001 0,-2.50032 0.87312,-3.81001 0.87974,-1.31631 2.54001,-1.31631 z"
         style=""
         id="path162" />
      <path
         d="m 449.74688,114.39769 v 12.07825 h -2.80459 v -0.94588 h 1.58089 v -10.18649 h -1.58089 v -0.94588 z"
         style=""
         id="path164" />
      <path
         d="m 452.07522,114.39769 h 2.80459 v 0.94588 h -1.5875 v 10.18649 h 1.5875 v 0.94588 h -2.80459 z"
         style=""
         id="path166" />
      <path
         d="m 457.65794,114.81441 h 5.24538 v 1.12448 h -4.02168 v 2.42094 q 0.29104,-0.0992 0.58209,-0.14552 0.29104,-0.0529 0.58208,-0.0529 1.65365,0 2.61938,0.9062 0.96573,0.9062 0.96573,2.45402 0,1.59412 -0.99219,2.48047 -0.99219,0.87975 -2.79797,0.87975 -0.62177,0 -1.27,-0.10584 -0.64162,-0.10583 -1.32954,-0.3175 v -1.34276 q 0.59532,0.32411 1.23032,0.48286 0.635,0.15875 1.34276,0.15875 1.14433,0 1.8124,-0.60192 0.66808,-0.60193 0.66808,-1.63381 0,-1.03188 -0.66808,-1.63381 -0.66807,-0.60193 -1.8124,-0.60193 -0.53578,0 -1.07156,0.11907 -0.52917,0.11906 -1.0848,0.37042 z"
         style=""
         id="path168" />
      <path
         d="m 468.93584,114.39769 v 12.07825 h -2.80459 v -0.94588 h 1.58089 v -10.18649 h -1.58089 v -0.94588 z"
         style=""
         id="path170" />
    </g>
    <g
       aria-label="↓"
       style="font-style:normal;font-weight:normal;font-size:13.54669952px;font-family:sans-serif;text-anchor:middle;fill:#000000;fill-opacity:1;stroke:none"
       id="text30">
      <path
         d="m 460.29766,140.0463 h -0.59532 l -2.60615,-2.60615 0.79375,-0.79375 1.54782,1.54781 v -8.06981 h 1.12448 v 8.06981 l 1.53459,-1.54781 0.79375,0.79375 z"
         style=""
         id="path173" />
    </g>
    <g
       id="g44"
       transform="matrix(1,0,0,0.772727,0,33.8636)">
      <path
         style="fill:#fdfd04;fill-opacity:1;stroke:#000000;stroke-width:2;stroke-opacity:1"
         d="m 350,150 h 20 v 20 h -20 z"
         id="rect32" />
      <path
         style="fill:#fdfd04;fill-opacity:1;stroke:#000000;stroke-width:2;stroke-opacity:1"
         d="m 370,150 h 20 v 20 h -20 z"
         id="rect34" />
      <path
         style="fill:#fdfd04;fill-opacity:1;stroke:#000000;stroke-width:2;stroke-opacity:1"
         d="m 390,150 h 20 v 20 h -20 z"
         id="rect36" />
      <path
         style="fill:#fdfd04;fill-opacity:1;stroke:#000000;stroke-width:2;stroke-opacity:1"
         d="m 410,150 h 20 v 20 h -20 z"
         id="rect38" />
      <path
         style="fill:#fdfd04;fill-opacity:1;stroke:#000000;stroke-width:2;stroke-opacity:1"
         d="m 430,150 h 20 v 20 h -20 z"
         id="rect40" />
      <path
         style="fill:#fdfd04;fill-opacity:1;stroke:#000000;stroke-width:2;stroke-opacity:1"
         d="m 450,150 h 20 v 20 h -20 z"
         id="rect42" />
    </g>
    <g
       id="g58"
       transform="matrix(1,0,0,0.772727,0,37.7272)">
      <path
         style="fill:#7babe3;fill-opacity:1;stroke:#000000;stroke-width:2;stroke-opacity:1"
         d="m 350,166 h 20 v 20 h -20 z"
         id="rect46" />
      <path
         style="fill:#7babe3;fill-opacity:1;stroke:#000000;stroke-width:2;stroke-opacity:1"
         d="m 370,166 h 20 v 20 h -20 z"
         id="rect48" />
      <path
         style="fill:#7babe3;fill-opacity:1;stroke:#000000;stroke-width:2;stroke-opacity:1"
         d="m 390,166 h 20 v 20 h -20 z"
         id="rect50" />
      <path
         style="fill:#7babe3;fill-opacity:1;stroke:#000000;stroke-width:2;stroke-opacity:1"
         d="m 410,166 h 20 v 20 h -20 z"
         id="rect52" />
      <path
         style="fill:#7babe3;fill-opacity:1;stroke:#000000;stroke-width:2;stroke-opacity:1"
         d="m 430,166 h 20 v 20 h -20 z"
         id="rect54" />
      <path
         style="fill:#7babe3;fill-opacity:1;stroke:#000000;stroke-width:2;stroke-opacity:1"
         d="m 450,166 h 20 v 20 h -20 z"
         id="rect56" />
    </g>
    <g
       id="g72"
       transform="matrix(1,0,0,0.772727,0,53.9546)">
      <path
         style="fill:#7babe3;fill-opacity:1;stroke:#000000;stroke-width:2;stroke-opacity:1"
         d="m 350,166 h 20 v 20 h -20 z"
         id="rect60" />
      <path
         style="fill:#7babe3;fill-opacity:1;stroke:#000000;stroke-width:2;stroke-opacity:1"
         d="m 370,166 h 20 v 20 h -20 z"
         id="rect62" />
      <path
         style="fill:#7babe3;fill-opacity:1;stroke:#000000;stroke-width:2;stroke-opacity:1"
         d="m 390,166 h 20 v 20 h -20 z"
         id="rect64" />
      <path
         style="fill:#7babe3;fill-opacity:1;stroke:#000000;stroke-width:2;stroke-opacity:1"
         d="m 410,166 h 20 v 20 h -20 z"
         id="rect66" />
      <path
         style="fill:#7babe3;fill-opacity:1;stroke:#000000;stroke-width:2;stroke-opacity:1"
         d="m 430,166 h 20 v 20 h -20 z"
         id="rect68" />
      <path
         style="fill:#7babe3;fill-opacity:1;stroke:#000000;stroke-width:2;stroke-opacity:1"
         d="m 450,166 h 20 v 20 h -20 z"
         id="rect70" />
    </g>
    <g
       id="g86"
       transform="matrix(1,0,0,0.772727,0,69.9546)">
      <path
         style="fill:#7babe3;fill-opacity:1;stroke:#000000;stroke-width:2;stroke-opacity:1"
         d="m 350,166 h 20 v 20 h -20 z"
         id="rect74" />
      <path
         style="fill:#7babe3;fill-opacity:1;stroke:#000000;stroke-width:2;stroke-opacity:1"
         d="m 370,166 h 20 v 20 h -20 z"
         id="rect76" />
      <path
         style="fill:#7babe3;fill-opacity:1;stroke:#000000;stroke-width:2;stroke-opacity:1"
         d="m 390,166 h 20 v 20 h -20 z"
         id="rect78" />
      <path
         style="fill:#7babe3;fill-opacity:1;stroke:#000000;stroke-width:2;stroke-opacity:1"
         d="m 410,166 h 20 v 20 h -20 z"
         id="rect80" />
      <path
         style="fill:#7babe3;fill-opacity:1;stroke:#000000;stroke-width:2;stroke-opacity:1"
         d="m 430,166 h 20 v 20 h -20 z"
         id="rect82" />
      <path
         style="fill:#7babe3;fill-opacity:1;stroke:#000000;stroke-width:2;stroke-opacity:1"
         d="m 450,166 h 20 v 20 h -20 z"
         id="rect84" />
    </g>
    <g
       id="g100"
       transform="matrix(1,0,0,0.772727,0,85.9546)">
      <path
         style="fill:#7babe3;fill-opacity:1;stroke:#000000;stroke-width:2;stroke-opacity:1"
         d="m 350,166 h 20 v 20 h -20 z"
         id="rect88" />
      <path
         style="fill:#7babe3;fill-opacity:1;stroke:#000000;stroke-width:2;stroke-opacity:1"
         d="m 370,166 h 20 v 20 h -20 z"
         id="rect90" />
      <path
         style="fill:#7babe3;fill-opacity:1;stroke:#000000;stroke-width:2;stroke-opacity:1"
         d="m 390,166 h 20 v 20 h -20 z"
         id="rect92" />
      <path
         style="fill:#7babe3;fill-opacity:1;stroke:#000000;stroke-width:2;stroke-opacity:1"
         d="m 410,166 h 20 v 20 h -20 z"
         id="rect94" />
      <path
         style="fill:#7babe3;fill-opacity:1;stroke:#000000;stroke-width:2;stroke-opacity:1"
         d="m 430,166 h 20 v 20 h -20 z"
         id="rect96" />
      <path
         style="fill:#7babe3;fill-opacity:1;stroke:#000000;stroke-width:2;stroke-opacity:1"
         d="m 450,166 h 20 v 20 h -20 z"
         id="rect98" />
    </g>
  </g>
</svg>
