<?xml version="1.0" encoding="UTF-8"?>
<svg id="svg135" width="36.743cm" height="13.784cm" version="1.1" viewBox="280 303 716 269.77" xmlns="http://www.w3.org/2000/svg" xmlns:cc="http://creativecommons.org/ns#" xmlns:dc="http://purl.org/dc/elements/1.1/" xmlns:rdf="http://www.w3.org/1999/02/22-rdf-syntax-ns#">
 <metadata id="metadata141">
  <rdf:RDF>
   <cc:Work rdf:about="">
    <dc:format>image/svg+xml</dc:format>
    <dc:type rdf:resource="http://purl.org/dc/dcmitype/StillImage"/>
   </cc:Work>
  </rdf:RDF>
 </metadata>
 <g id="Háttér" transform="translate(-2.4425 -3.5945)">
  <path id="polygon2" d="m840 540 40-50 60 50z" fill="#fff" fill-rule="evenodd" stroke="#000" stroke-width="2"/>
  <path id="line4" d="m300 380h180" fill="none" stroke="#000" stroke-width="2"/>
  <path id="line6" d="m320 360v40" fill="none" stroke="#000" stroke-width="2"/>
  <path id="line8" d="m560 380h180" fill="none" stroke="#000" stroke-width="2"/>
  <path id="line10" d="m580 360v40" fill="none" stroke="#000" stroke-width="2"/>
  <path id="path12" d="m672 416a98.793 98.793 0 0 0 0-72" fill="none" stroke="#7f7f7f" stroke-width="2"/>
  <g id="text16" aria-label="A">
   <path id="path79" d="m304.38 401.91-1.7125 4.6438h3.4312zm-0.7125-1.2438h1.4312l3.5562 9.3312h-1.3125l-0.85-2.3938h-4.2062l-0.85 2.3938h-1.3312z" style=""/>
  </g>
  <g id="text20" aria-label="A">
   <path id="path82" d="m564.38 401.91-1.7125 4.6438h3.4312zm-0.7125-1.2438h1.4312l3.5562 9.3312h-1.3125l-0.85-2.3938h-4.2062l-0.85 2.3938h-1.3312z" style=""/>
  </g>
  <g id="text24" aria-label="B">
   <path id="path85" d="m682.52 405.54v3.4188h2.025q1.0188 0 1.5062-0.41875 0.49375-0.425 0.49375-1.2938 0-0.875-0.49375-1.2875-0.4875-0.41875-1.5062-0.41875zm0-3.8375v2.8125h1.8688q0.925 0 1.375-0.34375 0.45625-0.35 0.45625-1.0625 0-0.70625-0.45625-1.0562-0.45-0.35-1.375-0.35zm-1.2625-1.0375h3.225q1.4438 0 2.225 0.6t0.78125 1.7062q0 0.85625-0.4 1.3625t-1.175 0.63125q0.93125 0.2 1.4438 0.8375 0.51875 0.63125 0.51875 1.5812 0 1.25-0.85 1.9312t-2.4188 0.68125h-3.35z" style=""/>
  </g>
  <path id="line26" d="m820 380h180" fill="none" stroke="#000" stroke-width="2"/>
  <path id="line28" d="m840 360v40" fill="none" stroke="#000" stroke-width="2"/>
  <g id="text32" aria-label="A">
   <path id="path91" d="m824.38 401.91-1.7125 4.6438h3.4312zm-0.7125-1.2438h1.4312l3.5562 9.3312h-1.3125l-0.85-2.3938h-4.2062l-0.85 2.3938h-1.3312z" style=""/>
  </g>
  <g id="text36" aria-label="B">
   <path id="path95" d="m942.52 405.54v3.4188h2.025q1.0188 0 1.5062-0.41875 0.49375-0.425 0.49375-1.2938 0-0.875-0.49375-1.2875-0.4875-0.41875-1.5062-0.41875zm0-3.8375v2.8125h1.8688q0.925 0 1.375-0.34375 0.45625-0.35 0.45625-1.0625 0-0.70625-0.45625-1.0562-0.45-0.35-1.375-0.35zm-1.2625-1.0375h3.225q1.4438 0 2.225 0.6t0.78125 1.7062q0 0.85625-0.4 1.3625t-1.175 0.63125q0.93125 0.2 1.4438 0.8375 0.51875 0.63125 0.51875 1.5812 0 1.25-0.85 1.9312t-2.4188 0.68125h-3.35z" style=""/>
  </g>
  <path id="line38" d="m300 540h180" fill="none" stroke="#000" stroke-width="2"/>
  <path id="line40" d="m320 520v40" fill="none" stroke="#000" stroke-width="2"/>
  <g id="text44" aria-label="A">
   <path id="path100" d="m304.38 561.91-1.7125 4.6438h3.4312zm-0.7125-1.2438h1.4312l3.5562 9.3312h-1.3125l-0.85-2.3938h-4.2062l-0.85 2.3938h-1.3312z" style=""/>
  </g>
  <g id="text48" aria-label="B">
   <path id="path103" d="m422.52 565.54v3.4188h2.025q1.0188 0 1.5062-0.41875 0.49375-0.425 0.49375-1.2938 0-0.875-0.49375-1.2875-0.4875-0.41875-1.5062-0.41875zm0-3.8375v2.8125h1.8688q0.925 0 1.375-0.34375 0.45625-0.35 0.45625-1.0625 0-0.70625-0.45625-1.0562-0.45-0.35-1.375-0.35zm-1.2625-1.0375h3.225q1.4438 0 2.225 0.6t0.78125 1.7062q0 0.85625-0.4 1.3625t-1.175 0.63125q0.93125 0.2 1.4438 0.8375 0.51875 0.63125 0.51875 1.5812 0 1.25-0.85 1.9312t-2.4188 0.68125h-3.35z" style=""/>
  </g>
  <path id="path50" d="m380 516a64.902 64.902 0 0 0-52-40" fill="none" stroke="#7f7f7f" stroke-width="2"/>
  <path id="path52" d="m392 468a77.097 77.097 0 0 0-48 60" fill="none" stroke="#7f7f7f" stroke-width="2"/>
  <path id="path54" d="m900 356a64.902 64.902 0 0 0-52-40" fill="none" stroke="#7f7f7f" stroke-width="2"/>
  <path id="path56" d="m412 576a98.793 98.793 0 0 0 0-72" fill="none" stroke="#7f7f7f" stroke-width="2"/>
  <path id="path58" d="m932 416a98.793 98.793 0 0 0 0-72" fill="none" stroke="#7f7f7f" stroke-width="2"/>
  <path id="line60" d="m560 540h180" fill="none" stroke="#000" stroke-width="2"/>
  <path id="line62" d="m580 520v40" fill="none" stroke="#000" stroke-width="2"/>
  <g id="text66" aria-label="A">
   <path id="path108" d="m564.38 561.91-1.7125 4.6438h3.4312zm-0.7125-1.2438h1.4312l3.5562 9.3312h-1.3125l-0.85-2.3938h-4.2062l-0.85 2.3938h-1.3312z" style=""/>
  </g>
  <g id="text70" aria-label="B">
   <path id="path111" d="m682.52 565.54v3.4188h2.025q1.0188 0 1.5062-0.41875 0.49375-0.425 0.49375-1.2938 0-0.875-0.49375-1.2875-0.4875-0.41875-1.5062-0.41875zm0-3.8375v2.8125h1.8688q0.925 0 1.375-0.34375 0.45625-0.35 0.45625-1.0625 0-0.70625-0.45625-1.0562-0.45-0.35-1.375-0.35zm-1.2625-1.0375h3.225q1.4438 0 2.225 0.6t0.78125 1.7062q0 0.85625-0.4 1.3625t-1.175 0.63125q0.93125 0.2 1.4438 0.8375 0.51875 0.63125 0.51875 1.5812 0 1.25-0.85 1.9312t-2.4188 0.68125h-3.35z" style=""/>
  </g>
  <path id="path72" d="m640 516a64.902 64.902 0 0 0-52-40" fill="none" stroke="#7f7f7f" stroke-width="2"/>
  <path id="path74" d="m652 468a77.097 77.097 0 0 0-48 60" fill="none" stroke="#7f7f7f" stroke-width="2"/>
  <path id="path76" d="m672 576a98.793 98.793 0 0 0 0-72" fill="none" stroke="#7f7f7f" stroke-width="2"/>
  <path id="line78" d="m820 540h180" fill="none" stroke="#000" stroke-width="2"/>
  <path id="line80" d="m840 520v40" fill="none" stroke="#000" stroke-width="2"/>
  <g id="text84" aria-label="A">
   <path id="path116" d="m824.38 561.91-1.7125 4.6438h3.4312zm-0.7125-1.2438h1.4312l3.5562 9.3312h-1.3125l-0.85-2.3938h-4.2062l-0.85 2.3938h-1.3312z" style=""/>
  </g>
  <g id="text88" aria-label="B">
   <path id="path119" d="m942.52 565.54v3.4188h2.025q1.0188 0 1.5062-0.41875 0.49375-0.425 0.49375-1.2938 0-0.875-0.49375-1.2875-0.4875-0.41875-1.5062-0.41875zm0-3.8375v2.8125h1.8688q0.925 0 1.375-0.34375 0.45625-0.35 0.45625-1.0625 0-0.70625-0.45625-1.0562-0.45-0.35-1.375-0.35zm-1.2625-1.0375h3.225q1.4438 0 2.225 0.6t0.78125 1.7062q0 0.85625-0.4 1.3625t-1.175 0.63125q0.93125 0.2 1.4438 0.8375 0.51875 0.63125 0.51875 1.5812 0 1.25-0.85 1.9312t-2.4188 0.68125h-3.35z" style=""/>
  </g>
  <path id="path90" d="m900 516a64.902 64.902 0 0 0-52-40" fill="none" stroke="#7f7f7f" stroke-width="2"/>
  <path id="path92" d="m912 468a77.097 77.097 0 0 0-48 60" fill="none" stroke="#7f7f7f" stroke-width="2"/>
  <path id="path94" d="m932 576a98.793 98.793 0 0 0 0-72" fill="none" stroke="#7f7f7f" stroke-width="2"/>
  <path id="line96" d="m580 540 40-50" fill="none" stroke="#000" stroke-width="2"/>
  <g id="text100" aria-label="C">
   <path id="path123" d="m388.24 491.39v1.3312q-0.6375-0.59375-1.3625-0.8875-0.71875-0.29375-1.5312-0.29375-1.6 0-2.45 0.98125-0.85 0.975-0.85 2.825 0 1.8438 0.85 2.825 0.85 0.975 2.45 0.975 0.8125 0 1.5312-0.29375 0.725-0.29375 1.3625-0.8875v1.3188q-0.6625 0.45-1.4062 0.675-0.7375 0.225-1.5625 0.225-2.1188 0-3.3375-1.2938-1.2188-1.3-1.2188-3.5438 0-2.25 1.2188-3.5438 1.2188-1.3 3.3375-1.3 0.8375 0 1.575 0.225 0.74375 0.21875 1.3938 0.6625z" style=""/>
  </g>
  <g id="text104" aria-label="1.">
   <path id="path126" d="m282.24 318.5h2.9104v-10.045l-3.1662 0.635v-1.6228l3.1485-0.63499h1.7815v11.668h2.9104v1.4993h-7.5847z" style=""/>
   <path id="path128" d="m293.43 317.76h1.8609v2.2401h-1.8609z" style=""/>
  </g>
  <g id="text108" aria-label="2.">
   <path id="path131" d="m563.47 318.5h6.2177v1.4993h-8.3608v-1.4993q1.0142-1.0495 2.7605-2.8134 1.7551-1.7727 2.2049-2.2842 0.85548-0.96131 1.1906-1.6228 0.34396-0.67028 0.34396-1.3141 0-1.0495-0.74083-1.711-0.73202-0.66146-1.9138-0.66146-0.83785 0-1.7727 0.29105-0.92604 0.29104-1.9844 0.88194v-1.7992q1.076-0.43215 2.0108-0.65263 0.93486-0.22049 1.711-0.22049 2.0461 0 3.2632 1.023 1.2171 1.0231 1.2171 2.734 0 0.81139-0.30868 1.5434-0.29986 0.72319-1.1024 1.711-0.22048 0.25576-1.4023 1.4817-1.1818 1.2171-3.3337 3.4131z" style=""/>
   <path id="path133" d="m573.43 317.76h1.8609v2.2401h-1.8609z" style=""/>
  </g>
  <g id="text112" aria-label="3.">
   <path id="path136" d="m827.33 312.9q1.2788 0.2734 1.9932 1.1377 0.7232 0.86431 0.7232 2.1343 0 1.9491-1.3406 3.0162-1.3406 1.0672-3.81 1.0672-0.82903 0-1.711-0.16757-0.87313-0.15875-1.808-0.48506v-1.7198q0.74083 0.43215 1.6228 0.65263 0.88194 0.22049 1.8433 0.22049 1.6757 0 2.5488-0.66146 0.88194-0.66146 0.88194-1.9226 0-1.1642-0.82021-1.8168-0.81139-0.66146-2.2666-0.66146h-1.5346v-1.464h1.6051q1.3141 0 2.0108-0.52035 0.69674-0.52916 0.69674-1.5169 0-1.0142-0.72319-1.5522-0.71438-0.54681-2.0549-0.54681-0.73202 0-1.5699 0.15875-0.83785 0.15875-1.8433 0.49389v-1.5875q1.0142-0.28222 1.8962-0.42333 0.89077-0.14111 1.6757-0.14111 2.0285 0 3.2103 0.92604 1.1818 0.91722 1.1818 2.4871 0 1.0936-0.62617 1.8521-0.62618 0.74965-1.7815 1.0407z" style=""/>
   <path id="path138" d="m833.43 317.76h1.8609v2.2401h-1.8609z" style=""/>
  </g>
  <g id="text116" aria-label="4.">
   <path id="path141" d="m286.83 468.38-4.4979 7.0291h4.4979zm-0.46743-1.5522h2.2401v8.5813h1.8785v1.4817h-1.8785v3.1044h-1.7727v-3.1044h-5.9443v-1.7198z" style=""/>
   <path id="path143" d="m293.43 477.76h1.8609v2.2401h-1.8609z" style=""/>
  </g>
  <g id="text120" aria-label="5.">
   <path id="path146" d="m561.95 466.83h6.9938v1.4993h-5.3622v3.2279q0.38806-0.13229 0.77611-0.19403 0.38806-0.0706 0.77611-0.0706 2.2049 0 3.4925 1.2083 1.2876 1.2083 1.2876 3.272 0 2.1255-1.3229 3.3073-1.3229 1.173-3.7306 1.173-0.82903 0-1.6933-0.14111-0.85549-0.14111-1.7727-0.42333v-1.7904q0.79375 0.43216 1.6404 0.64382 0.84666 0.21167 1.7903 0.21167 1.5258 0 2.4165-0.80257 0.89076-0.80257 0.89076-2.1784t-0.89076-2.1784q-0.89077-0.80257-2.4165-0.80257-0.71437 0-1.4288 0.15875-0.70555 0.15875-1.4464 0.49389z" style=""/>
   <path id="path148" d="m573.43 477.76h1.8609v2.2401h-1.8609z" style=""/>
  </g>
  <g id="text124" aria-label="6.">
   <path id="path151" d="m825.96 472.71q-1.1994 0-1.905 0.82021-0.69674 0.8202-0.69674 2.249 0 1.4199 0.69674 2.249 0.70555 0.8202 1.905 0.8202 1.1994 0 1.8962-0.8202 0.70555-0.82903 0.70555-2.249 0-1.4288-0.70555-2.249-0.69674-0.82021-1.8962-0.82021zm3.5366-5.5827v1.6228q-0.67028-0.3175-1.3582-0.48507-0.6791-0.16757-1.3494-0.16757-1.7639 0-2.6987 1.1906-0.92604 1.1906-1.0583 3.5983 0.52034-0.76729 1.3053-1.173 0.78493-0.41451 1.7286-0.41451 1.9844 0 3.1309 1.2083 1.1554 1.1994 1.1554 3.272 0 2.0285-1.1994 3.2544-1.1994 1.2259-3.1926 1.2259-2.2842 0-3.4925-1.7462-1.2083-1.7551-1.2083-5.08 0-3.1221 1.4817-4.9742 1.4817-1.8609 3.9776-1.8609 0.67028 0 1.3494 0.13229 0.68792 0.13229 1.4288 0.39688z" style=""/>
   <path id="path153" d="m833.43 477.76h1.8609v2.2401h-1.8609z" style=""/>
  </g>
  <g id="text128" aria-label="C">
   <path id="path156" d="m648.24 491.39v1.3312q-0.6375-0.59375-1.3625-0.8875-0.71875-0.29375-1.5312-0.29375-1.6 0-2.45 0.98125-0.85 0.975-0.85 2.825 0 1.8438 0.85 2.825 0.85 0.975 2.45 0.975 0.8125 0 1.5312-0.29375 0.725-0.29375 1.3625-0.8875v1.3188q-0.6625 0.45-1.4062 0.675-0.7375 0.225-1.5625 0.225-2.1188 0-3.3375-1.2938-1.2188-1.3-1.2188-3.5438 0-2.25 1.2188-3.5438 1.2188-1.3 3.3375-1.3 0.8375 0 1.575 0.225 0.74375 0.21875 1.3938 0.6625z" style=""/>
  </g>
  <g id="text132" aria-label="C">
   <path id="path159" d="m908.24 491.39v1.3312q-0.6375-0.59375-1.3625-0.8875-0.71875-0.29375-1.5312-0.29375-1.6 0-2.45 0.98125-0.85 0.975-0.85 2.825 0 1.8438 0.85 2.825 0.85 0.975 2.45 0.975 0.8125 0 1.5312-0.29375 0.725-0.29375 1.3625-0.8875v1.3188q-0.6625 0.45-1.4062 0.675-0.7375 0.225-1.5625 0.225-2.1188 0-3.3375-1.2938-1.2188-1.3-1.2188-3.5438 0-2.25 1.2188-3.5438 1.2188-1.3 3.3375-1.3 0.8375 0 1.575 0.225 0.74375 0.21875 1.3938 0.6625z" style=""/>
  </g>
 </g>
</svg>
