<?xml version="1.0" encoding="UTF-8"?>
<svg id="svg149" width="33.846cm" height="22.723cm" version="1.1" viewBox="129 50 659 443.6" xmlns="http://www.w3.org/2000/svg" xmlns:cc="http://creativecommons.org/ns#" xmlns:dc="http://purl.org/dc/elements/1.1/" xmlns:rdf="http://www.w3.org/1999/02/22-rdf-syntax-ns#">
 <metadata id="metadata153">
  <rdf:RDF>
   <cc:Work rdf:about="">
    <dc:format>image/svg+xml</dc:format>
    <dc:type rdf:resource="http://purl.org/dc/dcmitype/StillImage"/>
   </cc:Work>
  </rdf:RDF>
 </metadata>
 <g id="Háttér" transform="translate(-.86566 -3.5896)">
  <path id="ellipse4" d="m480 70a10 10 0 0 1-10 10 10 10 0 0 1-10-10 10 10 0 0 1 10-10 10 10 0 0 1 10 10z" fill="#fff" stroke="#000" stroke-width="2"/>
  <g id="text10" aria-label="Budapest47.49, 19.04">
   <path id="path81" d="m493.11 60.095v4.2212h2.5003q1.2579 0 1.8598-0.51704 0.60964-0.52476 0.60964-1.5974 0-1.0804-0.60964-1.5897-0.60193-0.51704-1.8598-0.51704zm0-4.7382v3.4726h2.3074q1.1421 0 1.6977-0.42443 0.56334-0.43215 0.56334-1.3119 0-0.87202-0.56334-1.3042-0.55563-0.43215-1.6977-0.43215zm-1.5588-1.281h3.982q1.7826 0 2.7472 0.74083 0.96463 0.74083 0.96463 2.1067 0 1.0572-0.49389 1.6823-0.49389 0.62508-1.4508 0.77942 1.1498 0.24694 1.7826 1.0341 0.64051 0.77942 0.64051 1.9524 0 1.5434-1.0495 2.3846t-2.9865 0.84115h-4.1363z" style=""/>
   <path id="path83" d="m502.18 62.186v-5.2321h1.4199v5.1781q0 1.227 0.47845 1.8444 0.47846 0.60964 1.4354 0.60964 1.1498 0 1.8135-0.73311 0.67138-0.73311 0.67138-1.9987v-4.9003h1.4199v8.643h-1.4199v-1.3273q-0.51704 0.78713-1.2038 1.173-0.6791 0.37813-1.582 0.37813-1.4894 0-2.2611-0.92604t-0.7717-2.7087zm3.573-5.4405z" style=""/>
   <path id="path85" d="m518.04 58.266v-4.6765h1.4199v12.008h-1.4199v-1.2965q-0.44758 0.7717-1.1344 1.1498-0.67909 0.37042-1.636 0.37042-1.5666 0-2.5543-1.2502-0.98006-1.2502-0.98006-3.2874t0.98006-3.2874q0.98777-1.2502 2.5543-1.2502 0.95691 0 1.636 0.37813 0.68682 0.37042 1.1344 1.1421zm-4.8386 3.0173q0 1.5665 0.64051 2.4617 0.64823 0.88745 1.7749 0.88745t1.7749-0.88745q0.64823-0.89517 0.64823-2.4617 0-1.5666-0.64823-2.454-0.64822-0.89517-1.7749-0.89517t-1.7749 0.89517q-0.64051 0.88745-0.64051 2.454z" style=""/>
   <path id="path87" d="m526.32 61.253q-1.7209 0-2.3846 0.39357-0.66367 0.39357-0.66367 1.3428 0 0.75626 0.49389 1.2039 0.50161 0.43987 1.3582 0.43987 1.1807 0 1.8907-0.83344 0.71768-0.84115 0.71768-2.2302v-0.3164zm2.8321-0.58649v4.9312h-1.4199v-1.3119q-0.48617 0.78713-1.2116 1.1653-0.7254 0.37042-1.7749 0.37042-1.3273 0-2.1145-0.74083-0.77941-0.74855-0.77941-1.9987 0-1.4585 0.97234-2.1993 0.98006-0.74083 2.917-0.74083h1.991v-0.13891q0-0.98006-0.64823-1.5125-0.64051-0.54019-1.8058-0.54019-0.74083 0-1.4431 0.17749-0.70225 0.17749-1.3505 0.53247v-1.3119q0.77942-0.30096 1.5125-0.44759 0.73312-0.15434 1.4276-0.15434 1.8752 0 2.8013 0.97234t0.92604 2.9479z" style=""/>
   <path id="path89" d="m533.45 64.301v4.5839h-1.4276v-11.93h1.4276v1.3119q0.44758-0.7717 1.1267-1.1421 0.68681-0.37813 1.636-0.37813 1.5743 0 2.5543 1.2502 0.98778 1.2502 0.98778 3.2874t-0.98778 3.2874q-0.98006 1.2502-2.5543 1.2502-0.94919 0-1.636-0.37042-0.6791-0.37813-1.1267-1.1498zm4.8308-3.0173q0-1.5666-0.64822-2.454-0.64052-0.89517-1.7672-0.89517t-1.7749 0.89517q-0.64051 0.88745-0.64051 2.454 0 1.5665 0.64051 2.4617 0.64822 0.88745 1.7749 0.88745t1.7672-0.88745q0.64822-0.89517 0.64822-2.4617z" style=""/>
   <path id="path91" d="m549.51 60.921v0.69453h-6.5286q0.0926 1.4662 0.87974 2.2379 0.79485 0.76398 2.2071 0.76398 0.818 0 1.582-0.20064 0.7717-0.20064 1.528-0.60193v1.3428q-0.76398 0.32411-1.5666 0.49389-0.80257 0.16977-1.6283 0.16977-2.0682 0-3.2797-1.2039-1.2038-1.2038-1.2038-3.2566 0-2.1222 1.1421-3.3646 1.1498-1.2502 3.0945-1.2502 1.744 0 2.755 1.1267 1.0186 1.119 1.0186 3.0482zm-1.4199-0.41672q-0.0154-1.1653-0.65594-1.8598-0.6328-0.69453-1.6823-0.69453-1.1884 0-1.9061 0.67138-0.70997 0.67138-0.81801 1.8907z" style=""/>
   <path id="path93" d="m557.35 57.209v1.3428q-0.60192-0.30868-1.2502-0.46302t-1.3428-0.15434q-1.0572 0-1.5897 0.32411-0.52475 0.32411-0.52475 0.97234 0 0.49389 0.37813 0.77942 0.37813 0.27781 1.5202 0.53247l0.48617 0.10804q1.5125 0.32411 2.1453 0.91832 0.64051 0.58649 0.64051 1.6437 0 1.2039-0.9569 1.9061-0.94919 0.70225-2.6161 0.70225-0.69453 0-1.4508-0.13891-0.74855-0.13119-1.582-0.40128v-1.4662q0.78713 0.409 1.5511 0.61736 0.76399 0.20064 1.5125 0.20064 1.0032 0 1.5434-0.33955 0.54019-0.34726 0.54019-0.97234 0-0.57878-0.39356-0.88745-0.38585-0.30868-1.7055-0.59421l-0.49389-0.11576q-1.3196-0.27781-1.9061-0.84887-0.5865-0.57877-0.5865-1.582 0-1.2193 0.86431-1.8829 0.8643-0.66366 2.454-0.66366 0.78713 0 1.4817 0.11576t1.281 0.34726z" style=""/>
   <path id="path95" d="m561.48 54.5v2.454h2.9247v1.1035h-2.9247v4.6919q0 1.0572 0.28553 1.3582 0.29325 0.30096 1.1807 0.30096h1.4585v1.1884h-1.4585q-1.6437 0-2.2688-0.60964-0.62508-0.61736-0.62508-2.2379v-4.6919h-1.0418v-1.1035h1.0418v-2.454z" style=""/>
   <path id="path97" d="m495.97 75.19-3.9357 6.1504h3.9357zm-0.409-1.3582h1.9601v7.5086h1.6437v1.2965h-1.6437v2.7164h-1.5511v-2.7164h-5.2012v-1.5048z" style=""/>
   <path id="path99" d="m501.36 73.831h7.4083v0.66366l-4.1826 10.858h-1.6283l3.9357-10.21h-5.5331z" style=""/>
   <path id="path101" d="m511.82 83.393h1.6283v1.9601h-1.6283z" style=""/>
   <path id="path103" d="m521.13 75.19-3.9357 6.1504h3.9357zm-0.409-1.3582h1.9601v7.5086h1.6437v1.2965h-1.6437v2.7164h-1.5511v-2.7164h-5.2013v-1.5048z" style=""/>
   <path id="path105" d="m526.96 85.114v-1.4199q0.58649 0.27781 1.1884 0.42444 0.60193 0.14662 1.1807 0.14662 1.5434 0 2.3537-1.0341 0.81801-1.0418 0.93376-3.1562-0.44758 0.66366-1.1344 1.0186-0.68681 0.35498-1.5202 0.35498-1.7286 0-2.7395-1.0418-1.0032-1.0495-1.0032-2.863 0-1.7749 1.0495-2.8476 1.0495-1.0727 2.7936-1.0727 1.9987 0 3.0482 1.5357 1.0572 1.528 1.0572 4.445 0 2.7241-1.2965 4.3524-1.2887 1.6206-3.4726 1.6206-0.5865 0-1.1884-0.11576-0.60193-0.11576-1.2502-0.34726zm3.1022-4.8849q1.0495 0 1.6592-0.71768 0.61736-0.71768 0.61736-1.9678 0-1.2424-0.61736-1.9601-0.60964-0.7254-1.6592-0.7254t-1.6669 0.7254q-0.60965 0.71768-0.60965 1.9601 0 1.2502 0.60965 1.9678 0.61736 0.71768 1.6669 0.71768z" style=""/>
   <path id="path107" d="m537.14 83.393h1.6283v1.3273l-1.2656 2.4694h-0.9955l0.6328-2.4694z" style=""/>
   <path id="path109" d="m547.31 84.041h2.5466v-8.7897l-2.7704 0.55562v-1.4199l2.755-0.55562h1.5588v10.21h2.5466v1.3119h-6.6366z" style=""/>
   <path id="path111" d="m557.15 85.114v-1.4199q0.58649 0.27781 1.1884 0.42444 0.60192 0.14662 1.1807 0.14662 1.5434 0 2.3537-1.0341 0.818-1.0418 0.93375-3.1562-0.44758 0.66366-1.1344 1.0186-0.68682 0.35498-1.5202 0.35498-1.7286 0-2.7395-1.0418-1.0032-1.0495-1.0032-2.863 0-1.7749 1.0495-2.8476t2.7936-1.0727q1.9987 0 3.0482 1.5357 1.0572 1.528 1.0572 4.445 0 2.7241-1.2965 4.3524-1.2887 1.6206-3.4726 1.6206-0.58649 0-1.1884-0.11576-0.60192-0.11576-1.2502-0.34726zm3.1022-4.8849q1.0495 0 1.6592-0.71768 0.61736-0.71768 0.61736-1.9678 0-1.2424-0.61736-1.9601-0.60964-0.7254-1.6592-0.7254t-1.6669 0.7254q-0.60964 0.71768-0.60964 1.9601 0 1.2502 0.60964 1.9678 0.61736 0.71768 1.6669 0.71768z" style=""/>
   <path id="path113" d="m567.16 83.393h1.6283v1.9601h-1.6283z" style=""/>
   <path id="path115" d="m575.53 74.858q-1.2038 0-1.8135 1.1884-0.60192 1.1807-0.60192 3.5575 0 2.3691 0.60192 3.5575 0.60964 1.1807 1.8135 1.1807 1.2116 0 1.8135-1.1807 0.60964-1.1884 0.60964-3.5575 0-2.3768-0.60964-3.5575-0.60193-1.1884-1.8135-1.1884zm0-1.2347q1.937 0 2.9556 1.5357 1.0264 1.528 1.0264 4.445 0 2.9093-1.0264 4.445-1.0186 1.528-2.9556 1.528-1.937 0-2.9633-1.528-1.0186-1.5357-1.0186-4.445 0-2.917 1.0186-4.445 1.0264-1.5357 2.9633-1.5357z" style=""/>
   <path id="path117" d="m586.54 75.19-3.9357 6.1504h3.9357zm-0.409-1.3582h1.9601v7.5086h1.6437v1.2965h-1.6437v2.7164h-1.5511v-2.7164h-5.2012v-1.5048z" style=""/>
  </g>
  <path id="ellipse12" d="m630 280a10 10 0 0 1-10 10 10 10 0 0 1-10-10 10 10 0 0 1 10-10 10 10 0 0 1 10 10z" fill="#fff" stroke="#000" stroke-width="2"/>
  <g id="text18" aria-label="Kecskemét46.90, 19.67">
   <path id="path121" d="m641.55 244.08h1.5588v4.8694l5.1704-4.8694h2.0064l-5.7183 5.371 6.1273 6.1504h-2.0527l-5.5331-5.5485v5.5485h-1.5588z" style=""/>
   <path id="path123" d="m658.48 250.92v0.69453h-6.5286q0.0926 1.4662 0.87974 2.2379 0.79485 0.76398 2.2071 0.76398 0.818 0 1.582-0.20064 0.7717-0.20064 1.528-0.60193v1.3428q-0.76399 0.32412-1.5666 0.49389-0.80257 0.16977-1.6283 0.16977-2.0682 0-3.2797-1.2038-1.2038-1.2038-1.2038-3.2566 0-2.1222 1.1421-3.3646 1.1498-1.2502 3.0945-1.2502 1.744 0 2.755 1.1267 1.0186 1.119 1.0186 3.0482zm-1.4199-0.41671q-0.0154-1.1653-0.65594-1.8598-0.6328-0.69453-1.6823-0.69453-1.1884 0-1.9061 0.67138-0.70996 0.67138-0.818 1.8907z" style=""/>
   <path id="path125" d="m667.03 247.29v1.3273q-0.60192-0.33183-1.2116-0.49389-0.60193-0.16977-1.2193-0.16977-1.3813 0-2.1453 0.87974-0.76398 0.87202-0.76398 2.454t0.76398 2.4617q0.76398 0.87202 2.1453 0.87202 0.61736 0 1.2193-0.16205 0.60964-0.16978 1.2116-0.50161v1.3119q-0.5942 0.27781-1.2347 0.41672-0.6328 0.1389-1.3505 0.1389-1.9524 0-3.1022-1.227t-1.1498-3.3106q0-2.1144 1.1576-3.326 1.1653-1.2116 3.1871-1.2116 0.65594 0 1.281 0.13891 0.62507 0.13118 1.2116 0.40128z" style=""/>
   <path id="path127" d="m675.03 247.21v1.3428q-0.60193-0.30868-1.2502-0.46302-0.64823-0.15434-1.3428-0.15434-1.0572 0-1.5897 0.32411-0.52476 0.32411-0.52476 0.97234 0 0.49389 0.37814 0.77942 0.37813 0.27781 1.5202 0.53247l0.48617 0.10804q1.5125 0.32411 2.1453 0.91832 0.64051 0.58649 0.64051 1.6437 0 1.2038-0.95691 1.9061-0.94919 0.70224-2.6161 0.70224-0.69453 0-1.4508-0.1389-0.74855-0.13119-1.582-0.40129v-1.4662q0.78714 0.40901 1.5511 0.61736 0.76398 0.20065 1.5125 0.20065 1.0032 0 1.5434-0.33955 0.54019-0.34727 0.54019-0.97234 0-0.57878-0.39357-0.88746-0.38585-0.30868-1.7055-0.59421l-0.49388-0.11575q-1.3196-0.27781-1.9061-0.84887-0.58649-0.57877-0.58649-1.582 0-1.2193 0.8643-1.883t2.454-0.66366q0.78713 0 1.4817 0.11575 0.69453 0.11576 1.281 0.34727z" style=""/>
   <path id="path129" d="m677.71 243.59h1.4276v7.0919l4.2366-3.7273h1.8135l-4.5839 4.0437 4.7768 4.5993h-1.8521l-4.391-4.2212v4.2212h-1.4276z" style=""/>
   <path id="path131" d="m693.76 250.92v0.69453h-6.5286q0.0926 1.4662 0.87974 2.2379 0.79485 0.76398 2.2071 0.76398 0.818 0 1.582-0.20064 0.7717-0.20064 1.528-0.60193v1.3428q-0.76398 0.32412-1.5666 0.49389-0.80256 0.16977-1.6283 0.16977-2.0682 0-3.2797-1.2038-1.2038-1.2038-1.2038-3.2566 0-2.1222 1.1421-3.3646 1.1498-1.2502 3.0945-1.2502 1.744 0 2.755 1.1267 1.0186 1.119 1.0186 3.0482zm-1.4199-0.41671q-0.0154-1.1653-0.65595-1.8598-0.63279-0.69453-1.6823-0.69453-1.1884 0-1.9061 0.67138-0.70996 0.67138-0.818 1.8907z" style=""/>
   <path id="path133" d="m702.82 248.61q0.53247-0.95691 1.2733-1.4122t1.744-0.4553q1.3505 0 2.0836 0.94919 0.73311 0.94147 0.73311 2.6855v5.2167h-1.4276v-5.1704q0-1.2424-0.43987-1.8444-0.43987-0.60192-1.3428-0.60192-1.1035 0-1.744 0.73311-0.64051 0.73312-0.64051 1.9987v4.8849h-1.4276v-5.1704q0-1.2502-0.43987-1.8444-0.43987-0.60192-1.3582-0.60192-1.0881 0-1.7286 0.74083-0.64051 0.73311-0.64051 1.991v4.8849h-1.4276v-8.643h1.4276v1.3428q0.48617-0.79485 1.1653-1.173 0.67909-0.37813 1.6128-0.37813 0.94147 0 1.5974 0.47845 0.66366 0.47846 0.98006 1.3891z" style=""/>
   <path id="path135" d="m718.89 250.92v0.69453h-6.5286q0.0926 1.4662 0.87973 2.2379 0.79485 0.76398 2.2071 0.76398 0.818 0 1.582-0.20064 0.77169-0.20064 1.528-0.60193v1.3428q-0.76398 0.32412-1.5666 0.49389t-1.6283 0.16977q-2.0682 0-3.2797-1.2038-1.2038-1.2038-1.2038-3.2566 0-2.1222 1.1421-3.3646 1.1498-1.2502 3.0945-1.2502 1.744 0 2.755 1.1267 1.0186 1.119 1.0186 3.0482zm-1.4199-0.41671q-0.0154-1.1653-0.65594-1.8598-0.63279-0.69453-1.6823-0.69453-1.1884 0-1.9061 0.67138-0.70996 0.67138-0.818 1.8907zm-1.3659-7.5472h1.5357l-2.5157 2.9016h-1.1807z" style=""/>
   <path id="path137" d="m722.63 244.5v2.454h2.9247v1.1035h-2.9247v4.6919q0 1.0572 0.28552 1.3582 0.29325 0.30096 1.1807 0.30096h1.4585v1.1884h-1.4585q-1.6437 0-2.2688-0.60964-0.62508-0.61736-0.62508-2.2379v-4.6919h-1.0418v-1.1035h1.0418v-2.454z" style=""/>
   <path id="path139" d="m645.97 265.19-3.9357 6.1504h3.9357zm-0.409-1.3582h1.9601v7.5086h1.6437v1.2965h-1.6437v2.7164h-1.5511v-2.7164h-5.2012v-1.5048z" style=""/>
   <path id="path141" d="m655.28 268.97q-1.0495 0-1.6669 0.71768-0.60964 0.71768-0.60964 1.9678 0 1.2424 0.60964 1.9678 0.61736 0.71768 1.6669 0.71768 1.0495 0 1.6592-0.71768 0.61736-0.7254 0.61736-1.9678 0-1.2502-0.61736-1.9678-0.60964-0.71768-1.6592-0.71768zm3.0945-4.8848v1.4199q-0.58649-0.27781-1.1884-0.42443-0.59421-0.14662-1.1807-0.14662-1.5434 0-2.3614 1.0418-0.81028 1.0418-0.92604 3.1485 0.45531-0.67137 1.1421-1.0264 0.68681-0.36269 1.5125-0.36269 1.7363 0 2.7395 1.0572 1.0109 1.0495 1.0109 2.863 0 1.7749-1.0495 2.8476-1.0495 1.0727-2.7936 1.0727-1.9987 0-3.0559-1.528-1.0572-1.5357-1.0572-4.445 0-2.7318 1.2964-4.3524 1.2965-1.6283 3.4804-1.6283 0.58649 0 1.1807 0.11575 0.60192 0.11576 1.2502 0.34727z" style=""/>
   <path id="path143" d="m661.82 273.39h1.6283v1.9601h-1.6283z" style=""/>
   <path id="path145" d="m666.89 275.11v-1.4199q0.58649 0.27782 1.1884 0.42444 0.60193 0.14662 1.1807 0.14662 1.5434 0 2.3537-1.0341 0.818-1.0418 0.93375-3.1562-0.44758 0.66367-1.1344 1.0186-0.68682 0.35498-1.5202 0.35498-1.7286 0-2.7395-1.0418-1.0032-1.0495-1.0032-2.863 0-1.7749 1.0495-2.8476t2.7936-1.0727q1.9987 0 3.0482 1.5357 1.0572 1.528 1.0572 4.445 0 2.7241-1.2965 4.3524-1.2887 1.6206-3.4726 1.6206-0.58649 0-1.1884-0.11576-0.60192-0.11575-1.2502-0.34726zm3.1022-4.8849q1.0495 0 1.6592-0.71768 0.61736-0.71768 0.61736-1.9678 0-1.2424-0.61736-1.9601-0.60964-0.72539-1.6592-0.72539t-1.6669 0.72539q-0.60964 0.71768-0.60964 1.9601 0 1.2502 0.60964 1.9678 0.61736 0.71768 1.6669 0.71768z" style=""/>
   <path id="path147" d="m680.24 264.86q-1.2038 0-1.8135 1.1884-0.60192 1.1807-0.60192 3.5575 0 2.3691 0.60192 3.5575 0.60964 1.1807 1.8135 1.1807 1.2116 0 1.8135-1.1807 0.60964-1.1884 0.60964-3.5575 0-2.3768-0.60964-3.5575-0.60193-1.1884-1.8135-1.1884zm0-1.2347q1.937 0 2.9556 1.5357 1.0264 1.528 1.0264 4.445 0 2.9093-1.0264 4.445-1.0186 1.528-2.9556 1.528-1.937 0-2.9633-1.528-1.0186-1.5357-1.0186-4.445 0-2.917 1.0186-4.445 1.0264-1.5357 2.9633-1.5357z" style=""/>
   <path id="path149" d="m687.14 273.39h1.6283v1.3273l-1.2656 2.4694h-0.9955l0.6328-2.4694z" style=""/>
   <path id="path151" d="m697.31 274.04h2.5466v-8.7897l-2.7704 0.55563v-1.4199l2.755-0.55562h1.5588v10.21h2.5466v1.3119h-6.6366z" style=""/>
   <path id="path153" d="m707.15 275.11v-1.4199q0.58649 0.27782 1.1884 0.42444 0.60192 0.14662 1.1807 0.14662 1.5434 0 2.3537-1.0341 0.818-1.0418 0.93375-3.1562-0.44758 0.66367-1.1344 1.0186-0.68682 0.35498-1.5202 0.35498-1.7286 0-2.7395-1.0418-1.0032-1.0495-1.0032-2.863 0-1.7749 1.0495-2.8476t2.7936-1.0727q1.9987 0 3.0482 1.5357 1.0572 1.528 1.0572 4.445 0 2.7241-1.2965 4.3524-1.2887 1.6206-3.4726 1.6206-0.58649 0-1.1884-0.11576-0.60192-0.11575-1.2502-0.34726zm3.1022-4.8849q1.0495 0 1.6592-0.71768 0.61736-0.71768 0.61736-1.9678 0-1.2424-0.61736-1.9601-0.60964-0.72539-1.6592-0.72539t-1.6669 0.72539q-0.60964 0.71768-0.60964 1.9601 0 1.2502 0.60964 1.9678 0.61736 0.71768 1.6669 0.71768z" style=""/>
   <path id="path155" d="m717.16 273.39h1.6283v1.9601h-1.6283z" style=""/>
   <path id="path157" d="m725.72 268.97q-1.0495 0-1.6669 0.71768-0.60964 0.71768-0.60964 1.9678 0 1.2424 0.60964 1.9678 0.61736 0.71768 1.6669 0.71768t1.6592-0.71768q0.61736-0.7254 0.61736-1.9678 0-1.2502-0.61736-1.9678-0.60964-0.71768-1.6592-0.71768zm3.0945-4.8848v1.4199q-0.58649-0.27781-1.1884-0.42443-0.59421-0.14662-1.1807-0.14662-1.5434 0-2.3614 1.0418-0.81029 1.0418-0.92604 3.1485 0.4553-0.67137 1.1421-1.0264 0.68681-0.36269 1.5125-0.36269 1.7363 0 2.7395 1.0572 1.0109 1.0495 1.0109 2.863 0 1.7749-1.0495 2.8476t-2.7936 1.0727q-1.9987 0-3.0559-1.528-1.0572-1.5357-1.0572-4.445 0-2.7318 1.2965-4.3524 1.2964-1.6283 3.4804-1.6283 0.58649 0 1.1807 0.11575 0.60193 0.11576 1.2502 0.34727z" style=""/>
   <path id="path159" d="m731.86 263.83h7.4083v0.66366l-4.1826 10.858h-1.6283l3.9357-10.21h-5.5331z" style=""/>
  </g>
  <path id="ellipse20" d="m680 390a10 10 0 0 1-10 10 10 10 0 0 1-10-10 10 10 0 0 1 10-10 10 10 0 0 1 10 10z" fill="#fff" stroke="#000" stroke-width="2"/>
  <g id="text26" aria-label="Szeged46.24, 20.14">
   <path id="path163" d="m698.46 374.45v1.5202q-0.88745-0.42444-1.6746-0.6328-0.78714-0.20836-1.5202-0.20836-1.2733 0-1.9678 0.49389-0.68682 0.49389-0.68682 1.4045 0 0.76399 0.45531 1.1576 0.46302 0.38585 1.744 0.62508l0.94147 0.19292q1.744 0.33183 2.5698 1.173 0.83343 0.83343 0.83343 2.2379 0 1.6746-1.1267 2.5389-1.119 0.86431-3.2874 0.86431-0.818 0-1.744-0.18521-0.91832-0.18521-1.9061-0.54791v-1.6051q0.94919 0.53247 1.8598 0.80257 0.91061 0.27009 1.7903 0.27009 1.335 0 2.0604-0.52475 0.7254-0.52476 0.7254-1.4971 0-0.84887-0.52476-1.3273-0.51704-0.47846-1.7054-0.71768l-0.94919-0.18521q-1.744-0.34727-2.5235-1.0881t-0.77942-2.0604q0-1.528 1.0727-2.4077 1.0804-0.87973 2.971-0.87973 0.81028 0 1.6514 0.14662 0.84116 0.14662 1.7209 0.43987z" style=""/>
   <path id="path165" d="m700.9 376.95h6.7446v1.2965l-5.3402 6.2122h5.3402v1.1344h-6.9376v-1.2964l5.3402-6.2122h-5.1472z" style=""/>
   <path id="path167" d="m717.22 380.92v0.69453h-6.5286q0.0926 1.4662 0.87973 2.2379 0.79486 0.76399 2.2071 0.76399 0.81801 0 1.582-0.20064 0.7717-0.20065 1.528-0.60193v1.3428q-0.76398 0.32411-1.5666 0.49388-0.80256 0.16978-1.6283 0.16978-2.0682 0-3.2797-1.2038-1.2038-1.2038-1.2038-3.2566 0-2.1222 1.1421-3.3646 1.1498-1.2502 3.0945-1.2502 1.744 0 2.755 1.1267 1.0186 1.119 1.0186 3.0482zm-1.4199-0.41672q-0.0154-1.1653-0.65595-1.8598-0.63279-0.69452-1.6823-0.69452-1.1884 0-1.9061 0.67137-0.70996 0.67138-0.818 1.8907z" style=""/>
   <path id="path169" d="m725.24 381.18q0-1.5434-0.64051-2.3923-0.6328-0.84887-1.7826-0.84887-1.1421 0-1.7826 0.84887-0.6328 0.84887-0.6328 2.3923 0 1.5357 0.6328 2.3846 0.64051 0.84887 1.7826 0.84887 1.1498 0 1.7826-0.84887 0.64051-0.84887 0.64051-2.3846zm1.4199 3.3492q0 2.2071-0.98005 3.2797-0.98006 1.0804-3.0019 1.0804-0.74855 0-1.4122-0.11575-0.66366-0.10804-1.2887-0.33955v-1.3813q0.62508 0.33955 1.2347 0.5016 0.60964 0.16206 1.2424 0.16206 1.3968 0 2.0913-0.73311 0.69453-0.7254 0.69453-2.1994v-0.70224q-0.43987 0.76398-1.1267 1.1421-0.68682 0.37813-1.6437 0.37813-1.5897 0-2.562-1.2116-0.97235-1.2116-0.97235-3.2103 0-2.0064 0.97235-3.218 0.97234-1.2116 2.562-1.2116 0.9569 0 1.6437 0.37814 0.68681 0.37813 1.1267 1.1421v-1.3119h1.4199z" style=""/>
   <path id="path171" d="m736.97 380.92v0.69453h-6.5286q0.0926 1.4662 0.87974 2.2379 0.79485 0.76399 2.2071 0.76399 0.818 0 1.582-0.20064 0.7717-0.20065 1.528-0.60193v1.3428q-0.76398 0.32411-1.5666 0.49388-0.80256 0.16978-1.6283 0.16978-2.0682 0-3.2797-1.2038-1.2038-1.2038-1.2038-3.2566 0-2.1222 1.1421-3.3646 1.1498-1.2502 3.0945-1.2502 1.744 0 2.755 1.1267 1.0186 1.119 1.0186 3.0482zm-1.4199-0.41672q-0.0154-1.1653-0.65595-1.8598-0.63279-0.69452-1.6823-0.69452-1.1884 0-1.9061 0.67137-0.70996 0.67138-0.818 1.8907z" style=""/>
   <path id="path173" d="m744.99 378.27v-4.6765h1.4199v12.008h-1.4199v-1.2964q-0.44759 0.7717-1.1344 1.1498-0.6791 0.37042-1.636 0.37042-1.5666 0-2.5543-1.2502-0.98006-1.2502-0.98006-3.2874 0-2.0373 0.98006-3.2874 0.98778-1.2502 2.5543-1.2502 0.9569 0 1.636 0.37814 0.68681 0.37041 1.1344 1.1421zm-4.8386 3.0174q0 1.5666 0.64051 2.4617 0.64823 0.88745 1.7749 0.88745t1.7749-0.88745q0.64823-0.89517 0.64823-2.4617t-0.64823-2.454q-0.64823-0.89517-1.7749-0.89517t-1.7749 0.89517q-0.64051 0.88746-0.64051 2.454z" style=""/>
   <path id="path175" d="m695.97 395.19-3.9357 6.1504h3.9357zm-0.409-1.3582h1.9601v7.5086h1.6437v1.2965h-1.6437v2.7164h-1.5511v-2.7164h-5.2012v-1.5048z" style=""/>
   <path id="path177" d="m705.28 398.97q-1.0495 0-1.6669 0.71768-0.60964 0.71768-0.60964 1.9678 0 1.2424 0.60964 1.9678 0.61736 0.71768 1.6669 0.71768 1.0495 0 1.6592-0.71768 0.61736-0.7254 0.61736-1.9678 0-1.2502-0.61736-1.9678-0.60964-0.71768-1.6592-0.71768zm3.0945-4.8848v1.4199q-0.58649-0.27781-1.1884-0.42443-0.59421-0.14662-1.1807-0.14662-1.5434 0-2.3614 1.0418-0.81028 1.0418-0.92604 3.1485 0.45531-0.67137 1.1421-1.0264 0.68681-0.36269 1.5125-0.36269 1.7363 0 2.7395 1.0572 1.0109 1.0495 1.0109 2.863 0 1.7749-1.0495 2.8476-1.0495 1.0727-2.7936 1.0727-1.9987 0-3.0559-1.528-1.0572-1.5357-1.0572-4.445 0-2.7318 1.2964-4.3524 1.2965-1.6283 3.4804-1.6283 0.58649 0 1.1807 0.11575 0.60192 0.11576 1.2502 0.34727z" style=""/>
   <path id="path179" d="m711.82 403.39h1.6283v1.9601h-1.6283z" style=""/>
   <path id="path181" d="m718.19 404.04h5.4405v1.3119h-7.3157v-1.3119q0.88746-0.91832 2.4154-2.4617 1.5357-1.5511 1.9292-1.9987 0.74855-0.84116 1.0418-1.4199 0.30097-0.58649 0.30097-1.1498 0-0.91832-0.64823-1.4971-0.64051-0.57877-1.6746-0.57877-0.73311 0-1.5511 0.25466-0.81029 0.25466-1.7363 0.7717v-1.5743q0.94148-0.37813 1.7595-0.57106 0.818-0.19292 1.4971-0.19292 1.7904 0 2.8553 0.89517 1.065 0.89517 1.065 2.3923 0 0.70996-0.2701 1.3505-0.26238 0.63279-0.96462 1.4971-0.19293 0.22379-1.227 1.2964-1.0341 1.065-2.917 2.9865z" style=""/>
   <path id="path183" d="m731.19 395.19-3.9357 6.1504h3.9357zm-0.409-1.3582h1.9601v7.5086h1.6437v1.2965h-1.6437v2.7164h-1.5511v-2.7164h-5.2012v-1.5048z" style=""/>
   <path id="path185" d="m737.14 403.39h1.6283v1.3273l-1.2656 2.4694h-0.9955l0.6328-2.4694z" style=""/>
   <path id="path187" d="m748.38 404.04h5.4405v1.3119h-7.3157v-1.3119q0.88745-0.91832 2.4154-2.4617 1.5357-1.5511 1.9292-1.9987 0.74855-0.84116 1.0418-1.4199 0.30096-0.58649 0.30096-1.1498 0-0.91832-0.64823-1.4971-0.64051-0.57877-1.6746-0.57877-0.73312 0-1.5511 0.25466-0.81028 0.25466-1.7363 0.7717v-1.5743q0.94147-0.37813 1.7595-0.57106 0.818-0.19292 1.4971-0.19292 1.7903 0 2.8553 0.89517 1.065 0.89517 1.065 2.3923 0 0.70996-0.2701 1.3505-0.26237 0.63279-0.96462 1.4971-0.19292 0.22379-1.227 1.2964-1.0341 1.065-2.917 2.9865z" style=""/>
   <path id="path189" d="m760.43 394.86q-1.2038 0-1.8135 1.1884-0.60192 1.1807-0.60192 3.5575 0 2.3691 0.60192 3.5575 0.60965 1.1807 1.8135 1.1807 1.2116 0 1.8135-1.1807 0.60964-1.1884 0.60964-3.5575 0-2.3768-0.60964-3.5575-0.60192-1.1884-1.8135-1.1884zm0-1.2347q1.937 0 2.9556 1.5357 1.0264 1.528 1.0264 4.445 0 2.9093-1.0264 4.445-1.0186 1.528-2.9556 1.528-1.937 0-2.9633-1.528-1.0186-1.5357-1.0186-4.445 0-2.917 1.0186-4.445 1.0264-1.5357 2.9633-1.5357z" style=""/>
   <path id="path191" d="m767.16 403.39h1.6283v1.9601h-1.6283z" style=""/>
   <path id="path193" d="m772.46 404.04h2.5466v-8.7897l-2.7704 0.55563v-1.4199l2.755-0.55562h1.5588v10.21h2.5466v1.3119h-6.6366z" style=""/>
   <path id="path195" d="m786.54 395.19-3.9357 6.1504h3.9357zm-0.409-1.3582h1.9601v7.5086h1.6437v1.2965h-1.6437v2.7164h-1.5511v-2.7164h-5.2012v-1.5048z" style=""/>
  </g>
  <path id="ellipse28" d="m330 240a10 10 0 0 1-10 10 10 10 0 0 1-10-10 10 10 0 0 1 10-10 10 10 0 0 1 10 10z" fill="#fff" stroke="#000" stroke-width="2"/>
  <g id="text34" aria-label="Székesfehérvár47.19, 18.41">
   <path id="path199" d="m208.46 204.45v1.5202q-0.88745-0.42443-1.6746-0.63279-0.78714-0.20836-1.5202-0.20836-1.2733 0-1.9678 0.49389-0.68682 0.49388-0.68682 1.4045 0 0.76398 0.45531 1.1576 0.46302 0.38585 1.744 0.62507l0.94147 0.19293q1.744 0.33183 2.5698 1.173 0.83343 0.83344 0.83343 2.2379 0 1.6746-1.1267 2.5389-1.119 0.8643-3.2874 0.8643-0.818 0-1.744-0.1852-0.91832-0.18521-1.9061-0.54791v-1.6051q0.94919 0.53248 1.8598 0.80257 0.91061 0.2701 1.7903 0.2701 1.335 0 2.0604-0.52476 0.7254-0.52475 0.7254-1.4971 0-0.84887-0.52476-1.3273-0.51704-0.47845-1.7054-0.71768l-0.94919-0.18521q-1.744-0.34726-2.5235-1.0881t-0.77942-2.0604q0-1.528 1.0727-2.4077 1.0804-0.87974 2.971-0.87974 0.81028 0 1.6514 0.14662 0.84116 0.14663 1.7209 0.43987z" style=""/>
   <path id="path201" d="m210.9 206.95h6.7446v1.2964l-5.3402 6.2122h5.3402v1.1344h-6.9376v-1.2964l5.3402-6.2122h-5.1472z" style=""/>
   <path id="path203" d="m227.22 210.92v0.69453h-6.5286q0.0926 1.4662 0.87973 2.2379 0.79486 0.76398 2.2071 0.76398 0.81801 0 1.582-0.20064 0.7717-0.20064 1.528-0.60193v1.3428q-0.76398 0.32412-1.5666 0.49389-0.80256 0.16977-1.6283 0.16977-2.0682 0-3.2797-1.2038-1.2038-1.2038-1.2038-3.2566 0-2.1222 1.1421-3.3646 1.1498-1.2502 3.0945-1.2502 1.744 0 2.755 1.1267 1.0186 1.119 1.0186 3.0482zm-1.4199-0.41671q-0.0154-1.1653-0.65595-1.8598-0.63279-0.69453-1.6823-0.69453-1.1884 0-1.9061 0.67138-0.70996 0.67138-0.818 1.8907zm-1.3659-7.5472h1.5357l-2.5157 2.9016h-1.1807z" style=""/>
   <path id="path205" d="m229.49 203.59h1.4276v7.0919l4.2366-3.7273h1.8135l-4.5839 4.0437 4.7768 4.5993h-1.8521l-4.391-4.2212v4.2212h-1.4276z" style=""/>
   <path id="path207" d="m245.55 210.92v0.69453h-6.5286q0.0926 1.4662 0.87974 2.2379 0.79485 0.76398 2.2071 0.76398 0.818 0 1.582-0.20064 0.7717-0.20064 1.528-0.60193v1.3428q-0.76398 0.32412-1.5666 0.49389t-1.6283 0.16977q-2.0682 0-3.2797-1.2038-1.2038-1.2038-1.2038-3.2566 0-2.1222 1.1421-3.3646 1.1498-1.2502 3.0945-1.2502 1.744 0 2.755 1.1267 1.0186 1.119 1.0186 3.0482zm-1.4199-0.41671q-0.0154-1.1653-0.65594-1.8598-0.6328-0.69453-1.6823-0.69453-1.1884 0-1.9061 0.67138-0.70997 0.67138-0.81801 1.8907z" style=""/>
   <path id="path209" d="m253.39 207.21v1.3428q-0.60193-0.30868-1.2502-0.46302-0.64823-0.15434-1.3428-0.15434-1.0572 0-1.5897 0.32411-0.52476 0.32411-0.52476 0.97234 0 0.49389 0.37814 0.77942 0.37813 0.27781 1.5202 0.53247l0.48618 0.10804q1.5125 0.32411 2.1453 0.91832 0.64051 0.58649 0.64051 1.6437 0 1.2038-0.95691 1.9061-0.94919 0.70224-2.6161 0.70224-0.69453 0-1.4508-0.1389-0.74855-0.13119-1.582-0.40129v-1.4662q0.78714 0.40901 1.5511 0.61736 0.76398 0.20065 1.5125 0.20065 1.0032 0 1.5434-0.33955 0.54019-0.34727 0.54019-0.97234 0-0.57878-0.39357-0.88746-0.38585-0.30868-1.7054-0.59421l-0.49389-0.11575q-1.3196-0.27781-1.9061-0.84887-0.58649-0.57877-0.58649-1.582 0-1.2193 0.8643-1.883 0.86431-0.66366 2.454-0.66366 0.78713 0 1.4817 0.11575 0.69453 0.11576 1.281 0.34727z" style=""/>
   <path id="path211" d="m260.5 203.59v1.1807h-1.3582q-0.76398 0-1.0649 0.30868-0.29325 0.30868-0.29325 1.1112v0.76398h2.3382v1.1035h-2.3382v7.5395h-1.4276v-7.5395h-1.3582v-1.1035h1.3582v-0.60193q0-1.4431 0.67137-2.099 0.67138-0.66366 2.1299-0.66366z" style=""/>
   <path id="path213" d="m269.07 210.92v0.69453h-6.5286q0.0926 1.4662 0.87973 2.2379 0.79485 0.76398 2.2071 0.76398 0.818 0 1.582-0.20064 0.7717-0.20064 1.528-0.60193v1.3428q-0.76398 0.32412-1.5666 0.49389t-1.6283 0.16977q-2.0682 0-3.2797-1.2038-1.2038-1.2038-1.2038-3.2566 0-2.1222 1.1421-3.3646 1.1498-1.2502 3.0945-1.2502 1.744 0 2.755 1.1267 1.0186 1.119 1.0186 3.0482zm-1.4199-0.41671q-0.0154-1.1653-0.65594-1.8598-0.63279-0.69453-1.6823-0.69453-1.1884 0-1.9061 0.67138-0.70996 0.67138-0.818 1.8907z" style=""/>
   <path id="path215" d="m278.59 210.38v5.2167h-1.4199v-5.1704q0-1.227-0.47846-1.8366-0.47845-0.60964-1.4354-0.60964-1.1498 0-1.8135 0.73311-0.66366 0.73312-0.66366 1.9987v4.8849h-1.4276v-12.008h1.4276v4.7074q0.50932-0.77942 1.1961-1.1653 0.69453-0.38585 1.5974-0.38585 1.4894 0 2.2534 0.92604 0.76398 0.91832 0.76398 2.7087z" style=""/>
   <path id="path217" d="m288.83 210.92v0.69453h-6.5286q0.0926 1.4662 0.87973 2.2379 0.79485 0.76398 2.2071 0.76398 0.818 0 1.582-0.20064 0.7717-0.20064 1.528-0.60193v1.3428q-0.76398 0.32412-1.5666 0.49389t-1.6283 0.16977q-2.0682 0-3.2797-1.2038-1.2038-1.2038-1.2038-3.2566 0-2.1222 1.1421-3.3646 1.1498-1.2502 3.0945-1.2502 1.744 0 2.755 1.1267 1.0186 1.119 1.0186 3.0482zm-1.4199-0.41671q-0.0154-1.1653-0.65595-1.8598-0.63279-0.69453-1.6823-0.69453-1.1884 0-1.9061 0.67138-0.70996 0.67138-0.818 1.8907zm-1.3659-7.5472h1.5357l-2.5157 2.9016h-1.1807z" style=""/>
   <path id="path219" d="m296.17 208.28q-0.23922-0.1389-0.52475-0.20064-0.27781-0.0694-0.61736-0.0694-1.2038 0-1.8521 0.78713-0.64051 0.77942-0.64051 2.2456v4.553h-1.4276v-8.643h1.4276v1.3428q0.44759-0.78714 1.1653-1.1653 0.71768-0.38585 1.744-0.38585 0.14662 0 0.32411 0.0231 0.17749 0.0154 0.39357 0.054z" style=""/>
   <path id="path221" d="m296.66 206.95h1.5048l2.701 7.254 2.701-7.254h1.5048l-3.2411 8.643h-1.9292z" style=""/>
   <path id="path223" d="m310.95 211.25q-1.7209 0-2.3846 0.39357t-0.66366 1.3428q0 0.75626 0.49388 1.2038 0.50161 0.43987 1.3582 0.43987 1.1807 0 1.8907-0.83344 0.71768-0.84115 0.71768-2.2302v-0.3164zm2.8321-0.58649v4.9312h-1.4199v-1.3119q-0.48617 0.78713-1.2116 1.1653-0.7254 0.37041-1.7749 0.37041-1.3273 0-2.1144-0.74083-0.77942-0.74855-0.77942-1.9987 0-1.4585 0.97234-2.1993 0.98006-0.74083 2.917-0.74083h1.991v-0.13891q0-0.98006-0.64823-1.5125-0.64051-0.54019-1.8058-0.54019-0.74083 0-1.4431 0.17749-0.70225 0.17749-1.3505 0.53247v-1.3119q0.77942-0.30097 1.5125-0.44759 0.73312-0.15434 1.4276-0.15434 1.8752 0 2.8013 0.97234 0.92603 0.97234 0.92603 2.9479zm-2.5929-7.7093h1.5357l-2.5157 2.9016h-1.1807z" style=""/>
   <path id="path225" d="m321.73 208.28q-0.23923-0.1389-0.52475-0.20064-0.27782-0.0694-0.61736-0.0694-1.2039 0-1.8521 0.78713-0.64051 0.77942-0.64051 2.2456v4.553h-1.4276v-8.643h1.4276v1.3428q0.44758-0.78714 1.1653-1.1653 0.71768-0.38585 1.744-0.38585 0.14663 0 0.32412 0.0231 0.17749 0.0154 0.39356 0.054z" style=""/>
   <path id="path227" d="m205.97 225.19-3.9357 6.1504h3.9357zm-0.409-1.3582h1.9601v7.5086h1.6437v1.2965h-1.6437v2.7164h-1.5511v-2.7164h-5.2012v-1.5048z" style=""/>
   <path id="path229" d="m211.36 223.83h7.4083v0.66366l-4.1826 10.858h-1.6283l3.9357-10.21h-5.5331z" style=""/>
   <path id="path231" d="m221.82 233.39h1.6283v1.9601h-1.6283z" style=""/>
   <path id="path233" d="m227.12 234.04h2.5466v-8.7897l-2.7704 0.55563v-1.4199l2.755-0.55562h1.5588v10.21h2.5466v1.3119h-6.6366z" style=""/>
   <path id="path235" d="m236.96 235.11v-1.4199q0.58649 0.27782 1.1884 0.42444 0.60193 0.14662 1.1807 0.14662 1.5434 0 2.3537-1.0341 0.81801-1.0418 0.93376-3.1562-0.44758 0.66367-1.1344 1.0186-0.68681 0.35498-1.5202 0.35498-1.7286 0-2.7395-1.0418-1.0032-1.0495-1.0032-2.863 0-1.7749 1.0495-2.8476 1.0495-1.0727 2.7936-1.0727 1.9987 0 3.0482 1.5357 1.0572 1.528 1.0572 4.445 0 2.7241-1.2965 4.3524-1.2887 1.6206-3.4726 1.6206-0.5865 0-1.1884-0.11576-0.60193-0.11575-1.2502-0.34726zm3.1022-4.8849q1.0495 0 1.6592-0.71768 0.61736-0.71768 0.61736-1.9678 0-1.2424-0.61736-1.9601-0.60964-0.72539-1.6592-0.72539t-1.6669 0.72539q-0.60965 0.71768-0.60965 1.9601 0 1.2502 0.60965 1.9678 0.61736 0.71768 1.6669 0.71768z" style=""/>
   <path id="path237" d="m247.14 233.39h1.6283v1.3273l-1.2656 2.4694h-0.9955l0.6328-2.4694z" style=""/>
   <path id="path239" d="m257.31 234.04h2.5466v-8.7897l-2.7704 0.55563v-1.4199l2.755-0.55562h1.5588v10.21h2.5466v1.3119h-6.6366z" style=""/>
   <path id="path241" d="m270.43 229.88q-1.1112 0-1.7518 0.59421-0.63279 0.59421-0.63279 1.636t0.63279 1.636q0.64051 0.59421 1.7518 0.59421 1.1112 0 1.7518-0.59421 0.64052-0.60192 0.64052-1.636 0-1.0418-0.64052-1.636-0.63279-0.59421-1.7518-0.59421zm-1.5588-0.66366q-1.0032-0.24695-1.5666-0.93376-0.55563-0.68681-0.55563-1.6746 0-1.3813 0.98006-2.1839 0.98778-0.80257 2.701-0.80257 1.7209 0 2.7009 0.80257 0.98006 0.80256 0.98006 2.1839 0 0.98778-0.56334 1.6746-0.55562 0.68681-1.5511 0.93376 1.1267 0.26238 1.7518 1.0264 0.6328 0.76398 0.6328 1.8675 0 1.6746-1.0264 2.5698-1.0186 0.89517-2.9247 0.89517-1.9061 0-2.9325-0.89517-1.0186-0.89517-1.0186-2.5698 0-1.1035 0.63279-1.8675t1.7595-1.0264zm-0.57106-2.4617q0 0.89517 0.55562 1.3968 0.56334 0.50161 1.5743 0.50161 1.0032 0 1.5666-0.50161 0.57105-0.5016 0.57105-1.3968t-0.57105-1.3968q-0.56334-0.5016-1.5666-0.5016-1.0109 0-1.5743 0.5016-0.55562 0.50161-0.55562 1.3968z" style=""/>
   <path id="path243" d="m277.16 233.39h1.6283v1.9601h-1.6283z" style=""/>
   <path id="path245" d="m286.48 225.19-3.9357 6.1504h3.9357zm-0.409-1.3582h1.9601v7.5086h1.6437v1.2965h-1.6437v2.7164h-1.5511v-2.7164h-5.2012v-1.5048z" style=""/>
   <path id="path247" d="m292.53 234.04h2.5466v-8.7897l-2.7704 0.55563v-1.4199l2.755-0.55562h1.5588v10.21h2.5466v1.3119h-6.6366z" style=""/>
  </g>
  <path id="ellipse36" d="m300 450a10 10 0 0 1-10 10 10 10 0 0 1-10-10 10 10 0 0 1 10-10 10 10 0 0 1 10 10z" fill="#fff" stroke="#000" stroke-width="2"/>
  <g id="text42" aria-label="Pécs46.06, 18.23">
   <path id="path251" d="m283.11 465.36v4.3292h1.9601q1.0881 0 1.6823-0.56334t0.59421-1.6051q0-1.0341-0.59421-1.5974t-1.6823-0.56334zm-1.5588-1.281h3.5189q1.937 0 2.9247 0.87973 0.9955 0.87202 0.9955 2.562 0 1.7055-0.9955 2.5775-0.98777 0.87202-2.9247 0.87202h-1.9601v4.6302h-1.5588z" style=""/>
   <path id="path253" d="m297.86 470.92v0.69453h-6.5286q0.0926 1.4662 0.87974 2.2379 0.79485 0.76399 2.2071 0.76399 0.818 0 1.582-0.20064 0.7717-0.20065 1.528-0.60193v1.3428q-0.76399 0.32411-1.5666 0.49388-0.80257 0.16978-1.6283 0.16978-2.0682 0-3.2797-1.2038-1.2038-1.2038-1.2038-3.2566 0-2.1222 1.1421-3.3646 1.1498-1.2502 3.0945-1.2502 1.744 0 2.755 1.1267 1.0186 1.119 1.0186 3.0482zm-1.4199-0.41672q-0.0154-1.1653-0.65594-1.8598-0.6328-0.69452-1.6823-0.69452-1.1884 0-1.9061 0.67137-0.70997 0.67138-0.81801 1.8907zm-1.3659-7.5472h1.5357l-2.5157 2.9016h-1.1807z" style=""/>
   <path id="path255" d="m306.42 467.29v1.3273q-0.60193-0.33183-1.2116-0.49389-0.60193-0.16977-1.2193-0.16977-1.3813 0-2.1453 0.87973-0.76398 0.87202-0.76398 2.454 0 1.582 0.76398 2.4617 0.76398 0.87202 2.1453 0.87202 0.61736 0 1.2193-0.16206 0.60964-0.16977 1.2116-0.5016v1.3119q-0.59421 0.27782-1.2347 0.41672-0.6328 0.13891-1.3505 0.13891-1.9524 0-3.1022-1.227-1.1498-1.227-1.1498-3.3106 0-2.1145 1.1576-3.326 1.1653-1.2116 3.1871-1.2116 0.65594 0 1.281 0.13891 0.62507 0.13119 1.2116 0.40128z" style=""/>
   <path id="path257" d="m314.41 467.21v1.3428q-0.60193-0.30868-1.2502-0.46302-0.64823-0.15434-1.3428-0.15434-1.0572 0-1.5897 0.32412-0.52476 0.32411-0.52476 0.97234 0 0.49388 0.37814 0.77941 0.37813 0.27781 1.5202 0.53247l0.48617 0.10804q1.5125 0.32412 2.1453 0.91832 0.64051 0.5865 0.64051 1.6437 0 1.2039-0.95691 1.9061-0.94919 0.70225-2.6161 0.70225-0.69453 0-1.4508-0.13891-0.74855-0.13119-1.582-0.40128v-1.4662q0.78714 0.409 1.5511 0.61736 0.76398 0.20064 1.5125 0.20064 1.0032 0 1.5434-0.33955 0.54019-0.34726 0.54019-0.97234 0-0.57877-0.39357-0.88745-0.38585-0.30868-1.7054-0.59421l-0.49389-0.11576q-1.3196-0.27781-1.9061-0.84886-0.58649-0.57878-0.58649-1.582 0-1.2193 0.8643-1.8829 0.86431-0.66367 2.454-0.66367 0.78713 0 1.4817 0.11576 0.69453 0.11575 1.281 0.34726z" style=""/>
   <path id="path259" d="m285.97 485.19-3.9357 6.1504h3.9357zm-0.409-1.3582h1.9601v7.5086h1.6437v1.2965h-1.6437v2.7164h-1.5511v-2.7164h-5.2012v-1.5048z" style=""/>
   <path id="path261" d="m295.28 488.97q-1.0495 0-1.6669 0.71768-0.60964 0.71768-0.60964 1.9678 0 1.2424 0.60964 1.9678 0.61736 0.71768 1.6669 0.71768 1.0495 0 1.6592-0.71768 0.61736-0.7254 0.61736-1.9678 0-1.2502-0.61736-1.9678-0.60964-0.71768-1.6592-0.71768zm3.0945-4.8848v1.4199q-0.58649-0.27781-1.1884-0.42443-0.59421-0.14662-1.1807-0.14662-1.5434 0-2.3614 1.0418-0.81028 1.0418-0.92604 3.1485 0.45531-0.67137 1.1421-1.0264 0.68681-0.36269 1.5125-0.36269 1.7363 0 2.7395 1.0572 1.0109 1.0495 1.0109 2.863 0 1.7749-1.0495 2.8476-1.0495 1.0727-2.7936 1.0727-1.9987 0-3.0559-1.528-1.0572-1.5357-1.0572-4.445 0-2.7318 1.2964-4.3524 1.2965-1.6283 3.4804-1.6283 0.58649 0 1.1807 0.11575 0.60192 0.11576 1.2502 0.34727z" style=""/>
   <path id="path263" d="m301.82 493.39h1.6283v1.9601h-1.6283z" style=""/>
   <path id="path265" d="m310.18 484.86q-1.2038 0-1.8135 1.1884-0.60192 1.1807-0.60192 3.5575 0 2.3691 0.60192 3.5575 0.60965 1.1807 1.8135 1.1807 1.2116 0 1.8135-1.1807 0.60964-1.1884 0.60964-3.5575 0-2.3768-0.60964-3.5575-0.60193-1.1884-1.8135-1.1884zm0-1.2347q1.937 0 2.9556 1.5357 1.0264 1.528 1.0264 4.445 0 2.9093-1.0264 4.445-1.0186 1.528-2.9556 1.528-1.937 0-2.9633-1.528-1.0186-1.5357-1.0186-4.445 0-2.917 1.0186-4.445 1.0264-1.5357 2.9633-1.5357z" style=""/>
   <path id="path267" d="m320.44 488.97q-1.0495 0-1.6669 0.71768-0.60964 0.71768-0.60964 1.9678 0 1.2424 0.60964 1.9678 0.61736 0.71768 1.6669 0.71768t1.6592-0.71768q0.61736-0.7254 0.61736-1.9678 0-1.2502-0.61736-1.9678-0.60964-0.71768-1.6592-0.71768zm3.0945-4.8848v1.4199q-0.58649-0.27781-1.1884-0.42443-0.59421-0.14662-1.1807-0.14662-1.5434 0-2.3614 1.0418-0.81029 1.0418-0.92604 3.1485 0.4553-0.67137 1.1421-1.0264 0.68681-0.36269 1.5125-0.36269 1.7363 0 2.7395 1.0572 1.0109 1.0495 1.0109 2.863 0 1.7749-1.0495 2.8476t-2.7936 1.0727q-1.9987 0-3.0559-1.528-1.0572-1.5357-1.0572-4.445 0-2.7318 1.2965-4.3524 1.2964-1.6283 3.4804-1.6283 0.58649 0 1.1807 0.11575 0.60193 0.11576 1.2502 0.34727z" style=""/>
   <path id="path269" d="m327.14 493.39h1.6283v1.3273l-1.2656 2.4694h-0.9955l0.6328-2.4694z" style=""/>
   <path id="path271" d="m337.31 494.04h2.5466v-8.7897l-2.7704 0.55563v-1.4199l2.755-0.55562h1.5588v10.21h2.5466v1.3119h-6.6366z" style=""/>
   <path id="path273" d="m350.43 489.88q-1.1112 0-1.7518 0.59421-0.63279 0.59421-0.63279 1.636t0.63279 1.636q0.64051 0.59421 1.7518 0.59421 1.1112 0 1.7518-0.59421 0.64052-0.60192 0.64052-1.636 0-1.0418-0.64052-1.636-0.63279-0.59421-1.7518-0.59421zm-1.5588-0.66366q-1.0032-0.24695-1.5666-0.93376-0.55563-0.68681-0.55563-1.6746 0-1.3813 0.98006-2.1839 0.98778-0.80257 2.701-0.80257 1.7209 0 2.7009 0.80257 0.98006 0.80256 0.98006 2.1839 0 0.98778-0.56334 1.6746-0.55562 0.68681-1.5511 0.93376 1.1267 0.26238 1.7518 1.0264 0.6328 0.76398 0.6328 1.8675 0 1.6746-1.0264 2.5698-1.0186 0.89517-2.9247 0.89517-1.9061 0-2.9325-0.89517-1.0186-0.89517-1.0186-2.5698 0-1.1035 0.63279-1.8675t1.7595-1.0264zm-0.57106-2.4617q0 0.89517 0.55562 1.3968 0.56334 0.50161 1.5743 0.50161 1.0032 0 1.5666-0.50161 0.57105-0.5016 0.57105-1.3968t-0.57105-1.3968q-0.56334-0.5016-1.5666-0.5016-1.0109 0-1.5743 0.5016-0.55562 0.50161-0.55562 1.3968z" style=""/>
   <path id="path275" d="m357.16 493.39h1.6283v1.9601h-1.6283z" style=""/>
   <path id="path277" d="m363.54 494.04h5.4405v1.3119h-7.3157v-1.3119q0.88746-0.91832 2.4154-2.4617 1.5357-1.5511 1.9292-1.9987 0.74855-0.84116 1.0418-1.4199 0.30096-0.58649 0.30096-1.1498 0-0.91832-0.64822-1.4971-0.64051-0.57877-1.6746-0.57877-0.73311 0-1.5511 0.25466-0.81028 0.25466-1.7363 0.7717v-1.5743q0.94147-0.37813 1.7595-0.57106 0.818-0.19292 1.4971-0.19292 1.7903 0 2.8553 0.89517 1.0649 0.89517 1.0649 2.3923 0 0.70996-0.27009 1.3505-0.26238 0.63279-0.96462 1.4971-0.19293 0.22379-1.227 1.2964-1.0341 1.065-2.917 2.9865z" style=""/>
   <path id="path279" d="m376.98 489.14q1.119 0.23922 1.744 0.99549 0.63279 0.75627 0.63279 1.8675 0 1.7055-1.173 2.6392-1.173 0.93376-3.3337 0.93376-0.7254 0-1.4971-0.14662-0.76398-0.13891-1.582-0.42444v-1.5048q0.64823 0.37813 1.4199 0.57106 0.7717 0.19292 1.6128 0.19292 1.4662 0 2.2302-0.57877 0.7717-0.57878 0.7717-1.6823 0-1.0186-0.71768-1.5897-0.70996-0.57877-1.9833-0.57877h-1.3428v-1.281h1.4045q1.1498 0 1.7595-0.45531 0.60964-0.46302 0.60964-1.3273 0-0.88745-0.63279-1.3582-0.62508-0.47845-1.7981-0.47845-0.64051 0-1.3736 0.1389-0.73312 0.13891-1.6128 0.43215v-1.389q0.88745-0.24695 1.6592-0.37042 0.77941-0.12347 1.4662-0.12347 1.7749 0 2.809 0.81028 1.0341 0.80257 1.0341 2.1762 0 0.95691-0.54791 1.6206-0.5479 0.65595-1.5588 0.91061z" style=""/>
  </g>
  <path id="ellipse44" d="m150 280a10 10 0 0 1-10 10 10 10 0 0 1-10-10 10 10 0 0 1 10-10 10 10 0 0 1 10 10z" fill="#fff" stroke="#000" stroke-width="2"/>
  <g id="text50" aria-label="Veszprém47.09, 17.90">
   <path id="path283" d="m144.52 315.6-4.3987-11.521h1.6283l3.6501 9.7002 3.6579-9.7002h1.6206l-4.391 11.521z" style=""/>
   <path id="path285" d="m158.45 310.92v0.69453h-6.5286q0.0926 1.4662 0.87974 2.2379 0.79485 0.76399 2.2071 0.76399 0.818 0 1.582-0.20064 0.7717-0.20065 1.528-0.60193v1.3428q-0.76398 0.32411-1.5666 0.49388-0.80257 0.16978-1.6283 0.16978-2.0682 0-3.2797-1.2038-1.2038-1.2038-1.2038-3.2566 0-2.1222 1.1421-3.3646 1.1498-1.2502 3.0945-1.2502 1.744 0 2.755 1.1267 1.0186 1.119 1.0186 3.0482zm-1.4199-0.41672q-0.0154-1.1653-0.65594-1.8598-0.6328-0.69452-1.6823-0.69452-1.1884 0-1.9061 0.67137-0.70997 0.67138-0.818 1.8907z" style=""/>
   <path id="path287" d="m166.29 307.21v1.3428q-0.60192-0.30868-1.2502-0.46302t-1.3428-0.15434q-1.0572 0-1.5897 0.32412-0.52475 0.32411-0.52475 0.97234 0 0.49388 0.37813 0.77941 0.37813 0.27781 1.5202 0.53247l0.48617 0.10804q1.5125 0.32412 2.1453 0.91832 0.64051 0.5865 0.64051 1.6437 0 1.2039-0.9569 1.9061-0.9492 0.70225-2.6161 0.70225-0.69452 0-1.4508-0.13891-0.74855-0.13119-1.582-0.40128v-1.4662q0.78713 0.409 1.5511 0.61736 0.76398 0.20064 1.5125 0.20064 1.0032 0 1.5434-0.33955 0.54019-0.34726 0.54019-0.97234 0-0.57877-0.39357-0.88745-0.38585-0.30868-1.7054-0.59421l-0.49389-0.11576q-1.3196-0.27781-1.9061-0.84886-0.58649-0.57878-0.58649-1.582 0-1.2193 0.86431-1.8829 0.8643-0.66367 2.454-0.66367 0.78713 0 1.4817 0.11576 0.69453 0.11575 1.281 0.34726z" style=""/>
   <path id="path289" d="m168.41 306.95h6.7446v1.2965l-5.3402 6.2122h5.3402v1.1344h-6.9376v-1.2964l5.3402-6.2122h-5.1472z" style=""/>
   <path id="path291" d="m178.7 314.3v4.5839h-1.4276v-11.93h1.4276v1.3119q0.44758-0.7717 1.1267-1.1421 0.68681-0.37814 1.636-0.37814 1.5743 0 2.5543 1.2502 0.98777 1.2502 0.98777 3.2874 0 2.0373-0.98777 3.2874-0.98006 1.2502-2.5543 1.2502-0.94919 0-1.636-0.37042-0.6791-0.37813-1.1267-1.1498zm4.8308-3.0173q0-1.5666-0.64823-2.454-0.64051-0.89517-1.7672-0.89517t-1.7749 0.89517q-0.64051 0.88746-0.64051 2.454t0.64051 2.4617q0.64823 0.88745 1.7749 0.88745t1.7672-0.88745q0.64823-0.89517 0.64823-2.4617z" style=""/>
   <path id="path293" d="m192.37 308.28q-0.23922-0.13891-0.52475-0.20065-0.27782-0.0694-0.61736-0.0694-1.2038 0-1.8521 0.78713-0.64051 0.77942-0.64051 2.2456v4.553h-1.4276v-8.643h1.4276v1.3428q0.44758-0.78713 1.1653-1.1653 0.71768-0.38585 1.744-0.38585 0.14663 0 0.32412 0.0232 0.17749 0.0154 0.39356 0.054z" style=""/>
   <path id="path295" d="m200.93 310.92v0.69453h-6.5286q0.0926 1.4662 0.87974 2.2379 0.79485 0.76399 2.2071 0.76399 0.818 0 1.582-0.20064 0.7717-0.20065 1.528-0.60193v1.3428q-0.76398 0.32411-1.5666 0.49388-0.80256 0.16978-1.6283 0.16978-2.0682 0-3.2797-1.2038-1.2038-1.2038-1.2038-3.2566 0-2.1222 1.1421-3.3646 1.1498-1.2502 3.0945-1.2502 1.744 0 2.755 1.1267 1.0186 1.119 1.0186 3.0482zm-1.4199-0.41672q-0.0154-1.1653-0.65595-1.8598-0.63279-0.69452-1.6823-0.69452-1.1884 0-1.9061 0.67137-0.70996 0.67138-0.818 1.8907zm-1.3659-7.5472h1.5357l-2.5157 2.9016h-1.1807z" style=""/>
   <path id="path297" d="m209.99 308.61q0.53248-0.95691 1.2733-1.4122 0.74083-0.45531 1.744-0.45531 1.3505 0 2.0836 0.94919 0.73311 0.94148 0.73311 2.6855v5.2167h-1.4276v-5.1704q0-1.2424-0.43987-1.8444-0.43987-0.60193-1.3428-0.60193-1.1035 0-1.744 0.73312-0.64051 0.73311-0.64051 1.9987v4.8848h-1.4276v-5.1704q0-1.2502-0.43987-1.8444-0.43987-0.60193-1.3582-0.60193-1.0881 0-1.7286 0.74083-0.64051 0.73312-0.64051 1.991v4.8848h-1.4276v-8.643h1.4276v1.3428q0.48617-0.79485 1.1653-1.173 0.67909-0.37814 1.6128-0.37814 0.94147 0 1.5974 0.47846 0.66366 0.47845 0.98005 1.3891z" style=""/>
   <path id="path299" d="m145.97 325.19-3.9357 6.1504h3.9357zm-0.409-1.3582h1.9601v7.5086h1.6437v1.2965h-1.6437v2.7164h-1.5511v-2.7164h-5.2012v-1.5048z" style=""/>
   <path id="path301" d="m151.36 323.83h7.4083v0.66366l-4.1826 10.858h-1.6283l3.9357-10.21h-5.5331z" style=""/>
   <path id="path303" d="m161.82 333.39h1.6283v1.9601h-1.6283z" style=""/>
   <path id="path305" d="m170.18 324.86q-1.2038 0-1.8135 1.1884-0.60192 1.1807-0.60192 3.5575 0 2.3691 0.60192 3.5575 0.60965 1.1807 1.8135 1.1807 1.2116 0 1.8135-1.1807 0.60964-1.1884 0.60964-3.5575 0-2.3768-0.60964-3.5575-0.60193-1.1884-1.8135-1.1884zm0-1.2347q1.937 0 2.9556 1.5357 1.0264 1.528 1.0264 4.445 0 2.9093-1.0264 4.445-1.0186 1.528-2.9556 1.528-1.937 0-2.9633-1.528-1.0186-1.5357-1.0186-4.445 0-2.917 1.0186-4.445 1.0264-1.5357 2.9633-1.5357z" style=""/>
   <path id="path307" d="m176.96 335.11v-1.4199q0.58649 0.27782 1.1884 0.42444 0.60193 0.14662 1.1807 0.14662 1.5434 0 2.3537-1.0341 0.81801-1.0418 0.93376-3.1562-0.44758 0.66367-1.1344 1.0186-0.68681 0.35498-1.5202 0.35498-1.7286 0-2.7395-1.0418-1.0032-1.0495-1.0032-2.863 0-1.7749 1.0495-2.8476 1.0495-1.0727 2.7936-1.0727 1.9987 0 3.0482 1.5357 1.0572 1.528 1.0572 4.445 0 2.7241-1.2965 4.3524-1.2887 1.6206-3.4726 1.6206-0.5865 0-1.1884-0.11576-0.60193-0.11575-1.2502-0.34726zm3.1022-4.8849q1.0495 0 1.6592-0.71768 0.61736-0.71768 0.61736-1.9678 0-1.2424-0.61736-1.9601-0.60964-0.72539-1.6592-0.72539t-1.6669 0.72539q-0.60965 0.71768-0.60965 1.9601 0 1.2502 0.60965 1.9678 0.61736 0.71768 1.6669 0.71768z" style=""/>
   <path id="path309" d="m187.14 333.39h1.6283v1.3273l-1.2656 2.4694h-0.9955l0.6328-2.4694z" style=""/>
   <path id="path311" d="m197.31 334.04h2.5466v-8.7897l-2.7704 0.55563v-1.4199l2.755-0.55562h1.5588v10.21h2.5466v1.3119h-6.6366z" style=""/>
   <path id="path313" d="m206.71 323.83h7.4083v0.66366l-4.1826 10.858h-1.6283l3.9357-10.21h-5.5331z" style=""/>
   <path id="path315" d="m217.16 333.39h1.6283v1.9601h-1.6283z" style=""/>
   <path id="path317" d="m222.24 335.11v-1.4199q0.58649 0.27782 1.1884 0.42444 0.60193 0.14662 1.1807 0.14662 1.5434 0 2.3537-1.0341 0.81801-1.0418 0.93376-3.1562-0.44758 0.66367-1.1344 1.0186-0.68681 0.35498-1.5202 0.35498-1.7286 0-2.7395-1.0418-1.0032-1.0495-1.0032-2.863 0-1.7749 1.0495-2.8476 1.0495-1.0727 2.7936-1.0727 1.9987 0 3.0482 1.5357 1.0572 1.528 1.0572 4.445 0 2.7241-1.2965 4.3524-1.2887 1.6206-3.4726 1.6206-0.5865 0-1.1884-0.11576-0.60193-0.11575-1.2502-0.34726zm3.1022-4.8849q1.0495 0 1.6592-0.71768 0.61736-0.71768 0.61736-1.9678 0-1.2424-0.61736-1.9601-0.60964-0.72539-1.6592-0.72539t-1.6669 0.72539q-0.60965 0.71768-0.60965 1.9601 0 1.2502 0.60965 1.9678 0.61736 0.71768 1.6669 0.71768z" style=""/>
   <path id="path319" d="m235.59 324.86q-1.2038 0-1.8135 1.1884-0.60193 1.1807-0.60193 3.5575 0 2.3691 0.60193 3.5575 0.60964 1.1807 1.8135 1.1807 1.2116 0 1.8135-1.1807 0.60964-1.1884 0.60964-3.5575 0-2.3768-0.60964-3.5575-0.60193-1.1884-1.8135-1.1884zm0-1.2347q1.937 0 2.9556 1.5357 1.0264 1.528 1.0264 4.445 0 2.9093-1.0264 4.445-1.0186 1.528-2.9556 1.528-1.937 0-2.9633-1.528-1.0186-1.5357-1.0186-4.445 0-2.917 1.0186-4.445 1.0264-1.5357 2.9633-1.5357z" style=""/>
  </g>
  <path id="line52" d="m150.73 277.61 158.53-35.23" fill="none" stroke="#7f7f7f" stroke-width="2"/>
  <path id="line54" d="m327.27 231.76 135.46-153.52" fill="none" stroke="#7f7f7f" stroke-width="2"/>
  <path id="line56" d="m476.39 78.953 137.21 192.09" fill="none" stroke="#7f7f7f" stroke-width="2"/>
  <path id="line58" d="m624.55 290 40.906 89.992" fill="none" stroke="#7f7f7f" stroke-width="2"/>
  <path id="ellipse60" d="m450 300a10 10 0 0 1-10 10 10 10 0 0 1-10-10 10 10 0 0 1 10-10 10 10 0 0 1 10 10z" fill="#fff" stroke="#000" stroke-width="2"/>
  <g id="text66" aria-label="Dunaújváros46.97, 18.92">
   <path id="path327" d="m463.11 305.36v8.9594h1.8829q2.3846 0 3.4881-1.0804 1.1112-1.0804 1.1112-3.4109 0-2.3151-1.1112-3.3878-1.1035-1.0804-3.4881-1.0804zm-1.5588-1.281h3.2026q3.3492 0 4.9157 1.3968 1.5666 1.3891 1.5666 4.3524 0 2.9788-1.5743 4.3755-1.5743 1.3968-4.908 1.3968h-3.2026z" style=""/>
   <path id="path329" d="m473.5 312.19v-5.2321h1.4199v5.1781q0 1.227 0.47846 1.8444 0.47845 0.60964 1.4354 0.60964 1.1498 0 1.8135-0.73312 0.67138-0.73311 0.67138-1.9987v-4.9003h1.4199v8.643h-1.4199v-1.3273q-0.51704 0.78714-1.2038 1.173-0.6791 0.37813-1.582 0.37813-1.4894 0-2.2611-0.92604-0.7717-0.92604-0.7717-2.7087zm3.573-5.4405z" style=""/>
   <path id="path331" d="m490.87 310.38v5.2167h-1.4199v-5.1704q0-1.227-0.47845-1.8366-0.47846-0.60965-1.4354-0.60965-1.1498 0-1.8135 0.73312-0.66366 0.73311-0.66366 1.9987v4.8848h-1.4276v-8.643h1.4276v1.3428q0.50932-0.77942 1.1961-1.1653 0.69453-0.38585 1.5974-0.38585 1.4894 0 2.2534 0.92604 0.76398 0.91833 0.76398 2.7087z" style=""/>
   <path id="path333" d="m497.64 311.25q-1.7209 0-2.3846 0.39356-0.66367 0.39357-0.66367 1.3428 0 0.75627 0.49389 1.2038 0.50161 0.43987 1.3582 0.43987 1.1807 0 1.8907-0.83343 0.71768-0.84116 0.71768-2.2302v-0.31639zm2.8321-0.58649v4.9312h-1.4199v-1.3119q-0.48617 0.78713-1.2116 1.1653-0.7254 0.37042-1.7749 0.37042-1.3273 0-2.1145-0.74083-0.77941-0.74855-0.77941-1.9987 0-1.4585 0.97234-2.1994 0.98006-0.74083 2.917-0.74083h1.991v-0.1389q0-0.98006-0.64823-1.5125-0.64051-0.54018-1.8058-0.54018-0.74083 0-1.4431 0.17749-0.70225 0.17749-1.3505 0.53247v-1.3119q0.77942-0.30096 1.5125-0.44759 0.73312-0.15434 1.4276-0.15434 1.8752 0 2.8013 0.97235 0.92604 0.97234 0.92604 2.9479z" style=""/>
   <path id="path335" d="m503.26 312.19v-5.2321h1.4199v5.1781q0 1.227 0.47846 1.8444 0.47845 0.60964 1.4354 0.60964 1.1498 0 1.8135-0.73312 0.67138-0.73311 0.67138-1.9987v-4.9003h1.4199v8.643h-1.4199v-1.3273q-0.51704 0.78714-1.2038 1.173-0.6791 0.37813-1.582 0.37813-1.4894 0-2.2611-0.92604t-0.7717-2.7087zm3.573-5.4405zm1.0572-3.789h1.5357l-2.5157 2.9016h-1.1807z" style=""/>
   <path id="path337" d="m513.44 306.95h1.4199v8.7974q0 1.6514-0.6328 2.3923-0.62507 0.74083-2.0218 0.74083h-0.54019v-1.2038h0.37813q0.81029 0 1.1035-0.37813 0.29325-0.37042 0.29325-1.5511zm0-3.3646h1.4199v1.7981h-1.4199z" style=""/>
   <path id="path339" d="m516.8 306.95h1.5048l2.7009 7.254 2.701-7.254h1.5048l-3.2411 8.643h-1.9292z" style=""/>
   <path id="path341" d="m531.1 311.25q-1.7209 0-2.3846 0.39356-0.66366 0.39357-0.66366 1.3428 0 0.75627 0.49389 1.2038 0.5016 0.43987 1.3582 0.43987 1.1807 0 1.8907-0.83343 0.71768-0.84116 0.71768-2.2302v-0.31639zm2.8321-0.58649v4.9312h-1.4199v-1.3119q-0.48617 0.78713-1.2116 1.1653-0.72539 0.37042-1.7749 0.37042-1.3273 0-2.1144-0.74083-0.77942-0.74855-0.77942-1.9987 0-1.4585 0.97234-2.1994 0.98006-0.74083 2.917-0.74083h1.991v-0.1389q0-0.98006-0.64823-1.5125-0.64051-0.54018-1.8058-0.54018-0.74083 0-1.4431 0.17749t-1.3505 0.53247v-1.3119q0.77941-0.30096 1.5125-0.44759 0.73311-0.15434 1.4276-0.15434 1.8752 0 2.8013 0.97235 0.92604 0.97234 0.92604 2.9479zm-2.5929-7.7093h1.5357l-2.5157 2.9016h-1.1807z" style=""/>
   <path id="path343" d="m541.88 308.28q-0.23923-0.13891-0.52476-0.20065-0.27781-0.0694-0.61736-0.0694-1.2038 0-1.8521 0.78713-0.64051 0.77942-0.64051 2.2456v4.553h-1.4276v-8.643h1.4276v1.3428q0.44759-0.78713 1.1653-1.1653 0.71768-0.38585 1.744-0.38585 0.14662 0 0.32411 0.0232 0.17749 0.0154 0.39357 0.054z" style=""/>
   <path id="path345" d="m546.39 307.95q-1.1421 0-1.8058 0.89517-0.66366 0.88745-0.66366 2.4386 0 1.5511 0.65595 2.4463 0.66366 0.88746 1.8135 0.88746 1.1344 0 1.7981-0.89517 0.66366-0.89518 0.66366-2.4386 0-1.5357-0.66366-2.4309-0.66366-0.90288-1.7981-0.90288zm0-1.2039q1.8521 0 2.9093 1.2039 1.0572 1.2038 1.0572 3.3337 0 2.1222-1.0572 3.3337-1.0572 1.2038-2.9093 1.2038-1.8598 0-2.917-1.2038-1.0495-1.2116-1.0495-3.3337 0-2.1299 1.0495-3.3337 1.0572-1.2039 2.917-1.2039z" style=""/>
   <path id="path347" d="m558.21 307.21v1.3428q-0.60192-0.30868-1.2502-0.46302t-1.3428-0.15434q-1.0572 0-1.5897 0.32412-0.52475 0.32411-0.52475 0.97234 0 0.49388 0.37813 0.77941 0.37813 0.27781 1.5202 0.53247l0.48617 0.10804q1.5125 0.32412 2.1453 0.91832 0.64051 0.5865 0.64051 1.6437 0 1.2039-0.9569 1.9061-0.94919 0.70225-2.6161 0.70225-0.69453 0-1.4508-0.13891-0.74855-0.13119-1.582-0.40128v-1.4662q0.78713 0.409 1.5511 0.61736 0.76399 0.20064 1.5125 0.20064 1.0032 0 1.5434-0.33955 0.54019-0.34726 0.54019-0.97234 0-0.57877-0.39357-0.88745-0.38584-0.30868-1.7054-0.59421l-0.49389-0.11576q-1.3196-0.27781-1.9061-0.84886-0.58649-0.57878-0.58649-1.582 0-1.2193 0.86431-1.8829 0.8643-0.66367 2.454-0.66367 0.78713 0 1.4817 0.11576 0.69453 0.11575 1.281 0.34726z" style=""/>
   <path id="path349" d="m465.97 325.19-3.9357 6.1504h3.9357zm-0.409-1.3582h1.9601v7.5086h1.6437v1.2965h-1.6437v2.7164h-1.5511v-2.7164h-5.2012v-1.5048z" style=""/>
   <path id="path351" d="m475.28 328.97q-1.0495 0-1.6669 0.71768-0.60964 0.71768-0.60964 1.9678 0 1.2424 0.60964 1.9678 0.61736 0.71768 1.6669 0.71768 1.0495 0 1.6592-0.71768 0.61736-0.7254 0.61736-1.9678 0-1.2502-0.61736-1.9678-0.60964-0.71768-1.6592-0.71768zm3.0945-4.8848v1.4199q-0.58649-0.27781-1.1884-0.42443-0.59421-0.14662-1.1807-0.14662-1.5434 0-2.3614 1.0418-0.81028 1.0418-0.92604 3.1485 0.45531-0.67137 1.1421-1.0264 0.68681-0.36269 1.5125-0.36269 1.7363 0 2.7395 1.0572 1.0109 1.0495 1.0109 2.863 0 1.7749-1.0495 2.8476-1.0495 1.0727-2.7936 1.0727-1.9987 0-3.0559-1.528-1.0572-1.5357-1.0572-4.445 0-2.7318 1.2964-4.3524 1.2965-1.6283 3.4804-1.6283 0.58649 0 1.1807 0.11575 0.60192 0.11576 1.2502 0.34727z" style=""/>
   <path id="path353" d="m481.82 333.39h1.6283v1.9601h-1.6283z" style=""/>
   <path id="path355" d="m486.89 335.11v-1.4199q0.58649 0.27782 1.1884 0.42444 0.60193 0.14662 1.1807 0.14662 1.5434 0 2.3537-1.0341 0.818-1.0418 0.93375-3.1562-0.44758 0.66367-1.1344 1.0186-0.68682 0.35498-1.5202 0.35498-1.7286 0-2.7395-1.0418-1.0032-1.0495-1.0032-2.863 0-1.7749 1.0495-2.8476t2.7936-1.0727q1.9987 0 3.0482 1.5357 1.0572 1.528 1.0572 4.445 0 2.7241-1.2965 4.3524-1.2887 1.6206-3.4726 1.6206-0.58649 0-1.1884-0.11576-0.60192-0.11575-1.2502-0.34726zm3.1022-4.8849q1.0495 0 1.6592-0.71768 0.61736-0.71768 0.61736-1.9678 0-1.2424-0.61736-1.9601-0.60964-0.72539-1.6592-0.72539t-1.6669 0.72539q-0.60964 0.71768-0.60964 1.9601 0 1.2502 0.60964 1.9678 0.61736 0.71768 1.6669 0.71768z" style=""/>
   <path id="path357" d="m496.52 323.83h7.4083v0.66366l-4.1826 10.858h-1.6283l3.9357-10.21h-5.5331z" style=""/>
   <path id="path359" d="m507.14 333.39h1.6283v1.3273l-1.2656 2.4694h-0.9955l0.6328-2.4694z" style=""/>
   <path id="path361" d="m517.31 334.04h2.5466v-8.7897l-2.7704 0.55563v-1.4199l2.755-0.55562h1.5588v10.21h2.5466v1.3119h-6.6366z" style=""/>
   <path id="path363" d="m530.43 329.88q-1.1112 0-1.7518 0.59421-0.63279 0.59421-0.63279 1.636t0.63279 1.636q0.64051 0.59421 1.7518 0.59421 1.1112 0 1.7518-0.59421 0.64052-0.60192 0.64052-1.636 0-1.0418-0.64052-1.636-0.63279-0.59421-1.7518-0.59421zm-1.5588-0.66366q-1.0032-0.24695-1.5666-0.93376-0.55563-0.68681-0.55563-1.6746 0-1.3813 0.98006-2.1839 0.98778-0.80257 2.701-0.80257 1.7209 0 2.7009 0.80257 0.98006 0.80256 0.98006 2.1839 0 0.98778-0.56334 1.6746-0.55562 0.68681-1.5511 0.93376 1.1267 0.26238 1.7518 1.0264 0.6328 0.76398 0.6328 1.8675 0 1.6746-1.0264 2.5698-1.0186 0.89517-2.9247 0.89517-1.9061 0-2.9325-0.89517-1.0186-0.89517-1.0186-2.5698 0-1.1035 0.63279-1.8675t1.7595-1.0264zm-0.57106-2.4617q0 0.89517 0.55562 1.3968 0.56334 0.50161 1.5743 0.50161 1.0032 0 1.5666-0.50161 0.57105-0.5016 0.57105-1.3968t-0.57105-1.3968q-0.56334-0.5016-1.5666-0.5016-1.0109 0-1.5743 0.5016-0.55562 0.50161-0.55562 1.3968z" style=""/>
   <path id="path365" d="m537.16 333.39h1.6283v1.9601h-1.6283z" style=""/>
   <path id="path367" d="m542.24 335.11v-1.4199q0.58649 0.27782 1.1884 0.42444 0.60193 0.14662 1.1807 0.14662 1.5434 0 2.3537-1.0341 0.81801-1.0418 0.93376-3.1562-0.44758 0.66367-1.1344 1.0186-0.68681 0.35498-1.5202 0.35498-1.7286 0-2.7395-1.0418-1.0032-1.0495-1.0032-2.863 0-1.7749 1.0495-2.8476 1.0495-1.0727 2.7936-1.0727 1.9987 0 3.0482 1.5357 1.0572 1.528 1.0572 4.445 0 2.7241-1.2965 4.3524-1.2887 1.6206-3.4726 1.6206-0.5865 0-1.1884-0.11576-0.60193-0.11575-1.2502-0.34726zm3.1022-4.8849q1.0495 0 1.6592-0.71768 0.61736-0.71768 0.61736-1.9678 0-1.2424-0.61736-1.9601-0.60964-0.72539-1.6592-0.72539t-1.6669 0.72539q-0.60965 0.71768-0.60965 1.9601 0 1.2502 0.60965 1.9678 0.61736 0.71768 1.6669 0.71768z" style=""/>
   <path id="path369" d="m553.6 334.04h5.4405v1.3119h-7.3157v-1.3119q0.88745-0.91832 2.4154-2.4617 1.5357-1.5511 1.9292-1.9987 0.74854-0.84116 1.0418-1.4199 0.30096-0.58649 0.30096-1.1498 0-0.91832-0.64823-1.4971-0.64051-0.57877-1.6746-0.57877-0.73312 0-1.5511 0.25466-0.81028 0.25466-1.7363 0.7717v-1.5743q0.94147-0.37813 1.7595-0.57106 0.818-0.19292 1.4971-0.19292 1.7903 0 2.8553 0.89517 1.0649 0.89517 1.0649 2.3923 0 0.70996-0.27009 1.3505-0.26238 0.63279-0.96463 1.4971-0.19292 0.22379-1.227 1.2964-1.0341 1.065-2.917 2.9865z" style=""/>
  </g>
  <path id="line68" d="m329.61 244.8 100.78 50.39" fill="none" stroke="#7f7f7f" stroke-width="2"/>
  <path id="line70" d="m450.92 298.79 158.16-17.574" fill="none" stroke="#7f7f7f" stroke-width="2"/>
  <path id="line72" d="m399.56 413.48-99.126 33.042" fill="none" stroke="#7f7f7f" stroke-width="2"/>
  <path id="ellipse74" d="m420 410a10 10 0 0 1-10 10 10 10 0 0 1-10-10 10 10 0 0 1 10-10 10 10 0 0 1 10 10z" fill="#fff" stroke="#000" stroke-width="2"/>
  <g id="text80" aria-label="Bátaszék46.19, 18.72">
   <path id="path376" d="m423.11 430.09v4.2212h2.5003q1.2579 0 1.8598-0.51703 0.60964-0.52476 0.60964-1.5974 0-1.0804-0.60964-1.5897-0.60193-0.51704-1.8598-0.51704zm0-4.7382v3.4726h2.3074q1.1421 0 1.6977-0.42443 0.56334-0.43215 0.56334-1.3119 0-0.87202-0.56334-1.3042-0.55563-0.43215-1.6977-0.43215zm-1.5588-1.281h3.982q1.7826 0 2.7472 0.74083 0.96463 0.74083 0.96463 2.1067 0 1.0572-0.49389 1.6823t-1.4508 0.77942q1.1498 0.24694 1.7826 1.0341 0.64051 0.77942 0.64051 1.9524 0 1.5434-1.0495 2.3846t-2.9865 0.84115h-4.1363z" style=""/>
   <path id="path378" d="m436.25 431.25q-1.7209 0-2.3846 0.39356-0.66367 0.39357-0.66367 1.3428 0 0.75627 0.49389 1.2038 0.50161 0.43987 1.3582 0.43987 1.1807 0 1.8907-0.83343 0.71768-0.84116 0.71768-2.2302v-0.31639zm2.8321-0.58649v4.9312h-1.4199v-1.3119q-0.48617 0.78713-1.2116 1.1653-0.7254 0.37042-1.7749 0.37042-1.3273 0-2.1145-0.74083-0.77941-0.74855-0.77941-1.9987 0-1.4585 0.97234-2.1994 0.98006-0.74083 2.917-0.74083h1.991v-0.1389q0-0.98006-0.64823-1.5125-0.64051-0.54018-1.8058-0.54018-0.74083 0-1.4431 0.17749-0.70224 0.17749-1.3505 0.53247v-1.3119q0.77942-0.30096 1.5125-0.44759 0.73312-0.15434 1.4276-0.15434 1.8752 0 2.8013 0.97235 0.92604 0.97234 0.92604 2.9479zm-2.5929-7.7093h1.5357l-2.5157 2.9016h-1.1807z" style=""/>
   <path id="path380" d="m443.42 424.5v2.454h2.9247v1.1035h-2.9247v4.6919q0 1.0572 0.28553 1.3582 0.29325 0.30096 1.1807 0.30096h1.4585v1.1884h-1.4585q-1.6437 0-2.2688-0.60964-0.62507-0.61736-0.62507-2.2379v-4.6919h-1.0418v-1.1035h1.0418v-2.454z" style=""/>
   <path id="path382" d="m452.15 431.25q-1.7209 0-2.3846 0.39356-0.66366 0.39357-0.66366 1.3428 0 0.75627 0.49389 1.2038 0.5016 0.43987 1.3582 0.43987 1.1807 0 1.8907-0.83343 0.71768-0.84116 0.71768-2.2302v-0.31639zm2.8321-0.58649v4.9312h-1.4199v-1.3119q-0.48617 0.78713-1.2116 1.1653-0.72539 0.37042-1.7749 0.37042-1.3273 0-2.1144-0.74083-0.77942-0.74855-0.77942-1.9987 0-1.4585 0.97234-2.1994 0.98006-0.74083 2.917-0.74083h1.991v-0.1389q0-0.98006-0.64823-1.5125-0.64051-0.54018-1.8058-0.54018-0.74083 0-1.4431 0.17749t-1.3505 0.53247v-1.3119q0.77941-0.30096 1.5125-0.44759 0.73311-0.15434 1.4276-0.15434 1.8752 0 2.8013 0.97235 0.92604 0.97234 0.92604 2.9479z" style=""/>
   <path id="path384" d="m463.42 427.21v1.3428q-0.60192-0.30868-1.2502-0.46302t-1.3428-0.15434q-1.0572 0-1.5897 0.32412-0.52475 0.32411-0.52475 0.97234 0 0.49388 0.37813 0.77941 0.37813 0.27781 1.5202 0.53247l0.48617 0.10804q1.5125 0.32412 2.1453 0.91832 0.64051 0.5865 0.64051 1.6437 0 1.2039-0.9569 1.9061-0.94919 0.70225-2.6161 0.70225-0.69453 0-1.4508-0.13891-0.74855-0.13119-1.582-0.40128v-1.4662q0.78713 0.409 1.5511 0.61736 0.76399 0.20064 1.5125 0.20064 1.0032 0 1.5434-0.33955 0.54019-0.34726 0.54019-0.97234 0-0.57877-0.39356-0.88745-0.38585-0.30868-1.7055-0.59421l-0.49389-0.11576q-1.3196-0.27781-1.9061-0.84886-0.5865-0.57878-0.5865-1.582 0-1.2193 0.86431-1.8829 0.8643-0.66367 2.454-0.66367 0.78713 0 1.4817 0.11576 0.69453 0.11575 1.281 0.34726z" style=""/>
   <path id="path386" d="m465.54 426.95h6.7446v1.2965l-5.3402 6.2122h5.3402v1.1344h-6.9376v-1.2964l5.3402-6.2122h-5.1472z" style=""/>
   <path id="path388" d="m481.85 430.92v0.69453h-6.5286q0.0926 1.4662 0.87974 2.2379 0.79485 0.76399 2.2071 0.76399 0.818 0 1.582-0.20064 0.7717-0.20065 1.528-0.60193v1.3428q-0.76398 0.32411-1.5666 0.49388-0.80256 0.16978-1.6283 0.16978-2.0682 0-3.2797-1.2038-1.2038-1.2038-1.2038-3.2566 0-2.1222 1.1421-3.3646 1.1498-1.2502 3.0945-1.2502 1.744 0 2.755 1.1267 1.0186 1.119 1.0186 3.0482zm-1.4199-0.41672q-0.0154-1.1653-0.65595-1.8598-0.63279-0.69452-1.6823-0.69452-1.1884 0-1.9061 0.67137-0.70996 0.67138-0.818 1.8907zm-1.3659-7.5472h1.5357l-2.5157 2.9016h-1.1807z" style=""/>
   <path id="path390" d="m484.13 423.59h1.4276v7.0919l4.2366-3.7273h1.8135l-4.5839 4.0437 4.7768 4.5993h-1.8521l-4.391-4.2212v4.2212h-1.4276z" style=""/>
   <path id="path392" d="m425.97 445.19-3.9357 6.1504h3.9357zm-0.409-1.3582h1.9601v7.5086h1.6437v1.2965h-1.6437v2.7164h-1.5511v-2.7164h-5.2012v-1.5048z" style=""/>
   <path id="path394" d="m435.28 448.97q-1.0495 0-1.6669 0.71768-0.60964 0.71768-0.60964 1.9678 0 1.2424 0.60964 1.9678 0.61736 0.71768 1.6669 0.71768 1.0495 0 1.6592-0.71768 0.61736-0.7254 0.61736-1.9678 0-1.2502-0.61736-1.9678-0.60964-0.71768-1.6592-0.71768zm3.0945-4.8848v1.4199q-0.58649-0.27781-1.1884-0.42443-0.59421-0.14662-1.1807-0.14662-1.5434 0-2.3614 1.0418-0.81028 1.0418-0.92604 3.1485 0.45531-0.67137 1.1421-1.0264 0.68681-0.36269 1.5125-0.36269 1.7363 0 2.7395 1.0572 1.0109 1.0495 1.0109 2.863 0 1.7749-1.0495 2.8476-1.0495 1.0727-2.7936 1.0727-1.9987 0-3.0559-1.528-1.0572-1.5357-1.0572-4.445 0-2.7318 1.2964-4.3524 1.2965-1.6283 3.4804-1.6283 0.58649 0 1.1807 0.11575 0.60192 0.11576 1.2502 0.34727z" style=""/>
   <path id="path396" d="m441.82 453.39h1.6283v1.9601h-1.6283z" style=""/>
   <path id="path398" d="m447.12 454.04h2.5466v-8.7897l-2.7704 0.55563v-1.4199l2.755-0.55562h1.5588v10.21h2.5466v1.3119h-6.6366z" style=""/>
   <path id="path400" d="m456.96 455.11v-1.4199q0.58649 0.27782 1.1884 0.42444 0.60193 0.14662 1.1807 0.14662 1.5434 0 2.3537-1.0341 0.81801-1.0418 0.93376-3.1562-0.44758 0.66367-1.1344 1.0186-0.68681 0.35498-1.5202 0.35498-1.7286 0-2.7395-1.0418-1.0032-1.0495-1.0032-2.863 0-1.7749 1.0495-2.8476 1.0495-1.0727 2.7936-1.0727 1.9987 0 3.0482 1.5357 1.0572 1.528 1.0572 4.445 0 2.7241-1.2965 4.3524-1.2887 1.6206-3.4726 1.6206-0.5865 0-1.1884-0.11576-0.60193-0.11575-1.2502-0.34726zm3.1022-4.8849q1.0495 0 1.6592-0.71768 0.61736-0.71768 0.61736-1.9678 0-1.2424-0.61736-1.9601-0.60964-0.72539-1.6592-0.72539t-1.6669 0.72539q-0.60965 0.71768-0.60965 1.9601 0 1.2502 0.60965 1.9678 0.61736 0.71768 1.6669 0.71768z" style=""/>
   <path id="path402" d="m467.14 453.39h1.6283v1.3273l-1.2656 2.4694h-0.9955l0.6328-2.4694z" style=""/>
   <path id="path404" d="m477.31 454.04h2.5466v-8.7897l-2.7704 0.55563v-1.4199l2.755-0.55562h1.5588v10.21h2.5466v1.3119h-6.6366z" style=""/>
   <path id="path406" d="m490.43 449.88q-1.1112 0-1.7518 0.59421-0.63279 0.59421-0.63279 1.636t0.63279 1.636q0.64051 0.59421 1.7518 0.59421 1.1112 0 1.7518-0.59421 0.64052-0.60192 0.64052-1.636 0-1.0418-0.64052-1.636-0.63279-0.59421-1.7518-0.59421zm-1.5588-0.66366q-1.0032-0.24695-1.5666-0.93376-0.55563-0.68681-0.55563-1.6746 0-1.3813 0.98006-2.1839 0.98778-0.80257 2.701-0.80257 1.7209 0 2.7009 0.80257 0.98006 0.80256 0.98006 2.1839 0 0.98778-0.56334 1.6746-0.55562 0.68681-1.5511 0.93376 1.1267 0.26238 1.7518 1.0264 0.6328 0.76398 0.6328 1.8675 0 1.6746-1.0264 2.5698-1.0186 0.89517-2.9247 0.89517-1.9061 0-2.9325-0.89517-1.0186-0.89517-1.0186-2.5698 0-1.1035 0.63279-1.8675t1.7595-1.0264zm-0.57106-2.4617q0 0.89517 0.55562 1.3968 0.56334 0.50161 1.5743 0.50161 1.0032 0 1.5666-0.50161 0.57105-0.5016 0.57105-1.3968t-0.57105-1.3968q-0.56334-0.5016-1.5666-0.5016-1.0109 0-1.5743 0.5016-0.55562 0.50161-0.55562 1.3968z" style=""/>
   <path id="path408" d="m497.16 453.39h1.6283v1.9601h-1.6283z" style=""/>
   <path id="path410" d="m501.8 443.83h7.4083v0.66366l-4.1826 10.858h-1.6283l3.9357-10.21h-5.5331z" style=""/>
   <path id="path412" d="m513.6 454.04h5.4405v1.3119h-7.3157v-1.3119q0.88745-0.91832 2.4154-2.4617 1.5357-1.5511 1.9292-1.9987 0.74854-0.84116 1.0418-1.4199 0.30096-0.58649 0.30096-1.1498 0-0.91832-0.64823-1.4971-0.64051-0.57877-1.6746-0.57877-0.73312 0-1.5511 0.25466-0.81028 0.25466-1.7363 0.7717v-1.5743q0.94147-0.37813 1.7595-0.57106 0.818-0.19292 1.4971-0.19292 1.7903 0 2.8553 0.89517 1.0649 0.89517 1.0649 2.3923 0 0.70996-0.27009 1.3505-0.26238 0.63279-0.96463 1.4971-0.19292 0.22379-1.227 1.2964-1.0341 1.065-2.917 2.9865z" style=""/>
  </g>
  <path id="line82" d="m437.11 310.61-24.21 88.77" fill="none" stroke="#7f7f7f" stroke-width="2"/>
  <path id="line84" d="m441.42 289.09 27.154-208.18" fill="none" stroke="#7f7f7f" stroke-width="2"/>
  <path id="line86" d="m420.95 409.16 238.1-18.316" fill="none" stroke="#7f7f7f" stroke-width="2"/>
  <g id="text92" fill="#7f7f7f" aria-label="M590">
   <path id="path418" d="m561.55 148.48h2.3228l2.9402 7.8405 2.9556-7.8405h2.3228v11.521h-1.5202v-10.117l-2.971 7.9022h-1.5666l-2.971-7.9022v10.117h-1.5125z" style=""/>
   <path id="path420" d="m575.35 148.48h6.1196v1.3119h-4.6919v2.8244q0.33955-0.11576 0.6791-0.16978 0.33954-0.0617 0.67909-0.0617 1.9292 0 3.0559 1.0572 1.1267 1.0572 1.1267 2.863 0 1.8598-1.1576 2.8939-1.1576 1.0264-3.2643 1.0264-0.7254 0-1.4817-0.12347-0.74855-0.12347-1.5511-0.37041v-1.5666q0.69453 0.37813 1.4354 0.56334 0.74083 0.1852 1.5666 0.1852 1.335 0 2.1144-0.70224 0.77942-0.70225 0.77942-1.9061t-0.77942-1.9061q-0.77941-0.70224-2.1144-0.70224-0.62508 0-1.2502 0.1389-0.61735 0.13891-1.2656 0.43215z" style=""/>
   <path id="path422" d="m561.74 179.52v-1.4199q0.58649 0.27782 1.1884 0.42444t1.1807 0.14662q1.5434 0 2.3537-1.0341 0.818-1.0418 0.93376-3.1562-0.44759 0.66367-1.1344 1.0186t-1.5202 0.35498q-1.7286 0-2.7395-1.0418-1.0032-1.0495-1.0032-2.863 0-1.7749 1.0495-2.8476t2.7936-1.0727q1.9987 0 3.0482 1.5357 1.0572 1.528 1.0572 4.445 0 2.7241-1.2964 4.3524-1.2887 1.6206-3.4726 1.6206-0.58649 0-1.1884-0.11576-0.60193-0.11575-1.2502-0.34726zm3.1022-4.8849q1.0495 0 1.6592-0.71768 0.61736-0.71768 0.61736-1.9678 0-1.2424-0.61736-1.9601-0.60964-0.72539-1.6592-0.72539-1.0495 0-1.6669 0.72539-0.60964 0.71768-0.60964 1.9601 0 1.2502 0.60964 1.9678 0.61736 0.71768 1.6669 0.71768z" style=""/>
   <path id="path424" d="m575.09 169.26q-1.2038 0-1.8135 1.1884-0.60193 1.1807-0.60193 3.5575 0 2.3691 0.60193 3.5575 0.60964 1.1807 1.8135 1.1807 1.2116 0 1.8135-1.1807 0.60965-1.1884 0.60965-3.5575 0-2.3768-0.60965-3.5575-0.60192-1.1884-1.8135-1.1884zm0-1.2347q1.937 0 2.9556 1.5357 1.0264 1.528 1.0264 4.445 0 2.9093-1.0264 4.445-1.0186 1.528-2.9556 1.528-1.937 0-2.9633-1.528-1.0186-1.5357-1.0186-4.445 0-2.917 1.0186-4.445 1.0264-1.5357 2.9633-1.5357z" style=""/>
  </g>
  <g id="text98" fill="#7f7f7f" aria-label="M591">
   <path id="path427" d="m661.55 308.48h2.3228l2.9402 7.8405 2.9556-7.8405h2.3228v11.521h-1.5202v-10.117l-2.971 7.9022h-1.5666l-2.971-7.9022v10.117h-1.5125z" style=""/>
   <path id="path429" d="m675.35 308.48h6.1196v1.3119h-4.6919v2.8244q0.33955-0.11576 0.6791-0.16978 0.33954-0.0617 0.67909-0.0617 1.9292 0 3.0559 1.0572 1.1267 1.0572 1.1267 2.863 0 1.8598-1.1576 2.8939-1.1576 1.0264-3.2643 1.0264-0.7254 0-1.4817-0.12347-0.74855-0.12347-1.5511-0.37041v-1.5666q0.69453 0.37813 1.4354 0.56334 0.74083 0.1852 1.5666 0.1852 1.335 0 2.1144-0.70224 0.77942-0.70225 0.77942-1.9061t-0.77942-1.9061q-0.77941-0.70224-2.1144-0.70224-0.62508 0-1.2502 0.1389-0.61735 0.13891-1.2656 0.43215z" style=""/>
   <path id="path431" d="m661.74 339.52v-1.4199q0.58649 0.27781 1.1884 0.42443 0.60193 0.14663 1.1807 0.14663 1.5434 0 2.3537-1.0341 0.818-1.0418 0.93376-3.1562-0.44759 0.66366-1.1344 1.0186t-1.5202 0.35498q-1.7286 0-2.7395-1.0418-1.0032-1.0495-1.0032-2.863 0-1.7749 1.0495-2.8476 1.0495-1.0727 2.7936-1.0727 1.9987 0 3.0482 1.5357 1.0572 1.528 1.0572 4.445 0 2.7241-1.2964 4.3524-1.2887 1.6206-3.4726 1.6206-0.58649 0-1.1884-0.11575-0.60193-0.11576-1.2502-0.34726zm3.1022-4.8849q1.0495 0 1.6592-0.71768 0.61736-0.71768 0.61736-1.9678 0-1.2424-0.61736-1.9601-0.60964-0.7254-1.6592-0.7254-1.0495 0-1.6669 0.7254-0.60964 0.71768-0.60964 1.9601 0 1.2502 0.60964 1.9678 0.61736 0.71768 1.6669 0.71768z" style=""/>
   <path id="path433" d="m672.02 338.44h2.5466v-8.7896l-2.7704 0.55562v-1.4199l2.755-0.55563h1.5588v10.21h2.5466v1.3119h-6.6366z" style=""/>
  </g>
  <g id="text104" fill="#7f7f7f" aria-label="55120">
   <path id="path436" d="m561.71 408.48h6.1196v1.3119h-4.6919v2.8244q0.33955-0.11576 0.67909-0.16978 0.33955-0.0617 0.6791-0.0617 1.9292 0 3.0559 1.0572 1.1267 1.0572 1.1267 2.863 0 1.8598-1.1576 2.8939-1.1576 1.0264-3.2643 1.0264-0.72539 0-1.4817-0.12347-0.74855-0.12347-1.5511-0.37041v-1.5666q0.69453 0.37813 1.4354 0.56334 0.74083 0.1852 1.5665 0.1852 1.335 0 2.1145-0.70224 0.77942-0.70225 0.77942-1.9061t-0.77942-1.9061q-0.77942-0.70224-2.1145-0.70224-0.62507 0-1.2502 0.1389-0.61736 0.13891-1.2656 0.43215z" style=""/>
   <path id="path438" d="m571.77 408.48h6.1196v1.3119h-4.6919v2.8244q0.33954-0.11576 0.67909-0.16978 0.33955-0.0617 0.6791-0.0617 1.9292 0 3.0559 1.0572 1.1267 1.0572 1.1267 2.863 0 1.8598-1.1576 2.8939-1.1576 1.0264-3.2643 1.0264-0.7254 0-1.4817-0.12347-0.74855-0.12347-1.5511-0.37041v-1.5666q0.69453 0.37813 1.4354 0.56334 0.74083 0.1852 1.5666 0.1852 1.335 0 2.1145-0.70224 0.77941-0.70225 0.77941-1.9061t-0.77941-1.9061q-0.77942-0.70224-2.1145-0.70224-0.62507 0-1.2502 0.1389-0.61736 0.13891-1.2656 0.43215z" style=""/>
   <path id="path440" d="m561.96 438.44h2.5466v-8.7896l-2.7704 0.55562v-1.4199l2.755-0.55563h1.5588v10.21h2.5466v1.3119h-6.6366z" style=""/>
   <path id="path442" d="m573.1 438.44h5.4405v1.3119h-7.3157v-1.3119q0.88745-0.91832 2.4154-2.4617 1.5357-1.5511 1.9292-1.9987 0.74855-0.84115 1.0418-1.4199 0.30096-0.5865 0.30096-1.1498 0-0.91832-0.64823-1.4971-0.64051-0.57878-1.6746-0.57878-0.73312 0-1.5511 0.25466-0.81028 0.25466-1.7363 0.7717v-1.5743q0.94147-0.37814 1.7595-0.57106 0.818-0.19293 1.4971-0.19293 1.7903 0 2.8553 0.89517 1.065 0.89518 1.065 2.3923 0 0.70997-0.2701 1.3505-0.26237 0.63279-0.96462 1.4971-0.19292 0.2238-1.227 1.2965-1.0341 1.0649-2.917 2.9865z" style=""/>
   <path id="path444" d="m585.15 429.26q-1.2038 0-1.8135 1.1884-0.60192 1.1807-0.60192 3.5575 0 2.3691 0.60192 3.5575 0.60965 1.1807 1.8135 1.1807 1.2116 0 1.8135-1.1807 0.60964-1.1884 0.60964-3.5575 0-2.3768-0.60964-3.5575-0.60192-1.1884-1.8135-1.1884zm0-1.2347q1.937 0 2.9556 1.5357 1.0264 1.528 1.0264 4.445 0 2.9093-1.0264 4.445-1.0186 1.528-2.9556 1.528-1.937 0-2.9633-1.528-1.0186-1.5357-1.0186-4.445 0-2.917 1.0186-4.445 1.0264-1.5357 2.9633-1.5357z" style=""/>
  </g>
  <g id="text110" fill="#7f7f7f" aria-label="M670">
   <path id="path447" d="m321.55 388.48h2.3228l2.9402 7.8405 2.9556-7.8405h2.3228v11.521h-1.5202v-10.117l-2.971 7.9022h-1.5666l-2.971-7.9022v10.117h-1.5125z" style=""/>
   <path id="path449" d="m338.86 393.62q-1.0495 0-1.6669 0.71768-0.60964 0.71768-0.60964 1.9678 0 1.2424 0.60964 1.9678 0.61736 0.71768 1.6669 0.71768t1.6592-0.71768q0.61736-0.72539 0.61736-1.9678 0-1.2502-0.61736-1.9678-0.60964-0.71768-1.6592-0.71768zm3.0945-4.8849v1.4199q-0.58649-0.27781-1.1884-0.42444-0.59421-0.14662-1.1807-0.14662-1.5434 0-2.3614 1.0418-0.81029 1.0418-0.92604 3.1485 0.4553-0.67138 1.1421-1.0264 0.68682-0.3627 1.5125-0.3627 1.7363 0 2.7395 1.0572 1.0109 1.0495 1.0109 2.863 0 1.7749-1.0495 2.8476t-2.7936 1.0727q-1.9987 0-3.0559-1.528-1.0572-1.5357-1.0572-4.445 0-2.7318 1.2965-4.3524 1.2964-1.6283 3.4804-1.6283 0.58649 0 1.1807 0.11576 0.60193 0.11575 1.2502 0.34726z" style=""/>
   <path id="path451" d="m321.3 408.23h7.4083v0.66366l-4.1826 10.858h-1.6283l3.9357-10.21h-5.5331z" style=""/>
   <path id="path453" d="m335.09 409.26q-1.2038 0-1.8135 1.1884-0.60193 1.1807-0.60193 3.5575 0 2.3691 0.60193 3.5575 0.60964 1.1807 1.8135 1.1807 1.2116 0 1.8135-1.1807 0.60965-1.1884 0.60965-3.5575 0-2.3768-0.60965-3.5575-0.60192-1.1884-1.8135-1.1884zm0-1.2347q1.937 0 2.9556 1.5357 1.0264 1.528 1.0264 4.445 0 2.9093-1.0264 4.445-1.0186 1.528-2.9556 1.528-1.937 0-2.9633-1.528-1.0186-1.5357-1.0186-4.445 0-2.917 1.0186-4.445 1.0264-1.5357 2.9633-1.5357z" style=""/>
  </g>
  <g id="text116" fill="#7f7f7f" aria-label="M6100">
   <path id="path456" d="m381.55 328.48h2.3228l2.9402 7.8405 2.9556-7.8405h2.3228v11.521h-1.5202v-10.117l-2.971 7.9022h-1.5666l-2.971-7.9022v10.117h-1.5125z" style=""/>
   <path id="path458" d="m398.86 333.62q-1.0495 0-1.6669 0.71768-0.60964 0.71768-0.60964 1.9678 0 1.2424 0.60964 1.9678 0.61736 0.71768 1.6669 0.71768t1.6592-0.71768q0.61736-0.72539 0.61736-1.9678 0-1.2502-0.61736-1.9678-0.60964-0.71768-1.6592-0.71768zm3.0945-4.8849v1.4199q-0.58649-0.27781-1.1884-0.42444-0.59421-0.14662-1.1807-0.14662-1.5434 0-2.3614 1.0418-0.81029 1.0418-0.92604 3.1485 0.4553-0.67138 1.1421-1.0264 0.68682-0.3627 1.5125-0.3627 1.7363 0 2.7395 1.0572 1.0109 1.0495 1.0109 2.863 0 1.7749-1.0495 2.8476t-2.7936 1.0727q-1.9987 0-3.0559-1.528-1.0572-1.5357-1.0572-4.445 0-2.7318 1.2965-4.3524 1.2964-1.6283 3.4804-1.6283 0.58649 0 1.1807 0.11576 0.60193 0.11575 1.2502 0.34726z" style=""/>
   <path id="path460" d="m381.96 358.44h2.5466v-8.7896l-2.7704 0.55562v-1.4199l2.755-0.55563h1.5588v10.21h2.5466v1.3119h-6.6366z" style=""/>
   <path id="path462" d="m395.09 349.26q-1.2038 0-1.8135 1.1884-0.60193 1.1807-0.60193 3.5575 0 2.3691 0.60193 3.5575 0.60964 1.1807 1.8135 1.1807 1.2116 0 1.8135-1.1807 0.60965-1.1884 0.60965-3.5575 0-2.3768-0.60965-3.5575-0.60192-1.1884-1.8135-1.1884zm0-1.2347q1.937 0 2.9556 1.5357 1.0264 1.528 1.0264 4.445 0 2.9093-1.0264 4.445-1.0186 1.528-2.9556 1.528-1.937 0-2.9633-1.528-1.0186-1.5357-1.0186-4.445 0-2.917 1.0186-4.445 1.0264-1.5357 2.9633-1.5357z" style=""/>
   <path id="path464" d="m405.15 349.26q-1.2038 0-1.8135 1.1884-0.60192 1.1807-0.60192 3.5575 0 2.3691 0.60192 3.5575 0.60965 1.1807 1.8135 1.1807 1.2116 0 1.8135-1.1807 0.60964-1.1884 0.60964-3.5575 0-2.3768-0.60964-3.5575-0.60192-1.1884-1.8135-1.1884zm0-1.2347q1.937 0 2.9556 1.5357 1.0264 1.528 1.0264 4.445 0 2.9093-1.0264 4.445-1.0186 1.528-2.9556 1.528-1.937 0-2.9633-1.528-1.0186-1.5357-1.0186-4.445 0-2.917 1.0186-4.445 1.0264-1.5357 2.9633-1.5357z" style=""/>
  </g>
  <g id="text122" fill="#7f7f7f" aria-label="M675">
   <path id="path467" d="m461.55 188.48h2.3228l2.9402 7.8405 2.9556-7.8405h2.3228v11.521h-1.5202v-10.117l-2.971 7.9022h-1.5666l-2.971-7.9022v10.117h-1.5125z" style=""/>
   <path id="path469" d="m478.86 193.62q-1.0495 0-1.6669 0.71768-0.60964 0.71768-0.60964 1.9678 0 1.2424 0.60964 1.9678 0.61736 0.71768 1.6669 0.71768t1.6592-0.71768q0.61736-0.72539 0.61736-1.9678 0-1.2502-0.61736-1.9678-0.60964-0.71768-1.6592-0.71768zm3.0945-4.8849v1.4199q-0.58649-0.27781-1.1884-0.42444-0.59421-0.14662-1.1807-0.14662-1.5434 0-2.3614 1.0418-0.81029 1.0418-0.92604 3.1485 0.4553-0.67138 1.1421-1.0264 0.68682-0.3627 1.5125-0.3627 1.7363 0 2.7395 1.0572 1.0109 1.0495 1.0109 2.863 0 1.7749-1.0495 2.8476t-2.7936 1.0727q-1.9987 0-3.0559-1.528-1.0572-1.5357-1.0572-4.445 0-2.7318 1.2965-4.3524 1.2964-1.6283 3.4804-1.6283 0.58649 0 1.1807 0.11576 0.60193 0.11575 1.2502 0.34726z" style=""/>
   <path id="path471" d="m461.3 208.23h7.4083v0.66366l-4.1826 10.858h-1.6283l3.9357-10.21h-5.5331z" style=""/>
   <path id="path473" d="m471.77 208.23h6.1196v1.3119h-4.6919v2.8244q0.33954-0.11575 0.67909-0.16977 0.33955-0.0617 0.6791-0.0617 1.9292 0 3.0559 1.0572 1.1267 1.0572 1.1267 2.863 0 1.8598-1.1576 2.8939-1.1576 1.0264-3.2643 1.0264-0.7254 0-1.4817-0.12347-0.74855-0.12347-1.5511-0.37042v-1.5666q0.69453 0.37814 1.4354 0.56334 0.74083 0.18521 1.5666 0.18521 1.335 0 2.1145-0.70225 0.77941-0.70224 0.77941-1.9061t-0.77941-1.9061q-0.77942-0.70225-2.1145-0.70225-0.62507 0-1.2502 0.13891-0.61736 0.13891-1.2656 0.43215z" style=""/>
  </g>
  <g id="text128" fill="#7f7f7f" aria-label="M765">
   <path id="path476" d="m361.55 128.48h2.3228l2.9402 7.8405 2.9556-7.8405h2.3228v11.521h-1.5202v-10.117l-2.971 7.9022h-1.5666l-2.971-7.9022v10.117h-1.5125z" style=""/>
   <path id="path478" d="m374.94 128.48h7.4083v0.66366l-4.1826 10.858h-1.6283l3.9357-10.21h-5.5331z" style=""/>
   <path id="path480" d="m365.22 153.37q-1.0495 0-1.6669 0.71768-0.60965 0.71768-0.60965 1.9678 0 1.2424 0.60965 1.9678 0.61736 0.71768 1.6669 0.71768t1.6592-0.71768q0.61736-0.7254 0.61736-1.9678 0-1.2502-0.61736-1.9678-0.60964-0.71768-1.6592-0.71768zm3.0945-4.8848v1.4199q-0.58649-0.27781-1.1884-0.42443-0.5942-0.14662-1.1807-0.14662-1.5434 0-2.3614 1.0418-0.81028 1.0418-0.92603 3.1485 0.4553-0.67137 1.1421-1.0264 0.68681-0.36269 1.5125-0.36269 1.7363 0 2.7395 1.0572 1.0109 1.0495 1.0109 2.863 0 1.7749-1.0495 2.8476t-2.7936 1.0727q-1.9987 0-3.0559-1.528-1.0572-1.5357-1.0572-4.445 0-2.7318 1.2964-4.3524 1.2965-1.6283 3.4804-1.6283 0.58649 0 1.1807 0.11575 0.60192 0.11576 1.2502 0.34727z" style=""/>
   <path id="path482" d="m371.77 148.23h6.1196v1.3119h-4.6919v2.8244q0.33954-0.11575 0.67909-0.16977 0.33955-0.0617 0.6791-0.0617 1.9292 0 3.0559 1.0572 1.1267 1.0572 1.1267 2.863 0 1.8598-1.1576 2.8939-1.1576 1.0264-3.2643 1.0264-0.7254 0-1.4817-0.12347-0.74855-0.12347-1.5511-0.37042v-1.5666q0.69453 0.37814 1.4354 0.56334 0.74083 0.18521 1.5666 0.18521 1.335 0 2.1145-0.70225 0.77941-0.70224 0.77941-1.9061t-0.77941-1.9061q-0.77942-0.70225-2.1145-0.70225-0.62507 0-1.2502 0.13891-0.61736 0.13891-1.2656 0.43215z" style=""/>
  </g>
  <g id="text134" fill="#7f7f7f" aria-label="848">
   <path id="path485" d="m265.02 274.53q-1.1112 0-1.7518 0.59421-0.63279 0.59421-0.63279 1.636 0 1.0418 0.63279 1.636 0.64052 0.5942 1.7518 0.5942 1.1112 0 1.7518-0.5942 0.64051-0.60193 0.64051-1.636 0-1.0418-0.64051-1.636-0.63279-0.59421-1.7518-0.59421zm-1.5588-0.66366q-1.0032-0.24694-1.5666-0.93376-0.55562-0.68681-0.55562-1.6746 0-1.3813 0.98005-2.1839 0.98778-0.80257 2.701-0.80257 1.7209 0 2.701 0.80257t0.98006 2.1839q0 0.98777-0.56334 1.6746-0.55563 0.68682-1.5511 0.93376 1.1267 0.26238 1.7518 1.0264 0.63279 0.76398 0.63279 1.8675 0 1.6746-1.0264 2.5698-1.0186 0.89517-2.9247 0.89517t-2.9325-0.89517q-1.0186-0.89517-1.0186-2.5698 0-1.1035 0.6328-1.8675 0.63279-0.76398 1.7595-1.0264zm-0.57106-2.4617q0 0.89517 0.55563 1.3968 0.56334 0.5016 1.5743 0.5016 1.0032 0 1.5666-0.5016 0.57106-0.50161 0.57106-1.3968t-0.57106-1.3968q-0.56334-0.5016-1.5666-0.5016-1.0109 0-1.5743 0.5016-0.55563 0.50161-0.55563 1.3968z" style=""/>
   <path id="path487" d="m265.97 289.59-3.9357 6.1504h3.9357zm-0.409-1.3582h1.9601v7.5086h1.6437v1.2964h-1.6437v2.7164h-1.5511v-2.7164h-5.2012v-1.5048z" style=""/>
   <path id="path489" d="m275.09 294.28q-1.1112 0-1.7518 0.59421-0.63279 0.59421-0.63279 1.636 0 1.0418 0.63279 1.636 0.64051 0.59421 1.7518 0.59421t1.7518-0.59421q0.64051-0.60193 0.64051-1.636 0-1.0418-0.64051-1.636-0.6328-0.59421-1.7518-0.59421zm-1.5588-0.66366q-1.0032-0.24694-1.5666-0.93375-0.55563-0.68682-0.55563-1.6746 0-1.3813 0.98006-2.1839 0.98778-0.80257 2.701-0.80257 1.7209 0 2.701 0.80257t0.98006 2.1839q0 0.98777-0.56335 1.6746-0.55562 0.68681-1.5511 0.93375 1.1267 0.26238 1.7518 1.0264 0.63279 0.76399 0.63279 1.8675 0 1.6746-1.0264 2.5698-1.0186 0.89517-2.9247 0.89517t-2.9325-0.89517q-1.0186-0.89517-1.0186-2.5698 0-1.1035 0.63279-1.8675 0.6328-0.76398 1.7595-1.0264zm-0.57106-2.4617q0 0.89517 0.55562 1.3968 0.56334 0.5016 1.5743 0.5016 1.0032 0 1.5666-0.5016 0.57106-0.50161 0.57106-1.3968t-0.57106-1.3968q-0.56334-0.50161-1.5666-0.50161-1.0109 0-1.5743 0.50161-0.55562 0.5016-0.55562 1.3968z" style=""/>
  </g>
  <g id="text140" fill="#7f7f7f" aria-label="5279">
   <path id="path492" d="m521.71 248.48h6.1196v1.3119h-4.6919v2.8244q0.33955-0.11576 0.67909-0.16978 0.33955-0.0617 0.6791-0.0617 1.9292 0 3.0559 1.0572 1.1267 1.0572 1.1267 2.863 0 1.8598-1.1576 2.8939-1.1576 1.0264-3.2643 1.0264-0.72539 0-1.4817-0.12347-0.74855-0.12347-1.5511-0.37041v-1.5666q0.69453 0.37813 1.4354 0.56334 0.74083 0.1852 1.5665 0.1852 1.335 0 2.1145-0.70224 0.77942-0.70225 0.77942-1.9061t-0.77942-1.9061q-0.77942-0.70224-2.1145-0.70224-0.62507 0-1.2502 0.1389-0.61736 0.13891-1.2656 0.43215z" style=""/>
   <path id="path494" d="m533.1 258.69h5.4405v1.3119h-7.3157v-1.3119q0.88745-0.91832 2.4154-2.4617 1.5357-1.5511 1.9292-1.9987 0.74855-0.84115 1.0418-1.4199 0.30096-0.58649 0.30096-1.1498 0-0.91832-0.64823-1.4971-0.64051-0.57877-1.6746-0.57877-0.73312 0-1.5511 0.25466-0.81028 0.25466-1.7363 0.7717v-1.5743q0.94147-0.37813 1.7595-0.57105 0.818-0.19293 1.4971-0.19293 1.7903 0 2.8553 0.89517 1.065 0.89517 1.065 2.3923 0 0.70996-0.2701 1.3505-0.26237 0.6328-0.96462 1.4971-0.19292 0.22379-1.227 1.2965-1.0341 1.0649-2.917 2.9865z" style=""/>
   <path id="path496" d="m521.3 268.23h7.4083v0.66366l-4.1826 10.858h-1.6283l3.9357-10.21h-5.5331z" style=""/>
   <path id="path498" d="m531.8 279.52v-1.4199q0.58649 0.27781 1.1884 0.42443 0.60192 0.14663 1.1807 0.14663 1.5434 0 2.3537-1.0341 0.818-1.0418 0.93376-3.1562-0.44759 0.66366-1.1344 1.0186t-1.5202 0.35498q-1.7286 0-2.7395-1.0418-1.0032-1.0495-1.0032-2.863 0-1.7749 1.0495-2.8476 1.0495-1.0727 2.7936-1.0727 1.9987 0 3.0482 1.5357 1.0572 1.528 1.0572 4.445 0 2.7241-1.2964 4.3524-1.2887 1.6206-3.4726 1.6206-0.58649 0-1.1884-0.11575-0.60192-0.11576-1.2502-0.34726zm3.1022-4.8849q1.0495 0 1.6592-0.71768 0.61735-0.71768 0.61735-1.9678 0-1.2424-0.61735-1.9601-0.60965-0.7254-1.6592-0.7254t-1.6669 0.7254q-0.60964 0.71768-0.60964 1.9601 0 1.2502 0.60964 1.9678 0.61736 0.71768 1.6669 0.71768z" style=""/>
  </g>
  <g id="text146" fill="#7f7f7f" aria-label="6253">
   <path id="path501" d="m385.22 233.62q-1.0495 0-1.6669 0.71768-0.60965 0.71768-0.60965 1.9678 0 1.2424 0.60965 1.9678 0.61736 0.71768 1.6669 0.71768t1.6592-0.71768q0.61736-0.72539 0.61736-1.9678 0-1.2502-0.61736-1.9678-0.60964-0.71768-1.6592-0.71768zm3.0945-4.8849v1.4199q-0.58649-0.27781-1.1884-0.42444-0.5942-0.14662-1.1807-0.14662-1.5434 0-2.3614 1.0418-0.81028 1.0418-0.92603 3.1485 0.4553-0.67138 1.1421-1.0264 0.68681-0.3627 1.5125-0.3627 1.7363 0 2.7395 1.0572 1.0109 1.0495 1.0109 2.863 0 1.7749-1.0495 2.8476t-2.7936 1.0727q-1.9987 0-3.0559-1.528-1.0572-1.5357-1.0572-4.445 0-2.7318 1.2964-4.3524 1.2965-1.6283 3.4804-1.6283 0.58649 0 1.1807 0.11576 0.60192 0.11575 1.2502 0.34726z" style=""/>
   <path id="path503" d="m393.1 238.69h5.4405v1.3119h-7.3157v-1.3119q0.88745-0.91832 2.4154-2.4617 1.5357-1.5511 1.9292-1.9987 0.74855-0.84115 1.0418-1.4199 0.30096-0.58649 0.30096-1.1498 0-0.91832-0.64823-1.4971-0.64051-0.57877-1.6746-0.57877-0.73312 0-1.5511 0.25466-0.81028 0.25466-1.7363 0.7717v-1.5743q0.94147-0.37813 1.7595-0.57105 0.818-0.19293 1.4971-0.19293 1.7903 0 2.8553 0.89517 1.065 0.89517 1.065 2.3923 0 0.70996-0.2701 1.3505-0.26237 0.6328-0.96462 1.4971-0.19292 0.22379-1.227 1.2965-1.0341 1.0649-2.917 2.9865z" style=""/>
   <path id="path505" d="m381.71 248.23h6.1196v1.3119h-4.6919v2.8244q0.33955-0.11575 0.67909-0.16977 0.33955-0.0617 0.6791-0.0617 1.9292 0 3.0559 1.0572t1.1267 2.863q0 1.8598-1.1576 2.8939-1.1576 1.0264-3.2643 1.0264-0.72539 0-1.4817-0.12347-0.74855-0.12347-1.5511-0.37041v-1.5666q0.69453 0.37813 1.4354 0.56334 0.74083 0.18521 1.5665 0.18521 1.335 0 2.1145-0.70225t0.77942-1.9061-0.77942-1.9061q-0.77942-0.70225-2.1145-0.70225-0.62507 0-1.2502 0.13891-0.61736 0.1389-1.2656 0.43215z" style=""/>
   <path id="path507" d="m396.48 253.54q1.119 0.23923 1.744 0.9955 0.63279 0.75626 0.63279 1.8675 0 1.7054-1.173 2.6392-1.173 0.93375-3.3337 0.93375-0.7254 0-1.4971-0.14662-0.76398-0.1389-1.582-0.42443v-1.5048q0.64823 0.37814 1.4199 0.57106 0.77169 0.19293 1.6128 0.19293 1.4662 0 2.2302-0.57878 0.7717-0.57877 0.7717-1.6823 0-1.0186-0.71768-1.5897-0.70997-0.57878-1.9833-0.57878h-1.3428v-1.281h1.4045q1.1498 0 1.7595-0.4553 0.60964-0.46302 0.60964-1.3273 0-0.88746-0.63279-1.3582-0.62508-0.47846-1.7981-0.47846-0.64051 0-1.3736 0.13891-0.73311 0.1389-1.6128 0.43215v-1.3891q0.88746-0.24694 1.6592-0.37041 0.77941-0.12348 1.4662-0.12348 1.7749 0 2.809 0.81029 1.0341 0.80256 1.0341 2.1762 0 0.95691-0.54791 1.6206-0.54791 0.65594-1.5588 0.9106z" style=""/>
  </g>
 </g>
</svg>
