<?xml version="1.0" encoding="UTF-8"?>
<svg id="svg291" width="16.638cm" height="16.887cm" version="1.1" viewBox="318 152 316.13 326.81" xmlns="http://www.w3.org/2000/svg" xmlns:cc="http://creativecommons.org/ns#" xmlns:dc="http://purl.org/dc/elements/1.1/" xmlns:rdf="http://www.w3.org/1999/02/22-rdf-syntax-ns#">
 <metadata id="metadata297">
  <rdf:RDF>
   <cc:Work rdf:about="">
    <dc:format>image/svg+xml</dc:format>
    <dc:type rdf:resource="http://purl.org/dc/dcmitype/StillImage"/>
   </cc:Work>
  </rdf:RDF>
 </metadata>
 <g id="Háttér" transform="translate(-3.9362 -2.1875)">
  <g id="g8">
   <path id="rect2" d="m320 180h40v40h-40z" fill="#fff" stroke="#000" stroke-width="2"/>
   <g id="text6" aria-label="3">
    <path id="path153" d="m341.12 198.87q0.90625 0.19375 1.4125 0.80625 0.5125 0.6125 0.5125 1.5125 0 1.3812-0.95 2.1375t-2.7 0.75625q-0.5875 0-1.2125-0.11875-0.61875-0.1125-1.2812-0.34375v-1.2188q0.525 0.30625 1.15 0.4625t1.3062 0.15625q1.1875 0 1.8062-0.46875 0.625-0.46875 0.625-1.3625 0-0.825-0.58125-1.2875-0.575-0.46875-1.6062-0.46875h-1.0875v-1.0375h1.1375q0.93125 0 1.425-0.36875 0.49375-0.375 0.49375-1.075 0-0.71875-0.5125-1.1-0.50625-0.3875-1.4562-0.3875-0.51875 0-1.1125 0.1125t-1.3062 0.35v-1.125q0.71875-0.2 1.3438-0.3 0.63125-0.1 1.1875-0.1 1.4375 0 2.275 0.65625 0.8375 0.65 0.8375 1.7625 0 0.775-0.44375 1.3125-0.44375 0.53125-1.2625 0.7375z" style=""/>
   </g>
  </g>
  <g id="g16">
   <path id="rect10" d="m360 180h40v40h-40z" fill="#fff" stroke="#000" stroke-width="2"/>
   <g id="text14" aria-label="9">
    <path id="path157" d="m377.33 203.71v-1.15q0.475 0.225 0.9625 0.34375t0.95625 0.11875q1.25 0 1.9062-0.8375 0.6625-0.84375 0.75625-2.5562-0.3625 0.5375-0.91875 0.825t-1.2312 0.2875q-1.4 0-2.2188-0.84375-0.8125-0.85-0.8125-2.3188 0-1.4375 0.85-2.3062t2.2625-0.86875q1.6188 0 2.4688 1.2438 0.85625 1.2375 0.85625 3.6 0 2.2062-1.05 3.525-1.0438 1.3125-2.8125 1.3125-0.475 0-0.9625-0.0937t-1.0125-0.28125zm2.5125-3.9562q0.85 0 1.3438-0.58125 0.5-0.58125 0.5-1.5938 0-1.0062-0.5-1.5875-0.49375-0.5875-1.3438-0.5875t-1.35 0.5875q-0.49375 0.58125-0.49375 1.5875 0 1.0125 0.49375 1.5938 0.5 0.58125 1.35 0.58125z" style=""/>
   </g>
  </g>
  <g id="g24">
   <path id="rect18" d="m400 180h40v40h-40z" fill="#fff" stroke="#000" stroke-width="2"/>
   <g id="text22" aria-label="2">
    <path id="path161" d="m418.38 202.84h4.4062v1.0625h-5.925v-1.0625q0.71875-0.74375 1.9562-1.9938 1.2438-1.2562 1.5625-1.6188 0.60625-0.68125 0.84375-1.15 0.24375-0.475 0.24375-0.93125 0-0.74375-0.525-1.2125-0.51875-0.46875-1.3562-0.46875-0.59375 0-1.2562 0.20625-0.65625 0.20625-1.4062 0.625v-1.275q0.7625-0.30625 1.425-0.4625t1.2125-0.15625q1.45 0 2.3125 0.725t0.8625 1.9375q0 0.575-0.21875 1.0938-0.2125 0.5125-0.78125 1.2125-0.15625 0.18125-0.99375 1.05-0.8375 0.8625-2.3625 2.4188z" style=""/>
   </g>
  </g>
  <g id="g32">
   <path id="rect26" d="m440 180h40v40h-40z" fill="#fff" stroke="#000" stroke-width="2"/>
   <g id="text30" aria-label="7">
    <path id="path165" d="m456.98 194.57h6v0.5375l-3.3875 8.7938h-1.3188l3.1875-8.2688h-4.4812z" style=""/>
   </g>
  </g>
  <g id="g40">
   <path id="rect34" d="m480 180h40v40h-40z" fill="#fff" stroke="#000" stroke-width="2"/>
   <g id="text38" aria-label="5">
    <path id="path169" d="m497.31 194.57h4.9562v1.0625h-3.8v2.2875q0.275-0.0937 0.55-0.1375 0.275-0.05 0.55-0.05 1.5625 0 2.475 0.85625t0.9125 2.3188q0 1.5062-0.9375 2.3438-0.9375 0.83125-2.6438 0.83125-0.5875 0-1.2-0.1-0.60625-0.1-1.2562-0.3v-1.2688q0.5625 0.30625 1.1625 0.45625t1.2688 0.15q1.0812 0 1.7125-0.56875t0.63125-1.5438-0.63125-1.5438-1.7125-0.56875q-0.50625 0-1.0125 0.1125-0.5 0.1125-1.025 0.35z" style=""/>
   </g>
  </g>
  <g id="g48">
   <path id="rect42" d="m520 180h40v40h-40z" fill="#fff" stroke="#000" stroke-width="2"/>
   <g id="text46" aria-label="1">
    <path id="path173" d="m537.51 202.84h2.0625v-7.1188l-2.2438 0.45v-1.15l2.2312-0.45h1.2625v8.2688h2.0625v1.0625h-5.375z" style=""/>
   </g>
  </g>
  <g id="g56">
   <path id="rect50" d="m560 180h40v40h-40z" fill="#fff" stroke="#000" stroke-width="2"/>
   <g id="text54" aria-label="4">
    <path id="path177" d="m580.76 195.67-3.1875 4.9812h3.1875zm-0.33125-1.1h1.5875v6.0812h1.3312v1.05h-1.3312v2.2h-1.2562v-2.2h-4.2125v-1.2188z" style=""/>
   </g>
  </g>
  <g id="g64">
   <path id="rect58" d="m600 180h40v40h-40z" fill="#fff" stroke="#000" stroke-width="2"/>
   <g id="text62" aria-label="8">
    <path id="path181" d="m619.99 199.47q-0.9 0-1.4188 0.48125-0.5125 0.48125-0.5125 1.325t0.5125 1.325q0.51875 0.48125 1.4188 0.48125t1.4188-0.48125q0.51875-0.4875 0.51875-1.325 0-0.84375-0.51875-1.325-0.5125-0.48125-1.4188-0.48125zm-1.2625-0.5375q-0.8125-0.2-1.2688-0.75625-0.45-0.55625-0.45-1.3562 0-1.1188 0.79375-1.7688 0.8-0.65 2.1875-0.65 1.3938 0 2.1875 0.65t0.79375 1.7688q0 0.8-0.45625 1.3562-0.45 0.55625-1.2562 0.75625 0.9125 0.2125 1.4188 0.83125 0.5125 0.61875 0.5125 1.5125 0 1.3562-0.83125 2.0812-0.825 0.725-2.3688 0.725t-2.375-0.725q-0.825-0.725-0.825-2.0812 0-0.89375 0.5125-1.5125t1.425-0.83125zm-0.4625-1.9938q0 0.725 0.45 1.1312 0.45625 0.40625 1.275 0.40625 0.8125 0 1.2688-0.40625 0.4625-0.40625 0.4625-1.1312t-0.4625-1.1312q-0.45625-0.40625-1.2688-0.40625-0.81875 0-1.275 0.40625-0.45 0.40625-0.45 1.1312z" style=""/>
   </g>
  </g>
  <g id="g72">
   <path id="rect66" d="m320 260h40v40h-40z" fill="#fff" stroke="#000" stroke-width="2"/>
   <g id="text70" aria-label="3">
    <path id="path185" d="m341.12 278.87q0.90625 0.19375 1.4125 0.80625 0.5125 0.6125 0.5125 1.5125 0 1.3812-0.95 2.1375t-2.7 0.75625q-0.5875 0-1.2125-0.11875-0.61875-0.1125-1.2812-0.34375v-1.2188q0.525 0.30625 1.15 0.4625t1.3062 0.15625q1.1875 0 1.8062-0.46875 0.625-0.46875 0.625-1.3625 0-0.825-0.58125-1.2875-0.575-0.46875-1.6062-0.46875h-1.0875v-1.0375h1.1375q0.93125 0 1.425-0.36875 0.49375-0.375 0.49375-1.075 0-0.71875-0.5125-1.1-0.50625-0.3875-1.4562-0.3875-0.51875 0-1.1125 0.1125t-1.3062 0.35v-1.125q0.71875-0.2 1.3438-0.3 0.63125-0.1 1.1875-0.1 1.4375 0 2.275 0.65625 0.8375 0.65 0.8375 1.7625 0 0.775-0.44375 1.3125-0.44375 0.53125-1.2625 0.7375z" style=""/>
   </g>
  </g>
  <g id="g80">
   <path id="rect74" d="m360 260h40v40h-40z" fill="#eb680e" stroke="#000" stroke-width="2"/>
   <g id="text78" aria-label="2">
    <path id="path189" d="m378.38 282.84h4.4062v1.0625h-5.925v-1.0625q0.71875-0.74375 1.9562-1.9938 1.2438-1.2562 1.5625-1.6188 0.60625-0.68125 0.84375-1.15 0.24375-0.475 0.24375-0.93125 0-0.74375-0.525-1.2125-0.51875-0.46875-1.3562-0.46875-0.59375 0-1.2562 0.20625-0.65625 0.20625-1.4062 0.625v-1.275q0.7625-0.30625 1.425-0.4625t1.2125-0.15625q1.45 0 2.3125 0.725t0.8625 1.9375q0 0.575-0.21875 1.0938-0.2125 0.5125-0.78125 1.2125-0.15625 0.18125-0.99375 1.05-0.8375 0.8625-2.3625 2.4188z" style=""/>
   </g>
  </g>
  <g id="g88">
   <path id="rect82" d="m400 260h40v40h-40z" fill="#eb680e" stroke="#000" stroke-width="2"/>
   <g id="text86" aria-label="9">
    <path id="path193" d="m417.33 283.71v-1.15q0.475 0.225 0.9625 0.34375t0.95625 0.11875q1.25 0 1.9062-0.8375 0.6625-0.84375 0.75625-2.5562-0.3625 0.5375-0.91875 0.825t-1.2312 0.2875q-1.4 0-2.2188-0.84375-0.8125-0.85-0.8125-2.3188 0-1.4375 0.85-2.3062t2.2625-0.86875q1.6188 0 2.4688 1.2438 0.85625 1.2375 0.85625 3.6 0 2.2062-1.05 3.525-1.0438 1.3125-2.8125 1.3125-0.475 0-0.9625-0.0937t-1.0125-0.28125zm2.5125-3.9562q0.85 0 1.3438-0.58125 0.5-0.58125 0.5-1.5938 0-1.0062-0.5-1.5875-0.49375-0.5875-1.3438-0.5875t-1.35 0.5875q-0.49375 0.58125-0.49375 1.5875 0 1.0125 0.49375 1.5938 0.5 0.58125 1.35 0.58125z" style=""/>
   </g>
  </g>
  <g id="g96">
   <path id="rect90" d="m440 260h40v40h-40z" fill="#fff" stroke="#000" stroke-width="2"/>
   <g id="text94" aria-label="7">
    <path id="path197" d="m456.98 274.57h6v0.5375l-3.3875 8.7938h-1.3188l3.1875-8.2688h-4.4812z" style=""/>
   </g>
  </g>
  <g id="g104">
   <path id="rect98" d="m480 260h40v40h-40z" fill="#fff" stroke="#000" stroke-width="2"/>
   <g id="text102" aria-label="5">
    <path id="path201" d="m497.31 274.57h4.9562v1.0625h-3.8v2.2875q0.275-0.0937 0.55-0.1375 0.275-0.05 0.55-0.05 1.5625 0 2.475 0.85625t0.9125 2.3188q0 1.5062-0.9375 2.3438-0.9375 0.83125-2.6438 0.83125-0.5875 0-1.2-0.1-0.60625-0.1-1.2562-0.3v-1.2688q0.5625 0.30625 1.1625 0.45625t1.2688 0.15q1.0812 0 1.7125-0.56875t0.63125-1.5438-0.63125-1.5438-1.7125-0.56875q-0.50625 0-1.0125 0.1125-0.5 0.1125-1.025 0.35z" style=""/>
   </g>
  </g>
  <g id="g112">
   <path id="rect106" d="m520 260h40v40h-40z" fill="#fff" stroke="#000" stroke-width="2"/>
   <g id="text110" aria-label="1">
    <path id="path205" d="m537.51 282.84h2.0625v-7.1188l-2.2438 0.45v-1.15l2.2312-0.45h1.2625v8.2688h2.0625v1.0625h-5.375z" style=""/>
   </g>
  </g>
  <g id="g120">
   <path id="rect114" d="m560 260h40v40h-40z" fill="#fff" stroke="#000" stroke-width="2"/>
   <g id="text118" aria-label="4">
    <path id="path209" d="m580.76 275.67-3.1875 4.9812h3.1875zm-0.33125-1.1h1.5875v6.0812h1.3312v1.05h-1.3312v2.2h-1.2562v-2.2h-4.2125v-1.2188z" style=""/>
   </g>
  </g>
  <g id="g128" stroke="#000" stroke-width="2">
   <path id="polyline122" d="m380 309.74v10.264h40v-10.264" fill="none"/>
   <path id="polygon124" d="m380 309.74-5 2.5 5-10 5 10z" fill-rule="evenodd"/>
   <path id="polygon126" d="m420 309.74-5 2.5 5-10 5 10z" fill-rule="evenodd"/>
  </g>
  <g id="g136">
   <path id="rect130" d="m600 260h40v40h-40z" fill="#fff" stroke="#000" stroke-width="2"/>
   <g id="text134" aria-label="8">
    <path id="path216" d="m619.99 279.47q-0.9 0-1.4188 0.48125-0.5125 0.48125-0.5125 1.325t0.5125 1.325q0.51875 0.48125 1.4188 0.48125t1.4188-0.48125q0.51875-0.4875 0.51875-1.325 0-0.84375-0.51875-1.325-0.5125-0.48125-1.4188-0.48125zm-1.2625-0.5375q-0.8125-0.2-1.2688-0.75625-0.45-0.55625-0.45-1.3562 0-1.1188 0.79375-1.7688 0.8-0.65 2.1875-0.65 1.3938 0 2.1875 0.65t0.79375 1.7688q0 0.8-0.45625 1.3562-0.45 0.55625-1.2562 0.75625 0.9125 0.2125 1.4188 0.83125 0.5125 0.61875 0.5125 1.5125 0 1.3562-0.83125 2.0812-0.825 0.725-2.3688 0.725t-2.375-0.725q-0.825-0.725-0.825-2.0812 0-0.89375 0.5125-1.5125t1.425-0.83125zm-0.4625-1.9938q0 0.725 0.45 1.1312 0.45625 0.40625 1.275 0.40625 0.8125 0 1.2688-0.40625 0.4625-0.40625 0.4625-1.1312t-0.4625-1.1312q-0.45625-0.40625-1.2688-0.40625-0.81875 0-1.275 0.40625-0.45 0.40625-0.45 1.1312z" style=""/>
   </g>
  </g>
  <g id="g144">
   <path id="rect138" d="m320 340h40v40h-40z" fill="#fff" stroke="#000" stroke-width="2"/>
   <g id="text142" aria-label="3">
    <path id="path220" d="m341.12 358.87q0.90625 0.19375 1.4125 0.80625 0.5125 0.6125 0.5125 1.5125 0 1.3812-0.95 2.1375t-2.7 0.75625q-0.5875 0-1.2125-0.11875-0.61875-0.1125-1.2812-0.34375v-1.2188q0.525 0.30625 1.15 0.4625t1.3062 0.15625q1.1875 0 1.8062-0.46875 0.625-0.46875 0.625-1.3625 0-0.825-0.58125-1.2875-0.575-0.46875-1.6062-0.46875h-1.0875v-1.0375h1.1375q0.93125 0 1.425-0.36875 0.49375-0.375 0.49375-1.075 0-0.71875-0.5125-1.1-0.50625-0.3875-1.4562-0.3875-0.51875 0-1.1125 0.1125t-1.3062 0.35v-1.125q0.71875-0.2 1.3438-0.3 0.63125-0.1 1.1875-0.1 1.4375 0 2.275 0.65625 0.8375 0.65 0.8375 1.7625 0 0.775-0.44375 1.3125-0.44375 0.53125-1.2625 0.7375z" style=""/>
   </g>
  </g>
  <g id="g152">
   <path id="rect146" d="m360 340h40v40h-40z" fill="#fff" stroke="#000" stroke-width="2"/>
   <g id="text150" aria-label="2">
    <path id="path224" d="m378.38 362.84h4.4062v1.0625h-5.925v-1.0625q0.71875-0.74375 1.9562-1.9938 1.2438-1.2562 1.5625-1.6188 0.60625-0.68125 0.84375-1.15 0.24375-0.475 0.24375-0.93125 0-0.74375-0.525-1.2125-0.51875-0.46875-1.3562-0.46875-0.59375 0-1.2562 0.20625-0.65625 0.20625-1.4062 0.625v-1.275q0.7625-0.30625 1.425-0.4625t1.2125-0.15625q1.45 0 2.3125 0.725t0.8625 1.9375q0 0.575-0.21875 1.0938-0.2125 0.5125-0.78125 1.2125-0.15625 0.18125-0.99375 1.05-0.8375 0.8625-2.3625 2.4188z" style=""/>
   </g>
  </g>
  <g id="g160">
   <path id="rect154" d="m400 340h40v40h-40z" fill="#eb680e" stroke="#000" stroke-width="2"/>
   <g id="text158" aria-label="7">
    <path id="path228" d="m416.98 354.57h6v0.5375l-3.3875 8.7938h-1.3188l3.1875-8.2688h-4.4812z" style=""/>
   </g>
  </g>
  <g id="g168">
   <path id="rect162" d="m440 340h40v40h-40z" fill="#eb680e" stroke="#000" stroke-width="2"/>
   <g id="text166" aria-label="9">
    <path id="path232" d="m457.33 363.71v-1.15q0.475 0.225 0.9625 0.34375t0.95625 0.11875q1.25 0 1.9062-0.8375 0.6625-0.84375 0.75625-2.5562-0.3625 0.5375-0.91875 0.825t-1.2312 0.2875q-1.4 0-2.2188-0.84375-0.8125-0.85-0.8125-2.3188 0-1.4375 0.85-2.3062t2.2625-0.86875q1.6188 0 2.4688 1.2438 0.85625 1.2375 0.85625 3.6 0 2.2062-1.05 3.525-1.0438 1.3125-2.8125 1.3125-0.475 0-0.9625-0.0937t-1.0125-0.28125zm2.5125-3.9562q0.85 0 1.3438-0.58125 0.5-0.58125 0.5-1.5938 0-1.0062-0.5-1.5875-0.49375-0.5875-1.3438-0.5875t-1.35 0.5875q-0.49375 0.58125-0.49375 1.5875 0 1.0125 0.49375 1.5938 0.5 0.58125 1.35 0.58125z" style=""/>
   </g>
  </g>
  <g id="g176">
   <path id="rect170" d="m480 340h40v40h-40z" fill="#fff" stroke="#000" stroke-width="2"/>
   <g id="text174" aria-label="5">
    <path id="path236" d="m497.31 354.57h4.9562v1.0625h-3.8v2.2875q0.275-0.0937 0.55-0.1375 0.275-0.05 0.55-0.05 1.5625 0 2.475 0.85625t0.9125 2.3188q0 1.5062-0.9375 2.3438-0.9375 0.83125-2.6438 0.83125-0.5875 0-1.2-0.1-0.60625-0.1-1.2562-0.3v-1.2688q0.5625 0.30625 1.1625 0.45625t1.2688 0.15q1.0812 0 1.7125-0.56875t0.63125-1.5438-0.63125-1.5438-1.7125-0.56875q-0.50625 0-1.0125 0.1125-0.5 0.1125-1.025 0.35z" style=""/>
   </g>
  </g>
  <g id="g184">
   <path id="rect178" d="m520 340h40v40h-40z" fill="#fff" stroke="#000" stroke-width="2"/>
   <g id="text182" aria-label="1">
    <path id="path240" d="m537.51 362.84h2.0625v-7.1188l-2.2438 0.45v-1.15l2.2312-0.45h1.2625v8.2688h2.0625v1.0625h-5.375z" style=""/>
   </g>
  </g>
  <g id="g192">
   <path id="rect186" d="m560 340h40v40h-40z" fill="#fff" stroke="#000" stroke-width="2"/>
   <g id="text190" aria-label="4">
    <path id="path244" d="m580.76 355.67-3.1875 4.9812h3.1875zm-0.33125-1.1h1.5875v6.0812h1.3312v1.05h-1.3312v2.2h-1.2562v-2.2h-4.2125v-1.2188z" style=""/>
   </g>
  </g>
  <g id="g200" stroke="#000" stroke-width="2">
   <path id="polyline194" d="m420 389.74v10.264h40v-10.264" fill="none"/>
   <path id="polygon196" d="m420 389.74-5 2.5 5-10 5 10z" fill-rule="evenodd"/>
   <path id="polygon198" d="m460 389.74-5 2.5 5-10 5 10z" fill-rule="evenodd"/>
  </g>
  <g id="g208">
   <path id="rect202" d="m600 340h40v40h-40z" fill="#fff" stroke="#000" stroke-width="2"/>
   <g id="text206" aria-label="8">
    <path id="path251" d="m619.99 359.47q-0.9 0-1.4188 0.48125-0.5125 0.48125-0.5125 1.325t0.5125 1.325q0.51875 0.48125 1.4188 0.48125t1.4188-0.48125q0.51875-0.4875 0.51875-1.325 0-0.84375-0.51875-1.325-0.5125-0.48125-1.4188-0.48125zm-1.2625-0.5375q-0.8125-0.2-1.2688-0.75625-0.45-0.55625-0.45-1.3562 0-1.1188 0.79375-1.7688 0.8-0.65 2.1875-0.65 1.3938 0 2.1875 0.65t0.79375 1.7688q0 0.8-0.45625 1.3562-0.45 0.55625-1.2562 0.75625 0.9125 0.2125 1.4188 0.83125 0.5125 0.61875 0.5125 1.5125 0 1.3562-0.83125 2.0812-0.825 0.725-2.3688 0.725t-2.375-0.725q-0.825-0.725-0.825-2.0812 0-0.89375 0.5125-1.5125t1.425-0.83125zm-0.4625-1.9938q0 0.725 0.45 1.1312 0.45625 0.40625 1.275 0.40625 0.8125 0 1.2688-0.40625 0.4625-0.40625 0.4625-1.1312t-0.4625-1.1312q-0.45625-0.40625-1.2688-0.40625-0.81875 0-1.275 0.40625-0.45 0.40625-0.45 1.1312z" style=""/>
   </g>
  </g>
  <g id="g216">
   <path id="rect210" d="m320 440h40v40h-40z" fill="#fff" stroke="#000" stroke-width="2"/>
   <g id="text214" aria-label="3">
    <path id="path255" d="m341.12 458.87q0.90625 0.19375 1.4125 0.80625 0.5125 0.6125 0.5125 1.5125 0 1.3812-0.95 2.1375t-2.7 0.75625q-0.5875 0-1.2125-0.11875-0.61875-0.1125-1.2812-0.34375v-1.2188q0.525 0.30625 1.15 0.4625t1.3062 0.15625q1.1875 0 1.8062-0.46875 0.625-0.46875 0.625-1.3625 0-0.825-0.58125-1.2875-0.575-0.46875-1.6062-0.46875h-1.0875v-1.0375h1.1375q0.93125 0 1.425-0.36875 0.49375-0.375 0.49375-1.075 0-0.71875-0.5125-1.1-0.50625-0.3875-1.4562-0.3875-0.51875 0-1.1125 0.1125t-1.3062 0.35v-1.125q0.71875-0.2 1.3438-0.3 0.63125-0.1 1.1875-0.1 1.4375 0 2.275 0.65625 0.8375 0.65 0.8375 1.7625 0 0.775-0.44375 1.3125-0.44375 0.53125-1.2625 0.7375z" style=""/>
   </g>
  </g>
  <g id="g224">
   <path id="rect218" d="m360 440h40v40h-40z" fill="#fff" stroke="#000" stroke-width="2"/>
   <g id="text222" aria-label="2">
    <path id="path259" d="m378.38 462.84h4.4062v1.0625h-5.925v-1.0625q0.71875-0.74375 1.9562-1.9938 1.2438-1.2562 1.5625-1.6188 0.60625-0.68125 0.84375-1.15 0.24375-0.475 0.24375-0.93125 0-0.74375-0.525-1.2125-0.51875-0.46875-1.3562-0.46875-0.59375 0-1.2562 0.20625-0.65625 0.20625-1.4062 0.625v-1.275q0.7625-0.30625 1.425-0.4625t1.2125-0.15625q1.45 0 2.3125 0.725t0.8625 1.9375q0 0.575-0.21875 1.0938-0.2125 0.5125-0.78125 1.2125-0.15625 0.18125-0.99375 1.05-0.8375 0.8625-2.3625 2.4188z" style=""/>
   </g>
  </g>
  <g id="g232">
   <path id="rect226" d="m400 440h40v40h-40z" fill="#fff" stroke="#000" stroke-width="2"/>
   <g id="text230" aria-label="7">
    <path id="path263" d="m416.98 454.57h6v0.5375l-3.3875 8.7938h-1.3188l3.1875-8.2688h-4.4812z" style=""/>
   </g>
  </g>
  <g id="g240">
   <path id="rect234" d="m440 440h40v40h-40z" fill="#fff" stroke="#000" stroke-width="2"/>
   <g id="text238" aria-label="5">
    <path id="path267" d="m457.31 454.57h4.9562v1.0625h-3.8v2.2875q0.275-0.0937 0.55-0.1375 0.275-0.05 0.55-0.05 1.5625 0 2.475 0.85625t0.9125 2.3188q0 1.5062-0.9375 2.3438-0.9375 0.83125-2.6438 0.83125-0.5875 0-1.2-0.1-0.60625-0.1-1.2562-0.3v-1.2688q0.5625 0.30625 1.1625 0.45625t1.2688 0.15q1.0812 0 1.7125-0.56875t0.63125-1.5438-0.63125-1.5438-1.7125-0.56875q-0.50625 0-1.0125 0.1125-0.5 0.1125-1.025 0.35z" style=""/>
   </g>
  </g>
  <g id="g248">
   <path id="rect242" d="m480 440h40v40h-40z" fill="#fff" stroke="#000" stroke-width="2"/>
   <g id="text246" aria-label="1">
    <path id="path271" d="m497.51 462.84h2.0625v-7.1188l-2.2438 0.45v-1.15l2.2312-0.45h1.2625v8.2688h2.0625v1.0625h-5.375z" style=""/>
   </g>
  </g>
  <g id="g256">
   <path id="rect250" d="m520 440h40v40h-40z" fill="#fff" stroke="#000" stroke-width="2"/>
   <g id="text254" aria-label="4">
    <path id="path275" d="m540.76 455.67-3.1875 4.9812h3.1875zm-0.33125-1.1h1.5875v6.0812h1.3312v1.05h-1.3312v2.2h-1.2562v-2.2h-4.2125v-1.2188z" style=""/>
   </g>
  </g>
  <g id="g264">
   <path id="rect258" d="m560 440h40v40h-40z" fill="#fff" stroke="#000" stroke-width="2"/>
   <g id="text262" aria-label="8">
    <path id="path279" d="m579.99 459.47q-0.9 0-1.4188 0.48125-0.5125 0.48125-0.5125 1.325t0.5125 1.325q0.51875 0.48125 1.4188 0.48125t1.4188-0.48125q0.51875-0.4875 0.51875-1.325 0-0.84375-0.51875-1.325-0.5125-0.48125-1.4188-0.48125zm-1.2625-0.5375q-0.8125-0.2-1.2688-0.75625-0.45-0.55625-0.45-1.3562 0-1.1188 0.79375-1.7688 0.8-0.65 2.1875-0.65 1.3938 0 2.1875 0.65t0.79375 1.7688q0 0.8-0.45625 1.3562-0.45 0.55625-1.2562 0.75625 0.9125 0.2125 1.4188 0.83125 0.5125 0.61875 0.5125 1.5125 0 1.3562-0.83125 2.0812-0.825 0.725-2.3688 0.725t-2.375-0.725q-0.825-0.725-0.825-2.0812 0-0.89375 0.5125-1.5125t1.425-0.83125zm-0.4625-1.9938q0 0.725 0.45 1.1312 0.45625 0.40625 1.275 0.40625 0.8125 0 1.2688-0.40625 0.4625-0.40625 0.4625-1.1312t-0.4625-1.1312q-0.45625-0.40625-1.2688-0.40625-0.81875 0-1.275 0.40625-0.45 0.40625-0.45 1.1312z" style=""/>
   </g>
  </g>
  <g id="g272">
   <path id="rect266" d="m600 440h40v40h-40z" fill="#379" stroke="#000" stroke-width="2"/>
   <g id="text270" aria-label="9">
    <path id="path283" d="m617.33 463.71v-1.15q0.475 0.225 0.9625 0.34375t0.95625 0.11875q1.25 0 1.9062-0.8375 0.6625-0.84375 0.75625-2.5562-0.3625 0.5375-0.91875 0.825t-1.2312 0.2875q-1.4 0-2.2188-0.84375-0.8125-0.85-0.8125-2.3188 0-1.4375 0.85-2.3062t2.2625-0.86875q1.6188 0 2.4688 1.2438 0.85625 1.2375 0.85625 3.6 0 2.2062-1.05 3.525-1.0438 1.3125-2.8125 1.3125-0.475 0-0.9625-0.0937t-1.0125-0.28125zm2.5125-3.9562q0.85 0 1.3438-0.58125 0.5-0.58125 0.5-1.5938 0-1.0062-0.5-1.5875-0.49375-0.5875-1.3438-0.5875t-1.35 0.5875q-0.49375 0.58125-0.49375 1.5875 0 1.0125 0.49375 1.5938 0.5 0.58125 1.35 0.58125z" style=""/>
   </g>
  </g>
  <g id="g280" fill="none" stroke="#000" stroke-width="2">
   <path id="polyline274" d="m340 224.47v15.528h40v-15.528" stroke-dasharray="4"/>
   <path id="polyline276" d="m345 232.24-5-10-5 10"/>
   <path id="polyline278" d="m385 232.24-5-10-5 10"/>
  </g>
  <g id="text284" aria-label="ezt folytatva... a legnagyobb a végére kerül">
   <path id="path289" d="m327.19 420.64v0.5625h-5.2875q0.075 1.1875 0.7125 1.8125 0.64375 0.61875 1.7875 0.61875 0.6625 0 1.2812-0.1625 0.625-0.1625 1.2375-0.4875v1.0875q-0.61875 0.2625-1.2688 0.4t-1.3188 0.1375q-1.675 0-2.6562-0.975-0.975-0.975-0.975-2.6375 0-1.7188 0.925-2.725 0.93125-1.0125 2.5062-1.0125 1.4125 0 2.2312 0.9125 0.825 0.90625 0.825 2.4688zm-1.15-0.3375q-0.0125-0.94375-0.53125-1.5062-0.5125-0.5625-1.3625-0.5625-0.9625 0-1.5438 0.54375-0.575 0.54375-0.6625 1.5312z" style=""/>
   <path id="path291" d="m328.58 417.42h5.4625v1.05l-4.325 5.0312h4.325v0.91875h-5.6188v-1.05l4.325-5.0312h-4.1688z" style=""/>
   <path id="path293" d="m336.94 415.44v1.9875h2.3688v0.89375h-2.3688v3.8q0 0.85625 0.23125 1.1 0.2375 0.24375 0.95625 0.24375h1.1812v0.9625h-1.1812q-1.3312 0-1.8375-0.49375-0.50625-0.5-0.50625-1.8125v-3.8h-0.84375v-0.89375h0.84375v-1.9875z" style=""/>
   <path id="path295" d="m348.45 414.7v0.95625h-1.1q-0.61875 0-0.8625 0.25-0.2375 0.25-0.2375 0.9v0.61875h1.8938v0.89375h-1.8938v6.1062h-1.1562v-6.1062h-1.1v-0.89375h1.1v-0.4875q0-1.1688 0.54375-1.7 0.54375-0.5375 1.725-0.5375z" style=""/>
   <path id="path297" d="m352.12 418.23q-0.925 0-1.4625 0.725-0.5375 0.71875-0.5375 1.975t0.53125 1.9812q0.5375 0.71875 1.4688 0.71875 0.91875 0 1.4562-0.725t0.5375-1.975q0-1.2438-0.5375-1.9688-0.5375-0.73125-1.4562-0.73125zm0-0.975q1.5 0 2.3562 0.975t0.85625 2.7q0 1.7188-0.85625 2.7-0.85625 0.975-2.3562 0.975-1.5062 0-2.3625-0.975-0.85-0.98125-0.85-2.7 0-1.725 0.85-2.7 0.85625-0.975 2.3625-0.975z" style=""/>
   <path id="path299" d="m357.23 414.7h1.15v9.725h-1.15z" style=""/>
   <path id="path301" d="m363.69 425.07q-0.4875 1.25-0.95 1.6312t-1.2375 0.38125h-0.91875v-0.9625h0.675q0.475 0 0.7375-0.225t0.58125-1.0625l0.20625-0.525-2.8312-6.8875h1.2188l2.1875 5.475 2.1875-5.475h1.2188z" style=""/>
   <path id="path303" d="m369.49 415.44v1.9875h2.3688v0.89375h-2.3688v3.8q0 0.85625 0.23125 1.1 0.2375 0.24375 0.95625 0.24375h1.1812v0.9625h-1.1812q-1.3312 0-1.8375-0.49375-0.50625-0.5-0.50625-1.8125v-3.8h-0.84375v-0.89375h0.84375v-1.9875z" style=""/>
   <path id="path305" d="m376.56 420.91q-1.3938 0-1.9312 0.31875t-0.5375 1.0875q0 0.6125 0.4 0.975 0.40625 0.35625 1.1 0.35625 0.95625 0 1.5312-0.675 0.58125-0.68125 0.58125-1.8062v-0.25625zm2.2938-0.475v3.9938h-1.15v-1.0625q-0.39375 0.6375-0.98125 0.94375-0.5875 0.3-1.4375 0.3-1.075 0-1.7125-0.6-0.63125-0.60625-0.63125-1.6188 0-1.1812 0.7875-1.7812 0.79375-0.6 2.3625-0.6h1.6125v-0.1125q0-0.79375-0.525-1.225-0.51875-0.4375-1.4625-0.4375-0.6 0-1.1688 0.14375t-1.0938 0.43125v-1.0625q0.63125-0.24375 1.225-0.3625 0.59375-0.125 1.1562-0.125 1.5188 0 2.2688 0.7875t0.75 2.3875z" style=""/>
   <path id="path307" d="m382.37 415.44v1.9875h2.3688v0.89375h-2.3688v3.8q0 0.85625 0.23125 1.1 0.2375 0.24375 0.95625 0.24375h1.1812v0.9625h-1.1812q-1.3312 0-1.8375-0.49375-0.50625-0.5-0.50625-1.8125v-3.8h-0.84375v-0.89375h0.84375v-1.9875z" style=""/>
   <path id="path309" d="m385.43 417.42h1.2188l2.1875 5.875 2.1875-5.875h1.2188l-2.625 7h-1.5625z" style=""/>
   <path id="path311" d="m397.01 420.91q-1.3938 0-1.9312 0.31875t-0.5375 1.0875q0 0.6125 0.4 0.975 0.40625 0.35625 1.1 0.35625 0.95625 0 1.5312-0.675 0.58125-0.68125 0.58125-1.8062v-0.25625zm2.2938-0.475v3.9938h-1.15v-1.0625q-0.39375 0.6375-0.98125 0.94375-0.5875 0.3-1.4375 0.3-1.075 0-1.7125-0.6-0.63125-0.60625-0.63125-1.6188 0-1.1812 0.7875-1.7812 0.79375-0.6 2.3625-0.6h1.6125v-0.1125q0-0.79375-0.525-1.225-0.51875-0.4375-1.4625-0.4375-0.6 0-1.1688 0.14375t-1.0938 0.43125v-1.0625q0.63125-0.24375 1.225-0.3625 0.59375-0.125 1.1562-0.125 1.5188 0 2.2688 0.7875t0.75 2.3875z" style=""/>
   <path id="path313" d="m401.84 422.84h1.3188v1.5875h-1.3188z" style=""/>
   <path id="path315" d="m405.92 422.84h1.3188v1.5875h-1.3188z" style=""/>
   <path id="path317" d="m409.99 422.84h1.3188v1.5875h-1.3188z" style=""/>
   <path id="path319" d="m421.16 420.91q-1.3938 0-1.9312 0.31875t-0.5375 1.0875q0 0.6125 0.4 0.975 0.40625 0.35625 1.1 0.35625 0.95625 0 1.5312-0.675 0.58125-0.68125 0.58125-1.8062v-0.25625zm2.2938-0.475v3.9938h-1.15v-1.0625q-0.39375 0.6375-0.98125 0.94375-0.5875 0.3-1.4375 0.3-1.075 0-1.7125-0.6-0.63125-0.60625-0.63125-1.6188 0-1.1812 0.7875-1.7812 0.79375-0.6 2.3625-0.6h1.6125v-0.1125q0-0.79375-0.525-1.225-0.51875-0.4375-1.4625-0.4375-0.6 0-1.1688 0.14375t-1.0938 0.43125v-1.0625q0.63125-0.24375 1.225-0.3625 0.59375-0.125 1.1562-0.125 1.5188 0 2.2688 0.7875t0.75 2.3875z" style=""/>
   <path id="path321" d="m429.91 414.7h1.15v9.725h-1.15z" style=""/>
   <path id="path323" d="m439.44 420.64v0.5625h-5.2875q0.075 1.1875 0.7125 1.8125 0.64375 0.61875 1.7875 0.61875 0.6625 0 1.2812-0.1625 0.625-0.1625 1.2375-0.4875v1.0875q-0.61875 0.2625-1.2688 0.4t-1.3188 0.1375q-1.675 0-2.6562-0.975-0.975-0.975-0.975-2.6375 0-1.7188 0.925-2.725 0.93125-1.0125 2.5062-1.0125 1.4125 0 2.2312 0.9125 0.825 0.90625 0.825 2.4688zm-1.15-0.3375q-0.0125-0.94375-0.53125-1.5062-0.5125-0.5625-1.3625-0.5625-0.9625 0-1.5438 0.54375-0.575 0.54375-0.6625 1.5312z" style=""/>
   <path id="path325" d="m445.94 420.84q0-1.25-0.51875-1.9375-0.5125-0.6875-1.4438-0.6875-0.925 0-1.4438 0.6875-0.5125 0.6875-0.5125 1.9375 0 1.2438 0.5125 1.9312 0.51875 0.6875 1.4438 0.6875 0.93125 0 1.4438-0.6875 0.51875-0.6875 0.51875-1.9312zm1.15 2.7125q0 1.7875-0.79375 2.6562-0.79375 0.875-2.4312 0.875-0.60625 0-1.1438-0.0937-0.5375-0.0875-1.0438-0.275v-1.1188q0.50625 0.275 1 0.40625t1.0062 0.13125q1.1312 0 1.6938-0.59375 0.5625-0.5875 0.5625-1.7812v-0.56875q-0.35625 0.61875-0.9125 0.925t-1.3312 0.30625q-1.2875 0-2.075-0.98125t-0.7875-2.6q0-1.625 0.7875-2.6062t2.075-0.98125q0.775 0 1.3312 0.30625t0.9125 0.925v-1.0625h1.15z" style=""/>
   <path id="path327" d="m455.28 420.2v4.225h-1.15v-4.1875q0-0.99375-0.3875-1.4875t-1.1625-0.49375q-0.93125 0-1.4688 0.59375t-0.5375 1.6188v3.9562h-1.1562v-7h1.1562v1.0875q0.4125-0.63125 0.96875-0.94375 0.5625-0.3125 1.2938-0.3125 1.2062 0 1.825 0.75 0.61875 0.74375 0.61875 2.1938z" style=""/>
   <path id="path329" d="m460.76 420.91q-1.3938 0-1.9312 0.31875t-0.5375 1.0875q0 0.6125 0.4 0.975 0.40625 0.35625 1.1 0.35625 0.95625 0 1.5312-0.675 0.58125-0.68125 0.58125-1.8062v-0.25625zm2.2938-0.475v3.9938h-1.15v-1.0625q-0.39375 0.6375-0.98125 0.94375-0.5875 0.3-1.4375 0.3-1.075 0-1.7125-0.6-0.63125-0.60625-0.63125-1.6188 0-1.1812 0.7875-1.7812 0.79375-0.6 2.3625-0.6h1.6125v-0.1125q0-0.79375-0.525-1.225-0.51875-0.4375-1.4625-0.4375-0.6 0-1.1688 0.14375t-1.0938 0.43125v-1.0625q0.63125-0.24375 1.225-0.3625 0.59375-0.125 1.1562-0.125 1.5188 0 2.2688 0.7875t0.75 2.3875z" style=""/>
   <path id="path331" d="m470.04 420.84q0-1.25-0.51875-1.9375-0.5125-0.6875-1.4438-0.6875-0.925 0-1.4438 0.6875-0.5125 0.6875-0.5125 1.9375 0 1.2438 0.5125 1.9312 0.51875 0.6875 1.4438 0.6875 0.93125 0 1.4438-0.6875 0.51875-0.6875 0.51875-1.9312zm1.15 2.7125q0 1.7875-0.79375 2.6562-0.79375 0.875-2.4312 0.875-0.60625 0-1.1438-0.0937-0.5375-0.0875-1.0438-0.275v-1.1188q0.50625 0.275 1 0.40625t1.0062 0.13125q1.1312 0 1.6938-0.59375 0.5625-0.5875 0.5625-1.7812v-0.56875q-0.35625 0.61875-0.9125 0.925t-1.3312 0.30625q-1.2875 0-2.075-0.98125t-0.7875-2.6q0-1.625 0.7875-2.6062t2.075-0.98125q0.775 0 1.3312 0.30625t0.9125 0.925v-1.0625h1.15z" style=""/>
   <path id="path333" d="m476.47 425.07q-0.4875 1.25-0.95 1.6312t-1.2375 0.38125h-0.91875v-0.9625h0.675q0.475 0 0.7375-0.225t0.58125-1.0625l0.20625-0.525-2.8312-6.8875h1.2188l2.1875 5.475 2.1875-5.475h1.2188z" style=""/>
   <path id="path335" d="m483.84 418.23q-0.925 0-1.4625 0.725-0.5375 0.71875-0.5375 1.975t0.53125 1.9812q0.5375 0.71875 1.4688 0.71875 0.91875 0 1.4562-0.725t0.5375-1.975q0-1.2438-0.5375-1.9688-0.5375-0.73125-1.4562-0.73125zm0-0.975q1.5 0 2.3562 0.975t0.85625 2.7q0 1.7188-0.85625 2.7-0.85625 0.975-2.3562 0.975-1.5062 0-2.3625-0.975-0.85-0.98125-0.85-2.7 0-1.725 0.85-2.7 0.85625-0.975 2.3625-0.975z" style=""/>
   <path id="path337" d="m493.98 420.93q0-1.2688-0.525-1.9875-0.51875-0.725-1.4312-0.725t-1.4375 0.725q-0.51875 0.71875-0.51875 1.9875t0.51875 1.9938q0.525 0.71875 1.4375 0.71875t1.4312-0.71875q0.525-0.725 0.525-1.9938zm-3.9125-2.4438q0.3625-0.625 0.9125-0.925 0.55625-0.30625 1.325-0.30625 1.275 0 2.0688 1.0125 0.8 1.0125 0.8 2.6625t-0.8 2.6625q-0.79375 1.0125-2.0688 1.0125-0.76875 0-1.325-0.3-0.55-0.30625-0.9125-0.93125v1.05h-1.1562v-9.725h1.1562z" style=""/>
   <path id="path339" d="m502.11 420.93q0-1.2688-0.525-1.9875-0.51875-0.725-1.4312-0.725t-1.4375 0.725q-0.51875 0.71875-0.51875 1.9875t0.51875 1.9938q0.525 0.71875 1.4375 0.71875t1.4312-0.71875q0.525-0.725 0.525-1.9938zm-3.9125-2.4438q0.3625-0.625 0.9125-0.925 0.55625-0.30625 1.325-0.30625 1.275 0 2.0688 1.0125 0.8 1.0125 0.8 2.6625t-0.8 2.6625q-0.79375 1.0125-2.0688 1.0125-0.76875 0-1.325-0.3-0.55-0.30625-0.9125-0.93125v1.05h-1.1562v-9.725h1.1562z" style=""/>
   <path id="path341" d="m512.46 420.91q-1.3938 0-1.9312 0.31875t-0.5375 1.0875q0 0.6125 0.4 0.975 0.40625 0.35625 1.1 0.35625 0.95625 0 1.5312-0.675 0.58125-0.68125 0.58125-1.8062v-0.25625zm2.2938-0.475v3.9938h-1.15v-1.0625q-0.39375 0.6375-0.98125 0.94375-0.5875 0.3-1.4375 0.3-1.075 0-1.7125-0.6-0.63125-0.60625-0.63125-1.6188 0-1.1812 0.7875-1.7812 0.79375-0.6 2.3625-0.6h1.6125v-0.1125q0-0.79375-0.525-1.225-0.51875-0.4375-1.4625-0.4375-0.6 0-1.1688 0.14375t-1.0938 0.43125v-1.0625q0.63125-0.24375 1.225-0.3625 0.59375-0.125 1.1562-0.125 1.5188 0 2.2688 0.7875t0.75 2.3875z" style=""/>
   <path id="path343" d="m520.38 417.42h1.2188l2.1875 5.875 2.1875-5.875h1.2188l-2.625 7h-1.5625z" style=""/>
   <path id="path345" d="m534.77 420.64v0.5625h-5.2875q0.075 1.1875 0.7125 1.8125 0.64375 0.61875 1.7875 0.61875 0.6625 0 1.2812-0.1625 0.625-0.1625 1.2375-0.4875v1.0875q-0.61875 0.2625-1.2688 0.4t-1.3188 0.1375q-1.675 0-2.6562-0.975-0.975-0.975-0.975-2.6375 0-1.7188 0.925-2.725 0.93125-1.0125 2.5062-1.0125 1.4125 0 2.2312 0.9125 0.825 0.90625 0.825 2.4688zm-1.15-0.3375q-0.0125-0.94375-0.53125-1.5062-0.5125-0.5625-1.3625-0.5625-0.9625 0-1.5438 0.54375-0.575 0.54375-0.6625 1.5312zm-1.1062-6.1125h1.2438l-2.0375 2.35h-0.95625z" style=""/>
   <path id="path347" d="m541.26 420.84q0-1.25-0.51875-1.9375-0.5125-0.6875-1.4438-0.6875-0.925 0-1.4438 0.6875-0.5125 0.6875-0.5125 1.9375 0 1.2438 0.5125 1.9312 0.51875 0.6875 1.4438 0.6875 0.93125 0 1.4438-0.6875 0.51875-0.6875 0.51875-1.9312zm1.15 2.7125q0 1.7875-0.79375 2.6562-0.79375 0.875-2.4312 0.875-0.60625 0-1.1438-0.0937-0.5375-0.0875-1.0438-0.275v-1.1188q0.50625 0.275 1 0.40625t1.0062 0.13125q1.1312 0 1.6938-0.59375 0.5625-0.5875 0.5625-1.7812v-0.56875q-0.35625 0.61875-0.9125 0.925t-1.3312 0.30625q-1.2875 0-2.075-0.98125t-0.7875-2.6q0-1.625 0.7875-2.6062t2.075-0.98125q0.775 0 1.3312 0.30625t0.9125 0.925v-1.0625h1.15z" style=""/>
   <path id="path349" d="m550.77 420.64v0.5625h-5.2875q0.075 1.1875 0.7125 1.8125 0.64375 0.61875 1.7875 0.61875 0.6625 0 1.2812-0.1625 0.625-0.1625 1.2375-0.4875v1.0875q-0.61875 0.2625-1.2688 0.4t-1.3188 0.1375q-1.675 0-2.6562-0.975-0.975-0.975-0.975-2.6375 0-1.7188 0.925-2.725 0.93125-1.0125 2.5062-1.0125 1.4125 0 2.2312 0.9125 0.825 0.90625 0.825 2.4688zm-1.15-0.3375q-0.0125-0.94375-0.53125-1.5062-0.5125-0.5625-1.3625-0.5625-0.9625 0-1.5438 0.54375-0.575 0.54375-0.6625 1.5312zm-1.1062-6.1125h1.2438l-2.0375 2.35h-0.95625z" style=""/>
   <path id="path351" d="m556.71 418.5q-0.19375-0.1125-0.425-0.1625-0.225-0.0562-0.5-0.0562-0.975 0-1.5 0.6375-0.51875 0.63125-0.51875 1.8188v3.6875h-1.1562v-7h1.1562v1.0875q0.3625-0.6375 0.94375-0.94375 0.58125-0.3125 1.4125-0.3125 0.11875 0 0.2625 0.0188 0.14375 0.0125 0.31875 0.0437z" style=""/>
   <path id="path353" d="m563.64 420.64v0.5625h-5.2875q0.075 1.1875 0.7125 1.8125 0.64375 0.61875 1.7875 0.61875 0.6625 0 1.2812-0.1625 0.625-0.1625 1.2375-0.4875v1.0875q-0.61875 0.2625-1.2688 0.4t-1.3188 0.1375q-1.675 0-2.6562-0.975-0.975-0.975-0.975-2.6375 0-1.7188 0.925-2.725 0.93125-1.0125 2.5062-1.0125 1.4125 0 2.2312 0.9125 0.825 0.90625 0.825 2.4688zm-1.15-0.3375q-0.0125-0.94375-0.53125-1.5062-0.5125-0.5625-1.3625-0.5625-0.9625 0-1.5438 0.54375-0.575 0.54375-0.6625 1.5312z" style=""/>
   <path id="path355" d="m569.56 414.7h1.1562v5.7438l3.4312-3.0188h1.4688l-3.7125 3.275 3.8688 3.725h-1.5l-3.5562-3.4188v3.4188h-1.1562z" style=""/>
   <path id="path357" d="m582.57 420.64v0.5625h-5.2875q0.075 1.1875 0.7125 1.8125 0.64375 0.61875 1.7875 0.61875 0.6625 0 1.2812-0.1625 0.625-0.1625 1.2375-0.4875v1.0875q-0.61875 0.2625-1.2688 0.4t-1.3188 0.1375q-1.675 0-2.6562-0.975-0.975-0.975-0.975-2.6375 0-1.7188 0.925-2.725 0.93125-1.0125 2.5062-1.0125 1.4125 0 2.2312 0.9125 0.825 0.90625 0.825 2.4688zm-1.15-0.3375q-0.0125-0.94375-0.53125-1.5062-0.5125-0.5625-1.3625-0.5625-0.9625 0-1.5438 0.54375-0.575 0.54375-0.6625 1.5312z" style=""/>
   <path id="path359" d="m588.51 418.5q-0.19375-0.1125-0.425-0.1625-0.225-0.0562-0.5-0.0562-0.975 0-1.5 0.6375-0.51875 0.63125-0.51875 1.8188v3.6875h-1.1562v-7h1.1562v1.0875q0.3625-0.6375 0.94375-0.94375 0.58125-0.3125 1.4125-0.3125 0.11875 0 0.2625 0.0188 0.14375 0.0125 0.31875 0.0437z" style=""/>
   <path id="path361" d="m589.61 421.66v-4.2375h1.15v4.1938q0 0.99375 0.3875 1.4938 0.3875 0.49375 1.1625 0.49375 0.93125 0 1.4688-0.59375 0.54375-0.59375 0.54375-1.6188v-3.9688h1.15v7h-1.15v-1.075q-0.41875 0.6375-0.975 0.95-0.55 0.30625-1.2812 0.30625-1.2062 0-1.8312-0.75t-0.625-2.1938zm2.8938-4.4062zm0.575-2.5312h1.2688v1.2625h-1.2688zm-2.4438 0h1.2688v1.2625h-1.2688z" style=""/>
   <path id="path363" d="m597.86 414.7h1.15v9.725h-1.15z" style=""/>
  </g>
  <g id="text288" aria-label="egymás mellettieket cserélünk, ha kell">
   <path id="path366" d="m327.19 160.64v0.5625h-5.2875q0.075 1.1875 0.7125 1.8125 0.64375 0.61875 1.7875 0.61875 0.6625 0 1.2812-0.1625 0.625-0.1625 1.2375-0.4875v1.0875q-0.61875 0.2625-1.2688 0.4t-1.3188 0.1375q-1.675 0-2.6562-0.975-0.975-0.975-0.975-2.6375 0-1.7188 0.925-2.725 0.93125-1.0125 2.5062-1.0125 1.4125 0 2.2312 0.9125 0.825 0.90625 0.825 2.4688zm-1.15-0.3375q-0.0125-0.94375-0.53125-1.5062-0.5125-0.5625-1.3625-0.5625-0.9625 0-1.5438 0.54375-0.575 0.54375-0.6625 1.5312z" style=""/>
   <path id="path368" d="m333.69 160.84q0-1.25-0.51875-1.9375-0.5125-0.6875-1.4438-0.6875-0.925 0-1.4438 0.6875-0.5125 0.6875-0.5125 1.9375 0 1.2438 0.5125 1.9312 0.51875 0.6875 1.4438 0.6875 0.93125 0 1.4438-0.6875 0.51875-0.6875 0.51875-1.9312zm1.15 2.7125q0 1.7875-0.79375 2.6562-0.79375 0.875-2.4312 0.875-0.60625 0-1.1438-0.0937-0.5375-0.0875-1.0438-0.275v-1.1188q0.50625 0.275 1 0.40625t1.0062 0.13125q1.1312 0 1.6938-0.59375 0.5625-0.5875 0.5625-1.7812v-0.56875q-0.35625 0.61875-0.9125 0.925t-1.3312 0.30625q-1.2875 0-2.075-0.98125t-0.7875-2.6q0-1.625 0.7875-2.6062t2.075-0.98125q0.775 0 1.3312 0.30625t0.9125 0.925v-1.0625h1.15z" style=""/>
   <path id="path370" d="m340.12 165.08q-0.4875 1.25-0.95 1.6312t-1.2375 0.38125h-0.91875v-0.9625h0.675q0.475 0 0.7375-0.225t0.58125-1.0625l0.20625-0.525-2.8312-6.8875h1.2188l2.1875 5.475 2.1875-5.475h1.2188z" style=""/>
   <path id="path372" d="m350.23 158.77q0.43125-0.775 1.0312-1.1438t1.4125-0.36875q1.0938 0 1.6875 0.76875 0.59375 0.7625 0.59375 2.175v4.225h-1.1562v-4.1875q0-1.0062-0.35625-1.4938t-1.0875-0.4875q-0.89375 0-1.4125 0.59375t-0.51875 1.6188v3.9562h-1.1562v-4.1875q0-1.0125-0.35625-1.4938-0.35625-0.4875-1.1-0.4875-0.88125 0-1.4 0.6-0.51875 0.59375-0.51875 1.6125v3.9562h-1.1562v-7h1.1562v1.0875q0.39375-0.64375 0.94375-0.95t1.3062-0.30625q0.7625 0 1.2938 0.3875 0.5375 0.3875 0.79375 1.125z" style=""/>
   <path id="path374" d="m360.44 160.91q-1.3938 0-1.9312 0.31875t-0.5375 1.0875q0 0.6125 0.4 0.975 0.40625 0.35625 1.1 0.35625 0.95625 0 1.5312-0.675 0.58125-0.68125 0.58125-1.8062v-0.25625zm2.2938-0.475v3.9938h-1.15v-1.0625q-0.39375 0.6375-0.98125 0.94375-0.5875 0.3-1.4375 0.3-1.075 0-1.7125-0.6-0.63125-0.60625-0.63125-1.6188 0-1.1812 0.7875-1.7812 0.79375-0.6 2.3625-0.6h1.6125v-0.1125q0-0.79375-0.525-1.225-0.51875-0.4375-1.4625-0.4375-0.6 0-1.1688 0.14375t-1.0938 0.43125v-1.0625q0.63125-0.24375 1.225-0.3625 0.59375-0.125 1.1562-0.125 1.5188 0 2.2688 0.7875t0.75 2.3875zm-2.1-6.2438h1.2438l-2.0375 2.35h-0.95625z" style=""/>
   <path id="path376" d="m369.57 157.63v1.0875q-0.4875-0.25-1.0125-0.375t-1.0875-0.125q-0.85625 0-1.2875 0.2625-0.425 0.2625-0.425 0.7875 0 0.4 0.30625 0.63125 0.30625 0.225 1.2312 0.43125l0.39375 0.0875q1.225 0.2625 1.7375 0.74375 0.51875 0.475 0.51875 1.3312 0 0.975-0.775 1.5438-0.76875 0.56875-2.1188 0.56875-0.5625 0-1.175-0.1125-0.60625-0.10625-1.2812-0.325v-1.1875q0.6375 0.33125 1.2562 0.5 0.61875 0.1625 1.225 0.1625 0.8125 0 1.25-0.275 0.4375-0.28125 0.4375-0.7875 0-0.46875-0.31875-0.71875-0.3125-0.25-1.3812-0.48125l-0.4-0.0937q-1.0688-0.225-1.5438-0.6875-0.475-0.46875-0.475-1.2812 0-0.9875 0.7-1.525t1.9875-0.5375q0.6375 0 1.2 0.0937t1.0375 0.28125z" style=""/>
   <path id="path378" d="m381.31 158.77q0.43125-0.775 1.0312-1.1438t1.4125-0.36875q1.0938 0 1.6875 0.76875 0.59375 0.7625 0.59375 2.175v4.225h-1.1562v-4.1875q0-1.0062-0.35625-1.4938t-1.0875-0.4875q-0.89375 0-1.4125 0.59375t-0.51875 1.6188v3.9562h-1.1562v-4.1875q0-1.0125-0.35625-1.4938-0.35625-0.4875-1.1-0.4875-0.88125 0-1.4 0.6-0.51875 0.59375-0.51875 1.6125v3.9562h-1.1562v-7h1.1562v1.0875q0.39375-0.64375 0.94375-0.95t1.3062-0.30625q0.7625 0 1.2938 0.3875 0.5375 0.3875 0.79375 1.125z" style=""/>
   <path id="path380" d="m394.32 160.64v0.5625h-5.2875q0.075 1.1875 0.7125 1.8125 0.64375 0.61875 1.7875 0.61875 0.6625 0 1.2812-0.1625 0.625-0.1625 1.2375-0.4875v1.0875q-0.61875 0.2625-1.2688 0.4t-1.3188 0.1375q-1.675 0-2.6562-0.975-0.975-0.975-0.975-2.6375 0-1.7188 0.925-2.725 0.93125-1.0125 2.5062-1.0125 1.4125 0 2.2312 0.9125 0.825 0.90625 0.825 2.4688zm-1.15-0.3375q-0.0125-0.94375-0.53125-1.5062-0.5125-0.5625-1.3625-0.5625-0.9625 0-1.5438 0.54375-0.575 0.54375-0.6625 1.5312z" style=""/>
   <path id="path382" d="m396.21 154.7h1.15v9.725h-1.15z" style=""/>
   <path id="path384" d="m399.76 154.7h1.15v9.725h-1.15z" style=""/>
   <path id="path386" d="m409.29 160.64v0.5625h-5.2875q0.075 1.1875 0.7125 1.8125 0.64375 0.61875 1.7875 0.61875 0.6625 0 1.2812-0.1625 0.625-0.1625 1.2375-0.4875v1.0875q-0.61875 0.2625-1.2688 0.4t-1.3188 0.1375q-1.675 0-2.6562-0.975-0.975-0.975-0.975-2.6375 0-1.7188 0.925-2.725 0.93125-1.0125 2.5062-1.0125 1.4125 0 2.2312 0.9125 0.825 0.90625 0.825 2.4688zm-1.15-0.3375q-0.0125-0.94375-0.53125-1.5062-0.5125-0.5625-1.3625-0.5625-0.9625 0-1.5438 0.54375-0.575 0.54375-0.6625 1.5312z" style=""/>
   <path id="path388" d="m412.32 155.44v1.9875h2.3688v0.89375h-2.3688v3.8q0 0.85625 0.23125 1.1 0.2375 0.24375 0.95625 0.24375h1.1812v0.9625h-1.1812q-1.3312 0-1.8375-0.49375-0.50625-0.5-0.50625-1.8125v-3.8h-0.84375v-0.89375h0.84375v-1.9875z" style=""/>
   <path id="path390" d="m417.34 155.44v1.9875h2.3688v0.89375h-2.3688v3.8q0 0.85625 0.23125 1.1 0.2375 0.24375 0.95625 0.24375h1.1812v0.9625h-1.1812q-1.3312 0-1.8375-0.49375-0.50625-0.5-0.50625-1.8125v-3.8h-0.84375v-0.89375h0.84375v-1.9875z" style=""/>
   <path id="path392" d="m421.23 157.42h1.15v7h-1.15zm0-2.725h1.15v1.4562h-1.15z" style=""/>
   <path id="path394" d="m430.77 160.64v0.5625h-5.2875q0.075 1.1875 0.7125 1.8125 0.64375 0.61875 1.7875 0.61875 0.6625 0 1.2812-0.1625 0.625-0.1625 1.2375-0.4875v1.0875q-0.61875 0.2625-1.2688 0.4t-1.3188 0.1375q-1.675 0-2.6562-0.975-0.975-0.975-0.975-2.6375 0-1.7188 0.925-2.725 0.93125-1.0125 2.5062-1.0125 1.4125 0 2.2312 0.9125 0.825 0.90625 0.825 2.4688zm-1.15-0.3375q-0.0125-0.94375-0.53125-1.5062-0.5125-0.5625-1.3625-0.5625-0.9625 0-1.5438 0.54375-0.575 0.54375-0.6625 1.5312z" style=""/>
   <path id="path396" d="m432.61 154.7h1.1562v5.7438l3.4312-3.0188h1.4688l-3.7125 3.275 3.8688 3.725h-1.5l-3.5562-3.4188v3.4188h-1.1562z" style=""/>
   <path id="path398" d="m445.62 160.64v0.5625h-5.2875q0.075 1.1875 0.7125 1.8125 0.64375 0.61875 1.7875 0.61875 0.6625 0 1.2812-0.1625 0.625-0.1625 1.2375-0.4875v1.0875q-0.61875 0.2625-1.2688 0.4t-1.3188 0.1375q-1.675 0-2.6562-0.975-0.975-0.975-0.975-2.6375 0-1.7188 0.925-2.725 0.93125-1.0125 2.5062-1.0125 1.4125 0 2.2312 0.9125 0.825 0.90625 0.825 2.4688zm-1.15-0.3375q-0.0125-0.94375-0.53125-1.5062-0.5125-0.5625-1.3625-0.5625-0.9625 0-1.5438 0.54375-0.575 0.54375-0.6625 1.5312z" style=""/>
   <path id="path400" d="m448.64 155.44v1.9875h2.3688v0.89375h-2.3688v3.8q0 0.85625 0.23125 1.1 0.2375 0.24375 0.95625 0.24375h1.1812v0.9625h-1.1812q-1.3312 0-1.8375-0.49375-0.50625-0.5-0.50625-1.8125v-3.8h-0.84375v-0.89375h0.84375v-1.9875z" style=""/>
   <path id="path402" d="m461.64 157.69v1.075q-0.4875-0.26875-0.98125-0.4-0.4875-0.1375-0.9875-0.1375-1.1188 0-1.7375 0.7125-0.61875 0.70625-0.61875 1.9875t0.61875 1.9938q0.61875 0.70625 1.7375 0.70625 0.5 0 0.9875-0.13125 0.49375-0.1375 0.98125-0.40625v1.0625q-0.48125 0.225-1 0.3375-0.5125 0.1125-1.0938 0.1125-1.5812 0-2.5125-0.99375t-0.93125-2.6812q0-1.7125 0.9375-2.6938 0.94375-0.98125 2.5812-0.98125 0.53125 0 1.0375 0.1125 0.50625 0.10625 0.98125 0.325z" style=""/>
   <path id="path404" d="m468.12 157.63v1.0875q-0.4875-0.25-1.0125-0.375t-1.0875-0.125q-0.85625 0-1.2875 0.2625-0.425 0.2625-0.425 0.7875 0 0.4 0.30625 0.63125 0.30625 0.225 1.2312 0.43125l0.39375 0.0875q1.225 0.2625 1.7375 0.74375 0.51875 0.475 0.51875 1.3312 0 0.975-0.775 1.5438-0.76875 0.56875-2.1188 0.56875-0.5625 0-1.175-0.1125-0.60625-0.10625-1.2812-0.325v-1.1875q0.6375 0.33125 1.2562 0.5 0.61875 0.1625 1.225 0.1625 0.8125 0 1.25-0.275 0.4375-0.28125 0.4375-0.7875 0-0.46875-0.31875-0.71875-0.3125-0.25-1.3812-0.48125l-0.4-0.0937q-1.0688-0.225-1.5438-0.6875-0.475-0.46875-0.475-1.2812 0-0.9875 0.7-1.525t1.9875-0.5375q0.6375 0 1.2 0.0937t1.0375 0.28125z" style=""/>
   <path id="path406" d="m476.32 160.64v0.5625h-5.2875q0.075 1.1875 0.7125 1.8125 0.64375 0.61875 1.7875 0.61875 0.6625 0 1.2812-0.1625 0.625-0.1625 1.2375-0.4875v1.0875q-0.61875 0.2625-1.2688 0.4t-1.3188 0.1375q-1.675 0-2.6562-0.975-0.975-0.975-0.975-2.6375 0-1.7188 0.925-2.725 0.93125-1.0125 2.5062-1.0125 1.4125 0 2.2312 0.9125 0.825 0.90625 0.825 2.4688zm-1.15-0.3375q-0.0125-0.94375-0.53125-1.5062-0.5125-0.5625-1.3625-0.5625-0.9625 0-1.5438 0.54375-0.575 0.54375-0.6625 1.5312z" style=""/>
   <path id="path408" d="m482.26 158.5q-0.19375-0.1125-0.425-0.1625-0.225-0.0563-0.5-0.0563-0.975 0-1.5 0.6375-0.51875 0.63125-0.51875 1.8188v3.6875h-1.1562v-7h1.1562v1.0875q0.3625-0.6375 0.94375-0.94375 0.58125-0.3125 1.4125-0.3125 0.11875 0 0.2625 0.0188 0.14375 0.0125 0.31875 0.0437z" style=""/>
   <path id="path410" d="m489.19 160.64v0.5625h-5.2875q0.075 1.1875 0.7125 1.8125 0.64375 0.61875 1.7875 0.61875 0.6625 0 1.2812-0.1625 0.625-0.1625 1.2375-0.4875v1.0875q-0.61875 0.2625-1.2688 0.4t-1.3188 0.1375q-1.675 0-2.6562-0.975-0.975-0.975-0.975-2.6375 0-1.7188 0.925-2.725 0.93125-1.0125 2.5062-1.0125 1.4125 0 2.2312 0.9125 0.825 0.90625 0.825 2.4688zm-1.15-0.3375q-0.0125-0.94375-0.53125-1.5062-0.5125-0.5625-1.3625-0.5625-0.9625 0-1.5438 0.54375-0.575 0.54375-0.6625 1.5312zm-1.1062-6.1125h1.2438l-2.0375 2.35h-0.95625z" style=""/>
   <path id="path412" d="m491.08 154.7h1.15v9.725h-1.15z" style=""/>
   <path id="path414" d="m494.51 161.66v-4.2375h1.15v4.1938q0 0.99375 0.3875 1.4938 0.3875 0.49375 1.1625 0.49375 0.93125 0 1.4688-0.59375 0.54375-0.59375 0.54375-1.6188v-3.9688h1.15v7h-1.15v-1.075q-0.41875 0.6375-0.975 0.95-0.55 0.30625-1.2812 0.30625-1.2062 0-1.8312-0.75t-0.625-2.1938zm2.8938-4.4062zm0.575-2.5312h1.2688v1.2625h-1.2688zm-2.4438 0h1.2688v1.2625h-1.2688z" style=""/>
   <path id="path416" d="m508.58 160.2v4.225h-1.15v-4.1875q0-0.99375-0.3875-1.4875t-1.1625-0.49375q-0.93125 0-1.4688 0.59375t-0.5375 1.6188v3.9562h-1.1562v-7h1.1562v1.0875q0.4125-0.63125 0.96875-0.94375 0.5625-0.3125 1.2938-0.3125 1.2062 0 1.825 0.75 0.61875 0.74375 0.61875 2.1938z" style=""/>
   <path id="path418" d="m510.84 154.7h1.1562v5.7438l3.4312-3.0188h1.4688l-3.7125 3.275 3.8688 3.725h-1.5l-3.5562-3.4188v3.4188h-1.1562z" style=""/>
   <path id="path420" d="m518.6 162.84h1.3188v1.075l-1.025 2h-0.80625l0.5125-2z" style=""/>
   <path id="path422" d="m532.28 160.2v4.225h-1.15v-4.1875q0-0.99375-0.3875-1.4875t-1.1625-0.49375q-0.93125 0-1.4688 0.59375t-0.5375 1.6188v3.9562h-1.1562v-9.725h1.1562v3.8125q0.4125-0.63125 0.96875-0.94375 0.5625-0.3125 1.2938-0.3125 1.2062 0 1.825 0.75 0.61875 0.74375 0.61875 2.1938z" style=""/>
   <path id="path424" d="m537.76 160.91q-1.3938 0-1.9312 0.31875t-0.5375 1.0875q0 0.6125 0.4 0.975 0.40625 0.35625 1.1 0.35625 0.95625 0 1.5312-0.675 0.58125-0.68125 0.58125-1.8062v-0.25625zm2.2938-0.475v3.9938h-1.15v-1.0625q-0.39375 0.6375-0.98125 0.94375-0.5875 0.3-1.4375 0.3-1.075 0-1.7125-0.6-0.63125-0.60625-0.63125-1.6188 0-1.1812 0.7875-1.7812 0.79375-0.6 2.3625-0.6h1.6125v-0.1125q0-0.79375-0.525-1.225-0.51875-0.4375-1.4625-0.4375-0.6 0-1.1688 0.14375t-1.0938 0.43125v-1.0625q0.63125-0.24375 1.225-0.3625 0.59375-0.125 1.1562-0.125 1.5188 0 2.2688 0.7875t0.75 2.3875z" style=""/>
   <path id="path426" d="m546.46 154.7h1.1562v5.7438l3.4312-3.0188h1.4688l-3.7125 3.275 3.8688 3.725h-1.5l-3.5562-3.4188v3.4188h-1.1562z" style=""/>
   <path id="path428" d="m559.47 160.64v0.5625h-5.2875q0.075 1.1875 0.7125 1.8125 0.64375 0.61875 1.7875 0.61875 0.6625 0 1.2812-0.1625 0.625-0.1625 1.2375-0.4875v1.0875q-0.61875 0.2625-1.2688 0.4t-1.3188 0.1375q-1.675 0-2.6562-0.975-0.975-0.975-0.975-2.6375 0-1.7188 0.925-2.725 0.93125-1.0125 2.5062-1.0125 1.4125 0 2.2312 0.9125 0.825 0.90625 0.825 2.4688zm-1.15-0.3375q-0.0125-0.94375-0.53125-1.5062-0.5125-0.5625-1.3625-0.5625-0.9625 0-1.5438 0.54375-0.575 0.54375-0.6625 1.5312z" style=""/>
   <path id="path430" d="m561.36 154.7h1.15v9.725h-1.15z" style=""/>
   <path id="path432" d="m564.91 154.7h1.15v9.725h-1.15z" style=""/>
  </g>
 </g>
</svg>
