<?xml version="1.0" encoding="UTF-8"?>
<svg id="svg91" width="16.947cm" height="11.579cm" version="1.1" viewBox="88 18 322 213.25" xmlns="http://www.w3.org/2000/svg" xmlns:cc="http://creativecommons.org/ns#" xmlns:dc="http://purl.org/dc/elements/1.1/" xmlns:rdf="http://www.w3.org/1999/02/22-rdf-syntax-ns#">
 <metadata id="metadata97">
  <rdf:RDF>
   <cc:Work rdf:about="">
    <dc:format>image/svg+xml</dc:format>
    <dc:type rdf:resource="http://purl.org/dc/dcmitype/StillImage"/>
   </cc:Work>
  </rdf:RDF>
 </metadata>
 <g id="Háttér" transform="translate(-1 -4.3772)">
  <g id="g8">
   <path id="rect2" d="m280 80h40v38h-40z" fill="#fff" stroke="#000" stroke-width="2"/>
   <g id="text6" aria-label="3">
    <path id="path53" d="m301.12 97.869q0.90625 0.19375 1.4125 0.80625 0.5125 0.6125 0.5125 1.5125 0 1.3812-0.95 2.1375t-2.7 0.75625q-0.5875 0-1.2125-0.11875-0.61875-0.1125-1.2812-0.34375v-1.2188q0.525 0.30625 1.15 0.4625t1.3062 0.15625q1.1875 0 1.8062-0.46875 0.625-0.46875 0.625-1.3625 0-0.825-0.58125-1.2875-0.575-0.46875-1.6062-0.46875h-1.0875v-1.0375h1.1375q0.93125 0 1.425-0.36875 0.49375-0.375 0.49375-1.075 0-0.71875-0.5125-1.1-0.50625-0.3875-1.4562-0.3875-0.51875 0-1.1125 0.1125t-1.3062 0.35v-1.125q0.71875-0.2 1.3438-0.3 0.63125-0.1 1.1875-0.1 1.4375 0 2.275 0.65625 0.8375 0.65 0.8375 1.7625 0 0.775-0.44375 1.3125-0.44375 0.53125-1.2625 0.7375z" style=""/>
   </g>
  </g>
  <g id="g16">
   <path id="rect10" d="m220 140h40v38h-40z" fill="#fff" stroke="#000" stroke-width="2"/>
   <g id="text14" aria-label="1">
    <path id="path57" d="m237.51 161.84h2.0625v-7.1188l-2.2438 0.45v-1.15l2.2312-0.45h1.2625v8.2688h2.0625v1.0625h-5.375z" style=""/>
   </g>
  </g>
  <g id="g24">
   <path id="rect18" d="m340 140h40v38h-40z" fill="#fff" stroke="#000" stroke-width="2"/>
   <g id="text22" aria-label="2">
    <path id="path61" d="m358.38 161.84h4.4062v1.0625h-5.925v-1.0625q0.71875-0.74375 1.9562-1.9938 1.2438-1.2562 1.5625-1.6188 0.60625-0.68125 0.84375-1.15 0.24375-0.475 0.24375-0.93125 0-0.74375-0.525-1.2125-0.51875-0.46875-1.3562-0.46875-0.59375 0-1.2562 0.20625-0.65625 0.20625-1.4062 0.625v-1.275q0.7625-0.30625 1.425-0.4625t1.2125-0.15625q1.45 0 2.3125 0.725t0.8625 1.9375q0 0.575-0.21875 1.0938-0.2125 0.5125-0.78125 1.2125-0.15625 0.18125-0.99375 1.05-0.8375 0.8625-2.3625 2.4188z" style=""/>
   </g>
  </g>
  <path id="line26" d="m240 140 60-22" fill="none" stroke="#000" stroke-width="2"/>
  <path id="line28" d="m360 140-60-22" fill="none" stroke="#000" stroke-width="2"/>
  <g id="g36">
   <path id="rect30" d="m310 200h40v38h-40z" fill="#fff" stroke="#000" stroke-width="2"/>
   <g id="text34" aria-label="1">
    <path id="path67" d="m327.51 221.84h2.0625v-7.1188l-2.2438 0.45v-1.15l2.2312-0.45h1.2625v8.2688h2.0625v1.0625h-5.375z" style=""/>
   </g>
  </g>
  <path id="line38" d="m330 200 30-22" fill="none" stroke="#000" stroke-width="2"/>
  <g id="g46">
   <path id="rect40" d="m370 200h40v38h-40z" fill="#fff" stroke="#000" stroke-width="2"/>
   <g id="text44" aria-label="0">
    <path id="path72" d="m389.99 214.4q-0.975 0-1.4688 0.9625-0.4875 0.95625-0.4875 2.8812 0 1.9188 0.4875 2.8812 0.49375 0.95625 1.4688 0.95625 0.98125 0 1.4688-0.95625 0.49375-0.9625 0.49375-2.8812 0-1.925-0.49375-2.8812-0.4875-0.9625-1.4688-0.9625zm0-1q1.5688 0 2.3938 1.2438 0.83125 1.2375 0.83125 3.6 0 2.3562-0.83125 3.6-0.825 1.2375-2.3938 1.2375t-2.4-1.2375q-0.825-1.2438-0.825-3.6 0-2.3625 0.825-3.6 0.83125-1.2438 2.4-1.2438z" style=""/>
   </g>
  </g>
  <path id="line48" d="m390 200-30-22" fill="none" stroke="#000" stroke-width="2"/>
  <g id="g56">
   <path id="rect50" d="m120 80h40v38h-40z" fill="#fff" stroke="#000" stroke-width="2"/>
   <g id="text54" aria-label="2">
    <path id="path77" d="m138.38 101.84h4.4062v1.0625h-5.925v-1.0625q0.71875-0.74375 1.9562-1.9937 1.2438-1.2562 1.5625-1.6188 0.60625-0.68125 0.84375-1.15 0.24375-0.475 0.24375-0.93125 0-0.74375-0.525-1.2125-0.51875-0.46875-1.3562-0.46875-0.59375 0-1.2562 0.20625-0.65625 0.20625-1.4062 0.625v-1.275q0.7625-0.30625 1.425-0.4625t1.2125-0.15625q1.45 0 2.3125 0.725t0.8625 1.9375q0 0.575-0.21875 1.0938-0.2125 0.5125-0.78125 1.2125-0.15625 0.18125-0.99375 1.05-0.8375 0.8625-2.3625 2.4187z" style=""/>
   </g>
  </g>
  <g id="g64">
   <path id="rect58" d="m90 140h40v38h-40z" fill="#fff" stroke="#000" stroke-width="2"/>
   <g id="text62" aria-label="1">
    <path id="path81" d="m107.51 161.84h2.0625v-7.1188l-2.2438 0.45v-1.15l2.2312-0.45h1.2625v8.2688h2.0625v1.0625h-5.375z" style=""/>
   </g>
  </g>
  <path id="line66" d="m110 140 30-22" fill="none" stroke="#000" stroke-width="2"/>
  <g id="g74">
   <path id="rect68" d="m150 140h40v38h-40z" fill="#fff" stroke="#000" stroke-width="2"/>
   <g id="text72" aria-label="0">
    <path id="path86" d="m169.99 154.4q-0.975 0-1.4688 0.9625-0.4875 0.95625-0.4875 2.8812 0 1.9188 0.4875 2.8812 0.49375 0.95625 1.4688 0.95625 0.98125 0 1.4688-0.95625 0.49375-0.9625 0.49375-2.8812 0-1.925-0.49375-2.8812-0.4875-0.9625-1.4688-0.9625zm0-1q1.5688 0 2.3938 1.2438 0.83125 1.2375 0.83125 3.6 0 2.3562-0.83125 3.6-0.825 1.2375-2.3938 1.2375t-2.4-1.2375q-0.825-1.2438-0.825-3.6 0-2.3625 0.825-3.6 0.83125-1.2438 2.4-1.2438z" style=""/>
   </g>
  </g>
  <path id="line76" d="m170 140-30-22" fill="none" stroke="#000" stroke-width="2"/>
  <g id="g84">
   <path id="rect78" d="m200 20h40v38h-40z" fill="#fff" stroke="#000" stroke-width="2"/>
   <g id="text82" aria-label="4">
    <path id="path91" d="m220.76 34.669-3.1875 4.9812h3.1875zm-0.33125-1.1h1.5875v6.0812h1.3312v1.05h-1.3312v2.2h-1.2562v-2.2h-4.2125v-1.2188z" style=""/>
   </g>
  </g>
  <path id="line86" d="m140 80 80-22" fill="none" stroke="#000" stroke-width="2"/>
  <path id="line88" d="m300 80-80-22" fill="none" stroke="#000" stroke-width="2"/>
 </g>
</svg>
