<?xml version="1.0" encoding="UTF-8"?>
<svg id="svg235" width="16.607cm" height="17.942cm" version="1.1" viewBox="318 172 315.54 347.87" xmlns="http://www.w3.org/2000/svg" xmlns:cc="http://creativecommons.org/ns#" xmlns:dc="http://purl.org/dc/elements/1.1/" xmlns:rdf="http://www.w3.org/1999/02/22-rdf-syntax-ns#">
 <metadata id="metadata241">
  <rdf:RDF>
   <cc:Work rdf:about="">
    <dc:format>image/svg+xml</dc:format>
    <dc:type rdf:resource="http://purl.org/dc/dcmitype/StillImage"/>
   </cc:Work>
  </rdf:RDF>
 </metadata>
 <g id="Háttér" transform="translate(-4.2292 -2.1875)">
  <g id="text4" aria-label="a legkisebbet megcseréljük az elsővel...">
   <path id="path929" d="m324.39 180.91q-1.3938 0-1.9312 0.31875t-0.5375 1.0875q0 0.6125 0.4 0.975 0.40625 0.35625 1.1 0.35625 0.95625 0 1.5312-0.675 0.58125-0.68125 0.58125-1.8062v-0.25625zm2.2938-0.475v3.9938h-1.15v-1.0625q-0.39375 0.6375-0.98125 0.94375-0.5875 0.3-1.4375 0.3-1.075 0-1.7125-0.6-0.63125-0.60625-0.63125-1.6188 0-1.1812 0.7875-1.7812 0.79375-0.6 2.3625-0.6h1.6125v-0.1125q0-0.79375-0.525-1.225-0.51875-0.4375-1.4625-0.4375-0.6 0-1.1688 0.14375t-1.0938 0.43125v-1.0625q0.63125-0.24375 1.225-0.3625 0.59375-0.125 1.1562-0.125 1.5188 0 2.2688 0.7875t0.75 2.3875z" style=""/>
   <path id="path931" d="m333.13 174.7h1.15v9.725h-1.15z" style=""/>
   <path id="path933" d="m342.67 180.64v0.5625h-5.2875q0.075 1.1875 0.7125 1.8125 0.64375 0.61875 1.7875 0.61875 0.6625 0 1.2812-0.1625 0.625-0.1625 1.2375-0.4875v1.0875q-0.61875 0.2625-1.2688 0.4t-1.3188 0.1375q-1.675 0-2.6562-0.975-0.975-0.975-0.975-2.6375 0-1.7188 0.925-2.725 0.93125-1.0125 2.5062-1.0125 1.4125 0 2.2312 0.9125 0.825 0.90625 0.825 2.4688zm-1.15-0.3375q-0.0125-0.94375-0.53125-1.5062-0.5125-0.5625-1.3625-0.5625-0.9625 0-1.5438 0.54375-0.575 0.54375-0.6625 1.5312z" style=""/>
   <path id="path935" d="m349.16 180.84q0-1.25-0.51875-1.9375-0.5125-0.6875-1.4438-0.6875-0.925 0-1.4438 0.6875-0.5125 0.6875-0.5125 1.9375 0 1.2438 0.5125 1.9312 0.51875 0.6875 1.4438 0.6875 0.93125 0 1.4438-0.6875 0.51875-0.6875 0.51875-1.9312zm1.15 2.7125q0 1.7875-0.79375 2.6562-0.79375 0.875-2.4312 0.875-0.60625 0-1.1438-0.0937-0.5375-0.0875-1.0438-0.275v-1.1188q0.50625 0.275 1 0.40625t1.0062 0.13125q1.1312 0 1.6938-0.59375 0.5625-0.5875 0.5625-1.7812v-0.56875q-0.35625 0.61875-0.9125 0.925t-1.3312 0.30625q-1.2875 0-2.075-0.98125t-0.7875-2.6q0-1.625 0.7875-2.6062t2.075-0.98125q0.775 0 1.3312 0.30625t0.9125 0.925v-1.0625h1.15z" style=""/>
   <path id="path937" d="m352.64 174.7h1.1562v5.7438l3.4312-3.0188h1.4688l-3.7125 3.275 3.8688 3.725h-1.5l-3.5562-3.4188v3.4188h-1.1562z" style=""/>
   <path id="path939" d="m360.11 177.42h1.15v7h-1.15zm0-2.725h1.15v1.4562h-1.15z" style=""/>
   <path id="path941" d="m368.12 177.63v1.0875q-0.4875-0.25-1.0125-0.375t-1.0875-0.125q-0.85625 0-1.2875 0.2625-0.425 0.2625-0.425 0.7875 0 0.4 0.30625 0.63125 0.30625 0.225 1.2312 0.43125l0.39375 0.0875q1.225 0.2625 1.7375 0.74375 0.51875 0.475 0.51875 1.3312 0 0.975-0.775 1.5438-0.76875 0.56875-2.1188 0.56875-0.5625 0-1.175-0.1125-0.60625-0.10625-1.2812-0.325v-1.1875q0.6375 0.33125 1.2562 0.5 0.61875 0.1625 1.225 0.1625 0.8125 0 1.25-0.275 0.4375-0.28125 0.4375-0.7875 0-0.46875-0.31875-0.71875-0.3125-0.25-1.3812-0.48125l-0.4-0.0937q-1.0688-0.225-1.5438-0.6875-0.475-0.46875-0.475-1.2812 0-0.9875 0.7-1.525t1.9875-0.5375q0.6375 0 1.2 0.0937t1.0375 0.28125z" style=""/>
   <path id="path943" d="m376.32 180.64v0.5625h-5.2875q0.075 1.1875 0.7125 1.8125 0.64375 0.61875 1.7875 0.61875 0.6625 0 1.2812-0.1625 0.625-0.1625 1.2375-0.4875v1.0875q-0.61875 0.2625-1.2688 0.4t-1.3188 0.1375q-1.675 0-2.6562-0.975-0.975-0.975-0.975-2.6375 0-1.7188 0.925-2.725 0.93125-1.0125 2.5062-1.0125 1.4125 0 2.2312 0.9125 0.825 0.90625 0.825 2.4688zm-1.15-0.3375q-0.0125-0.94375-0.53125-1.5062-0.5125-0.5625-1.3625-0.5625-0.9625 0-1.5438 0.54375-0.575 0.54375-0.6625 1.5312z" style=""/>
   <path id="path945" d="m383.23 180.93q0-1.2688-0.525-1.9875-0.51875-0.725-1.4312-0.725t-1.4375 0.725q-0.51875 0.71875-0.51875 1.9875t0.51875 1.9938q0.525 0.71875 1.4375 0.71875t1.4312-0.71875q0.525-0.725 0.525-1.9938zm-3.9125-2.4438q0.3625-0.625 0.9125-0.925 0.55625-0.30625 1.325-0.30625 1.275 0 2.0688 1.0125 0.8 1.0125 0.8 2.6625t-0.8 2.6625q-0.79375 1.0125-2.0688 1.0125-0.76875 0-1.325-0.3-0.55-0.30625-0.9125-0.93125v1.05h-1.1562v-9.725h1.1562z" style=""/>
   <path id="path947" d="m391.36 180.93q0-1.2688-0.525-1.9875-0.51875-0.725-1.4312-0.725t-1.4375 0.725q-0.51875 0.71875-0.51875 1.9875t0.51875 1.9938q0.525 0.71875 1.4375 0.71875t1.4312-0.71875q0.525-0.725 0.525-1.9938zm-3.9125-2.4438q0.3625-0.625 0.9125-0.925 0.55625-0.30625 1.325-0.30625 1.275 0 2.0688 1.0125 0.8 1.0125 0.8 2.6625t-0.8 2.6625q-0.79375 1.0125-2.0688 1.0125-0.76875 0-1.325-0.3-0.55-0.30625-0.9125-0.93125v1.05h-1.1562v-9.725h1.1562z" style=""/>
   <path id="path949" d="m400.44 180.64v0.5625h-5.2875q0.075 1.1875 0.7125 1.8125 0.64375 0.61875 1.7875 0.61875 0.6625 0 1.2812-0.1625 0.625-0.1625 1.2375-0.4875v1.0875q-0.61875 0.2625-1.2688 0.4t-1.3188 0.1375q-1.675 0-2.6562-0.975-0.975-0.975-0.975-2.6375 0-1.7188 0.925-2.725 0.93125-1.0125 2.5062-1.0125 1.4125 0 2.2312 0.9125 0.825 0.90625 0.825 2.4688zm-1.15-0.3375q-0.0125-0.94375-0.53125-1.5062-0.5125-0.5625-1.3625-0.5625-0.9625 0-1.5438 0.54375-0.575 0.54375-0.6625 1.5312z" style=""/>
   <path id="path951" d="m403.47 175.44v1.9875h2.3688v0.89375h-2.3688v3.8q0 0.85625 0.23125 1.1 0.2375 0.24375 0.95625 0.24375h1.1812v0.9625h-1.1812q-1.3312 0-1.8375-0.49375-0.50625-0.5-0.50625-1.8125v-3.8h-0.84375v-0.89375h0.84375v-1.9875z" style=""/>
   <path id="path953" d="m416.88 178.77q0.43125-0.775 1.0312-1.1438t1.4125-0.36875q1.0938 0 1.6875 0.76875 0.59375 0.7625 0.59375 2.175v4.225h-1.1562v-4.1875q0-1.0062-0.35625-1.4938t-1.0875-0.4875q-0.89375 0-1.4125 0.59375t-0.51875 1.6188v3.9562h-1.1562v-4.1875q0-1.0125-0.35625-1.4938-0.35625-0.4875-1.1-0.4875-0.88125 0-1.4 0.6-0.51875 0.59375-0.51875 1.6125v3.9562h-1.1562v-7h1.1562v1.0875q0.39375-0.64375 0.94375-0.95t1.3062-0.30625q0.7625 0 1.2938 0.3875 0.5375 0.3875 0.79375 1.125z" style=""/>
   <path id="path955" d="m429.89 180.64v0.5625h-5.2875q0.075 1.1875 0.7125 1.8125 0.64375 0.61875 1.7875 0.61875 0.6625 0 1.2812-0.1625 0.625-0.1625 1.2375-0.4875v1.0875q-0.61875 0.2625-1.2688 0.4t-1.3188 0.1375q-1.675 0-2.6562-0.975-0.975-0.975-0.975-2.6375 0-1.7188 0.925-2.725 0.93125-1.0125 2.5062-1.0125 1.4125 0 2.2312 0.9125 0.825 0.90625 0.825 2.4688zm-1.15-0.3375q-0.0125-0.94375-0.53125-1.5062-0.5125-0.5625-1.3625-0.5625-0.9625 0-1.5438 0.54375-0.575 0.54375-0.6625 1.5312z" style=""/>
   <path id="path957" d="m436.39 180.84q0-1.25-0.51875-1.9375-0.5125-0.6875-1.4438-0.6875-0.925 0-1.4438 0.6875-0.5125 0.6875-0.5125 1.9375 0 1.2438 0.5125 1.9312 0.51875 0.6875 1.4438 0.6875 0.93125 0 1.4438-0.6875 0.51875-0.6875 0.51875-1.9312zm1.15 2.7125q0 1.7875-0.79375 2.6562-0.79375 0.875-2.4312 0.875-0.60625 0-1.1438-0.0937-0.5375-0.0875-1.0438-0.275v-1.1188q0.50625 0.275 1 0.40625t1.0062 0.13125q1.1312 0 1.6938-0.59375 0.5625-0.5875 0.5625-1.7812v-0.56875q-0.35625 0.61875-0.9125 0.925t-1.3312 0.30625q-1.2875 0-2.075-0.98125t-0.7875-2.6q0-1.625 0.7875-2.6062t2.075-0.98125q0.775 0 1.3312 0.30625t0.9125 0.925v-1.0625h1.15z" style=""/>
   <path id="path959" d="m444.94 177.69v1.075q-0.4875-0.26875-0.98125-0.4-0.4875-0.1375-0.9875-0.1375-1.1188 0-1.7375 0.7125-0.61875 0.70625-0.61875 1.9875t0.61875 1.9938q0.61875 0.70625 1.7375 0.70625 0.5 0 0.9875-0.13125 0.49375-0.1375 0.98125-0.40625v1.0625q-0.48125 0.225-1 0.3375-0.5125 0.1125-1.0938 0.1125-1.5812 0-2.5125-0.99375t-0.93125-2.6812q0-1.7125 0.9375-2.6938 0.94375-0.98125 2.5812-0.98125 0.53125 0 1.0375 0.1125 0.50625 0.10625 0.98125 0.325z" style=""/>
   <path id="path961" d="m451.42 177.63v1.0875q-0.4875-0.25-1.0125-0.375t-1.0875-0.125q-0.85625 0-1.2875 0.2625-0.425 0.2625-0.425 0.7875 0 0.4 0.30625 0.63125 0.30625 0.225 1.2312 0.43125l0.39375 0.0875q1.225 0.2625 1.7375 0.74375 0.51875 0.475 0.51875 1.3312 0 0.975-0.775 1.5438-0.76875 0.56875-2.1188 0.56875-0.5625 0-1.175-0.1125-0.60625-0.10625-1.2812-0.325v-1.1875q0.6375 0.33125 1.2562 0.5 0.61875 0.1625 1.225 0.1625 0.8125 0 1.25-0.275 0.4375-0.28125 0.4375-0.7875 0-0.46875-0.31875-0.71875-0.3125-0.25-1.3812-0.48125l-0.4-0.0937q-1.0688-0.225-1.5438-0.6875-0.475-0.46875-0.475-1.2812 0-0.9875 0.7-1.525t1.9875-0.5375q0.6375 0 1.2 0.0937t1.0375 0.28125z" style=""/>
   <path id="path963" d="m459.62 180.64v0.5625h-5.2875q0.075 1.1875 0.7125 1.8125 0.64375 0.61875 1.7875 0.61875 0.6625 0 1.2812-0.1625 0.625-0.1625 1.2375-0.4875v1.0875q-0.61875 0.2625-1.2688 0.4t-1.3188 0.1375q-1.675 0-2.6562-0.975-0.975-0.975-0.975-2.6375 0-1.7188 0.925-2.725 0.93125-1.0125 2.5062-1.0125 1.4125 0 2.2312 0.9125 0.825 0.90625 0.825 2.4688zm-1.15-0.3375q-0.0125-0.94375-0.53125-1.5062-0.5125-0.5625-1.3625-0.5625-0.9625 0-1.5438 0.54375-0.575 0.54375-0.6625 1.5312z" style=""/>
   <path id="path965" d="m465.56 178.5q-0.19375-0.1125-0.425-0.1625-0.225-0.0563-0.5-0.0563-0.975 0-1.5 0.6375-0.51875 0.63125-0.51875 1.8188v3.6875h-1.1562v-7h1.1562v1.0875q0.3625-0.6375 0.94375-0.94375 0.58125-0.3125 1.4125-0.3125 0.11875 0 0.2625 0.0188 0.14375 0.0125 0.31875 0.0437z" style=""/>
   <path id="path967" d="m472.49 180.64v0.5625h-5.2875q0.075 1.1875 0.7125 1.8125 0.64375 0.61875 1.7875 0.61875 0.6625 0 1.2812-0.1625 0.625-0.1625 1.2375-0.4875v1.0875q-0.61875 0.2625-1.2688 0.4t-1.3188 0.1375q-1.675 0-2.6562-0.975-0.975-0.975-0.975-2.6375 0-1.7188 0.925-2.725 0.93125-1.0125 2.5062-1.0125 1.4125 0 2.2312 0.9125 0.825 0.90625 0.825 2.4688zm-1.15-0.3375q-0.0125-0.94375-0.53125-1.5062-0.5125-0.5625-1.3625-0.5625-0.9625 0-1.5438 0.54375-0.575 0.54375-0.6625 1.5312zm-1.1062-6.1125h1.2438l-2.0375 2.35h-0.95625z" style=""/>
   <path id="path969" d="m474.38 174.7h1.15v9.725h-1.15z" style=""/>
   <path id="path971" d="m477.93 177.42h1.15v7.125q0 1.3375-0.5125 1.9375-0.50625 0.6-1.6375 0.6h-0.4375v-0.975h0.30625q0.65625 0 0.89375-0.30625 0.2375-0.3 0.2375-1.2562zm0-2.725h1.15v1.4562h-1.15z" style=""/>
   <path id="path973" d="m481.36 181.66v-4.2375h1.15v4.1938q0 0.99375 0.3875 1.4938 0.3875 0.49375 1.1625 0.49375 0.93125 0 1.4688-0.59375 0.54375-0.59375 0.54375-1.6188v-3.9688h1.15v7h-1.15v-1.075q-0.41875 0.6375-0.975 0.95-0.55 0.30625-1.2812 0.30625-1.2062 0-1.8312-0.75t-0.625-2.1938zm2.8938-4.4062zm0.575-2.5312h1.2688v1.2625h-1.2688zm-2.4438 0h1.2688v1.2625h-1.2688z" style=""/>
   <path id="path975" d="m489.56 174.7h1.1562v5.7438l3.4312-3.0188h1.4688l-3.7125 3.275 3.8688 3.725h-1.5l-3.5562-3.4188v3.4188h-1.1562z" style=""/>
   <path id="path977" d="m504.29 180.91q-1.3938 0-1.9312 0.31875t-0.5375 1.0875q0 0.6125 0.4 0.975 0.40625 0.35625 1.1 0.35625 0.95625 0 1.5312-0.675 0.58125-0.68125 0.58125-1.8062v-0.25625zm2.2938-0.475v3.9938h-1.15v-1.0625q-0.39375 0.6375-0.98125 0.94375-0.5875 0.3-1.4375 0.3-1.075 0-1.7125-0.6-0.63125-0.60625-0.63125-1.6188 0-1.1812 0.7875-1.7812 0.79375-0.6 2.3625-0.6h1.6125v-0.1125q0-0.79375-0.525-1.225-0.51875-0.4375-1.4625-0.4375-0.6 0-1.1688 0.14375t-1.0938 0.43125v-1.0625q0.63125-0.24375 1.225-0.3625 0.59375-0.125 1.1562-0.125 1.5188 0 2.2688 0.7875t0.75 2.3875z" style=""/>
   <path id="path979" d="m508.46 177.42h5.4625v1.05l-4.325 5.0312h4.325v0.91875h-5.6188v-1.05l4.325-5.0312h-4.1688z" style=""/>
   <path id="path981" d="m525.74 180.64v0.5625h-5.2875q0.075 1.1875 0.7125 1.8125 0.64375 0.61875 1.7875 0.61875 0.6625 0 1.2812-0.1625 0.625-0.1625 1.2375-0.4875v1.0875q-0.61875 0.2625-1.2688 0.4t-1.3188 0.1375q-1.675 0-2.6562-0.975-0.975-0.975-0.975-2.6375 0-1.7188 0.925-2.725 0.93125-1.0125 2.5062-1.0125 1.4125 0 2.2312 0.9125 0.825 0.90625 0.825 2.4688zm-1.15-0.3375q-0.0125-0.94375-0.53125-1.5062-0.5125-0.5625-1.3625-0.5625-0.9625 0-1.5438 0.54375-0.575 0.54375-0.6625 1.5312z" style=""/>
   <path id="path983" d="m527.63 174.7h1.15v9.725h-1.15z" style=""/>
   <path id="path985" d="m535.64 177.63v1.0875q-0.4875-0.25-1.0125-0.375t-1.0875-0.125q-0.85625 0-1.2875 0.2625-0.425 0.2625-0.425 0.7875 0 0.4 0.30625 0.63125 0.30625 0.225 1.2312 0.43125l0.39375 0.0875q1.225 0.2625 1.7375 0.74375 0.51875 0.475 0.51875 1.3312 0 0.975-0.775 1.5438-0.76875 0.56875-2.1188 0.56875-0.5625 0-1.175-0.1125-0.60625-0.10625-1.2812-0.325v-1.1875q0.6375 0.33125 1.2562 0.5 0.61875 0.1625 1.225 0.1625 0.8125 0 1.25-0.275 0.4375-0.28125 0.4375-0.7875 0-0.46875-0.31875-0.71875-0.3125-0.25-1.3812-0.48125l-0.4-0.0937q-1.0688-0.225-1.5438-0.6875-0.475-0.46875-0.475-1.2812 0-0.9875 0.7-1.525t1.9875-0.5375q0.6375 0 1.2 0.0937t1.0375 0.28125z" style=""/>
   <path id="path987" d="m542.43 174.19h1.1125l-1.55 2.35h-0.84375zm-2.0875 0h1.0625l-1.3938 2.35h-0.85625zm0.23125 4.0438q-0.925 0-1.4625 0.725-0.5375 0.71875-0.5375 1.975t0.53125 1.9812q0.5375 0.71875 1.4688 0.71875 0.91875 0 1.4562-0.725t0.5375-1.975q0-1.2438-0.5375-1.9688-0.5375-0.73125-1.4562-0.73125zm0-0.975q1.5 0 2.3562 0.975t0.85625 2.7q0 1.7188-0.85625 2.7-0.85625 0.975-2.3562 0.975-1.5062 0-2.3625-0.975-0.85-0.98125-0.85-2.7 0-1.725 0.85-2.7 0.85625-0.975 2.3625-0.975z" style=""/>
   <path id="path989" d="m544.86 177.42h1.2188l2.1875 5.875 2.1875-5.875h1.2188l-2.625 7h-1.5625z" style=""/>
   <path id="path991" d="m559.24 180.64v0.5625h-5.2875q0.075 1.1875 0.7125 1.8125 0.64375 0.61875 1.7875 0.61875 0.6625 0 1.2812-0.1625 0.625-0.1625 1.2375-0.4875v1.0875q-0.61875 0.2625-1.2688 0.4t-1.3188 0.1375q-1.675 0-2.6562-0.975-0.975-0.975-0.975-2.6375 0-1.7188 0.925-2.725 0.93125-1.0125 2.5062-1.0125 1.4125 0 2.2312 0.9125 0.825 0.90625 0.825 2.4688zm-1.15-0.3375q-0.0125-0.94375-0.53125-1.5062-0.5125-0.5625-1.3625-0.5625-0.9625 0-1.5438 0.54375-0.575 0.54375-0.6625 1.5312z" style=""/>
   <path id="path993" d="m561.13 174.7h1.15v9.725h-1.15z" style=""/>
   <path id="path995" d="m564.84 182.84h1.3188v1.5875h-1.3188z" style=""/>
   <path id="path997" d="m568.92 182.84h1.3188v1.5875h-1.3188z" style=""/>
   <path id="path999" d="m572.99 182.84h1.3188v1.5875h-1.3188z" style=""/>
  </g>
  <g id="text8" aria-label="a többiből legkisebbet a másodikkal...">
   <path id="path1002" d="m324.39 280.91q-1.3938 0-1.9312 0.31875t-0.5375 1.0875q0 0.6125 0.4 0.975 0.40625 0.35625 1.1 0.35625 0.95625 0 1.5312-0.675 0.58125-0.68125 0.58125-1.8062v-0.25625zm2.2938-0.475v3.9938h-1.15v-1.0625q-0.39375 0.6375-0.98125 0.94375-0.5875 0.3-1.4375 0.3-1.075 0-1.7125-0.6-0.63125-0.60625-0.63125-1.6188 0-1.1812 0.7875-1.7812 0.79375-0.6 2.3625-0.6h1.6125v-0.1125q0-0.79375-0.525-1.225-0.51875-0.4375-1.4625-0.4375-0.6 0-1.1688 0.14375t-1.0938 0.43125v-1.0625q0.63125-0.24375 1.225-0.3625 0.59375-0.125 1.1562-0.125 1.5188 0 2.2688 0.7875t0.75 2.3875z" style=""/>
   <path id="path1004" d="m334.27 275.44v1.9875h2.3688v0.89375h-2.3688v3.8q0 0.85625 0.23125 1.1 0.2375 0.24375 0.95625 0.24375h1.1812v0.9625h-1.1812q-1.3312 0-1.8375-0.49375-0.50625-0.5-0.50625-1.8125v-3.8h-0.84375v-0.89375h0.84375v-1.9875z" style=""/>
   <path id="path1006" d="m340.87 278.23q-0.925 0-1.4625 0.725-0.5375 0.71875-0.5375 1.975t0.53125 1.9812q0.5375 0.71875 1.4688 0.71875 0.91875 0 1.4562-0.725t0.5375-1.975q0-1.2438-0.5375-1.9688-0.5375-0.73125-1.4562-0.73125zm0-0.975q1.5 0 2.3562 0.975t0.85625 2.7q0 1.7188-0.85625 2.7-0.85625 0.975-2.3562 0.975-1.5062 0-2.3625-0.975-0.85-0.98125-0.85-2.7 0-1.725 0.85-2.7 0.85625-0.975 2.3625-0.975zm0.5875-2.5312h1.2688v1.2625h-1.2688zm-2.4438 0h1.2688v1.2625h-1.2688z" style=""/>
   <path id="path1008" d="m351.01 280.93q0-1.2688-0.525-1.9875-0.51875-0.725-1.4312-0.725t-1.4375 0.725q-0.51875 0.71875-0.51875 1.9875t0.51875 1.9938q0.525 0.71875 1.4375 0.71875t1.4312-0.71875q0.525-0.725 0.525-1.9938zm-3.9125-2.4438q0.3625-0.625 0.9125-0.925 0.55625-0.30625 1.325-0.30625 1.275 0 2.0688 1.0125 0.8 1.0125 0.8 2.6625t-0.8 2.6625q-0.79375 1.0125-2.0688 1.0125-0.76875 0-1.325-0.3-0.55-0.30625-0.9125-0.93125v1.05h-1.1562v-9.725h1.1562z" style=""/>
   <path id="path1010" d="m359.13 280.93q0-1.2688-0.525-1.9875-0.51875-0.725-1.4312-0.725t-1.4375 0.725q-0.51875 0.71875-0.51875 1.9875t0.51875 1.9938q0.525 0.71875 1.4375 0.71875t1.4312-0.71875q0.525-0.725 0.525-1.9938zm-3.9125-2.4438q0.3625-0.625 0.9125-0.925 0.55625-0.30625 1.325-0.30625 1.275 0 2.0688 1.0125 0.8 1.0125 0.8 2.6625t-0.8 2.6625q-0.79375 1.0125-2.0688 1.0125-0.76875 0-1.325-0.3-0.55-0.30625-0.9125-0.93125v1.05h-1.1562v-9.725h1.1562z" style=""/>
   <path id="path1012" d="m362.23 277.42h1.15v7h-1.15zm0-2.725h1.15v1.4562h-1.15z" style=""/>
   <path id="path1014" d="m370.81 280.93q0-1.2688-0.525-1.9875-0.51875-0.725-1.4312-0.725t-1.4375 0.725q-0.51875 0.71875-0.51875 1.9875t0.51875 1.9938q0.525 0.71875 1.4375 0.71875t1.4312-0.71875q0.525-0.725 0.525-1.9938zm-3.9125-2.4438q0.3625-0.625 0.9125-0.925 0.55625-0.30625 1.325-0.30625 1.275 0 2.0688 1.0125 0.8 1.0125 0.8 2.6625t-0.8 2.6625q-0.79375 1.0125-2.0688 1.0125-0.76875 0-1.325-0.3-0.55-0.30625-0.9125-0.93125v1.05h-1.1562v-9.725h1.1562z" style=""/>
   <path id="path1016" d="m378.48 274.19h1.1125l-1.55 2.35h-0.84375zm-2.0875 0h1.0625l-1.3938 2.35h-0.85625zm0.23125 4.0438q-0.925 0-1.4625 0.725-0.5375 0.71875-0.5375 1.975t0.53125 1.9812q0.5375 0.71875 1.4688 0.71875 0.91875 0 1.4562-0.725t0.5375-1.975q0-1.2438-0.5375-1.9688-0.5375-0.73125-1.4562-0.73125zm0-0.975q1.5 0 2.3562 0.975t0.85625 2.7q0 1.7188-0.85625 2.7-0.85625 0.975-2.3562 0.975-1.5062 0-2.3625-0.975-0.85-0.98125-0.85-2.7 0-1.725 0.85-2.7 0.85625-0.975 2.3625-0.975z" style=""/>
   <path id="path1018" d="m381.73 274.7h1.15v9.725h-1.15z" style=""/>
   <path id="path1020" d="m389.36 274.7h1.15v9.725h-1.15z" style=""/>
   <path id="path1022" d="m398.89 280.64v0.5625h-5.2875q0.075 1.1875 0.7125 1.8125 0.64375 0.61875 1.7875 0.61875 0.6625 0 1.2812-0.1625 0.625-0.1625 1.2375-0.4875v1.0875q-0.61875 0.2625-1.2688 0.4t-1.3188 0.1375q-1.675 0-2.6562-0.975-0.975-0.975-0.975-2.6375 0-1.7188 0.925-2.725 0.93125-1.0125 2.5062-1.0125 1.4125 0 2.2312 0.9125 0.825 0.90625 0.825 2.4688zm-1.15-0.3375q-0.0125-0.94375-0.53125-1.5062-0.5125-0.5625-1.3625-0.5625-0.9625 0-1.5438 0.54375-0.575 0.54375-0.6625 1.5312z" style=""/>
   <path id="path1024" d="m405.39 280.84q0-1.25-0.51875-1.9375-0.5125-0.6875-1.4438-0.6875-0.925 0-1.4438 0.6875-0.5125 0.6875-0.5125 1.9375 0 1.2438 0.5125 1.9312 0.51875 0.6875 1.4438 0.6875 0.93125 0 1.4438-0.6875 0.51875-0.6875 0.51875-1.9312zm1.15 2.7125q0 1.7875-0.79375 2.6562-0.79375 0.875-2.4312 0.875-0.60625 0-1.1438-0.0937-0.5375-0.0875-1.0438-0.275v-1.1188q0.50625 0.275 1 0.40625t1.0062 0.13125q1.1312 0 1.6938-0.59375 0.5625-0.5875 0.5625-1.7812v-0.56875q-0.35625 0.61875-0.9125 0.925t-1.3312 0.30625q-1.2875 0-2.075-0.98125t-0.7875-2.6q0-1.625 0.7875-2.6062t2.075-0.98125q0.775 0 1.3312 0.30625t0.9125 0.925v-1.0625h1.15z" style=""/>
   <path id="path1026" d="m408.86 274.7h1.1562v5.7438l3.4312-3.0188h1.4688l-3.7125 3.275 3.8688 3.725h-1.5l-3.5562-3.4188v3.4188h-1.1562z" style=""/>
   <path id="path1028" d="m416.33 277.42h1.15v7h-1.15zm0-2.725h1.15v1.4562h-1.15z" style=""/>
   <path id="path1030" d="m424.34 277.63v1.0875q-0.4875-0.25-1.0125-0.375t-1.0875-0.125q-0.85625 0-1.2875 0.2625-0.425 0.2625-0.425 0.7875 0 0.4 0.30625 0.63125 0.30625 0.225 1.2312 0.43125l0.39375 0.0875q1.225 0.2625 1.7375 0.74375 0.51875 0.475 0.51875 1.3312 0 0.975-0.775 1.5438-0.76875 0.56875-2.1188 0.56875-0.5625 0-1.175-0.1125-0.60625-0.10625-1.2812-0.325v-1.1875q0.6375 0.33125 1.2562 0.5 0.61875 0.1625 1.225 0.1625 0.8125 0 1.25-0.275 0.4375-0.28125 0.4375-0.7875 0-0.46875-0.31875-0.71875-0.3125-0.25-1.3812-0.48125l-0.4-0.0937q-1.0688-0.225-1.5438-0.6875-0.475-0.46875-0.475-1.2812 0-0.9875 0.7-1.525t1.9875-0.5375q0.6375 0 1.2 0.0937t1.0375 0.28125z" style=""/>
   <path id="path1032" d="m432.54 280.64v0.5625h-5.2875q0.075 1.1875 0.7125 1.8125 0.64375 0.61875 1.7875 0.61875 0.6625 0 1.2812-0.1625 0.625-0.1625 1.2375-0.4875v1.0875q-0.61875 0.2625-1.2688 0.4t-1.3188 0.1375q-1.675 0-2.6562-0.975-0.975-0.975-0.975-2.6375 0-1.7188 0.925-2.725 0.93125-1.0125 2.5062-1.0125 1.4125 0 2.2312 0.9125 0.825 0.90625 0.825 2.4688zm-1.15-0.3375q-0.0125-0.94375-0.53125-1.5062-0.5125-0.5625-1.3625-0.5625-0.9625 0-1.5438 0.54375-0.575 0.54375-0.6625 1.5312z" style=""/>
   <path id="path1034" d="m439.46 280.93q0-1.2688-0.525-1.9875-0.51875-0.725-1.4312-0.725t-1.4375 0.725q-0.51875 0.71875-0.51875 1.9875t0.51875 1.9938q0.525 0.71875 1.4375 0.71875t1.4312-0.71875q0.525-0.725 0.525-1.9938zm-3.9125-2.4438q0.3625-0.625 0.9125-0.925 0.55625-0.30625 1.325-0.30625 1.275 0 2.0688 1.0125 0.8 1.0125 0.8 2.6625t-0.8 2.6625q-0.79375 1.0125-2.0688 1.0125-0.76875 0-1.325-0.3-0.55-0.30625-0.9125-0.93125v1.05h-1.1562v-9.725h1.1562z" style=""/>
   <path id="path1036" d="m447.58 280.93q0-1.2688-0.525-1.9875-0.51875-0.725-1.4312-0.725t-1.4375 0.725q-0.51875 0.71875-0.51875 1.9875t0.51875 1.9938q0.525 0.71875 1.4375 0.71875t1.4312-0.71875q0.525-0.725 0.525-1.9938zm-3.9125-2.4438q0.3625-0.625 0.9125-0.925 0.55625-0.30625 1.325-0.30625 1.275 0 2.0688 1.0125 0.8 1.0125 0.8 2.6625t-0.8 2.6625q-0.79375 1.0125-2.0688 1.0125-0.76875 0-1.325-0.3-0.55-0.30625-0.9125-0.93125v1.05h-1.1562v-9.725h1.1562z" style=""/>
   <path id="path1038" d="m456.67 280.64v0.5625h-5.2875q0.075 1.1875 0.7125 1.8125 0.64375 0.61875 1.7875 0.61875 0.6625 0 1.2812-0.1625 0.625-0.1625 1.2375-0.4875v1.0875q-0.61875 0.2625-1.2688 0.4t-1.3188 0.1375q-1.675 0-2.6562-0.975-0.975-0.975-0.975-2.6375 0-1.7188 0.925-2.725 0.93125-1.0125 2.5062-1.0125 1.4125 0 2.2312 0.9125 0.825 0.90625 0.825 2.4688zm-1.15-0.3375q-0.0125-0.94375-0.53125-1.5062-0.5125-0.5625-1.3625-0.5625-0.9625 0-1.5438 0.54375-0.575 0.54375-0.6625 1.5312z" style=""/>
   <path id="path1040" d="m459.69 275.44v1.9875h2.3688v0.89375h-2.3688v3.8q0 0.85625 0.23125 1.1 0.2375 0.24375 0.95625 0.24375h1.1812v0.9625h-1.1812q-1.3312 0-1.8375-0.49375-0.50625-0.5-0.50625-1.8125v-3.8h-0.84375v-0.89375h0.84375v-1.9875z" style=""/>
   <path id="path1042" d="m470.84 280.91q-1.3938 0-1.9312 0.31875t-0.5375 1.0875q0 0.6125 0.4 0.975 0.40625 0.35625 1.1 0.35625 0.95625 0 1.5312-0.675 0.58125-0.68125 0.58125-1.8062v-0.25625zm2.2938-0.475v3.9938h-1.15v-1.0625q-0.39375 0.6375-0.98125 0.94375-0.5875 0.3-1.4375 0.3-1.075 0-1.7125-0.6-0.63125-0.60625-0.63125-1.6188 0-1.1812 0.7875-1.7812 0.79375-0.6 2.3625-0.6h1.6125v-0.1125q0-0.79375-0.525-1.225-0.51875-0.4375-1.4625-0.4375-0.6 0-1.1688 0.14375t-1.0938 0.43125v-1.0625q0.63125-0.24375 1.225-0.3625 0.59375-0.125 1.1562-0.125 1.5188 0 2.2688 0.7875t0.75 2.3875z" style=""/>
   <path id="path1044" d="m485.03 278.77q0.43125-0.775 1.0312-1.1438t1.4125-0.36875q1.0938 0 1.6875 0.76875 0.59375 0.7625 0.59375 2.175v4.225h-1.1562v-4.1875q0-1.0062-0.35625-1.4938t-1.0875-0.4875q-0.89375 0-1.4125 0.59375t-0.51875 1.6188v3.9562h-1.1562v-4.1875q0-1.0125-0.35625-1.4938-0.35625-0.4875-1.1-0.4875-0.88125 0-1.4 0.6-0.51875 0.59375-0.51875 1.6125v3.9562h-1.1562v-7h1.1562v1.0875q0.39375-0.64375 0.94375-0.95t1.3062-0.30625q0.7625 0 1.2938 0.3875 0.5375 0.3875 0.79375 1.125z" style=""/>
   <path id="path1046" d="m495.24 280.91q-1.3938 0-1.9312 0.31875t-0.5375 1.0875q0 0.6125 0.4 0.975 0.40625 0.35625 1.1 0.35625 0.95625 0 1.5312-0.675 0.58125-0.68125 0.58125-1.8062v-0.25625zm2.2938-0.475v3.9938h-1.15v-1.0625q-0.39375 0.6375-0.98125 0.94375-0.5875 0.3-1.4375 0.3-1.075 0-1.7125-0.6-0.63125-0.60625-0.63125-1.6188 0-1.1812 0.7875-1.7812 0.79375-0.6 2.3625-0.6h1.6125v-0.1125q0-0.79375-0.525-1.225-0.51875-0.4375-1.4625-0.4375-0.6 0-1.1688 0.14375t-1.0938 0.43125v-1.0625q0.63125-0.24375 1.225-0.3625 0.59375-0.125 1.1562-0.125 1.5188 0 2.2688 0.7875t0.75 2.3875zm-2.1-6.2438h1.2438l-2.0375 2.35h-0.95625z" style=""/>
   <path id="path1048" d="m504.37 277.63v1.0875q-0.4875-0.25-1.0125-0.375t-1.0875-0.125q-0.85625 0-1.2875 0.2625-0.425 0.2625-0.425 0.7875 0 0.4 0.30625 0.63125 0.30625 0.225 1.2312 0.43125l0.39375 0.0875q1.225 0.2625 1.7375 0.74375 0.51875 0.475 0.51875 1.3312 0 0.975-0.775 1.5438-0.76875 0.56875-2.1188 0.56875-0.5625 0-1.175-0.1125-0.60625-0.10625-1.2812-0.325v-1.1875q0.6375 0.33125 1.2562 0.5 0.61875 0.1625 1.225 0.1625 0.8125 0 1.25-0.275 0.4375-0.28125 0.4375-0.7875 0-0.46875-0.31875-0.71875-0.3125-0.25-1.3812-0.48125l-0.4-0.0937q-1.0688-0.225-1.5438-0.6875-0.475-0.46875-0.475-1.2812 0-0.9875 0.7-1.525t1.9875-0.5375q0.6375 0 1.2 0.0937t1.0375 0.28125z" style=""/>
   <path id="path1050" d="m509.29 278.23q-0.925 0-1.4625 0.725-0.5375 0.71875-0.5375 1.975t0.53125 1.9812q0.5375 0.71875 1.4688 0.71875 0.91875 0 1.4562-0.725t0.5375-1.975q0-1.2438-0.5375-1.9688-0.5375-0.73125-1.4562-0.73125zm0-0.975q1.5 0 2.3562 0.975t0.85625 2.7q0 1.7188-0.85625 2.7-0.85625 0.975-2.3562 0.975-1.5062 0-2.3625-0.975-0.85-0.98125-0.85-2.7 0-1.725 0.85-2.7 0.85625-0.975 2.3625-0.975z" style=""/>
   <path id="path1052" d="m519.01 278.49v-3.7875h1.15v9.725h-1.15v-1.05q-0.3625 0.625-0.91875 0.93125-0.55 0.3-1.325 0.3-1.2688 0-2.0688-1.0125-0.79375-1.0125-0.79375-2.6625t0.79375-2.6625q0.8-1.0125 2.0688-1.0125 0.775 0 1.325 0.30625 0.55625 0.3 0.91875 0.925zm-3.9188 2.4438q0 1.2688 0.51875 1.9938 0.525 0.71875 1.4375 0.71875t1.4375-0.71875q0.525-0.725 0.525-1.9938t-0.525-1.9875q-0.525-0.725-1.4375-0.725t-1.4375 0.725q-0.51875 0.71875-0.51875 1.9875z" style=""/>
   <path id="path1054" d="m522.53 277.42h1.15v7h-1.15zm0-2.725h1.15v1.4562h-1.15z" style=""/>
   <path id="path1056" d="m526.04 274.7h1.1562v5.7438l3.4312-3.0188h1.4688l-3.7125 3.275 3.8688 3.725h-1.5l-3.5562-3.4188v3.4188h-1.1562z" style=""/>
   <path id="path1058" d="m533.46 274.7h1.1562v5.7438l3.4312-3.0188h1.4688l-3.7125 3.275 3.8688 3.725h-1.5l-3.5562-3.4188v3.4188h-1.1562z" style=""/>
   <path id="path1060" d="m543.89 280.91q-1.3938 0-1.9312 0.31875t-0.5375 1.0875q0 0.6125 0.4 0.975 0.40625 0.35625 1.1 0.35625 0.95625 0 1.5312-0.675 0.58125-0.68125 0.58125-1.8062v-0.25625zm2.2938-0.475v3.9938h-1.15v-1.0625q-0.39375 0.6375-0.98125 0.94375-0.5875 0.3-1.4375 0.3-1.075 0-1.7125-0.6-0.63125-0.60625-0.63125-1.6188 0-1.1812 0.7875-1.7812 0.79375-0.6 2.3625-0.6h1.6125v-0.1125q0-0.79375-0.525-1.225-0.51875-0.4375-1.4625-0.4375-0.6 0-1.1688 0.14375t-1.0938 0.43125v-1.0625q0.63125-0.24375 1.225-0.3625 0.59375-0.125 1.1562-0.125 1.5188 0 2.2688 0.7875t0.75 2.3875z" style=""/>
   <path id="path1062" d="m548.56 274.7h1.15v9.725h-1.15z" style=""/>
   <path id="path1064" d="m552.27 282.84h1.3188v1.5875h-1.3188z" style=""/>
   <path id="path1066" d="m556.34 282.84h1.3188v1.5875h-1.3188z" style=""/>
   <path id="path1068" d="m560.42 282.84h1.3188v1.5875h-1.3188z" style=""/>
  </g>
  <g id="g64">
   <path id="rect10" d="m320 300h40v40h-40z" fill="#3a739a" stroke="#000" stroke-width="2"/>
   <g id="text14" aria-label="1">
    <path id="path1072" d="m337.51 322.84h2.0625v-7.1188l-2.2438 0.45v-1.15l2.2312-0.45h1.2625v8.2688h2.0625v1.0625h-5.375z" style=""/>
   </g>
   <path id="rect16" d="m360 300h40v40h-40z" fill="#a3bbcc" stroke="#000" stroke-width="2"/>
   <g id="text20" aria-label="9">
    <path id="path1076" d="m377.33 323.71v-1.15q0.475 0.225 0.9625 0.34375t0.95625 0.11875q1.25 0 1.9062-0.8375 0.6625-0.84375 0.75625-2.5562-0.3625 0.5375-0.91875 0.825t-1.2312 0.2875q-1.4 0-2.2188-0.84375-0.8125-0.85-0.8125-2.3188 0-1.4375 0.85-2.3062t2.2625-0.86875q1.6188 0 2.4688 1.2438 0.85625 1.2375 0.85625 3.6 0 2.2062-1.05 3.525-1.0438 1.3125-2.8125 1.3125-0.475 0-0.9625-0.0937t-1.0125-0.28125zm2.5125-3.9562q0.85 0 1.3438-0.58125 0.5-0.58125 0.5-1.5938 0-1.0062-0.5-1.5875-0.49375-0.5875-1.3438-0.5875t-1.35 0.5875q-0.49375 0.58125-0.49375 1.5875 0 1.0125 0.49375 1.5938 0.5 0.58125 1.35 0.58125z" style=""/>
   </g>
   <path id="rect22" d="m400 300h40v40h-40z" fill="#eb680e" stroke="#000" stroke-width="2"/>
   <g id="text26" aria-label="2">
    <path id="path1080" d="m418.38 322.84h4.4062v1.0625h-5.925v-1.0625q0.71875-0.74375 1.9562-1.9938 1.2438-1.2562 1.5625-1.6188 0.60625-0.68125 0.84375-1.15 0.24375-0.475 0.24375-0.93125 0-0.74375-0.525-1.2125-0.51875-0.46875-1.3562-0.46875-0.59375 0-1.2562 0.20625-0.65625 0.20625-1.4062 0.625v-1.275q0.7625-0.30625 1.425-0.4625t1.2125-0.15625q1.45 0 2.3125 0.725t0.8625 1.9375q0 0.575-0.21875 1.0938-0.2125 0.5125-0.78125 1.2125-0.15625 0.18125-0.99375 1.05-0.8375 0.8625-2.3625 2.4188z" style=""/>
   </g>
   <path id="rect28" d="m440 300h40v40h-40z" fill="#fff" stroke="#000" stroke-width="2"/>
   <g id="text32" aria-label="7">
    <path id="path1084" d="m456.98 314.57h6v0.5375l-3.3875 8.7938h-1.3188l3.1875-8.2688h-4.4812z" style=""/>
   </g>
   <path id="rect34" d="m480 300h40v40h-40z" fill="#fff" stroke="#000" stroke-width="2"/>
   <g id="text38" aria-label="5">
    <path id="path1088" d="m497.31 314.57h4.9562v1.0625h-3.8v2.2875q0.275-0.0937 0.55-0.1375 0.275-0.05 0.55-0.05 1.5625 0 2.475 0.85625t0.9125 2.3188q0 1.5062-0.9375 2.3438-0.9375 0.83125-2.6438 0.83125-0.5875 0-1.2-0.1-0.60625-0.1-1.2562-0.3v-1.2688q0.5625 0.30625 1.1625 0.45625t1.2688 0.15q1.0812 0 1.7125-0.56875t0.63125-1.5438-0.63125-1.5438-1.7125-0.56875q-0.50625 0-1.0125 0.1125-0.5 0.1125-1.025 0.35z" style=""/>
   </g>
   <path id="rect40" d="m520 300h40v40h-40z" fill="#fff" stroke="#000" stroke-width="2"/>
   <g id="text44" aria-label="3">
    <path id="path1092" d="m541.12 318.87q0.90625 0.19375 1.4125 0.80625 0.5125 0.6125 0.5125 1.5125 0 1.3812-0.95 2.1375t-2.7 0.75625q-0.5875 0-1.2125-0.11875-0.61875-0.1125-1.2812-0.34375v-1.2188q0.525 0.30625 1.15 0.4625t1.3062 0.15625q1.1875 0 1.8062-0.46875 0.625-0.46875 0.625-1.3625 0-0.825-0.58125-1.2875-0.575-0.46875-1.6062-0.46875h-1.0875v-1.0375h1.1375q0.93125 0 1.425-0.36875 0.49375-0.375 0.49375-1.075 0-0.71875-0.5125-1.1-0.50625-0.3875-1.4562-0.3875-0.51875 0-1.1125 0.1125t-1.3062 0.35v-1.125q0.71875-0.2 1.3438-0.3 0.63125-0.1 1.1875-0.1 1.4375 0 2.275 0.65625 0.8375 0.65 0.8375 1.7625 0 0.775-0.44375 1.3125-0.44375 0.53125-1.2625 0.7375z" style=""/>
   </g>
   <path id="rect46" d="m560 300h40v40h-40z" fill="#fff" stroke="#000" stroke-width="2"/>
   <g id="text50" aria-label="4">
    <path id="path1096" d="m580.76 315.67-3.1875 4.9812h3.1875zm-0.33125-1.1h1.5875v6.0812h1.3312v1.05h-1.3312v2.2h-1.2562v-2.2h-4.2125v-1.2188z" style=""/>
   </g>
   <path id="polyline52" d="m380 349.74v10.264h40v-10.264" fill="none" stroke="#000" stroke-width="2"/>
   <path id="polygon54" d="m380 349.74-5 2.5 5-10 5 10z" fill-rule="evenodd" stroke="#000" stroke-width="2"/>
   <path id="polygon56" d="m420 349.74-5 2.5 5-10 5 10z" fill-rule="evenodd" stroke="#000" stroke-width="2"/>
   <path id="rect58" d="m600 300h40v40h-40z" fill="#fff" stroke="#000" stroke-width="2"/>
   <g id="text62" aria-label="8">
    <path id="path1103" d="m619.99 319.47q-0.9 0-1.4188 0.48125-0.5125 0.48125-0.5125 1.325t0.5125 1.325q0.51875 0.48125 1.4188 0.48125t1.4188-0.48125q0.51875-0.4875 0.51875-1.325 0-0.84375-0.51875-1.325-0.5125-0.48125-1.4188-0.48125zm-1.2625-0.5375q-0.8125-0.2-1.2688-0.75625-0.45-0.55625-0.45-1.3562 0-1.1188 0.79375-1.7688 0.8-0.65 2.1875-0.65 1.3938 0 2.1875 0.65t0.79375 1.7688q0 0.8-0.45625 1.3562-0.45 0.55625-1.2562 0.75625 0.9125 0.2125 1.4188 0.83125 0.5125 0.61875 0.5125 1.5125 0 1.3562-0.83125 2.0812-0.825 0.725-2.3688 0.725t-2.375-0.725q-0.825-0.725-0.825-2.0812 0-0.89375 0.5125-1.5125t1.425-0.83125zm-0.4625-1.9938q0 0.725 0.45 1.1312 0.45625 0.40625 1.275 0.40625 0.8125 0 1.2688-0.40625 0.4625-0.40625 0.4625-1.1312t-0.4625-1.1312q-0.45625-0.40625-1.2688-0.40625-0.81875 0-1.275 0.40625-0.45 0.40625-0.45 1.1312z" style=""/>
   </g>
  </g>
  <g id="g120">
   <path id="rect66" d="m320 380h40v40h-40z" fill="#3a739a" stroke="#000" stroke-width="2"/>
   <g id="text70" aria-label="1">
    <path id="path1107" d="m337.51 402.84h2.0625v-7.1188l-2.2438 0.45v-1.15l2.2312-0.45h1.2625v8.2688h2.0625v1.0625h-5.375z" style=""/>
   </g>
   <path id="rect72" d="m360 380h40v40h-40z" fill="#3a739a" stroke="#000" stroke-width="2"/>
   <g id="text76" aria-label="2">
    <path id="path1111" d="m378.38 402.84h4.4062v1.0625h-5.925v-1.0625q0.71875-0.74375 1.9562-1.9938 1.2438-1.2562 1.5625-1.6188 0.60625-0.68125 0.84375-1.15 0.24375-0.475 0.24375-0.93125 0-0.74375-0.525-1.2125-0.51875-0.46875-1.3562-0.46875-0.59375 0-1.2562 0.20625-0.65625 0.20625-1.4062 0.625v-1.275q0.7625-0.30625 1.425-0.4625t1.2125-0.15625q1.45 0 2.3125 0.725t0.8625 1.9375q0 0.575-0.21875 1.0938-0.2125 0.5125-0.78125 1.2125-0.15625 0.18125-0.99375 1.05-0.8375 0.8625-2.3625 2.4188z" style=""/>
   </g>
   <path id="rect78" d="m400 380h40v40h-40z" fill="#a3bbcc" stroke="#000" stroke-width="2"/>
   <g id="text82" aria-label="9">
    <path id="path1115" d="m417.33 403.71v-1.15q0.475 0.225 0.9625 0.34375t0.95625 0.11875q1.25 0 1.9062-0.8375 0.6625-0.84375 0.75625-2.5562-0.3625 0.5375-0.91875 0.825t-1.2312 0.2875q-1.4 0-2.2188-0.84375-0.8125-0.85-0.8125-2.3188 0-1.4375 0.85-2.3062t2.2625-0.86875q1.6188 0 2.4688 1.2438 0.85625 1.2375 0.85625 3.6 0 2.2062-1.05 3.525-1.0438 1.3125-2.8125 1.3125-0.475 0-0.9625-0.0937t-1.0125-0.28125zm2.5125-3.9562q0.85 0 1.3438-0.58125 0.5-0.58125 0.5-1.5938 0-1.0062-0.5-1.5875-0.49375-0.5875-1.3438-0.5875t-1.35 0.5875q-0.49375 0.58125-0.49375 1.5875 0 1.0125 0.49375 1.5938 0.5 0.58125 1.35 0.58125z" style=""/>
   </g>
   <path id="rect84" d="m440 380h40v40h-40z" fill="#fff" stroke="#000" stroke-width="2"/>
   <g id="text88" aria-label="7">
    <path id="path1119" d="m456.98 394.57h6v0.5375l-3.3875 8.7938h-1.3188l3.1875-8.2688h-4.4812z" style=""/>
   </g>
   <path id="rect90" d="m480 380h40v40h-40z" fill="#fff" stroke="#000" stroke-width="2"/>
   <g id="text94" aria-label="5">
    <path id="path1123" d="m497.31 394.57h4.9562v1.0625h-3.8v2.2875q0.275-0.0937 0.55-0.1375 0.275-0.05 0.55-0.05 1.5625 0 2.475 0.85625t0.9125 2.3188q0 1.5062-0.9375 2.3438-0.9375 0.83125-2.6438 0.83125-0.5875 0-1.2-0.1-0.60625-0.1-1.2562-0.3v-1.2688q0.5625 0.30625 1.1625 0.45625t1.2688 0.15q1.0812 0 1.7125-0.56875t0.63125-1.5438-0.63125-1.5438-1.7125-0.56875q-0.50625 0-1.0125 0.1125-0.5 0.1125-1.025 0.35z" style=""/>
   </g>
   <path id="rect96" d="m520 380h40v40h-40z" fill="#eb680e" stroke="#000" stroke-width="2"/>
   <g id="text100" aria-label="3">
    <path id="path1127" d="m541.12 398.87q0.90625 0.19375 1.4125 0.80625 0.5125 0.6125 0.5125 1.5125 0 1.3812-0.95 2.1375t-2.7 0.75625q-0.5875 0-1.2125-0.11875-0.61875-0.1125-1.2812-0.34375v-1.2188q0.525 0.30625 1.15 0.4625t1.3062 0.15625q1.1875 0 1.8062-0.46875 0.625-0.46875 0.625-1.3625 0-0.825-0.58125-1.2875-0.575-0.46875-1.6062-0.46875h-1.0875v-1.0375h1.1375q0.93125 0 1.425-0.36875 0.49375-0.375 0.49375-1.075 0-0.71875-0.5125-1.1-0.50625-0.3875-1.4562-0.3875-0.51875 0-1.1125 0.1125t-1.3062 0.35v-1.125q0.71875-0.2 1.3438-0.3 0.63125-0.1 1.1875-0.1 1.4375 0 2.275 0.65625 0.8375 0.65 0.8375 1.7625 0 0.775-0.44375 1.3125-0.44375 0.53125-1.2625 0.7375z" style=""/>
   </g>
   <path id="rect102" d="m560 380h40v40h-40z" fill="#fff" stroke="#000" stroke-width="2"/>
   <g id="text106" aria-label="4">
    <path id="path1131" d="m580.76 395.67-3.1875 4.9812h3.1875zm-0.33125-1.1h1.5875v6.0812h1.3312v1.05h-1.3312v2.2h-1.2562v-2.2h-4.2125v-1.2188z" style=""/>
   </g>
   <path id="polyline108" d="m429.19 423.22 50.811 17.784 50.811-17.784" fill="none" stroke="#000" stroke-width="2"/>
   <path id="polygon110" d="m429.19 423.22 0.708 5.545-7.786-8.022 11.09-1.416z" fill-rule="evenodd" stroke="#000" stroke-width="2"/>
   <path id="polygon112" d="m530.81 423.22-4.012-3.893 11.09 1.416-7.786 8.022z" fill-rule="evenodd" stroke="#000" stroke-width="2"/>
   <path id="rect114" d="m600 380h40v40h-40z" fill="#fff" stroke="#000" stroke-width="2"/>
   <g id="text118" aria-label="8">
    <path id="path1138" d="m619.99 399.47q-0.9 0-1.4188 0.48125-0.5125 0.48125-0.5125 1.325t0.5125 1.325q0.51875 0.48125 1.4188 0.48125t1.4188-0.48125q0.51875-0.4875 0.51875-1.325 0-0.84375-0.51875-1.325-0.5125-0.48125-1.4188-0.48125zm-1.2625-0.5375q-0.8125-0.2-1.2688-0.75625-0.45-0.55625-0.45-1.3562 0-1.1188 0.79375-1.7688 0.8-0.65 2.1875-0.65 1.3938 0 2.1875 0.65t0.79375 1.7688q0 0.8-0.45625 1.3562-0.45 0.55625-1.2562 0.75625 0.9125 0.2125 1.4188 0.83125 0.5125 0.61875 0.5125 1.5125 0 1.3562-0.83125 2.0812-0.825 0.725-2.3688 0.725t-2.375-0.725q-0.825-0.725-0.825-2.0812 0-0.89375 0.5125-1.5125t1.425-0.83125zm-0.4625-1.9938q0 0.725 0.45 1.1312 0.45625 0.40625 1.275 0.40625 0.8125 0 1.2688-0.40625 0.4625-0.40625 0.4625-1.1312t-0.4625-1.1312q-0.45625-0.40625-1.2688-0.40625-0.81875 0-1.275 0.40625-0.45 0.40625-0.45 1.1312z" style=""/>
   </g>
  </g>
  <g id="g176">
   <path id="rect122" d="m320 460h40v40h-40z" fill="#3a739a" stroke="#000" stroke-width="2"/>
   <g id="text126" aria-label="1">
    <path id="path1142" d="m337.51 482.84h2.0625v-7.1188l-2.2438 0.45v-1.15l2.2312-0.45h1.2625v8.2688h2.0625v1.0625h-5.375z" style=""/>
   </g>
   <path id="rect128" d="m360 460h40v40h-40z" fill="#3a739a" stroke="#000" stroke-width="2"/>
   <g id="text132" aria-label="2">
    <path id="path1146" d="m378.38 482.84h4.4062v1.0625h-5.925v-1.0625q0.71875-0.74375 1.9562-1.9938 1.2438-1.2562 1.5625-1.6188 0.60625-0.68125 0.84375-1.15 0.24375-0.475 0.24375-0.93125 0-0.74375-0.525-1.2125-0.51875-0.46875-1.3562-0.46875-0.59375 0-1.2562 0.20625-0.65625 0.20625-1.4062 0.625v-1.275q0.7625-0.30625 1.425-0.4625t1.2125-0.15625q1.45 0 2.3125 0.725t0.8625 1.9375q0 0.575-0.21875 1.0938-0.2125 0.5125-0.78125 1.2125-0.15625 0.18125-0.99375 1.05-0.8375 0.8625-2.3625 2.4188z" style=""/>
   </g>
   <path id="rect134" d="m400 460h40v40h-40z" fill="#3a739a" stroke="#000" stroke-width="2"/>
   <g id="text138" aria-label="3">
    <path id="path1150" d="m421.12 478.87q0.90625 0.19375 1.4125 0.80625 0.5125 0.6125 0.5125 1.5125 0 1.3812-0.95 2.1375t-2.7 0.75625q-0.5875 0-1.2125-0.11875-0.61875-0.1125-1.2812-0.34375v-1.2188q0.525 0.30625 1.15 0.4625t1.3062 0.15625q1.1875 0 1.8062-0.46875 0.625-0.46875 0.625-1.3625 0-0.825-0.58125-1.2875-0.575-0.46875-1.6062-0.46875h-1.0875v-1.0375h1.1375q0.93125 0 1.425-0.36875 0.49375-0.375 0.49375-1.075 0-0.71875-0.5125-1.1-0.50625-0.3875-1.4562-0.3875-0.51875 0-1.1125 0.1125t-1.3062 0.35v-1.125q0.71875-0.2 1.3438-0.3 0.63125-0.1 1.1875-0.1 1.4375 0 2.275 0.65625 0.8375 0.65 0.8375 1.7625 0 0.775-0.44375 1.3125-0.44375 0.53125-1.2625 0.7375z" style=""/>
   </g>
   <path id="rect140" d="m440 460h40v40h-40z" fill="#a3bbcc" stroke="#000" stroke-width="2"/>
   <g id="text144" aria-label="7">
    <path id="path1154" d="m456.98 474.57h6v0.5375l-3.3875 8.7938h-1.3188l3.1875-8.2688h-4.4812z" style=""/>
   </g>
   <path id="rect146" d="m480 460h40v40h-40z" fill="#fff" stroke="#000" stroke-width="2"/>
   <g id="text150" aria-label="5">
    <path id="path1158" d="m497.31 474.57h4.9562v1.0625h-3.8v2.2875q0.275-0.0937 0.55-0.1375 0.275-0.05 0.55-0.05 1.5625 0 2.475 0.85625t0.9125 2.3188q0 1.5062-0.9375 2.3438-0.9375 0.83125-2.6438 0.83125-0.5875 0-1.2-0.1-0.60625-0.1-1.2562-0.3v-1.2688q0.5625 0.30625 1.1625 0.45625t1.2688 0.15q1.0812 0 1.7125-0.56875t0.63125-1.5438-0.63125-1.5438-1.7125-0.56875q-0.50625 0-1.0125 0.1125-0.5 0.1125-1.025 0.35z" style=""/>
   </g>
   <path id="rect152" d="m520 460h40v40h-40z" fill="#fff" stroke="#000" stroke-width="2"/>
   <g id="text156" aria-label="9">
    <path id="path1162" d="m537.33 483.71v-1.15q0.475 0.225 0.9625 0.34375t0.95625 0.11875q1.25 0 1.9062-0.8375 0.6625-0.84375 0.75625-2.5562-0.3625 0.5375-0.91875 0.825t-1.2312 0.2875q-1.4 0-2.2188-0.84375-0.8125-0.85-0.8125-2.3188 0-1.4375 0.85-2.3062t2.2625-0.86875q1.6188 0 2.4688 1.2438 0.85625 1.2375 0.85625 3.6 0 2.2062-1.05 3.525-1.0438 1.3125-2.8125 1.3125-0.475 0-0.9625-0.0937t-1.0125-0.28125zm2.5125-3.9562q0.85 0 1.3438-0.58125 0.5-0.58125 0.5-1.5938 0-1.0062-0.5-1.5875-0.49375-0.5875-1.3438-0.5875t-1.35 0.5875q-0.49375 0.58125-0.49375 1.5875 0 1.0125 0.49375 1.5938 0.5 0.58125 1.35 0.58125z" style=""/>
   </g>
   <path id="rect158" d="m560 460h40v40h-40z" fill="#eb680e" stroke="#000" stroke-width="2"/>
   <g id="text162" aria-label="4">
    <path id="path1166" d="m580.76 475.67-3.1875 4.9812h3.1875zm-0.33125-1.1h1.5875v6.0812h1.3312v1.05h-1.3312v2.2h-1.2562v-2.2h-4.2125v-1.2188z" style=""/>
   </g>
   <path id="polyline164" d="m469.19 503.22 50.811 17.784 50.811-17.784" fill="none" stroke="#000" stroke-width="2"/>
   <path id="polygon166" d="m469.19 503.22 0.708 5.545-7.786-8.022 11.09-1.416z" fill-rule="evenodd" stroke="#000" stroke-width="2"/>
   <path id="polygon168" d="m570.81 503.22-4.012-3.893 11.09 1.416-7.786 8.022z" fill-rule="evenodd" stroke="#000" stroke-width="2"/>
   <path id="rect170" d="m600 460h40v40h-40z" fill="#fff" stroke="#000" stroke-width="2"/>
   <g id="text174" aria-label="8">
    <path id="path1173" d="m619.99 479.47q-0.9 0-1.4188 0.48125-0.5125 0.48125-0.5125 1.325t0.5125 1.325q0.51875 0.48125 1.4188 0.48125t1.4188-0.48125q0.51875-0.4875 0.51875-1.325 0-0.84375-0.51875-1.325-0.5125-0.48125-1.4188-0.48125zm-1.2625-0.5375q-0.8125-0.2-1.2688-0.75625-0.45-0.55625-0.45-1.3562 0-1.1188 0.79375-1.7688 0.8-0.65 2.1875-0.65 1.3938 0 2.1875 0.65t0.79375 1.7688q0 0.8-0.45625 1.3562-0.45 0.55625-1.2562 0.75625 0.9125 0.2125 1.4188 0.83125 0.5125 0.61875 0.5125 1.5125 0 1.3562-0.83125 2.0812-0.825 0.725-2.3688 0.725t-2.375-0.725q-0.825-0.725-0.825-2.0812 0-0.89375 0.5125-1.5125t1.425-0.83125zm-0.4625-1.9938q0 0.725 0.45 1.1312 0.45625 0.40625 1.275 0.40625 0.8125 0 1.2688-0.40625 0.4625-0.40625 0.4625-1.1312t-0.4625-1.1312q-0.45625-0.40625-1.2688-0.40625-0.81875 0-1.275 0.40625-0.45 0.40625-0.45 1.1312z" style=""/>
   </g>
  </g>
  <g id="g232">
   <path id="rect178" d="m320 200h40v40h-40z" fill="#a3bbcc" stroke="#000" stroke-width="2"/>
   <g id="text182" aria-label="3">
    <path id="path1177" d="m341.12 218.87q0.90625 0.19375 1.4125 0.80625 0.5125 0.6125 0.5125 1.5125 0 1.3812-0.95 2.1375t-2.7 0.75625q-0.5875 0-1.2125-0.11875-0.61875-0.1125-1.2812-0.34375v-1.2188q0.525 0.30625 1.15 0.4625t1.3062 0.15625q1.1875 0 1.8062-0.46875 0.625-0.46875 0.625-1.3625 0-0.825-0.58125-1.2875-0.575-0.46875-1.6062-0.46875h-1.0875v-1.0375h1.1375q0.93125 0 1.425-0.36875 0.49375-0.375 0.49375-1.075 0-0.71875-0.5125-1.1-0.50625-0.3875-1.4562-0.3875-0.51875 0-1.1125 0.1125t-1.3062 0.35v-1.125q0.71875-0.2 1.3438-0.3 0.63125-0.1 1.1875-0.1 1.4375 0 2.275 0.65625 0.8375 0.65 0.8375 1.7625 0 0.775-0.44375 1.3125-0.44375 0.53125-1.2625 0.7375z" style=""/>
   </g>
   <path id="rect184" d="m360 200h40v40h-40z" fill="#fff" stroke="#000" stroke-width="2"/>
   <g id="text188" aria-label="9">
    <path id="path1181" d="m377.33 223.71v-1.15q0.475 0.225 0.9625 0.34375t0.95625 0.11875q1.25 0 1.9062-0.8375 0.6625-0.84375 0.75625-2.5562-0.3625 0.5375-0.91875 0.825t-1.2312 0.2875q-1.4 0-2.2188-0.84375-0.8125-0.85-0.8125-2.3188 0-1.4375 0.85-2.3062t2.2625-0.86875q1.6188 0 2.4688 1.2438 0.85625 1.2375 0.85625 3.6 0 2.2062-1.05 3.525-1.0438 1.3125-2.8125 1.3125-0.475 0-0.9625-0.0937t-1.0125-0.28125zm2.5125-3.9562q0.85 0 1.3438-0.58125 0.5-0.58125 0.5-1.5938 0-1.0062-0.5-1.5875-0.49375-0.5875-1.3438-0.5875t-1.35 0.5875q-0.49375 0.58125-0.49375 1.5875 0 1.0125 0.49375 1.5938 0.5 0.58125 1.35 0.58125z" style=""/>
   </g>
   <path id="rect190" d="m400 200h40v40h-40z" fill="#fff" stroke="#000" stroke-width="2"/>
   <g id="text194" aria-label="2">
    <path id="path1185" d="m418.38 222.84h4.4062v1.0625h-5.925v-1.0625q0.71875-0.74375 1.9562-1.9938 1.2438-1.2562 1.5625-1.6188 0.60625-0.68125 0.84375-1.15 0.24375-0.475 0.24375-0.93125 0-0.74375-0.525-1.2125-0.51875-0.46875-1.3562-0.46875-0.59375 0-1.2562 0.20625-0.65625 0.20625-1.4062 0.625v-1.275q0.7625-0.30625 1.425-0.4625t1.2125-0.15625q1.45 0 2.3125 0.725t0.8625 1.9375q0 0.575-0.21875 1.0938-0.2125 0.5125-0.78125 1.2125-0.15625 0.18125-0.99375 1.05-0.8375 0.8625-2.3625 2.4188z" style=""/>
   </g>
   <path id="rect196" d="m440 200h40v40h-40z" fill="#fff" stroke="#000" stroke-width="2"/>
   <g id="text200" aria-label="7">
    <path id="path1189" d="m456.98 214.57h6v0.5375l-3.3875 8.7938h-1.3188l3.1875-8.2688h-4.4812z" style=""/>
   </g>
   <path id="rect202" d="m480 200h40v40h-40z" fill="#fff" stroke="#000" stroke-width="2"/>
   <g id="text206" aria-label="5">
    <path id="path1193" d="m497.31 214.57h4.9562v1.0625h-3.8v2.2875q0.275-0.0937 0.55-0.1375 0.275-0.05 0.55-0.05 1.5625 0 2.475 0.85625t0.9125 2.3188q0 1.5062-0.9375 2.3438-0.9375 0.83125-2.6438 0.83125-0.5875 0-1.2-0.1-0.60625-0.1-1.2562-0.3v-1.2688q0.5625 0.30625 1.1625 0.45625t1.2688 0.15q1.0812 0 1.7125-0.56875t0.63125-1.5438-0.63125-1.5438-1.7125-0.56875q-0.50625 0-1.0125 0.1125-0.5 0.1125-1.025 0.35z" style=""/>
   </g>
   <path id="rect208" d="m520 200h40v40h-40z" fill="#eb680e" stroke="#000" stroke-width="2"/>
   <g id="text212" aria-label="1">
    <path id="path1197" d="m537.51 222.84h2.0625v-7.1188l-2.2438 0.45v-1.15l2.2312-0.45h1.2625v8.2688h2.0625v1.0625h-5.375z" style=""/>
   </g>
   <path id="rect214" d="m560 200h40v40h-40z" fill="#fff" stroke="#000" stroke-width="2"/>
   <g id="text218" aria-label="4">
    <path id="path1201" d="m580.76 215.67-3.1875 4.9812h3.1875zm-0.33125-1.1h1.5875v6.0812h1.3312v1.05h-1.3312v2.2h-1.2562v-2.2h-4.2125v-1.2188z" style=""/>
   </g>
   <path id="polyline220" d="m340 249.74v10.264h200v-10.264" fill="none" stroke="#000" stroke-width="2"/>
   <path id="polygon222" d="m340 249.74-5 2.5 5-10 5 10z" fill-rule="evenodd" stroke="#000" stroke-width="2"/>
   <path id="polygon224" d="m540 249.74-5 2.5 5-10 5 10z" fill-rule="evenodd" stroke="#000" stroke-width="2"/>
   <path id="rect226" d="m600 200h40v40h-40z" fill="#fff" stroke="#000" stroke-width="2"/>
   <g id="text230" aria-label="8">
    <path id="path1208" d="m619.99 219.47q-0.9 0-1.4188 0.48125-0.5125 0.48125-0.5125 1.325t0.5125 1.325q0.51875 0.48125 1.4188 0.48125t1.4188-0.48125q0.51875-0.4875 0.51875-1.325 0-0.84375-0.51875-1.325-0.5125-0.48125-1.4188-0.48125zm-1.2625-0.5375q-0.8125-0.2-1.2688-0.75625-0.45-0.55625-0.45-1.3562 0-1.1188 0.79375-1.7688 0.8-0.65 2.1875-0.65 1.3938 0 2.1875 0.65t0.79375 1.7688q0 0.8-0.45625 1.3562-0.45 0.55625-1.2562 0.75625 0.9125 0.2125 1.4188 0.83125 0.5125 0.61875 0.5125 1.5125 0 1.3562-0.83125 2.0812-0.825 0.725-2.3688 0.725t-2.375-0.725q-0.825-0.725-0.825-2.0812 0-0.89375 0.5125-1.5125t1.425-0.83125zm-0.4625-1.9938q0 0.725 0.45 1.1312 0.45625 0.40625 1.275 0.40625 0.8125 0 1.2688-0.40625 0.4625-0.40625 0.4625-1.1312t-0.4625-1.1312q-0.45625-0.40625-1.2688-0.40625-0.81875 0-1.275 0.40625-0.45 0.40625-0.45 1.1312z" style=""/>
   </g>
  </g>
 </g>
</svg>
