<?xml version="1.0" encoding="UTF-8"?>
<svg id="svg171" width="20.948cm" height="10.533cm" version="1.1" viewBox="559 295 405 197.26" xmlns="http://www.w3.org/2000/svg" xmlns:cc="http://creativecommons.org/ns#" xmlns:dc="http://purl.org/dc/elements/1.1/" xmlns:rdf="http://www.w3.org/1999/02/22-rdf-syntax-ns#">
 <metadata id="metadata177">
  <rdf:RDF>
   <cc:Work rdf:about="">
    <dc:format>image/svg+xml</dc:format>
    <dc:type rdf:resource="http://purl.org/dc/dcmitype/StillImage"/>
   </cc:Work>
  </rdf:RDF>
 </metadata>
 <g id="Háttér" transform="translate(-1 -5.5514)">
  <g id="g8">
   <path id="ellipse2" d="m660 400a20 20 0 0 1-20 20 20 20 0 0 1-20-20 20 20 0 0 1 20-20 20 20 0 0 1 20 20z" fill="#7babe3" stroke="#000" stroke-width="2"/>
  </g>
  <g id="g14" fill="none" stroke="#000" stroke-width="2">
   <path id="line10" d="m560 400h55.528"/>
   <path id="polyline12" d="m607.76 405 10-5-10-5"/>
  </g>
  <g id="g22">
   <path id="ellipse16" d="m760 400a20 20 0 0 1-20 20 20 20 0 0 1-20-20 20 20 0 0 1 20-20 20 20 0 0 1 20 20z" fill="#7babe3" stroke="#000" stroke-width="2"/>
  </g>
  <g id="g28" fill="none" stroke="#000" stroke-width="2">
   <path id="line24" d="m660 400h55.528"/>
   <path id="polyline26" d="m707.76 405 10-5-10-5"/>
  </g>
  <g id="g36">
   <path id="ellipse30" d="m860 400a20 20 0 0 1-20 20 20 20 0 0 1-20-20 20 20 0 0 1 20-20 20 20 0 0 1 20 20z" fill="#f62e2e" stroke="#000" stroke-width="2"/>
   <g id="text34" aria-label="×">
    <path id="path101" d="m844.46 396.33-3.5267 3.5421 3.5267 3.5267-0.91832 0.93376-3.5421-3.5421-3.5421 3.5421-0.9106-0.93376 3.5189-3.5267-3.5189-3.5421 0.9106-0.93376 3.5421 3.5421 3.5421-3.5421z" style=""/>
   </g>
  </g>
  <g id="g42" fill="none" stroke="#000" stroke-width="2">
   <path id="line38" d="m760 400h55.528"/>
   <path id="polyline40" d="m807.76 405 10-5-10-5"/>
  </g>
  <g id="text46" aria-label="m">
   <path id="path106" d="m690.52 383.02q0.53247-0.95691 1.2733-1.4122t1.744-0.4553q1.3505 0 2.0836 0.94919 0.73311 0.94147 0.73311 2.6855v5.2167h-1.4276v-5.1704q0-1.2424-0.43987-1.8444-0.43987-0.60192-1.3428-0.60192-1.1035 0-1.744 0.73311-0.64051 0.73312-0.64051 1.9987v4.8849h-1.4276v-5.1704q0-1.2502-0.43987-1.8444-0.43987-0.60192-1.3582-0.60192-1.0881 0-1.7286 0.74083-0.64051 0.73311-0.64051 1.991v4.8849h-1.4276v-8.643h1.4276v1.3428q0.48617-0.79486 1.1653-1.173 0.6791-0.37813 1.6128-0.37813 0.94148 0 1.5974 0.47845 0.66366 0.47846 0.98006 1.3891z" style=""/>
  </g>
  <g id="text50" aria-label="é">
   <path id="path109" d="m794.02 385.32v0.69453h-6.5286q0.0926 1.4662 0.87973 2.2379 0.79485 0.76398 2.2071 0.76398 0.81801 0 1.582-0.20064 0.7717-0.20064 1.528-0.60193v1.3428q-0.76398 0.32412-1.5666 0.49389-0.80256 0.16977-1.6283 0.16977-2.0682 0-3.2797-1.2038-1.2039-1.2038-1.2039-3.2566 0-2.1222 1.1421-3.3646 1.1498-1.2502 3.0945-1.2502 1.744 0 2.755 1.1267 1.0186 1.119 1.0186 3.0482zm-1.4199-0.41671q-0.0154-1.1653-0.65595-1.8598-0.63279-0.69453-1.6823-0.69453-1.1884 0-1.9061 0.67138-0.70996 0.67138-0.818 1.8907zm-1.3659-7.5472h1.5357l-2.5157 2.9016h-1.1807z" style=""/>
  </g>
  <g id="g58">
   <path id="ellipse52" d="m964 400a24 24 0 0 1-24 24 24 24 0 0 1-24-24 24 24 0 0 1 24-24 24 24 0 0 1 24 24z" fill="#7babe3" stroke="#000" stroke-width="2"/>
  </g>
  <g id="g66">
   <path id="ellipse60" d="m960 400a20 20 0 0 1-20 20 20 20 0 0 1-20-20 20 20 0 0 1 20-20 20 20 0 0 1 20 20z" fill="#7babe3" stroke="#000" stroke-width="2"/>
  </g>
  <g id="g72" fill="none" stroke="#000" stroke-width="2">
   <path id="line68" d="m860 400h51.528"/>
   <path id="polyline70" d="m903.76 405 10-5-10-5"/>
  </g>
  <g id="text76" aria-label="z">
   <path id="path118" d="m886.72 381.36h6.7446v1.2964l-5.3402 6.2122h5.3402v1.1344h-6.9376v-1.2964l5.3402-6.2122h-5.1472z" style=""/>
  </g>
  <g id="g84">
   <path id="ellipse78" d="m760 320a20 20 0 0 1-20 20 20 20 0 0 1-20-20 20 20 0 0 1 20-20 20 20 0 0 1 20 20z" fill="#7babe3" stroke="#000" stroke-width="2"/>
  </g>
  <g id="g90" fill="none" stroke="#000" stroke-width="2">
   <path id="line86" d="m654.14 385.86 62.696-62.696"/>
   <path id="polyline88" d="m714.88 332.19 3.536-10.607-10.607 3.536"/>
  </g>
  <g id="g98">
   <path id="ellipse92" d="m860 320a20 20 0 0 1-20 20 20 20 0 0 1-20-20 20 20 0 0 1 20-20 20 20 0 0 1 20 20z" fill="#f62e2e" stroke="#000" stroke-width="2"/>
   <g id="text96" aria-label="×">
    <path id="path126" d="m844.46 316.33-3.5267 3.5421 3.5267 3.5267-0.91832 0.93376-3.5421-3.5421-3.5421 3.5421-0.9106-0.93376 3.5189-3.5267-3.5189-3.5421 0.9106-0.93376 3.5421 3.5421 3.5421-3.5421z" style=""/>
   </g>
  </g>
  <g id="g104" fill="none" stroke="#000" stroke-width="2">
   <path id="line100" d="m760 320h55.528"/>
   <path id="polyline102" d="m807.76 325 10-5-10-5"/>
  </g>
  <g id="text108" aria-label="m">
   <path id="path131" d="m670.52 343.02q0.53247-0.95691 1.2733-1.4122t1.744-0.4553q1.3505 0 2.0836 0.94919 0.73311 0.94147 0.73311 2.6855v5.2167h-1.4276v-5.1704q0-1.2424-0.43987-1.8444-0.43987-0.60192-1.3428-0.60192-1.1035 0-1.744 0.73311-0.64051 0.73312-0.64051 1.9987v4.8849h-1.4276v-5.1704q0-1.2502-0.43987-1.8444-0.43987-0.60192-1.3582-0.60192-1.0881 0-1.7286 0.74083-0.64051 0.73311-0.64051 1.991v4.8849h-1.4276v-8.643h1.4276v1.3428q0.48617-0.79486 1.1653-1.173 0.6791-0.37813 1.6128-0.37813 0.94148 0 1.5974 0.47845 0.66366 0.47846 0.98006 1.3891z" style=""/>
  </g>
  <g id="text112" aria-label="é">
   <path id="path134" d="m794.02 305.32v0.69453h-6.5286q0.0926 1.4662 0.87973 2.2379 0.79485 0.76398 2.2071 0.76398 0.81801 0 1.582-0.20064 0.7717-0.20064 1.528-0.60193v1.3428q-0.76398 0.32412-1.5666 0.49389-0.80256 0.16977-1.6283 0.16977-2.0682 0-3.2797-1.2038-1.2039-1.2038-1.2039-3.2566 0-2.1222 1.1421-3.3646 1.1498-1.2502 3.0945-1.2502 1.744 0 2.755 1.1267 1.0186 1.119 1.0186 3.0482zm-1.4199-0.41671q-0.0154-1.1653-0.65595-1.8598-0.63279-0.69453-1.6823-0.69453-1.1884 0-1.9061 0.67138-0.70996 0.67138-0.818 1.8907zm-1.3659-7.5472h1.5357l-2.5157 2.9016h-1.1807z" style=""/>
  </g>
  <g id="g118" fill="none" stroke="#000" stroke-width="2">
   <path id="line114" d="m860 320 59.868 59.868"/>
   <path id="polyline116" d="m910.84 377.91 10.607 3.536-3.536-10.607"/>
  </g>
  <g id="text122" aria-label="h">
   <path id="path139" d="m903.66 344.78v5.2167h-1.4199v-5.1704q0-1.227-0.47846-1.8366-0.47845-0.60964-1.4354-0.60964-1.1498 0-1.8135 0.73311-0.66366 0.73312-0.66366 1.9987v4.8849h-1.4276v-12.008h1.4276v4.7074q0.50932-0.77942 1.1961-1.1653 0.69453-0.38585 1.5974-0.38585 1.4894 0 2.2534 0.92604 0.76398 0.91832 0.76398 2.7087z" style=""/>
  </g>
  <g id="g130">
   <path id="ellipse124" d="m760 480a20 20 0 0 1-20 20 20 20 0 0 1-20-20 20 20 0 0 1 20-20 20 20 0 0 1 20 20z" fill="#7babe3" stroke="#000" stroke-width="2"/>
  </g>
  <g id="g136" fill="none" stroke="#000" stroke-width="2">
   <path id="line132" d="m654.14 414.14 62.696 62.696"/>
   <path id="polyline134" d="m707.81 474.88 10.607 3.536-3.536-10.607"/>
  </g>
  <g id="g144">
   <path id="ellipse138" d="m860 480a20 20 0 0 1-20 20 20 20 0 0 1-20-20 20 20 0 0 1 20-20 20 20 0 0 1 20 20z" fill="#7babe3" stroke="#000" stroke-width="2"/>
  </g>
  <g id="g150" fill="none" stroke="#000" stroke-width="2">
   <path id="line146" d="m760 480h55.528"/>
   <path id="polyline148" d="m807.76 485 10-5-10-5"/>
  </g>
  <g id="text154" aria-label="m">
   <path id="path150" d="m670.52 453.02q0.53247-0.95691 1.2733-1.4122t1.744-0.4553q1.3505 0 2.0836 0.94919 0.73311 0.94147 0.73311 2.6855v5.2167h-1.4276v-5.1704q0-1.2424-0.43987-1.8444-0.43987-0.60192-1.3428-0.60192-1.1035 0-1.744 0.73311-0.64051 0.73312-0.64051 1.9987v4.8849h-1.4276v-5.1704q0-1.2502-0.43987-1.8444-0.43987-0.60192-1.3582-0.60192-1.0881 0-1.7286 0.74083-0.64051 0.73311-0.64051 1.991v4.8849h-1.4276v-8.643h1.4276v1.3428q0.48617-0.79486 1.1653-1.173 0.6791-0.37813 1.6128-0.37813 0.94148 0 1.5974 0.47845 0.66366 0.47846 0.98006 1.3891z" style=""/>
  </g>
  <g id="text158" aria-label="o">
   <path id="path153" d="m790.01 462.35q-1.1421 0-1.8058 0.89517-0.66366 0.88746-0.66366 2.4386 0 1.5511 0.65594 2.4463 0.66367 0.88745 1.8135 0.88745 1.1344 0 1.7981-0.89517 0.66366-0.89517 0.66366-2.4386 0-1.5357-0.66366-2.4308-0.66367-0.90289-1.7981-0.90289zm0-1.2038q1.8521 0 2.9093 1.2038 1.0572 1.2038 1.0572 3.3337 0 2.1222-1.0572 3.3337-1.0572 1.2038-2.9093 1.2038-1.8598 0-2.917-1.2038-1.0495-1.2116-1.0495-3.3337 0-2.1299 1.0495-3.3337 1.0572-1.2038 2.917-1.2038z" style=""/>
  </g>
  <g id="g164" fill="none" stroke="#000" stroke-width="2">
   <path id="line160" d="m860 480 59.868-59.868"/>
   <path id="polyline162" d="m917.91 429.16 3.536-10.607-10.607 3.536"/>
  </g>
  <g id="text168" aria-label="s">
   <path id="path158" d="m902.88 451.61v1.3428q-0.60193-0.30868-1.2502-0.46302-0.64823-0.15434-1.3428-0.15434-1.0572 0-1.5897 0.32411-0.52476 0.32411-0.52476 0.97234 0 0.49389 0.37814 0.77942 0.37813 0.27781 1.5202 0.53247l0.48617 0.10804q1.5125 0.32411 2.1453 0.91832 0.64051 0.58649 0.64051 1.6437 0 1.2038-0.95691 1.9061-0.94919 0.70224-2.6161 0.70224-0.69453 0-1.4508-0.1389-0.74855-0.13119-1.582-0.40129v-1.4662q0.78714 0.40901 1.5511 0.61736 0.76398 0.20065 1.5125 0.20065 1.0032 0 1.5434-0.33955 0.54019-0.34727 0.54019-0.97234 0-0.57878-0.39357-0.88746-0.38585-0.30868-1.7055-0.59421l-0.49388-0.11575q-1.3196-0.27781-1.9061-0.84887-0.58649-0.57877-0.58649-1.582 0-1.2193 0.8643-1.883t2.454-0.66366q0.78714 0 1.4817 0.11575 0.69453 0.11576 1.281 0.34727z" style=""/>
  </g>
 </g>
</svg>
