<?xml version="1.0" encoding="UTF-8"?>
<svg id="svg91" width="15.947cm" height="6.517cm" version="1.1" viewBox="559 375 301 117.31" xmlns="http://www.w3.org/2000/svg" xmlns:cc="http://creativecommons.org/ns#" xmlns:dc="http://purl.org/dc/elements/1.1/" xmlns:rdf="http://www.w3.org/1999/02/22-rdf-syntax-ns#">
 <metadata id="metadata97">
  <rdf:RDF>
   <cc:Work rdf:about="">
    <dc:format>image/svg+xml</dc:format>
    <dc:type rdf:resource="http://purl.org/dc/dcmitype/StillImage"/>
   </cc:Work>
  </rdf:RDF>
 </metadata>
 <g id="Háttér" transform="translate(-1 -5.8435)">
  <g id="g8">
   <path id="ellipse2" d="m660 400a20 20 0 0 1-20 20 20 20 0 0 1-20-20 20 20 0 0 1 20-20 20 20 0 0 1 20 20z" fill="#7babe3" stroke="#000" stroke-width="2"/>
   <g id="text6" aria-label="1">
    <path id="path53" d="m636.93 403.51h2.5466v-8.7896l-2.7704 0.55562v-1.4199l2.755-0.55562h1.5588v10.21h2.5466v1.3119h-6.6366z" style=""/>
   </g>
  </g>
  <g id="g14" fill="none" stroke="#000" stroke-width="2">
   <path id="line10" d="m560 400h55.528"/>
   <path id="polyline12" d="m607.76 405 10-5-10-5"/>
  </g>
  <g id="g22">
   <path id="ellipse16" d="m760 400a20 20 0 0 1-20 20 20 20 0 0 1-20-20 20 20 0 0 1 20-20 20 20 0 0 1 20 20z" fill="#7babe3" stroke="#000" stroke-width="2"/>
   <g id="text20" aria-label="2">
    <path id="path59" d="m738 403.51h5.4405v1.3119h-7.3157v-1.3119q0.88745-0.91832 2.4154-2.4617 1.5357-1.5511 1.9292-1.9987 0.74854-0.84115 1.0418-1.4199 0.30096-0.58649 0.30096-1.1498 0-0.91832-0.64822-1.4971-0.64051-0.57878-1.6746-0.57878-0.73312 0-1.5511 0.25466-0.81028 0.25466-1.7363 0.7717v-1.5743q0.94147-0.37813 1.7595-0.57105 0.81801-0.19293 1.4971-0.19293 1.7903 0 2.8553 0.89517 1.0649 0.89517 1.0649 2.3923 0 0.70996-0.27009 1.3505-0.26238 0.6328-0.96463 1.4971-0.19292 0.22379-1.227 1.2965-1.0341 1.0649-2.917 2.9865z" style=""/>
   </g>
  </g>
  <g id="g28" fill="none" stroke="#000" stroke-width="2">
   <path id="line24" d="m660 400h55.528"/>
   <path id="polyline26" d="m707.76 405 10-5-10-5"/>
  </g>
  <g id="g36">
   <path id="ellipse30" d="m860 400a20 20 0 0 1-20 20 20 20 0 0 1-20-20 20 20 0 0 1 20-20 20 20 0 0 1 20 20z" fill="#2ef62e" stroke="#000" stroke-width="2"/>
   <g id="text34" aria-label="3">
    <path id="path65" d="m841.38 398.61q1.119 0.23923 1.744 0.99549 0.6328 0.75627 0.6328 1.8675 0 1.7054-1.173 2.6392-1.173 0.93375-3.3337 0.93375-0.7254 0-1.4971-0.14662-0.76399-0.1389-1.582-0.42443v-1.5048q0.64823 0.37814 1.4199 0.57106 0.7717 0.19293 1.6128 0.19293 1.4662 0 2.2302-0.57878 0.7717-0.57877 0.7717-1.6823 0-1.0186-0.71768-1.5897-0.70996-0.57878-1.9833-0.57878h-1.3428v-1.281h1.4045q1.1498 0 1.7595-0.4553 0.60965-0.46302 0.60965-1.3273 0-0.88746-0.6328-1.3582-0.62507-0.47845-1.7981-0.47845-0.64051 0-1.3736 0.13891-0.73312 0.1389-1.6128 0.43215v-1.3891q0.88745-0.24694 1.6592-0.37042 0.77942-0.12347 1.4662-0.12347 1.7749 0 2.809 0.81029 1.0341 0.80256 1.0341 2.1762 0 0.95691-0.54791 1.6206-0.5479 0.65594-1.5588 0.9106z" style=""/>
   </g>
  </g>
  <g id="g42" fill="none" stroke="#000" stroke-width="2">
   <path id="line38" d="m760 400h54.551"/>
   <path id="polyline40" d="m806.79 405 10-5-10-5"/>
  </g>
  <g id="g50">
   <path id="ellipse44" d="m760 480a20 20 0 0 1-20 20 20 20 0 0 1-20-20 20 20 0 0 1 20-20 20 20 0 0 1 20 20z" fill="#f62e2e" stroke="#000" stroke-width="2"/>
   <g id="text48" aria-label="4">
    <path id="path71" d="m740.94 474.66-3.9357 6.1504h3.9357zm-0.409-1.3582h1.9601v7.5086h1.6437v1.2965h-1.6437v2.7164h-1.5511v-2.7164h-5.2012v-1.5048z" style=""/>
   </g>
  </g>
  <g id="g56" fill="none" stroke="#000" stroke-width="2">
   <path id="line52" d="m655.71 413.94 62.469 55.438"/>
   <path id="polyline54" d="m709.05 467.96 10.799 2.898-4.161-10.378"/>
  </g>
  <g id="g62" fill="none" stroke="#000" stroke-width="2">
   <path id="line58" d="m740 420v35.528"/>
   <path id="polyline60" d="m735 447.76 5 10 5-10"/>
  </g>
  <g id="g68" fill="none" stroke="#000" stroke-width="2">
   <path id="line64" d="m823.98 412.81-64.476 51.582"/>
   <path id="polyline66" d="m762.45 455.64-4.685 10.152 10.932-2.343"/>
  </g>
  <g id="text72" aria-label="l">
   <path id="path80" d="m689.3 377.99h1.4199v12.008h-1.4199z" style=""/>
  </g>
  <g id="text76" aria-label="y">
   <path id="path83" d="m790.41 390.8q-0.60192 1.5434-1.173 2.0141-0.57106 0.47074-1.528 0.47074h-1.1344v-1.1884h0.83343q0.58649 0 0.91061-0.27781 0.32411-0.27781 0.71768-1.3119l0.25466-0.64823-3.4958-8.5041h1.5048l2.701 6.7601 2.701-6.7601h1.5048z" style=""/>
  </g>
  <g id="text80" aria-label="egyéb">
   <path id="path86" d="m758.88 425.32v0.69453h-6.5286q0.0926 1.4662 0.87974 2.2379 0.79485 0.76398 2.2071 0.76398 0.818 0 1.582-0.20064 0.7717-0.20064 1.528-0.60193v1.3428q-0.76398 0.32412-1.5666 0.49389t-1.6283 0.16977q-2.0682 0-3.2797-1.2038-1.2038-1.2038-1.2038-3.2566 0-2.1222 1.1421-3.3646 1.1498-1.2502 3.0945-1.2502 1.744 0 2.755 1.1267 1.0186 1.119 1.0186 3.0482zm-1.4199-0.41671q-0.0154-1.1653-0.65594-1.8598-0.6328-0.69453-1.6823-0.69453-1.1884 0-1.9061 0.67138-0.70997 0.67138-0.81801 1.8907z" style=""/>
   <path id="path88" d="m766.9 425.58q0-1.5434-0.64051-2.3923-0.63279-0.84887-1.7826-0.84887-1.1421 0-1.7826 0.84887-0.63279 0.84886-0.63279 2.3923 0 1.5357 0.63279 2.3846 0.64051 0.84887 1.7826 0.84887 1.1498 0 1.7826-0.84887 0.64051-0.84887 0.64051-2.3846zm1.4199 3.3492q0 2.2071-0.98006 3.2797-0.98006 1.0804-3.0019 1.0804-0.74855 0-1.4122-0.11576-0.66366-0.10803-1.2887-0.33954v-1.3814q0.62508 0.33955 1.2347 0.50161 0.60965 0.16206 1.2424 0.16206 1.3968 0 2.0913-0.73312 0.69453-0.7254 0.69453-2.1993v-0.70225q-0.43987 0.76398-1.1267 1.1421-0.68681 0.37813-1.6437 0.37813-1.5897 0-2.562-1.2116t-0.97234-3.2103q0-2.0064 0.97234-3.218t2.562-1.2116q0.95691 0 1.6437 0.37813t1.1267 1.1421v-1.3119h1.4199z" style=""/>
   <path id="path90" d="m774.84 430.8q-0.60193 1.5434-1.173 2.0141-0.57106 0.47074-1.528 0.47074h-1.1344v-1.1884h0.83344q0.58649 0 0.9106-0.27781 0.32412-0.27781 0.71768-1.3119l0.25466-0.64823-3.4958-8.5041h1.5048l2.701 6.7601 2.701-6.7601h1.5048z" style=""/>
   <path id="path92" d="m787.99 425.32v0.69453h-6.5286q0.0926 1.4662 0.87974 2.2379 0.79485 0.76398 2.2071 0.76398 0.818 0 1.582-0.20064 0.7717-0.20064 1.528-0.60193v1.3428q-0.76398 0.32412-1.5666 0.49389-0.80256 0.16977-1.6283 0.16977-2.0682 0-3.2797-1.2038-1.2038-1.2038-1.2038-3.2566 0-2.1222 1.1421-3.3646 1.1498-1.2502 3.0945-1.2502 1.744 0 2.755 1.1267 1.0186 1.119 1.0186 3.0482zm-1.4199-0.41671q-0.0154-1.1653-0.65595-1.8598-0.63279-0.69453-1.6823-0.69453-1.1884 0-1.9061 0.67138-0.70996 0.67138-0.818 1.8907zm-1.3659-7.5472h1.5357l-2.5157 2.9016h-1.1807z" style=""/>
   <path id="path94" d="m796.53 425.69q0-1.5666-0.64823-2.454-0.64051-0.89517-1.7672-0.89517t-1.7749 0.89517q-0.64051 0.88745-0.64051 2.454t0.64051 2.4617q0.64823 0.88746 1.7749 0.88746t1.7672-0.88746q0.64823-0.89517 0.64823-2.4617zm-4.8308-3.0173q0.44759-0.7717 1.1267-1.1421 0.68681-0.37813 1.636-0.37813 1.5743 0 2.5543 1.2502 0.98777 1.2502 0.98777 3.2874 0 2.0373-0.98777 3.2874-0.98006 1.2502-2.5543 1.2502-0.94919 0-1.636-0.37041-0.67909-0.37814-1.1267-1.1498v1.2964h-1.4276v-12.008h1.4276z" style=""/>
  </g>
  <g id="text84" aria-label="egyéb">
   <path id="path97" d="m808.88 445.32v0.69453h-6.5286q0.0926 1.4662 0.87974 2.2379 0.79485 0.76398 2.2071 0.76398 0.818 0 1.582-0.20064 0.7717-0.20064 1.528-0.60193v1.3428q-0.76398 0.32412-1.5666 0.49389t-1.6283 0.16977q-2.0682 0-3.2797-1.2038-1.2038-1.2038-1.2038-3.2566 0-2.1222 1.1421-3.3646 1.1498-1.2502 3.0945-1.2502 1.744 0 2.755 1.1267 1.0186 1.119 1.0186 3.0482zm-1.4199-0.41671q-0.0154-1.1653-0.65594-1.8598-0.6328-0.69453-1.6823-0.69453-1.1884 0-1.9061 0.67138-0.70997 0.67138-0.81801 1.8907z" style=""/>
   <path id="path99" d="m816.9 445.58q0-1.5434-0.64051-2.3923-0.63279-0.84887-1.7826-0.84887-1.1421 0-1.7826 0.84887-0.63279 0.84886-0.63279 2.3923 0 1.5357 0.63279 2.3846 0.64051 0.84887 1.7826 0.84887 1.1498 0 1.7826-0.84887 0.64051-0.84887 0.64051-2.3846zm1.4199 3.3492q0 2.2071-0.98006 3.2797-0.98006 1.0804-3.0019 1.0804-0.74855 0-1.4122-0.11576-0.66366-0.10803-1.2887-0.33954v-1.3814q0.62508 0.33955 1.2347 0.50161 0.60965 0.16206 1.2424 0.16206 1.3968 0 2.0913-0.73312 0.69453-0.7254 0.69453-2.1993v-0.70225q-0.43987 0.76398-1.1267 1.1421-0.68681 0.37813-1.6437 0.37813-1.5897 0-2.562-1.2116t-0.97234-3.2103q0-2.0064 0.97234-3.218t2.562-1.2116q0.95691 0 1.6437 0.37813t1.1267 1.1421v-1.3119h1.4199z" style=""/>
   <path id="path101" d="m824.84 450.8q-0.60193 1.5434-1.173 2.0141-0.57106 0.47074-1.528 0.47074h-1.1344v-1.1884h0.83344q0.58649 0 0.9106-0.27781 0.32412-0.27781 0.71768-1.3119l0.25466-0.64823-3.4958-8.5041h1.5048l2.701 6.7601 2.701-6.7601h1.5048z" style=""/>
   <path id="path103" d="m837.99 445.32v0.69453h-6.5286q0.0926 1.4662 0.87974 2.2379 0.79485 0.76398 2.2071 0.76398 0.818 0 1.582-0.20064 0.7717-0.20064 1.528-0.60193v1.3428q-0.76398 0.32412-1.5666 0.49389-0.80256 0.16977-1.6283 0.16977-2.0682 0-3.2797-1.2038-1.2038-1.2038-1.2038-3.2566 0-2.1222 1.1421-3.3646 1.1498-1.2502 3.0945-1.2502 1.744 0 2.755 1.1267 1.0186 1.119 1.0186 3.0482zm-1.4199-0.41671q-0.0154-1.1653-0.65595-1.8598-0.63279-0.69453-1.6823-0.69453-1.1884 0-1.9061 0.67138-0.70996 0.67138-0.818 1.8907zm-1.3659-7.5472h1.5357l-2.5157 2.9016h-1.1807z" style=""/>
   <path id="path105" d="m846.53 445.69q0-1.5666-0.64823-2.454-0.64051-0.89517-1.7672-0.89517t-1.7749 0.89517q-0.64051 0.88745-0.64051 2.454t0.64051 2.4617q0.64823 0.88746 1.7749 0.88746t1.7672-0.88746q0.64823-0.89517 0.64823-2.4617zm-4.8308-3.0173q0.44759-0.7717 1.1267-1.1421 0.68681-0.37813 1.636-0.37813 1.5743 0 2.5543 1.2502 0.98777 1.2502 0.98777 3.2874 0 2.0373-0.98777 3.2874-0.98006 1.2502-2.5543 1.2502-0.94919 0-1.636-0.37041-0.67909-0.37814-1.1267-1.1498v1.2964h-1.4276v-12.008h1.4276z" style=""/>
  </g>
  <g id="text88" aria-label="egyéb">
   <path id="path108" d="m636.88 443.32v0.69453h-6.5286q0.0926 1.4662 0.87974 2.2379 0.79485 0.76398 2.2071 0.76398 0.818 0 1.582-0.20064 0.7717-0.20064 1.528-0.60193v1.3428q-0.76398 0.32412-1.5666 0.49389t-1.6283 0.16977q-2.0682 0-3.2797-1.2038-1.2038-1.2038-1.2038-3.2566 0-2.1222 1.1421-3.3646 1.1498-1.2502 3.0945-1.2502 1.744 0 2.755 1.1267 1.0186 1.119 1.0186 3.0482zm-1.4199-0.41671q-0.0154-1.1653-0.65594-1.8598-0.6328-0.69453-1.6823-0.69453-1.1884 0-1.9061 0.67138-0.70997 0.67138-0.81801 1.8907z" style=""/>
   <path id="path110" d="m644.9 443.58q0-1.5434-0.64051-2.3923-0.63279-0.84887-1.7826-0.84887-1.1421 0-1.7826 0.84887-0.63279 0.84886-0.63279 2.3923 0 1.5357 0.63279 2.3846 0.64051 0.84887 1.7826 0.84887 1.1498 0 1.7826-0.84887 0.64051-0.84887 0.64051-2.3846zm1.4199 3.3492q0 2.2071-0.98006 3.2797-0.98006 1.0804-3.0019 1.0804-0.74855 0-1.4122-0.11576-0.66366-0.10803-1.2887-0.33954v-1.3814q0.62508 0.33955 1.2347 0.50161 0.60965 0.16206 1.2424 0.16206 1.3968 0 2.0913-0.73312 0.69453-0.7254 0.69453-2.1993v-0.70225q-0.43987 0.76398-1.1267 1.1421-0.68681 0.37813-1.6437 0.37813-1.5897 0-2.562-1.2116t-0.97234-3.2103q0-2.0064 0.97234-3.218t2.562-1.2116q0.95691 0 1.6437 0.37813t1.1267 1.1421v-1.3119h1.4199z" style=""/>
   <path id="path112" d="m652.84 448.8q-0.60193 1.5434-1.173 2.0141-0.57106 0.47074-1.528 0.47074h-1.1344v-1.1884h0.83344q0.58649 0 0.9106-0.27781 0.32412-0.27781 0.71768-1.3119l0.25466-0.64823-3.4958-8.5041h1.5048l2.701 6.7601 2.701-6.7601h1.5048z" style=""/>
   <path id="path114" d="m665.99 443.32v0.69453h-6.5286q0.0926 1.4662 0.87974 2.2379 0.79485 0.76398 2.2071 0.76398 0.818 0 1.582-0.20064 0.7717-0.20064 1.528-0.60193v1.3428q-0.76398 0.32412-1.5666 0.49389-0.80256 0.16977-1.6283 0.16977-2.0682 0-3.2797-1.2038-1.2038-1.2038-1.2038-3.2566 0-2.1222 1.1421-3.3646 1.1498-1.2502 3.0945-1.2502 1.744 0 2.755 1.1267 1.0186 1.119 1.0186 3.0482zm-1.4199-0.41671q-0.0154-1.1653-0.65595-1.8598-0.63279-0.69453-1.6823-0.69453-1.1884 0-1.9061 0.67138-0.70996 0.67138-0.818 1.8907zm-1.3659-7.5472h1.5357l-2.5157 2.9016h-1.1807z" style=""/>
   <path id="path116" d="m674.53 443.69q0-1.5666-0.64823-2.454-0.64051-0.89517-1.7672-0.89517t-1.7749 0.89517q-0.64051 0.88745-0.64051 2.454t0.64051 2.4617q0.64823 0.88746 1.7749 0.88746t1.7672-0.88746q0.64823-0.89517 0.64823-2.4617zm-4.8308-3.0173q0.44759-0.7717 1.1267-1.1421 0.68681-0.37813 1.636-0.37813 1.5743 0 2.5543 1.2502 0.98777 1.2502 0.98777 3.2874 0 2.0373-0.98777 3.2874-0.98006 1.2502-2.5543 1.2502-0.94919 0-1.636-0.37041-0.67909-0.37814-1.1267-1.1498v1.2964h-1.4276v-12.008h1.4276z" style=""/>
  </g>
 </g>
</svg>
