<?xml version="1.0" encoding="UTF-8"?>
<svg id="svg107" width="20.948cm" height="6.3103cm" version="1.1" viewBox="559 339 405 110.88" xmlns="http://www.w3.org/2000/svg" xmlns:cc="http://creativecommons.org/ns#" xmlns:dc="http://purl.org/dc/elements/1.1/" xmlns:rdf="http://www.w3.org/1999/02/22-rdf-syntax-ns#">
 <metadata id="metadata113">
  <rdf:RDF>
   <cc:Work rdf:about="">
    <dc:format>image/svg+xml</dc:format>
    <dc:type rdf:resource="http://purl.org/dc/dcmitype/StillImage"/>
   </cc:Work>
  </rdf:RDF>
 </metadata>
 <g id="Háttér" transform="translate(-1 -5.5591)">
  <g id="g8">
   <path id="ellipse2" d="m660 400a20 20 0 0 1-20 20 20 20 0 0 1-20-20 20 20 0 0 1 20-20 20 20 0 0 1 20 20z" fill="#7babe3" stroke="#000" stroke-width="2"/>
  </g>
  <g id="g14" fill="none" stroke="#000" stroke-width="2">
   <path id="line10" d="m560 400h55.528"/>
   <path id="polyline12" d="m607.76 405 10-5-10-5"/>
  </g>
  <g id="g22">
   <path id="ellipse16" d="m760 400a20 20 0 0 1-20 20 20 20 0 0 1-20-20 20 20 0 0 1 20-20 20 20 0 0 1 20 20z" fill="#7babe3" stroke="#000" stroke-width="2"/>
  </g>
  <g id="g28" fill="none" stroke="#000" stroke-width="2">
   <path id="line24" d="m660 400h55.528"/>
   <path id="polyline26" d="m707.76 405 10-5-10-5"/>
  </g>
  <g id="g36">
   <path id="ellipse30" d="m860 360a20 20 0 0 1-20 20 20 20 0 0 1-20-20 20 20 0 0 1 20-20 20 20 0 0 1 20 20z" fill="#7babe3" stroke="#000" stroke-width="2"/>
  </g>
  <g id="g42" fill="none" stroke="#000" stroke-width="2">
   <path id="line38" d="m754.14 385.86 61.695-24.224"/>
   <path id="polyline40" d="m810.44 369.13 7.481-8.309-11.136-0.999"/>
  </g>
  <g id="text46" aria-label="m">
   <path id="path72" d="m690.52 383.02q0.53247-0.95691 1.2733-1.4122t1.744-0.4553q1.3505 0 2.0836 0.94919 0.73311 0.94147 0.73311 2.6855v5.2167h-1.4276v-5.1704q0-1.2424-0.43987-1.8444-0.43987-0.60192-1.3428-0.60192-1.1035 0-1.744 0.73311-0.64051 0.73312-0.64051 1.9987v4.8849h-1.4276v-5.1704q0-1.2502-0.43987-1.8444-0.43987-0.60192-1.3582-0.60192-1.0881 0-1.7286 0.74083-0.64051 0.73311-0.64051 1.991v4.8849h-1.4276v-8.643h1.4276v1.3428q0.48617-0.79486 1.1653-1.173 0.6791-0.37813 1.6128-0.37813 0.94148 0 1.5974 0.47845 0.66366 0.47846 0.98006 1.3891z" style=""/>
  </g>
  <g id="text50" aria-label="é">
   <path id="path75" d="m784.02 365.32v0.69453h-6.5286q0.0926 1.4662 0.87973 2.2379 0.79485 0.76398 2.2071 0.76398 0.81801 0 1.582-0.20064 0.7717-0.20064 1.528-0.60193v1.3428q-0.76398 0.32412-1.5666 0.49389-0.80256 0.16977-1.6283 0.16977-2.0682 0-3.2797-1.2038-1.2039-1.2038-1.2039-3.2566 0-2.1222 1.1421-3.3646 1.1498-1.2502 3.0945-1.2502 1.744 0 2.755 1.1267 1.0186 1.119 1.0186 3.0482zm-1.4199-0.41671q-0.0154-1.1653-0.65595-1.8598-0.63279-0.69453-1.6823-0.69453-1.1884 0-1.9061 0.67138-0.70996 0.67138-0.818 1.8907zm-1.3659-7.5472h1.5357l-2.5157 2.9016h-1.1807z" style=""/>
  </g>
  <g id="g58">
   <path id="ellipse52" d="m964 400a24 24 0 0 1-24 24 24 24 0 0 1-24-24 24 24 0 0 1 24-24 24 24 0 0 1 24 24z" fill="#7babe3" stroke="#000" stroke-width="2"/>
  </g>
  <g id="g66">
   <path id="ellipse60" d="m960 400a20 20 0 0 1-20 20 20 20 0 0 1-20-20 20 20 0 0 1 20-20 20 20 0 0 1 20 20z" fill="#7babe3" stroke="#000" stroke-width="2"/>
  </g>
  <g id="g72" fill="none" stroke="#000" stroke-width="2">
   <path id="line68" d="m860 360 58.829 21.495"/>
   <path id="polyline70" d="m909.82 383.53 11.109-1.264-7.677-8.129"/>
  </g>
  <g id="text76" aria-label="h,z">
   <path id="path84" d="m896.99 364.78v5.2167h-1.4199v-5.1704q0-1.227-0.47846-1.8366-0.47845-0.60964-1.4354-0.60964-1.1498 0-1.8135 0.73311-0.66366 0.73312-0.66366 1.9987v4.8849h-1.4276v-12.008h1.4276v4.7074q0.50932-0.77942 1.1961-1.1653 0.69453-0.38585 1.5974-0.38585 1.4894 0 2.2534 0.92604 0.76398 0.91832 0.76398 2.7087z" style=""/>
   <path id="path86" d="m900.2 368.04h1.6283v1.3273l-1.2656 2.4694h-0.99549l0.63279-2.4694z" style=""/>
   <path id="path88" d="m904.25 361.36h6.7446v1.2964l-5.3402 6.2122h5.3402v1.1344h-6.9376v-1.2964l5.3402-6.2122h-5.1472z" style=""/>
  </g>
  <g id="g84">
   <path id="ellipse78" d="m860 440a20 20 0 0 1-20 20 20 20 0 0 1-20-20 20 20 0 0 1 20-20 20 20 0 0 1 20 20z" fill="#7babe3" stroke="#000" stroke-width="2"/>
  </g>
  <g id="g90" fill="none" stroke="#000" stroke-width="2">
   <path id="line86" d="m754.14 414.14 61.695 24.224"/>
   <path id="polyline88" d="m806.78 440.18 11.136-0.999-7.481-8.309"/>
  </g>
  <g id="text94" aria-label="o">
   <path id="path95" d="m780.01 432.35q-1.1421 0-1.8058 0.89517-0.66366 0.88746-0.66366 2.4386 0 1.5511 0.65594 2.4463 0.66367 0.88745 1.8135 0.88745 1.1344 0 1.7981-0.89517 0.66366-0.89517 0.66366-2.4386 0-1.5357-0.66366-2.4308-0.66367-0.90289-1.7981-0.90289zm0-1.2038q1.8521 0 2.9093 1.2038 1.0572 1.2038 1.0572 3.3337 0 2.1222-1.0572 3.3337-1.0572 1.2038-2.9093 1.2038-1.8598 0-2.917-1.2038-1.0495-1.2116-1.0495-3.3337 0-2.1299 1.0495-3.3337 1.0572-1.2038 2.917-1.2038z" style=""/>
  </g>
  <g id="g100" fill="none" stroke="#000" stroke-width="2">
   <path id="line96" d="m860 440 58.829-21.495"/>
   <path id="polyline98" d="m913.25 425.87 7.677-8.129-11.109-1.264"/>
  </g>
  <g id="text104" aria-label="s">
   <path id="path100" d="m902.88 431.61v1.3428q-0.60193-0.30868-1.2502-0.46302-0.64823-0.15434-1.3428-0.15434-1.0572 0-1.5897 0.32411-0.52476 0.32411-0.52476 0.97234 0 0.49389 0.37814 0.77942 0.37813 0.27781 1.5202 0.53247l0.48617 0.10804q1.5125 0.32411 2.1453 0.91832 0.64051 0.58649 0.64051 1.6437 0 1.2038-0.95691 1.9061-0.94919 0.70224-2.6161 0.70224-0.69453 0-1.4508-0.1389-0.74855-0.13119-1.582-0.40129v-1.4662q0.78714 0.40901 1.5511 0.61736 0.76398 0.20065 1.5125 0.20065 1.0032 0 1.5434-0.33955 0.54019-0.34727 0.54019-0.97234 0-0.57878-0.39357-0.88746-0.38585-0.30868-1.7055-0.59421l-0.49388-0.11575q-1.3196-0.27781-1.9061-0.84887-0.58649-0.57877-0.58649-1.582 0-1.2193 0.8643-1.883t2.454-0.66366q0.78714 0 1.4817 0.11575 0.69453 0.11576 1.281 0.34727z" style=""/>
  </g>
 </g>
</svg>
