<?xml version="1.0" encoding="UTF-8"?>
<svg id="svg89" width="20.948cm" height="4.3371cm" version="1.1" viewBox="559 335 405 78.069" xmlns="http://www.w3.org/2000/svg" xmlns:cc="http://creativecommons.org/ns#" xmlns:dc="http://purl.org/dc/elements/1.1/" xmlns:rdf="http://www.w3.org/1999/02/22-rdf-syntax-ns#">
 <metadata id="metadata95">
  <rdf:RDF>
   <cc:Work rdf:about="">
    <dc:format>image/svg+xml</dc:format>
    <dc:type rdf:resource="http://purl.org/dc/dcmitype/StillImage"/>
   </cc:Work>
  </rdf:RDF>
 </metadata>
 <g id="Háttér" transform="translate(-1 -9.04)">
  <g id="g8">
   <path id="ellipse2" d="m660 400a20 20 0 0 1-20 20 20 20 0 0 1-20-20 20 20 0 0 1 20-20 20 20 0 0 1 20 20z" fill="#7babe3" stroke="#000" stroke-width="2"/>
  </g>
  <g id="g14" fill="none" stroke="#000" stroke-width="2">
   <path id="line10" d="m560 400h55.528"/>
   <path id="polyline12" d="m607.76 405 10-5-10-5"/>
  </g>
  <g id="g22">
   <path id="ellipse16" d="m760 400a20 20 0 0 1-20 20 20 20 0 0 1-20-20 20 20 0 0 1 20-20 20 20 0 0 1 20 20z" fill="#7babe3" stroke="#000" stroke-width="2"/>
  </g>
  <g id="g28" fill="none" stroke="#000" stroke-width="2">
   <path id="line24" d="m660 400h55.528"/>
   <path id="polyline26" d="m707.76 405 10-5-10-5"/>
  </g>
  <g id="g36">
   <path id="ellipse30" d="m860 400a20 20 0 0 1-20 20 20 20 0 0 1-20-20 20 20 0 0 1 20-20 20 20 0 0 1 20 20z" fill="#7babe3" stroke="#000" stroke-width="2"/>
  </g>
  <g id="g42" fill="none" stroke="#000" stroke-width="2">
   <path id="line38" d="m760 400h55.528"/>
   <path id="polyline40" d="m807.76 405 10-5-10-5"/>
  </g>
  <g id="text46" aria-label="a">
   <path id="path63" d="m690.57 385.66q-1.7209 0-2.3846 0.39357t-0.66366 1.3428q0 0.75626 0.49388 1.2038 0.50161 0.43987 1.3582 0.43987 1.1807 0 1.8907-0.83344 0.71768-0.84115 0.71768-2.2302v-0.3164zm2.8321-0.58649v4.9312h-1.4199v-1.3119q-0.48617 0.78713-1.2116 1.1653-0.7254 0.37041-1.7749 0.37041-1.3273 0-2.1144-0.74083-0.77942-0.74855-0.77942-1.9987 0-1.4585 0.97234-2.1993 0.98006-0.74083 2.917-0.74083h1.991v-0.13891q0-0.98006-0.64823-1.5125-0.64051-0.54019-1.8058-0.54019-0.74083 0-1.4431 0.17749-0.70225 0.17749-1.3505 0.53247v-1.3119q0.77942-0.30097 1.5125-0.44759 0.73312-0.15434 1.4276-0.15434 1.8752 0 2.8013 0.97234 0.92604 0.97234 0.92604 2.9479z" style=""/>
  </g>
  <g id="text50" aria-label="b">
   <path id="path66" d="m792.68 385.69q0-1.5666-0.64823-2.454-0.64051-0.89517-1.7672-0.89517t-1.7749 0.89517q-0.64051 0.88745-0.64051 2.454t0.64051 2.4617q0.64823 0.88746 1.7749 0.88746t1.7672-0.88746q0.64823-0.89517 0.64823-2.4617zm-4.8308-3.0173q0.44758-0.7717 1.1267-1.1421 0.68681-0.37813 1.636-0.37813 1.5743 0 2.5543 1.2502 0.98777 1.2502 0.98777 3.2874 0 2.0373-0.98777 3.2874-0.98006 1.2502-2.5543 1.2502-0.94919 0-1.636-0.37041-0.6791-0.37814-1.1267-1.1498v1.2964h-1.4276v-12.008h1.4276z" style=""/>
  </g>
  <g id="g56" fill="none" stroke="#000" stroke-width="2">
   <path id="path52" d="M 747.654,381.522 C 760,350 900,350 920.472,379.362"/>
   <path id="polyline54" d="m911.93 375.85 9.821 5.343-1.618-11.063"/>
  </g>
  <g id="g64">
   <path id="ellipse58" d="m964 400a24 24 0 0 1-24 24 24 24 0 0 1-24-24 24 24 0 0 1 24-24 24 24 0 0 1 24 24z" fill="#7babe3" stroke="#000" stroke-width="2"/>
  </g>
  <g id="g72">
   <path id="ellipse66" d="m960 400a20 20 0 0 1-20 20 20 20 0 0 1-20-20 20 20 0 0 1 20-20 20 20 0 0 1 20 20z" fill="#7babe3" stroke="#000" stroke-width="2"/>
  </g>
  <g id="g78" fill="none" stroke="#000" stroke-width="2">
   <path id="line74" d="m860 400h51.528"/>
   <path id="polyline76" d="m903.76 405 10-5-10-5"/>
  </g>
  <g id="text82" aria-label="c">
   <path id="path76" d="m833.36 341.69v1.3273q-0.60192-0.33183-1.2116-0.49389-0.60192-0.16977-1.2193-0.16977-1.3813 0-2.1453 0.87974-0.76399 0.87202-0.76399 2.454t0.76399 2.4617q0.76398 0.87202 2.1453 0.87202 0.61736 0 1.2193-0.16205 0.60965-0.16978 1.2116-0.50161v1.3119q-0.59421 0.27781-1.2347 0.41672-0.63279 0.1389-1.3505 0.1389-1.9524 0-3.1022-1.227t-1.1498-3.3106q0-2.1144 1.1576-3.326 1.1653-1.2116 3.1871-1.2116 0.65595 0 1.281 0.13891 0.62508 0.13118 1.2116 0.40128z" style=""/>
  </g>
  <g id="text86" aria-label="c">
   <path id="path79" d="m893.36 381.69v1.3273q-0.60192-0.33183-1.2116-0.49389-0.60192-0.16977-1.2193-0.16977-1.3813 0-2.1453 0.87974-0.76399 0.87202-0.76399 2.454t0.76399 2.4617q0.76398 0.87202 2.1453 0.87202 0.61736 0 1.2193-0.16205 0.60965-0.16978 1.2116-0.50161v1.3119q-0.59421 0.27781-1.2347 0.41672-0.63279 0.1389-1.3505 0.1389-1.9524 0-3.1022-1.227t-1.1498-3.3106q0-2.1144 1.1576-3.326 1.1653-1.2116 3.1871-1.2116 0.65595 0 1.281 0.13891 0.62508 0.13118 1.2116 0.40128z" style=""/>
  </g>
 </g>
</svg>
