<?xml version="1.0" encoding="UTF-8"?>
<svg id="svg185" width="20.53cm" height="10.899cm" version="1.1" viewBox="559 374 396.91 215" xmlns="http://www.w3.org/2000/svg" xmlns:cc="http://creativecommons.org/ns#" xmlns:dc="http://purl.org/dc/elements/1.1/" xmlns:rdf="http://www.w3.org/1999/02/22-rdf-syntax-ns#">
 <metadata id="metadata191">
  <rdf:RDF>
   <cc:Work rdf:about="">
    <dc:format>image/svg+xml</dc:format>
    <dc:type rdf:resource="http://purl.org/dc/dcmitype/StillImage"/>
   </cc:Work>
  </rdf:RDF>
 </metadata>
 <g id="Háttér" transform="translate(-5.0438 -1)">
  <g id="g8">
   <path id="ellipse2" d="m660 400a20 20 0 0 1-20 20 20 20 0 0 1-20-20 20 20 0 0 1 20-20 20 20 0 0 1 20 20z" fill="#7babe3" stroke="#000" stroke-width="2"/>
  </g>
  <g id="g14" fill="none" stroke="#000" stroke-width="2">
   <path id="line10" d="m560 400h55.528"/>
   <path id="polyline12" d="m607.76 405 10-5-10-5"/>
  </g>
  <g id="g22">
   <path id="ellipse16" d="m760 400a20 20 0 0 1-20 20 20 20 0 0 1-20-20 20 20 0 0 1 20-20 20 20 0 0 1 20 20z" fill="#7babe3" stroke="#000" stroke-width="2"/>
   <g id="text20" aria-label="1">
    <path id="path909" d="m736.93 403.51h2.5466v-8.7896l-2.7704 0.55562v-1.4199l2.755-0.55562h1.5588v10.21h2.5466v1.3119h-6.6366z" style=""/>
   </g>
  </g>
  <g id="g28" fill="none" stroke="#000" stroke-width="2">
   <path id="line24" d="m660 400h55.528"/>
   <path id="polyline26" d="m707.76 405 10-5-10-5"/>
  </g>
  <g id="g36">
   <path id="ellipse30" d="m860 400a20 20 0 0 1-20 20 20 20 0 0 1-20-20 20 20 0 0 1 20-20 20 20 0 0 1 20 20z" fill="#7babe3" stroke="#000" stroke-width="2"/>
  </g>
  <g id="g42" fill="none" stroke="#000" stroke-width="2">
   <path id="line38" d="m760 400h55.528"/>
   <path id="polyline40" d="m807.76 405 10-5-10-5"/>
  </g>
  <g id="text46" aria-label="a">
   <path id="path918" d="m690.57 385.66q-1.7209 0-2.3846 0.39357t-0.66366 1.3428q0 0.75626 0.49388 1.2038 0.50161 0.43987 1.3582 0.43987 1.1807 0 1.8907-0.83344 0.71768-0.84115 0.71768-2.2302v-0.3164zm2.8321-0.58649v4.9312h-1.4199v-1.3119q-0.48617 0.78713-1.2116 1.1653-0.7254 0.37041-1.7749 0.37041-1.3273 0-2.1144-0.74083-0.77942-0.74855-0.77942-1.9987 0-1.4585 0.97234-2.1993 0.98006-0.74083 2.917-0.74083h1.991v-0.13891q0-0.98006-0.64823-1.5125-0.64051-0.54019-1.8058-0.54019-0.74083 0-1.4431 0.17749-0.70225 0.17749-1.3505 0.53247v-1.3119q0.77942-0.30097 1.5125-0.44759 0.73312-0.15434 1.4276-0.15434 1.8752 0 2.8013 0.97234 0.92604 0.97234 0.92604 2.9479z" style=""/>
  </g>
  <g id="text50" aria-label="b">
   <path id="path921" d="m792.68 385.69q0-1.5666-0.64823-2.454-0.64051-0.89517-1.7672-0.89517t-1.7749 0.89517q-0.64051 0.88745-0.64051 2.454t0.64051 2.4617q0.64823 0.88746 1.7749 0.88746t1.7672-0.88746q0.64823-0.89517 0.64823-2.4617zm-4.8308-3.0173q0.44758-0.7717 1.1267-1.1421 0.68681-0.37813 1.636-0.37813 1.5743 0 2.5543 1.2502 0.98777 1.2502 0.98777 3.2874 0 2.0373-0.98777 3.2874-0.98006 1.2502-2.5543 1.2502-0.94919 0-1.636-0.37041-0.6791-0.37814-1.1267-1.1498v1.2964h-1.4276v-12.008h1.4276z" style=""/>
  </g>
  <g id="g58">
   <path id="ellipse52" d="m964 400a24 24 0 0 1-24 24 24 24 0 0 1-24-24 24 24 0 0 1 24-24 24 24 0 0 1 24 24z" fill="#7babe3" stroke="#000" stroke-width="2"/>
  </g>
  <g id="g66">
   <path id="ellipse60" d="m960 400a20 20 0 0 1-20 20 20 20 0 0 1-20-20 20 20 0 0 1 20-20 20 20 0 0 1 20 20z" fill="#7babe3" stroke="#000" stroke-width="2"/>
  </g>
  <g id="g72" fill="none" stroke="#000" stroke-width="2">
   <path id="line68" d="m860 400h51.528"/>
   <path id="polyline70" d="m903.76 405 10-5-10-5"/>
  </g>
  <g id="text76" aria-label="a">
   <path id="path930" d="m890.57 385.66q-1.7209 0-2.3846 0.39357t-0.66366 1.3428q0 0.75626 0.49388 1.2038 0.50161 0.43987 1.3582 0.43987 1.1807 0 1.8907-0.83344 0.71768-0.84115 0.71768-2.2302v-0.3164zm2.8321-0.58649v4.9312h-1.4199v-1.3119q-0.48617 0.78713-1.2116 1.1653-0.7254 0.37041-1.7749 0.37041-1.3273 0-2.1144-0.74083-0.77942-0.74855-0.77942-1.9987 0-1.4585 0.97234-2.1993 0.98006-0.74083 2.917-0.74083h1.991v-0.13891q0-0.98006-0.64823-1.5125-0.64051-0.54019-1.8058-0.54019-0.74083 0-1.4431 0.17749-0.70225 0.17749-1.3505 0.53247v-1.3119q0.77942-0.30097 1.5125-0.44759 0.73312-0.15434 1.4276-0.15434 1.8752 0 2.8013 0.97234 0.92604 0.97234 0.92604 2.9479z" style=""/>
  </g>
  <g id="g84">
   <path id="ellipse78" d="m770 470a20 20 0 0 1-20 20 20 20 0 0 1-20-20 20 20 0 0 1 20-20 20 20 0 0 1 20 20z" fill="#7babe3" stroke="#000" stroke-width="2"/>
   <g id="text82" aria-label="2">
    <path id="path934" d="m748 473.51h5.4405v1.3119h-7.3157v-1.3119q0.88745-0.91832 2.4154-2.4617 1.5357-1.5511 1.9292-1.9987 0.74854-0.84115 1.0418-1.4199 0.30096-0.58649 0.30096-1.1498 0-0.91832-0.64822-1.4971-0.64051-0.57878-1.6746-0.57878-0.73312 0-1.5511 0.25466-0.81028 0.25466-1.7363 0.7717v-1.5743q0.94147-0.37813 1.7595-0.57105 0.81801-0.19293 1.4971-0.19293 1.7903 0 2.8553 0.89517 1.0649 0.89517 1.0649 2.3923 0 0.70996-0.27009 1.3505-0.26238 0.6328-0.96463 1.4971-0.19292 0.22379-1.227 1.2965-1.0341 1.0649-2.917 2.9865z" style=""/>
   </g>
  </g>
  <g id="g92">
   <path id="ellipse86" d="m860 470a20 20 0 0 1-20 20 20 20 0 0 1-20-20 20 20 0 0 1 20-20 20 20 0 0 1 20 20z" fill="#7babe3" stroke="#000" stroke-width="2"/>
  </g>
  <g id="g98" fill="none" stroke="#000" stroke-width="2">
   <path id="line94" d="m770 470h45.528"/>
   <path id="polyline96" d="m807.76 475 10-5-10-5"/>
  </g>
  <g id="text102" aria-label="b">
   <path id="path941" d="m792.68 455.69q0-1.5666-0.64823-2.454-0.64051-0.89517-1.7672-0.89517t-1.7749 0.89517q-0.64051 0.88745-0.64051 2.454t0.64051 2.4617q0.64823 0.88746 1.7749 0.88746t1.7672-0.88746q0.64823-0.89517 0.64823-2.4617zm-4.8308-3.0173q0.44758-0.7717 1.1267-1.1421 0.68681-0.37813 1.636-0.37813 1.5743 0 2.5543 1.2502 0.98777 1.2502 0.98777 3.2874 0 2.0373-0.98777 3.2874-0.98006 1.2502-2.5543 1.2502-0.94919 0-1.636-0.37041-0.6791-0.37814-1.1267-1.1498v1.2964h-1.4276v-12.008h1.4276z" style=""/>
  </g>
  <g id="g108" fill="none" stroke="#000" stroke-width="2">
   <path id="line104" d="m920 470 9.83-43.464" stroke-dasharray="4"/>
   <path id="polyline106" d="m932.99 435.21-2.671-10.857-7.083 8.651"/>
  </g>
  <g id="text112" aria-label="aa">
   <path id="path946" d="m885.72 455.66q-1.7209 0-2.3846 0.39357-0.66367 0.39357-0.66367 1.3428 0 0.75626 0.49389 1.2038 0.50161 0.43987 1.3582 0.43987 1.1807 0 1.8907-0.83344 0.71768-0.84115 0.71768-2.2302v-0.3164zm2.8321-0.58649v4.9312h-1.4199v-1.3119q-0.48617 0.78713-1.2116 1.1653-0.7254 0.37041-1.7749 0.37041-1.3273 0-2.1145-0.74083-0.77941-0.74855-0.77941-1.9987 0-1.4585 0.97234-2.1993 0.98006-0.74083 2.917-0.74083h1.991v-0.13891q0-0.98006-0.64823-1.5125-0.64051-0.54019-1.8058-0.54019-0.74083 0-1.4431 0.17749-0.70224 0.17749-1.3505 0.53247v-1.3119q0.77942-0.30097 1.5125-0.44759 0.73312-0.15434 1.4276-0.15434 1.8752 0 2.8013 0.97234t0.92604 2.9479z" style=""/>
   <path id="path948" d="m895.42 455.66q-1.7209 0-2.3846 0.39357t-0.66366 1.3428q0 0.75626 0.49388 1.2038 0.50161 0.43987 1.3582 0.43987 1.1807 0 1.8907-0.83344 0.71768-0.84115 0.71768-2.2302v-0.3164zm2.8321-0.58649v4.9312h-1.4199v-1.3119q-0.48617 0.78713-1.2116 1.1653-0.7254 0.37041-1.7749 0.37041-1.3273 0-2.1144-0.74083-0.77942-0.74855-0.77942-1.9987 0-1.4585 0.97234-2.1993 0.98006-0.74083 2.917-0.74083h1.991v-0.13891q0-0.98006-0.64823-1.5125-0.64051-0.54019-1.8058-0.54019-0.74083 0-1.4431 0.17749-0.70225 0.17749-1.3505 0.53247v-1.3119q0.77942-0.30097 1.5125-0.44759 0.73312-0.15434 1.4276-0.15434 1.8752 0 2.8013 0.97234 0.92603 0.97234 0.92603 2.9479z" style=""/>
  </g>
  <g id="g120">
   <path id="ellipse114" d="m780 540a20 20 0 0 1-20 20 20 20 0 0 1-20-20 20 20 0 0 1 20-20 20 20 0 0 1 20 20z" fill="#7babe3" stroke="#000" stroke-width="2"/>
   <g id="text118" aria-label="3">
    <path id="path952" d="m761.38 538.61q1.119 0.23923 1.744 0.99549 0.6328 0.75627 0.6328 1.8675 0 1.7054-1.173 2.6392-1.173 0.93375-3.3337 0.93375-0.7254 0-1.4971-0.14662-0.76399-0.1389-1.582-0.42443v-1.5048q0.64823 0.37814 1.4199 0.57106 0.7717 0.19293 1.6128 0.19293 1.4662 0 2.2302-0.57878 0.7717-0.57877 0.7717-1.6823 0-1.0186-0.71768-1.5897-0.70996-0.57878-1.9833-0.57878h-1.3428v-1.281h1.4045q1.1498 0 1.7595-0.4553 0.60965-0.46302 0.60965-1.3273 0-0.88746-0.6328-1.3582-0.62507-0.47846-1.7981-0.47846-0.64051 0-1.3736 0.13891-0.73312 0.1389-1.6128 0.43215v-1.3891q0.88745-0.24694 1.6592-0.37042 0.77942-0.12347 1.4662-0.12347 1.7749 0 2.809 0.81029 1.0341 0.80256 1.0341 2.1762 0 0.95691-0.54791 1.6206-0.5479 0.65594-1.5588 0.9106z" style=""/>
   </g>
  </g>
  <g id="g128">
   <path id="ellipse122" d="m860 540a20 20 0 0 1-20 20 20 20 0 0 1-20-20 20 20 0 0 1 20-20 20 20 0 0 1 20 20z" fill="#7babe3" stroke="#000" stroke-width="2"/>
  </g>
  <g id="g134" fill="none" stroke="#000" stroke-width="2">
   <path id="line130" d="m780 540h35.528"/>
   <path id="polyline132" d="m807.76 545 10-5-10-5"/>
  </g>
  <g id="text138" aria-label="b">
   <path id="path959" d="m792.68 525.69q0-1.5666-0.64823-2.454-0.64051-0.89517-1.7672-0.89517t-1.7749 0.89517q-0.64051 0.88745-0.64051 2.454t0.64051 2.4617q0.64823 0.88746 1.7749 0.88746t1.7672-0.88746q0.64823-0.89517 0.64823-2.4617zm-4.8308-3.0173q0.44758-0.7717 1.1267-1.1421 0.68681-0.37813 1.636-0.37813 1.5743 0 2.5543 1.2502 0.98777 1.2502 0.98777 3.2874 0 2.0373-0.98777 3.2874-0.98006 1.2502-2.5543 1.2502-0.94919 0-1.636-0.37041-0.6791-0.37814-1.1267-1.1498v1.2964h-1.4276v-12.008h1.4276z" style=""/>
  </g>
  <g id="g144" fill="none" stroke="#000" stroke-width="2">
   <path id="line140" d="m920 540 19.24-111.59" stroke-dasharray="4"/>
   <path id="polyline142" d="m942.85 436.91-3.228-10.704-6.626 9.005"/>
  </g>
  <g id="text148" aria-label="aaa">
   <path id="path964" d="m880.88 525.66q-1.7209 0-2.3846 0.39357-0.66366 0.39357-0.66366 1.3428 0 0.75626 0.49389 1.2038 0.5016 0.43987 1.3582 0.43987 1.1807 0 1.8907-0.83344 0.71768-0.84115 0.71768-2.2302v-0.3164zm2.8321-0.58649v4.9312h-1.4199v-1.3119q-0.48617 0.78713-1.2116 1.1653-0.7254 0.37041-1.7749 0.37041-1.3273 0-2.1145-0.74083-0.77941-0.74855-0.77941-1.9987 0-1.4585 0.97234-2.1993 0.98006-0.74083 2.917-0.74083h1.991v-0.13891q0-0.98006-0.64822-1.5125-0.64051-0.54019-1.8058-0.54019-0.74083 0-1.4431 0.17749-0.70224 0.17749-1.3505 0.53247v-1.3119q0.77942-0.30097 1.5125-0.44759 0.73311-0.15434 1.4276-0.15434 1.8752 0 2.8013 0.97234t0.92604 2.9479z" style=""/>
   <path id="path966" d="m890.57 525.66q-1.7209 0-2.3846 0.39357t-0.66366 1.3428q0 0.75626 0.49388 1.2038 0.50161 0.43987 1.3582 0.43987 1.1807 0 1.8907-0.83344 0.71768-0.84115 0.71768-2.2302v-0.3164zm2.8321-0.58649v4.9312h-1.4199v-1.3119q-0.48617 0.78713-1.2116 1.1653-0.7254 0.37041-1.7749 0.37041-1.3273 0-2.1145-0.74083-0.77941-0.74855-0.77941-1.9987 0-1.4585 0.97234-2.1993 0.98006-0.74083 2.917-0.74083h1.991v-0.13891q0-0.98006-0.64823-1.5125-0.64051-0.54019-1.8058-0.54019-0.74083 0-1.4431 0.17749-0.70225 0.17749-1.3505 0.53247v-1.3119q0.77942-0.30097 1.5125-0.44759 0.73312-0.15434 1.4276-0.15434 1.8752 0 2.8013 0.97234 0.92604 0.97234 0.92604 2.9479z" style=""/>
   <path id="path968" d="m900.26 525.66q-1.7209 0-2.3846 0.39357t-0.66366 1.3428q0 0.75626 0.49388 1.2038 0.50161 0.43987 1.3582 0.43987 1.1807 0 1.8907-0.83344 0.71768-0.84115 0.71768-2.2302v-0.3164zm2.8321-0.58649v4.9312h-1.4199v-1.3119q-0.48617 0.78713-1.2116 1.1653-0.7254 0.37041-1.7749 0.37041-1.3273 0-2.1144-0.74083-0.77942-0.74855-0.77942-1.9987 0-1.4585 0.97234-2.1993 0.98006-0.74083 2.917-0.74083h1.991v-0.13891q0-0.98006-0.64823-1.5125-0.64051-0.54019-1.8058-0.54019-0.74084 0-1.4431 0.17749-0.70225 0.17749-1.3505 0.53247v-1.3119q0.77942-0.30097 1.5125-0.44759 0.73312-0.15434 1.4276-0.15434 1.8752 0 2.8013 0.97234t0.92604 2.9479z" style=""/>
  </g>
  <path id="line150" d="m860 470h60" fill="none" stroke="#000" stroke-dasharray="4" stroke-width="2"/>
  <path id="line152" d="m860 540h60" fill="none" stroke="#000" stroke-dasharray="4" stroke-width="2"/>
  <g id="text156" aria-label="...">
   <path id="path973" d="m784.14 578.04h1.6283v1.9601h-1.6283z" style=""/>
   <path id="path975" d="m789.17 578.04h1.6283v1.9601h-1.6283z" style=""/>
   <path id="path977" d="m794.21 578.04h1.6283v1.9601h-1.6283z" style=""/>
  </g>
  <g id="g162" fill="none" stroke="#000" stroke-width="2">
   <path id="line158" d="m742.97 420.79 3.428 23.993"/>
   <path id="polyline160" d="m740.35 437.8 6.364 9.193 3.535-10.607"/>
  </g>
  <g id="g168" fill="none" stroke="#000" stroke-width="2">
   <path id="line164" d="m752.97 490.79 3.428 23.993"/>
   <path id="polyline166" d="m750.35 507.8 6.364 9.193 3.535-10.607"/>
  </g>
  <g id="text172" aria-label="a">
   <path id="path984" d="m760.57 435.66q-1.7209 0-2.3846 0.39357t-0.66366 1.3428q0 0.75626 0.49388 1.2038 0.50161 0.43987 1.3582 0.43987 1.1807 0 1.8907-0.83344 0.71768-0.84115 0.71768-2.2302v-0.3164zm2.8321-0.58649v4.9312h-1.4199v-1.3119q-0.48617 0.78713-1.2116 1.1653-0.7254 0.37041-1.7749 0.37041-1.3273 0-2.1144-0.74083-0.77942-0.74855-0.77942-1.9987 0-1.4585 0.97234-2.1993 0.98006-0.74083 2.917-0.74083h1.991v-0.13891q0-0.98006-0.64823-1.5125-0.64051-0.54019-1.8058-0.54019-0.74083 0-1.4431 0.17749-0.70225 0.17749-1.3505 0.53247v-1.3119q0.77942-0.30097 1.5125-0.44759 0.73312-0.15434 1.4276-0.15434 1.8752 0 2.8013 0.97234 0.92604 0.97234 0.92604 2.9479z" style=""/>
  </g>
  <g id="text176" aria-label="a">
   <path id="path987" d="m770.57 505.66q-1.7209 0-2.3846 0.39357t-0.66366 1.3428q0 0.75626 0.49388 1.2038 0.50161 0.43987 1.3582 0.43987 1.1807 0 1.8907-0.83344 0.71768-0.84115 0.71768-2.2302v-0.3164zm2.8321-0.58649v4.9312h-1.4199v-1.3119q-0.48617 0.78713-1.2116 1.1653-0.7254 0.37041-1.7749 0.37041-1.3273 0-2.1144-0.74083-0.77942-0.74855-0.77942-1.9987 0-1.4585 0.97234-2.1993 0.98006-0.74083 2.917-0.74083h1.991v-0.13891q0-0.98006-0.64823-1.5125-0.64051-0.54019-1.8058-0.54019-0.74083 0-1.4431 0.17749-0.70225 0.17749-1.3505 0.53247v-1.3119q0.77942-0.30097 1.5125-0.44759 0.73312-0.15434 1.4276-0.15434 1.8752 0 2.8013 0.97234 0.92604 0.97234 0.92604 2.9479z" style=""/>
  </g>
  <g id="g182" fill="none" stroke="#000" stroke-width="2">
   <path id="line178" d="m764.11 560.56 5.012 25.058"/>
   <path id="polyline180" d="m762.7 578.98 6.864 8.825 2.942-10.786"/>
  </g>
 </g>
</svg>
