<?xml version="1.0" encoding="UTF-8"?>
<svg id="svg125" width="31.896cm" height="9.0693cm" version="1.1" viewBox="411 -43 624.97 165.06" xmlns="http://www.w3.org/2000/svg" xmlns:cc="http://creativecommons.org/ns#" xmlns:dc="http://purl.org/dc/elements/1.1/" xmlns:rdf="http://www.w3.org/1999/02/22-rdf-syntax-ns#">
 <metadata id="metadata129">
  <rdf:RDF>
   <cc:Work rdf:about="">
    <dc:format>image/svg+xml</dc:format>
    <dc:type rdf:resource="http://purl.org/dc/dcmitype/StillImage"/>
   </cc:Work>
  </rdf:RDF>
 </metadata>
 <g id="Háttér" transform="translate(-1.5161 -8.9298)">
  <g id="g8" fill="none" stroke="#000" stroke-width="2">
   <path id="path4" d="M 704.634,90.9449 C 660,130 800,130 760,88"/>
   <path id="polyline6" d="m702.08 99.82 4.233-10.348-10.818 2.8221"/>
  </g>
  <g id="g14" fill="none" stroke="#000" stroke-width="2">
   <path id="path10" d="M 475.589,49.2648 C 420,40 440,0 500,30"/>
   <path id="polyline12" d="m467.11 52.92 10.686-3.288-9.042-6.576"/>
  </g>
  <path id="ellipse16" d="m587 55.5a53.5 35.5 0 0 1-53.5 35.5 53.5 35.5 0 0 1-53.5-35.5 53.5 35.5 0 0 1 53.5-35.5 53.5 35.5 0 0 1 53.5 35.5z" fill="#7babe3" stroke="#000" stroke-width="2"/>
  <g id="text22" aria-label="pénzrevár">
   <path id="path71" d="m509.37 49.801v4.5839h-1.4276v-11.93h1.4276v1.3119q0.44759-0.7717 1.1267-1.1421 0.68681-0.37813 1.636-0.37813 1.5743 0 2.5543 1.2502 0.98778 1.2502 0.98778 3.2874t-0.98778 3.2874q-0.98006 1.2502-2.5543 1.2502-0.94919 0-1.636-0.37042-0.6791-0.37813-1.1267-1.1498zm4.8308-3.0173q0-1.5666-0.64823-2.454-0.64051-0.89517-1.7672-0.89517t-1.7749 0.89517q-0.64052 0.88745-0.64052 2.454 0 1.5665 0.64052 2.4617 0.64822 0.88745 1.7749 0.88745t1.7672-0.88745q0.64823-0.89517 0.64823-2.4617z" style=""/>
   <path id="path73" d="m525.42 46.421v0.69453h-6.5286q0.0926 1.4662 0.87974 2.2379 0.79485 0.76398 2.2071 0.76398 0.818 0 1.582-0.20064 0.7717-0.20064 1.528-0.60193v1.3428q-0.76398 0.32411-1.5666 0.49389-0.80257 0.16977-1.6283 0.16977-2.0682 0-3.2797-1.2039-1.2038-1.2038-1.2038-3.2566 0-2.1222 1.1421-3.3646 1.1498-1.2502 3.0945-1.2502 1.744 0 2.755 1.1267 1.0186 1.119 1.0186 3.0482zm-1.4199-0.41672q-0.0154-1.1653-0.65594-1.8598-0.6328-0.69453-1.6823-0.69453-1.1884 0-1.9061 0.67138-0.70997 0.67138-0.818 1.8907zm-1.3659-7.5472h1.5357l-2.5157 2.9016h-1.1807z" style=""/>
   <path id="path75" d="m534.94 45.881v5.2167h-1.4199v-5.1704q0-1.227-0.47845-1.8366-0.47845-0.60964-1.4354-0.60964-1.1498 0-1.8135 0.73311-0.66366 0.73312-0.66366 1.9987v4.8849h-1.4276v-8.643h1.4276v1.3428q0.50932-0.77942 1.1961-1.1653 0.69453-0.38585 1.5974-0.38585 1.4894 0 2.2534 0.92604 0.76398 0.91832 0.76398 2.7087z" style=""/>
   <path id="path77" d="m537.17 42.454h6.7446v1.2965l-5.3402 6.2122h5.3402v1.1344h-6.9376v-1.2965l5.3402-6.2122h-5.1472z" style=""/>
   <path id="path79" d="m551.09 43.781q-0.23922-0.13891-0.52475-0.20064-0.27781-0.06945-0.61736-0.06945-1.2038 0-1.8521 0.78713-0.64051 0.77942-0.64051 2.2456v4.553h-1.4276v-8.643h1.4276v1.3428q0.44759-0.78713 1.1653-1.1653 0.71768-0.38585 1.744-0.38585 0.14662 0 0.32411 0.02315 0.17749 0.01543 0.39357 0.05402z" style=""/>
   <path id="path81" d="m559.65 46.421v0.69453h-6.5286q0.0926 1.4662 0.87974 2.2379 0.79485 0.76398 2.2071 0.76398 0.818 0 1.582-0.20064 0.7717-0.20064 1.528-0.60193v1.3428q-0.76399 0.32411-1.5666 0.49389-0.80257 0.16977-1.6283 0.16977-2.0682 0-3.2797-1.2039-1.2038-1.2038-1.2038-3.2566 0-2.1222 1.1421-3.3646 1.1498-1.2502 3.0945-1.2502 1.744 0 2.755 1.1267 1.0186 1.119 1.0186 3.0482zm-1.4199-0.41672q-0.0154-1.1653-0.65594-1.8598-0.6328-0.69453-1.6823-0.69453-1.1884 0-1.9061 0.67138-0.70996 0.67138-0.818 1.8907z" style=""/>
   <path id="path83" d="m521.19 62.21h1.5048l2.701 7.254 2.701-7.254h1.5048l-3.2411 8.643h-1.9292z" style=""/>
   <path id="path85" d="m535.49 66.508q-1.7209 0-2.3846 0.39357-0.66366 0.39357-0.66366 1.3428 0 0.75626 0.49389 1.2039 0.5016 0.43987 1.3582 0.43987 1.1807 0 1.8907-0.83344 0.71768-0.84115 0.71768-2.2302v-0.3164zm2.8321-0.58649v4.9312h-1.4199v-1.3119q-0.48617 0.78713-1.2116 1.1653-0.7254 0.37042-1.7749 0.37042-1.3273 0-2.1145-0.74083-0.77941-0.74855-0.77941-1.9987 0-1.4585 0.97234-2.1993 0.98005-0.74083 2.917-0.74083h1.991v-0.13891q0-0.98006-0.64822-1.5125-0.64051-0.54019-1.8058-0.54019-0.74083 0-1.4431 0.17749-0.70224 0.17749-1.3505 0.53247v-1.3119q0.77942-0.30096 1.5125-0.44759 0.73311-0.15434 1.4276-0.15434 1.8752 0 2.8013 0.97234t0.92604 2.9479zm-2.5929-7.7093h1.5357l-2.5157 2.9016h-1.1807z" style=""/>
   <path id="path87" d="m546.26 63.537q-0.23922-0.13891-0.52475-0.20064-0.27781-0.06945-0.61736-0.06945-1.2038 0-1.8521 0.78713-0.64051 0.77942-0.64051 2.2456v4.553h-1.4276v-8.643h1.4276v1.3428q0.44759-0.78713 1.1653-1.1653 0.71768-0.38585 1.744-0.38585 0.14662 0 0.32411 0.02315 0.17749 0.01543 0.39357 0.05402z" style=""/>
  </g>
  <path id="ellipse24" d="m787 55.5a53.5 35.5 0 0 1-53.5 35.5 53.5 35.5 0 0 1-53.5-35.5 53.5 35.5 0 0 1 53.5-35.5 53.5 35.5 0 0 1 53.5 35.5z" fill="#7babe3" stroke="#000" stroke-width="2"/>
  <g id="text28" aria-label="válassz">
   <path id="path91" d="m705.02 52.332h1.5048l2.701 7.254 2.701-7.254h1.5048l-3.2411 8.643h-1.9292z" style=""/>
   <path id="path93" d="m719.32 56.63q-1.7209 0-2.3846 0.39357-0.66366 0.39357-0.66366 1.3428 0 0.75626 0.49388 1.2039 0.50161 0.43987 1.3582 0.43987 1.1807 0 1.8907-0.83344 0.71768-0.84115 0.71768-2.2302v-0.3164zm2.8321-0.58649v4.9312h-1.4199v-1.3119q-0.48617 0.78713-1.2116 1.1653-0.7254 0.37042-1.7749 0.37042-1.3273 0-2.1144-0.74083-0.77942-0.74855-0.77942-1.9987 0-1.4585 0.97234-2.1993 0.98006-0.74083 2.917-0.74083h1.991v-0.13891q0-0.98006-0.64823-1.5125-0.64051-0.54019-1.8058-0.54019-0.74083 0-1.4431 0.17749-0.70225 0.17749-1.3505 0.53247v-1.3119q0.77942-0.30096 1.5125-0.44759 0.73312-0.15434 1.4276-0.15434 1.8752 0 2.8013 0.97234 0.92603 0.97234 0.92603 2.9479zm-2.5929-7.7093h1.5357l-2.5157 2.9016h-1.1807z" style=""/>
   <path id="path95" d="m725.08 48.967h1.4199v12.008h-1.4199z" style=""/>
   <path id="path97" d="m733.39 56.63q-1.7209 0-2.3846 0.39357-0.66366 0.39357-0.66366 1.3428 0 0.75626 0.49389 1.2039 0.5016 0.43987 1.3582 0.43987 1.1807 0 1.8907-0.83344 0.71768-0.84115 0.71768-2.2302v-0.3164zm2.8321-0.58649v4.9312h-1.4199v-1.3119q-0.48617 0.78713-1.2116 1.1653-0.72539 0.37042-1.7749 0.37042-1.3273 0-2.1145-0.74083-0.77942-0.74855-0.77942-1.9987 0-1.4585 0.97234-2.1993 0.98006-0.74083 2.917-0.74083h1.991v-0.13891q0-0.98006-0.64823-1.5125-0.64051-0.54019-1.8058-0.54019-0.74083 0-1.4431 0.17749t-1.3505 0.53247v-1.3119q0.77941-0.30096 1.5125-0.44759 0.73311-0.15434 1.4276-0.15434 1.8752 0 2.8013 0.97234t0.92604 2.9479z" style=""/>
   <path id="path99" d="m744.67 52.587v1.3428q-0.60193-0.30868-1.2502-0.46302-0.64822-0.15434-1.3428-0.15434-1.0572 0-1.5897 0.32411-0.52476 0.32411-0.52476 0.97234 0 0.49389 0.37813 0.77942 0.37814 0.27781 1.5202 0.53247l0.48617 0.10804q1.5125 0.32411 2.1453 0.91832 0.64051 0.58649 0.64051 1.6437 0 1.2039-0.95691 1.9061-0.94919 0.70225-2.6161 0.70225-0.69453 0-1.4508-0.13891-0.74854-0.13119-1.582-0.40128v-1.4662q0.78713 0.409 1.5511 0.61736 0.76398 0.20064 1.5125 0.20064 1.0032 0 1.5434-0.33955 0.54018-0.34726 0.54018-0.97234 0-0.57878-0.39356-0.88745-0.38585-0.30868-1.7055-0.59421l-0.49388-0.11576q-1.3196-0.27781-1.9061-0.84887-0.58649-0.57877-0.58649-1.582 0-1.2193 0.8643-1.8829 0.8643-0.66366 2.454-0.66366 0.78714 0 1.4817 0.11576t1.281 0.34726z" style=""/>
   <path id="path101" d="m752.91 52.587v1.3428q-0.60193-0.30868-1.2502-0.46302-0.64822-0.15434-1.3428-0.15434-1.0572 0-1.5897 0.32411-0.52476 0.32411-0.52476 0.97234 0 0.49389 0.37813 0.77942 0.37814 0.27781 1.5202 0.53247l0.48617 0.10804q1.5125 0.32411 2.1453 0.91832 0.64052 0.58649 0.64052 1.6437 0 1.2039-0.95691 1.9061-0.94919 0.70225-2.6161 0.70225-0.69453 0-1.4508-0.13891-0.74855-0.13119-1.582-0.40128v-1.4662q0.78713 0.409 1.5511 0.61736 0.76398 0.20064 1.5125 0.20064 1.0032 0 1.5434-0.33955 0.54019-0.34726 0.54019-0.97234 0-0.57878-0.39356-0.88745-0.38585-0.30868-1.7055-0.59421l-0.49389-0.11576q-1.3196-0.27781-1.9061-0.84887-0.58649-0.57877-0.58649-1.582 0-1.2193 0.8643-1.8829 0.8643-0.66366 2.454-0.66366 0.78714 0 1.4817 0.11576 0.69453 0.11576 1.281 0.34726z" style=""/>
   <path id="path103" d="m755.02 52.332h6.7446v1.2965l-5.3402 6.2122h5.3402v1.1344h-6.9376v-1.2965l5.3402-6.2122h-5.1472z" style=""/>
  </g>
  <path id="ellipse30" d="m967 55.5a53.5 35.5 0 0 1-53.5 35.5 53.5 35.5 0 0 1-53.5-35.5 53.5 35.5 0 0 1 53.5-35.5 53.5 35.5 0 0 1 53.5 35.5z" fill="#7babe3" stroke="#000" stroke-width="2"/>
  <g id="text36" aria-label="italelvehető">
   <path id="path107" d="m902.66 42.454h1.4199v8.643h-1.4199zm0-3.3646h1.4199v1.7981h-1.4199z" style=""/>
   <path id="path109" d="m908.45 40v2.454h2.9247v1.1035h-2.9247v4.6919q0 1.0572 0.28553 1.3582 0.29324 0.30096 1.1807 0.30096h1.4585v1.1884h-1.4585q-1.6437 0-2.2688-0.60964-0.62507-0.61736-0.62507-2.2379v-4.6919h-1.0418v-1.1035h1.0418v-2.454z" style=""/>
   <path id="path111" d="m917.17 46.753q-1.7209 0-2.3846 0.39357-0.66366 0.39357-0.66366 1.3428 0 0.75626 0.49388 1.2039 0.50161 0.43987 1.3582 0.43987 1.1807 0 1.8907-0.83344 0.71768-0.84115 0.71768-2.2302v-0.3164zm2.8321-0.58649v4.9312h-1.4199v-1.3119q-0.48617 0.78713-1.2116 1.1653-0.7254 0.37042-1.7749 0.37042-1.3273 0-2.1144-0.74083-0.77942-0.74855-0.77942-1.9987 0-1.4585 0.97234-2.1993 0.98006-0.74083 2.917-0.74083h1.991v-0.13891q0-0.98006-0.64823-1.5125-0.64051-0.54019-1.8058-0.54019-0.74083 0-1.4431 0.17749-0.70225 0.17749-1.3505 0.53247v-1.3119q0.77942-0.30096 1.5125-0.44759 0.73312-0.15434 1.4276-0.15434 1.8752 0 2.8013 0.97234 0.92603 0.97234 0.92603 2.9479z" style=""/>
   <path id="path113" d="m922.94 39.09h1.4199v12.008h-1.4199z" style=""/>
   <path id="path115" d="m887.98 66.176v0.69453h-6.5286q0.0926 1.4662 0.87974 2.2379 0.79485 0.76398 2.2071 0.76398 0.818 0 1.582-0.20064 0.7717-0.20064 1.528-0.60193v1.3428q-0.76399 0.32411-1.5666 0.49389-0.80257 0.16977-1.6283 0.16977-2.0682 0-3.2797-1.2039-1.2038-1.2038-1.2038-3.2566 0-2.1222 1.1421-3.3646 1.1498-1.2502 3.0945-1.2502 1.744 0 2.755 1.1267 1.0186 1.119 1.0186 3.0482zm-1.4199-0.41672q-0.0154-1.1653-0.65594-1.8598-0.6328-0.69453-1.6823-0.69453-1.1884 0-1.9061 0.67138-0.70996 0.67138-0.818 1.8907z" style=""/>
   <path id="path117" d="m890.31 58.845h1.4199v12.008h-1.4199z" style=""/>
   <path id="path119" d="m893.68 62.21h1.5048l2.701 7.254 2.701-7.254h1.5048l-3.2411 8.643h-1.9292z" style=""/>
   <path id="path121" d="m911.44 66.176v0.69453h-6.5286q0.0926 1.4662 0.87974 2.2379 0.79485 0.76398 2.2071 0.76398 0.818 0 1.582-0.20064 0.7717-0.20064 1.528-0.60193v1.3428q-0.76398 0.32411-1.5666 0.49389-0.80256 0.16977-1.6283 0.16977-2.0682 0-3.2797-1.2039-1.2038-1.2038-1.2038-3.2566 0-2.1222 1.1421-3.3646 1.1498-1.2502 3.0945-1.2502 1.744 0 2.755 1.1267 1.0186 1.119 1.0186 3.0482zm-1.4199-0.41672q-0.0154-1.1653-0.65595-1.8598-0.63279-0.69453-1.6823-0.69453-1.1884 0-1.9061 0.67138-0.70996 0.67138-0.818 1.8907z" style=""/>
   <path id="path123" d="m920.95 65.636v5.2167h-1.4199v-5.1704q0-1.227-0.47846-1.8366-0.47845-0.60964-1.4354-0.60964-1.1498 0-1.8135 0.73311-0.66366 0.73312-0.66366 1.9987v4.8849h-1.4276v-12.008h1.4276v4.7074q0.50932-0.77942 1.1961-1.1653 0.69453-0.38585 1.5974-0.38585 1.4894 0 2.2534 0.92604 0.76398 0.91832 0.76398 2.7087z" style=""/>
   <path id="path125" d="m931.2 66.176v0.69453h-6.5286q0.0926 1.4662 0.87973 2.2379 0.79485 0.76398 2.2071 0.76398 0.81801 0 1.582-0.20064 0.7717-0.20064 1.528-0.60193v1.3428q-0.76398 0.32411-1.5666 0.49389-0.80256 0.16977-1.6283 0.16977-2.0682 0-3.2797-1.2039-1.2039-1.2038-1.2039-3.2566 0-2.1222 1.1421-3.3646 1.1498-1.2502 3.0945-1.2502 1.744 0 2.755 1.1267 1.0186 1.119 1.0186 3.0482zm-1.4199-0.41672q-0.0154-1.1653-0.65595-1.8598-0.63279-0.69453-1.6823-0.69453-1.1884 0-1.9061 0.67138-0.70996 0.67138-0.818 1.8907z" style=""/>
   <path id="path127" d="m934.93 59.756v2.454h2.9247v1.1035h-2.9247v4.6919q0 1.0572 0.28553 1.3582 0.29324 0.30096 1.1807 0.30096h1.4585v1.1884h-1.4585q-1.6437 0-2.2688-0.60964-0.62508-0.61736-0.62508-2.2379v-4.6919h-1.0418v-1.1035h1.0418v-2.454z" style=""/>
   <path id="path129" d="m945.37 58.212h1.3736l-1.9138 2.9016h-1.0418zm-2.5775 0h1.3119l-1.7209 2.9016h-1.0572zm0.28552 4.9929q-1.1421 0-1.8058 0.89517-0.66366 0.88745-0.66366 2.4386 0 1.5511 0.65594 2.4463 0.66366 0.88745 1.8135 0.88745 1.1344 0 1.7981-0.89517t0.66366-2.4386q0-1.5357-0.66366-2.4309-0.66366-0.90289-1.7981-0.90289zm0-1.2039q1.8521 0 2.9093 1.2039t1.0572 3.3337q0 2.1222-1.0572 3.3337-1.0572 1.2039-2.9093 1.2039-1.8598 0-2.917-1.2039-1.0495-1.2116-1.0495-3.3337 0-2.1299 1.0495-3.3337 1.0572-1.2039 2.917-1.2039z" style=""/>
  </g>
  <g id="g42" fill="none" stroke="#000" stroke-width="2">
   <path id="path38" d="m875.67 30.398a254.93 254.93 0 0 0-300.73-2.6376"/>
   <path id="polyline40" d="m578.16 19.082-5.039 9.9807 11.008-1.9576"/>
  </g>
  <g id="text46" aria-label="választ, de nincs">
   <path id="path133" d="m684.41 126.83h1.5048l2.7009 7.254 2.701-7.254h1.5048l-3.2411 8.643h-1.9292z" style=""/>
   <path id="path135" d="m698.71 131.13q-1.7209 0-2.3846 0.39357-0.66366 0.39356-0.66366 1.3428 0 0.75627 0.49388 1.2038 0.50161 0.43987 1.3582 0.43987 1.1807 0 1.8907-0.83343 0.71768-0.84116 0.71768-2.2302v-0.3164zm2.8321-0.58649v4.9312h-1.4199v-1.3119q-0.48617 0.78713-1.2116 1.1653-0.7254 0.37042-1.7749 0.37042-1.3273 0-2.1144-0.74083-0.77942-0.74855-0.77942-1.9987 0-1.4585 0.97234-2.1994 0.98006-0.74083 2.917-0.74083h1.991v-0.1389q0-0.98006-0.64823-1.5125-0.64051-0.54019-1.8058-0.54019-0.74083 0-1.4431 0.17749-0.70225 0.17749-1.3505 0.53247v-1.3119q0.77942-0.30096 1.5125-0.44758 0.73312-0.15434 1.4276-0.15434 1.8752 0 2.8013 0.97234 0.92603 0.97234 0.92603 2.9479zm-2.5929-7.7093h1.5357l-2.5157 2.9016h-1.1807z" style=""/>
   <path id="path137" d="m704.48 123.47h1.4199v12.008h-1.4199z" style=""/>
   <path id="path139" d="m712.79 131.13q-1.7209 0-2.3846 0.39357-0.66366 0.39356-0.66366 1.3428 0 0.75627 0.49389 1.2038 0.5016 0.43987 1.3582 0.43987 1.1807 0 1.8907-0.83343 0.71768-0.84116 0.71768-2.2302v-0.3164zm2.8321-0.58649v4.9312h-1.4199v-1.3119q-0.48617 0.78713-1.2116 1.1653-0.72539 0.37042-1.7749 0.37042-1.3273 0-2.1145-0.74083-0.77942-0.74855-0.77942-1.9987 0-1.4585 0.97235-2.1994 0.98005-0.74083 2.917-0.74083h1.991v-0.1389q0-0.98006-0.64822-1.5125-0.64052-0.54019-1.8058-0.54019-0.74083 0-1.4431 0.17749t-1.3505 0.53247v-1.3119q0.77941-0.30096 1.5125-0.44758 0.73311-0.15434 1.4276-0.15434 1.8752 0 2.8013 0.97234t0.92604 2.9479z" style=""/>
   <path id="path141" d="m724.06 127.09v1.3428q-0.60193-0.30868-1.2502-0.46302-0.64822-0.15434-1.3428-0.15434-1.0572 0-1.5897 0.32412-0.52476 0.32411-0.52476 0.97234 0 0.49388 0.37813 0.77941 0.37814 0.27782 1.5202 0.53248l0.48617 0.10803q1.5125 0.32412 2.1453 0.91833 0.64051 0.58649 0.64051 1.6437 0 1.2038-0.95691 1.9061-0.94919 0.70225-2.6161 0.70225-0.69453 0-1.4508-0.13891-0.74854-0.13119-1.582-0.40128v-1.4662q0.78713 0.409 1.5511 0.61736 0.76398 0.20064 1.5125 0.20064 1.0032 0 1.5434-0.33955 0.54019-0.34726 0.54019-0.97234 0-0.57877-0.39357-0.88745-0.38585-0.30868-1.7055-0.59421l-0.49388-0.11575q-1.3196-0.27782-1.9061-0.84887-0.58649-0.57878-0.58649-1.582 0-1.2193 0.8643-1.8829t2.454-0.66366q0.78714 0 1.4817 0.11575 0.69453 0.11576 1.281 0.34727z" style=""/>
   <path id="path143" d="m726.18 126.83h6.7447v1.2965l-5.3402 6.2122h5.3402v1.1344h-6.9376v-1.2965l5.3402-6.2122h-5.1472z" style=""/>
   <path id="path145" d="m736.5 124.38v2.454h2.9247v1.1035h-2.9247v4.6919q0 1.0572 0.28553 1.3582 0.29324 0.30096 1.1807 0.30096h1.4585v1.1884h-1.4585q-1.6437 0-2.2688-0.60965-0.62508-0.61736-0.62508-2.2379v-4.6919h-1.0418v-1.1035h1.0418v-2.454z" style=""/>
   <path id="path147" d="m741.67 133.51h1.6283v1.3273l-1.2656 2.4694h-0.9955l0.6328-2.4694z" style=""/>
   <path id="path149" d="m757.05 128.14v-4.6765h1.4199v12.008h-1.4199v-1.2965q-0.44758 0.7717-1.1344 1.1498-0.67909 0.37042-1.636 0.37042-1.5666 0-2.5543-1.2502-0.98006-1.2502-0.98006-3.2874 0-2.0373 0.98006-3.2874 0.98777-1.2502 2.5543-1.2502 0.95691 0 1.636 0.37813 0.68682 0.37041 1.1344 1.1421zm-4.8386 3.0174q0 1.5666 0.64051 2.4617 0.64822 0.88745 1.7749 0.88745 1.1267 0 1.7749-0.88745 0.64823-0.89517 0.64823-2.4617t-0.64823-2.454q-0.64822-0.89517-1.7749-0.89517-1.1267 0-1.7749 0.89517-0.64051 0.88746-0.64051 2.454z" style=""/>
   <path id="path151" d="m768.79 130.8v0.69453h-6.5286q0.0926 1.4662 0.87974 2.2379 0.79485 0.76398 2.2071 0.76398 0.818 0 1.582-0.20064 0.7717-0.20065 1.528-0.60193v1.3428q-0.76398 0.32411-1.5665 0.49389-0.80257 0.16977-1.6283 0.16977-2.0682 0-3.2797-1.2038-1.2038-1.2038-1.2038-3.2566 0-2.1222 1.1421-3.3646 1.1498-1.2502 3.0945-1.2502 1.744 0 2.755 1.1267 1.0186 1.119 1.0186 3.0482zm-1.4199-0.41672q-0.0154-1.1653-0.65595-1.8598-0.63279-0.69453-1.6823-0.69453-1.1884 0-1.9061 0.67137-0.70996 0.67138-0.818 1.8907z" style=""/>
   <path id="path153" d="m783.34 130.26v5.2167h-1.4199v-5.1704q0-1.227-0.47845-1.8366-0.47846-0.60965-1.4354-0.60965-1.1498 0-1.8135 0.73312-0.66366 0.73311-0.66366 1.9987v4.8849h-1.4276v-8.643h1.4276v1.3428q0.50932-0.77941 1.1961-1.1653 0.69452-0.38585 1.5974-0.38585 1.4894 0 2.2534 0.92603 0.76399 0.91833 0.76399 2.7087z" style=""/>
   <path id="path155" d="m786.18 126.83h1.4199v8.643h-1.4199zm0-3.3646h1.4199v1.7981h-1.4199z" style=""/>
   <path id="path157" d="m797.75 130.26v5.2167h-1.4199v-5.1704q0-1.227-0.47845-1.8366-0.47845-0.60965-1.4354-0.60965-1.1498 0-1.8135 0.73312-0.66366 0.73311-0.66366 1.9987v4.8849h-1.4276v-8.643h1.4276v1.3428q0.50932-0.77941 1.1961-1.1653 0.69453-0.38585 1.5974-0.38585 1.4894 0 2.2534 0.92603 0.76398 0.91833 0.76398 2.7087z" style=""/>
   <path id="path159" d="m806.82 127.16v1.3273q-0.60193-0.33183-1.2116-0.49389-0.60193-0.16977-1.2193-0.16977-1.3813 0-2.1453 0.87973-0.76398 0.87202-0.76398 2.454 0 1.582 0.76398 2.4617 0.76398 0.87202 2.1453 0.87202 0.61736 0 1.2193-0.16206 0.60964-0.16977 1.2116-0.5016v1.3119q-0.59421 0.27781-1.2347 0.41671-0.6328 0.13891-1.3505 0.13891-1.9524 0-3.1022-1.227t-1.1498-3.3106q0-2.1145 1.1576-3.326 1.1653-1.2116 3.1871-1.2116 0.65594 0 1.281 0.1389 0.62508 0.13119 1.2116 0.40129z" style=""/>
   <path id="path161" d="m814.82 127.09v1.3428q-0.60193-0.30868-1.2502-0.46302-0.64823-0.15434-1.3428-0.15434-1.0572 0-1.5897 0.32412-0.52476 0.32411-0.52476 0.97234 0 0.49388 0.37814 0.77941 0.37813 0.27782 1.5202 0.53248l0.48617 0.10803q1.5125 0.32412 2.1453 0.91833 0.64051 0.58649 0.64051 1.6437 0 1.2038-0.95691 1.9061-0.94919 0.70225-2.6161 0.70225-0.69453 0-1.4508-0.13891-0.74855-0.13119-1.582-0.40128v-1.4662q0.78714 0.409 1.5511 0.61736 0.76398 0.20064 1.5125 0.20064 1.0032 0 1.5434-0.33955 0.54019-0.34726 0.54019-0.97234 0-0.57877-0.39357-0.88745-0.38585-0.30868-1.7055-0.59421l-0.49388-0.11575q-1.3196-0.27782-1.9061-0.84887-0.58649-0.57878-0.58649-1.582 0-1.2193 0.8643-1.8829t2.454-0.66366q0.78713 0 1.4817 0.11575 0.69453 0.11576 1.281 0.34727z" style=""/>
  </g>
  <g id="text50" aria-label="elvéve">
   <path id="path164" d="m706.75-32.426v0.69453h-6.5286q0.0926 1.4662 0.87973 2.2379 0.79485 0.76398 2.2071 0.76398 0.818 0 1.582-0.20064 0.7717-0.20064 1.528-0.60192v1.3428q-0.76398 0.32411-1.5666 0.49389t-1.6283 0.16977q-2.0682 0-3.2797-1.2039-1.2038-1.2039-1.2038-3.2566 0-2.1222 1.1421-3.3646 1.1498-1.2502 3.0945-1.2502 1.744 0 2.755 1.1267 1.0186 1.119 1.0186 3.0482zm-1.4199-0.41672q-0.0154-1.1653-0.65595-1.8598-0.63279-0.69453-1.6823-0.69453-1.1884 0-1.9061 0.67138-0.70996 0.67138-0.818 1.8907z" style=""/>
   <path id="path166" d="m709.08-39.758h1.4199v12.008h-1.4199z" style=""/>
   <path id="path168" d="m712.45-36.393h1.5048l2.7009 7.254 2.701-7.254h1.5048l-3.2411 8.643h-1.9292z" style=""/>
   <path id="path170" d="m730.21-32.426v0.69453h-6.5286q0.0926 1.4662 0.87974 2.2379 0.79485 0.76398 2.2071 0.76398 0.818 0 1.582-0.20064 0.7717-0.20064 1.528-0.60192v1.3428q-0.76398 0.32411-1.5666 0.49389t-1.6283 0.16977q-2.0682 0-3.2797-1.2039-1.2038-1.2039-1.2038-3.2566 0-2.1222 1.1421-3.3646 1.1498-1.2502 3.0945-1.2502 1.744 0 2.755 1.1267 1.0186 1.119 1.0186 3.0482zm-1.4199-0.41672q-0.0154-1.1653-0.65594-1.8598-0.63279-0.69453-1.6823-0.69453-1.1884 0-1.9061 0.67138-0.70997 0.67138-0.818 1.8907zm-1.3659-7.5472h1.5357l-2.5157 2.9016h-1.1807z" style=""/>
   <path id="path172" d="m731.52-36.393h1.5048l2.701 7.254 2.701-7.254h1.5048l-3.2411 8.643h-1.9292z" style=""/>
   <path id="path174" d="m749.29-32.426v0.69453h-6.5286q0.0926 1.4662 0.87974 2.2379 0.79485 0.76398 2.2071 0.76398 0.818 0 1.582-0.20064 0.7717-0.20064 1.528-0.60192v1.3428q-0.76399 0.32411-1.5666 0.49389-0.80257 0.16977-1.6283 0.16977-2.0682 0-3.2797-1.2039-1.2038-1.2039-1.2038-3.2566 0-2.1222 1.1421-3.3646 1.1498-1.2502 3.0945-1.2502 1.744 0 2.755 1.1267 1.0186 1.119 1.0186 3.0482zm-1.4199-0.41672q-0.0154-1.1653-0.65594-1.8598-0.6328-0.69453-1.6823-0.69453-1.1884 0-1.9061 0.67138-0.70996 0.67138-0.818 1.8907z" style=""/>
  </g>
  <g id="text56" aria-label="választ,és van">
   <path id="path177" d="m790.02 66.954h1.5048l2.701 7.254 2.7009-7.254h1.5048l-3.2411 8.643h-1.9292z" style=""/>
   <path id="path179" d="m804.32 71.253q-1.7209 0-2.3846 0.39357-0.66366 0.39357-0.66366 1.3428 0 0.75626 0.49389 1.2039 0.5016 0.43987 1.3582 0.43987 1.1807 0 1.8907-0.83344 0.71768-0.84115 0.71768-2.2302v-0.3164zm2.8321-0.58649v4.9312h-1.4199v-1.3119q-0.48617 0.78713-1.2116 1.1653-0.72539 0.37042-1.7749 0.37042-1.3273 0-2.1145-0.74083-0.77942-0.74855-0.77942-1.9987 0-1.4585 0.97234-2.1993 0.98006-0.74083 2.917-0.74083h1.991v-0.13891q0-0.98006-0.64823-1.5125-0.64051-0.54019-1.8058-0.54019-0.74083 0-1.4431 0.17749t-1.3505 0.53247v-1.3119q0.77941-0.30096 1.5125-0.44759 0.73311-0.15434 1.4276-0.15434 1.8752 0 2.8013 0.97234t0.92604 2.9479zm-2.5929-7.7093h1.5357l-2.5157 2.9016h-1.1807z" style=""/>
   <path id="path181" d="m810.08 63.59h1.4199v12.008h-1.4199z" style=""/>
   <path id="path183" d="m818.39 71.253q-1.7209 0-2.3846 0.39357-0.66367 0.39357-0.66367 1.3428 0 0.75626 0.49389 1.2039 0.50161 0.43987 1.3582 0.43987 1.1807 0 1.8907-0.83344 0.71768-0.84115 0.71768-2.2302v-0.3164zm2.8321-0.58649v4.9312h-1.4199v-1.3119q-0.48618 0.78713-1.2116 1.1653-0.7254 0.37042-1.7749 0.37042-1.3273 0-2.1145-0.74083-0.77941-0.74855-0.77941-1.9987 0-1.4585 0.97234-2.1993 0.98006-0.74083 2.917-0.74083h1.991v-0.13891q0-0.98006-0.64823-1.5125-0.64051-0.54019-1.8058-0.54019-0.74083 0-1.4431 0.17749-0.70224 0.17749-1.3505 0.53247v-1.3119q0.77942-0.30096 1.5125-0.44759 0.73312-0.15434 1.4276-0.15434 1.8752 0 2.8013 0.97234t0.92604 2.9479z" style=""/>
   <path id="path185" d="m829.67 67.209v1.3428q-0.60193-0.30868-1.2502-0.46302-0.64823-0.15434-1.3428-0.15434-1.0572 0-1.5897 0.32411-0.52476 0.32411-0.52476 0.97234 0 0.49389 0.37814 0.77942 0.37813 0.27781 1.5202 0.53247l0.48617 0.10804q1.5125 0.32411 2.1453 0.91832 0.64051 0.58649 0.64051 1.6437 0 1.2039-0.95691 1.9061-0.94919 0.70225-2.6161 0.70225-0.69453 0-1.4508-0.13891-0.74855-0.13119-1.582-0.40128v-1.4662q0.78714 0.409 1.5511 0.61736 0.76398 0.20064 1.5125 0.20064 1.0032 0 1.5434-0.33955 0.54019-0.34726 0.54019-0.97234 0-0.57878-0.39357-0.88745-0.38585-0.30868-1.7054-0.59421l-0.49389-0.11576q-1.3196-0.27781-1.9061-0.84887-0.58649-0.57877-0.58649-1.582 0-1.2193 0.8643-1.8829 0.86431-0.66366 2.454-0.66366 0.78713 0 1.4817 0.11576t1.281 0.34726z" style=""/>
   <path id="path187" d="m831.78 66.954h6.7446v1.2965l-5.3402 6.2122h5.3402v1.1344h-6.9376v-1.2965l5.3402-6.2122h-5.1472z" style=""/>
   <path id="path189" d="m842.11 64.5v2.454h2.9247v1.1035h-2.9247v4.6919q0 1.0572 0.28553 1.3582 0.29325 0.30096 1.1807 0.30096h1.4585v1.1884h-1.4585q-1.6437 0-2.2688-0.60964-0.62507-0.61736-0.62507-2.2379v-4.6919h-1.0418v-1.1035h1.0418v-2.454z" style=""/>
   <path id="path191" d="m847.27 73.637h1.6283v1.3273l-1.2656 2.4694h-0.99549l0.63279-2.4694z" style=""/>
   <path id="path193" d="m802.85 90.676v0.69453h-6.5286q0.0926 1.4662 0.87974 2.2379 0.79485 0.76398 2.2071 0.76398 0.818 0 1.582-0.20064 0.7717-0.20064 1.528-0.60193v1.3428q-0.76399 0.32411-1.5666 0.49389-0.80257 0.16977-1.6283 0.16977-2.0682 0-3.2797-1.2039-1.2038-1.2038-1.2038-3.2566 0-2.1222 1.1421-3.3646 1.1498-1.2502 3.0945-1.2502 1.744 0 2.755 1.1267 1.0186 1.119 1.0186 3.0482zm-1.4199-0.41672q-0.0154-1.1653-0.65595-1.8598-0.63279-0.69453-1.6823-0.69453-1.1884 0-1.9061 0.67138-0.70996 0.67138-0.818 1.8907zm-1.3659-7.5472h1.5357l-2.5157 2.9016h-1.1807z" style=""/>
   <path id="path195" d="m810.69 86.964v1.3428q-0.60193-0.30868-1.2502-0.46302-0.64823-0.15434-1.3428-0.15434-1.0572 0-1.5897 0.32411-0.52476 0.32411-0.52476 0.97234 0 0.49389 0.37814 0.77942 0.37813 0.27781 1.5202 0.53247l0.48617 0.10804q1.5125 0.32411 2.1453 0.91832 0.64051 0.58649 0.64051 1.6437 0 1.2039-0.95691 1.9061-0.94919 0.70225-2.6161 0.70225-0.69453 0-1.4508-0.13891-0.74855-0.13119-1.582-0.40128v-1.4662q0.78714 0.409 1.5511 0.61736 0.76398 0.20064 1.5125 0.20064 1.0032 0 1.5434-0.33955 0.54019-0.34726 0.54019-0.97234 0-0.57878-0.39357-0.88745-0.38585-0.30868-1.7054-0.59421l-0.49389-0.11576q-1.3196-0.27781-1.9061-0.84887-0.58649-0.57877-0.58649-1.582 0-1.2193 0.8643-1.8829 0.86431-0.66366 2.454-0.66366 0.78713 0 1.4817 0.11576t1.281 0.34726z" style=""/>
   <path id="path197" d="m817.43 86.71h1.5048l2.7009 7.254 2.701-7.254h1.5048l-3.2411 8.643h-1.9292z" style=""/>
   <path id="path199" d="m831.73 91.008q-1.7209 0-2.3846 0.39357-0.66366 0.39357-0.66366 1.3428 0 0.75626 0.49388 1.2039 0.50161 0.43987 1.3582 0.43987 1.1807 0 1.8907-0.83344 0.71768-0.84115 0.71768-2.2302v-0.3164zm2.8321-0.58649v4.9312h-1.4199v-1.3119q-0.48617 0.78713-1.2116 1.1653-0.7254 0.37042-1.7749 0.37042-1.3273 0-2.1144-0.74083-0.77942-0.74855-0.77942-1.9987 0-1.4585 0.97234-2.1993 0.98006-0.74083 2.917-0.74083h1.991v-0.13891q0-0.98006-0.64823-1.5125-0.64051-0.54019-1.8058-0.54019-0.74083 0-1.4431 0.17749-0.70225 0.17749-1.3505 0.53247v-1.3119q0.77942-0.30096 1.5125-0.44759 0.73312-0.15434 1.4276-0.15434 1.8752 0 2.8013 0.97234 0.92603 0.97234 0.92603 2.9479z" style=""/>
   <path id="path201" d="m844.68 90.136v5.2167h-1.4199v-5.1704q0-1.227-0.47846-1.8366-0.47845-0.60964-1.4354-0.60964-1.1498 0-1.8135 0.73311-0.66366 0.73312-0.66366 1.9987v4.8849h-1.4276v-8.643h1.4276v1.3428q0.50932-0.77942 1.1961-1.1653 0.69453-0.38585 1.5974-0.38585 1.4894 0 2.2534 0.92604 0.76398 0.91832 0.76398 2.7087z" style=""/>
  </g>
  <g id="text60" aria-label="választ">
   <path id="path204" d="m414.6 6.832h1.5048l2.7009 7.254 2.701-7.254h1.5048l-3.2411 8.643h-1.9292z" style=""/>
   <path id="path206" d="m428.9 11.13q-1.7209 0-2.3846 0.39357-0.66366 0.39357-0.66366 1.3428 0 0.75626 0.49388 1.2039 0.50161 0.43987 1.3582 0.43987 1.1807 0 1.8907-0.83344 0.71768-0.84115 0.71768-2.2302v-0.3164zm2.8321-0.58649v4.9312h-1.4199v-1.3119q-0.48617 0.78713-1.2116 1.1653-0.7254 0.37042-1.7749 0.37042-1.3273 0-2.1144-0.74083-0.77942-0.74855-0.77942-1.9987 0-1.4585 0.97234-2.1993 0.98006-0.74083 2.917-0.74083h1.991v-0.13891q0-0.98006-0.64823-1.5125-0.64051-0.54019-1.8058-0.54019-0.74083 0-1.4431 0.17749-0.70225 0.17749-1.3505 0.53247v-1.3119q0.77942-0.30096 1.5125-0.44759 0.73312-0.15434 1.4276-0.15434 1.8752 0 2.8013 0.97234 0.92603 0.97234 0.92603 2.9479zm-2.5929-7.7093h1.5357l-2.5157 2.9016h-1.1807z" style=""/>
   <path id="path208" d="m434.66 3.4674h1.4199v12.008h-1.4199z" style=""/>
   <path id="path210" d="m442.98 11.13q-1.7209 0-2.3846 0.39357-0.66366 0.39357-0.66366 1.3428 0 0.75626 0.49389 1.2039 0.5016 0.43987 1.3582 0.43987 1.1807 0 1.8907-0.83344 0.71768-0.84115 0.71768-2.2302v-0.3164zm2.8321-0.58649v4.9312h-1.4199v-1.3119q-0.48617 0.78713-1.2116 1.1653-0.72539 0.37042-1.7749 0.37042-1.3273 0-2.1145-0.74083-0.77942-0.74855-0.77942-1.9987 0-1.4585 0.97235-2.1993 0.98005-0.74083 2.917-0.74083h1.991v-0.13891q0-0.98006-0.64822-1.5125-0.64052-0.54019-1.8058-0.54019-0.74083 0-1.4431 0.17749-0.70225 0.17749-1.3505 0.53247v-1.3119q0.77941-0.30096 1.5125-0.44759 0.73311-0.15434 1.4276-0.15434 1.8752 0 2.8013 0.97234 0.92604 0.97234 0.92604 2.9479z" style=""/>
   <path id="path212" d="m454.25 7.0866v1.3428q-0.60193-0.30868-1.2502-0.46302-0.64822-0.15434-1.3428-0.15434-1.0572 0-1.5897 0.32411-0.52476 0.32411-0.52476 0.97234 0 0.49389 0.37813 0.77942 0.37814 0.27781 1.5202 0.53247l0.48617 0.10804q1.5125 0.32411 2.1453 0.91832 0.64051 0.58649 0.64051 1.6437 0 1.2039-0.95691 1.9061-0.94919 0.70225-2.6161 0.70225-0.69453 0-1.4508-0.13891-0.74854-0.13119-1.582-0.40128v-1.4662q0.78713 0.409 1.5511 0.61736 0.76398 0.20064 1.5125 0.20064 1.0032 0 1.5434-0.33955 0.54019-0.34726 0.54019-0.97234 0-0.57878-0.39357-0.88746-0.38585-0.30868-1.7055-0.59421l-0.49388-0.11576q-1.3196-0.27781-1.9061-0.84887-0.58649-0.57877-0.58649-1.582 0-1.2193 0.8643-1.8829 0.8643-0.66366 2.454-0.66366 0.78714 0 1.4817 0.11575t1.281 0.34726z" style=""/>
   <path id="path214" d="m456.36 6.832h6.7447v1.2965l-5.3402 6.2122h5.3402v1.1344h-6.9376v-1.2965l5.3402-6.2122h-5.1472z" style=""/>
   <path id="path216" d="m466.69 4.378v2.454h2.9247v1.1035h-2.9247v4.6919q0 1.0572 0.28553 1.3582 0.29324 0.30096 1.1807 0.30096h1.4585v1.1884h-1.4585q-1.6437 0-2.2688-0.60964-0.62508-0.61736-0.62508-2.2379v-4.6919h-1.0418v-1.1035h1.0418v-2.454z" style=""/>
  </g>
  <g id="text64" aria-label="sztornó">
   <path id="path219" d="m418.66 97.087v1.3428q-0.60193-0.30868-1.2502-0.46302-0.64823-0.15434-1.3428-0.15434-1.0572 0-1.5897 0.32411-0.52476 0.32411-0.52476 0.97234 0 0.49389 0.37814 0.77942 0.37813 0.27781 1.5202 0.53247l0.48617 0.10804q1.5125 0.32411 2.1453 0.91832 0.64051 0.58649 0.64051 1.6437 0 1.2038-0.95691 1.9061-0.94919 0.70225-2.6161 0.70225-0.69453 0-1.4508-0.1389-0.74855-0.13119-1.582-0.40129v-1.4662q0.78714 0.409 1.5511 0.61736 0.76398 0.20064 1.5125 0.20064 1.0032 0 1.5434-0.33954 0.54019-0.34727 0.54019-0.97234 0-0.57878-0.39357-0.88746-0.38585-0.30868-1.7054-0.59421l-0.49389-0.11575q-1.3196-0.27781-1.9061-0.84887-0.58649-0.57878-0.58649-1.582 0-1.2193 0.8643-1.8829 0.86431-0.66366 2.454-0.66366 0.78713 0 1.4817 0.11576t1.281 0.34726z" style=""/>
   <path id="path221" d="m420.77 96.832h6.7446v1.2965l-5.3402 6.2122h5.3402v1.1344h-6.9376v-1.2965l5.3402-6.2122h-5.1472z" style=""/>
   <path id="path223" d="m431.1 94.378v2.454h2.9247v1.1035h-2.9247v4.6919q0 1.0572 0.28553 1.3582 0.29324 0.30096 1.1807 0.30096h1.4585v1.1884h-1.4585q-1.6437 0-2.2688-0.60964-0.62507-0.61736-0.62507-2.2379v-4.6919h-1.0418v-1.1035h1.0418v-2.454z" style=""/>
   <path id="path225" d="m439.25 97.827q-1.1421 0-1.8058 0.89517-0.66366 0.88745-0.66366 2.4386 0 1.5511 0.65594 2.4463 0.66366 0.88745 1.8135 0.88745 1.1344 0 1.7981-0.89517 0.66366-0.89517 0.66366-2.4386 0-1.5357-0.66366-2.4309-0.66367-0.90289-1.7981-0.90289zm0-1.2039q1.8521 0 2.9093 1.2039t1.0572 3.3337q0 2.1222-1.0572 3.3337-1.0572 1.2038-2.9093 1.2038-1.8598 0-2.917-1.2038-1.0495-1.2116-1.0495-3.3337 0-2.1299 1.0495-3.3337 1.0572-1.2039 2.917-1.2039z" style=""/>
   <path id="path227" d="m450.57 98.159q-0.23922-0.13891-0.52475-0.20064-0.27781-0.06945-0.61736-0.06945-1.2038 0-1.8521 0.78713-0.64051 0.77942-0.64051 2.2456v4.553h-1.4276v-8.643h1.4276v1.3428q0.44759-0.78713 1.1653-1.1653 0.71768-0.38585 1.744-0.38585 0.14662 0 0.32411 0.02315 0.17749 0.01543 0.39357 0.05402z" style=""/>
   <path id="path229" d="m458.98 100.26v5.2167h-1.4199v-5.1704q0-1.227-0.47846-1.8366-0.47845-0.60964-1.4354-0.60964-1.1498 0-1.8135 0.73311-0.66366 0.73312-0.66366 1.9987v4.8849h-1.4276v-8.643h1.4276v1.3428q0.50932-0.77942 1.1961-1.1653 0.69453-0.38585 1.5974-0.38585 1.4894 0 2.2534 0.92604 0.76398 0.91832 0.76398 2.7087z" style=""/>
   <path id="path231" d="m465.18 97.827q-1.1421 0-1.8058 0.89517-0.66366 0.88745-0.66366 2.4386 0 1.5511 0.65595 2.4463 0.66366 0.88745 1.8135 0.88745 1.1344 0 1.7981-0.89517t0.66366-2.4386q0-1.5357-0.66366-2.4309-0.66366-0.90289-1.7981-0.90289zm0-1.2039q1.8521 0 2.9093 1.2039 1.0572 1.2039 1.0572 3.3337 0 2.1222-1.0572 3.3337-1.0572 1.2038-2.9093 1.2038-1.8598 0-2.917-1.2038-1.0495-1.2116-1.0495-3.3337 0-2.1299 1.0495-3.3337 1.0572-1.2039 2.917-1.2039zm1.0727-3.789h1.5357l-2.5157 2.9016h-1.1807z" style=""/>
  </g>
  <g id="g70" fill="none" stroke="#000" stroke-width="2">
   <path id="path66" d="m695.67 80.602a68.868 68.868 0 0 1-106.87-12.998"/>
   <path id="polyline68" d="m596.73 72.196-9.102-6.4916 0.268 11.177"/>
  </g>
  <g id="text74" aria-label="sztornó">
   <path id="path235" d="m598.66 121.09v1.3428q-0.60193-0.30868-1.2502-0.46302-0.64823-0.15434-1.3428-0.15434-1.0572 0-1.5897 0.32412-0.52476 0.32411-0.52476 0.97234 0 0.49388 0.37814 0.77941 0.37813 0.27782 1.5202 0.53248l0.48617 0.10803q1.5125 0.32412 2.1453 0.91833 0.64051 0.58649 0.64051 1.6437 0 1.2038-0.95691 1.9061-0.94919 0.70225-2.6161 0.70225-0.69453 0-1.4508-0.13891-0.74855-0.13119-1.582-0.40128v-1.4662q0.78714 0.409 1.5511 0.61736 0.76398 0.20064 1.5125 0.20064 1.0032 0 1.5434-0.33955 0.54019-0.34726 0.54019-0.97234 0-0.57877-0.39357-0.88745-0.38585-0.30868-1.7054-0.59421l-0.49389-0.11575q-1.3196-0.27782-1.9061-0.84887-0.58649-0.57878-0.58649-1.582 0-1.2193 0.8643-1.8829 0.86431-0.66366 2.454-0.66366 0.78713 0 1.4817 0.11575 0.69453 0.11576 1.281 0.34727z" style=""/>
   <path id="path237" d="m600.77 120.83h6.7446v1.2965l-5.3402 6.2122h5.3402v1.1344h-6.9376v-1.2965l5.3402-6.2122h-5.1472z" style=""/>
   <path id="path239" d="m611.1 118.38v2.454h2.9247v1.1035h-2.9247v4.6919q0 1.0572 0.28553 1.3582 0.29324 0.30096 1.1807 0.30096h1.4585v1.1884h-1.4585q-1.6437 0-2.2688-0.60965-0.62507-0.61736-0.62507-2.2379v-4.6919h-1.0418v-1.1035h1.0418v-2.454z" style=""/>
   <path id="path241" d="m619.25 121.83q-1.1421 0-1.8058 0.89517-0.66366 0.88745-0.66366 2.4386 0 1.5511 0.65594 2.4463 0.66366 0.88746 1.8135 0.88746 1.1344 0 1.7981-0.89517 0.66366-0.89517 0.66366-2.4386 0-1.5357-0.66366-2.4309-0.66367-0.90288-1.7981-0.90288zm0-1.2038q1.8521 0 2.9093 1.2038t1.0572 3.3337q0 2.1222-1.0572 3.3337-1.0572 1.2038-2.9093 1.2038-1.8598 0-2.917-1.2038-1.0495-1.2116-1.0495-3.3337 0-2.1299 1.0495-3.3337 1.0572-1.2038 2.917-1.2038z" style=""/>
   <path id="path243" d="m630.57 122.16q-0.23922-0.13891-0.52475-0.20064-0.27781-0.0695-0.61736-0.0695-1.2038 0-1.8521 0.78714-0.64051 0.77941-0.64051 2.2456v4.553h-1.4276v-8.643h1.4276v1.3428q0.44759-0.78713 1.1653-1.1653 0.71768-0.38585 1.744-0.38585 0.14662 0 0.32411 0.0232 0.17749 0.0154 0.39357 0.054z" style=""/>
   <path id="path245" d="m638.98 124.26v5.2167h-1.4199v-5.1704q0-1.227-0.47846-1.8366-0.47845-0.60965-1.4354-0.60965-1.1498 0-1.8135 0.73312-0.66366 0.73311-0.66366 1.9987v4.8849h-1.4276v-8.643h1.4276v1.3428q0.50932-0.77941 1.1961-1.1653 0.69453-0.38585 1.5974-0.38585 1.4894 0 2.2534 0.92603 0.76398 0.91833 0.76398 2.7087z" style=""/>
   <path id="path247" d="m645.18 121.83q-1.1421 0-1.8058 0.89517-0.66366 0.88745-0.66366 2.4386 0 1.5511 0.65595 2.4463 0.66366 0.88746 1.8135 0.88746 1.1344 0 1.7981-0.89517t0.66366-2.4386q0-1.5357-0.66366-2.4309-0.66366-0.90288-1.7981-0.90288zm0-1.2038q1.8521 0 2.9093 1.2038 1.0572 1.2038 1.0572 3.3337 0 2.1222-1.0572 3.3337-1.0572 1.2038-2.9093 1.2038-1.8598 0-2.917-1.2038-1.0495-1.2116-1.0495-3.3337 0-2.1299 1.0495-3.3337 1.0572-1.2038 2.917-1.2038zm1.0727-3.789h1.5357l-2.5157 2.9016h-1.1807z" style=""/>
  </g>
  <g id="g80" fill="none" stroke="#000" stroke-width="2">
   <path id="path76" d="M 475.589,60.7352 C 420,70 440,110 495.67,80.6022"/>
   <path id="polyline78" d="m468.75 66.944 9.042-6.576-10.686-3.288"/>
  </g>
  <g id="g86" fill="none" stroke="#000" stroke-width="2">
   <path id="line82" d="m588 55.5h86.519"/>
   <path id="polyline84" d="m666.76 60.5 10-5-10-5"/>
  </g>
  <g id="g92" fill="none" stroke="#000" stroke-width="2">
   <path id="line88" d="m788 55.5h66.522"/>
   <path id="polyline90" d="m846.76 60.5 10-5-10-5"/>
  </g>
  <g id="g98" fill="none" stroke="#000" stroke-width="2">
   <path id="path94" d="m440-20c20 0 39.588-13.816 70.777 37.855"/>
   <path id="polyline96" d="m502.48 13.792 9.448 5.9774-0.887-11.145"/>
  </g>
  <g id="text102" aria-label="pénz be">
   <path id="path256" d="m602.86 44.179v4.5839h-1.4276v-11.93h1.4276v1.3119q0.44759-0.7717 1.1267-1.1421 0.68681-0.37813 1.636-0.37813 1.5743 0 2.5543 1.2502 0.98778 1.2502 0.98778 3.2874t-0.98778 3.2874q-0.98006 1.2502-2.5543 1.2502-0.94919 0-1.636-0.37042-0.6791-0.37813-1.1267-1.1498zm4.8308-3.0173q0-1.5666-0.64823-2.454-0.64051-0.89517-1.7672-0.89517t-1.7749 0.89517q-0.64051 0.88745-0.64051 2.454 0 1.5665 0.64051 2.4617 0.64823 0.88745 1.7749 0.88745t1.7672-0.88745q0.64823-0.89517 0.64823-2.4617z" style=""/>
   <path id="path258" d="m618.91 40.799v0.69453h-6.5286q0.0926 1.4662 0.87974 2.2379 0.79485 0.76398 2.2071 0.76398 0.818 0 1.582-0.20064 0.7717-0.20064 1.528-0.60193v1.3428q-0.76398 0.32411-1.5666 0.49389-0.80257 0.16977-1.6283 0.16977-2.0682 0-3.2797-1.2039-1.2038-1.2038-1.2038-3.2566 0-2.1222 1.1421-3.3646 1.1498-1.2502 3.0945-1.2502 1.744 0 2.755 1.1267 1.0186 1.119 1.0186 3.0482zm-1.4199-0.41672q-0.0154-1.1653-0.65594-1.8598-0.6328-0.69453-1.6823-0.69453-1.1884 0-1.9061 0.67138-0.70997 0.67138-0.81801 1.8907zm-1.3659-7.5472h1.5357l-2.5157 2.9016h-1.1807z" style=""/>
   <path id="path260" d="m628.43 40.258v5.2167h-1.4199v-5.1704q0-1.227-0.47845-1.8366-0.47845-0.60964-1.4354-0.60964-1.1498 0-1.8135 0.73311-0.66367 0.73312-0.66367 1.9987v4.8849h-1.4276v-8.643h1.4276v1.3428q0.50933-0.77942 1.1961-1.1653 0.69453-0.38585 1.5974-0.38585 1.4894 0 2.2534 0.92604 0.76398 0.91832 0.76398 2.7087z" style=""/>
   <path id="path262" d="m630.66 36.832h6.7446v1.2965l-5.3402 6.2122h5.3402v1.1344h-6.9376v-1.2965l5.3402-6.2122h-5.1472z" style=""/>
   <path id="path264" d="m650.82 41.161q0-1.5666-0.64823-2.454-0.64051-0.89517-1.7672-0.89517t-1.7749 0.89517q-0.64051 0.88745-0.64051 2.454 0 1.5665 0.64051 2.4617 0.64823 0.88745 1.7749 0.88745t1.7672-0.88745q0.64823-0.89517 0.64823-2.4617zm-4.8308-3.0173q0.44758-0.7717 1.1267-1.1421 0.68681-0.37813 1.636-0.37813 1.5743 0 2.5543 1.2502 0.98777 1.2502 0.98777 3.2874t-0.98777 3.2874q-0.98006 1.2502-2.5543 1.2502-0.94919 0-1.636-0.37042-0.6791-0.37813-1.1267-1.1498v1.2965h-1.4276v-12.008h1.4276z" style=""/>
   <path id="path266" d="m662.04 40.799v0.69453h-6.5286q0.0926 1.4662 0.87973 2.2379 0.79485 0.76398 2.2071 0.76398 0.818 0 1.582-0.20064 0.7717-0.20064 1.528-0.60193v1.3428q-0.76398 0.32411-1.5666 0.49389-0.80257 0.16977-1.6283 0.16977-2.0682 0-3.2797-1.2039-1.2038-1.2038-1.2038-3.2566 0-2.1222 1.1421-3.3646 1.1498-1.2502 3.0945-1.2502 1.744 0 2.755 1.1267 1.0186 1.119 1.0186 3.0482zm-1.4199-0.41672q-0.0154-1.1653-0.65595-1.8598-0.63279-0.69453-1.6823-0.69453-1.1884 0-1.9061 0.67138-0.70996 0.67138-0.818 1.8907z" style=""/>
  </g>
  <g id="g108" fill="none" stroke="#000" stroke-width="2">
   <path id="path104" d="M 971.375,54.5711 C 1040,40 1000,0 951.33,30.3978"/>
   <path id="polyline106" d="m977.93 48.068-8.744 6.968 10.821 2.814"/>
  </g>
  <g id="text112" aria-label="választ">
   <path id="path270" d="m980.47 6.832h1.5048l2.701 7.254 2.7009-7.254h1.5048l-3.2411 8.643h-1.9292z" style=""/>
   <path id="path272" d="m994.77 11.13q-1.7209 0-2.3846 0.39357-0.66366 0.39357-0.66366 1.3428 0 0.75626 0.49389 1.2039 0.5016 0.43987 1.3582 0.43987 1.1807 0 1.8907-0.83344 0.71768-0.84115 0.71768-2.2302v-0.3164zm2.8321-0.58649v4.9312h-1.4199v-1.3119q-0.48617 0.78713-1.2116 1.1653-0.7254 0.37042-1.7749 0.37042-1.3273 0-2.1145-0.74083-0.77942-0.74855-0.77942-1.9987 0-1.4585 0.97235-2.1993 0.98005-0.74083 2.917-0.74083h1.991v-0.13891q0-0.98006-0.64822-1.5125-0.64051-0.54019-1.8058-0.54019-0.74083 0-1.4431 0.17749-0.70224 0.17749-1.3505 0.53247v-1.3119q0.77941-0.30096 1.5125-0.44759 0.73311-0.15434 1.4276-0.15434 1.8752 0 2.8013 0.97234 0.92604 0.97234 0.92604 2.9479zm-2.5929-7.7093h1.5357l-2.5157 2.9016h-1.1807z" style=""/>
   <path id="path274" d="m1000.5 3.4674h1.4199v12.008h-1.4199z" style=""/>
   <path id="path276" d="m1008.8 11.13q-1.7209 0-2.3845 0.39357-0.6637 0.39357-0.6637 1.3428 0 0.75626 0.4939 1.2039 0.5016 0.43987 1.3582 0.43987 1.1807 0 1.8906-0.83344 0.7177-0.84115 0.7177-2.2302v-0.3164zm2.8322-0.58649v4.9312h-1.42v-1.3119q-0.4861 0.78713-1.2115 1.1653-0.7254 0.37042-1.7749 0.37042-1.3274 0-2.1145-0.74083-0.7794-0.74855-0.7794-1.9987 0-1.4585 0.9723-2.1993 0.9801-0.74083 2.917-0.74083h1.991v-0.13891q0-0.98006-0.6482-1.5125-0.6405-0.54019-1.8058-0.54019-0.7408 0-1.4431 0.17749-0.7022 0.17749-1.3504 0.53247v-1.3119q0.7794-0.30096 1.5125-0.44759 0.7331-0.15434 1.4276-0.15434 1.8753 0 2.8013 0.97234 0.9261 0.97234 0.9261 2.9479z" style=""/>
   <path id="path278" d="m1020.1 7.0866v1.3428q-0.6019-0.30868-1.2501-0.46302-0.6482-0.15434-1.3428-0.15434-1.0572 0-1.5897 0.32411-0.5247 0.32411-0.5247 0.97234 0 0.49389 0.3781 0.77942 0.3781 0.27781 1.5203 0.53247l0.4861 0.10804q1.5126 0.32411 2.1454 0.91832 0.6405 0.58649 0.6405 1.6437 0 1.2039-0.9569 1.9061-0.9492 0.70225-2.6161 0.70225-0.6945 0-1.4508-0.13891-0.7485-0.13119-1.582-0.40128v-1.4662q0.7871 0.409 1.5511 0.61736 0.764 0.20064 1.5126 0.20064 1.0032 0 1.5434-0.33955 0.5402-0.34726 0.5402-0.97234 0-0.57878-0.3936-0.88746-0.3859-0.30868-1.7055-0.59421l-0.4939-0.11576q-1.3196-0.27781-1.9061-0.84887-0.5864-0.57877-0.5864-1.582 0-1.2193 0.8643-1.8829 0.8643-0.66366 2.454-0.66366 0.7871 0 1.4816 0.11575 0.6946 0.11575 1.281 0.34726z" style=""/>
   <path id="path280" d="m1022.2 6.832h6.7447v1.2965l-5.3402 6.2122h5.3402v1.1344h-6.9376v-1.2965l5.3401-6.2122h-5.1472z" style=""/>
   <path id="path282" d="m1032.6 4.378v2.454h2.9248v1.1035h-2.9248v4.6919q0 1.0572 0.2856 1.3582 0.2932 0.30096 1.1807 0.30096h1.4585v1.1884h-1.4585q-1.6438 0-2.2688-0.60964-0.6251-0.61736-0.6251-2.2379v-4.6919h-1.0418v-1.1035h1.0418v-2.454z" style=""/>
  </g>
  <g id="g118" fill="none" stroke="#000" stroke-width="2">
   <path id="path114" d="M 964.433,72.5911 C 1020,80 1020,150 940,88"/>
   <path id="polyline116" d="m972.79 68.661-10.574 3.6345 9.252 6.2778"/>
  </g>
  <g id="text122" aria-label="sztornó">
   <path id="path286" d="m987 127.09v1.3428q-0.60192-0.30868-1.2502-0.46302t-1.3428-0.15434q-1.0572 0-1.5897 0.32412-0.52475 0.32411-0.52475 0.97234 0 0.49388 0.37813 0.77941 0.37813 0.27782 1.5202 0.53248l0.48617 0.10803q1.5125 0.32412 2.1453 0.91833 0.64051 0.58649 0.64051 1.6437 0 1.2038-0.95691 1.9061-0.94919 0.70225-2.6161 0.70225-0.69453 0-1.4508-0.13891-0.74855-0.13119-1.582-0.40128v-1.4662q0.78713 0.409 1.5511 0.61736 0.76398 0.20064 1.5125 0.20064 1.0032 0 1.5434-0.33955 0.54019-0.34726 0.54019-0.97234 0-0.57877-0.39357-0.88745-0.38585-0.30868-1.7054-0.59421l-0.49389-0.11575q-1.3196-0.27782-1.9061-0.84887-0.58649-0.57878-0.58649-1.582 0-1.2193 0.86431-1.8829 0.8643-0.66366 2.454-0.66366 0.78713 0 1.4817 0.11575 0.69453 0.11576 1.281 0.34727z" style=""/>
   <path id="path288" d="m989.11 126.83h6.7446v1.2965l-5.3402 6.2122h5.3402v1.1344h-6.9376v-1.2965l5.3402-6.2122h-5.1472z" style=""/>
   <path id="path290" d="m999.44 124.38v2.454h2.9247v1.1035h-2.9247v4.6919q0 1.0572 0.28553 1.3582 0.29327 0.30096 1.1807 0.30096h1.4585v1.1884h-1.4585q-1.6437 0-2.2688-0.60965-0.62508-0.61736-0.62508-2.2379v-4.6919h-1.0418v-1.1035h1.0418v-2.454z" style=""/>
   <path id="path292" d="m1007.6 127.83q-1.1421 0-1.8057 0.89517-0.6637 0.88745-0.6637 2.4386 0 1.5511 0.656 2.4463 0.6636 0.88746 1.8134 0.88746 1.1344 0 1.7981-0.89517t0.6637-2.4386q0-1.5357-0.6637-2.4309-0.6637-0.90288-1.7981-0.90288zm0-1.2038q1.8521 0 2.9094 1.2038 1.0572 1.2038 1.0572 3.3337 0 2.1222-1.0572 3.3337-1.0573 1.2038-2.9094 1.2038-1.8597 0-2.917-1.2038-1.0495-1.2116-1.0495-3.3337 0-2.1299 1.0495-3.3337 1.0573-1.2038 2.917-1.2038z" style=""/>
   <path id="path294" d="m1018.9 128.16q-0.2392-0.13891-0.5248-0.20064-0.2778-0.0695-0.6173-0.0695-1.2039 0-1.8521 0.78714-0.6405 0.77941-0.6405 2.2456v4.553h-1.4277v-8.643h1.4277v1.3428q0.4476-0.78713 1.1652-1.1653 0.7177-0.38585 1.7441-0.38585 0.1466 0 0.3241 0.0232 0.1775 0.0154 0.3936 0.054z" style=""/>
   <path id="path296" d="m1027.3 130.26v5.2167h-1.4199v-5.1704q0-1.227-0.4785-1.8366-0.4784-0.60965-1.4353-0.60965-1.1499 0-1.8135 0.73312-0.6637 0.73311-0.6637 1.9987v4.8849h-1.4276v-8.643h1.4276v1.3428q0.5093-0.77941 1.1961-1.1653 0.6946-0.38585 1.5975-0.38585 1.4893 0 2.2533 0.92603 0.764 0.91833 0.764 2.7087z" style=""/>
   <path id="path298" d="m1033.5 127.83q-1.1421 0-1.8057 0.89517-0.6637 0.88745-0.6637 2.4386 0 1.5511 0.6559 2.4463 0.6637 0.88746 1.8135 0.88746 1.1344 0 1.7981-0.89517t0.6637-2.4386q0-1.5357-0.6637-2.4309-0.6637-0.90288-1.7981-0.90288zm0-1.2038q1.8521 0 2.9093 1.2038 1.0573 1.2038 1.0573 3.3337 0 2.1222-1.0573 3.3337-1.0572 1.2038-2.9093 1.2038-1.8598 0-2.917-1.2038-1.0495-1.2116-1.0495-3.3337 0-2.1299 1.0495-3.3337 1.0572-1.2038 2.917-1.2038zm1.0727-3.789h1.5357l-2.5158 2.9016h-1.1807z" style=""/>
  </g>
 </g>
</svg>
