<?xml version="1.0" encoding="UTF-8"?>
<svg id="svg103" width="25.91cm" height="9.7306cm" version="1.1" viewBox="-121 47 501.25 185.85" xmlns="http://www.w3.org/2000/svg" xmlns:cc="http://creativecommons.org/ns#" xmlns:dc="http://purl.org/dc/elements/1.1/" xmlns:rdf="http://www.w3.org/1999/02/22-rdf-syntax-ns#">
 <metadata id="metadata109">
  <rdf:RDF>
   <cc:Work rdf:about="">
    <dc:format>image/svg+xml</dc:format>
    <dc:type rdf:resource="http://purl.org/dc/dcmitype/StillImage"/>
   </cc:Work>
  </rdf:RDF>
 </metadata>
 <g id="Háttér" transform="translate(-1 -3.3629)">
  <g id="text4" aria-label="l">
   <path id="path866" d="m59.398 119.71h1.2171v10.292h-1.2171z" style=""/>
  </g>
  <g id="g10" fill="none" stroke="#000" stroke-width="2">
   <path id="path6" d="m170 135h105.53"/>
   <path id="polyline8" d="m267.76 140 10-5-10-5"/>
  </g>
  <g id="text14" aria-label="l">
   <path id="path870" d="m219.4 119.71h1.2171v10.292h-1.2171z" style=""/>
  </g>
  <g id="text18" aria-label="egyéb">
   <path id="path873" d="m86.672 85.992v0.59531h-5.596q0.07937 1.2568 0.75406 1.9182 0.6813 0.65484 1.8918 0.65484 0.70115 0 1.356-0.17198 0.66146-0.17198 1.3097-0.51594v1.1509q-0.65484 0.27781-1.3428 0.42333-0.68792 0.14552-1.3957 0.14552-1.7727 0-2.8112-1.0319-1.0319-1.0319-1.0319-2.7914 0-1.819 0.97896-2.884 0.98558-1.0716 2.6525-1.0716 1.4949 0 2.3614 0.96573 0.87313 0.95912 0.87313 2.6128zm-1.2171-0.35719q-0.01323-0.9988-0.56224-1.5941-0.5424-0.59531-1.442-0.59531-1.0186 0-1.6338 0.57547-0.60854 0.57547-0.70115 1.6206z" style=""/>
   <path id="path875" d="m93.544 86.21q0-1.3229-0.54901-2.0505-0.5424-0.72761-1.528-0.72761-0.97896 0-1.528 0.72761-0.5424 0.72761-0.5424 2.0505 0 1.3163 0.5424 2.0439 0.54901 0.72761 1.528 0.72761 0.98558 0 1.528-0.72761 0.54901-0.72761 0.54901-2.0439zm1.2171 2.8707q0 1.8918-0.84005 2.8112-0.84005 0.92604-2.5731 0.92604-0.64162 0-1.2105-0.09922-0.56886-0.0926-1.1046-0.29104v-1.184q0.53578 0.29104 1.0583 0.42995 0.52255 0.13891 1.065 0.13891 1.1972 0 1.7926-0.62839 0.59531-0.62177 0.59531-1.8852v-0.60193q-0.37703 0.65484-0.96573 0.97896-0.5887 0.32412-1.4089 0.32412-1.3626 0-2.196-1.0385-0.83344-1.0385-0.83344-2.7517 0-1.7198 0.83344-2.7583 0.83344-1.0385 2.196-1.0385 0.82021 0 1.4089 0.32412 0.5887 0.32412 0.96573 0.97896v-1.1245h1.2171z" style=""/>
   <path id="path877" d="m100.35 90.688q-0.51594 1.3229-1.0054 1.7264-0.48948 0.40349-1.3097 0.40349h-0.97235v-1.0186h0.71438q0.50271 0 0.78052-0.23813 0.27781-0.23812 0.61516-1.1245l0.21828-0.55563-2.9964-7.2893h1.2898l2.3151 5.7944 2.3151-5.7944h1.2898z" style=""/>
   <path id="path879" d="m111.62 85.992v0.59531h-5.596q0.0794 1.2568 0.75406 1.9182 0.68131 0.65484 1.8918 0.65484 0.70115 0 1.356-0.17198 0.66146-0.17198 1.3097-0.51594v1.1509q-0.65484 0.27781-1.3428 0.42333t-1.3957 0.14552q-1.7727 0-2.8112-1.0319-1.0319-1.0319-1.0319-2.7914 0-1.819 0.97896-2.884 0.98557-1.0716 2.6524-1.0716 1.4949 0 2.3614 0.96573 0.87313 0.95912 0.87313 2.6128zm-1.2171-0.35719q-0.0132-0.9988-0.56224-1.5941-0.54239-0.59531-1.442-0.59531-1.0186 0-1.6338 0.57547-0.60854 0.57547-0.70114 1.6206zm-1.1708-6.4691h1.3163l-2.1564 2.4871h-1.012z" style=""/>
   <path id="path881" d="m118.94 86.302q0-1.3428-0.55563-2.1034-0.54901-0.76729-1.5147-0.76729t-1.5214 0.76729q-0.54901 0.76068-0.54901 2.1034t0.54901 2.1101q0.55563 0.76068 1.5214 0.76068t1.5147-0.76068q0.55563-0.76729 0.55563-2.1101zm-4.1407-2.5863q0.38365-0.66146 0.96573-0.97896 0.5887-0.32412 1.4023-0.32412 1.3494 0 2.1894 1.0716 0.84667 1.0716 0.84667 2.8178t-0.84667 2.8178q-0.84006 1.0716-2.1894 1.0716-0.8136 0-1.4023-0.3175-0.58208-0.32412-0.96573-0.98558v1.1113h-1.2237v-10.292h1.2237z" style=""/>
  </g>
  <g id="text22" aria-label="y, +1">
   <path id="path884" d="m46.05 170.69q-0.51594 1.3229-1.0054 1.7264-0.48948 0.40349-1.3097 0.40349h-0.97235v-1.0186h0.71438q0.50271 0 0.78052-0.23812 0.27781-0.23813 0.61516-1.1245l0.21828-0.55562-2.9964-7.2893h1.2898l2.3151 5.7944 2.3151-5.7944h1.2898z" style=""/>
   <path id="path886" d="m51.295 168.32h1.3957v1.1377l-1.0848 2.1167h-0.85328l0.5424-2.1167z" style=""/>
   <path id="path888" d="m64.564 161.51v3.6843h3.6843v1.1245h-3.6843v3.6843h-1.1113v-3.6843h-3.6843v-1.1245h3.6843v-3.6843z" style=""/>
   <path id="path890" d="m71.364 168.88h2.1828v-7.534l-2.3746 0.47625v-1.2171l2.3614-0.47625h1.3361v8.7511h2.1828v1.1245h-5.6886z" style=""/>
  </g>
  <g id="text26" aria-label="y, +2">
   <path id="path893" d="m114.05 232.69q-0.51594 1.3229-1.0054 1.7264t-1.3097 0.40349h-0.97235v-1.0186h0.71438q0.50271 0 0.78052-0.23812 0.27782-0.23813 0.61516-1.1245l0.21828-0.55562-2.9964-7.2893h1.2898l2.3151 5.7944 2.3151-5.7944h1.2898z" style=""/>
   <path id="path895" d="m119.3 230.32h1.3957v1.1377l-1.0848 2.1167h-0.85328l0.5424-2.1167z" style=""/>
   <path id="path897" d="m132.56 223.51v3.6843h3.6843v1.1245h-3.6843v3.6843h-1.1112v-3.6843h-3.6843v-1.1245h3.6843v-3.6843z" style=""/>
   <path id="path899" d="m140.28 230.88h4.6633v1.1245h-6.2706v-1.1245q0.76068-0.78714 2.0704-2.1101 1.3163-1.3295 1.6536-1.7132 0.64162-0.72099 0.89297-1.2171 0.25797-0.50271 0.25797-0.98557 0-0.78714-0.55562-1.2832-0.54901-0.4961-1.4354-0.4961-0.62839 0-1.3295 0.21828-0.69453 0.21828-1.4883 0.66146v-1.3494q0.80698-0.32411 1.5081-0.48948 0.70115-0.16536 1.2832-0.16536 1.5346 0 2.4474 0.76729 0.91282 0.7673 0.91282 2.0505 0 0.60854-0.23151 1.1576-0.2249 0.5424-0.82683 1.2832-0.16536 0.19182-1.0517 1.1112-0.88636 0.91281-2.5003 2.5598z" style=""/>
  </g>
  <g id="g32" fill="none" stroke="#000" stroke-width="2">
   <path id="path28" d="m350 135c60 15 18.394 72.336-18.444 35.498"/>
   <path id="polyline30" d="m340.58 172.45-10.607-3.536 3.536 10.607"/>
  </g>
  <g id="text36" aria-label="l">
   <path id="path903" d="m379.4 179.71h1.2171v10.292h-1.2171z" style=""/>
  </g>
  <g id="text40" aria-label="egyéb">
   <path id="path906" d="m186.67 55.992v0.59531h-5.596q0.0794 1.2568 0.75407 1.9182 0.6813 0.65484 1.8918 0.65484 0.70115 0 1.356-0.17198 0.66146-0.17198 1.3097-0.51594v1.1509q-0.65484 0.27781-1.3428 0.42333t-1.3957 0.14552q-1.7727 0-2.8112-1.0319-1.0319-1.0319-1.0319-2.7914 0-1.819 0.97896-2.884 0.98557-1.0716 2.6524-1.0716 1.4949 0 2.3614 0.96573 0.87312 0.95912 0.87312 2.6128zm-1.2171-0.35719q-0.0132-0.9988-0.56224-1.5941-0.5424-0.59531-1.442-0.59531-1.0186 0-1.6338 0.57547-0.60855 0.57547-0.70115 1.6206z" style=""/>
   <path id="path908" d="m193.54 56.21q0-1.3229-0.54901-2.0505-0.5424-0.72761-1.528-0.72761-0.97896 0-1.528 0.72761-0.54239 0.72761-0.54239 2.0505 0 1.3163 0.54239 2.0439 0.54902 0.72761 1.528 0.72761 0.98557 0 1.528-0.72761 0.54901-0.72761 0.54901-2.0439zm1.2171 2.8707q0 1.8918-0.84006 2.8112-0.84005 0.92604-2.5731 0.92604-0.64161 0-1.2105-0.09922-0.56885-0.0926-1.1046-0.29104v-1.184q0.53579 0.29104 1.0583 0.42995 0.52255 0.13891 1.065 0.13891 1.1972 0 1.7926-0.62839 0.59531-0.62177 0.59531-1.8852v-0.60193q-0.37703 0.65484-0.96573 0.97896t-1.4089 0.32412q-1.3626 0-2.196-1.0385t-0.83344-2.7517q0-1.7198 0.83344-2.7583t2.196-1.0385q0.82021 0 1.4089 0.32412t0.96573 0.97896v-1.1245h1.2171z" style=""/>
   <path id="path910" d="m200.35 60.688q-0.51593 1.3229-1.0054 1.7264-0.48948 0.40349-1.3097 0.40349h-0.97234v-1.0186h0.71437q0.50271 0 0.78053-0.23813 0.27781-0.23812 0.61516-1.1245l0.21828-0.55563-2.9964-7.2893h1.2898l2.3151 5.7944 2.3151-5.7944h1.2898z" style=""/>
   <path id="path912" d="m211.62 55.992v0.59531h-5.596q0.0794 1.2568 0.75406 1.9182 0.68131 0.65484 1.8918 0.65484 0.70115 0 1.356-0.17198 0.66146-0.17198 1.3097-0.51594v1.1509q-0.65484 0.27781-1.3428 0.42333t-1.3957 0.14552q-1.7727 0-2.8112-1.0319-1.0319-1.0319-1.0319-2.7914 0-1.819 0.97896-2.884 0.98557-1.0716 2.6524-1.0716 1.4949 0 2.3614 0.96573 0.87313 0.95912 0.87313 2.6128zm-1.2171-0.35719q-0.0132-0.9988-0.56224-1.5941-0.54239-0.59531-1.442-0.59531-1.0186 0-1.6338 0.57547-0.60854 0.57547-0.70114 1.6206zm-1.1708-6.4691h1.3163l-2.1564 2.4871h-1.012z" style=""/>
   <path id="path914" d="m218.94 56.302q0-1.3428-0.55563-2.1034-0.54901-0.76729-1.5147-0.76729t-1.5214 0.76729q-0.54901 0.76068-0.54901 2.1034t0.54901 2.1101q0.55563 0.76068 1.5214 0.76068t1.5147-0.76068q0.55563-0.76729 0.55563-2.1101zm-4.1407-2.5863q0.38365-0.66146 0.96573-0.97896 0.5887-0.32412 1.4023-0.32412 1.3494 0 2.1894 1.0716 0.84667 1.0716 0.84667 2.8178t-0.84667 2.8178q-0.84006 1.0716-2.1894 1.0716-0.8136 0-1.4023-0.3175-0.58208-0.32412-0.96573-0.98558v1.1113h-1.2237v-10.292h1.2237z" style=""/>
  </g>
  <g id="g48">
   <path id="ellipse42" d="m10 135a35 35 0 0 1-35 35 35 35 0 0 1-35-35 35 35 0 0 1 35-35 35 35 0 0 1 35 35z" fill="#7babe3" stroke="#000" stroke-width="2"/>
   <g id="text46" aria-label="alap">
    <path id="path918" d="m-34.843 135.41q-1.4751 0-2.0439 0.33734-0.56886 0.33735-0.56886 1.1509 0 0.64823 0.42334 1.0319 0.42995 0.37703 1.1642 0.37703 1.012 0 1.6206-0.71438 0.61516-0.72099 0.61516-1.9116v-0.27119zm2.4276-0.50271v4.2267h-1.2171v-1.1245q-0.41672 0.67469-1.0385 0.99881-0.62177 0.3175-1.5214 0.3175-1.1377 0-1.8124-0.635-0.66808-0.64162-0.66808-1.7132 0-1.2502 0.83344-1.8852 0.84005-0.63501 2.5003-0.63501h1.7066v-0.11906q0-0.84005-0.55563-1.2965-0.54901-0.46302-1.5478-0.46302-0.635 0-1.2369 0.15213-0.60193 0.15214-1.1576 0.45641v-1.1245q0.66808-0.25797 1.2965-0.38365 0.62839-0.13229 1.2237-0.13229 1.6073 0 2.4011 0.83344t0.79375 2.5268z" style=""/>
    <path id="path920" d="m-29.901 128.84h1.2171v10.292h-1.2171z" style=""/>
    <path id="path922" d="m-22.777 135.41q-1.4751 0-2.0439 0.33734-0.56886 0.33735-0.56886 1.1509 0 0.64823 0.42333 1.0319 0.42995 0.37703 1.1642 0.37703 1.012 0 1.6206-0.71438 0.61516-0.72099 0.61516-1.9116v-0.27119zm2.4276-0.50271v4.2267h-1.2171v-1.1245q-0.41672 0.67469-1.0385 0.99881-0.62177 0.3175-1.5214 0.3175-1.1377 0-1.8124-0.635-0.66808-0.64162-0.66808-1.7132 0-1.2502 0.83344-1.8852 0.84005-0.63501 2.5003-0.63501h1.7066v-0.11906q0-0.84005-0.55563-1.2965-0.54901-0.46302-1.5478-0.46302-0.635 0-1.2369 0.15213-0.60193 0.15214-1.1576 0.45641v-1.1245q0.66808-0.25797 1.2965-0.38365 0.62839-0.13229 1.2237-0.13229 1.6073 0 2.4011 0.83344t0.79375 2.5268z" style=""/>
    <path id="path924" d="m-16.659 138.02v3.9291h-1.2237v-10.226h1.2237v1.1245q0.38365-0.66146 0.96573-0.97896 0.5887-0.32412 1.4023-0.32412 1.3494 0 2.1894 1.0716 0.84667 1.0716 0.84667 2.8178 0 1.7463-0.84667 2.8178-0.84005 1.0716-2.1894 1.0716-0.8136 0-1.4023-0.3175-0.58208-0.32412-0.96573-0.98558zm4.1407-2.5863q0-1.3428-0.55563-2.1034-0.54901-0.76729-1.5147-0.76729-0.96573 0-1.5214 0.76729-0.54901 0.76068-0.54901 2.1034 0 1.3428 0.54901 2.1101 0.55563 0.76068 1.5214 0.76068 0.96573 0 1.5147-0.76068 0.55563-0.76729 0.55563-2.1101z" style=""/>
   </g>
  </g>
  <g id="g56">
   <path id="ellipse50" d="m170 135a35 35 0 0 1-35 35 35 35 0 0 1-35-35 35 35 0 0 1 35-35 35 35 0 0 1 35 35z" fill="#7babe3" stroke="#000" stroke-width="2"/>
   <g id="text54" aria-label="l_volt">
    <path id="path928" d="m118.32 128.84h1.2171v10.292h-1.2171z" style=""/>
    <path id="path930" d="m127.71 141.38v0.94589h-7.0379v-0.94589z" style=""/>
    <path id="path932" d="m127.98 131.72h1.2898l2.3151 6.2177 2.3151-6.2177h1.2898l-2.7781 7.4084h-1.6536z" style=""/>
    <path id="path934" d="m139.74 132.58q-0.97896 0-1.5478 0.76729-0.56885 0.76068-0.56885 2.0902 0 1.3295 0.56224 2.0968 0.56885 0.76068 1.5544 0.76068 0.97234 0 1.5412-0.76729 0.56885-0.7673 0.56885-2.0902 0-1.3163-0.56885-2.0836-0.56886-0.77391-1.5412-0.77391zm0-1.0319q1.5875 0 2.4937 1.0319t0.9062 2.8575q0 1.819-0.9062 2.8575-0.9062 1.0319-2.4937 1.0319-1.5941 0-2.5003-1.0319-0.89959-1.0385-0.89959-2.8575 0-1.8256 0.89959-2.8575 0.9062-1.0319 2.5003-1.0319z" style=""/>
    <path id="path936" d="m145.15 128.84h1.2171v10.292h-1.2171z" style=""/>
    <path id="path938" d="m150.11 129.62v2.1034h2.5069v0.94589h-2.5069v4.0217q0 0.9062 0.24474 1.1642 0.25135 0.25797 1.012 0.25797h1.2502v1.0186h-1.2502q-1.4089 0-1.9447-0.52256-0.53578-0.52917-0.53578-1.9182v-4.0217h-0.89297v-0.94589h0.89297v-2.1034z" style=""/>
   </g>
  </g>
  <g id="g64">
   <path id="ellipse58" d="m350 135a35 35 0 0 1-35 35 35 35 0 0 1-35-35 35 35 0 0 1 35-35 35 35 0 0 1 35 35z" fill="#7babe3" stroke="#000" stroke-width="2"/>
   <g id="text62" aria-label="ll_volt">
    <path id="path942" d="m296.45 128.84h1.2171v10.292h-1.2171z" style=""/>
    <path id="path944" d="m300.2 128.84h1.2171v10.292h-1.2171z" style=""/>
    <path id="path946" d="m309.59 141.38v0.94589h-7.0379v-0.94589z" style=""/>
    <path id="path948" d="m309.86 131.72h1.2898l2.3151 6.2177 2.3151-6.2177h1.2898l-2.7781 7.4084h-1.6536z" style=""/>
    <path id="path950" d="m321.62 132.58q-0.97896 0-1.5478 0.76729-0.56886 0.76068-0.56886 2.0902 0 1.3295 0.56224 2.0968 0.56886 0.76068 1.5544 0.76068 0.97235 0 1.5412-0.76729 0.56886-0.7673 0.56886-2.0902 0-1.3163-0.56886-2.0836-0.56885-0.77391-1.5412-0.77391zm0-1.0319q1.5875 0 2.4937 1.0319t0.9062 2.8575q0 1.819-0.9062 2.8575-0.9062 1.0319-2.4937 1.0319-1.5941 0-2.5003-1.0319-0.89958-1.0385-0.89958-2.8575 0-1.8256 0.89958-2.8575 0.9062-1.0319 2.5003-1.0319z" style=""/>
    <path id="path952" d="m327.03 128.84h1.2171v10.292h-1.2171z" style=""/>
    <path id="path954" d="m331.99 129.62v2.1034h2.5069v0.94589h-2.5069v4.0217q0 0.9062 0.24474 1.1642 0.25135 0.25797 1.012 0.25797h1.2502v1.0186h-1.2502q-1.4089 0-1.9447-0.52256-0.53578-0.52917-0.53578-1.9182v-4.0217h-0.89297v-0.94589h0.89297v-2.1034z" style=""/>
   </g>
  </g>
  <g id="g70" fill="none" stroke="#000" stroke-width="2">
   <path id="path66" d="m-120 180c20 0 18.536-2.52 59.627-25.348"/>
   <path id="polyline68" d="m-64.732 162.79 6.3133-9.227-11.17 0.486"/>
  </g>
  <g id="g76" fill="none" stroke="#000" stroke-width="2">
   <path id="path72" d="m10 135h85.528"/>
   <path id="polyline74" d="m87.764 140 10-5-10-5"/>
  </g>
  <g id="g82" fill="none" stroke="#000" stroke-width="2">
   <path id="path78" d="M 110.251,159.749 C 80,180 40,180 3.74374,161.759"/>
   <path id="polyline80" d="m12.926 160.78-11.18-0.028 6.6859 8.961"/>
  </g>
  <g id="g88" fill="none" stroke="#000" stroke-width="2">
   <path id="path84" d="M 110.251,110.251 C 80,90 40,90 3.74374,108.241"/>
   <path id="polyline86" d="m8.4321 100.28-6.6859 8.961 11.18-0.028"/>
  </g>
  <g id="g94" fill="none" stroke="#000" stroke-width="2">
   <path id="path90" d="M 290.252,159.749 C 220,260 50,260 -9.13012,171.06"/>
   <path id="polyline92" d="m-0.66791 174.76-9.7002-5.559 1.3726 11.096"/>
  </g>
  <g id="g100" fill="none" stroke="#000" stroke-width="2">
   <path id="path96" d="M 290.252,110.251 C 250,50 30,50 -8.83375,99.155"/>
   <path id="polyline98" d="m-7.9442 89.963-2.2757 10.947 10.122-4.7475"/>
  </g>
 </g>
</svg>
