<?xml version="1.0" encoding="UTF-8"?>
<svg id="svg105" width="16.775cm" height="15.722cm" version="1.1" viewBox="279 47 320.7 303.63" xmlns="http://www.w3.org/2000/svg" xmlns:cc="http://creativecommons.org/ns#" xmlns:dc="http://purl.org/dc/elements/1.1/" xmlns:rdf="http://www.w3.org/1999/02/22-rdf-syntax-ns#">
 <metadata id="metadata111">
  <rdf:RDF>
   <cc:Work rdf:about="">
    <dc:format>image/svg+xml</dc:format>
    <dc:type rdf:resource="http://purl.org/dc/dcmitype/StillImage"/>
   </cc:Work>
  </rdf:RDF>
 </metadata>
 <g id="Háttér" transform="translate(-2.6343 -2.1653)">
  <path id="line2" d="m280 120h280" fill="none" stroke="#a3bbcc" stroke-width="2"/>
  <path id="line4" d="m280 200h280" fill="none" stroke="#a3bbcc" stroke-width="2"/>
  <path id="line6" d="m280 280h280" fill="none" stroke="#a3bbcc" stroke-width="2"/>
  <g id="g14">
   <path id="rect8" d="m380 100h40v40h-40z" fill="#fff" stroke="#000" stroke-width="2"/>
   <g id="text12" aria-label="2">
    <path id="path63" d="m398.29 123.01h4.6633v1.1245h-6.2706v-1.1245q0.76068-0.78714 2.0704-2.1101 1.3163-1.3295 1.6536-1.7132 0.64162-0.72099 0.89297-1.2171 0.25797-0.50271 0.25797-0.98558 0-0.78714-0.55563-1.2832-0.54901-0.4961-1.4354-0.4961-0.62839 0-1.3295 0.21829-0.69453 0.21828-1.4883 0.66146v-1.3494q0.80698-0.32412 1.5081-0.48948 0.70114-0.16537 1.2832-0.16537 1.5346 0 2.4474 0.7673 0.91281 0.76729 0.91281 2.0505 0 0.60854-0.23151 1.1576-0.22489 0.54239-0.82682 1.2832-0.16537 0.19182-1.0517 1.1112-0.88636 0.91282-2.5003 2.5598z" style=""/>
   </g>
  </g>
  <g id="g22">
   <path id="rect16" d="m300 180h40v40h-40z" fill="#eb680e" stroke="#000" stroke-width="2"/>
   <g id="text20" aria-label="5">
    <path id="path67" d="m317.15 194.26h5.2454v1.1245h-4.0217v2.4209q0.29104-0.0992 0.58208-0.14552 0.29105-0.0529 0.58209-0.0529 1.6536 0 2.6194 0.9062t0.96573 2.454q0 1.5941-0.99219 2.4805-0.99219 0.87974-2.798 0.87974-0.62178 0-1.27-0.10583-0.64161-0.10584-1.3295-0.31751v-1.3428q0.59531 0.32412 1.2303 0.48287t1.3428 0.15875q1.1443 0 1.8124-0.60193 0.66807-0.60193 0.66807-1.6338 0-1.0319-0.66807-1.6338-0.66808-0.60193-1.8124-0.60193-0.53579 0-1.0716 0.11906-0.52917 0.11906-1.0848 0.37042z" style=""/>
   </g>
  </g>
  <g id="g30">
   <path id="rect24" d="m460 180h40v40h-40z" fill="#fff" stroke="#000" stroke-width="2"/>
   <g id="text28" aria-label="9">
    <path id="path71" d="m477.18 203.93v-1.2171q0.50271 0.23812 1.0186 0.3638 0.51594 0.12568 1.012 0.12568 1.3229 0 2.0174-0.88636 0.70115-0.89297 0.80037-2.7054-0.38365 0.56886-0.97235 0.87313t-1.3031 0.30427q-1.4817 0-2.3482-0.89297-0.8599-0.89959-0.8599-2.454 0-1.5214 0.89959-2.4408t2.3945-0.91943q1.7132 0 2.6128 1.3163 0.9062 1.3097 0.9062 3.81 0 2.335-1.1112 3.7306-1.1046 1.3891-2.9766 1.3891-0.50271 0-1.0186-0.0992t-1.0716-0.29766zm2.6591-4.187q0.89958 0 1.4221-0.61516 0.52917-0.61515 0.52917-1.6867 0-1.065-0.52917-1.6801-0.52255-0.62177-1.4221-0.62177-0.89959 0-1.4288 0.62177-0.52255 0.61516-0.52255 1.6801 0 1.0716 0.52255 1.6867 0.52917 0.61516 1.4288 0.61516z" style=""/>
   </g>
  </g>
  <g id="g38">
   <path id="rect32" d="m420 260h40v40h-40z" fill="#eb680e" stroke="#000" stroke-width="2"/>
   <g id="text36" aria-label="10">
    <path id="path75" d="m433.05 283.01h2.1828v-7.534l-2.3746 0.47625v-1.2171l2.3614-0.47625h1.3362v8.7511h2.1828v1.1245h-5.6886z" style=""/>
    <path id="path77" d="m444.31 275.14q-1.0319 0-1.5544 1.0186-0.51594 1.012-0.51594 3.0493 0 2.0307 0.51594 3.0493 0.52256 1.012 1.5544 1.012 1.0385 0 1.5544-1.012 0.52255-1.0186 0.52255-3.0493 0-2.0373-0.52255-3.0493-0.51594-1.0186-1.5544-1.0186zm0-1.0583q1.6603 0 2.5334 1.3163 0.87974 1.3097 0.87974 3.81 0 2.4937-0.87974 3.81-0.87313 1.3097-2.5334 1.3097-1.6603 0-2.54-1.3097-0.87313-1.3163-0.87313-3.81 0-2.5003 0.87313-3.81 0.87974-1.3163 2.54-1.3163z" style=""/>
   </g>
  </g>
  <path id="line40" d="m400 140-80 40" fill="none" stroke="#000" stroke-width="2"/>
  <path id="line42" d="m480 180-80-40" fill="none" stroke="#000" stroke-width="2"/>
  <path id="line44" d="m440 260 40-40" fill="none" stroke="#000" stroke-width="2"/>
  <g id="g52">
   <path id="rect46" d="m500 260h40v40h-40z" fill="#eb680e" stroke="#000" stroke-width="2"/>
   <g id="text50" aria-label="11">
    <path id="path84" d="m513.05 283.01h2.1828v-7.534l-2.3746 0.47625v-1.2171l2.3614-0.47625h1.3362v8.7511h2.1828v1.1245h-5.6886z" style=""/>
    <path id="path86" d="m521.68 283.01h2.1828v-7.534l-2.3746 0.47625v-1.2171l2.3614-0.47625h1.3362v8.7511h2.1828v1.1245h-5.6886z" style=""/>
   </g>
  </g>
  <path id="line54" d="m520 260-40-40" fill="none" stroke="#000" stroke-width="2"/>
  <g id="text58" aria-label="0.">
   <path id="path90" d="m577.84 115.7q-1.0319 0-1.5544 1.0186-0.51594 1.012-0.51594 3.0493 0 2.0307 0.51594 3.0493 0.52255 1.012 1.5544 1.012 1.0385 0 1.5544-1.012 0.52255-1.0186 0.52255-3.0493 0-2.0373-0.52255-3.0493-0.51594-1.0186-1.5544-1.0186zm0-1.0583q1.6603 0 2.5334 1.3163 0.87974 1.3097 0.87974 3.81 0 2.4937-0.87974 3.81-0.87313 1.3097-2.5334 1.3097-1.6603 0-2.54-1.3097-0.87313-1.3163-0.87313-3.81 0-2.5003 0.87313-3.81 0.87974-1.3163 2.54-1.3163z" style=""/>
   <path id="path92" d="m583.6 123.02h1.3957v1.6801h-1.3957z" style=""/>
  </g>
  <g id="text62" aria-label="1.">
   <path id="path95" d="m575.21 203.58h2.1828v-7.534l-2.3746 0.47625v-1.2171l2.3614-0.47625h1.3362v8.7511h2.1828v1.1245h-5.6886z" style=""/>
   <path id="path97" d="m583.6 203.02h1.3957v1.6801h-1.3957z" style=""/>
  </g>
  <g id="text66" aria-label="2.">
   <path id="path100" d="m576.13 283.58h4.6633v1.1245h-6.2706v-1.1245q0.76068-0.78714 2.0704-2.1101 1.3163-1.3295 1.6536-1.7132 0.64162-0.72099 0.89297-1.2171 0.25797-0.50271 0.25797-0.98558 0-0.78714-0.55562-1.2832-0.54902-0.4961-1.4354-0.4961-0.62839 0-1.3295 0.21828-0.69453 0.21829-1.4883 0.66146v-1.3494q0.80698-0.32412 1.5081-0.48948 0.70114-0.16537 1.2832-0.16537 1.5346 0 2.4474 0.76729 0.91282 0.7673 0.91282 2.0505 0 0.60854-0.23152 1.1576-0.22489 0.54239-0.82682 1.2832-0.16537 0.19182-1.0517 1.1112-0.88636 0.91282-2.5003 2.5598z" style=""/>
   <path id="path102" d="m583.6 283.02h1.3957v1.6801h-1.3957z" style=""/>
  </g>
  <g id="text70" aria-label="szintek">
   <path id="path105" d="m561.98 92.81v1.1509q-0.51594-0.26458-1.0716-0.39688-0.55562-0.13229-1.1509-0.13229-0.9062 0-1.3626 0.27781-0.44979 0.27781-0.44979 0.83344 0 0.42333 0.32412 0.66807 0.32411 0.23813 1.3031 0.45641l0.41672 0.0926q1.2965 0.27781 1.8389 0.78714 0.54901 0.50271 0.54901 1.4089 0 1.0319-0.82021 1.6338-0.81359 0.60192-2.2424 0.60192-0.59531 0-1.2435-0.11906-0.64162-0.11245-1.356-0.34396v-1.2568q0.67468 0.35057 1.3295 0.52917 0.65485 0.17198 1.2965 0.17198 0.8599 0 1.3229-0.29104 0.46302-0.29766 0.46302-0.83344 0-0.4961-0.33734-0.76068-0.33073-0.26458-1.4618-0.50932l-0.42333-0.09922q-1.1311-0.23812-1.6338-0.72761-0.50271-0.4961-0.50271-1.356 0-1.0451 0.74084-1.614 0.74083-0.56886 2.1034-0.56886 0.67469 0 1.27 0.09922 0.59532 0.09922 1.098 0.29766z" style=""/>
   <path id="path107" d="m563.79 92.592h5.7812v1.1113l-4.5773 5.3248h4.5773v0.97235h-5.9465v-1.1113l4.5773-5.3248h-4.4119z" style=""/>
   <path id="path109" d="m571.43 92.592h1.2171v7.4084h-1.2171zm0-2.884h1.2171v1.5412h-1.2171z" style=""/>
   <path id="path111" d="m581.35 95.529v4.4715h-1.2171v-4.4318q0-1.0517-0.4101-1.5743-0.41011-0.52255-1.2303-0.52255-0.98557 0-1.5544 0.62839t-0.56886 1.7132v4.187h-1.2237v-7.4084h1.2237v1.1509q0.43657-0.66808 1.0253-0.9988 0.59531-0.33073 1.3692-0.33073 1.2766 0 1.9315 0.79375 0.65485 0.78714 0.65485 2.3217z" style=""/>
   <path id="path113" d="m584.99 90.488v2.1034h2.5069v0.94589h-2.5069v4.0217q0 0.9062 0.24474 1.1642 0.25136 0.25797 1.012 0.25797h1.2502v1.0186h-1.2502q-1.4089 0-1.9447-0.52255-0.53578-0.52917-0.53578-1.9182v-4.0217h-0.89297v-0.94589h0.89297v-2.1034z" style=""/>
   <path id="path115" d="m595.45 95.992v0.59531h-5.596q0.0794 1.2568 0.75406 1.9182 0.68131 0.65484 1.8918 0.65484 0.70115 0 1.356-0.17198 0.66146-0.17198 1.3097-0.51594v1.1509q-0.65484 0.27781-1.3428 0.42333-0.68792 0.14552-1.3957 0.14552-1.7727 0-2.8112-1.0319-1.0319-1.0319-1.0319-2.7914 0-1.819 0.97896-2.884 0.98557-1.0716 2.6524-1.0716 1.4949 0 2.3614 0.96573 0.87313 0.95912 0.87313 2.6128zm-1.2171-0.35719q-0.0132-0.9988-0.56224-1.5941-0.54239-0.59531-1.442-0.59531-1.0186 0-1.6338 0.57547-0.60854 0.57547-0.70114 1.6206z" style=""/>
   <path id="path117" d="m597.4 89.708h1.2237v6.0788l3.6314-3.1949h1.5544l-3.9291 3.466 4.0944 3.9423h-1.5875l-3.7637-3.6182v3.6182h-1.2237z" style=""/>
  </g>
  <g id="text74" aria-label="levelek">
   <path id="path120" d="m407.08 342.31h1.2171v10.292h-1.2171z" style=""/>
   <path id="path122" d="m417.17 348.59v0.59531h-5.596q0.0794 1.2568 0.75407 1.9182 0.6813 0.65484 1.8918 0.65484 0.70115 0 1.356-0.17198 0.66146-0.17198 1.3097-0.51594v1.1509q-0.65484 0.27782-1.3428 0.42334t-1.3957 0.14552q-1.7727 0-2.8112-1.0319-1.0319-1.0319-1.0319-2.7914 0-1.819 0.97896-2.884 0.98557-1.0716 2.6524-1.0716 1.4949 0 2.3614 0.96573 0.87313 0.95912 0.87313 2.6128zm-1.2171-0.35719q-0.0132-0.9988-0.56225-1.5941-0.54239-0.59531-1.442-0.59531-1.0186 0-1.6338 0.57547-0.60855 0.57547-0.70115 1.6206z" style=""/>
   <path id="path124" d="m418.3 345.19h1.2898l2.3151 6.2177 2.3151-6.2177h1.2898l-2.7781 7.4084h-1.6536z" style=""/>
   <path id="path126" d="m433.53 348.59v0.59531h-5.596q0.0794 1.2568 0.75407 1.9182 0.6813 0.65484 1.8918 0.65484 0.70115 0 1.356-0.17198 0.66146-0.17198 1.3097-0.51594v1.1509q-0.65484 0.27782-1.3428 0.42334t-1.3957 0.14552q-1.7727 0-2.8112-1.0319-1.0319-1.0319-1.0319-2.7914 0-1.819 0.97896-2.884 0.98557-1.0716 2.6524-1.0716 1.4949 0 2.3614 0.96573 0.87312 0.95912 0.87312 2.6128zm-1.2171-0.35719q-0.0132-0.9988-0.56224-1.5941-0.5424-0.59531-1.442-0.59531-1.0186 0-1.6338 0.57547-0.60855 0.57547-0.70115 1.6206z" style=""/>
   <path id="path128" d="m435.52 342.31h1.2171v10.292h-1.2171z" style=""/>
   <path id="path130" d="m445.62 348.59v0.59531h-5.596q0.0794 1.2568 0.75406 1.9182 0.68131 0.65484 1.8918 0.65484 0.70115 0 1.356-0.17198 0.66146-0.17198 1.3097-0.51594v1.1509q-0.65484 0.27782-1.3428 0.42334t-1.3957 0.14552q-1.7727 0-2.8112-1.0319-1.0319-1.0319-1.0319-2.7914 0-1.819 0.97896-2.884 0.98557-1.0716 2.6524-1.0716 1.4949 0 2.3614 0.96573 0.87313 0.95912 0.87313 2.6128zm-1.2171-0.35719q-0.0132-0.9988-0.56224-1.5941-0.54239-0.59531-1.442-0.59531-1.0186 0-1.6338 0.57547-0.60854 0.57547-0.70114 1.6206z" style=""/>
   <path id="path132" d="m447.57 342.31h1.2237v6.0788l3.6314-3.1949h1.5544l-3.9291 3.466 4.0944 3.9423h-1.5875l-3.7637-3.6182v3.6182h-1.2237z" style=""/>
  </g>
  <g id="g80" stroke="#000" stroke-width="2">
   <path id="line76" d="m425.95 335.58-95.313-103.98" fill="none"/>
   <path id="polygon78" d="m330.63 231.6-1.996 5.221-3.072-10.75 10.443 3.993z" fill-rule="evenodd"/>
  </g>
  <g id="g86" stroke="#000" stroke-width="2">
   <path id="line82" d="m431.45 334.18 4.728-18.913" fill="none"/>
   <path id="polygon84" d="m436.18 315.27-5.457 1.213 7.276-8.489 2.426 10.914z" fill-rule="evenodd"/>
  </g>
  <g id="g92" stroke="#000" stroke-width="2">
   <path id="line88" d="m435.48 337.56 70.137-31.172" fill="none"/>
   <path id="polygon90" d="m505.62 306.39-4.315-3.554 11.169 0.508-7.108 8.63z" fill-rule="evenodd"/>
  </g>
  <g id="text96" aria-label="gyökér (mainben)">
   <path id="path141" d="m365.91 56.21q0-1.3229-0.54902-2.0505-0.54239-0.72761-1.528-0.72761-0.97896 0-1.528 0.72761-0.5424 0.72761-0.5424 2.0505 0 1.3163 0.5424 2.0439 0.54901 0.72761 1.528 0.72761 0.98558 0 1.528-0.72761 0.54902-0.72761 0.54902-2.0439zm1.2171 2.8707q0 1.8918-0.84005 2.8112-0.84006 0.92604-2.5731 0.92604-0.64162 0-1.2105-0.09922-0.56886-0.0926-1.1046-0.29104v-1.184q0.53578 0.29104 1.0583 0.42995 0.52255 0.13891 1.065 0.13891 1.1972 0 1.7926-0.62839 0.59532-0.62177 0.59532-1.8852v-0.60193q-0.37704 0.65484-0.96574 0.97896-0.58869 0.32412-1.4089 0.32412-1.3626 0-2.196-1.0385t-0.83344-2.7517q0-1.7198 0.83344-2.7583t2.196-1.0385q0.82021 0 1.4089 0.32412 0.5887 0.32412 0.96574 0.97896v-1.1245h1.2171z" style=""/>
   <path id="path143" d="m372.71 60.688q-0.51594 1.3229-1.0054 1.7264-0.48948 0.40349-1.3097 0.40349h-0.97235v-1.0186h0.71438q0.50271 0 0.78052-0.23813 0.27782-0.23812 0.61516-1.1245l0.21828-0.55563-2.9964-7.2893h1.2898l2.3151 5.7944 2.3151-5.7944h1.2898z" style=""/>
   <path id="path145" d="m380.52 53.445q-0.97896 0-1.5478 0.76729-0.56886 0.76068-0.56886 2.0902 0 1.3295 0.56225 2.0968 0.56885 0.76068 1.5544 0.76068 0.97234 0 1.5412-0.76729 0.56885-0.76729 0.56885-2.0902 0-1.3163-0.56885-2.0836-0.56886-0.77391-1.5412-0.77391zm0-1.0319q1.5875 0 2.4937 1.0319 0.9062 1.0319 0.9062 2.8575 0 1.819-0.9062 2.8575-0.9062 1.0319-2.4937 1.0319-1.5941 0-2.5003-1.0319-0.89959-1.0385-0.89959-2.8575 0-1.8256 0.89959-2.8575 0.9062-1.0319 2.5003-1.0319zm0.62177-2.6789h1.3428v1.3361h-1.3428zm-2.5863 0h1.3428v1.3361h-1.3428z" style=""/>
   <path id="path147" d="m385.88 49.708h1.2237v6.0788l3.6314-3.1949h1.5544l-3.9291 3.466 4.0944 3.9423h-1.5875l-3.7637-3.6182v3.6182h-1.2237z" style=""/>
   <path id="path149" d="m399.65 55.992v0.59531h-5.596q0.0794 1.2568 0.75406 1.9182 0.6813 0.65484 1.8918 0.65484 0.70115 0 1.356-0.17198 0.66146-0.17198 1.3097-0.51594v1.1509q-0.65485 0.27781-1.3428 0.42333-0.68791 0.14552-1.3957 0.14552-1.7727 0-2.8112-1.0319-1.0319-1.0319-1.0319-2.7914 0-1.819 0.97896-2.884 0.98558-1.0716 2.6525-1.0716 1.4949 0 2.3614 0.96573 0.87313 0.95912 0.87313 2.6128zm-1.2171-0.35719q-0.0132-0.9988-0.56224-1.5941-0.5424-0.59531-1.442-0.59531-1.0186 0-1.6338 0.57547-0.60854 0.57547-0.70115 1.6206zm-1.1708-6.4691h1.3163l-2.1564 2.4871h-1.012z" style=""/>
   <path id="path151" d="m405.94 53.729q-0.20505-0.11906-0.44979-0.17198-0.23813-0.05953-0.52917-0.05953-1.0319 0-1.5875 0.67469-0.54901 0.66807-0.54901 1.9248v3.9026h-1.2237v-7.4084h1.2237v1.1509q0.38364-0.67469 0.9988-0.9988 0.61516-0.33073 1.4949-0.33073 0.12568 0 0.27781 0.01984 0.15214 0.01323 0.33735 0.0463z" style=""/>
   <path id="path153" d="m414.46 49.721q-0.88636 1.5214-1.3163 3.0096t-0.42995 3.0163q0 1.528 0.42995 3.0295 0.43657 1.4949 1.3163 3.0096h-1.0583q-0.99219-1.5544-1.4883-3.0559-0.48948-1.5015-0.48948-2.9832 0-1.4751 0.48948-2.97 0.48948-1.4949 1.4883-3.0559z" style=""/>
   <path id="path155" d="m422.6 54.014q0.4564-0.82021 1.0914-1.2105 0.63501-0.39026 1.4949-0.39026 1.1576 0 1.786 0.8136 0.62838 0.80698 0.62838 2.3019v4.4715h-1.2237v-4.4318q0-1.065-0.37703-1.5809t-1.1509-0.51594q-0.94589 0-1.4949 0.62839t-0.54901 1.7132v4.187h-1.2237v-4.4318q0-1.0716-0.37703-1.5809-0.37704-0.51594-1.1642-0.51594-0.93266 0-1.4817 0.635-0.54902 0.62839-0.54902 1.7066v4.187h-1.2237v-7.4084h1.2237v1.1509q0.41672-0.6813 0.99881-1.0054 0.58208-0.32412 1.3824-0.32412 0.80698 0 1.3692 0.4101 0.56886 0.4101 0.84006 1.1906z" style=""/>
   <path id="path157" d="m433.4 56.276q-1.4751 0-2.0439 0.33734-0.56886 0.33734-0.56886 1.1509 0 0.64823 0.42334 1.0319 0.42995 0.37703 1.1642 0.37703 1.012 0 1.6206-0.71438 0.61516-0.72099 0.61516-1.9116v-0.2712zm2.4276-0.50271v4.2267h-1.2171v-1.1245q-0.41672 0.67469-1.0385 0.9988-0.62177 0.3175-1.5214 0.3175-1.1377 0-1.8124-0.635-0.66807-0.64162-0.66807-1.7132 0-1.2502 0.83344-1.8852 0.84005-0.635 2.5003-0.635h1.7066v-0.11906q0-0.84005-0.55563-1.2965-0.54901-0.46302-1.5478-0.46302-0.635 0-1.2369 0.15214t-1.1576 0.45641v-1.1245q0.66808-0.25797 1.2965-0.38365 0.62838-0.13229 1.2237-0.13229 1.6073 0 2.4011 0.83344 0.79375 0.83344 0.79375 2.5268z" style=""/>
   <path id="path159" d="m438.34 52.592h1.2171v7.4084h-1.2171zm0-2.884h1.2171v1.5412h-1.2171z" style=""/>
   <path id="path161" d="m448.26 55.529v4.4715h-1.2171v-4.4318q0-1.0517-0.41011-1.5743-0.4101-0.52255-1.2303-0.52255-0.98558 0-1.5544 0.62839-0.56886 0.62839-0.56886 1.7132v4.187h-1.2237v-7.4084h1.2237v1.1509q0.43657-0.66808 1.0253-0.9988 0.59531-0.33073 1.3692-0.33073 1.2766 0 1.9315 0.79375 0.65485 0.78714 0.65485 2.3217z" style=""/>
   <path id="path163" d="m456.02 56.302q0-1.3428-0.55563-2.1034-0.54901-0.76729-1.5147-0.76729-0.96574 0-1.5214 0.76729-0.54901 0.76068-0.54901 2.1034t0.54901 2.1101q0.55562 0.76068 1.5214 0.76068 0.96573 0 1.5147-0.76068 0.55563-0.76729 0.55563-2.1101zm-4.1407-2.5863q0.38364-0.66146 0.96573-0.97896 0.5887-0.32412 1.4023-0.32412 1.3494 0 2.1894 1.0716 0.84666 1.0716 0.84666 2.8178t-0.84666 2.8178q-0.84006 1.0716-2.1894 1.0716-0.81359 0-1.4023-0.3175-0.58209-0.32412-0.96573-0.98558v1.1113h-1.2237v-10.292h1.2237z" style=""/>
   <path id="path165" d="m465.63 55.992v0.59531h-5.596q0.0794 1.2568 0.75406 1.9182 0.68131 0.65484 1.8918 0.65484 0.70115 0 1.356-0.17198 0.66146-0.17198 1.3097-0.51594v1.1509q-0.65484 0.27781-1.3428 0.42333t-1.3957 0.14552q-1.7727 0-2.8112-1.0319-1.0319-1.0319-1.0319-2.7914 0-1.819 0.97896-2.884 0.98557-1.0716 2.6524-1.0716 1.4949 0 2.3614 0.96573 0.87313 0.95912 0.87313 2.6128zm-1.2171-0.35719q-0.0132-0.9988-0.56224-1.5941-0.54239-0.59531-1.442-0.59531-1.0186 0-1.6338 0.57547-0.60854 0.57547-0.70114 1.6206z" style=""/>
   <path id="path167" d="m473.79 55.529v4.4715h-1.2171v-4.4318q0-1.0517-0.41011-1.5743-0.4101-0.52255-1.2303-0.52255-0.98558 0-1.5544 0.62839-0.56885 0.62839-0.56885 1.7132v4.187h-1.2237v-7.4084h1.2237v1.1509q0.43656-0.66808 1.0253-0.9988 0.59532-0.33073 1.3692-0.33073 1.2766 0 1.9315 0.79375 0.65484 0.78714 0.65484 2.3217z" style=""/>
   <path id="path169" d="m476.04 49.721h1.0583q0.99219 1.561 1.4817 3.0559 0.49609 1.4949 0.49609 2.97 0 1.4817-0.49609 2.9832-0.48948 1.5015-1.4817 3.0559h-1.0583q0.87974-1.5147 1.3097-3.0096 0.43657-1.5015 0.43657-3.0295 0-1.528-0.43657-3.0163-0.42995-1.4883-1.3097-3.0096z" style=""/>
  </g>
  <g id="g102" stroke="#000" stroke-width="2">
   <path id="line98" d="m417.32 65.367-10.28 20.559" fill="none"/>
   <path id="polygon100" d="m407.04 85.925h5.591l-8.945 6.7082v-11.18z" fill-rule="evenodd"/>
  </g>
 </g>
</svg>
