<?xml version="1.0" encoding="UTF-8"?>
<svg id="svg95" width="31.296cm" height="7.044cm" version="1.1" viewBox="99 121 609.29 140" xmlns="http://www.w3.org/2000/svg" xmlns:cc="http://creativecommons.org/ns#" xmlns:dc="http://purl.org/dc/elements/1.1/" xmlns:rdf="http://www.w3.org/1999/02/22-rdf-syntax-ns#">
 <metadata id="metadata101">
  <rdf:RDF>
   <cc:Work rdf:about="">
    <dc:format>image/svg+xml</dc:format>
    <dc:type rdf:resource="http://purl.org/dc/dcmitype/StillImage"/>
   </cc:Work>
  </rdf:RDF>
 </metadata>
 <g id="Háttér" transform="translate(-6.357 -18)">
  <g id="g8">
   <path id="rect2" d="m200 140h120v100h-120z" fill="#fff" stroke="#000" stroke-width="2"/>
   <g id="text6" aria-label="Esemény 1">
    <path id="path55" d="m225.79 184.57h5.9v1.0625h-4.6375v2.7625h4.4438v1.0625h-4.4438v3.3812h4.75v1.0625h-6.0125z" style=""/>
    <path id="path57" d="m238.31 187.11v1.0875q-0.4875-0.25-1.0125-0.375t-1.0875-0.125q-0.85625 0-1.2875 0.2625-0.425 0.2625-0.425 0.7875 0 0.4 0.30625 0.63125 0.30625 0.225 1.2312 0.43125l0.39375 0.0875q1.225 0.2625 1.7375 0.74375 0.51875 0.475 0.51875 1.3312 0 0.975-0.775 1.5438-0.76875 0.56875-2.1188 0.56875-0.5625 0-1.175-0.1125-0.60625-0.10625-1.2812-0.325v-1.1875q0.6375 0.33125 1.2562 0.5 0.61875 0.1625 1.225 0.1625 0.8125 0 1.25-0.275 0.4375-0.28125 0.4375-0.7875 0-0.46875-0.31875-0.71875-0.3125-0.25-1.3812-0.48125l-0.4-0.0937q-1.0688-0.225-1.5438-0.6875-0.475-0.46875-0.475-1.2812 0-0.9875 0.7-1.525t1.9875-0.5375q0.6375 0 1.2 0.0937t1.0375 0.28125z" style=""/>
    <path id="path59" d="m246.51 190.11v0.5625h-5.2875q0.075 1.1875 0.7125 1.8125 0.64375 0.61875 1.7875 0.61875 0.6625 0 1.2812-0.1625 0.625-0.1625 1.2375-0.4875v1.0875q-0.61875 0.2625-1.2688 0.4t-1.3188 0.1375q-1.675 0-2.6562-0.975-0.975-0.975-0.975-2.6375 0-1.7188 0.925-2.725 0.93125-1.0125 2.5062-1.0125 1.4125 0 2.2312 0.9125 0.825 0.90625 0.825 2.4688zm-1.15-0.3375q-0.0125-0.94375-0.53125-1.5062-0.5125-0.5625-1.3625-0.5625-0.9625 0-1.5438 0.54375-0.575 0.54375-0.6625 1.5312z" style=""/>
    <path id="path61" d="m253.84 188.24q0.43125-0.775 1.0312-1.1438t1.4125-0.36875q1.0938 0 1.6875 0.76875 0.59375 0.7625 0.59375 2.175v4.225h-1.1562v-4.1875q0-1.0062-0.35625-1.4938t-1.0875-0.4875q-0.89375 0-1.4125 0.59375t-0.51875 1.6188v3.9562h-1.1562v-4.1875q0-1.0125-0.35625-1.4938-0.35625-0.4875-1.1-0.4875-0.88125 0-1.4 0.6-0.51875 0.59375-0.51875 1.6125v3.9562h-1.1562v-7h1.1562v1.0875q0.39375-0.64375 0.94375-0.95t1.3062-0.30625q0.7625 0 1.2938 0.3875 0.5375 0.3875 0.79375 1.125z" style=""/>
    <path id="path63" d="m266.86 190.11v0.5625h-5.2875q0.075 1.1875 0.7125 1.8125 0.64375 0.61875 1.7875 0.61875 0.6625 0 1.2812-0.1625 0.625-0.1625 1.2375-0.4875v1.0875q-0.61875 0.2625-1.2688 0.4t-1.3188 0.1375q-1.675 0-2.6562-0.975-0.975-0.975-0.975-2.6375 0-1.7188 0.925-2.725 0.93125-1.0125 2.5062-1.0125 1.4125 0 2.2312 0.9125 0.825 0.90625 0.825 2.4688zm-1.15-0.3375q-0.0125-0.94375-0.53125-1.5062-0.5125-0.5625-1.3625-0.5625-0.9625 0-1.5438 0.54375-0.575 0.54375-0.6625 1.5312zm-1.1062-6.1125h1.2438l-2.0375 2.35h-0.95625z" style=""/>
    <path id="path65" d="m274.56 189.67v4.225h-1.15v-4.1875q0-0.99375-0.3875-1.4875t-1.1625-0.49375q-0.93125 0-1.4688 0.59375t-0.5375 1.6188v3.9562h-1.1562v-7h1.1562v1.0875q0.4125-0.63125 0.96875-0.94375 0.5625-0.3125 1.2938-0.3125 1.2062 0 1.825 0.75 0.61875 0.74375 0.61875 2.1938z" style=""/>
    <path id="path67" d="m279.78 194.55q-0.4875 1.25-0.95 1.6312t-1.2375 0.38125h-0.91875v-0.9625h0.675q0.475 0 0.7375-0.225t0.58125-1.0625l0.20625-0.525-2.8312-6.8875h1.2188l2.1875 5.475 2.1875-5.475h1.2188z" style=""/>
    <path id="path69" d="m288.9 192.84h2.0625v-7.1188l-2.2438 0.45v-1.15l2.2312-0.45h1.2625v8.2688h2.0625v1.0625h-5.375z" style=""/>
   </g>
  </g>
  <g id="g16">
   <path id="rect10" d="m200 240h120v38h-120z" fill="#fff" stroke="#000" stroke-width="2"/>
   <g id="text14" aria-label="következő">
    <path id="path73" d="m228.82 253.17h1.1562v5.7438l3.4312-3.0188h1.4688l-3.7125 3.275 3.8688 3.725h-1.5l-3.5562-3.4188v3.4188h-1.1562z" style=""/>
    <path id="path75" d="m238.56 256.71q-0.925 0-1.4625 0.725-0.5375 0.71875-0.5375 1.975t0.53125 1.9812q0.5375 0.71875 1.4688 0.71875 0.91875 0 1.4562-0.725t0.5375-1.975q0-1.2438-0.5375-1.9688-0.5375-0.73125-1.4562-0.73125zm0-0.975q1.5 0 2.3562 0.975t0.85625 2.7q0 1.7188-0.85625 2.7-0.85625 0.975-2.3562 0.975-1.5062 0-2.3625-0.975-0.85-0.98125-0.85-2.7 0-1.725 0.85-2.7 0.85625-0.975 2.3625-0.975zm0.5875-2.5312h1.2688v1.2625h-1.2688zm-2.4438 0h1.2688v1.2625h-1.2688z" style=""/>
    <path id="path77" d="m242.84 255.9h1.2188l2.1875 5.875 2.1875-5.875h1.2188l-2.625 7h-1.5625z" style=""/>
    <path id="path79" d="m257.23 259.11v0.5625h-5.2875q0.075 1.1875 0.7125 1.8125 0.64375 0.61875 1.7875 0.61875 0.6625 0 1.2812-0.1625 0.625-0.1625 1.2375-0.4875v1.0875q-0.61875 0.2625-1.2688 0.4t-1.3188 0.1375q-1.675 0-2.6562-0.975-0.975-0.975-0.975-2.6375 0-1.7188 0.925-2.725 0.93125-1.0125 2.5062-1.0125 1.4125 0 2.2312 0.9125 0.825 0.90625 0.825 2.4688zm-1.15-0.3375q-0.0125-0.94375-0.53125-1.5062-0.5125-0.5625-1.3625-0.5625-0.9625 0-1.5438 0.54375-0.575 0.54375-0.6625 1.5312z" style=""/>
    <path id="path81" d="m260.26 253.91v1.9875h2.3688v0.89375h-2.3688v3.8q0 0.85625 0.23125 1.1 0.2375 0.24375 0.95625 0.24375h1.1812v0.9625h-1.1812q-1.3312 0-1.8375-0.49375-0.50625-0.5-0.50625-1.8125v-3.8h-0.84375v-0.89375h0.84375v-1.9875z" style=""/>
    <path id="path83" d="m264.1 253.17h1.1562v5.7438l3.4312-3.0188h1.4688l-3.7125 3.275 3.8688 3.725h-1.5l-3.5562-3.4188v3.4188h-1.1562z" style=""/>
    <path id="path85" d="m277.11 259.11v0.5625h-5.2875q0.075 1.1875 0.7125 1.8125 0.64375 0.61875 1.7875 0.61875 0.6625 0 1.2812-0.1625 0.625-0.1625 1.2375-0.4875v1.0875q-0.61875 0.2625-1.2688 0.4t-1.3188 0.1375q-1.675 0-2.6562-0.975-0.975-0.975-0.975-2.6375 0-1.7188 0.925-2.725 0.93125-1.0125 2.5062-1.0125 1.4125 0 2.2312 0.9125 0.825 0.90625 0.825 2.4688zm-1.15-0.3375q-0.0125-0.94375-0.53125-1.5062-0.5125-0.5625-1.3625-0.5625-0.9625 0-1.5438 0.54375-0.575 0.54375-0.6625 1.5312z" style=""/>
    <path id="path87" d="m278.49 255.9h5.4625v1.05l-4.325 5.0312h4.325v0.91875h-5.6188v-1.05l4.325-5.0312h-4.1688z" style=""/>
    <path id="path89" d="m290.29 252.66h1.1125l-1.55 2.35h-0.84375zm-2.0875 0h1.0625l-1.3938 2.35h-0.85625zm0.23125 4.0438q-0.925 0-1.4625 0.725-0.5375 0.71875-0.5375 1.975t0.53125 1.9812q0.5375 0.71875 1.4688 0.71875 0.91875 0 1.4562-0.725t0.5375-1.975q0-1.2438-0.5375-1.9688-0.5375-0.73125-1.4562-0.73125zm0-0.975q1.5 0 2.3562 0.975t0.85625 2.7q0 1.7188-0.85625 2.7-0.85625 0.975-2.3562 0.975-1.5062 0-2.3625-0.975-0.85-0.98125-0.85-2.7 0-1.725 0.85-2.7 0.85625-0.975 2.3625-0.975z" style=""/>
   </g>
  </g>
  <g id="g22" stroke="#000" stroke-width="2">
   <path id="line18" d="m640 259h30.264" fill="none"/>
   <path id="polygon20" d="m670.26 259-2.5-5 10 5-10 5z" fill-rule="evenodd"/>
  </g>
  <g id="g30">
   <path id="rect24" d="m100 140h60v40h-60z" fill="#fff" stroke="#000" stroke-width="2"/>
   <g id="text28" aria-label="első">
    <path id="path95" d="m124.23 160.11v0.5625h-5.2875q0.075 1.1875 0.7125 1.8125 0.64375 0.61875 1.7875 0.61875 0.6625 0 1.2812-0.1625 0.625-0.1625 1.2375-0.4875v1.0875q-0.61875 0.2625-1.2688 0.4t-1.3188 0.1375q-1.675 0-2.6562-0.975-0.975-0.975-0.975-2.6375 0-1.7188 0.925-2.725 0.93125-1.0125 2.5062-1.0125 1.4125 0 2.2312 0.9125 0.825 0.90625 0.825 2.4688zm-1.15-0.3375q-0.0125-0.94375-0.53125-1.5062-0.5125-0.5625-1.3625-0.5625-0.9625 0-1.5438 0.54375-0.575 0.54375-0.6625 1.5312z" style=""/>
    <path id="path97" d="m126.12 154.17h1.15v9.725h-1.15z" style=""/>
    <path id="path99" d="m134.13 157.11v1.0875q-0.4875-0.25-1.0125-0.375t-1.0875-0.125q-0.85625 0-1.2875 0.2625-0.425 0.2625-0.425 0.7875 0 0.4 0.30625 0.63125 0.30625 0.225 1.2312 0.43125l0.39375 0.0875q1.225 0.2625 1.7375 0.74375 0.51875 0.475 0.51875 1.3312 0 0.975-0.775 1.5438-0.76875 0.56875-2.1188 0.56875-0.5625 0-1.175-0.1125-0.60625-0.10625-1.2812-0.325v-1.1875q0.6375 0.33125 1.2562 0.5 0.61875 0.1625 1.225 0.1625 0.8125 0 1.25-0.275 0.4375-0.28125 0.4375-0.7875 0-0.46875-0.31875-0.71875-0.3125-0.25-1.3812-0.48125l-0.4-0.0937q-1.0688-0.225-1.5438-0.6875-0.475-0.46875-0.475-1.2812 0-0.9875 0.7-1.525t1.9875-0.5375q0.6375 0 1.2 0.0937t1.0375 0.28125z" style=""/>
    <path id="path101" d="m140.91 153.66h1.1125l-1.55 2.35h-0.84375zm-2.0875 0h1.0625l-1.3938 2.35h-0.85625zm0.23125 4.0438q-0.925 0-1.4625 0.725-0.5375 0.71875-0.5375 1.975t0.53125 1.9812q0.5375 0.71875 1.4688 0.71875 0.91875 0 1.4562-0.725t0.5375-1.975q0-1.2438-0.5375-1.9688-0.5375-0.73125-1.4562-0.73125zm0-0.975q1.5 0 2.3562 0.975t0.85625 2.7q0 1.7188-0.85625 2.7-0.85625 0.975-2.3562 0.975-1.5062 0-2.3625-0.975-0.85-0.98125-0.85-2.7 0-1.725 0.85-2.7 0.85625-0.975 2.3625-0.975z" style=""/>
   </g>
  </g>
  <g id="g36" stroke="#000" stroke-width="2">
   <path id="line32" d="m160 160h30.264" fill="none"/>
   <path id="polygon34" d="m190.26 160-2.5-5 10 5-10 5z" fill-rule="evenodd"/>
  </g>
  <g id="g44">
   <path id="rect38" d="m680 240h40v38h-40z" fill="#fff" stroke="#000" stroke-width="2"/>
  </g>
  <path id="line46" d="m680 240 40 38" fill="none" stroke="#000" stroke-width="2"/>
  <path id="line48" d="m680 278 40-38" fill="none" stroke="#000" stroke-width="2"/>
  <g id="g56">
   <path id="rect50" d="m360 140h120v100h-120z" fill="#fff" stroke="#000" stroke-width="2"/>
   <g id="text54" aria-label="Esemény 2">
    <path id="path111" d="m385.79 184.57h5.9v1.0625h-4.6375v2.7625h4.4438v1.0625h-4.4438v3.3812h4.75v1.0625h-6.0125z" style=""/>
    <path id="path113" d="m398.31 187.11v1.0875q-0.4875-0.25-1.0125-0.375t-1.0875-0.125q-0.85625 0-1.2875 0.2625-0.425 0.2625-0.425 0.7875 0 0.4 0.30625 0.63125 0.30625 0.225 1.2312 0.43125l0.39375 0.0875q1.225 0.2625 1.7375 0.74375 0.51875 0.475 0.51875 1.3312 0 0.975-0.775 1.5438-0.76875 0.56875-2.1188 0.56875-0.5625 0-1.175-0.1125-0.60625-0.10625-1.2812-0.325v-1.1875q0.6375 0.33125 1.2562 0.5 0.61875 0.1625 1.225 0.1625 0.8125 0 1.25-0.275 0.4375-0.28125 0.4375-0.7875 0-0.46875-0.31875-0.71875-0.3125-0.25-1.3812-0.48125l-0.4-0.0937q-1.0688-0.225-1.5438-0.6875-0.475-0.46875-0.475-1.2812 0-0.9875 0.7-1.525t1.9875-0.5375q0.6375 0 1.2 0.0937t1.0375 0.28125z" style=""/>
    <path id="path115" d="m406.51 190.11v0.5625h-5.2875q0.075 1.1875 0.7125 1.8125 0.64375 0.61875 1.7875 0.61875 0.6625 0 1.2812-0.1625 0.625-0.1625 1.2375-0.4875v1.0875q-0.61875 0.2625-1.2688 0.4t-1.3188 0.1375q-1.675 0-2.6562-0.975-0.975-0.975-0.975-2.6375 0-1.7188 0.925-2.725 0.93125-1.0125 2.5062-1.0125 1.4125 0 2.2312 0.9125 0.825 0.90625 0.825 2.4688zm-1.15-0.3375q-0.0125-0.94375-0.53125-1.5062-0.5125-0.5625-1.3625-0.5625-0.9625 0-1.5438 0.54375-0.575 0.54375-0.6625 1.5312z" style=""/>
    <path id="path117" d="m413.84 188.24q0.43125-0.775 1.0312-1.1438t1.4125-0.36875q1.0938 0 1.6875 0.76875 0.59375 0.7625 0.59375 2.175v4.225h-1.1562v-4.1875q0-1.0062-0.35625-1.4938t-1.0875-0.4875q-0.89375 0-1.4125 0.59375t-0.51875 1.6188v3.9562h-1.1562v-4.1875q0-1.0125-0.35625-1.4938-0.35625-0.4875-1.1-0.4875-0.88125 0-1.4 0.6-0.51875 0.59375-0.51875 1.6125v3.9562h-1.1562v-7h1.1562v1.0875q0.39375-0.64375 0.94375-0.95t1.3062-0.30625q0.7625 0 1.2938 0.3875 0.5375 0.3875 0.79375 1.125z" style=""/>
    <path id="path119" d="m426.86 190.11v0.5625h-5.2875q0.075 1.1875 0.7125 1.8125 0.64375 0.61875 1.7875 0.61875 0.6625 0 1.2812-0.1625 0.625-0.1625 1.2375-0.4875v1.0875q-0.61875 0.2625-1.2688 0.4t-1.3188 0.1375q-1.675 0-2.6562-0.975-0.975-0.975-0.975-2.6375 0-1.7188 0.925-2.725 0.93125-1.0125 2.5062-1.0125 1.4125 0 2.2312 0.9125 0.825 0.90625 0.825 2.4688zm-1.15-0.3375q-0.0125-0.94375-0.53125-1.5062-0.5125-0.5625-1.3625-0.5625-0.9625 0-1.5438 0.54375-0.575 0.54375-0.6625 1.5312zm-1.1062-6.1125h1.2438l-2.0375 2.35h-0.95625z" style=""/>
    <path id="path121" d="m434.56 189.67v4.225h-1.15v-4.1875q0-0.99375-0.3875-1.4875t-1.1625-0.49375q-0.93125 0-1.4688 0.59375t-0.5375 1.6188v3.9562h-1.1562v-7h1.1562v1.0875q0.4125-0.63125 0.96875-0.94375 0.5625-0.3125 1.2938-0.3125 1.2062 0 1.825 0.75 0.61875 0.74375 0.61875 2.1938z" style=""/>
    <path id="path123" d="m439.78 194.55q-0.4875 1.25-0.95 1.6312t-1.2375 0.38125h-0.91875v-0.9625h0.675q0.475 0 0.7375-0.225t0.58125-1.0625l0.20625-0.525-2.8312-6.8875h1.2188l2.1875 5.475 2.1875-5.475h1.2188z" style=""/>
    <path id="path125" d="m449.77 192.84h4.4062v1.0625h-5.925v-1.0625q0.71875-0.74375 1.9562-1.9938 1.2438-1.2562 1.5625-1.6188 0.60625-0.68125 0.84375-1.15 0.24375-0.475 0.24375-0.93125 0-0.74375-0.525-1.2125-0.51875-0.46875-1.3562-0.46875-0.59375 0-1.2562 0.20625-0.65625 0.20625-1.4062 0.625v-1.275q0.7625-0.30625 1.425-0.4625t1.2125-0.15625q1.45 0 2.3125 0.725t0.8625 1.9375q0 0.575-0.21875 1.0938-0.2125 0.5125-0.78125 1.2125-0.15625 0.18125-0.99375 1.05-0.8375 0.8625-2.3625 2.4188z" style=""/>
   </g>
  </g>
  <g id="g64">
   <path id="rect58" d="m360 240h120v38h-120z" fill="#fff" stroke="#000" stroke-width="2"/>
   <g id="text62" aria-label="következő">
    <path id="path129" d="m388.82 253.17h1.1562v5.7438l3.4312-3.0188h1.4688l-3.7125 3.275 3.8688 3.725h-1.5l-3.5562-3.4188v3.4188h-1.1562z" style=""/>
    <path id="path131" d="m398.56 256.71q-0.925 0-1.4625 0.725-0.5375 0.71875-0.5375 1.975t0.53125 1.9812q0.5375 0.71875 1.4688 0.71875 0.91875 0 1.4562-0.725t0.5375-1.975q0-1.2438-0.5375-1.9688-0.5375-0.73125-1.4562-0.73125zm0-0.975q1.5 0 2.3562 0.975t0.85625 2.7q0 1.7188-0.85625 2.7-0.85625 0.975-2.3562 0.975-1.5062 0-2.3625-0.975-0.85-0.98125-0.85-2.7 0-1.725 0.85-2.7 0.85625-0.975 2.3625-0.975zm0.5875-2.5312h1.2688v1.2625h-1.2688zm-2.4438 0h1.2688v1.2625h-1.2688z" style=""/>
    <path id="path133" d="m402.84 255.9h1.2188l2.1875 5.875 2.1875-5.875h1.2188l-2.625 7h-1.5625z" style=""/>
    <path id="path135" d="m417.23 259.11v0.5625h-5.2875q0.075 1.1875 0.7125 1.8125 0.64375 0.61875 1.7875 0.61875 0.6625 0 1.2812-0.1625 0.625-0.1625 1.2375-0.4875v1.0875q-0.61875 0.2625-1.2688 0.4t-1.3188 0.1375q-1.675 0-2.6562-0.975-0.975-0.975-0.975-2.6375 0-1.7188 0.925-2.725 0.93125-1.0125 2.5062-1.0125 1.4125 0 2.2312 0.9125 0.825 0.90625 0.825 2.4688zm-1.15-0.3375q-0.0125-0.94375-0.53125-1.5062-0.5125-0.5625-1.3625-0.5625-0.9625 0-1.5438 0.54375-0.575 0.54375-0.6625 1.5312z" style=""/>
    <path id="path137" d="m420.26 253.91v1.9875h2.3688v0.89375h-2.3688v3.8q0 0.85625 0.23125 1.1 0.2375 0.24375 0.95625 0.24375h1.1812v0.9625h-1.1812q-1.3312 0-1.8375-0.49375-0.50625-0.5-0.50625-1.8125v-3.8h-0.84375v-0.89375h0.84375v-1.9875z" style=""/>
    <path id="path139" d="m424.1 253.17h1.1562v5.7438l3.4312-3.0188h1.4688l-3.7125 3.275 3.8688 3.725h-1.5l-3.5562-3.4188v3.4188h-1.1562z" style=""/>
    <path id="path141" d="m437.11 259.11v0.5625h-5.2875q0.075 1.1875 0.7125 1.8125 0.64375 0.61875 1.7875 0.61875 0.6625 0 1.2812-0.1625 0.625-0.1625 1.2375-0.4875v1.0875q-0.61875 0.2625-1.2688 0.4t-1.3188 0.1375q-1.675 0-2.6562-0.975-0.975-0.975-0.975-2.6375 0-1.7188 0.925-2.725 0.93125-1.0125 2.5062-1.0125 1.4125 0 2.2312 0.9125 0.825 0.90625 0.825 2.4688zm-1.15-0.3375q-0.0125-0.94375-0.53125-1.5062-0.5125-0.5625-1.3625-0.5625-0.9625 0-1.5438 0.54375-0.575 0.54375-0.6625 1.5312z" style=""/>
    <path id="path143" d="m438.49 255.9h5.4625v1.05l-4.325 5.0312h4.325v0.91875h-5.6188v-1.05l4.325-5.0312h-4.1688z" style=""/>
    <path id="path145" d="m450.29 252.66h1.1125l-1.55 2.35h-0.84375zm-2.0875 0h1.0625l-1.3938 2.35h-0.85625zm0.23125 4.0438q-0.925 0-1.4625 0.725-0.5375 0.71875-0.5375 1.975t0.53125 1.9812q0.5375 0.71875 1.4688 0.71875 0.91875 0 1.4562-0.725t0.5375-1.975q0-1.2438-0.5375-1.9688-0.5375-0.73125-1.4562-0.73125zm0-0.975q1.5 0 2.3562 0.975t0.85625 2.7q0 1.7188-0.85625 2.7-0.85625 0.975-2.3562 0.975-1.5062 0-2.3625-0.975-0.85-0.98125-0.85-2.7 0-1.725 0.85-2.7 0.85625-0.975 2.3625-0.975z" style=""/>
   </g>
  </g>
  <g id="g70" stroke="#000" stroke-width="2">
   <path id="path66" d="m320 259a40.394 40.394 0 0 1 29.507-26.001" fill="none"/>
   <path id="polygon68" d="m349.26 231.87-2.386-5.055 9.884 5.225-10.111 4.773z" fill-rule="evenodd"/>
  </g>
  <g id="g78">
   <path id="rect72" d="m520 140h120v100h-120z" fill="#fff" stroke="#000" stroke-width="2"/>
   <g id="text76" aria-label="Esemény 3">
    <path id="path150" d="m545.79 184.57h5.9v1.0625h-4.6375v2.7625h4.4438v1.0625h-4.4438v3.3812h4.75v1.0625h-6.0125z" style=""/>
    <path id="path152" d="m558.31 187.11v1.0875q-0.4875-0.25-1.0125-0.375t-1.0875-0.125q-0.85625 0-1.2875 0.2625-0.425 0.2625-0.425 0.7875 0 0.4 0.30625 0.63125 0.30625 0.225 1.2312 0.43125l0.39375 0.0875q1.225 0.2625 1.7375 0.74375 0.51875 0.475 0.51875 1.3312 0 0.975-0.775 1.5438-0.76875 0.56875-2.1188 0.56875-0.5625 0-1.175-0.1125-0.60625-0.10625-1.2812-0.325v-1.1875q0.6375 0.33125 1.2562 0.5 0.61875 0.1625 1.225 0.1625 0.8125 0 1.25-0.275 0.4375-0.28125 0.4375-0.7875 0-0.46875-0.31875-0.71875-0.3125-0.25-1.3812-0.48125l-0.4-0.0937q-1.0688-0.225-1.5438-0.6875-0.475-0.46875-0.475-1.2812 0-0.9875 0.7-1.525t1.9875-0.5375q0.6375 0 1.2 0.0937t1.0375 0.28125z" style=""/>
    <path id="path154" d="m566.51 190.11v0.5625h-5.2875q0.075 1.1875 0.7125 1.8125 0.64375 0.61875 1.7875 0.61875 0.6625 0 1.2812-0.1625 0.625-0.1625 1.2375-0.4875v1.0875q-0.61875 0.2625-1.2688 0.4t-1.3188 0.1375q-1.675 0-2.6562-0.975-0.975-0.975-0.975-2.6375 0-1.7188 0.925-2.725 0.93125-1.0125 2.5062-1.0125 1.4125 0 2.2312 0.9125 0.825 0.90625 0.825 2.4688zm-1.15-0.3375q-0.0125-0.94375-0.53125-1.5062-0.5125-0.5625-1.3625-0.5625-0.9625 0-1.5438 0.54375-0.575 0.54375-0.6625 1.5312z" style=""/>
    <path id="path156" d="m573.84 188.24q0.43125-0.775 1.0312-1.1438t1.4125-0.36875q1.0938 0 1.6875 0.76875 0.59375 0.7625 0.59375 2.175v4.225h-1.1562v-4.1875q0-1.0062-0.35625-1.4938t-1.0875-0.4875q-0.89375 0-1.4125 0.59375t-0.51875 1.6188v3.9562h-1.1562v-4.1875q0-1.0125-0.35625-1.4938-0.35625-0.4875-1.1-0.4875-0.88125 0-1.4 0.6-0.51875 0.59375-0.51875 1.6125v3.9562h-1.1562v-7h1.1562v1.0875q0.39375-0.64375 0.94375-0.95t1.3062-0.30625q0.7625 0 1.2938 0.3875 0.5375 0.3875 0.79375 1.125z" style=""/>
    <path id="path158" d="m586.86 190.11v0.5625h-5.2875q0.075 1.1875 0.7125 1.8125 0.64375 0.61875 1.7875 0.61875 0.6625 0 1.2812-0.1625 0.625-0.1625 1.2375-0.4875v1.0875q-0.61875 0.2625-1.2688 0.4t-1.3188 0.1375q-1.675 0-2.6562-0.975-0.975-0.975-0.975-2.6375 0-1.7188 0.925-2.725 0.93125-1.0125 2.5062-1.0125 1.4125 0 2.2312 0.9125 0.825 0.90625 0.825 2.4688zm-1.15-0.3375q-0.0125-0.94375-0.53125-1.5062-0.5125-0.5625-1.3625-0.5625-0.9625 0-1.5438 0.54375-0.575 0.54375-0.6625 1.5312zm-1.1062-6.1125h1.2438l-2.0375 2.35h-0.95625z" style=""/>
    <path id="path160" d="m594.56 189.67v4.225h-1.15v-4.1875q0-0.99375-0.3875-1.4875t-1.1625-0.49375q-0.93125 0-1.4688 0.59375t-0.5375 1.6188v3.9562h-1.1562v-7h1.1562v1.0875q0.4125-0.63125 0.96875-0.94375 0.5625-0.3125 1.2938-0.3125 1.2062 0 1.825 0.75 0.61875 0.74375 0.61875 2.1938z" style=""/>
    <path id="path162" d="m599.78 194.55q-0.4875 1.25-0.95 1.6312t-1.2375 0.38125h-0.91875v-0.9625h0.675q0.475 0 0.7375-0.225t0.58125-1.0625l0.20625-0.525-2.8312-6.8875h1.2188l2.1875 5.475 2.1875-5.475h1.2188z" style=""/>
    <path id="path164" d="m612.51 188.87q0.90625 0.19375 1.4125 0.80625 0.5125 0.6125 0.5125 1.5125 0 1.3812-0.95 2.1375t-2.7 0.75625q-0.5875 0-1.2125-0.11875-0.61875-0.1125-1.2812-0.34375v-1.2188q0.525 0.30625 1.15 0.4625t1.3062 0.15625q1.1875 0 1.8062-0.46875 0.625-0.46875 0.625-1.3625 0-0.825-0.58125-1.2875-0.575-0.46875-1.6062-0.46875h-1.0875v-1.0375h1.1375q0.93125 0 1.425-0.36875 0.49375-0.375 0.49375-1.075 0-0.71875-0.5125-1.1-0.50625-0.3875-1.4562-0.3875-0.51875 0-1.1125 0.1125t-1.3062 0.35v-1.125q0.71875-0.2 1.3438-0.3 0.63125-0.1 1.1875-0.1 1.4375 0 2.275 0.65625 0.8375 0.65 0.8375 1.7625 0 0.775-0.44375 1.3125-0.44375 0.53125-1.2625 0.7375z" style=""/>
   </g>
  </g>
  <g id="g86">
   <path id="rect80" d="m520 240h120v38h-120z" fill="#fff" stroke="#000" stroke-width="2"/>
   <g id="text84" aria-label="következő">
    <path id="path168" d="m548.82 253.17h1.1562v5.7438l3.4312-3.0188h1.4688l-3.7125 3.275 3.8688 3.725h-1.5l-3.5562-3.4188v3.4188h-1.1562z" style=""/>
    <path id="path170" d="m558.56 256.71q-0.925 0-1.4625 0.725-0.5375 0.71875-0.5375 1.975t0.53125 1.9812q0.5375 0.71875 1.4688 0.71875 0.91875 0 1.4562-0.725t0.5375-1.975q0-1.2438-0.5375-1.9688-0.5375-0.73125-1.4562-0.73125zm0-0.975q1.5 0 2.3562 0.975t0.85625 2.7q0 1.7188-0.85625 2.7-0.85625 0.975-2.3562 0.975-1.5062 0-2.3625-0.975-0.85-0.98125-0.85-2.7 0-1.725 0.85-2.7 0.85625-0.975 2.3625-0.975zm0.5875-2.5312h1.2688v1.2625h-1.2688zm-2.4438 0h1.2688v1.2625h-1.2688z" style=""/>
    <path id="path172" d="m562.84 255.9h1.2188l2.1875 5.875 2.1875-5.875h1.2188l-2.625 7h-1.5625z" style=""/>
    <path id="path174" d="m577.23 259.11v0.5625h-5.2875q0.075 1.1875 0.7125 1.8125 0.64375 0.61875 1.7875 0.61875 0.6625 0 1.2812-0.1625 0.625-0.1625 1.2375-0.4875v1.0875q-0.61875 0.2625-1.2688 0.4t-1.3188 0.1375q-1.675 0-2.6562-0.975-0.975-0.975-0.975-2.6375 0-1.7188 0.925-2.725 0.93125-1.0125 2.5062-1.0125 1.4125 0 2.2312 0.9125 0.825 0.90625 0.825 2.4688zm-1.15-0.3375q-0.0125-0.94375-0.53125-1.5062-0.5125-0.5625-1.3625-0.5625-0.9625 0-1.5438 0.54375-0.575 0.54375-0.6625 1.5312z" style=""/>
    <path id="path176" d="m580.26 253.91v1.9875h2.3688v0.89375h-2.3688v3.8q0 0.85625 0.23125 1.1 0.2375 0.24375 0.95625 0.24375h1.1812v0.9625h-1.1812q-1.3312 0-1.8375-0.49375-0.50625-0.5-0.50625-1.8125v-3.8h-0.84375v-0.89375h0.84375v-1.9875z" style=""/>
    <path id="path178" d="m584.1 253.17h1.1562v5.7438l3.4312-3.0188h1.4688l-3.7125 3.275 3.8688 3.725h-1.5l-3.5562-3.4188v3.4188h-1.1562z" style=""/>
    <path id="path180" d="m597.11 259.11v0.5625h-5.2875q0.075 1.1875 0.7125 1.8125 0.64375 0.61875 1.7875 0.61875 0.6625 0 1.2812-0.1625 0.625-0.1625 1.2375-0.4875v1.0875q-0.61875 0.2625-1.2688 0.4t-1.3188 0.1375q-1.675 0-2.6562-0.975-0.975-0.975-0.975-2.6375 0-1.7188 0.925-2.725 0.93125-1.0125 2.5062-1.0125 1.4125 0 2.2312 0.9125 0.825 0.90625 0.825 2.4688zm-1.15-0.3375q-0.0125-0.94375-0.53125-1.5062-0.5125-0.5625-1.3625-0.5625-0.9625 0-1.5438 0.54375-0.575 0.54375-0.6625 1.5312z" style=""/>
    <path id="path182" d="m598.49 255.9h5.4625v1.05l-4.325 5.0312h4.325v0.91875h-5.6188v-1.05l4.325-5.0312h-4.1688z" style=""/>
    <path id="path184" d="m610.29 252.66h1.1125l-1.55 2.35h-0.84375zm-2.0875 0h1.0625l-1.3938 2.35h-0.85625zm0.23125 4.0438q-0.925 0-1.4625 0.725-0.5375 0.71875-0.5375 1.975t0.53125 1.9812q0.5375 0.71875 1.4688 0.71875 0.91875 0 1.4562-0.725t0.5375-1.975q0-1.2438-0.5375-1.9688-0.5375-0.73125-1.4562-0.73125zm0-0.975q1.5 0 2.3562 0.975t0.85625 2.7q0 1.7188-0.85625 2.7-0.85625 0.975-2.3562 0.975-1.5062 0-2.3625-0.975-0.85-0.98125-0.85-2.7 0-1.725 0.85-2.7 0.85625-0.975 2.3625-0.975z" style=""/>
   </g>
  </g>
  <g id="g92" stroke="#000" stroke-width="2">
   <path id="path88" d="m480 259a40.394 40.394 0 0 1 29.507-26.001" fill="none"/>
   <path id="polygon90" d="m509.26 231.87-2.386-5.055 9.884 5.225-10.111 4.773z" fill-rule="evenodd"/>
  </g>
 </g>
</svg>
