<?xml version="1.0" encoding="UTF-8"?>
<svg id="svg71" width="20cm" height="15.812cm" version="1.1" viewBox="199 79 382 298.44" xmlns="http://www.w3.org/2000/svg" xmlns:cc="http://creativecommons.org/ns#" xmlns:dc="http://purl.org/dc/elements/1.1/" xmlns:rdf="http://www.w3.org/1999/02/22-rdf-syntax-ns#">
 <metadata id="metadata77">
  <rdf:RDF>
   <cc:Work rdf:about="">
    <dc:format>image/svg+xml</dc:format>
    <dc:type rdf:resource="http://purl.org/dc/dcmitype/StillImage"/>
   </cc:Work>
  </rdf:RDF>
 </metadata>
 <g id="Háttér" transform="translate(0 -1.7788)">
  <g id="g8">
   <path id="rect2" d="m340 80h97.35v45h-97.35z" fill="#fff" stroke="#000" stroke-width="2"/>
   <g id="text6" aria-label="mikro; 5">
    <path id="path848" d="m368.92 100.74q0.43125-0.775 1.0312-1.1437t1.4125-0.36875q1.0938 0 1.6875 0.76875 0.59375 0.7625 0.59375 2.175v4.225h-1.1562v-4.1875q0-1.0062-0.35625-1.4938t-1.0875-0.4875q-0.89375 0-1.4125 0.59375t-0.51875 1.6188v3.9562h-1.1562v-4.1875q0-1.0125-0.35625-1.4938-0.35625-0.4875-1.1-0.4875-0.88125 0-1.4 0.6-0.51875 0.59375-0.51875 1.6125v3.9562h-1.1562v-7h1.1562v1.0875q0.39375-0.64375 0.94375-0.95t1.3062-0.30625q0.7625 0 1.2938 0.3875 0.5375 0.3875 0.79375 1.125z" style=""/>
    <path id="path850" d="m375.94 99.4h1.15v7h-1.15zm0-2.725h1.15v1.4562h-1.15z" style=""/>
    <path id="path852" d="m379.45 96.675h1.1562v5.7437l3.4312-3.0187h1.4688l-3.7125 3.275 3.8688 3.725h-1.5l-3.5562-3.4188v3.4188h-1.1562z" style=""/>
    <path id="path854" d="m390.97 100.48q-0.19375-0.1125-0.425-0.1625-0.225-0.0563-0.5-0.0563-0.975 0-1.5 0.6375-0.51875 0.63125-0.51875 1.8188v3.6876h-1.1562v-7h1.1562v1.0875q0.3625-0.6375 0.94375-0.94375 0.58125-0.3125 1.4125-0.3125 0.11875 0 0.2625 0.01875 0.14375 0.0125 0.31875 0.04375z" style=""/>
    <path id="path856" d="m394.63 100.21q-0.925 0-1.4625 0.725-0.5375 0.71875-0.5375 1.975t0.53125 1.9812q0.5375 0.71875 1.4688 0.71875 0.91875 0 1.4562-0.725t0.5375-1.975q0-1.2438-0.5375-1.9688-0.5375-0.73125-1.4562-0.73125zm0-0.975q1.5 0 2.3562 0.975 0.85625 0.975 0.85625 2.7 0 1.7188-0.85625 2.7-0.85625 0.975-2.3562 0.975-1.5062 0-2.3625-0.975-0.85-0.98125-0.85-2.7 0-1.725 0.85-2.7 0.85625-0.975 2.3625-0.975z" style=""/>
    <path id="path858" d="m400.04 99.781h1.3188v1.5875h-1.3188zm0 5.0312h1.3188v1.075l-1.025 2h-0.80625l0.5125-2z" style=""/>
    <path id="path860" d="m408.32 97.069h4.9562v1.0625h-3.8v2.2875q0.275-0.0937 0.55-0.1375 0.275-0.05 0.55-0.05 1.5625 0 2.475 0.85625t0.9125 2.3188q0 1.5062-0.9375 2.3438-0.9375 0.83125-2.6438 0.83125-0.5875 0-1.2-0.1-0.60625-0.1-1.2562-0.3v-1.2688q0.5625 0.30625 1.1625 0.45625t1.2688 0.15q1.0812 0 1.7125-0.56875t0.63125-1.5438-0.63125-1.5438-1.7125-0.56875q-0.50625 0-1.0125 0.1125-0.5 0.1125-1.025 0.35z" style=""/>
   </g>
  </g>
  <g id="g16">
   <path id="rect10" d="m200 180h100v40h-100z" fill="#fff" stroke="#000" stroke-width="2"/>
   <g id="text14" aria-label="ablak; 2">
    <path id="path864" d="m228.71 200.38q-1.3938 0-1.9312 0.31875t-0.5375 1.0875q0 0.6125 0.4 0.975 0.40625 0.35625 1.1 0.35625 0.95625 0 1.5312-0.675 0.58125-0.68125 0.58125-1.8062v-0.25625zm2.2938-0.475v3.9938h-1.15v-1.0625q-0.39375 0.6375-0.98125 0.94375-0.5875 0.3-1.4375 0.3-1.075 0-1.7125-0.6-0.63125-0.60625-0.63125-1.6188 0-1.1812 0.7875-1.7812 0.79375-0.6 2.3625-0.6h1.6125v-0.1125q0-0.79375-0.525-1.225-0.51875-0.4375-1.4625-0.4375-0.6 0-1.1688 0.14375t-1.0938 0.43125v-1.0625q0.63125-0.24375 1.225-0.3625 0.59375-0.125 1.1562-0.125 1.5188 0 2.2688 0.7875t0.75 2.3875z" style=""/>
    <path id="path866" d="m238.41 200.41q0-1.2688-0.525-1.9875-0.51875-0.725-1.4312-0.725t-1.4375 0.725q-0.51875 0.71875-0.51875 1.9875t0.51875 1.9938q0.525 0.71875 1.4375 0.71875t1.4312-0.71875q0.525-0.725 0.525-1.9938zm-3.9125-2.4438q0.3625-0.625 0.9125-0.925 0.55625-0.30625 1.325-0.30625 1.275 0 2.0688 1.0125 0.8 1.0125 0.8 2.6625t-0.8 2.6625q-0.79375 1.0125-2.0688 1.0125-0.76875 0-1.325-0.3-0.55-0.30625-0.9125-0.93125v1.05h-1.1562v-9.725h1.1562z" style=""/>
    <path id="path868" d="m241.51 194.17h1.15v9.725h-1.15z" style=""/>
    <path id="path870" d="m248.24 200.38q-1.3938 0-1.9312 0.31875t-0.5375 1.0875q0 0.6125 0.4 0.975 0.40625 0.35625 1.1 0.35625 0.95625 0 1.5312-0.675 0.58125-0.68125 0.58125-1.8062v-0.25625zm2.2938-0.475v3.9938h-1.15v-1.0625q-0.39375 0.6375-0.98125 0.94375-0.5875 0.3-1.4375 0.3-1.075 0-1.7125-0.6-0.63125-0.60625-0.63125-1.6188 0-1.1812 0.7875-1.7812 0.79375-0.6 2.3625-0.6h1.6125v-0.1125q0-0.79375-0.525-1.225-0.51875-0.4375-1.4625-0.4375-0.6 0-1.1688 0.14375t-1.0938 0.43125v-1.0625q0.63125-0.24375 1.225-0.3625 0.59375-0.125 1.1562-0.125 1.5188 0 2.2688 0.7875t0.75 2.3875z" style=""/>
    <path id="path872" d="m252.86 194.17h1.1562v5.7438l3.4312-3.0188h1.4688l-3.7125 3.275 3.8688 3.725h-1.5l-3.5562-3.4188v3.4188h-1.1562z" style=""/>
    <path id="path874" d="m260.62 197.28h1.3188v1.5875h-1.3188zm0 5.0312h1.3188v1.075l-1.025 2h-0.80625l0.5125-2z" style=""/>
    <path id="path876" d="m269.98 202.84h4.4062v1.0625h-5.925v-1.0625q0.71875-0.74375 1.9562-1.9938 1.2438-1.2562 1.5625-1.6188 0.60625-0.68125 0.84375-1.15 0.24375-0.475 0.24375-0.93125 0-0.74375-0.525-1.2125-0.51875-0.46875-1.3562-0.46875-0.59375 0-1.2562 0.20625-0.65625 0.20625-1.4062 0.625v-1.275q0.7625-0.30625 1.425-0.4625t1.2125-0.15625q1.45 0 2.3125 0.725t0.8625 1.9375q0 0.575-0.21875 1.0938-0.2125 0.5125-0.78125 1.2125-0.15625 0.18125-0.99375 1.05-0.8375 0.8625-2.3625 2.4188z" style=""/>
   </g>
  </g>
  <g id="g24">
   <path id="rect18" d="m480 180h100v40h-100z" fill="#fff" stroke="#000" stroke-width="2"/>
   <g id="text22" aria-label="zsiráf; 3">
    <path id="path880" d="m505.14 196.9h5.4625v1.05l-4.325 5.0312h4.325v0.91875h-5.6188v-1.05l4.325-5.0312h-4.1688z" style=""/>
    <path id="path882" d="m516.83 197.11v1.0875q-0.4875-0.25-1.0125-0.375t-1.0875-0.125q-0.85625 0-1.2875 0.2625-0.425 0.2625-0.425 0.7875 0 0.4 0.30625 0.63125 0.30625 0.225 1.2312 0.43125l0.39375 0.0875q1.225 0.2625 1.7375 0.74375 0.51875 0.475 0.51875 1.3312 0 0.975-0.775 1.5438-0.76875 0.56875-2.1188 0.56875-0.5625 0-1.175-0.1125-0.60625-0.10625-1.2812-0.325v-1.1875q0.6375 0.33125 1.2562 0.5 0.61875 0.1625 1.225 0.1625 0.8125 0 1.25-0.275 0.4375-0.28125 0.4375-0.7875 0-0.46875-0.31875-0.71875-0.3125-0.25-1.3812-0.48125l-0.4-0.0937q-1.0688-0.225-1.5438-0.6875-0.475-0.46875-0.475-1.2812 0-0.9875 0.7-1.525t1.9875-0.5375q0.6375 0 1.2 0.0937t1.0375 0.28125z" style=""/>
    <path id="path884" d="m519.04 196.9h1.15v7h-1.15zm0-2.725h1.15v1.4562h-1.15z" style=""/>
    <path id="path886" d="m526.65 197.97q-0.19375-0.1125-0.425-0.1625-0.225-0.0563-0.5-0.0563-0.975 0-1.5 0.6375-0.51875 0.63125-0.51875 1.8188v3.6875h-1.1562v-7h1.1562v1.0875q0.3625-0.6375 0.94375-0.94375 0.58125-0.3125 1.4125-0.3125 0.11875 0 0.2625 0.0187 0.14375 0.0125 0.31875 0.0438z" style=""/>
    <path id="path888" d="m531.05 200.38q-1.3938 0-1.9312 0.31875t-0.5375 1.0875q0 0.6125 0.4 0.975 0.40625 0.35625 1.1 0.35625 0.95625 0 1.5312-0.675 0.58125-0.68125 0.58125-1.8062v-0.25625zm2.2938-0.475v3.9938h-1.15v-1.0625q-0.39375 0.6375-0.98125 0.94375-0.5875 0.3-1.4375 0.3-1.075 0-1.7125-0.6-0.63125-0.60625-0.63125-1.6188 0-1.1812 0.7875-1.7812 0.79375-0.6 2.3625-0.6h1.6125v-0.1125q0-0.79375-0.525-1.225-0.51875-0.4375-1.4625-0.4375-0.6 0-1.1688 0.14375t-1.0938 0.43125v-1.0625q0.63125-0.24375 1.225-0.3625 0.59375-0.125 1.1562-0.125 1.5188 0 2.2688 0.7875t0.75 2.3875zm-2.1-6.2438h1.2438l-2.0375 2.35h-0.95625z" style=""/>
    <path id="path890" d="m539.26 194.17v0.95625h-1.1q-0.61875 0-0.8625 0.25-0.2375 0.25-0.2375 0.9v0.61875h1.8938v0.89375h-1.8938v6.1062h-1.1562v-6.1062h-1.1v-0.89375h1.1v-0.4875q0-1.1688 0.54375-1.7 0.54375-0.5375 1.725-0.5375z" style=""/>
    <path id="path892" d="m540.51 197.28h1.3188v1.5875h-1.3188zm0 5.0312h1.3188v1.075l-1.025 2h-0.80625l0.5125-2z" style=""/>
    <path id="path894" d="m552.61 198.87q0.90625 0.19375 1.4125 0.80625 0.5125 0.6125 0.5125 1.5125 0 1.3812-0.95 2.1375t-2.7 0.75625q-0.5875 0-1.2125-0.11875-0.61875-0.1125-1.2812-0.34375v-1.2188q0.525 0.30625 1.15 0.4625t1.3062 0.15625q1.1875 0 1.8062-0.46875 0.625-0.46875 0.625-1.3625 0-0.825-0.58125-1.2875-0.575-0.46875-1.6062-0.46875h-1.0875v-1.0375h1.1375q0.93125 0 1.425-0.36875 0.49375-0.375 0.49375-1.075 0-0.71875-0.5125-1.1-0.50625-0.3875-1.4562-0.3875-0.51875 0-1.1125 0.1125t-1.3062 0.35v-1.125q0.71875-0.2 1.3438-0.3 0.63125-0.1 1.1875-0.1 1.4375 0 2.275 0.65625 0.8375 0.65 0.8375 1.7625 0 0.775-0.44375 1.3125-0.44375 0.53125-1.2625 0.7375z" style=""/>
   </g>
  </g>
  <g id="g32">
   <path id="rect26" d="m260 260h100v40h-100z" fill="#fff" stroke="#000" stroke-width="2"/>
   <g id="text30" aria-label="asztal; 9">
    <path id="path898" d="m287.28 280.38q-1.3938 0-1.9312 0.31875t-0.5375 1.0875q0 0.6125 0.4 0.975 0.40625 0.35625 1.1 0.35625 0.95625 0 1.5312-0.675 0.58125-0.68125 0.58125-1.8062v-0.25625zm2.2938-0.475v3.9938h-1.15v-1.0625q-0.39375 0.6375-0.98125 0.94375-0.5875 0.3-1.4375 0.3-1.075 0-1.7125-0.6-0.63125-0.60625-0.63125-1.6188 0-1.1812 0.7875-1.7812 0.79375-0.6 2.3625-0.6h1.6125v-0.1125q0-0.79375-0.525-1.225-0.51875-0.4375-1.4625-0.4375-0.6 0-1.1688 0.14375t-1.0938 0.43125v-1.0625q0.63125-0.24375 1.225-0.3625 0.59375-0.125 1.1562-0.125 1.5188 0 2.2688 0.7875t0.75 2.3875z" style=""/>
    <path id="path900" d="m296.41 277.11v1.0875q-0.4875-0.25-1.0125-0.375t-1.0875-0.125q-0.85625 0-1.2875 0.2625-0.425 0.2625-0.425 0.7875 0 0.4 0.30625 0.63125 0.30625 0.225 1.2312 0.43125l0.39375 0.0875q1.225 0.2625 1.7375 0.74375 0.51875 0.475 0.51875 1.3312 0 0.975-0.775 1.5438-0.76875 0.56875-2.1188 0.56875-0.5625 0-1.175-0.1125-0.60625-0.10625-1.2812-0.325v-1.1875q0.6375 0.33125 1.2562 0.5 0.61875 0.1625 1.225 0.1625 0.8125 0 1.25-0.275 0.4375-0.28125 0.4375-0.7875 0-0.46875-0.31875-0.71875-0.3125-0.25-1.3812-0.48125l-0.4-0.0937q-1.0688-0.225-1.5438-0.6875-0.475-0.46875-0.475-1.2812 0-0.9875 0.7-1.525t1.9875-0.5375q0.6375 0 1.2 0.0937t1.0375 0.28125z" style=""/>
    <path id="path902" d="m298.12 276.9h5.4625v1.05l-4.325 5.0312h4.325v0.91875h-5.6188v-1.05l4.325-5.0312h-4.1688z" style=""/>
    <path id="path904" d="m306.48 274.91v1.9875h2.3688v0.89375h-2.3688v3.8q0 0.85625 0.23125 1.1 0.2375 0.24375 0.95625 0.24375h1.1812v0.9625h-1.1812q-1.3312 0-1.8375-0.49375-0.50625-0.5-0.50625-1.8125v-3.8h-0.84375v-0.89375h0.84375v-1.9875z" style=""/>
    <path id="path906" d="m313.55 280.38q-1.3938 0-1.9312 0.31875t-0.5375 1.0875q0 0.6125 0.4 0.975 0.40625 0.35625 1.1 0.35625 0.95625 0 1.5312-0.675 0.58125-0.68125 0.58125-1.8062v-0.25625zm2.2938-0.475v3.9938h-1.15v-1.0625q-0.39375 0.6375-0.98125 0.94375-0.5875 0.3-1.4375 0.3-1.075 0-1.7125-0.6-0.63125-0.60625-0.63125-1.6188 0-1.1812 0.7875-1.7812 0.79375-0.6 2.3625-0.6h1.6125v-0.1125q0-0.79375-0.525-1.225-0.51875-0.4375-1.4625-0.4375-0.6 0-1.1688 0.14375t-1.0938 0.43125v-1.0625q0.63125-0.24375 1.225-0.3625 0.59375-0.125 1.1562-0.125 1.5188 0 2.2688 0.7875t0.75 2.3875z" style=""/>
    <path id="path908" d="m318.22 274.17h1.15v9.725h-1.15z" style=""/>
    <path id="path910" d="m322.06 277.28h1.3188v1.5875h-1.3188zm0 5.0312h1.3188v1.075l-1.025 2h-0.80625l0.5125-2z" style=""/>
    <path id="path912" d="m330.37 283.71v-1.15q0.475 0.225 0.9625 0.34375t0.95625 0.11875q1.25 0 1.9062-0.8375 0.6625-0.84375 0.75625-2.5562-0.3625 0.5375-0.91875 0.825t-1.2312 0.2875q-1.4 0-2.2188-0.84375-0.8125-0.85-0.8125-2.3188 0-1.4375 0.85-2.3062t2.2625-0.86875q1.6188 0 2.4688 1.2438 0.85625 1.2375 0.85625 3.6 0 2.2062-1.05 3.525-1.0438 1.3125-2.8125 1.3125-0.475 0-0.9625-0.0937t-1.0125-0.28125zm2.5125-3.9562q0.85 0 1.3438-0.58125 0.5-0.58125 0.5-1.5938 0-1.0062-0.5-1.5875-0.49375-0.5875-1.3438-0.5875t-1.35 0.5875q-0.49375 0.58125-0.49375 1.5875 0 1.0125 0.49375 1.5938 0.5 0.58125 1.35 0.58125z" style=""/>
   </g>
  </g>
  <g id="g40">
   <path id="rect34" d="m320 340h100v40h-100z" fill="#fff" stroke="#000" stroke-width="2"/>
   <g id="text38" aria-label="bútor; 1">
    <path id="path916" d="m350.77 360.41q0-1.2688-0.525-1.9875-0.51875-0.725-1.4312-0.725t-1.4375 0.725q-0.51875 0.71875-0.51875 1.9875t0.51875 1.9938q0.525 0.71875 1.4375 0.71875t1.4312-0.71875q0.525-0.725 0.525-1.9938zm-3.9125-2.4438q0.3625-0.625 0.9125-0.925 0.55625-0.30625 1.325-0.30625 1.275 0 2.0688 1.0125 0.8 1.0125 0.8 2.6625t-0.8 2.6625q-0.79375 1.0125-2.0688 1.0125-0.76875 0-1.325-0.3-0.55-0.30625-0.9125-0.93125v1.05h-1.1562v-9.725h1.1562z" style=""/>
    <path id="path918" d="m353.75 361.14v-4.2375h1.15v4.1938q0 0.99375 0.3875 1.4938 0.3875 0.49375 1.1625 0.49375 0.93125 0 1.4688-0.59375 0.54375-0.59375 0.54375-1.6188v-3.9688h1.15v7h-1.15v-1.075q-0.41875 0.6375-0.975 0.95-0.55 0.30625-1.2812 0.30625-1.2062 0-1.8312-0.75t-0.625-2.1938zm2.8938-4.4062zm0.85625-3.0688h1.2438l-2.0375 2.35h-0.95625z" style=""/>
    <path id="path920" d="m363.13 354.91v1.9875h2.3688v0.89375h-2.3688v3.8q0 0.85625 0.23125 1.1 0.2375 0.24375 0.95625 0.24375h1.1812v0.9625h-1.1812q-1.3312 0-1.8375-0.49375-0.50625-0.5-0.50625-1.8125v-3.8h-0.84375v-0.89375h0.84375v-1.9875z" style=""/>
    <path id="path922" d="m369.73 357.71q-0.925 0-1.4625 0.725-0.5375 0.71875-0.5375 1.975t0.53125 1.9812q0.5375 0.71875 1.4688 0.71875 0.91875 0 1.4562-0.725t0.5375-1.975q0-1.2438-0.5375-1.9688-0.5375-0.73125-1.4562-0.73125zm0-0.975q1.5 0 2.3562 0.975t0.85625 2.7q0 1.7188-0.85625 2.7-0.85625 0.975-2.3562 0.975-1.5062 0-2.3625-0.975-0.85-0.98125-0.85-2.7 0-1.725 0.85-2.7 0.85625-0.975 2.3625-0.975z" style=""/>
    <path id="path924" d="m378.9 357.97q-0.19375-0.1125-0.425-0.1625-0.225-0.0563-0.5-0.0563-0.975 0-1.5 0.6375-0.51875 0.63125-0.51875 1.8188v3.6875h-1.1562v-7h1.1562v1.0875q0.3625-0.6375 0.94375-0.94375 0.58125-0.3125 1.4125-0.3125 0.11875 0 0.2625 0.0188 0.14375 0.0125 0.31875 0.0437z" style=""/>
    <path id="path926" d="m380.41 357.28h1.3188v1.5875h-1.3188zm0 5.0312h1.3188v1.075l-1.025 2h-0.80625l0.5125-2z" style=""/>
    <path id="path928" d="m388.9 362.84h2.0625v-7.1188l-2.2438 0.45v-1.15l2.2312-0.45h1.2625v8.2688h2.0625v1.0625h-5.375z" style=""/>
   </g>
  </g>
  <g id="g48">
   <path id="rect42" d="m200 340h100v40h-100z" fill="#fff" stroke="#000" stroke-width="2"/>
   <g id="text46" aria-label="ajtó; 2">
    <path id="path932" d="m233.99 360.38q-1.3938 0-1.9312 0.31875t-0.5375 1.0875q0 0.6125 0.4 0.975 0.40625 0.35625 1.1 0.35625 0.95625 0 1.5312-0.675 0.58125-0.68125 0.58125-1.8062v-0.25625zm2.2938-0.475v3.9938h-1.15v-1.0625q-0.39375 0.6375-0.98125 0.94375-0.5875 0.3-1.4375 0.3-1.075 0-1.7125-0.6-0.63125-0.60625-0.63125-1.6188 0-1.1812 0.7875-1.7812 0.79375-0.6 2.3625-0.6h1.6125v-0.1125q0-0.79375-0.525-1.225-0.51875-0.4375-1.4625-0.4375-0.6 0-1.1688 0.14375t-1.0938 0.43125v-1.0625q0.63125-0.24375 1.225-0.3625 0.59375-0.125 1.1562-0.125 1.5188 0 2.2688 0.7875t0.75 2.3875z" style=""/>
    <path id="path934" d="m238.66 356.9h1.15v7.125q0 1.3375-0.5125 1.9375-0.50625 0.6-1.6375 0.6h-0.4375v-0.975h0.30625q0.65625 0 0.89375-0.30625 0.2375-0.3 0.2375-1.2562zm0-2.725h1.15v1.4562h-1.15z" style=""/>
    <path id="path936" d="m243.34 354.91v1.9875h2.3688v0.89375h-2.3688v3.8q0 0.85625 0.23125 1.1 0.2375 0.24375 0.95625 0.24375h1.1812v0.9625h-1.1812q-1.3312 0-1.8375-0.49375-0.50625-0.5-0.50625-1.8125v-3.8h-0.84375v-0.89375h0.84375v-1.9875z" style=""/>
    <path id="path938" d="m249.94 357.71q-0.925 0-1.4625 0.725-0.5375 0.71875-0.5375 1.975t0.53125 1.9812q0.5375 0.71875 1.4688 0.71875 0.91875 0 1.4562-0.725t0.5375-1.975q0-1.2438-0.5375-1.9688-0.5375-0.73125-1.4562-0.73125zm0-0.975q1.5 0 2.3562 0.975t0.85625 2.7q0 1.7188-0.85625 2.7-0.85625 0.975-2.3562 0.975-1.5062 0-2.3625-0.975-0.85-0.98125-0.85-2.7 0-1.725 0.85-2.7 0.85625-0.975 2.3625-0.975zm0.86875-3.0688h1.2438l-2.0375 2.35h-0.95625z" style=""/>
    <path id="path940" d="m255.35 357.28h1.3188v1.5875h-1.3188zm0 5.0312h1.3188v1.075l-1.025 2h-0.80625l0.5125-2z" style=""/>
    <path id="path942" d="m264.71 362.84h4.4062v1.0625h-5.925v-1.0625q0.71875-0.74375 1.9562-1.9938 1.2438-1.2562 1.5625-1.6188 0.60625-0.68125 0.84375-1.15 0.24375-0.475 0.24375-0.93125 0-0.74375-0.525-1.2125-0.51875-0.46875-1.3562-0.46875-0.59375 0-1.2562 0.20625-0.65625 0.20625-1.4062 0.625v-1.275q0.7625-0.30625 1.425-0.4625t1.2125-0.15625q1.45 0 2.3125 0.725t0.8625 1.9375q0 0.575-0.21875 1.0938-0.2125 0.5125-0.78125 1.2125-0.15625 0.18125-0.99375 1.05-0.8375 0.8625-2.3625 2.4188z" style=""/>
   </g>
  </g>
  <g id="g56">
   <path id="rect50" d="m416.82 260h103.7v40h-103.7z" fill="#fff" stroke="#000" stroke-width="2"/>
   <g id="text54" aria-label="november; 5">
    <path id="path946" d="m434.85 279.67v4.225h-1.15v-4.1875q0-0.99375-0.3875-1.4875t-1.1625-0.49375q-0.93125 0-1.4688 0.59375t-0.5375 1.6188v3.9562h-1.1562v-7h1.1562v1.0875q0.4125-0.63125 0.96875-0.94375 0.5625-0.3125 1.2938-0.3125 1.2062 0 1.825 0.75 0.61875 0.74375 0.61875 2.1938z" style=""/>
    <path id="path948" d="m439.87 277.71q-0.925 0-1.4625 0.725-0.5375 0.71875-0.5375 1.975t0.53125 1.9812q0.5375 0.71875 1.4688 0.71875 0.91875 0 1.4562-0.725t0.5375-1.975q0-1.2438-0.5375-1.9688-0.5375-0.73125-1.4562-0.73125zm0-0.975q1.5 0 2.3562 0.975t0.85625 2.7q0 1.7188-0.85625 2.7-0.85625 0.975-2.3562 0.975-1.5062 0-2.3625-0.975-0.85-0.98125-0.85-2.7 0-1.725 0.85-2.7 0.85625-0.975 2.3625-0.975z" style=""/>
    <path id="path950" d="m444.16 276.9h1.2188l2.1875 5.875 2.1875-5.875h1.2188l-2.625 7h-1.5625z" style=""/>
    <path id="path952" d="m458.54 280.11v0.5625h-5.2875q0.075 1.1875 0.7125 1.8125 0.64375 0.61875 1.7875 0.61875 0.6625 0 1.2812-0.1625 0.625-0.1625 1.2375-0.4875v1.0875q-0.61875 0.2625-1.2688 0.4t-1.3188 0.1375q-1.675 0-2.6562-0.975-0.975-0.975-0.975-2.6375 0-1.7188 0.925-2.725 0.93125-1.0125 2.5062-1.0125 1.4125 0 2.2312 0.9125 0.825 0.90625 0.825 2.4688zm-1.15-0.3375q-0.0125-0.94375-0.53125-1.5062-0.5125-0.5625-1.3625-0.5625-0.9625 0-1.5438 0.54375-0.575 0.54375-0.6625 1.5312z" style=""/>
    <path id="path954" d="m465.88 278.24q0.43125-0.775 1.0312-1.1438t1.4125-0.36875q1.0938 0 1.6875 0.76875 0.59375 0.7625 0.59375 2.175v4.225h-1.1562v-4.1875q0-1.0062-0.35625-1.4938t-1.0875-0.4875q-0.89375 0-1.4125 0.59375t-0.51875 1.6188v3.9562h-1.1562v-4.1875q0-1.0125-0.35625-1.4938-0.35625-0.4875-1.1-0.4875-0.88125 0-1.4 0.6-0.51875 0.59375-0.51875 1.6125v3.9562h-1.1562v-7h1.1562v1.0875q0.39375-0.64375 0.94375-0.95t1.3062-0.30625q0.7625 0 1.2938 0.3875 0.5375 0.3875 0.79375 1.125z" style=""/>
    <path id="path956" d="m477.93 280.41q0-1.2688-0.525-1.9875-0.51875-0.725-1.4312-0.725t-1.4375 0.725q-0.51875 0.71875-0.51875 1.9875t0.51875 1.9938q0.525 0.71875 1.4375 0.71875t1.4312-0.71875q0.525-0.725 0.525-1.9938zm-3.9125-2.4438q0.3625-0.625 0.9125-0.925 0.55625-0.30625 1.325-0.30625 1.275 0 2.0688 1.0125 0.8 1.0125 0.8 2.6625t-0.8 2.6625q-0.79375 1.0125-2.0688 1.0125-0.76875 0-1.325-0.3-0.55-0.30625-0.9125-0.93125v1.05h-1.1562v-9.725h1.1562z" style=""/>
    <path id="path958" d="m487.02 280.11v0.5625h-5.2875q0.075 1.1875 0.7125 1.8125 0.64375 0.61875 1.7875 0.61875 0.6625 0 1.2812-0.1625 0.625-0.1625 1.2375-0.4875v1.0875q-0.61875 0.2625-1.2688 0.4t-1.3188 0.1375q-1.675 0-2.6562-0.975-0.975-0.975-0.975-2.6375 0-1.7188 0.925-2.725 0.93125-1.0125 2.5062-1.0125 1.4125 0 2.2312 0.9125 0.825 0.90625 0.825 2.4688zm-1.15-0.3375q-0.0125-0.94375-0.53125-1.5062-0.5125-0.5625-1.3625-0.5625-0.9625 0-1.5438 0.54375-0.575 0.54375-0.6625 1.5312z" style=""/>
    <path id="path960" d="m492.96 277.97q-0.19375-0.1125-0.425-0.1625-0.225-0.0563-0.5-0.0563-0.975 0-1.5 0.6375-0.51875 0.63125-0.51875 1.8188v3.6875h-1.1562v-7h1.1562v1.0875q0.3625-0.6375 0.94375-0.94375 0.58125-0.3125 1.4125-0.3125 0.11875 0 0.2625 0.0188 0.14375 0.0125 0.31875 0.0437z" style=""/>
    <path id="path962" d="m494.47 277.28h1.3188v1.5875h-1.3188zm0 5.0312h1.3188v1.075l-1.025 2h-0.80625l0.5125-2z" style=""/>
    <path id="path964" d="m502.76 274.57h4.9562v1.0625h-3.8v2.2875q0.275-0.0937 0.55-0.1375 0.275-0.05 0.55-0.05 1.5625 0 2.475 0.85625t0.9125 2.3188q0 1.5062-0.9375 2.3438-0.9375 0.83125-2.6438 0.83125-0.5875 0-1.2-0.1-0.60625-0.1-1.2562-0.3v-1.2688q0.5625 0.30625 1.1625 0.45625t1.2688 0.15q1.0812 0 1.7125-0.56875t0.63125-1.5438-0.63125-1.5438-1.7125-0.56875q-0.50625 0-1.0125 0.1125-0.5 0.1125-1.025 0.35z" style=""/>
   </g>
  </g>
  <path id="line58" d="m388.67 125-138.67 55" fill="none" stroke="#000" stroke-width="2"/>
  <path id="line60" d="m530 180-141.33-55" fill="none" stroke="#000" stroke-width="2"/>
  <path id="line62" d="m468.67 260 61.326-40" fill="none" stroke="#000" stroke-width="2"/>
  <path id="line64" d="m250 220 60 40" fill="none" stroke="#000" stroke-width="2"/>
  <path id="line66" d="m250 340 60-40" fill="none" stroke="#000" stroke-width="2"/>
  <path id="line68" d="m310 300 60 40" fill="none" stroke="#000" stroke-width="2"/>
 </g>
</svg>
