<?xml version="1.0" encoding="UTF-8"?>
<svg id="svg25" width="6.9431cm" height="3.0827cm" version="1.1" viewBox="378 40 122 47.012" xmlns="http://www.w3.org/2000/svg" xmlns:cc="http://creativecommons.org/ns#" xmlns:dc="http://purl.org/dc/elements/1.1/" xmlns:rdf="http://www.w3.org/1999/02/22-rdf-syntax-ns#">
 <metadata id="metadata29">
  <rdf:RDF>
   <cc:Work rdf:about="">
    <dc:format>image/svg+xml</dc:format>
    <dc:type rdf:resource="http://purl.org/dc/dcmitype/StillImage"/>
   </cc:Work>
  </rdf:RDF>
 </metadata>
 <g id="Háttér" transform="translate(-1 -10.41)">
  <path id="rect4" d="m380 60h120v40h-120z" fill="#fff" stroke="#000" stroke-width="2"/>
  <g id="text8" aria-label="3">
   <path id="path19" d="m411.38 79.263q1.119 0.23923 1.744 0.99549 0.6328 0.75626 0.6328 1.8675 0 1.7055-1.173 2.6392-1.173 0.93376-3.3337 0.93376-0.7254 0-1.4971-0.14662-0.76399-0.1389-1.582-0.42443v-1.5048q0.64823 0.37813 1.4199 0.57106t1.6128 0.19292q1.4662 0 2.2302-0.57878 0.7717-0.57877 0.7717-1.6823 0-1.0186-0.71768-1.5897-0.70996-0.57877-1.9833-0.57877h-1.3428v-1.281h1.4045q1.1498 0 1.7595-0.4553 0.60965-0.46302 0.60965-1.3273 0-0.88745-0.6328-1.3582-0.62507-0.47845-1.7981-0.47845-0.64051 0-1.3736 0.13891-0.73312 0.1389-1.6128 0.43215v-1.3891q0.88745-0.24694 1.6592-0.37042 0.77942-0.12347 1.4662-0.12347 1.7749 0 2.809 0.81028 1.0341 0.80257 1.0341 2.1762 0 0.95691-0.54791 1.6206-0.5479 0.65594-1.5588 0.91061z" style=""/>
  </g>
  <g id="text12" aria-label="-5">
   <path id="path22" d="m462.88 80.513h4.1595v1.2656h-4.1595z" style=""/>
   <path id="path24" d="m469.53 73.954h6.1196v1.3119h-4.6919v2.8244q0.33954-0.11576 0.67909-0.16977 0.33955-0.06174 0.6791-0.06174 1.9292 0 3.0559 1.0572t1.1267 2.863q0 1.8598-1.1576 2.8939-1.1576 1.0264-3.2643 1.0264-0.7254 0-1.4817-0.12347-0.74855-0.12347-1.5511-0.37042v-1.5666q0.69453 0.37813 1.4354 0.56334t1.5666 0.18521q1.335 0 2.1145-0.70225 0.77941-0.70225 0.77941-1.9061t-0.77941-1.9061q-0.77942-0.70225-2.1145-0.70225-0.62507 0-1.2502 0.13891-0.61736 0.1389-1.2656 0.43215z" style=""/>
  </g>
  <g id="text16" aria-label="x">
   <path id="path27" d="m414 46.832-3.1254 4.2058 3.2874 4.4373h-1.6746l-2.5157-3.3955-2.5157 3.3955h-1.6746l3.3569-4.5222-3.0714-4.1209h1.6746l2.292 3.0791 2.2919-3.0791z" style=""/>
  </g>
  <g id="text20" aria-label="y">
   <path id="path30" d="m470.41 56.278q-0.60192 1.5434-1.173 2.0141-0.57106 0.47074-1.528 0.47074h-1.1344v-1.1884h0.83343q0.58649 0 0.91061-0.27781 0.32411-0.27781 0.71768-1.3119l0.25466-0.64823-3.4958-8.5041h1.5048l2.701 6.7601 2.701-6.7601h1.5048z" style=""/>
  </g>
  <path id="line22" d="m440 60v40" fill="none" stroke="#000" stroke-dasharray="4"/>
 </g>
</svg>
