<?xml version="1.0" encoding="UTF-8"?>
<svg id="svg59" width="10.293cm" height="7.6639cm" version="1.1" viewBox="338 41 189.95 150.4" xmlns="http://www.w3.org/2000/svg" xmlns:cc="http://creativecommons.org/ns#" xmlns:dc="http://purl.org/dc/elements/1.1/" xmlns:rdf="http://www.w3.org/1999/02/22-rdf-syntax-ns#">
 <metadata id="metadata63">
  <rdf:RDF>
   <cc:Work rdf:about="">
    <dc:format>image/svg+xml</dc:format>
    <dc:type rdf:resource="http://purl.org/dc/dcmitype/StillImage"/>
   </cc:Work>
  </rdf:RDF>
 </metadata>
 <g id="Háttér" transform="translate(-7.0237 -3.5202)">
  <path id="rect4" d="m340 70h40v40h-40z" fill="#7babe3" stroke="#000" stroke-width="2"/>
  <path id="rect6" d="m380 70h40v40h-40z" fill="#7babe3" stroke="#000" stroke-width="2"/>
  <path id="rect8" d="m420 70h40v40h-40z" fill="#7babe3" stroke="#000" stroke-width="2"/>
  <path id="rect10" d="m460 70h40v40h-40z" fill="#7babe3" stroke="#000" stroke-width="2"/>
  <path id="rect12" d="m500 70h40v40h-40z" fill="#7babe3" stroke="#000" stroke-width="2"/>
  <path id="rect14" d="m340 150h40v20h-40z" fill="#fdfd04" stroke="#000" stroke-width="2"/>
  <g id="text18" aria-label="db">
   <path id="path41" d="m357.14 187.37v-4.6765h1.4199v12.008h-1.4199v-1.2965q-0.44758 0.7717-1.1344 1.1498-0.67909 0.37042-1.636 0.37042-1.5666 0-2.5543-1.2502-0.98006-1.2502-0.98006-3.2874 0-2.0373 0.98006-3.2874 0.98777-1.2502 2.5543-1.2502 0.95691 0 1.636 0.37813 0.68682 0.37041 1.1344 1.1421zm-4.8386 3.0174q0 1.5666 0.64051 2.4617 0.64823 0.88745 1.7749 0.88745t1.7749-0.88745q0.64822-0.89517 0.64822-2.4617t-0.64822-2.454q-0.64823-0.89517-1.7749-0.89517t-1.7749 0.89517q-0.64051 0.88746-0.64051 2.454z" style=""/>
   <path id="path43" d="m367.69 190.39q0-1.5666-0.64823-2.454-0.64051-0.89517-1.7672-0.89517t-1.7749 0.89517q-0.64051 0.88746-0.64051 2.454t0.64051 2.4617q0.64823 0.88745 1.7749 0.88745t1.7672-0.88745q0.64823-0.89517 0.64823-2.4617zm-4.8308-3.0174q0.44759-0.7717 1.1267-1.1421 0.68681-0.37813 1.636-0.37813 1.5743 0 2.5543 1.2502 0.98778 1.2502 0.98778 3.2874 0 2.0373-0.98778 3.2874-0.98006 1.2502-2.5543 1.2502-0.94919 0-1.636-0.37042-0.6791-0.37813-1.1267-1.1498v1.2965h-1.4276v-12.008h1.4276z" style=""/>
  </g>
  <g id="g24" stroke="#000" stroke-width="2">
   <path id="path20" d="m360 149.1c0-30 80 1.902 80-28.362" fill="none"/>
   <path id="polygon22" d="m440 120.74-5 2.5 5-10 5 10z" fill-rule="evenodd"/>
  </g>
  <g id="text28" aria-label="38">
   <path id="path47" d="m356.35 89.263q1.119 0.23923 1.744 0.99549 0.6328 0.75626 0.6328 1.8675 0 1.7055-1.173 2.6392-1.173 0.93376-3.3337 0.93376-0.72539 0-1.4971-0.14662-0.76399-0.1389-1.582-0.42443v-1.5048q0.64823 0.37813 1.4199 0.57106t1.6128 0.19292q1.4662 0 2.2302-0.57878 0.7717-0.57877 0.7717-1.6823 0-1.0186-0.71768-1.5897-0.70996-0.57877-1.9833-0.57877h-1.3428v-1.281h1.4045q1.1498 0 1.7595-0.4553 0.60965-0.46302 0.60965-1.3273 0-0.88745-0.6328-1.3582-0.62507-0.47845-1.7981-0.47845-0.64051 0-1.3736 0.13891-0.73312 0.1389-1.6128 0.43215v-1.3891q0.88745-0.24694 1.6592-0.37042 0.77942-0.12347 1.4662-0.12347 1.7749 0 2.809 0.81028 1.0341 0.80257 1.0341 2.1762 0 0.95691-0.5479 1.6206-0.54791 0.65594-1.5588 0.91061z" style=""/>
   <path id="path49" d="m365.02 90.004q-1.1112 0-1.7518 0.59421-0.63279 0.59421-0.63279 1.636t0.63279 1.636q0.64051 0.59421 1.7518 0.59421t1.7518-0.59421q0.64051-0.60192 0.64051-1.636 0-1.0418-0.64051-1.636-0.63279-0.59421-1.7518-0.59421zm-1.5588-0.66366q-1.0032-0.24694-1.5666-0.93376-0.55562-0.68681-0.55562-1.6746 0-1.3813 0.98005-2.1839 0.98778-0.80257 2.701-0.80257 1.7209 0 2.701 0.80257t0.98006 2.1839q0 0.98778-0.56334 1.6746-0.55563 0.68681-1.5511 0.93376 1.1267 0.26238 1.7518 1.0264 0.63279 0.76398 0.63279 1.8675 0 1.6746-1.0264 2.5698-1.0186 0.89517-2.9247 0.89517t-2.9325-0.89517q-1.0186-0.89517-1.0186-2.5698 0-1.1035 0.63279-1.8675 0.6328-0.76398 1.7595-1.0264zm-0.57106-2.4617q0 0.89517 0.55563 1.3968 0.56334 0.5016 1.5743 0.5016 1.0032 0 1.5666-0.5016 0.57106-0.5016 0.57106-1.3968t-0.57106-1.3968q-0.56334-0.5016-1.5666-0.5016-1.0109 0-1.5743 0.5016-0.55563 0.5016-0.55563 1.3968z" style=""/>
  </g>
  <g id="text32" aria-label="12">
   <path id="path52" d="m391.9 94.163h2.5466v-8.7897l-2.7704 0.55562v-1.4199l2.755-0.55562h1.5588v10.21h2.5466v1.3119h-6.6366z" style=""/>
   <path id="path54" d="m403.03 94.163h5.4405v1.3119h-7.3157v-1.3119q0.88745-0.91832 2.4154-2.4617 1.5357-1.5511 1.9292-1.9987 0.74854-0.84115 1.0418-1.4199 0.30096-0.58649 0.30096-1.1498 0-0.91832-0.64823-1.4971-0.64051-0.57877-1.6746-0.57877-0.73312 0-1.5511 0.25466-0.81028 0.25466-1.7363 0.7717v-1.5743q0.94147-0.37813 1.7595-0.57106t1.4971-0.19292q1.7903 0 2.8553 0.89517 1.0649 0.89517 1.0649 2.3923 0 0.70996-0.27009 1.3505-0.26238 0.63279-0.96463 1.4971-0.19292 0.22379-1.227 1.2965-1.0341 1.0649-2.917 2.9865z" style=""/>
  </g>
  <g id="text36" aria-label="0">
   <path id="path57" d="m359.99 45.755q-1.2038 0-1.8135 1.1884-0.60193 1.1807-0.60193 3.5575 0 2.3691 0.60193 3.5575 0.60964 1.1807 1.8135 1.1807 1.2116 0 1.8135-1.1807 0.60964-1.1884 0.60964-3.5575 0-2.3768-0.60964-3.5575-0.60193-1.1884-1.8135-1.1884zm0-1.2347q1.937 0 2.9556 1.5357 1.0264 1.528 1.0264 4.445 0 2.9093-1.0264 4.445-1.0186 1.528-2.9556 1.528-1.937 0-2.9633-1.528-1.0186-1.5357-1.0186-4.445 0-2.917 1.0186-4.445 1.0264-1.5357 2.9633-1.5357z" style=""/>
  </g>
  <g id="text40" aria-label="1">
   <path id="path60" d="m396.93 54.938h2.5466v-8.7897l-2.7704 0.55562v-1.4199l2.755-0.55562h1.5588v10.21h2.5466v1.3119h-6.6366z" style=""/>
  </g>
  <g id="text44" aria-label="2">
   <path id="path63" d="m438 54.938h5.4405v1.3119h-7.3157v-1.3119q0.88745-0.91832 2.4154-2.4617 1.5357-1.5511 1.9292-1.9987 0.74854-0.84115 1.0418-1.4199 0.30096-0.58649 0.30096-1.1498 0-0.91832-0.64822-1.4971-0.64051-0.57878-1.6746-0.57878-0.73312 0-1.5511 0.25466-0.81028 0.25466-1.7363 0.7717v-1.5743q0.94147-0.37813 1.7595-0.57106 0.81801-0.19292 1.4971-0.19292 1.7903 0 2.8553 0.89517 1.0649 0.89517 1.0649 2.3923 0 0.70996-0.27009 1.3505-0.26238 0.63279-0.96463 1.4971-0.19292 0.22379-1.227 1.2965-1.0341 1.0649-2.917 2.9865z" style=""/>
  </g>
  <g id="text48" aria-label="3">
   <path id="path66" d="m481.38 50.038q1.119 0.23923 1.744 0.99549 0.6328 0.75626 0.6328 1.8675 0 1.7055-1.173 2.6392-1.173 0.93376-3.3337 0.93376-0.7254 0-1.4971-0.14662-0.76399-0.13891-1.582-0.42444v-1.5048q0.64823 0.37813 1.4199 0.57106t1.6128 0.19292q1.4662 0 2.2302-0.57877 0.7717-0.57878 0.7717-1.6823 0-1.0186-0.71768-1.5897-0.70996-0.57878-1.9833-0.57878h-1.3428v-1.281h1.4045q1.1498 0 1.7595-0.4553 0.60965-0.46302 0.60965-1.3273 0-0.88745-0.6328-1.3582-0.62507-0.47845-1.7981-0.47845-0.64051 0-1.3736 0.13891-0.73312 0.13891-1.6128 0.43215v-1.3891q0.88745-0.24694 1.6592-0.37042 0.77942-0.12347 1.4662-0.12347 1.7749 0 2.809 0.81028 1.0341 0.80257 1.0341 2.1762 0 0.95691-0.54791 1.6206-0.5479 0.65594-1.5588 0.9106z" style=""/>
  </g>
  <g id="text52" aria-label="4">
   <path id="path69" d="m520.94 46.087-3.9357 6.1504h3.9357zm-0.409-1.3582h1.9601v7.5086h1.6437v1.2965h-1.6437v2.7164h-1.5511v-2.7164h-5.2012v-1.5048z" style=""/>
  </g>
  <g id="text56" aria-label="2">
   <path id="path72" d="m358 164.16h5.4405v1.3119h-7.3157v-1.3119q0.88745-0.91832 2.4154-2.4617 1.5357-1.5511 1.9292-1.9987 0.74854-0.84116 1.0418-1.4199 0.30096-0.58649 0.30096-1.1498 0-0.91832-0.64822-1.4971-0.64051-0.57877-1.6746-0.57877-0.73312 0-1.5511 0.25466-0.81028 0.25466-1.7363 0.7717v-1.5743q0.94147-0.37813 1.7595-0.57106 0.81801-0.19292 1.4971-0.19292 1.7903 0 2.8553 0.89517 1.0649 0.89517 1.0649 2.3923 0 0.70996-0.27009 1.3505-0.26238 0.63279-0.96463 1.4971-0.19292 0.22379-1.227 1.2964-1.0341 1.065-2.917 2.9865z" style=""/>
  </g>
 </g>
</svg>
