<?xml version="1.0" encoding="UTF-8" standalone="no"?>
<svg id="svg2" xmlns:rdf="http://www.w3.org/1999/02/22-rdf-syntax-ns#" xmlns="http://www.w3.org/2000/svg" viewBox="226 62 490.3221 256.35419" height="12.867cm" width="24.764cm" version="1.1" xmlns:cc="http://creativecommons.org/ns#" xmlns:dc="http://purl.org/dc/elements/1.1/">
 <metadata id="metadata294">
  <rdf:RDF>
   <cc:Work rdf:about="">
    <dc:format>image/svg+xml</dc:format>
    <dc:type rdf:resource="http://purl.org/dc/dcmitype/StillImage"/>
   </cc:Work>
  </rdf:RDF>
 </metadata>
 <g id="g4" transform="translate(-3.154 -2.6458)">
  <path id="rect6" fill="#fff" d="m320 80h40v40h-40z"/>
  <path id="rect8" d="m320 80h40v40h-40z" stroke="#000" stroke-width="2" fill="none"/>
 </g>
 <g id="text10">
  <path id="path153" style="" d="m327.3 101.49h5.4405v1.3119h-7.3157v-1.3119q0.88745-0.91832 2.4154-2.4617 1.5357-1.5511 1.9292-1.9987 0.74855-0.84115 1.0418-1.4199 0.30096-0.58649 0.30096-1.1498 0-0.91832-0.64822-1.4971-0.64051-0.57877-1.6746-0.57877-0.73312 0-1.5511 0.25466-0.81028 0.25466-1.7363 0.7717v-1.5743q0.94147-0.37813 1.7595-0.57106 0.81801-0.19292 1.4971-0.19292 1.7903 0 2.8553 0.89517 1.0649 0.89517 1.0649 2.3923 0 0.70996-0.27009 1.3505-0.26238 0.63279-0.96463 1.4971-0.19292 0.22379-1.227 1.2965-1.0341 1.0649-2.917 2.9865z"/>
  <path id="path155" style="" d="m336.02 100.84h1.6283v1.9601h-1.6283v-1.9601z"/>
  <path id="path157" style="" d="m341.07 91.283h6.1196v1.3119h-4.6919v2.8244q0.33954-0.11576 0.67909-0.16977 0.33955-0.06174 0.6791-0.06174 1.9292 0 3.0559 1.0572t1.1267 2.863q0 1.8598-1.1576 2.8939-1.1576 1.0264-3.2643 1.0264-0.7254 0-1.4817-0.12347-0.74855-0.12347-1.5511-0.37041v-1.5666q0.69453 0.37813 1.4354 0.56334 0.74083 0.18521 1.5666 0.18521 1.335 0 2.1145-0.70225 0.77941-0.70225 0.77941-1.9061 0-1.2039-0.77941-1.9061-0.77942-0.70225-2.1145-0.70225-0.62507 0-1.2502 0.13891-0.61736 0.13891-1.2656 0.43215v-5.7877z"/>
 </g>
 <g id="g14" transform="translate(-3.154 -2.6458)">
  <path id="rect16" fill="#7babe3" d="m360 80h40v40h-40z"/>
  <path id="rect18" d="m360 80h40v40h-40z" stroke="#000" stroke-width="2" fill="none"/>
 </g>
 <g id="text20">
  <path id="path162" style="" d="m364.7 97.842h4.1595v1.2656h-4.1595v-1.2656z"/>
  <path id="path164" style="" d="m374.86 96.422q-1.0495 0-1.6669 0.71768-0.60964 0.71768-0.60964 1.9678 0 1.2424 0.60964 1.9678 0.61736 0.71768 1.6669 0.71768t1.6592-0.71768q0.61736-0.7254 0.61736-1.9678 0-1.2502-0.61736-1.9678-0.60964-0.71768-1.6592-0.71768zm3.0945-4.8849v1.4199q-0.58649-0.27781-1.1884-0.42443-0.59421-0.14662-1.1807-0.14662-1.5434 0-2.3614 1.0418-0.81028 1.0418-0.92604 3.1485 0.45531-0.67138 1.1421-1.0264 0.68681-0.3627 1.5125-0.3627 1.7363 0 2.7395 1.0572 1.0109 1.0495 1.0109 2.863 0 1.7749-1.0495 2.8476t-2.7936 1.0727q-1.9987 0-3.0559-1.528-1.0572-1.5357-1.0572-4.445 0-2.7318 1.2964-4.3524 1.2965-1.6283 3.4804-1.6283 0.58649 0 1.1807 0.11576 0.60192 0.11576 1.2502 0.34726z"/>
  <path id="path166" style="" d="m381.44 102.56v-1.4199q0.58649 0.27781 1.1884 0.42443 0.60192 0.14663 1.1807 0.14663 1.5434 0 2.3537-1.0341 0.818-1.0418 0.93375-3.1563-0.44758 0.66366-1.1344 1.0186-0.68682 0.35498-1.5202 0.35498-1.7286 0-2.7395-1.0418-1.0032-1.0495-1.0032-2.863 0-1.7749 1.0495-2.8476t2.7936-1.0727q1.9987 0 3.0482 1.5357 1.0572 1.528 1.0572 4.445 0 2.7241-1.2965 4.3524-1.2887 1.6206-3.4726 1.6206-0.58649 0-1.1884-0.11575-0.60192-0.11576-1.2502-0.34727zm3.1022-4.8849q1.0495 0 1.6592-0.71768 0.61736-0.71768 0.61736-1.9678 0-1.2424-0.61736-1.9601-0.60964-0.7254-1.6592-0.7254-1.0495 0-1.6669 0.7254-0.60964 0.71768-0.60964 1.9601 0 1.2502 0.60964 1.9678 0.61736 0.71768 1.6669 0.71768z"/>
 </g>
 <g id="g24" transform="translate(-3.154 -2.6458)">
  <path id="rect26" fill="#fff" d="m400 80h40v40h-40z"/>
  <path id="rect28" d="m400 80h40v40h-40z" stroke="#000" stroke-width="2" fill="none"/>
 </g>
 <g id="text30">
  <path id="path171" style="" d="m405.97 91.283h6.1196v1.3119h-4.6919v2.8244q0.33955-0.11576 0.6791-0.16977 0.33954-0.06174 0.67909-0.06174 1.9292 0 3.0559 1.0572t1.1267 2.863q0 1.8598-1.1576 2.8939-1.1576 1.0264-3.2643 1.0264-0.72539 0-1.4817-0.12347-0.74855-0.12347-1.5511-0.37041v-1.5666q0.69453 0.37813 1.4354 0.56334 0.74083 0.18521 1.5666 0.18521 1.335 0 2.1144-0.70225 0.77942-0.70225 0.77942-1.9061 0-1.2039-0.77942-1.9061-0.77941-0.70225-2.1144-0.70225-0.62508 0-1.2502 0.13891-0.61736 0.13891-1.2656 0.43215v-5.7877z"/>
  <path id="path173" style="" d="m416.02 100.84h1.6283v1.9601h-1.6283v-1.9601z"/>
  <path id="path175" style="" d="m425.33 92.641-3.9357 6.1504h3.9357v-6.1504zm-0.409-1.3582h1.9601v7.5086h1.6437v1.2965h-1.6437v2.7164h-1.5511v-2.7164h-5.2012v-1.5048l4.7922-7.3003z"/>
 </g>
 <g id="g34" transform="translate(-3.154 -2.6458)">
  <path id="rect36" fill="#7babe3" d="m440 80h40v40h-40z"/>
  <path id="rect38" d="m440 80h40v40h-40z" stroke="#000" stroke-width="2" fill="none"/>
 </g>
 <g id="text40">
  <path id="path180" style="" d="m449.73 97.842h4.1595v1.2656h-4.1595v-1.2656z"/>
  <path id="path182" style="" d="m459.69 97.333q-1.1112 0-1.7518 0.59421-0.63279 0.59421-0.63279 1.636t0.63279 1.636q0.64051 0.59421 1.7518 0.59421 1.1112 0 1.7518-0.59421 0.64051-0.60193 0.64051-1.636 0-1.0418-0.64051-1.636-0.6328-0.59421-1.7518-0.59421zm-1.5588-0.66366q-1.0032-0.24694-1.5666-0.93376-0.55563-0.68681-0.55563-1.6746 0-1.3813 0.98006-2.1839 0.98778-0.80257 2.701-0.80257 1.7209 0 2.701 0.80257 0.98005 0.80257 0.98005 2.1839 0 0.98778-0.56334 1.6746-0.55562 0.68681-1.5511 0.93376 1.1267 0.26238 1.7518 1.0264 0.63279 0.76398 0.63279 1.8675 0 1.6746-1.0264 2.5698-1.0186 0.89517-2.9247 0.89517t-2.9325-0.89517q-1.0186-0.89517-1.0186-2.5698 0-1.1035 0.63279-1.8675 0.6328-0.76398 1.7595-1.0264zm-0.57106-2.4617q0 0.89517 0.55562 1.3968 0.56334 0.5016 1.5743 0.5016 1.0032 0 1.5666-0.5016 0.57106-0.5016 0.57106-1.3968 0-0.89517-0.57106-1.3968-0.56334-0.5016-1.5666-0.5016-1.0109 0-1.5743 0.5016-0.55562 0.5016-0.55562 1.3968z"/>
 </g>
 <g id="g44" transform="translate(-3.154 -2.6458)">
  <path id="rect46" fill="#7babe3" d="m480 80h40v40h-40z"/>
  <path id="rect48" d="m480 80h40v40h-40z" stroke="#000" stroke-width="2" fill="none"/>
 </g>
 <g id="text50">
  <path id="path187" style="" d="m482.18 97.842h4.1595v1.2656h-4.1595v-1.2656z"/>
  <path id="path189" style="" d="m488.42 91.283h7.4083v0.66366l-4.1826 10.858h-1.6283l3.9357-10.21h-5.5331v-1.3119z"/>
  <path id="path191" style="" d="m498.88 100.84h1.6283v1.9601h-1.6283v-1.9601z"/>
  <path id="path193" style="" d="m503.51 91.283h7.4083v0.66366l-4.1826 10.858h-1.6283l3.9357-10.21h-5.5331v-1.3119z"/>
 </g>
 <g id="g54" transform="translate(-3.154 -2.6458)">
  <path id="rect56" fill="#fff" d="m520 80h40v40h-40z"/>
  <path id="rect58" d="m520 80h40v40h-40z" stroke="#000" stroke-width="2" fill="none"/>
 </g>
 <g id="text60">
  <path id="path198" style="" d="m537.03 96.422q-1.0495 0-1.6669 0.71768-0.60965 0.71768-0.60965 1.9678 0 1.2424 0.60965 1.9678 0.61736 0.71768 1.6669 0.71768t1.6592-0.71768q0.61736-0.7254 0.61736-1.9678 0-1.2502-0.61736-1.9678-0.60964-0.71768-1.6592-0.71768zm3.0945-4.8849v1.4199q-0.58649-0.27781-1.1884-0.42443-0.5942-0.14662-1.1807-0.14662-1.5434 0-2.3614 1.0418-0.81028 1.0418-0.92603 3.1485 0.4553-0.67138 1.1421-1.0264 0.68681-0.3627 1.5125-0.3627 1.7363 0 2.7395 1.0572 1.0109 1.0495 1.0109 2.863 0 1.7749-1.0495 2.8476t-2.7936 1.0727q-1.9987 0-3.0559-1.528-1.0572-1.5357-1.0572-4.445 0-2.7318 1.2964-4.3524 1.2965-1.6283 3.4804-1.6283 0.58649 0 1.1807 0.11576 0.60192 0.11576 1.2502 0.34726z"/>
 </g>
 <g id="g64" transform="translate(-3.154 -2.6458)">
  <path id="rect66" fill="#fff" d="m560 80h40v40h-40z"/>
  <path id="rect68" d="m560 80h40v40h-40z" stroke="#000" stroke-width="2" fill="none"/>
 </g>
 <g id="text70">
  <path id="path203" style="" d="m567.3 101.49h5.4405v1.3119h-7.3157v-1.3119q0.88745-0.91832 2.4154-2.4617 1.5357-1.5511 1.9292-1.9987 0.74855-0.84115 1.0418-1.4199 0.30096-0.58649 0.30096-1.1498 0-0.91832-0.64822-1.4971-0.64051-0.57877-1.6746-0.57877-0.73312 0-1.5511 0.25466-0.81028 0.25466-1.7363 0.7717v-1.5743q0.94147-0.37813 1.7595-0.57106 0.81801-0.19292 1.4971-0.19292 1.7903 0 2.8553 0.89517 1.0649 0.89517 1.0649 2.3923 0 0.70996-0.27009 1.3505-0.26238 0.63279-0.96463 1.4971-0.19292 0.22379-1.227 1.2965-1.0341 1.0649-2.917 2.9865z"/>
  <path id="path205" style="" d="m576.02 100.84h1.6283v1.9601h-1.6283v-1.9601z"/>
  <path id="path207" style="" d="m581.1 102.56v-1.4199q0.58649 0.27781 1.1884 0.42443 0.60192 0.14663 1.1807 0.14663 1.5434 0 2.3537-1.0341 0.818-1.0418 0.93376-3.1563-0.44759 0.66366-1.1344 1.0186-0.68681 0.35498-1.5202 0.35498-1.7286 0-2.7395-1.0418-1.0032-1.0495-1.0032-2.863 0-1.7749 1.0495-2.8476t2.7936-1.0727q1.9987 0 3.0482 1.5357 1.0572 1.528 1.0572 4.445 0 2.7241-1.2964 4.3524-1.2887 1.6206-3.4726 1.6206-0.58649 0-1.1884-0.11575-0.60192-0.11576-1.2502-0.34727zm3.1022-4.8849q1.0495 0 1.6592-0.71768 0.61736-0.71768 0.61736-1.9678 0-1.2424-0.61736-1.9601-0.60965-0.7254-1.6592-0.7254-1.0495 0-1.6669 0.7254-0.60964 0.71768-0.60964 1.9601 0 1.2502 0.60964 1.9678 0.61736 0.71768 1.6669 0.71768z"/>
 </g>
 <g id="g74" transform="translate(-3.154 -2.6458)">
  <path id="rect76" fill="#7babe3" d="m600 80h40v40h-40z"/>
  <path id="rect78" d="m600 80h40v40h-40z" stroke="#000" stroke-width="2" fill="none"/>
 </g>
 <g id="text80">
  <path id="path212" style="" d="m604.7 97.842h4.1595v1.2656h-4.1595v-1.2656z"/>
  <path id="path214" style="" d="m611.6 101.49h2.5466v-8.7897l-2.7704 0.55562v-1.4199l2.755-0.55562h1.5588v10.21h2.5466v1.3119h-6.6366v-1.3119z"/>
  <path id="path216" style="" d="m624.73 92.309q-1.2038 0-1.8135 1.1884-0.60192 1.1807-0.60192 3.5575 0 2.3691 0.60192 3.5575 0.60965 1.1807 1.8135 1.1807 1.2116 0 1.8135-1.1807 0.60964-1.1884 0.60964-3.5575 0-2.3768-0.60964-3.5575-0.60192-1.1884-1.8135-1.1884zm0-1.2347q1.937 0 2.9556 1.5357 1.0264 1.528 1.0264 4.445 0 2.9093-1.0264 4.445-1.0186 1.528-2.9556 1.528t-2.9633-1.528q-1.0186-1.5357-1.0186-4.445 0-2.917 1.0186-4.445 1.0264-1.5357 2.9633-1.5357z"/>
 </g>
 <g id="g84" transform="translate(-3.154 -2.6458)">
  <path id="rect86" fill="#7babe3" d="m640 80h40v40h-40z"/>
  <path id="rect88" d="m640 80h40v40h-40z" stroke="#000" stroke-width="2" fill="none"/>
 </g>
 <g id="text90">
  <path id="path221" style="" d="m649.73 97.842h4.1595v1.2656h-4.1595v-1.2656z"/>
  <path id="path223" style="" d="m661.08 96.592q1.119 0.23923 1.744 0.99549 0.63279 0.75626 0.63279 1.8675 0 1.7055-1.173 2.6392-1.173 0.93375-3.3337 0.93375-0.7254 0-1.4971-0.14662-0.76398-0.1389-1.582-0.42443v-1.5048q0.64823 0.37814 1.4199 0.57106 0.7717 0.19293 1.6129 0.19293 1.4662 0 2.2302-0.57878 0.7717-0.57877 0.7717-1.6823 0-1.0186-0.71768-1.5897-0.70997-0.57877-1.9833-0.57877h-1.3428v-1.281h1.4045q1.1498 0 1.7595-0.4553 0.60964-0.46302 0.60964-1.3273 0-0.88745-0.63279-1.3582-0.62508-0.47845-1.7981-0.47845-0.64051 0-1.3736 0.13891-0.73311 0.13891-1.6128 0.43215v-1.3891q0.88746-0.24694 1.6592-0.37042 0.77941-0.12347 1.4662-0.12347 1.7749 0 2.809 0.81028 1.0341 0.80257 1.0341 2.1762 0 0.95691-0.54791 1.6206-0.54791 0.65594-1.5588 0.9106z"/>
 </g>
 <g id="g94" transform="translate(-3.154 -2.6458)">
  <path id="rect96" fill="#fff" d="m680 80h40v40h-40z"/>
  <path id="rect98" d="m680 80h40v40h-40z" stroke="#000" stroke-width="2" fill="none"/>
 </g>
 <g id="text100">
  <path id="path228" style="" d="m686 102.56v-1.4199q0.58649 0.27781 1.1884 0.42443 0.60193 0.14663 1.1807 0.14663 1.5434 0 2.3537-1.0341 0.81801-1.0418 0.93376-3.1563-0.44759 0.66366-1.1344 1.0186-0.68681 0.35498-1.5202 0.35498-1.7286 0-2.7395-1.0418-1.0032-1.0495-1.0032-2.863 0-1.7749 1.0495-2.8476t2.7936-1.0727q1.9987 0 3.0482 1.5357 1.0572 1.528 1.0572 4.445 0 2.7241-1.2965 4.3524-1.2887 1.6206-3.4726 1.6206-0.58649 0-1.1884-0.11575-0.60193-0.11576-1.2502-0.34727zm3.1022-4.8849q1.0495 0 1.6592-0.71768 0.61736-0.71768 0.61736-1.9678 0-1.2424-0.61736-1.9601-0.60964-0.7254-1.6592-0.7254-1.0495 0-1.6669 0.7254-0.60965 0.71768-0.60965 1.9601 0 1.2502 0.60965 1.9678 0.61735 0.71768 1.6669 0.71768z"/>
  <path id="path230" style="" d="m696.02 100.84h1.6283v1.9601h-1.6283v-1.9601z"/>
  <path id="path232" style="" d="m704.39 97.333q-1.1112 0-1.7518 0.59421-0.63279 0.59421-0.63279 1.636t0.63279 1.636q0.64051 0.59421 1.7518 0.59421 1.1112 0 1.7518-0.59421 0.64051-0.60193 0.64051-1.636 0-1.0418-0.64051-1.636-0.6328-0.59421-1.7518-0.59421zm-1.5588-0.66366q-1.0032-0.24694-1.5666-0.93376-0.55562-0.68681-0.55562-1.6746 0-1.3813 0.98005-2.1839 0.98778-0.80257 2.701-0.80257 1.7209 0 2.701 0.80257 0.98006 0.80257 0.98006 2.1839 0 0.98778-0.56334 1.6746-0.55563 0.68681-1.5511 0.93376 1.1267 0.26238 1.7518 1.0264 0.63279 0.76398 0.63279 1.8675 0 1.6746-1.0264 2.5698-1.0186 0.89517-2.9247 0.89517t-2.9325-0.89517q-1.0186-0.89517-1.0186-2.5698 0-1.1035 0.63279-1.8675 0.6328-0.76398 1.7595-1.0264zm-0.57106-2.4617q0 0.89517 0.55562 1.3968 0.56334 0.5016 1.5743 0.5016 1.0032 0 1.5666-0.5016 0.57106-0.5016 0.57106-1.3968 0-0.89517-0.57106-1.3968-0.56334-0.5016-1.5666-0.5016-1.0109 0-1.5743 0.5016-0.55562 0.5016-0.55562 1.3968z"/>
 </g>
 <g id="g104" transform="translate(-3.154 -2.6458)">
  <path id="rect106" fill="#fff" d="m320 200h40v40h-40z"/>
  <path id="rect108" d="m320 200h40v40h-40z" stroke="#000" stroke-width="2" fill="none"/>
 </g>
 <g id="text110">
  <path id="path237" style="" d="m333.77 221.49h2.5466v-8.7897l-2.7704 0.55562v-1.4199l2.755-0.55563h1.5588v10.21h2.5466v1.3119h-6.6366v-1.3119z"/>
 </g>
 <g id="g114" transform="translate(-3.154 -2.6458)">
  <path id="rect116" fill="#fff" d="m360 200h40v40h-40z"/>
  <path id="rect118" d="m360 200h40v40h-40z" stroke="#000" stroke-width="2" fill="none"/>
 </g>
 <g id="text120">
  <path id="path242" style="" d="m378.23 216.59q1.119 0.23922 1.744 0.99549 0.63279 0.75626 0.63279 1.8675 0 1.7054-1.173 2.6392-1.173 0.93376-3.3337 0.93376-0.7254 0-1.4971-0.14663-0.76398-0.1389-1.582-0.42443v-1.5048q0.64823 0.37813 1.4199 0.57105 0.7717 0.19293 1.6128 0.19293 1.4662 0 2.2302-0.57878 0.7717-0.57877 0.7717-1.6823 0-1.0186-0.71768-1.5897-0.70996-0.57878-1.9833-0.57878h-1.3428v-1.281h1.4045q1.1498 0 1.7595-0.4553 0.60964-0.46302 0.60964-1.3273 0-0.88746-0.63279-1.3582-0.62508-0.47846-1.7981-0.47846-0.64051 0-1.3736 0.13891-0.73312 0.13891-1.6128 0.43215v-1.3891q0.88745-0.24694 1.6592-0.37041 0.77941-0.12347 1.4662-0.12347 1.7749 0 2.809 0.81028 1.0341 0.80257 1.0341 2.1762 0 0.95691-0.54791 1.6206-0.5479 0.65594-1.5588 0.91061z"/>
 </g>
 <g id="g124" transform="translate(-3.154 -2.6458)">
  <path id="rect126" fill="#fff" d="m400 200h40v40h-40z"/>
  <path id="rect128" d="m400 200h40v40h-40z" stroke="#000" stroke-width="2" fill="none"/>
 </g>
 <g id="text130">
  <path id="path247" style="" d="m417.79 212.64-3.9357 6.1504h3.9357v-6.1504zm-0.409-1.3582h1.9601v7.5086h1.6437v1.2964h-1.6437v2.7164h-1.5511v-2.7164h-5.2012v-1.5048l4.7922-7.3003z"/>
 </g>
 <g id="g134" transform="translate(-3.154 -2.6458)">
  <path id="rect136" fill="#fff" d="m440 200h40v40h-40z"/>
  <path id="rect138" d="m440 200h40v40h-40z" stroke="#000" stroke-width="2" fill="none"/>
 </g>
 <g id="text140">
  <path id="path252" style="" d="m453.11 211.28h7.4083v0.66367l-4.1826 10.858h-1.6283l3.9357-10.21h-5.5331v-1.3119z"/>
 </g>
 <g id="g144" transform="translate(-3.154 -2.6458)">
  <path id="rect146" fill="#fff" d="m480 200h40v40h-40z"/>
  <path id="rect148" d="m480 200h40v40h-40z" stroke="#000" stroke-width="2" fill="none"/>
 </g>
 <g id="text150">
  <path id="path257" style="" d="m496.84 217.33q-1.1112 0-1.7518 0.5942-0.63279 0.59421-0.63279 1.636t0.63279 1.636q0.64051 0.59421 1.7518 0.59421 1.1112 0 1.7518-0.59421 0.64051-0.60193 0.64051-1.636 0-1.0418-0.64051-1.636-0.63279-0.5942-1.7518-0.5942zm-1.5588-0.66367q-1.0032-0.24694-1.5666-0.93375-0.55562-0.68681-0.55562-1.6746 0-1.3813 0.98005-2.1839 0.98778-0.80256 2.701-0.80256 1.7209 0 2.701 0.80256 0.98006 0.80257 0.98006 2.1839 0 0.98778-0.56334 1.6746-0.55563 0.68681-1.5511 0.93375 1.1267 0.26238 1.7518 1.0264 0.63279 0.76399 0.63279 1.8675 0 1.6746-1.0264 2.5698-1.0186 0.89517-2.9247 0.89517t-2.9325-0.89517q-1.0186-0.89518-1.0186-2.5698 0-1.1035 0.6328-1.8675 0.63279-0.76398 1.7595-1.0264zm-0.57106-2.4617q0 0.89518 0.55563 1.3968 0.56334 0.5016 1.5743 0.5016 1.0032 0 1.5666-0.5016 0.57106-0.5016 0.57106-1.3968 0-0.89517-0.57106-1.3968-0.56334-0.50161-1.5666-0.50161-1.0109 0-1.5743 0.50161-0.55563 0.5016-0.55563 1.3968z"/>
 </g>
 <g id="g154" transform="translate(-3.154 -2.6458)">
  <path id="rect156" fill="#fff" d="m520 200h40v40h-40z"/>
  <path id="rect158" d="m520 200h40v40h-40z" stroke="#000" stroke-width="2" fill="none"/>
 </g>
 <g id="g160" transform="translate(-3.154 -2.6458)">
  <path id="rect162" fill="#fff" d="m560 200h40v40h-40z"/>
  <path id="rect164" d="m560 200h40v40h-40z" stroke="#000" stroke-width="2" fill="none"/>
 </g>
 <g id="g166" transform="translate(-3.154 -2.6458)">
  <path id="rect168" fill="#fff" d="m600 200h40v40h-40z"/>
  <path id="rect170" d="m600 200h40v40h-40z" stroke="#000" stroke-width="2" fill="none"/>
 </g>
 <g id="g172" transform="translate(-3.154 -2.6458)">
  <path id="rect174" fill="#fff" d="m640 200h40v40h-40z"/>
  <path id="rect176" d="m640 200h40v40h-40z" stroke="#000" stroke-width="2" fill="none"/>
 </g>
 <g id="g178" transform="translate(-3.154 -2.6458)">
  <path id="rect180" fill="#fff" d="m680 200h40v40h-40z"/>
  <path id="rect182" d="m680 200h40v40h-40z" stroke="#000" stroke-width="2" fill="none"/>
 </g>
 <g id="text184">
  <path id="path270" style="" d="m231.03 94.416v1.3428q-0.60192-0.30868-1.2502-0.46302-0.64823-0.15434-1.3428-0.15434-1.0572 0-1.5897 0.32411-0.52475 0.32411-0.52475 0.97234 0 0.49389 0.37813 0.77942 0.37813 0.27781 1.5202 0.53247l0.48617 0.10804q1.5125 0.32411 2.1453 0.91832 0.64051 0.58649 0.64051 1.6437 0 1.2038-0.95691 1.9061-0.94919 0.70224-2.6161 0.70224-0.69453 0-1.4508-0.1389-0.74855-0.13119-1.582-0.40129v-1.4662q0.78714 0.409 1.5511 0.61736 0.76398 0.20064 1.5125 0.20064 1.0032 0 1.5434-0.33955 0.54019-0.34726 0.54019-0.97234 0-0.57878-0.39357-0.88746-0.38585-0.30868-1.7054-0.59421l-0.49389-0.11576q-1.3196-0.27781-1.9061-0.84887-0.58649-0.57877-0.58649-1.582 0-1.2193 0.8643-1.8829 0.86431-0.66366 2.454-0.66366 0.78713 0 1.4817 0.11576 0.69453 0.11576 1.281 0.34726z"/>
  <path id="path273" style="" d="m233.14 94.161h6.7446v1.2965l-5.3402 6.2122h5.3402v1.1344h-6.9376v-1.2964l5.3402-6.2122h-5.1472v-1.1344z"/>
  <path id="path275" style="" d="m245.99 98.46q-1.7209 0-2.3846 0.39357-0.66366 0.39357-0.66366 1.3428 0 0.75626 0.49388 1.2038 0.50161 0.43987 1.3582 0.43987 1.1807 0 1.8907-0.83344 0.71768-0.84115 0.71768-2.2302v-0.3164h-1.4122zm2.8321-0.58649v4.9312h-1.4199v-1.3119q-0.48617 0.78714-1.2116 1.1653-0.7254 0.37041-1.7749 0.37041-1.3273 0-2.1144-0.74083-0.77942-0.74855-0.77942-1.9987 0-1.4585 0.97234-2.1993 0.98006-0.74083 2.917-0.74083h1.991v-0.13891q0-0.98006-0.64823-1.5125-0.64051-0.54019-1.8058-0.54019-0.74083 0-1.4431 0.17749-0.70225 0.17749-1.3505 0.53247v-1.3119q0.77942-0.30096 1.5125-0.44759 0.73312-0.15434 1.4276-0.15434 1.8752 0 2.8013 0.97234 0.92603 0.97234 0.92603 2.9479z"/>
  <path id="path277" style="" d="m258.48 95.82q0.53247-0.95691 1.2733-1.4122 0.74083-0.4553 1.744-0.4553 1.3505 0 2.0836 0.94919 0.73312 0.94147 0.73312 2.6855v5.2167h-1.4276v-5.1704q0-1.2424-0.43987-1.8444-0.43987-0.60192-1.3428-0.60192-1.1035 0-1.744 0.73311-0.64051 0.73312-0.64051 1.9987v4.8849h-1.4276v-5.1704q0-1.2502-0.43987-1.8444-0.43986-0.60192-1.3582-0.60192-1.0881 0-1.7286 0.74083-0.64051 0.73312-0.64051 1.991v4.8849h-1.4276v-8.643h1.4276v1.3428q0.48617-0.79485 1.1653-1.173 0.6791-0.37813 1.6128-0.37813 0.94148 0 1.5974 0.47845 0.66366 0.47845 0.98006 1.3891z"/>
  <path id="path279" style="" d="m270.51 95.157q-1.1421 0-1.8058 0.89517-0.66366 0.88745-0.66366 2.4386 0 1.5511 0.65594 2.4463 0.66366 0.88745 1.8135 0.88745 1.1344 0 1.7981-0.89517 0.66367-0.89517 0.66367-2.4386 0-1.5357-0.66367-2.4309-0.66366-0.90289-1.7981-0.90289zm0-1.2039q1.8521 0 2.9093 1.2039t1.0572 3.3337q0 2.1222-1.0572 3.3337-1.0572 1.2038-2.9093 1.2038-1.8598 0-2.917-1.2038-1.0495-1.2116-1.0495-3.3337 0-2.1299 1.0495-3.3337 1.0572-1.2039 2.917-1.2039z"/>
  <path id="path281" style="" d="m276.77 90.797h1.4276v7.0919l4.2366-3.7273h1.8135l-4.5839 4.0437 4.7768 4.5993h-1.8521l-4.391-4.2212v4.2212h-1.4276v-12.008z"/>
  <path id="path283" style="" d="m285.86 90.797h3.272v1.1035h-1.8521v11.884h1.8521v1.1035h-3.272v-14.091z"/>
  <path id="path285" style="" d="m295.48 90.797v14.091h-3.272v-1.1035h1.8444v-11.884h-1.8444v-1.1035h3.272z"/>
 </g>
 <g id="text188">
  <path id="path289" style="" d="m231.71 217.59v5.2167h-1.4199v-5.1704q0-1.227-0.47846-1.8366-0.47845-0.60964-1.4354-0.60964-1.1498 0-1.8135 0.73312-0.66366 0.73311-0.66366 1.9987v4.8848h-1.4276v-8.643h1.4276v1.3428q0.50932-0.77942 1.1961-1.1653 0.69453-0.38585 1.5974-0.38585 1.4894 0 2.2534 0.92604 0.76398 0.91832 0.76398 2.7087z"/>
  <path id="path291" style="" d="m241.96 218.13v0.69453h-6.5286q0.0926 1.4662 0.87973 2.2379 0.79485 0.76399 2.2071 0.76399 0.818 0 1.582-0.20065 0.7717-0.20064 1.528-0.60192v1.3428q-0.76398 0.32411-1.5666 0.49388-0.80257 0.16978-1.6283 0.16978-2.0682 0-3.2797-1.2038-1.2038-1.2038-1.2038-3.2566 0-2.1222 1.1421-3.3646 1.1498-1.2502 3.0945-1.2502 1.744 0 2.755 1.1267 1.0186 1.119 1.0186 3.0482zm-1.4199-0.41672q-0.0154-1.1653-0.65595-1.8598-0.63279-0.69453-1.6823-0.69453-1.1884 0-1.9061 0.67138-0.70996 0.67138-0.818 1.8907l5.0624-0.008z"/>
  <path id="path293" style="" d="m249.97 218.38q0-1.5434-0.64051-2.3923-0.6328-0.84887-1.7826-0.84887-1.1421 0-1.7826 0.84887-0.6328 0.84887-0.6328 2.3923 0 1.5357 0.6328 2.3846 0.64051 0.84887 1.7826 0.84887 1.1498 0 1.7826-0.84887 0.64051-0.84887 0.64051-2.3846zm1.4199 3.3492q0 2.2071-0.98005 3.2797-0.98006 1.0804-3.0019 1.0804-0.74855 0-1.4122-0.11575-0.66367-0.10804-1.2887-0.33955v-1.3813q0.62507 0.33955 1.2347 0.5016 0.60964 0.16206 1.2424 0.16206 1.3968 0 2.0913-0.73311 0.69453-0.7254 0.69453-2.1994v-0.70224q-0.43987 0.76398-1.1267 1.1421-0.68682 0.37813-1.6437 0.37813-1.5897 0-2.562-1.2116-0.97235-1.2116-0.97235-3.2103 0-2.0064 0.97235-3.218 0.97234-1.2116 2.562-1.2116 0.9569 0 1.6437 0.37814 0.68681 0.37813 1.1267 1.1421v-1.3119h1.4199v7.5704z"/>
  <path id="path295" style="" d="m260.88 225.43v1.1035h-8.2109v-1.1035h8.2109z"/>
  <path id="path297" style="" d="m262.22 214.16h1.4199v8.643h-1.4199v-8.643zm0-3.3646h1.4199v1.7981h-1.4199v-1.7981z"/>
  <path id="path299" style="" d="m272.29 215.47v-4.6765h1.4199v12.008h-1.4199v-1.2964q-0.44759 0.7717-1.1344 1.1498-0.67909 0.37042-1.636 0.37042-1.5666 0-2.5543-1.2502-0.98006-1.2502-0.98006-3.2874 0-2.0373 0.98006-3.2874 0.98777-1.2502 2.5543-1.2502 0.95691 0 1.636 0.37814 0.68681 0.37041 1.1344 1.1421zm-4.8386 3.0174q0 1.5665 0.64051 2.4617 0.64822 0.88745 1.7749 0.88745t1.7749-0.88745q0.64823-0.89518 0.64823-2.4617 0-1.5666-0.64823-2.454-0.64822-0.89517-1.7749-0.89517t-1.7749 0.89517q-0.64051 0.88746-0.64051 2.454z"/>
  <path id="path301" style="" d="m283.82 214.16-3.1254 4.2058 3.2874 4.4373h-1.6746l-2.5157-3.3955-2.5157 3.3955h-1.6746l3.3569-4.5222-3.0714-4.1209h1.6746l2.2919 3.0791 2.292-3.0791h1.6746z"/>
  <path id="path303" style="" d="m285.86 210.8h3.272v1.1035h-1.8521v11.884h1.8521v1.1035h-3.272v-14.091z"/>
  <path id="path305" style="" d="m295.48 210.8v14.091h-3.272v-1.1035h1.8444v-11.884h-1.8444v-1.1035h3.272z"/>
 </g>
 <g id="g192" transform="translate(-3.154 -2.6458)">
  <path id="rect194" fill="#fff" d="m320 280h40v40h-40z"/>
  <path id="rect196" d="m320 280h40v40h-40z" stroke="#000" stroke-width="2" fill="none"/>
 </g>
 <g id="text198">
  <path id="path310" style="" d="m333.52 291.28h6.1196v1.3119h-4.6919v2.8244q0.33955-0.11576 0.67909-0.16978 0.33955-0.0617 0.6791-0.0617 1.9292 0 3.0559 1.0572t1.1267 2.863q0 1.8598-1.1576 2.8939-1.1576 1.0264-3.2643 1.0264-0.72539 0-1.4817-0.12347-0.74855-0.12347-1.5511-0.37042v-1.5665q0.69453 0.37813 1.4354 0.56334 0.74083 0.1852 1.5665 0.1852 1.335 0 2.1145-0.70224 0.77942-0.70225 0.77942-1.9061t-0.77942-1.9061q-0.77942-0.70224-2.1145-0.70224-0.62507 0-1.2502 0.1389-0.61736 0.13891-1.2656 0.43215v-5.7877z"/>
 </g>
 <g id="text202">
  <path id="path313" style="" d="m247.77 297.59v5.2167h-1.4199v-5.1704q0-1.227-0.47845-1.8366-0.47846-0.60964-1.4354-0.60964-1.1498 0-1.8135 0.73311-0.66366 0.73312-0.66366 1.9987v4.8849h-1.4276v-8.643h1.4276v1.3428q0.50932-0.77941 1.1961-1.1653 0.69452-0.38585 1.5974-0.38585 1.4894 0 2.2534 0.92604 0.76399 0.91832 0.76399 2.7087z"/>
  <path id="path315" style="" d="m258.01 298.13v0.69453h-6.5286q0.0926 1.4662 0.87974 2.2379 0.79485 0.76398 2.2071 0.76398 0.818 0 1.582-0.20064 0.7717-0.20064 1.528-0.60193v1.3428q-0.76399 0.32411-1.5666 0.49389-0.80257 0.16977-1.6283 0.16977-2.0682 0-3.2797-1.2038-1.2038-1.2038-1.2038-3.2566 0-2.1222 1.1421-3.3646 1.1498-1.2502 3.0945-1.2502 1.744 0 2.755 1.1267 1.0186 1.119 1.0186 3.0482zm-1.4199-0.41672q-0.0154-1.1653-0.65594-1.8598-0.6328-0.69453-1.6823-0.69453-1.1884 0-1.9061 0.67138-0.70996 0.67138-0.818 1.8907l5.0624-0.008z"/>
  <path id="path317" style="" d="m266.02 298.38q0-1.5434-0.64051-2.3923-0.63279-0.84886-1.7826-0.84886-1.1421 0-1.7826 0.84886-0.63279 0.84887-0.63279 2.3923 0 1.5357 0.63279 2.3846 0.64051 0.84887 1.7826 0.84887 1.1498 0 1.7826-0.84887 0.64051-0.84887 0.64051-2.3846zm1.4199 3.3492q0 2.2071-0.98006 3.2797-0.98006 1.0804-3.0019 1.0804-0.74855 0-1.4122-0.11576-0.66366-0.10803-1.2887-0.33954v-1.3814q0.62508 0.33955 1.2347 0.50161 0.60964 0.16206 1.2424 0.16206 1.3968 0 2.0913-0.73312 0.69453-0.7254 0.69453-2.1993v-0.70225q-0.43987 0.76398-1.1267 1.1421-0.68681 0.37813-1.6437 0.37813-1.5897 0-2.562-1.2116-0.97234-1.2116-0.97234-3.2103 0-2.0064 0.97234-3.218t2.562-1.2116q0.95691 0 1.6437 0.37813 0.68681 0.37813 1.1267 1.1421v-1.3119h1.4199v7.5704z"/>
  <path id="path319" style="" d="m276.94 305.43v1.1035h-8.2109v-1.1035h8.2109z"/>
  <path id="path321" style="" d="m283.96 295.47v-4.6765h1.4199v12.008h-1.4199v-1.2965q-0.44758 0.7717-1.1344 1.1498-0.6791 0.37041-1.636 0.37041-1.5666 0-2.5543-1.2502-0.98006-1.2502-0.98006-3.2874 0-2.0373 0.98006-3.2874 0.98777-1.2502 2.5543-1.2502 0.95691 0 1.636 0.37813 0.68681 0.37042 1.1344 1.1421zm-4.8386 3.0173q0 1.5666 0.64051 2.4617 0.64823 0.88746 1.7749 0.88746t1.7749-0.88746q0.64822-0.89517 0.64822-2.4617 0-1.5666-0.64822-2.454-0.64823-0.89517-1.7749-0.89517t-1.7749 0.89517q-0.64051 0.88745-0.64051 2.454z"/>
  <path id="path323" style="" d="m294.51 298.49q0-1.5666-0.64823-2.454-0.64051-0.89517-1.7672-0.89517t-1.7749 0.89517q-0.64051 0.88745-0.64051 2.454t0.64051 2.4617q0.64823 0.88746 1.7749 0.88746t1.7672-0.88746q0.64823-0.89517 0.64823-2.4617zm-4.8308-3.0173q0.44759-0.7717 1.1267-1.1421 0.68682-0.37813 1.636-0.37813 1.5743 0 2.5543 1.2502 0.98778 1.2502 0.98778 3.2874 0 2.0373-0.98778 3.2874-0.98006 1.2502-2.5543 1.2502-0.94919 0-1.636-0.37041-0.67909-0.37814-1.1267-1.1498v1.2965h-1.4276v-12.008h1.4276v4.6765z"/>
 </g>
 <g id="text206">
  <path id="path326" style="" d="m336.84 63.058q-1.0319 0-1.5544 1.0186-0.51594 1.012-0.51594 3.0493 0 2.0307 0.51594 3.0493 0.52256 1.012 1.5544 1.012 1.0385 0 1.5544-1.012 0.52255-1.0186 0.52255-3.0493 0-2.0373-0.52255-3.0493-0.51594-1.0186-1.5544-1.0186zm0-1.0583q1.6603 0 2.5334 1.3163 0.87974 1.3097 0.87974 3.81 0 2.4937-0.87974 3.81-0.87313 1.3097-2.5334 1.3097t-2.54-1.3097q-0.87313-1.3163-0.87313-3.81 0-2.5003 0.87313-3.81 0.87974-1.3163 2.54-1.3163z"/>
 </g>
 <g id="text210">
  <path id="path329" style="" d="m374.21 70.93h2.1828v-7.534l-2.3746 0.47625v-1.2171l2.3614-0.47625h1.3362v8.7511h2.1828v1.1245h-5.6886v-1.1245z"/>
 </g>
 <g id="text214">
  <path id="path332" style="" d="m415.13 70.93h4.6633v1.1245h-6.2706v-1.1245q0.76068-0.78714 2.0704-2.1101 1.3163-1.3295 1.6536-1.7132 0.64162-0.72099 0.89297-1.2171 0.25797-0.50271 0.25797-0.98558 0-0.78714-0.55563-1.2832-0.54901-0.4961-1.4354-0.4961-0.62839 0-1.3295 0.21828-0.69453 0.21828-1.4883 0.66146v-1.3494q0.80698-0.32412 1.5081-0.48948 0.70115-0.16536 1.2832-0.16536 1.5346 0 2.4474 0.76729 0.91281 0.76729 0.91281 2.0505 0 0.60854-0.23151 1.1576-0.22489 0.5424-0.82682 1.2832-0.16537 0.19182-1.0517 1.1113-0.88636 0.91281-2.5003 2.5598z"/>
 </g>
 <g id="text218">
  <path id="path335" style="" d="m458.03 66.729q0.95912 0.20505 1.4949 0.85328 0.5424 0.64823 0.5424 1.6007 0 1.4618-1.0054 2.2622-1.0054 0.80037-2.8575 0.80037-0.62177 0-1.2832-0.12568-0.65484-0.11906-1.356-0.3638v-1.2898q0.55562 0.32412 1.2171 0.48948 0.66146 0.16536 1.3825 0.16536 1.2568 0 1.9116-0.4961 0.66146-0.4961 0.66146-1.442 0-0.87313-0.61515-1.3626-0.60855-0.4961-1.7-0.4961h-1.1509v-1.098h1.2039q0.98558 0 1.5081-0.39026 0.52255-0.39688 0.52255-1.1377 0-0.76068-0.54239-1.1642-0.53579-0.41011-1.5412-0.41011-0.54901 0-1.1774 0.11906t-1.3825 0.37042v-1.1906q0.76068-0.21167 1.4221-0.3175 0.66808-0.10583 1.2568-0.10583 1.5214 0 2.4077 0.69453 0.88636 0.68792 0.88636 1.8653 0 0.82021-0.46964 1.3891-0.46964 0.56224-1.3362 0.78052z"/>
 </g>
 <g id="text222">
  <path id="path338" style="" d="m497.65 63.343-3.3734 5.2718h3.3734v-5.2718zm-0.35057-1.1642h1.6801v6.436h1.4089v1.1113h-1.4089v2.3283h-1.3295v-2.3283h-4.4582v-1.2898l4.1077-6.2574z"/>
 </g>
 <g id="text226">
  <path id="path341" style="" d="m534 62.179h5.2454v1.1245h-4.0217v2.4209q0.29104-0.09922 0.58208-0.14552 0.29105-0.05292 0.58209-0.05292 1.6536 0 2.6194 0.9062 0.96573 0.9062 0.96573 2.454 0 1.5941-0.99219 2.4805-0.99219 0.87974-2.798 0.87974-0.62177 0-1.27-0.10583-0.64161-0.10583-1.3295-0.3175v-1.3428q0.59531 0.32412 1.2303 0.48287 0.635 0.15875 1.3428 0.15875 1.1443 0 1.8124-0.60193 0.66807-0.60193 0.66807-1.6338t-0.66807-1.6338q-0.66808-0.60193-1.8124-0.60193-0.53579 0-1.0716 0.11906-0.52917 0.11906-1.0848 0.37042v-4.9609z"/>
 </g>
 <g id="text230">
  <path id="path344" style="" d="m577 66.584q-0.89959 0-1.4288 0.61516-0.52256 0.61516-0.52256 1.6867 0 1.065 0.52256 1.6867 0.52916 0.61516 1.4288 0.61516 0.89959 0 1.4221-0.61516 0.52917-0.62177 0.52917-1.6867 0-1.0716-0.52917-1.6867-0.52255-0.61516-1.4221-0.61516zm2.6524-4.187v1.2171q-0.50271-0.23813-1.0186-0.3638-0.50933-0.12568-1.012-0.12568-1.3229 0-2.0241 0.89297-0.69453 0.89297-0.79375 2.6988 0.39026-0.57547 0.97896-0.87974 0.5887-0.31089 1.2965-0.31089 1.4883 0 2.3482 0.9062 0.86651 0.89959 0.86651 2.454 0 1.5214-0.89959 2.4408-0.89958 0.91943-2.3945 0.91943-1.7132 0-2.6194-1.3097-0.9062-1.3163-0.9062-3.81 0-2.3416 1.1112-3.7306 1.1112-1.3957 2.9832-1.3957 0.5027 0 1.012 0.09922 0.51594 0.09922 1.0716 0.29766z"/>
 </g>
 <g id="text234">
  <path id="path347" style="" d="m613.64 62.179h6.35v0.56886l-3.5851 9.3067h-1.3957l3.3734-8.7511h-4.7427v-1.1245z"/>
 </g>
 <g id="text238">
  <path id="path350" style="" d="m656.84 67.364q-0.9525 0-1.5015 0.50932-0.5424 0.50932-0.5424 1.4023 0 0.89297 0.5424 1.4023 0.54901 0.50932 1.5015 0.50932 0.95251 0 1.5015-0.50932 0.54901-0.51594 0.54901-1.4023 0-0.89297-0.54901-1.4023-0.5424-0.50932-1.5015-0.50932zm-1.3361-0.56886q-0.8599-0.21167-1.3428-0.80037-0.47625-0.5887-0.47625-1.4354 0-1.184 0.84005-1.8719 0.84667-0.68792 2.3151-0.68792 1.4751 0 2.3151 0.68792 0.84006 0.68792 0.84006 1.8719 0 0.84667-0.48287 1.4354-0.47625 0.5887-1.3295 0.80037 0.96573 0.2249 1.5015 0.87974 0.5424 0.65484 0.5424 1.6007 0 1.4354-0.87974 2.2027-0.87313 0.76729-2.5069 0.76729t-2.5135-0.76729q-0.87313-0.76729-0.87313-2.2027 0-0.94589 0.5424-1.6007 0.54239-0.65485 1.5081-0.87974zm-0.48948-2.1101q0 0.76729 0.47625 1.1972 0.48286 0.42995 1.3494 0.42995 0.8599 0 1.3428-0.42995 0.48948-0.42995 0.48948-1.1972 0-0.76729-0.48948-1.1972-0.48287-0.42995-1.3428-0.42995-0.86651 0-1.3494 0.42995-0.47625 0.42995-0.47625 1.1972z"/>
 </g>
 <g id="text242">
  <path id="path353" style="" d="m694.02 71.849v-1.2171q0.5027 0.23812 1.0186 0.3638 0.51594 0.12568 1.012 0.12568 1.3229 0 2.0174-0.88636 0.70115-0.89297 0.80037-2.7054-0.38365 0.56886-0.97235 0.87313t-1.3031 0.30427q-1.4817 0-2.3482-0.89297-0.8599-0.89958-0.8599-2.454 0-1.5214 0.89959-2.4408 0.89958-0.91943 2.3945-0.91943 1.7132 0 2.6128 1.3163 0.9062 1.3097 0.9062 3.81 0 2.335-1.1112 3.7306-1.1046 1.3891-2.9766 1.3891-0.50271 0-1.0186-0.09922-0.51594-0.09922-1.0716-0.29766zm2.6591-4.187q0.89959 0 1.4221-0.61516 0.52917-0.61516 0.52917-1.6867 0-1.065-0.52917-1.6801-0.52255-0.62177-1.4221-0.62177-0.89958 0-1.4288 0.62177-0.52255 0.61516-0.52255 1.6801 0 1.0716 0.52255 1.6867 0.52917 0.61516 1.4288 0.61516z"/>
 </g>
 <g id="g246" transform="translate(-3.154 -2.6458)">
  <path id="path248" d="m340 200c0-40 40-40 40-70.264" stroke="#000" stroke-width="2" fill="none"/>
  <path id="polygon250" d="m385 132.24-5-2.5-5 2.5 5-10z"/>
  <path id="polygon252" d="m385 132.24-5-2.5-5 2.5 5-10z" stroke="#000" stroke-width="2" fill="none"/>
 </g>
 <g id="g254" transform="translate(-3.154 -2.6458)">
  <path id="path256" d="m380 200c0-40 80-40 80-70.264" stroke="#000" stroke-width="2" fill="none"/>
  <path id="polygon258" d="m465 132.24-5-2.5-5 2.5 5-10z"/>
  <path id="polygon260" d="m465 132.24-5-2.5-5 2.5 5-10z" stroke="#000" stroke-width="2" fill="none"/>
 </g>
 <g id="g262" transform="translate(-3.154 -2.6458)">
  <path id="path264" d="m420 200c0-40 80-40 80-70.264" stroke="#000" stroke-width="2" fill="none"/>
  <path id="polygon266" d="m505 132.24-5-2.5-5 2.5 5-10z"/>
  <path id="polygon268" d="m505 132.24-5-2.5-5 2.5 5-10z" stroke="#000" stroke-width="2" fill="none"/>
 </g>
 <g id="g270" transform="translate(-3.154 -2.6458)">
  <path id="path272" d="m460 200c0-40 160-40 160-70.264" stroke="#000" stroke-width="2" fill="none"/>
  <path id="polygon274" d="m625 132.24-5-2.5-5 2.5 5-10z"/>
  <path id="polygon276" d="m625 132.24-5-2.5-5 2.5 5-10z" stroke="#000" stroke-width="2" fill="none"/>
 </g>
 <g id="g278" transform="translate(-3.154 -2.6458)">
  <path id="path280" d="m500 200c0-40 160-20 160-70.264" stroke="#000" stroke-width="2" fill="none"/>
  <path id="polygon282" d="m665 132.24-5-2.5-5 2.5 5-10z"/>
  <path id="polygon284" d="m665 132.24-5-2.5-5 2.5 5-10z" stroke="#000" stroke-width="2" fill="none"/>
 </g>
 <path id="path286" d="m316.85 247.35c0 20 20 0 20 20" stroke="#000" stroke-width="2" fill="none"/>
 <path id="path288" d="m516.85 247.35c0 20-180 0-180 20" stroke="#000" stroke-width="2" fill="none"/>
</svg>
