<?xml version="1.0" encoding="UTF-8" standalone="no"?>
<svg id="svg2" xmlns:rdf="http://www.w3.org/1999/02/22-rdf-syntax-ns#" xmlns="http://www.w3.org/2000/svg" viewBox="339 159 118.36458 162" height="8.9448cm" width="6.7362cm" version="1.1" xmlns:cc="http://creativecommons.org/ns#" xmlns:dc="http://purl.org/dc/elements/1.1/">
 <metadata id="metadata78">
  <rdf:RDF>
   <cc:Work rdf:about="">
    <dc:format>image/svg+xml</dc:format>
    <dc:type rdf:resource="http://purl.org/dc/dcmitype/StillImage"/>
   </cc:Work>
  </rdf:RDF>
 </metadata>
 <g id="g4" transform="translate(-1.8177)">
  <path id="rect6" fill="#fff" d="m340 160h40v40h-40z"/>
  <path id="rect8" d="m340 160h40v40h-40z" stroke="#000" stroke-width="2" fill="none"/>
 </g>
 <g id="g10" transform="translate(-1.8177)">
  <path id="rect12" fill="#fff" d="m380 160h40v40h-40z"/>
  <path id="rect14" d="m380 160h40v40h-40z" stroke="#000" stroke-width="2" fill="none"/>
 </g>
 <g id="g16" transform="translate(-1.8177)">
  <path id="rect18" fill="#fff" d="m420 160h40v40h-40z"/>
  <path id="rect20" d="m420 160h40v40h-40z" stroke="#000" stroke-width="2" fill="none"/>
 </g>
 <g id="g22" transform="translate(-1.8177)">
  <path id="rect24" fill="#fff" d="m340 220h80v40h-80z"/>
  <path id="rect26" d="m340 220h80v40h-80z" stroke="#000" stroke-width="2" fill="none"/>
 </g>
 <g id="g28" transform="translate(-1.8177)">
  <path id="rect30" fill="#fff" d="m420 220h40v40h-40z"/>
  <path id="rect32" d="m420 220h40v40h-40z" stroke="#000" stroke-width="2" fill="none"/>
 </g>
 <g id="g34" transform="translate(-1.8177)">
  <path id="rect36" fill="#fff" d="m380 280h80v40h-80z"/>
  <path id="rect38" d="m380 280h80v40h-80z" stroke="#000" stroke-width="2" fill="none"/>
 </g>
 <g id="g40" transform="translate(-1.8177)">
  <path id="rect42" fill="#fff" d="m340 280h40v40h-40z"/>
  <path id="rect44" d="m340 280h40v40h-40z" stroke="#000" stroke-width="2" fill="none"/>
 </g>
 <g id="text46">
  <path id="path57" style="" d="m354.67 184.75h2.9104v-10.045l-3.1662 0.635v-1.6228l3.1485-0.63499h1.7815v11.668h2.9104v1.4993h-7.5847v-1.4993z"/>
 </g>
 <g id="text50">
  <path id="path60" style="" d="m394.67 184.75h2.9104v-10.045l-3.1662 0.635v-1.6228l3.1485-0.63499h1.7815v11.668h2.9104v1.4993h-7.5847v-1.4993z"/>
 </g>
 <g id="text54">
  <path id="path63" style="" d="m434.67 184.75h2.9104v-10.045l-3.1662 0.635v-1.6228l3.1485-0.63499h1.7815v11.668h2.9104v1.4993h-7.5847v-1.4993z"/>
 </g>
 <g id="text58">
  <path id="path66" style="" d="m434.67 244.75h2.9104v-10.045l-3.1662 0.635v-1.6228l3.1485-0.63499h1.7815v11.668h2.9104v1.4993h-7.5847v-1.4993z"/>
 </g>
 <g id="text62">
  <path id="path69" style="" d="m354.67 304.75h2.9104v-10.045l-3.1662 0.635v-1.6228l3.1485-0.63499h1.7815v11.668h2.9104v1.4993h-7.5847v-1.4993z"/>
 </g>
 <g id="text66">
  <path id="path72" style="" d="m375.9 244.75h6.2177v1.4993h-8.3608v-1.4993q1.0142-1.0495 2.7605-2.8134 1.7551-1.7727 2.2049-2.2842 0.85548-0.96131 1.1906-1.6228 0.34396-0.67028 0.34396-1.3141 0-1.0495-0.74083-1.711-0.73202-0.66146-1.9138-0.66146-0.83785 0-1.7727 0.29105-0.92604 0.29104-1.9844 0.88194v-1.7992q1.076-0.43215 2.0108-0.65263 0.93486-0.22049 1.711-0.22049 2.0461 0 3.2632 1.023 1.2171 1.0231 1.2171 2.734 0 0.81139-0.30868 1.5434-0.29986 0.72319-1.1024 1.711-0.22048 0.25576-1.4023 1.4817-1.1818 1.2171-3.3337 3.4131z"/>
 </g>
 <g id="text70">
  <path id="path75" style="" d="m415.9 304.75h6.2177v1.4993h-8.3608v-1.4993q1.0142-1.0495 2.7605-2.8134 1.7551-1.7727 2.2049-2.2842 0.85548-0.96131 1.1906-1.6228 0.34396-0.67028 0.34396-1.3141 0-1.0495-0.74083-1.711-0.73202-0.66146-1.9138-0.66146-0.83785 0-1.7727 0.29105-0.92604 0.29104-1.9844 0.88194v-1.7992q1.076-0.43215 2.0108-0.65263 0.93486-0.22049 1.711-0.22049 2.0461 0 3.2632 1.023 1.2171 1.0231 1.2171 2.734 0 0.81139-0.30868 1.5434-0.29986 0.72319-1.1024 1.711-0.22048 0.25576-1.4023 1.4817-1.1818 1.2171-3.3337 3.4131z"/>
 </g>
</svg>
