<?xml version="1.0" encoding="UTF-8" standalone="no"?>
<!-- Created with Inkscape (http://www.inkscape.org/) -->
<svg id="svg2" xmlns:rdf="http://www.w3.org/1999/02/22-rdf-syntax-ns#" xmlns="http://www.w3.org/2000/svg" height="227.52" width="247.98" version="1.1" xmlns:cc="http://creativecommons.org/ns#" xmlns:dc="http://purl.org/dc/elements/1.1/" viewBox="138 128 132.97499 112.82707">
 <metadata id="metadata70">
  <rdf:RDF>
   <cc:Work rdf:about="">
    <dc:format>image/svg+xml</dc:format>
    <dc:type rdf:resource="http://purl.org/dc/dcmitype/StillImage"/>
   </cc:Work>
  </rdf:RDF>
 </metadata>
 <g id="g4" transform="translate(-1 -5.5865)">
  <path id="rect6" fill="#fff" d="m140 130h130v120h-130z"/>
  <path id="rect8" d="m140 130h130v120h-130z" stroke="#000" stroke-width="2" fill="none"/>
 </g>
 <g id="g14" transform="translate(-1 -5.5865)">
  <path id="rect16" d="m140 130h130v40h-130z" stroke="#fff" stroke-width="2" fill="none"/>
  <g id="text18">
   <path id="path3018" style="" d="m169.63 145.57-1.8124 4.9146h3.6314l-1.819-4.9146m-0.75406-1.3163h1.5147l3.7637 9.8756h-1.3891l-0.89958-2.5334h-4.4516l-0.89958 2.5334h-1.4089l3.7703-9.8756"/>
   <path id="path3020" style="" d="m175.69 147.98h8.4799v1.1112h-8.4799v-1.1112m0 2.6988h8.4799v1.1245h-8.4799v-1.1245"/>
   <path id="path3022" style="" d="m187.29 153.01h2.1828v-7.534l-2.3746 0.47625v-1.2171l2.3614-0.47625h1.3362v8.7511h2.1828v1.1245h-5.6886v-1.1245"/>
   <path id="path3024" style="" d="m200.3 152.45h1.4023v1.6801h-1.4023v-1.6801m4.5045 0h1.4089v1.6801h-1.4089v-1.6801m-9.0157 0h1.4089v1.6801h-1.4089v-1.6801"/>
   <path id="path3026" style="" d="m209.27 153.93v-1.2171c0.33514 0.15875 0.67468 0.28002 1.0186 0.3638 0.34395 0.0838 0.6813 0.12568 1.012 0.12568 0.88194 0 1.5544-0.29545 2.0174-0.88636 0.46743-0.59531 0.73422-1.4971 0.80037-2.7054-0.25577 0.37924-0.57989 0.67028-0.97235 0.87313-0.39247 0.20285-0.82683 0.30427-1.3031 0.30427-0.98779 0-1.7705-0.29766-2.3482-0.89297-0.57326-0.59972-0.85989-1.4177-0.85989-2.454 0-1.0142 0.29986-1.8278 0.89958-2.4408 0.59972-0.61294 1.3979-0.91942 2.3945-0.91943 1.1421 0.00001 2.013 0.43878 2.6128 1.3163 0.60413 0.87313 0.9062 2.1431 0.9062 3.81 0 1.5566-0.37042 2.8002-1.1112 3.7306-0.73643 0.92605-1.7286 1.3891-2.9766 1.3891-0.33514 0-0.67469-0.0331-1.0186-0.0992-0.34396-0.0661-0.70115-0.16536-1.0716-0.29766m2.6591-4.187c0.59972 0.00001 1.0738-0.20505 1.4221-0.61516 0.35277-0.4101 0.52916-0.97234 0.52916-1.6867 0-0.70996-0.17639-1.27-0.52916-1.6801-0.34838-0.4145-0.82242-0.62176-1.4221-0.62177-0.59973 0.00001-1.076 0.20727-1.4288 0.62177-0.34837 0.41012-0.52255 0.97015-0.52255 1.6801 0 0.71438 0.17418 1.2766 0.52255 1.6867 0.35278 0.41011 0.82903 0.61517 1.4288 0.61516"/>
   <path id="path3028" style="" d="m217.99 152.45h1.3957v1.1377l-1.0848 2.1167h-0.85328l0.5424-2.1167v-1.1377"/>
   <path id="path3030" style="" d="m231.26 145.64v3.6843h3.6843v1.1245h-3.6843v3.6843h-1.1112v-3.6843h-3.6843v-1.1245h3.6843v-3.6843h1.1112"/>
   <path id="path3032" style="" d="m238.06 153.01h2.1828v-7.534l-2.3746 0.47625v-1.2171l2.3614-0.47625h1.3362v8.7511h2.1828v1.1245h-5.6886v-1.1245"/>
  </g>
 </g>
 <g id="g22" transform="translate(-1 -5.5865)">
  <path id="rect24" d="m140 130h130v120h-130z" stroke="#000" stroke-width="2" fill="none"/>
 </g>
 <g id="g30" transform="translate(-1 -5.5865)">
  <path id="rect32" fill="#ccf" d="m170 170h100v80h-100z"/>
  <path id="rect34" d="m170 170h100v80h-100z" stroke="#000" stroke-width="2" fill="none"/>
 </g>
 <g id="g40" transform="translate(-1 -5.5865)">
  <path id="rect42" d="m169.02 170h101.95v40h-101.95z" stroke="#ccf" stroke-width="2" fill="none"/>
  <g id="text44">
   <path id="path3041" style="" d="m182.65 189.42v3.6182h2.1431c0.71878 0 1.2502-0.14772 1.5941-0.44318 0.34836-0.29986 0.52254-0.75626 0.52255-1.3692-0.00001-0.61736-0.17419-1.0716-0.52255-1.3626-0.34397-0.29544-0.87534-0.44317-1.5941-0.44317h-2.1431m0-4.0614v2.9766h1.9778c0.65264 0.00001 1.1377-0.12126 1.4552-0.3638 0.32191-0.24694 0.48286-0.62177 0.48287-1.1245-0.00001-0.49829-0.16096-0.87092-0.48287-1.1179-0.3175-0.24694-0.80257-0.37041-1.4552-0.37042h-1.9778m-1.3362-1.098h3.4131c1.0186 0.00001 1.8036 0.21168 2.3548 0.635 0.55121 0.42334 0.82682 1.0253 0.82682 1.8058 0 0.60414-0.14112 1.0848-0.42333 1.442-0.28223 0.35719-0.69675 0.57988-1.2436 0.66807 0.65705 0.14112 1.1664 0.43657 1.528 0.88636 0.366 0.44539 0.549 1.0032 0.54901 1.6735-0.00001 0.88195-0.29987 1.5632-0.89959 2.0439-0.59973 0.48067-1.453 0.721-2.5598 0.721h-3.5454v-9.8756"/>
   <path id="path3043" style="" d="m190.7 187.98h8.4799v1.1112h-8.4799v-1.1112m0 2.6988h8.4799v1.1245h-8.4799v-1.1245"/>
   <path id="path3045" style="" d="m204.93 185.14c-0.68792 0.00001-1.2061 0.33956-1.5544 1.0186-0.34396 0.6747-0.51594 1.6911-0.51594 3.0493 0 1.3538 0.17198 2.3702 0.51594 3.0493 0.34836 0.67469 0.86651 1.012 1.5544 1.012 0.69232 0 1.2105-0.33734 1.5544-1.012 0.34836-0.6791 0.52255-1.6955 0.52255-3.0493 0-1.3582-0.17419-2.3746-0.52255-3.0493-0.34397-0.67909-0.86211-1.0186-1.5544-1.0186m0-1.0583c1.1068 0.00001 1.9513 0.43878 2.5334 1.3163 0.58649 0.87313 0.87973 2.1431 0.87974 3.81-0.00001 1.6625-0.29325 2.9325-0.87974 3.81-0.58209 0.87313-1.4266 1.3097-2.5334 1.3097s-1.9535-0.43656-2.54-1.3097c-0.58208-0.87754-0.87313-2.1475-0.87312-3.81-0.00001-1.6669 0.29104-2.9369 0.87312-3.81 0.58649-0.87753 1.4332-1.3163 2.54-1.3163"/>
   <path id="path3047" style="" d="m215.32 192.45h1.4023v1.6801h-1.4023v-1.6801m4.5045 0h1.4089v1.6801h-1.4089v-1.6801m-9.0157 0h1.4089v1.6801h-1.4089v-1.6801"/>
   <path id="path3049" style="" d="m224.28 193.93v-1.2171c0.33514 0.15875 0.67468 0.28002 1.0186 0.3638 0.34395 0.0838 0.6813 0.12568 1.012 0.12568 0.88194 0 1.5544-0.29545 2.0174-0.88636 0.46743-0.59531 0.73422-1.4971 0.80037-2.7054-0.25577 0.37924-0.57989 0.67028-0.97235 0.87313-0.39247 0.20285-0.82683 0.30427-1.3031 0.30427-0.98779 0-1.7705-0.29766-2.3482-0.89297-0.57326-0.59972-0.8599-1.4177-0.85989-2.454-0.00001-1.0142 0.29986-1.8278 0.89958-2.4408 0.59972-0.61294 1.3979-0.91942 2.3945-0.91943 1.1421 0.00001 2.013 0.43878 2.6128 1.3163 0.60413 0.87313 0.9062 2.1431 0.9062 3.81 0 1.5566-0.37042 2.8002-1.1112 3.7306-0.73643 0.92605-1.7286 1.3891-2.9766 1.3891-0.33514 0-0.67469-0.0331-1.0186-0.0992-0.34396-0.0661-0.70115-0.16536-1.0716-0.29766m2.6591-4.187c0.59972 0.00001 1.0738-0.20505 1.4221-0.61516 0.35277-0.4101 0.52916-0.97234 0.52916-1.6867 0-0.70996-0.17639-1.27-0.52916-1.6801-0.34838-0.4145-0.82242-0.62176-1.4221-0.62177-0.59973 0.00001-1.076 0.20727-1.4288 0.62177-0.34837 0.41012-0.52255 0.97015-0.52255 1.6801 0 0.71438 0.17418 1.2766 0.52255 1.6867 0.35278 0.41011 0.82903 0.61517 1.4288 0.61516"/>
   <path id="path3051" style="" d="m233 192.45h1.3957v1.1377l-1.0848 2.1167h-0.85328l0.54239-2.1167v-1.1377"/>
   <path id="path3053" style="" d="m246.27 185.64v3.6843h3.6843v1.1245h-3.6843v3.6843h-1.1112v-3.6843h-3.6843v-1.1245h3.6843v-3.6843h1.1112"/>
   <path id="path3055" style="" d="m253.07 193.01h2.1828v-7.534l-2.3746 0.47625v-1.2171l2.3614-0.47625h1.3362v8.7511h2.1828v1.1245h-5.6886v-1.1245"/>
  </g>
 </g>
 <g id="g48" transform="translate(-1 -5.5865)">
  <path id="rect50" fill="#cfc" d="m199.23 210h71.55v40h-71.55z"/>
  <path id="rect52" d="m199.23 210h71.55v40h-71.55z" stroke="#000" stroke-width="2" fill="none"/>
  <g id="text54">
   <path id="path3060" style="" d="m211.54 224.26h1.3362v4.1738l4.4318-4.1738h1.7198l-4.9014 4.6038 5.252 5.2718h-1.7595l-4.7427-4.7559v4.7559h-1.3362v-9.8756"/>
   <path id="path3062" style="" d="m220.43 224.26h1.3362v9.8756h-1.3362v-9.8756"/>
   <path id="path3064" style="" d="m224.68 232.45h1.3957v1.6801h-1.3957v-1.6801m0-5.3248h1.3957v1.6801h-1.3957v-1.6801"/>
   <path id="path3066" style="" d="m236.61 225.57-1.8124 4.9146h3.6314l-1.819-4.9146m-0.75406-1.3163h1.5147l3.7637 9.8756h-1.3891l-0.89958-2.5334h-4.4516l-0.89958 2.5334h-1.4089l3.7703-9.8756"/>
   <path id="path3068" style="" d="m243.91 229.42v3.6182h2.1431c0.71878 0 1.2502-0.14772 1.5941-0.44318 0.34837-0.29986 0.52255-0.75626 0.52256-1.3692-0.00001-0.61736-0.17419-1.0716-0.52256-1.3626-0.34396-0.29544-0.87533-0.44317-1.5941-0.44317h-2.1431m0-4.0614v2.9766h1.9778c0.65264 0.00001 1.1377-0.12126 1.4552-0.3638 0.32191-0.24694 0.48286-0.62177 0.48287-1.1245-0.00001-0.49829-0.16096-0.87092-0.48287-1.1179-0.3175-0.24694-0.80257-0.37041-1.4552-0.37042h-1.9778m-1.3361-1.098h3.4131c1.0186 0.00001 1.8036 0.21168 2.3548 0.635 0.55121 0.42334 0.82681 1.0253 0.82682 1.8058-0.00001 0.60414-0.14112 1.0848-0.42333 1.442-0.28223 0.35719-0.69675 0.57988-1.2436 0.66807 0.65705 0.14112 1.1664 0.43657 1.528 0.88636 0.366 0.44539 0.54901 1.0032 0.54902 1.6735-0.00001 0.88195-0.29987 1.5632-0.89959 2.0439-0.59973 0.48067-1.453 0.721-2.5598 0.721h-3.5454v-9.8756"/>
   <path id="path3070" style="" d="m255.16 225.57-1.8124 4.9146h3.6314l-1.819-4.9146m-0.75407-1.3163h1.5148l3.7637 9.8756h-1.3891l-0.89959-2.5334h-4.4516l-0.89959 2.5334h-1.4089l3.7703-9.8756"/>
  </g>
 </g>
 <g id="g58" transform="translate(-1 -5.5865)">
  <path id="rect60" d="m170 170h100v80h-100z" stroke="#000" stroke-width="2" fill="none"/>
 </g>
</svg>
