<?xml version="1.0" encoding="UTF-8" standalone="no"?>
<!-- Created with Inkscape (http://www.inkscape.org/) -->
<svg id="svg2" xmlns:rdf="http://www.w3.org/1999/02/22-rdf-syntax-ns#" xmlns="http://www.w3.org/2000/svg" height="525.9" width="247.94" version="1.1" xmlns:cc="http://creativecommons.org/ns#" xmlns:dc="http://purl.org/dc/elements/1.1/" viewBox="138 48 132.95001 280.02107">
 <metadata id="metadata110">
  <rdf:RDF>
   <cc:Work rdf:about="">
    <dc:format>image/svg+xml</dc:format>
    <dc:type rdf:resource="http://purl.org/dc/dcmitype/StillImage"/>
   </cc:Work>
  </rdf:RDF>
 </metadata>
 <g id="g4" transform="translate(-1 -1.9895)">
  <path id="rect6" fill="#fff" d="m140 50h130v40h-130z"/>
  <path id="rect8" d="m140 50h130v40h-130z" stroke="#000" stroke-width="2" fill="none"/>
  <g id="text10">
   <path id="path3036" style="" d="m195.01 65.574-1.8124 4.9146h3.6314l-1.819-4.9146m-0.75406-1.3163h1.5147l3.7637 9.8756h-1.3891l-0.89959-2.5334h-4.4516l-0.89958 2.5334h-1.4089l3.7703-9.8756"/>
   <path id="path3038" style="" d="m201.08 67.982h8.4799v1.1113h-8.4799v-1.1113m0 2.6988h8.4799v1.1245h-8.4799v-1.1245"/>
   <path id="path3040" style="" d="m212.67 73.009h2.1828v-7.534l-2.3746 0.47625v-1.2171l2.3614-0.47625h1.3362v8.7511h2.1828v1.1245h-5.6886v-1.1245"/>
  </g>
 </g>
 <g id="g14" transform="translate(-1 -1.9895)">
  <path id="rect16" fill="#fff" d="m140 90h130v240h-130z"/>
  <path id="rect18" d="m140 90h130v240h-130z" stroke="#000" stroke-width="2" fill="none"/>
 </g>
 <g id="g24" transform="translate(-1 -1.9895)">
  <path id="rect26" d="m140 90h130v40h-130z" stroke="#fff" stroke-width="2" fill="none"/>
  <g id="text28">
   <path id="path3047" style="" d="m187.1 105.57-1.8124 4.9146h3.6314l-1.819-4.9146m-0.75406-1.3163h1.5147l3.7637 9.8756h-1.3891l-0.89958-2.5334h-4.4516l-0.89958 2.5334h-1.4089l3.7703-9.8756"/>
   <path id="path3049" style="" d="m201.65 107.47-6.8263 2.4276 6.8263 2.4143v1.2039l-8.4799-3.0758v-1.098l8.4799-3.0758v1.2039"/>
   <path id="path3051" style="" d="m204.76 113.01h2.1828v-7.534l-2.3746 0.47625v-1.2171l2.3614-0.47625h1.3362v8.7511h2.1828v1.1245h-5.6886v-1.1245"/>
   <path id="path3053" style="" d="m216.01 105.14c-0.68792 0.00001-1.2061 0.33956-1.5544 1.0186-0.34396 0.67469-0.51594 1.6911-0.51594 3.0493 0 1.3538 0.17198 2.3702 0.51594 3.0493 0.34836 0.67469 0.86651 1.012 1.5544 1.012 0.69232 0 1.2105-0.33734 1.5544-1.012 0.34836-0.6791 0.52255-1.6955 0.52255-3.0493 0-1.3582-0.17419-2.3746-0.52255-3.0493-0.34396-0.67909-0.86211-1.0186-1.5544-1.0186m0-1.0583c1.1068 0.00001 1.9513 0.43878 2.5334 1.3163 0.58649 0.87313 0.87973 2.1431 0.87974 3.81-0.00001 1.6625-0.29325 2.9325-0.87974 3.81-0.58209 0.87312-1.4266 1.3097-2.5334 1.3097s-1.9535-0.43657-2.54-1.3097c-0.58208-0.87754-0.87313-2.1475-0.87312-3.81-0.00001-1.6669 0.29104-2.9369 0.87312-3.81 0.58649-0.87753 1.4332-1.3163 2.54-1.3163"/>
   <path id="path3055" style="" d="m222.92 112.45h1.3428v1.6801h-1.3428v-1.6801m1.3031-0.97234h-1.2634v-1.0186c0-0.44538 0.0617-0.81139 0.18521-1.098 0.12347-0.28663 0.38364-0.61957 0.78052-0.99881l0.59531-0.5887c0.25136-0.23371 0.43215-0.45419 0.5424-0.66146 0.11465-0.20725 0.17198-0.41891 0.17198-0.635 0-0.39246-0.14552-0.70996-0.43656-0.9525-0.28664-0.24253-0.66808-0.36379-1.1443-0.3638-0.34837 0.00001-0.72099 0.0772-1.1179 0.23151-0.39247 0.15435-0.80258 0.37924-1.2303 0.67469v-1.2436c0.41451-0.25134 0.83344-0.43876 1.2568-0.56224 0.42774-0.12346 0.86872-0.1852 1.3229-0.18521 0.81139 0.00001 1.4618 0.21388 1.9513 0.64162 0.49388 0.42775 0.74083 0.9922 0.74084 1.6933-0.00001 0.33514-0.0794 0.65485-0.23813 0.95911-0.15876 0.29987-0.43657 0.63942-0.83344 1.0186l-0.58208 0.56886c-0.20727 0.20726-0.35499 0.37042-0.44318 0.48948-0.0838 0.11465-0.14332 0.2271-0.1786 0.33734-0.0265 0.0926-0.0463 0.20506-0.0595 0.33735s-0.0199 0.31309-0.0198 0.54239v0.8136"/>
  </g>
 </g>
 <g id="g32" transform="translate(-1 -1.9895)">
  <path id="rect34" d="m140 90h130v240h-130z" stroke="#000" stroke-width="2" fill="none"/>
 </g>
 <g id="g40" transform="translate(-1 -1.9895)">
  <path id="rect42" fill="#ccf" d="m170 130h100v40h-100z"/>
  <path id="rect44" d="m170 130h100v40h-100z" stroke="#000" stroke-width="2" fill="none"/>
  <g id="text46">
   <path id="path3062" style="" d="m208.03 149.42v3.6182h2.1431c0.71878 0 1.2502-0.14772 1.5941-0.44318 0.34836-0.29986 0.52254-0.75626 0.52255-1.3692-0.00001-0.61736-0.17419-1.0716-0.52255-1.3626-0.34397-0.29544-0.87534-0.44317-1.5941-0.44317h-2.1431m0-4.0614v2.9766h1.9778c0.65264 0.00001 1.1377-0.12126 1.4552-0.3638 0.3219-0.24694 0.48286-0.62177 0.48286-1.1245 0-0.49829-0.16096-0.87092-0.48286-1.1179-0.31751-0.24694-0.80258-0.37041-1.4552-0.37042h-1.9778m-1.3362-1.098h3.4131c1.0186 0.00001 1.8036 0.21168 2.3548 0.635 0.55121 0.42334 0.82682 1.0253 0.82683 1.8058-0.00001 0.60414-0.14112 1.0848-0.42334 1.442-0.28223 0.35719-0.69674 0.57988-1.2435 0.66807 0.65704 0.14112 1.1664 0.43657 1.528 0.88636 0.366 0.44539 0.549 1.0032 0.54901 1.6735-0.00001 0.88195-0.29987 1.5632-0.89958 2.0439-0.59973 0.48067-1.453 0.721-2.5598 0.721h-3.5454v-9.8756"/>
   <path id="path3064" style="" d="m216.09 147.98h8.4799v1.1112h-8.4799v-1.1112m0 2.6988h8.4799v1.1245h-8.4799v-1.1245"/>
   <path id="path3066" style="" d="m230.31 145.14c-0.68792 0.00001-1.2061 0.33956-1.5544 1.0186-0.34396 0.6747-0.51594 1.6911-0.51594 3.0493 0 1.3538 0.17198 2.3702 0.51594 3.0493 0.34837 0.67469 0.86651 1.012 1.5544 1.012 0.69232 0 1.2105-0.33734 1.5544-1.012 0.34836-0.6791 0.52255-1.6955 0.52255-3.0493 0-1.3582-0.17419-2.3746-0.52255-3.0493-0.34396-0.67909-0.86211-1.0186-1.5544-1.0186m0-1.0583c1.1068 0.00001 1.9513 0.43878 2.5334 1.3163 0.58649 0.87313 0.87974 2.1431 0.87974 3.81 0 1.6625-0.29325 2.9325-0.87974 3.81-0.58209 0.87313-1.4266 1.3097-2.5334 1.3097s-1.9535-0.43656-2.54-1.3097c-0.58208-0.87754-0.87312-2.1475-0.87312-3.81 0-1.6669 0.29104-2.9369 0.87312-3.81 0.5865-0.87753 1.4332-1.3163 2.54-1.3163"/>
  </g>
 </g>
 <g id="g50" transform="translate(-1 -1.9895)">
  <path id="rect52" fill="#ccf" d="m170 170h100v120h-100z"/>
  <path id="rect54" d="m170 170h100v120h-100z" stroke="#000" stroke-width="2" fill="none"/>
 </g>
 <g id="g60" transform="translate(-1 -1.9895)">
  <path id="rect62" d="m170 170h100v40h-100z" stroke="#ccf" stroke-width="2" fill="none"/>
  <g id="text64">
   <path id="path3073" style="" d="m200.12 189.42v3.6182h2.1431c0.71878 0 1.2502-0.14772 1.5941-0.44318 0.34836-0.29986 0.52254-0.75626 0.52255-1.3692-0.00001-0.61736-0.17419-1.0716-0.52255-1.3626-0.34397-0.29544-0.87534-0.44317-1.5941-0.44317h-2.1431m0-4.0614v2.9766h1.9778c0.65264 0.00001 1.1377-0.12126 1.4552-0.3638 0.3219-0.24694 0.48286-0.62177 0.48286-1.1245 0-0.49829-0.16096-0.87092-0.48286-1.1179-0.31751-0.24694-0.80258-0.37041-1.4552-0.37042h-1.9778m-1.3362-1.098h3.4131c1.0186 0.00001 1.8036 0.21168 2.3548 0.635 0.55121 0.42334 0.82682 1.0253 0.82683 1.8058-0.00001 0.60414-0.14112 1.0848-0.42334 1.442-0.28223 0.35719-0.69674 0.57988-1.2435 0.66807 0.65704 0.14112 1.1664 0.43657 1.528 0.88636 0.366 0.44539 0.549 1.0032 0.54901 1.6735-0.00001 0.88195-0.29987 1.5632-0.89958 2.0439-0.59974 0.48067-1.453 0.721-2.5598 0.721h-3.5454v-9.8756"/>
   <path id="path3075" style="" d="m216.66 187.47-6.8263 2.4276 6.8263 2.4143v1.2038l-8.4799-3.0758v-1.098l8.4799-3.0758v1.2039"/>
   <path id="path3077" style="" d="m219.78 193.01h2.1828v-7.534l-2.3746 0.47625v-1.2171l2.3614-0.47625h1.3362v8.7511h2.1828v1.1245h-5.6886v-1.1245"/>
   <path id="path3079" style="" d="m231.03 185.14c-0.68792 0.00001-1.2061 0.33956-1.5544 1.0186-0.34396 0.6747-0.51594 1.6911-0.51594 3.0493 0 1.3538 0.17198 2.3702 0.51594 3.0493 0.34836 0.67469 0.86651 1.012 1.5544 1.012 0.69232 0 1.2105-0.33734 1.5544-1.012 0.34836-0.6791 0.52255-1.6955 0.52255-3.0493 0-1.3582-0.17419-2.3746-0.52255-3.0493-0.34397-0.67909-0.86211-1.0186-1.5544-1.0186m0-1.0583c1.1068 0.00001 1.9513 0.43878 2.5334 1.3163 0.58649 0.87313 0.87973 2.1431 0.87974 3.81-0.00001 1.6625-0.29325 2.9325-0.87974 3.81-0.58209 0.87313-1.4266 1.3097-2.5334 1.3097s-1.9535-0.43656-2.54-1.3097c-0.58208-0.87754-0.87313-2.1475-0.87312-3.81-0.00001-1.6669 0.29104-2.9369 0.87312-3.81 0.58649-0.87753 1.4332-1.3163 2.54-1.3163"/>
   <path id="path3081" style="" d="m237.93 192.45h1.3428v1.6801h-1.3428v-1.6801m1.3031-0.97235h-1.2634v-1.0186c0-0.44538 0.0617-0.81138 0.18521-1.098 0.12347-0.28663 0.38364-0.61956 0.78052-0.99881l0.59531-0.58869c0.25135-0.23371 0.43215-0.4542 0.5424-0.66146 0.11465-0.20725 0.17198-0.41892 0.17198-0.63501 0-0.39245-0.14552-0.70995-0.43656-0.9525-0.28664-0.24252-0.66808-0.36379-1.1443-0.3638-0.34837 0.00001-0.72099 0.0772-1.1179 0.23151-0.39246 0.15435-0.80257 0.37925-1.2303 0.67469v-1.2436c0.41451-0.25134 0.83344-0.43875 1.2568-0.56224 0.42774-0.12346 0.86872-0.1852 1.3229-0.18521 0.81139 0.00001 1.4618 0.21389 1.9513 0.64162 0.49388 0.42775 0.74083 0.9922 0.74083 1.6933 0 0.33515-0.0794 0.65485-0.23812 0.95912-0.15876 0.29986-0.43657 0.63941-0.83344 1.0186l-0.58208 0.56886c-0.20727 0.20726-0.35499 0.37042-0.44318 0.48948-0.0838 0.11466-0.14332 0.2271-0.1786 0.33734-0.0265 0.0926-0.0463 0.20506-0.0595 0.33735s-0.0198 0.31309-0.0198 0.5424v0.81359"/>
  </g>
 </g>
 <g id="g68" transform="translate(-1 -1.9895)">
  <path id="rect70" fill="#cfc" d="m199.23 210h71.55v40h-71.55z"/>
  <path id="rect72" d="m199.23 210h71.55v40h-71.55z" stroke="#000" stroke-width="2" fill="none"/>
  <g id="text74">
   <path id="path3086" style="" d="m211.54 224.26h1.3362v4.1738l4.4318-4.1738h1.7198l-4.9014 4.6038 5.252 5.2718h-1.7595l-4.7427-4.7559v4.7559h-1.3362v-9.8756"/>
   <path id="path3088" style="" d="m220.43 224.26h1.3362v9.8756h-1.3362v-9.8756"/>
   <path id="path3090" style="" d="m224.68 232.45h1.3957v1.6801h-1.3957v-1.6801m0-5.3248h1.3957v1.6801h-1.3957v-1.6801"/>
   <path id="path3092" style="" d="m236.61 225.57-1.8124 4.9146h3.6314l-1.819-4.9146m-0.75406-1.3163h1.5147l3.7637 9.8756h-1.3891l-0.89958-2.5334h-4.4516l-0.89958 2.5334h-1.4089l3.7703-9.8756"/>
   <path id="path3094" style="" d="m243.91 229.42v3.6182h2.1431c0.71878 0 1.2502-0.14772 1.5941-0.44318 0.34837-0.29986 0.52255-0.75626 0.52256-1.3692-0.00001-0.61736-0.17419-1.0716-0.52256-1.3626-0.34396-0.29544-0.87533-0.44317-1.5941-0.44317h-2.1431m0-4.0614v2.9766h1.9778c0.65264 0.00001 1.1377-0.12126 1.4552-0.3638 0.32191-0.24694 0.48286-0.62177 0.48287-1.1245-0.00001-0.49829-0.16096-0.87092-0.48287-1.1179-0.3175-0.24694-0.80257-0.37041-1.4552-0.37042h-1.9778m-1.3361-1.098h3.4131c1.0186 0.00001 1.8036 0.21168 2.3548 0.635 0.55121 0.42334 0.82681 1.0253 0.82682 1.8058-0.00001 0.60414-0.14112 1.0848-0.42333 1.442-0.28223 0.35719-0.69675 0.57988-1.2436 0.66807 0.65705 0.14112 1.1664 0.43657 1.528 0.88636 0.366 0.44539 0.54901 1.0032 0.54902 1.6735-0.00001 0.88195-0.29987 1.5632-0.89959 2.0439-0.59973 0.48067-1.453 0.721-2.5598 0.721h-3.5454v-9.8756"/>
   <path id="path3096" style="" d="m255.16 225.57-1.8124 4.9146h3.6314l-1.819-4.9146m-0.75407-1.3163h1.5148l3.7637 9.8756h-1.3891l-0.89959-2.5334h-4.4516l-0.89959 2.5334h-1.4089l3.7703-9.8756"/>
  </g>
 </g>
 <g id="g78" transform="translate(-1 -1.9895)">
  <path id="rect80" fill="#ccf" d="m199.05 250h71.9v40h-71.9z"/>
  <path id="rect82" d="m199.05 250h71.9v40h-71.9z" stroke="#000" stroke-width="2" fill="none"/>
  <g id="text84">
   <path id="path3101" style="" d="m212.72 269.42v3.6182h2.1431c0.71879 0 1.2502-0.14772 1.5941-0.44318 0.34837-0.29986 0.52255-0.75626 0.52256-1.3692-0.00001-0.61736-0.17419-1.0716-0.52256-1.3626-0.34396-0.29544-0.87533-0.44317-1.5941-0.44317h-2.1431m0-4.0614v2.9766h1.9778c0.65264 0.00001 1.1377-0.12126 1.4552-0.3638 0.32191-0.24694 0.48286-0.62177 0.48287-1.1245-0.00001-0.49829-0.16096-0.87092-0.48287-1.1179-0.3175-0.24694-0.80257-0.37041-1.4552-0.37042h-1.9778m-1.3361-1.098h3.4131c1.0186 0.00001 1.8036 0.21168 2.3548 0.635 0.55121 0.42334 0.82681 1.0253 0.82682 1.8058-0.00001 0.60414-0.14112 1.0848-0.42333 1.442-0.28223 0.35719-0.69675 0.57988-1.2436 0.66807 0.65705 0.14112 1.1664 0.43657 1.528 0.88636 0.366 0.44539 0.54901 1.0032 0.54902 1.6735-0.00001 0.88195-0.29987 1.5632-0.89959 2.0439-0.59973 0.48067-1.453 0.721-2.5598 0.721h-3.5454v-9.8756"/>
   <path id="path3103" style="" d="m220.77 267.98h8.4799v1.1112h-8.4799v-1.1112m0 2.6988h8.4799v1.1245h-8.4799v-1.1245"/>
   <path id="path3105" style="" d="m233.35 269.42v3.6182h2.1431c0.71878 0 1.2502-0.14772 1.5941-0.44318 0.34837-0.29986 0.52255-0.75626 0.52256-1.3692-0.00001-0.61736-0.17419-1.0716-0.52256-1.3626-0.34396-0.29544-0.87533-0.44317-1.5941-0.44317h-2.1431m0-4.0614v2.9766h1.9778c0.65264 0.00001 1.1377-0.12126 1.4552-0.3638 0.32191-0.24694 0.48286-0.62177 0.48287-1.1245-0.00001-0.49829-0.16096-0.87092-0.48287-1.1179-0.3175-0.24694-0.80257-0.37041-1.4552-0.37042h-1.9778m-1.3362-1.098h3.4131c1.0186 0.00001 1.8036 0.21168 2.3548 0.635 0.55121 0.42334 0.82681 1.0253 0.82682 1.8058-0.00001 0.60414-0.14112 1.0848-0.42333 1.442-0.28223 0.35719-0.69675 0.57988-1.2436 0.66807 0.65705 0.14112 1.1664 0.43657 1.528 0.88636 0.366 0.44539 0.54901 1.0032 0.54902 1.6735-0.00001 0.88195-0.29987 1.5632-0.89959 2.0439-0.59973 0.48067-1.453 0.721-2.5598 0.721h-3.5454v-9.8756"/>
   <path id="path3107" style="" d="m246.21 265.64v3.6843h3.6843v1.1245h-3.6843v3.6843h-1.1112v-3.6843h-3.6843v-1.1245h3.6843v-3.6843h1.1112"/>
   <path id="path3109" style="" d="m253 273.01h2.1828v-7.534l-2.3746 0.47625v-1.2171l2.3614-0.47625h1.3362v8.7511h2.1828v1.1245h-5.6886v-1.1245"/>
  </g>
 </g>
 <g id="g88" transform="translate(-1 -1.9895)">
  <path id="rect90" d="m170 170h100v120h-100z" stroke="#000" stroke-width="2" fill="none"/>
 </g>
 <g id="g96" transform="translate(-1 -1.9895)">
  <path id="rect98" fill="#fff" d="m170 290h100v40h-100z"/>
  <path id="rect100" d="m170 290h100v40h-100z" stroke="#000" stroke-width="2" fill="none"/>
  <g id="text102">
   <path id="path3116" style="" d="m199.71 305.57-1.8124 4.9146h3.6314l-1.819-4.9146m-0.75407-1.3163h1.5148l3.7637 9.8756h-1.3891l-0.89959-2.5334h-4.4516l-0.89959 2.5334h-1.4089l3.7703-9.8756"/>
   <path id="path3118" style="" d="m205.77 307.98h8.4799v1.1112h-8.4799v-1.1112m0 2.6988h8.4799v1.1245h-8.4799v-1.1245"/>
   <path id="path3120" style="" d="m220.32 305.57-1.8124 4.9146h3.6314l-1.819-4.9146m-0.75406-1.3163h1.5147l3.7637 9.8756h-1.3891l-0.89958-2.5334h-4.4516l-0.89959 2.5334h-1.4089l3.7703-9.8756"/>
   <path id="path3122" style="" d="m231.18 305.64v3.6843h3.6843v1.1245h-3.6843v3.6843h-1.1112v-3.6843h-3.6843v-1.1245h3.6843v-3.6843h1.1112"/>
   <path id="path3124" style="" d="m237.98 313.01h2.1828v-7.534l-2.3746 0.47625v-1.2171l2.3614-0.47625h1.3362v8.7511h2.1828v1.1245h-5.6886v-1.1245"/>
  </g>
 </g>
</svg>
