<?xml version="1.0" encoding="UTF-8" standalone="no"?>
<!-- Created with Inkscape (http://www.inkscape.org/) -->
<svg id="svg2" xmlns:rdf="http://www.w3.org/1999/02/22-rdf-syntax-ns#" xmlns="http://www.w3.org/2000/svg" height="496.06" width="306.73" version="1.1" xmlns:cc="http://creativecommons.org/ns#" xmlns:dc="http://purl.org/dc/elements/1.1/" viewBox="138 -31 156.77863 262">
 <metadata id="metadata114">
  <rdf:RDF>
   <cc:Work rdf:about="">
    <dc:format>image/svg+xml</dc:format>
    <dc:type rdf:resource="http://purl.org/dc/dcmitype/StillImage"/>
   </cc:Work>
  </rdf:RDF>
 </metadata>
 <g id="g4" transform="translate(-3.6107)">
  <path id="rect6" fill="#fff" d="m140 90h160v120h-160z"/>
  <path id="rect8" d="m140 90h160v120h-160z" stroke="#000" stroke-width="2" fill="none"/>
 </g>
 <g id="g14" transform="translate(-3.6107)">
  <path id="rect16" d="m140 90h160v40h-160z" stroke="#fff" stroke-width="2" fill="none"/>
  <g id="text18">
   <path id="path3040" style="" d="m202.62 104.26h1.4354l2.454 3.6711 2.4672-3.6711h1.4354l-3.175 4.7427 3.3867 5.1329h-1.4354l-2.7781-4.2003-2.798 4.2003h-1.442l3.5256-5.2718-3.0758-4.6038"/>
   <path id="path3042" style="" d="m212.49 107.41v-1.1642l8.4799 2.4276v1.1245l-8.4799 2.4342v-1.1774l6.3566-1.8124-6.3566-1.8322m8.4799 5.596v1.1245h-8.4799v-1.1245h8.4799"/>
   <path id="path3044" style="" d="m224.09 113.01h2.1828v-7.534l-2.3746 0.47625v-1.2171l2.3614-0.47625h1.3362v8.7511h2.1828v1.1245h-5.6886v-1.1245"/>
   <path id="path3046" style="" d="m233.62 112.45h1.3428v1.6801h-1.3428v-1.6801m1.3031-0.97234h-1.2634v-1.0186c0-0.44538 0.0617-0.81139 0.18521-1.098 0.12347-0.28663 0.38364-0.61957 0.78052-0.99881l0.59531-0.5887c0.25135-0.23371 0.43215-0.45419 0.5424-0.66146 0.11465-0.20725 0.17198-0.41891 0.17198-0.635 0-0.39246-0.14552-0.70996-0.43656-0.9525-0.28664-0.24253-0.66808-0.36379-1.1443-0.3638-0.34837 0.00001-0.72099 0.0772-1.1179 0.23151-0.39246 0.15435-0.80257 0.37924-1.2303 0.67469v-1.2436c0.41451-0.25134 0.83344-0.43876 1.2568-0.56224 0.42774-0.12346 0.86872-0.1852 1.3229-0.18521 0.81139 0.00001 1.4618 0.21388 1.9513 0.64162 0.49388 0.42775 0.74083 0.9922 0.74083 1.6933 0 0.33514-0.0794 0.65485-0.23812 0.95911-0.15876 0.29987-0.43657 0.63942-0.83344 1.0186l-0.58208 0.56886c-0.20727 0.20726-0.35499 0.37042-0.44318 0.48948-0.0838 0.11465-0.14332 0.2271-0.1786 0.33734-0.0265 0.0926-0.0463 0.20506-0.0595 0.33735s-0.0199 0.31309-0.0198 0.54239v0.8136"/>
  </g>
 </g>
 <g id="g22" transform="translate(-3.6107)">
  <path id="rect24" fill="#fff" d="m180 130h120v50h-120z"/>
  <path id="rect26" d="m180 130h120v50h-120z" stroke="#000" stroke-width="2" fill="none"/>
  <g id="text28">
   <path id="path3051" style="" d="m222.2 149.26h1.3362v4.1738l4.4318-4.1738h1.7198l-4.9014 4.6038 5.252 5.2718h-1.7595l-4.7427-4.7559v4.7559h-1.3362v-9.8756"/>
   <path id="path3053" style="" d="m231.09 149.26h1.3362v9.8756h-1.3362v-9.8756"/>
   <path id="path3055" style="" d="m235.34 157.45h1.3957v1.6801h-1.3957v-1.6801m0-5.3248h1.3957v1.6801h-1.3957v-1.6801"/>
   <path id="path3057" style="" d="m245.07 149.26v3.6711h-1.1245v-3.6711h1.1245m2.5003 0v3.6711h-1.1245v-3.6711h1.1245"/>
   <path id="path3059" style="" d="m250.22 149.26h1.3362v9.8756h-1.3362v-9.8756"/>
   <path id="path3061" style="" d="m255.31 149.26v3.6711h-1.1245v-3.6711h1.1245m2.5003 0v3.6711h-1.1245v-3.6711h1.1245"/>
  </g>
 </g>
 <g id="g32" transform="translate(-3.6107)">
  <path id="rect34" fill="#fff" d="m180 170h120v40h-120z"/>
  <path id="rect36" d="m180 170h120v40h-120z" stroke="#000" stroke-width="2" fill="none"/>
  <g id="text38">
   <path id="path3066" style="" d="m219.47 184.26h1.4354l2.454 3.6711 2.4672-3.6711h1.4354l-3.175 4.7427 3.3867 5.1329h-1.4354l-2.7781-4.2003-2.798 4.2003h-1.442l3.5256-5.2718-3.0758-4.6038"/>
   <path id="path3068" style="" d="m229.34 187.98h8.4799v1.1112h-8.4799v-1.1112m0 2.6988h8.4799v1.1245h-8.4799v-1.1245"/>
   <path id="path3070" style="" d="m240.11 184.26h1.4354l2.454 3.6711 2.4672-3.6711h1.4354l-3.175 4.7427 3.3867 5.1329h-1.4354l-2.7781-4.2003-2.798 4.2003h-1.442l3.5256-5.2718-3.0758-4.6038"/>
   <path id="path3072" style="" d="m248.53 189.88h3.5653v1.0848h-3.5653v-1.0848"/>
   <path id="path3074" style="" d="m254.44 193.01h2.1828v-7.534l-2.3746 0.47625v-1.2171l2.3614-0.47625h1.3362v8.7511h2.1828v1.1245h-5.6886v-1.1245"/>
  </g>
 </g>
 <g id="g42" transform="translate(-3.6107)">
  <path id="rect44" d="m140 90h160v120h-160z" stroke="#000" stroke-width="2" fill="none"/>
 </g>
 <path id="line50" d="m136.39 230v-20" stroke="#000" stroke-width="2" fill="none"/>
 <path id="line52" d="m296.39 230v-20" stroke="#000" stroke-width="2" fill="none"/>
 <g id="g54" transform="translate(-3.6107)">
  <path id="rect56" fill="#fff" d="m220 30h80v60h-80z"/>
  <path id="rect58" d="m220 30h80v60h-80z" stroke="#000" stroke-width="2" fill="none"/>
 </g>
 <g id="g64" transform="translate(-3.6107)">
  <path id="rect66" fill="#fff" d="m140 30h80v30h-80z"/>
  <path id="rect68" d="m140 30h80v30h-80z" stroke="#000" stroke-width="2" fill="none"/>
  <g id="text70">
   <path id="path3086" style="" d="m157.57 39.258h1.3362v4.1738l4.4318-4.1738h1.7198l-4.9014 4.6038 5.252 5.2718h-1.7595l-4.7427-4.7559v4.7559h-1.3362v-9.8756"/>
   <path id="path3088" style="" d="m166.46 39.258h1.3362v9.8756h-1.3362v-9.8756"/>
   <path id="path3090" style="" d="m170.71 47.453h1.3957v1.6801h-1.3957v-1.6801m0-5.3248h1.3957v1.6801h-1.3957v-1.6801"/>
   <path id="path3092" style="" d="m180.44 39.258v3.6711h-1.1245v-3.6711h1.1245m2.5003 0v3.6711h-1.1245v-3.6711h1.1245"/>
   <path id="path3094" style="" d="m185.59 39.258h1.3362v9.8756h-1.3362v-9.8756"/>
   <path id="path3096" style="" d="m192.13 49.133-3.7703-9.8756h1.3957l3.1287 8.3146 3.1353-8.3146h1.3891l-3.7637 9.8756h-1.5148"/>
   <path id="path3098" style="" d="m199.94 39.258v3.6711h-1.1245v-3.6711h1.1245m2.5003 0v3.6711h-1.1245v-3.6711h1.1245"/>
  </g>
 </g>
 <g id="g74" transform="translate(-3.6107)">
  <path id="rect76" fill="#fff" d="m140-10h160v40h-160z"/>
  <path id="rect78" d="m140-10h160v40h-160z" stroke="#000" stroke-width="2" fill="none"/>
  <g id="text80">
   <path id="path3103" style="" d="m202.62 4.2577h1.4354l2.454 3.6711 2.4672-3.6711h1.4354l-3.175 4.7427 3.3867 5.1329h-1.4354l-2.7781-4.2003-2.798 4.2003h-1.442l3.5256-5.2718-3.0758-4.6038"/>
   <path id="path3105" style="" d="m212.49 7.4129v-1.1642l8.4799 2.4276v1.1245l-8.4799 2.4342v-1.1774l6.3566-1.8124-6.3566-1.8322m8.4799 5.596v1.1245h-8.4799v-1.1245h8.4799"/>
   <path id="path3107" style="" d="m227.53 5.4219-3.3734 5.2718h3.3734v-5.2718m-0.35057-1.1642h1.6801v6.436h1.4089v1.1113h-1.4089v2.3283h-1.3295v-2.3283h-4.4582v-1.2898l4.1077-6.2574"/>
   <path id="path3109" style="" d="m233.62 12.453h1.3428v1.6801h-1.3428v-1.6801m1.3031-0.97235h-1.2634v-1.0186c0-0.44538 0.0617-0.81139 0.18521-1.098 0.12347-0.28663 0.38364-0.61956 0.78052-0.9988l0.59531-0.5887c0.25135-0.23371 0.43215-0.4542 0.5424-0.66146 0.11465-0.20725 0.17198-0.41892 0.17198-0.635 0-0.39246-0.14552-0.70996-0.43656-0.9525-0.28664-0.24253-0.66808-0.36379-1.1443-0.3638-0.34837 0.0000089-0.72099 0.077179-1.1179 0.23151-0.39246 0.15435-0.80257 0.37925-1.2303 0.67469v-1.2435c0.41451-0.25135 0.83344-0.43876 1.2568-0.56224 0.42774-0.12346 0.86872-0.1852 1.3229-0.18521 0.81139 0.00001 1.4618 0.21388 1.9513 0.64162 0.49388 0.42775 0.74083 0.9922 0.74083 1.6933 0 0.33515-0.0794 0.65485-0.23812 0.95912-0.15876 0.29987-0.43657 0.63942-0.83344 1.0186l-0.58208 0.56886c-0.20727 0.20726-0.35499 0.37042-0.44318 0.48948-0.0838 0.11466-0.14332 0.22711-0.1786 0.33734-0.0265 0.092609-0.0463 0.20506-0.0595 0.33734-0.0132 0.1323-0.0199 0.31309-0.0198 0.5424v0.8136"/>
  </g>
 </g>
 <path id="line84" d="m136.39-10 40 40" stroke="#000" stroke-width="2" fill="none"/>
 <path id="line86" d="m296.39-10-40 40" stroke="#000" stroke-width="2" fill="none"/>
 <g id="text88">
  <path id="path3114" style="" d="m147.79 12.592h1.2171v7.4084h-1.2171v-7.4084m0-2.884h1.2171v1.5412h-1.2171v-1.5412"/>
 </g>
 <g id="text92">
  <path id="path3117" style="" d="m287.52 15.529v4.4715h-1.2171v-4.4318c-0.00001-0.70114-0.13671-1.2259-0.41011-1.5743-0.27341-0.34836-0.68351-0.52255-1.2303-0.52255-0.65706 0.000007-1.1752 0.20947-1.5544 0.62839-0.37924 0.41893-0.56886 0.98999-0.56886 1.7132v4.187h-1.2237v-7.4084h1.2237v1.1509c0.29104-0.44538 0.63279-0.77831 1.0253-0.9988 0.39687-0.22048 0.85328-0.33072 1.3692-0.33073 0.85108 0.000007 1.4949 0.26459 1.9315 0.79375 0.43655 0.52476 0.65484 1.2987 0.65484 2.3217"/>
 </g>
 <path id="line96" d="m136.39-30v20" stroke="#000" stroke-width="2" fill="none"/>
 <path id="line98" d="m296.39-30v20" stroke="#000" stroke-width="2" fill="none"/>
 <g id="g100" transform="translate(-3.6107)">
  <path id="rect102" fill="#fff" d="m140 60h80v30h-80z"/>
  <path id="rect104" d="m140 60h80v30h-80z" stroke="#000" stroke-width="2" fill="none"/>
  <g id="text106">
   <path id="path3124" style="" d="m159.47 69.258h1.4354l2.454 3.6711 2.4672-3.6711h1.4354l-3.175 4.7427 3.3867 5.1329h-1.4354l-2.7781-4.2003-2.798 4.2003h-1.442l3.5256-5.2718-3.0758-4.6038"/>
   <path id="path3126" style="" d="m169.34 72.982h8.4799v1.1113h-8.4799v-1.1113m0 2.6988h8.4799v1.1245h-8.4799v-1.1245"/>
   <path id="path3128" style="" d="m180.11 69.258h1.4354l2.454 3.6711 2.4672-3.6711h1.4354l-3.175 4.7427 3.3867 5.1329h-1.4354l-2.7781-4.2003-2.798 4.2003h-1.442l3.5256-5.2718-3.0758-4.6038"/>
   <path id="path3130" style="" d="m188.53 74.88h3.5653v1.0848h-3.5653v-1.0848"/>
   <path id="path3132" style="" d="m197.88 70.422-3.3734 5.2718h3.3734v-5.2718m-0.35057-1.1642h1.6801v6.436h1.4089v1.1113h-1.4089v2.3283h-1.3295v-2.3283h-4.4582v-1.2898l4.1077-6.2574"/>
  </g>
 </g>
</svg>
