<?xml version="1.0" encoding="UTF-8" standalone="no"?>
<svg id="svg2" xmlns:rdf="http://www.w3.org/1999/02/22-rdf-syntax-ns#" xmlns="http://www.w3.org/2000/svg" viewBox="278 98 158.98524 202.00001" height="10.946cm" width="8.7783cm" version="1.1" xmlns:cc="http://creativecommons.org/ns#" xmlns:dc="http://purl.org/dc/elements/1.1/">
 <metadata id="metadata66">
  <rdf:RDF>
   <cc:Work rdf:about="">
    <dc:format>image/svg+xml</dc:format>
    <dc:type rdf:resource="http://purl.org/dc/dcmitype/StillImage"/>
   </cc:Work>
  </rdf:RDF>
 </metadata>
 <g id="g4" transform="translate(-2.5074 -1)">
  <path id="rect6" fill="#fdfd04" d="m360 100h40v40h-40z"/>
  <path id="rect8" d="m360 100h40v40h-40z" stroke="#000" stroke-width="2" fill="none"/>
 </g>
 <g id="text10">
  <path id="path39" style="" d="m378.6 111.39v7.3686h7.3686v2.249h-7.3686v7.3686h-2.2225v-7.3686h-7.3686v-2.249h7.3686v-7.3686h2.2225z"/>
 </g>
 <g id="g14" transform="translate(-2.5074 -1)">
  <path id="rect16" fill="#7babe3" d="m400 180h40v40h-40z"/>
  <path id="rect18" d="m400 180h40v40h-40z" stroke="#000" stroke-width="2" fill="none"/>
 </g>
 <g id="text20">
  <path id="path44" style="" d="m417.48 199q-1.905 0-3.003 1.0186-1.0848 1.0186-1.0848 2.8046 0 1.7859 1.0848 2.8046 1.098 1.0186 3.003 1.0186t3.003-1.0186q1.098-1.0319 1.098-2.8046 0-1.7859-1.098-2.8046-1.0848-1.0186-3.003-1.0186zm-2.6723-1.1377q-1.7198-0.42334-2.6855-1.6007-0.9525-1.1774-0.9525-2.8707 0-2.368 1.6801-3.7438 1.6933-1.3758 4.6302-1.3758 2.9501 0 4.6302 1.3758t1.6801 3.7438q0 1.6933-0.96573 2.8707-0.9525 1.1774-2.6591 1.6007 1.9315 0.44979 3.003 1.7595 1.0848 1.3097 1.0848 3.2015 0 2.8707-1.7595 4.4053-1.7462 1.5346-5.0138 1.5346t-5.0271-1.5346q-1.7462-1.5346-1.7462-4.4053 0-1.8918 1.0848-3.2015t3.0162-1.7595zm-0.97896-4.2201q0 1.5346 0.9525 2.3945 0.96573 0.8599 2.6988 0.8599 1.7198 0 2.6855-0.8599 0.97896-0.85989 0.97896-2.3945t-0.97896-2.3945q-0.96572-0.85989-2.6855-0.85989-1.733 0-2.6988 0.85989-0.9525 0.8599-0.9525 2.3945z"/>
 </g>
 <g id="g24" transform="translate(-2.5074 -1)">
  <path id="rect26" fill="#fdfd04" d="m320 180h40v40h-40z"/>
  <path id="rect28" d="m320 180h40v40h-40z" stroke="#000" stroke-width="2" fill="none"/>
 </g>
 <g id="text30">
  <path id="path49" style="" d="m343.46 191.88-4.7493 2.5664 4.7493 2.5797-0.76729 1.2965-4.445-2.6855v4.9874h-1.5081v-4.9874l-4.445 2.6855-0.76729-1.2965 4.7493-2.5797-4.7493-2.5664 0.76729-1.3097 4.445 2.6855v-4.9874h1.5081v4.9874l4.445-2.6855 0.76729 1.3097z"/>
 </g>
 <g id="g34" transform="translate(-2.5074 -1)">
  <path id="rect36" fill="#7babe3" d="m280 260h40v40h-40z"/>
  <path id="rect38" d="m280 260h40v40h-40z" stroke="#000" stroke-width="2" fill="none"/>
 </g>
 <g id="text40">
  <path id="path54" style="" d="m299.86 277.73q1.9182 0.41011 2.9898 1.7066 1.0848 1.2965 1.0848 3.2015 0 2.9236-2.0108 4.5244-2.0108 1.6007-5.715 1.6007-1.2435 0-2.5665-0.25136-1.3097-0.23812-2.712-0.7276v-2.5797q1.1112 0.64823 2.4342 0.97896 1.3229 0.33073 2.7649 0.33073 2.5135 0 3.8232-0.99219 1.3229-0.99218 1.3229-2.884 0-1.7462-1.2303-2.7252-1.2171-0.99218-3.3999-0.99218h-2.3019v-2.196h2.4077q1.9712 0 3.0162-0.78052 1.0451-0.79375 1.0451-2.2754 0-1.5214-1.0848-2.3283-1.0716-0.8202-3.0824-0.8202-1.098 0-2.3548 0.23812-1.2568 0.23813-2.7649 0.74083v-2.3812q1.5214-0.42334 2.8443-0.635 1.3361-0.21167 2.5135-0.21167 3.0427 0 4.8154 1.3891 1.7727 1.3758 1.7727 3.7306 0 1.6404-0.93927 2.7781-0.93927 1.1245-2.6723 1.561z"/>
 </g>
 <g id="g44" transform="translate(-2.5074 -1)">
  <path id="rect46" fill="#7babe3" d="m360 260h40v40h-40z"/>
  <path id="rect48" d="m360 260h40v40h-40z" stroke="#000" stroke-width="2" fill="none"/>
 </g>
 <g id="text50">
  <path id="path59" style="" d="m384.35 273.56-5.3578 7.2099 5.6356 7.6068h-2.8707l-4.3127-5.8208-4.3127 5.8208h-2.8707l5.7547-7.7523-5.2652-7.0644h2.8707l3.9291 5.2784 3.9291-5.2784h2.8707z"/>
 </g>
 <path id="line54" d="m327 219.98-19.024 38.046" stroke="#000" stroke-width="2" fill="none"/>
 <path id="line56" d="m367 258.02-19.024-38.046" stroke="#000" stroke-width="2" fill="none"/>
 <path id="line58" d="m347.98 178.02 19.024-38.046" stroke="#000" stroke-width="2" fill="none"/>
 <path id="line60" d="m387.98 139.98 19.024 38.046" stroke="#000" stroke-width="2" fill="none"/>
</svg>
