<?xml version="1.0" encoding="UTF-8" standalone="no"?>
<svg id="svg2" xmlns:rdf="http://www.w3.org/1999/02/22-rdf-syntax-ns#" xmlns="http://www.w3.org/2000/svg" viewBox="278 178 158.98524 202.00001" height="10.946cm" width="8.7783cm" version="1.1" xmlns:cc="http://creativecommons.org/ns#" xmlns:dc="http://purl.org/dc/elements/1.1/">
 <metadata id="metadata66">
  <rdf:RDF>
   <cc:Work rdf:about="">
    <dc:format>image/svg+xml</dc:format>
    <dc:type rdf:resource="http://purl.org/dc/dcmitype/StillImage"/>
   </cc:Work>
  </rdf:RDF>
 </metadata>
 <g id="g4" transform="translate(-2.5074 -1)">
  <path id="rect6" fill="#fdfd04" d="m360 260h40v40h-40z"/>
  <path id="rect8" d="m360 260h40v40h-40z" stroke="#000" stroke-width="2" fill="none"/>
 </g>
 <g id="text10">
  <path id="path39" style="" d="m373.92 279.87h7.1305v2.1696h-7.1305v-2.1696z"/>
 </g>
 <g id="g14" transform="translate(-2.5074 -1)">
  <path id="rect16" fill="#7babe3" d="m400 340h40v40h-40z"/>
  <path id="rect18" d="m400 340h40v40h-40z" stroke="#000" stroke-width="2" fill="none"/>
 </g>
 <g id="text20">
  <path id="path44" style="" d="m419.11 350.95-6.7469 10.544h6.7469v-10.544zm-0.70114-2.3283h3.3602v12.872h2.8178v2.2225h-2.8178v4.6567h-2.6591v-4.6567h-8.9164v-2.5797l8.2153-12.515z"/>
 </g>
 <g id="g24" transform="translate(-2.5074 -1)">
  <path id="rect26" fill="#fdfd04" d="m320 180h40v40h-40z"/>
  <path id="rect28" d="m320 180h40v40h-40z" stroke="#000" stroke-width="2" fill="none"/>
 </g>
 <g id="text30">
  <path id="path49" style="" d="m343.46 191.88-4.7493 2.5664 4.7493 2.5797-0.76729 1.2965-4.445-2.6855v4.9874h-1.5081v-4.9874l-4.445 2.6855-0.76729-1.2965 4.7493-2.5797-4.7493-2.5664 0.76729-1.3097 4.445 2.6855v-4.9874h1.5081v4.9874l4.445-2.6855 0.76729 1.3097z"/>
 </g>
 <g id="g34" transform="translate(-2.5074 -1)">
  <path id="rect36" fill="#7babe3" d="m280 260h40v40h-40z"/>
  <path id="rect38" d="m280 260h40v40h-40z" stroke="#000" stroke-width="2" fill="none"/>
 </g>
 <g id="text40">
  <path id="path54" style="" d="m297.81 277.43q-1.7992 0-2.8575 1.2303-1.0451 1.2303-1.0451 3.3734 0 2.1299 1.0451 3.3734 1.0583 1.2303 2.8575 1.2303t2.8443-1.2303q1.0583-1.2435 1.0583-3.3734 0-2.1431-1.0583-3.3734-1.0451-1.2303-2.8443-1.2303zm5.3049-8.374v2.4342q-1.0054-0.47625-2.0373-0.7276-1.0186-0.25135-2.0241-0.25135-2.6458 0-4.0481 1.7859-1.3891 1.7859-1.5875 5.3975 0.78052-1.1509 1.9579-1.7595 1.1774-0.62177 2.5929-0.62177 2.9766 0 4.6964 1.8124 1.733 1.7992 1.733 4.908 0 3.0427-1.7992 4.8816t-4.789 1.8389q-3.4264 0-5.2387-2.6194-1.8124-2.6326-1.8124-7.62 0-4.6831 2.2225-7.4612 2.2225-2.7914 5.9664-2.7914 1.0054 0 2.0241 0.19844 1.0319 0.19844 2.1431 0.59531z"/>
 </g>
 <g id="g44" transform="translate(-2.5074 -1)">
  <path id="rect46" fill="#7babe3" d="m320 340h40v40h-40z"/>
  <path id="rect48" d="m320 340h40v40h-40z" stroke="#000" stroke-width="2" fill="none"/>
 </g>
 <g id="text50">
  <path id="path59" style="" d="m338.19 369.75q-1.0319 2.6458-2.0108 3.4528-0.97896 0.80698-2.6194 0.80698h-1.9447v-2.0373h1.4288q1.0054 0 1.561-0.47625 0.55562-0.47625 1.2303-2.249l0.43656-1.1112-5.9928-14.579h2.5797l4.6302 11.589 4.6302-11.589h2.5797l-6.5087 16.192z"/>
 </g>
 <path id="line54" d="m327 219.98-19.024 38.046" stroke="#000" stroke-width="2" fill="none"/>
 <path id="line56" d="m347.98 338.02 19.024-38.046" stroke="#000" stroke-width="2" fill="none"/>
 <path id="line58" d="m407 338.02-19.02-38.04" stroke="#000" stroke-width="2" fill="none"/>
 <path id="line60" d="m347.98 219.98 19.024 38.046" stroke="#000" stroke-width="2" fill="none"/>
</svg>
