<?xml version="1.0" encoding="UTF-8" standalone="no"?>
<svg id="svg2" xmlns:rdf="http://www.w3.org/1999/02/22-rdf-syntax-ns#" xmlns="http://www.w3.org/2000/svg" viewBox="278 178 116.16187 202.00001" height="10.946cm" width="6.6108cm" version="1.1" xmlns:cc="http://creativecommons.org/ns#" xmlns:dc="http://purl.org/dc/elements/1.1/">
 <metadata id="metadata54">
  <rdf:RDF>
   <cc:Work rdf:about="">
    <dc:format>image/svg+xml</dc:format>
    <dc:type rdf:resource="http://purl.org/dc/dcmitype/StillImage"/>
   </cc:Work>
  </rdf:RDF>
 </metadata>
 <g id="g4" transform="translate(-3.9191 -1)">
  <path id="rect6" fill="#fdfd04" d="m360 260h40v40h-40z"/>
  <path id="rect8" d="m360 260h40v40h-40z" stroke="#000" stroke-width="2" fill="none"/>
 </g>
 <g id="text10">
  <path id="path33" style="" d="m372.51 279.87h7.1305v2.1696h-7.1305v-2.1696z"/>
 </g>
 <g id="g14" transform="translate(-3.9191 -1)">
  <path id="rect16" fill="#fdfd04" d="m320 180h40v40h-40z"/>
  <path id="rect18" d="m320 180h40v40h-40z" stroke="#000" stroke-width="2" fill="none"/>
 </g>
 <g id="text20">
  <path id="path38" style="" d="m327.6 196.07h16.96v2.2225h-16.96v-2.2225zm0 5.3975h16.96v2.249h-16.96v-2.249z"/>
 </g>
 <g id="g24" transform="translate(-3.9191 -1)">
  <path id="rect26" fill="#7babe3" d="m280 260h40v40h-40z"/>
  <path id="rect28" d="m280 260h40v40h-40z" stroke="#000" stroke-width="2" fill="none"/>
 </g>
 <g id="text30">
  <path id="path43" style="" d="m297.06 280.93q-2.9501 0-4.0878 0.67469-1.1377 0.67468-1.1377 2.3019 0 1.2964 0.84666 2.0637 0.8599 0.75407 2.3283 0.75407 2.0241 0 3.2411-1.4288 1.2303-1.442 1.2303-3.8232v-0.54239h-2.4209zm4.8551-1.0054v8.4534h-2.4342v-2.249q-0.83343 1.3494-2.077 1.9976-1.2435 0.635-3.0427 0.635-2.2754 0-3.6248-1.27-1.3362-1.2832-1.3362-3.4264 0-2.5003 1.6669-3.7703 1.6801-1.27 5.0006-1.27h3.4131v-0.23812q0-1.6801-1.1112-2.5929-1.098-0.92604-3.0956-0.92604-1.27 0-2.4738 0.30427t-2.3151 0.91281v-2.249q1.3362-0.51594 2.5929-0.76729 1.2568-0.26459 2.4474-0.26459 3.2147 0 4.8022 1.6669t1.5875 5.0535z"/>
 </g>
 <g id="g34" transform="translate(-3.9191 -1)">
  <path id="rect36" fill="#7babe3" d="m360 340h40v40h-40z"/>
  <path id="rect38" d="m360 340h40v40h-40z" stroke="#000" stroke-width="2" fill="none"/>
 </g>
 <g id="text40">
  <path id="path48" style="" d="m380.67 360.98q0-2.6855-1.1112-4.2069-1.098-1.5346-3.0295-1.5346-1.9314 0-3.0427 1.5346-1.098 1.5214-1.098 4.2069t1.098 4.2201q1.1112 1.5214 3.0427 1.5214t3.0295-1.5214q1.1112-1.5346 1.1112-4.2201zm-8.28-5.17q0.76729-1.3229 1.9315-1.9579 1.1774-0.64823 2.8046-0.64823 2.6987 0 4.3788 2.1431 1.6933 2.1431 1.6933 5.6356t-1.6933 5.6356q-1.6801 2.1431-4.3788 2.1431-1.6272 0-2.8046-0.635-1.1642-0.64823-1.9315-1.9712v2.2225h-2.4474v-20.585h2.4474v8.0169z"/>
 </g>
 <path id="line44" d="m325.59 219.98-19.024 38.046" stroke="#000" stroke-width="2" fill="none"/>
 <path id="line46" d="m376.08 338.02v-38.046" stroke="#000" stroke-width="2" fill="none"/>
 <path id="line48" d="m346.57 219.98 19.024 38.046" stroke="#000" stroke-width="2" fill="none"/>
</svg>
