<?xml version="1.0" encoding="UTF-8"?>
<svg id="svg59" width="14.947cm" height="10.707cm" version="1.1" viewBox="198 98 282 197.59" xmlns="http://www.w3.org/2000/svg" xmlns:cc="http://creativecommons.org/ns#" xmlns:dc="http://purl.org/dc/elements/1.1/" xmlns:rdf="http://www.w3.org/1999/02/22-rdf-syntax-ns#">
 <metadata id="metadata63">
  <rdf:RDF>
   <cc:Work rdf:about="">
    <dc:format>image/svg+xml</dc:format>
    <dc:type rdf:resource="http://purl.org/dc/dcmitype/StillImage"/>
   </cc:Work>
  </rdf:RDF>
 </metadata>
 <g id="Háttér" transform="translate(-1 -3.2062)">
  <path id="rect4" d="m316 100h48v40h-48z" fill="#fdfd04" stroke="#000" stroke-width="2"/>
  <g id="text8" aria-label="==">
   <path id="path36" d="m320.17 117.07h16.96v2.2225h-16.96zm0 5.3975h16.96v2.249h-16.96z" style=""/>
   <path id="path38" d="m342.87 117.07h16.96v2.2225h-16.96zm0 5.3975h16.96v2.249h-16.96z" style=""/>
  </g>
  <path id="rect10" d="m400 180h40v40h-40z" fill="#fdfd04" stroke="#000" stroke-width="2"/>
  <g id="text14" aria-label="*">
   <path id="path42" d="m425.97 192.88-4.7493 2.5664 4.7493 2.5797-0.76729 1.2965-4.445-2.6855v4.9874h-1.5081v-4.9874l-4.445 2.6855-0.76729-1.2965 4.7493-2.5797-4.7493-2.5664 0.76729-1.3097 4.445 2.6855v-4.9874h1.5081v4.9874l4.445-2.6855z" style=""/>
  </g>
  <path id="rect16" d="m360 260h40v40h-40z" fill="#7babe3" stroke="#000" stroke-width="2"/>
  <g id="text20" aria-label="c">
   <path id="path46" d="m385.75 275.13v2.2754q-1.0319-0.56885-2.077-0.84667-1.0319-0.29104-2.0902-0.29104-2.368 0-3.6777 1.5081-1.3097 1.4949-1.3097 4.2069 0 2.712 1.3097 4.2201 1.3097 1.4949 3.6777 1.4949 1.0583 0 2.0902-0.27781 1.0451-0.29105 2.077-0.8599v2.249q-1.0186 0.47625-2.1167 0.71437-1.0848 0.23813-2.3151 0.23813-3.347 0-5.3181-2.1034-1.9712-2.1034-1.9712-5.6753 0-3.6248 1.9844-5.7018 1.9976-2.077 5.4636-2.077 1.1245 0 2.196 0.23813 1.0716 0.22489 2.077 0.68792z" style=""/>
  </g>
  <path id="rect22" d="m440 260h40v40h-40z" fill="#7babe3" stroke="#000" stroke-width="2"/>
  <g id="text26" aria-label="d">
   <path id="path50" d="m463.7 276.81v-8.0169h2.4342v20.585h-2.4342v-2.2225q-0.76729 1.3229-1.9447 1.9712-1.1642 0.635-2.8046 0.635-2.6855 0-4.3788-2.1431-1.6801-2.1431-1.6801-5.6356 0-3.4925 1.6801-5.6356 1.6933-2.1431 4.3788-2.1431 1.6404 0 2.8046 0.64823 1.1774 0.635 1.9447 1.9579zm-8.2947 5.1726q0 2.6855 1.098 4.2201 1.1112 1.5214 3.0427 1.5214 1.9314 0 3.0427-1.5214 1.1112-1.5346 1.1112-4.2201 0-2.6855-1.1112-4.2069-1.1112-1.5346-3.0427-1.5346-1.9315 0-3.0427 1.5346-1.098 1.5214-1.098 4.2069z" style=""/>
  </g>
  <path id="line28" d="m409.51 220.98-19.024 38.046" fill="none" stroke="#000" stroke-width="2"/>
  <path id="line30" d="m449.51 259.02-19.024-38.046" fill="none" stroke="#000" stroke-width="2"/>
  <path id="line32" d="m399 179-38.022-38.022" fill="none" stroke="#000" stroke-width="2"/>
  <path id="rect34" d="m240 180h40v40h-40z" fill="#fdfd04" stroke="#000" stroke-width="2"/>
  <g id="text38" aria-label="*">
   <path id="path57" d="m265.97 192.88-4.7493 2.5664 4.7493 2.5797-0.76729 1.2965-4.445-2.6855v4.9874h-1.5081v-4.9874l-4.445 2.6855-0.76729-1.2965 4.7493-2.5797-4.7493-2.5664 0.76729-1.3097 4.445 2.6855v-4.9874h1.5081v4.9874l4.445-2.6855z" style=""/>
  </g>
  <path id="rect40" d="m200 260h40v40h-40z" fill="#7babe3" stroke="#000" stroke-width="2"/>
  <g id="text44" aria-label="a">
   <path id="path61" d="m220.98 281.93q-2.9501 0-4.0878 0.67469-1.1377 0.67468-1.1377 2.3019 0 1.2964 0.84667 2.0637 0.85989 0.75407 2.3283 0.75407 2.0241 0 3.2411-1.4288 1.2303-1.442 1.2303-3.8232v-0.54239zm4.8551-1.0054v8.4534h-2.4342v-2.249q-0.83343 1.3494-2.077 1.9976-1.2436 0.635-3.0427 0.635-2.2754 0-3.6248-1.27-1.3361-1.2832-1.3361-3.4264 0-2.5003 1.6669-3.7703 1.6801-1.27 5.0006-1.27h3.4131v-0.23812q0-1.6801-1.1112-2.5929-1.098-0.92604-3.0956-0.92604-1.27 0-2.4738 0.30427t-2.3151 0.91281v-2.249q1.3361-0.51594 2.5929-0.76729 1.2568-0.26459 2.4474-0.26459 3.2147 0 4.8022 1.6669 1.5875 1.6669 1.5875 5.0535z" style=""/>
  </g>
  <path id="rect46" d="m280 260h40v40h-40z" fill="#7babe3" stroke="#000" stroke-width="2"/>
  <g id="text50" aria-label="b">
   <path id="path65" d="m304.59 281.98q0-2.6855-1.1112-4.2069-1.098-1.5346-3.0295-1.5346-1.9314 0-3.0427 1.5346-1.098 1.5214-1.098 4.2069 0 2.6855 1.098 4.2201 1.1112 1.5214 3.0427 1.5214 1.9315 0 3.0295-1.5214 1.1112-1.5346 1.1112-4.2201zm-8.2814-5.1726q0.76729-1.3229 1.9314-1.9579 1.1774-0.64823 2.8046-0.64823 2.6988 0 4.3788 2.1431 1.6933 2.1431 1.6933 5.6356 0 3.4925-1.6933 5.6356-1.6801 2.1431-4.3788 2.1431-1.6272 0-2.8046-0.635-1.1642-0.64823-1.9314-1.9712v2.2225h-2.4474v-20.585h2.4474z" style=""/>
  </g>
  <path id="line52" d="m249.51 220.98-19.024 38.046" fill="none" stroke="#000" stroke-width="2"/>
  <path id="line54" d="m289.51 259.02-19.024-38.046" fill="none" stroke="#000" stroke-width="2"/>
  <path id="line56" d="m319.02 140.98-38.022 38.022" fill="none" stroke="#000" stroke-width="2"/>
 </g>
</svg>
