<?xml version="1.0" encoding="UTF-8"?>
<svg id="svg35" width="6.6108cm" height="10.946cm" version="1.1" viewBox="318 98 116.16 202" xmlns="http://www.w3.org/2000/svg" xmlns:cc="http://creativecommons.org/ns#" xmlns:dc="http://purl.org/dc/elements/1.1/" xmlns:rdf="http://www.w3.org/1999/02/22-rdf-syntax-ns#">
 <metadata id="metadata39">
  <rdf:RDF>
   <cc:Work rdf:about="">
    <dc:format>image/svg+xml</dc:format>
    <dc:type rdf:resource="http://purl.org/dc/dcmitype/StillImage"/>
   </cc:Work>
  </rdf:RDF>
 </metadata>
 <g id="Háttér" transform="translate(-3.9191 -1)">
  <path id="rect4" d="m360 100h40v40h-40z" fill="#fdfd04" stroke="#000" stroke-width="2"/>
  <g id="text8" aria-label="+">
   <path id="path24" d="m381.11 112.39v7.3686h7.3686v2.249h-7.3686v7.3686h-2.2225v-7.3686h-7.3686v-2.249h7.3686v-7.3686z" style=""/>
  </g>
  <path id="rect10" d="m320 260h40v40h-40z" fill="#7babe3" stroke="#000" stroke-width="2"/>
  <g id="text14" aria-label="2">
   <path id="path28" d="m336.57 287.13h9.3266v2.249h-12.541v-2.249q1.5214-1.5743 4.1407-4.2201 2.6326-2.6591 3.3073-3.4264 1.2832-1.442 1.7859-2.4342 0.51594-1.0054 0.51594-1.9711 0-1.5743-1.1112-2.5665-1.098-0.99218-2.8707-0.99218-1.2568 0-2.6591 0.43656-1.3891 0.43656-2.9766 1.3229v-2.6987q1.614-0.64823 3.0162-0.97896t2.5665-0.33073q3.0692 0 4.8948 1.5346 1.8256 1.5346 1.8256 4.101 0 1.2171-0.46302 2.3151-0.44979 1.0848-1.6536 2.5665-0.33072 0.38364-2.1034 2.2225-1.7727 1.8256-5.0006 5.1197z" style=""/>
  </g>
  <path id="rect16" d="m320 180h40v40h-40z" fill="#fdfd04" stroke="#000" stroke-width="2"/>
  <g id="text20" aria-label="-">
   <path id="path32" d="m336.43 200.87h7.1305v2.1696h-7.1305z" style=""/>
  </g>
  <path id="rect22" d="m400 180h40v40h-40z" fill="#7babe3" stroke="#000" stroke-width="2"/>
  <g id="text26" aria-label="3">
   <path id="path36" d="m422.37 198.73q1.9182 0.41011 2.9898 1.7066 1.0848 1.2965 1.0848 3.2015 0 2.9236-2.0108 4.5244-2.0108 1.6007-5.715 1.6007-1.2435 0-2.5664-0.25136-1.3097-0.23812-2.712-0.7276v-2.5797q1.1112 0.64823 2.4342 0.97896 1.3229 0.33073 2.7649 0.33073 2.5135 0 3.8232-0.99219 1.3229-0.99218 1.3229-2.884 0-1.7462-1.2303-2.7252-1.2171-0.99218-3.3999-0.99218h-2.3019v-2.196h2.4077q1.9711 0 3.0162-0.78052 1.0451-0.79375 1.0451-2.2754 0-1.5214-1.0848-2.3283-1.0716-0.8202-3.0824-0.8202-1.098 0-2.3548 0.23812-1.2568 0.23813-2.7649 0.74083v-2.3812q1.5214-0.42334 2.8443-0.635 1.3361-0.21167 2.5135-0.21167 3.0427 0 4.8154 1.3891 1.7727 1.3758 1.7727 3.7306 0 1.6404-0.93927 2.7781-0.93927 1.1245-2.6723 1.561z" style=""/>
  </g>
  <path id="line28" d="m350.49 179.02 19.024-38.046" fill="none" stroke="#000" stroke-width="2"/>
  <path id="line30" d="m409.51 179.02-19.024-38.046" fill="none" stroke="#000" stroke-width="2"/>
  <path id="line32" d="m340 220.98v38.046" fill="none" stroke="#000" stroke-width="2"/>
 </g>
</svg>
