<?xml version="1.0" encoding="UTF-8"?>
<svg id="svg35" width="6.8276cm" height="10.946cm" version="1.1" viewBox="-26 98 123.87 202" xmlns="http://www.w3.org/2000/svg" xmlns:cc="http://creativecommons.org/ns#" xmlns:dc="http://purl.org/dc/elements/1.1/" xmlns:rdf="http://www.w3.org/1999/02/22-rdf-syntax-ns#">
 <metadata id="metadata39">
  <rdf:RDF>
   <cc:Work rdf:about="">
    <dc:format>image/svg+xml</dc:format>
    <dc:type rdf:resource="http://purl.org/dc/dcmitype/StillImage"/>
   </cc:Work>
  </rdf:RDF>
 </metadata>
 <g id="Háttér" transform="translate(-2.064 -1)">
  <path id="rect4" d="m12 100h56v40h-56z" fill="#fdfd04" stroke="#000" stroke-width="2"/>
  <g id="text8" aria-label="&amp;&amp;">
   <path id="path24" d="m25.474 118.75q-1.2039 1.0716-1.7727 2.1431-0.55562 1.0583-0.55562 2.2225 0 1.9315 1.4023 3.2147 1.4023 1.2832 3.519 1.2832 1.2568 0 2.3548-0.4101 1.098-0.42333 2.0637-1.27zm1.8653-1.4817 6.7204 6.8792q0.78052-1.1774 1.2171-2.5135 0.43656-1.3494 0.51594-2.8575h2.4606q-0.15875 1.7462-0.84666 3.4528-0.68792 1.7066-1.9182 3.3734l3.6909 3.7703h-3.3337l-1.8918-1.9447q-1.3758 1.1774-2.884 1.7595-1.5081 0.56886-3.2411 0.56886-3.1882 0-5.2123-1.8124-2.0241-1.8256-2.0241-4.6699 0-1.6933 0.88635-3.175 0.88635-1.4949 2.6591-2.8046-0.635-0.83344-0.96573-1.6536-0.33073-0.83343-0.33073-1.6272 0-2.1431 1.4684-3.4396 1.4684-1.3097 3.9026-1.3097 1.098 0 2.1828 0.23813 1.098 0.23812 2.2225 0.71437v2.4077q-1.1509-0.62177-2.196-0.93927-1.0451-0.33073-1.9447-0.33073-1.3891 0-2.2622 0.74083-0.85989 0.7276-0.85989 1.8918 0 0.67468 0.38364 1.3626 0.39687 0.67469 1.6007 1.9182z" style=""/>
   <path id="path26" d="m46.588 118.75q-1.2039 1.0716-1.7727 2.1431-0.55562 1.0583-0.55562 2.2225 0 1.9315 1.4023 3.2147 1.4023 1.2832 3.519 1.2832 1.2568 0 2.3548-0.4101 1.098-0.42333 2.0637-1.27zm1.8653-1.4817 6.7204 6.8792q0.78052-1.1774 1.2171-2.5135 0.43656-1.3494 0.51594-2.8575h2.4606q-0.15875 1.7462-0.84667 3.4528t-1.9182 3.3734l3.6909 3.7703h-3.3337l-1.8918-1.9447q-1.3758 1.1774-2.884 1.7595-1.5081 0.56886-3.2411 0.56886-3.1882 0-5.2123-1.8124-2.0241-1.8256-2.0241-4.6699 0-1.6933 0.88635-3.175 0.88635-1.4949 2.6591-2.8046-0.635-0.83344-0.96573-1.6536-0.33073-0.83343-0.33073-1.6272 0-2.1431 1.4684-3.4396 1.4684-1.3097 3.9026-1.3097 1.098 0 2.1828 0.23813 1.098 0.23812 2.2225 0.71437v2.4077q-1.1509-0.62177-2.196-0.93927-1.0451-0.33073-1.9447-0.33073-1.3891 0-2.2622 0.74083-0.8599 0.7276-0.8599 1.8918 0 0.67468 0.38365 1.3626 0.39687 0.67469 1.6007 1.9182z" style=""/>
  </g>
  <path id="rect10" d="m-20 260h40v40h-40z" fill="#7babe3" stroke="#000" stroke-width="2"/>
  <g id="text14" aria-label="a">
   <path id="path30" d="m0.97896 281.93q-2.9501 0-4.0878 0.67469-1.1377 0.67468-1.1377 2.3019 0 1.2964 0.84667 2.0637 0.85989 0.75407 2.3283 0.75407 2.0241 0 3.2411-1.4288 1.2303-1.442 1.2303-3.8232v-0.54239zm4.8551-1.0054v8.4534h-2.4342v-2.249q-0.83344 1.3494-2.077 1.9976-1.2435 0.635-3.0427 0.635-2.2754 0-3.6248-1.27-1.3361-1.2832-1.3361-3.4264 0-2.5003 1.6669-3.7703 1.6801-1.27 5.0006-1.27h3.4131v-0.23812q0-1.6801-1.1112-2.5929-1.098-0.92604-3.0956-0.92604-1.27 0-2.4739 0.30427t-2.3151 0.91281v-2.249q1.3361-0.51594 2.5929-0.76729 1.2568-0.26459 2.4474-0.26459 3.2147 0 4.8022 1.6669 1.5875 1.6669 1.5875 5.0535z" style=""/>
  </g>
  <path id="rect16" d="m-24 180h48v40h-48z" fill="#fdfd04" stroke="#000" stroke-width="2"/>
  <g id="text20" aria-label="!">
   <path id="path34" d="m-1.3361 206.01h2.6855v3.3602h-2.6855zm0-16.391h2.6855v8.6651l-0.26458 4.7228h-2.1431l-0.27781-4.7228z" style=""/>
  </g>
  <path id="rect22" d="m60 180h40v40h-40z" fill="#7babe3" stroke="#000" stroke-width="2"/>
  <g id="text26" aria-label="b">
   <path id="path38" d="m84.591 201.98q0-2.6855-1.1112-4.2069-1.098-1.5346-3.0295-1.5346t-3.0427 1.5346q-1.098 1.5214-1.098 4.2069 0 2.6855 1.098 4.2201 1.1112 1.5214 3.0427 1.5214t3.0295-1.5214q1.1112-1.5346 1.1112-4.2201zm-8.2814-5.1726q0.76729-1.3229 1.9315-1.9579 1.1774-0.64823 2.8046-0.64823 2.6987 0 4.3788 2.1431 1.6933 2.1431 1.6933 5.6356 0 3.4925-1.6933 5.6356-1.6801 2.1431-4.3788 2.1431-1.6272 0-2.8046-0.635-1.1642-0.64823-1.9315-1.9712v2.2225h-2.4474v-20.585h2.4474z" style=""/>
  </g>
  <path id="line28" d="m10.488 179.02 19.023-38.046" fill="none" stroke="#000" stroke-width="2"/>
  <path id="line30" d="m50.488 140.98 19.023 38.046" fill="none" stroke="#000" stroke-width="2"/>
  <path id="line32" d="m0 259.02v-38.046" fill="none" stroke="#000" stroke-width="2"/>
 </g>
</svg>
