<?xml version="1.0" encoding="UTF-8"?>
<svg id="svg95" width="16.345cm" height="9.6893cm" version="1.1" viewBox="152 113 316.33 193.79" xmlns="http://www.w3.org/2000/svg" xmlns:cc="http://creativecommons.org/ns#" xmlns:dc="http://purl.org/dc/elements/1.1/" xmlns:rdf="http://www.w3.org/1999/02/22-rdf-syntax-ns#">
 <metadata id="metadata99">
  <rdf:RDF>
   <cc:Work rdf:about="">
    <dc:format>image/svg+xml</dc:format>
    <dc:type rdf:resource="http://purl.org/dc/dcmitype/StillImage"/>
   </cc:Work>
  </rdf:RDF>
 </metadata>
 <g id="Háttér" transform="translate(-7.3842 -3.5945)">
  <g id="g8" stroke="#000" stroke-width="2">
   <path id="path4" d="m220 170h90.264" fill="none"/>
   <path id="polygon6" d="m310.26 170-2.5-5 10 5-10 5z" fill-rule="evenodd"/>
  </g>
  <path id="rect10" d="m320 140h60v60h-60z" fill="#7babe3" stroke="#000" stroke-width="2"/>
  <g id="text14" aria-label="Be: 6, 7, 11, …">
   <path id="path55" d="m323.55 123.71v4.8242h2.8575q1.4376 0 2.1255-0.5909 0.69674-0.59972 0.69674-1.8256 0-1.2347-0.69674-1.8168-0.68791-0.59091-2.1255-0.59091zm0-5.4151v3.9688h2.637q1.3053 0 1.9403-0.48507 0.64382-0.49389 0.64382-1.4993 0-0.99659-0.64382-1.4905-0.635-0.49389-1.9403-0.49389zm-1.7815-1.464h4.5508q2.0373 0 3.1397 0.84666 1.1024 0.84667 1.1024 2.4077 0 1.2083-0.56444 1.9226-0.56445 0.71438-1.6581 0.89077 1.3141 0.28222 2.0373 1.1818 0.73202 0.89076 0.73202 2.2313 0 1.7639-1.1994 2.7252-1.1994 0.96132-3.4131 0.96132h-4.7272z" style=""/>
   <path id="path57" d="m342.53 124.66v0.79375h-7.4612q0.10584 1.6757 1.0054 2.5576 0.9084 0.87312 2.5224 0.87312 0.93486 0 1.808-0.2293 0.88194-0.22931 1.7462-0.68792v1.5346q-0.87313 0.37042-1.7904 0.56445-0.91722 0.19402-1.8609 0.19402-2.3636 0-3.7483-1.3758-1.3758-1.3758-1.3758-3.7218 0-2.4253 1.3053-3.8453 1.3141-1.4288 3.5366-1.4288 1.9932 0 3.1485 1.2876 1.1642 1.2788 1.1642 3.4837zm-1.6228-0.47625q-0.0176-1.3317-0.74965-2.1255-0.7232-0.79375-1.9226-0.79375-1.3582 0-2.1784 0.76729-0.81139 0.76729-0.93486 2.1608z" style=""/>
   <path id="path59" d="m345.61 127.76h1.8609v2.2401h-1.8609zm0-7.0996h1.8609v2.2401h-1.8609z" style=""/>
   <path id="path61" d="m361.31 122.71q-1.1994 0-1.905 0.82021-0.69674 0.8202-0.69674 2.249 0 1.4199 0.69674 2.249 0.70555 0.8202 1.905 0.8202 1.1994 0 1.8962-0.8202 0.70555-0.82903 0.70555-2.249 0-1.4288-0.70555-2.249-0.69674-0.82021-1.8962-0.82021zm3.5366-5.5827v1.6228q-0.67028-0.3175-1.3582-0.48507-0.6791-0.16757-1.3494-0.16757-1.7639 0-2.6987 1.1906-0.92604 1.1906-1.0583 3.5983 0.52035-0.76729 1.3053-1.173 0.78493-0.41451 1.7286-0.41451 1.9844 0 3.1309 1.2083 1.1553 1.1994 1.1553 3.272 0 2.0285-1.1994 3.2544t-3.1926 1.2259q-2.2842 0-3.4925-1.7462-1.2083-1.7551-1.2083-5.08 0-3.1221 1.4817-4.9742 1.4817-1.8609 3.9776-1.8609 0.67028 0 1.3494 0.13229 0.68792 0.13229 1.4288 0.39688z" style=""/>
   <path id="path63" d="m368.97 127.76h1.8609v1.517l-1.4464 2.8222h-1.1377l0.7232-2.8222z" style=""/>
   <path id="path65" d="m379.83 116.83h8.4666v0.75847l-4.7801 12.409h-1.8609l4.4979-11.668h-6.3235z" style=""/>
   <path id="path67" d="m391.97 127.76h1.8609v1.517l-1.4464 2.8222h-1.1377l0.72319-2.8222z" style=""/>
   <path id="path69" d="m403.59 128.5h2.9104v-10.045l-3.1662 0.635v-1.6228l3.1485-0.63499h1.7815v11.668h2.9104v1.4993h-7.5847z" style=""/>
   <path id="path71" d="m415.09 128.5h2.9104v-10.045l-3.1662 0.635v-1.6228l3.1485-0.63499h1.7815v11.668h2.9104v1.4993h-7.5847z" style=""/>
   <path id="path73" d="m426.47 127.76h1.8609v1.517l-1.4464 2.8222h-1.1377l0.72319-2.8222z" style=""/>
   <path id="path75" d="m443.95 127.76h1.8697v2.2401h-1.8697zm6.006 0h1.8785v2.2401h-1.8785zm-12.021 0h1.8785v2.2401h-1.8785z" style=""/>
  </g>
  <path id="rect16" d="m420 140h60v60h-60z" fill="#7babe3" stroke="#000" stroke-width="2"/>
  <path id="rect18" d="m240 230h60v60h-60z" fill="#7be38e" stroke="#000" stroke-width="2"/>
  <path id="rect20" d="m200 160h20v20h-20z" fill="#fdfd04" stroke="#000" stroke-width="2"/>
  <g id="g26" stroke="#f62e2e" stroke-width="2">
   <path id="path22" d="m300 260c50-20-30-70 10.96-86.384" fill="none"/>
   <path id="polygon24" d="m310.96 173.62-4.178-3.714 11.142 0.928-7.428 8.357z" fill="#f62e2e" fill-rule="evenodd"/>
  </g>
  <g id="g32" stroke="#000" stroke-width="2">
   <path id="path28" d="m380 200c40 0 0-30 30.264-30" fill="none"/>
   <path id="polygon30" d="m410.26 170-2.5-5 10 5-10 5z" fill-rule="evenodd"/>
  </g>
  <g id="text36" aria-label="6">
   <path id="path83" d="m450.32 168.43q-1.7992 0-2.8575 1.2303-1.0451 1.2303-1.0451 3.3734 0 2.1299 1.0451 3.3734 1.0583 1.2303 2.8575 1.2303t2.8443-1.2303q1.0583-1.2435 1.0583-3.3734 0-2.1431-1.0583-3.3734-1.0451-1.2303-2.8443-1.2303zm5.3049-8.374v2.4342q-1.0054-0.47625-2.0373-0.7276-1.0186-0.25135-2.0241-0.25135-2.6458 0-4.0481 1.7859-1.3891 1.7859-1.5875 5.3975 0.78052-1.1509 1.9579-1.7595 1.1774-0.62177 2.5929-0.62177 2.9766 0 4.6964 1.8124 1.733 1.7992 1.733 4.908 0 3.0427-1.7992 4.8816-1.7992 1.8389-4.789 1.8389-3.4264 0-5.2387-2.6194-1.8124-2.6326-1.8124-7.62 0-4.6831 2.2225-7.4612 2.2225-2.7914 5.9664-2.7914 1.0054 0 2.0241 0.19844 1.0319 0.19844 2.1431 0.59531z" style=""/>
  </g>
  <g id="text40" aria-label="7">
   <path id="path86" d="m343.6 159.62h12.7v1.1377l-7.1702 18.613h-2.7914l6.7469-17.502h-9.4853z" style=""/>
  </g>
  <g id="text44" aria-label="11">
   <path id="path89" d="m256.11 267.13h4.3656v-15.068l-4.7493 0.9525v-2.4342l4.7228-0.9525h2.6723v17.502h4.3656v2.249h-11.377z" style=""/>
   <path id="path91" d="m273.36 267.13h4.3656v-15.068l-4.7493 0.9525v-2.4342l4.7228-0.9525h2.6723v17.502h4.3656v2.249h-11.377z" style=""/>
  </g>
  <g id="text48" fill="#173b8f" aria-label="(1)">
   <path id="path94" d="m272.79 294.29q-1.1818 2.0285-1.7551 4.0128-0.57327 1.9844-0.57327 4.0217t0.57327 4.0393q0.58208 1.9932 1.7551 4.0128h-1.4111q-1.3229-2.0726-1.9844-4.0746-0.65264-2.002-0.65264-3.9776 0-1.9667 0.65264-3.9599t1.9844-4.0746z" style=""/>
   <path id="path96" d="m276.49 306.5h2.9104v-10.045l-3.1662 0.635v-1.6228l3.1485-0.63499h1.7815v11.668h2.9104v1.4993h-7.5847z" style=""/>
   <path id="path98" d="m287.2 294.29h1.4111q1.3229 2.0814 1.9756 4.0746 0.66146 1.9932 0.66146 3.9599 0 1.9756-0.66146 3.9776-0.65264 2.002-1.9756 4.0746h-1.4111q1.173-2.0196 1.7462-4.0128 0.58208-2.002 0.58208-4.0393t-0.58208-4.0217q-0.57327-1.9844-1.7462-4.0128z" style=""/>
  </g>
  <g id="text52" fill="#173b8f" aria-label="(2)">
   <path id="path101" d="m325.6 216.29q-1.1818 2.0285-1.7551 4.0128-0.57326 1.9844-0.57326 4.0217t0.57326 4.0393q0.58209 1.9932 1.7551 4.0128h-1.4111q-1.3229-2.0726-1.9844-4.0746-0.65264-2.002-0.65264-3.9776 0-1.9667 0.65264-3.9599t1.9844-4.0746z" style=""/>
   <path id="path103" d="m330.52 228.5h6.2177v1.4993h-8.3608v-1.4993q1.0142-1.0495 2.7605-2.8134 1.7551-1.7727 2.2048-2.2842 0.85549-0.96131 1.1906-1.6228 0.34396-0.67028 0.34396-1.3141 0-1.0495-0.74084-1.711-0.73201-0.66146-1.9138-0.66146-0.83785 0-1.7727 0.29105-0.92604 0.29104-1.9844 0.88194v-1.7992q1.076-0.43215 2.0108-0.65263 0.93486-0.22049 1.711-0.22049 2.0461 0 3.2632 1.023 1.2171 1.0231 1.2171 2.734 0 0.81139-0.30868 1.5434-0.29986 0.72319-1.1024 1.711-0.22049 0.25576-1.4023 1.4817-1.1818 1.2171-3.3338 3.4131z" style=""/>
   <path id="path105" d="m340 216.29h1.4111q1.3229 2.0814 1.9756 4.0746 0.66146 1.9932 0.66146 3.9599 0 1.9756-0.66146 3.9776-0.65264 2.002-1.9756 4.0746h-1.4111q1.173-2.0196 1.7462-4.0128 0.58209-2.002 0.58209-4.0393t-0.58209-4.0217q-0.57326-1.9844-1.7462-4.0128z" style=""/>
  </g>
  <g id="text56" fill="#173b8f" aria-label="(3)">
   <path id="path108" d="m199.99 216.29q-1.1818 2.0285-1.7551 4.0128-0.57327 1.9844-0.57327 4.0217t0.57327 4.0393q0.58208 1.9932 1.7551 4.0128h-1.4111q-1.3229-2.0726-1.9844-4.0746-0.65264-2.002-0.65264-3.9776 0-1.9667 0.65264-3.9599t1.9844-4.0746z" style=""/>
   <path id="path110" d="m208.77 222.9q1.2788 0.2734 1.9932 1.1377 0.7232 0.86431 0.7232 2.1343 0 1.9491-1.3406 3.0162-1.3406 1.0672-3.81 1.0672-0.82903 0-1.711-0.16757-0.87313-0.15875-1.808-0.48506v-1.7198q0.74084 0.43215 1.6228 0.65263 0.88194 0.22049 1.8433 0.22049 1.6757 0 2.5488-0.66146 0.88194-0.66146 0.88194-1.9226 0-1.1642-0.82021-1.8168-0.81138-0.66146-2.2666-0.66146h-1.5346v-1.464h1.6051q1.3141 0 2.0108-0.52035 0.69674-0.52916 0.69674-1.5169 0-1.0142-0.72319-1.5522-0.71438-0.54681-2.0549-0.54681-0.73201 0-1.5699 0.15875t-1.8433 0.49389v-1.5875q1.0142-0.28222 1.8962-0.42333 0.89076-0.14111 1.6757-0.14111 2.0285 0 3.2103 0.92604 1.1818 0.91722 1.1818 2.4871 0 1.0936-0.62618 1.8521-0.62618 0.74965-1.7815 1.0407z" style=""/>
   <path id="path112" d="m214.39 216.29h1.4111q1.3229 2.0814 1.9756 4.0746 0.66146 1.9932 0.66146 3.9599 0 1.9756-0.66146 3.9776-0.65263 2.002-1.9756 4.0746h-1.4111q1.173-2.0196 1.7462-4.0128 0.58208-2.002 0.58208-4.0393t-0.58208-4.0217q-0.57326-1.9844-1.7462-4.0128z" style=""/>
  </g>
  <g id="g62" fill="none" stroke="#f62e2e" stroke-width="2">
   <path id="line58" d="m264 164 10 10"/>
   <path id="line60" d="m264 174 10-10"/>
  </g>
  <g id="text66" aria-label="lista">
   <path id="path117" d="m154.1 162.53h1.6228v13.723h-1.6228z" style=""/>
   <path id="path119" d="m159.11 166.37h1.6228v9.8778h-1.6228zm0-3.8453h1.6228v2.0549h-1.6228z" style=""/>
   <path id="path121" d="m170.41 166.66v1.5346q-0.68792-0.35278-1.4288-0.52917t-1.5346-0.17639q-1.2083 0-1.8168 0.37042-0.59972 0.37041-0.59972 1.1112 0 0.56444 0.43216 0.89076 0.43215 0.3175 1.7374 0.60854l0.55563 0.12347q1.7286 0.37042 2.4518 1.0495 0.73201 0.67027 0.73201 1.8785 0 1.3758-1.0936 2.1784-1.0848 0.80256-2.9898 0.80256-0.79375 0-1.6581-0.15875-0.85548-0.14993-1.808-0.45861v-1.6757q0.89958 0.46743 1.7727 0.70556 0.87313 0.2293 1.7286 0.2293 1.1465 0 1.7639-0.38805 0.61736-0.39688 0.61736-1.1112 0-0.66146-0.44979-1.0142-0.44097-0.35278-1.9491-0.67909l-0.56444-0.1323q-1.5081-0.3175-2.1784-0.97013-0.67028-0.66146-0.67028-1.808 0-1.3935 0.98778-2.1519t2.8046-0.75847q0.89958 0 1.6933 0.13229t1.464 0.39688z" style=""/>
   <path id="path123" d="m175.14 163.57v2.8046h3.3426v1.2612h-3.3426v5.3622q0 1.2083 0.32632 1.5522 0.33514 0.34396 1.3494 0.34396h1.6669v1.3582h-1.6669q-1.8785 0-2.5929-0.69674-0.71437-0.70555-0.71437-2.5576v-5.3622h-1.1906v-1.2612h1.1906v-2.8046z" style=""/>
   <path id="path125" d="m185.11 171.28q-1.9667 0-2.7252 0.44979t-0.75847 1.5346q0 0.86431 0.56444 1.3758 0.57326 0.50271 1.5522 0.50271 1.3494 0 2.1608-0.9525 0.82021-0.96132 0.82021-2.5488v-0.3616zm3.2367-0.67028v5.6356h-1.6228v-1.4993q-0.55563 0.89958-1.3846 1.3317-0.82903 0.42333-2.0285 0.42333-1.5169 0-2.4165-0.84666-0.89076-0.85549-0.89076-2.2842 0-1.6669 1.1112-2.5135 1.1201-0.84667 3.3338-0.84667h2.2754v-0.15875q0-1.1201-0.74083-1.7286-0.73202-0.61736-2.0638-0.61736-0.84667 0-1.6492 0.20285-0.80257 0.20285-1.5434 0.60854v-1.4993q0.89077-0.34396 1.7286-0.51153 0.83785-0.17639 1.6316-0.17639 2.1431 0 3.2014 1.1112 1.0583 1.1112 1.0583 3.369z" style=""/>
  </g>
  <g id="g72" stroke="#f62e2e" stroke-width="2">
   <path id="path68" d="m210 260h19.261" fill="none"/>
   <path id="polygon70" d="m229.26 260-2.5-5 10 5-10 5z" fill="#f62e2e" fill-rule="evenodd"/>
  </g>
  <g id="text76" aria-label="uj">
   <path id="path129" d="m175.06 262.35v-5.9796h1.6228v5.9178q0 1.4023 0.54681 2.1078 0.5468 0.69673 1.6404 0.69673 1.3141 0 2.0726-0.83784 0.76729-0.83785 0.76729-2.2842v-5.6003h1.6228v9.8778h-1.6228v-1.5169q-0.5909 0.89958-1.3758 1.3406-0.77611 0.43215-1.808 0.43215-1.7022 0-2.5841-1.0583-0.88194-1.0583-0.88194-3.0956zm4.0834-6.2177z" style=""/>
   <path id="path131" d="m186.69 256.37h1.6228v10.054q0 1.8874-0.7232 2.734-0.71437 0.84667-2.3107 0.84667h-0.61736v-1.3758h0.43216q0.92604 0 1.2612-0.43216 0.33514-0.42333 0.33514-1.7727zm0-3.8453h1.6228v2.0549h-1.6228z" style=""/>
  </g>
  <g id="g82" stroke="#f62e2e" stroke-width="2">
   <path id="path78" d="m220 170c50 20-30 70 10.96 86.384" fill="none"/>
   <path id="polygon80" d="m230.96 256.38-0.464-5.571 7.428 8.357-11.142 0.928z" fill="#f62e2e" fill-rule="evenodd"/>
  </g>
  <path id="rect84" d="m420 190h60v20h-60z" fill="#fdfd04" stroke="#000" stroke-width="2"/>
  <path id="rect86" d="m320 190h60v20h-60z" fill="#fdfd04" stroke="#000" stroke-width="2"/>
  <path id="line88" d="m420 190 60 20" fill="none" stroke="#000" stroke-width="2"/>
  <path id="line90" d="m420 210 60-20" fill="none" stroke="#000" stroke-width="2"/>
  <path id="rect92" d="m200 250h20v20h-20z" fill="#fdfd04" stroke="#000" stroke-width="2"/>
 </g>
</svg>
