<?xml version="1.0" encoding="UTF-8"?>
<svg id="svg177" width="25.878cm" height="16.774cm" version="1.1" viewBox="152 108 506.61 328.58" xmlns="http://www.w3.org/2000/svg" xmlns:cc="http://creativecommons.org/ns#" xmlns:dc="http://purl.org/dc/elements/1.1/" xmlns:rdf="http://www.w3.org/1999/02/22-rdf-syntax-ns#">
 <metadata id="metadata181">
  <rdf:RDF>
   <cc:Work rdf:about="">
    <dc:format>image/svg+xml</dc:format>
    <dc:type rdf:resource="http://purl.org/dc/dcmitype/StillImage"/>
   </cc:Work>
  </rdf:RDF>
 </metadata>
 <g id="Háttér" transform="translate(-2.2425 -3.977)">
  <g id="g8" stroke="#000" stroke-width="2">
   <path id="path4" d="m220 210h30.264" fill="none"/>
   <path id="polygon6" d="m250.26 210-2.5-5 10 5-10 5z" fill-rule="evenodd"/>
  </g>
  <path id="rect10" d="m360 180h60v60h-60z" fill="#7babe3" stroke="#000" stroke-width="2"/>
  <path id="rect12" d="m500 180h60v60h-60z" fill="#7babe3" stroke="#000" stroke-width="2"/>
  <path id="rect14" d="m260 180h60v60h-60z" fill="#7babe3" stroke="#000" stroke-width="2"/>
  <path id="rect16" d="m200 200h20v20h-20z" fill="#fdfd04" stroke="#000" stroke-width="2"/>
  <g id="g22" stroke="#f62e2e" stroke-width="2">
   <path id="path18" d="m420 210c9 10 40 40-10 60s-60 40-38.101 54.599" fill="none"/>
   <path id="polygon20" d="m371.9 324.6 0.693-5.547 5.547 9.708-11.094-1.387z" fill="#f62e2e" fill-rule="evenodd"/>
  </g>
  <g id="g28" stroke="#000" stroke-width="2">
   <path id="path24" d="m420 210h70.264" fill="none"/>
   <path id="polygon26" d="m490.26 210-2.5-5 10 5-10 5z" fill-rule="evenodd"/>
  </g>
  <g id="g34" stroke="#000" stroke-width="2">
   <path id="path30" d="m560 240c40 0 0-30 30.264-30" fill="none"/>
   <path id="polygon32" d="m590.26 210-2.5-5 10 5-10 5z" fill-rule="evenodd"/>
  </g>
  <g id="text38" aria-label="5">
   <path id="path102" d="m524.3 199.62h10.491v2.249h-8.0433v4.8419q0.58208-0.19843 1.1642-0.29104 0.58209-0.10583 1.1642-0.10583 3.3073 0 5.2387 1.8124 1.9315 1.8124 1.9315 4.908 0 3.1882-1.9844 4.9609-1.9844 1.7595-5.5959 1.7595-1.2435 0-2.54-0.21167-1.2832-0.21167-2.6591-0.635v-2.6855q1.1906 0.64823 2.4606 0.96573t2.6855 0.3175q2.2886 0 3.6248-1.2038 1.3361-1.2039 1.3361-3.2676 0-2.0638-1.3361-3.2676-1.3362-1.2039-3.6248-1.2039-1.0716 0-2.1431 0.23813-1.0583 0.23812-2.1696 0.74083z" style=""/>
  </g>
  <g id="text42" aria-label="4">
   <path id="path105" d="m391.61 201.95-6.7469 10.544h6.7469zm-0.70115-2.3283h3.3602v12.872h2.8178v2.2225h-2.8178v4.6567h-2.6591v-4.6567h-8.9164v-2.5797z" style=""/>
  </g>
  <g id="text46" aria-label="3">
   <path id="path108" d="m292.37 208.73q1.9182 0.41011 2.9898 1.7066 1.0848 1.2965 1.0848 3.2015 0 2.9236-2.0108 4.5244-2.0108 1.6007-5.715 1.6007-1.2435 0-2.5664-0.25136-1.3097-0.23812-2.712-0.7276v-2.5797q1.1112 0.64823 2.4342 0.97896 1.3229 0.33073 2.7649 0.33073 2.5135 0 3.8232-0.99219 1.3229-0.99218 1.3229-2.884 0-1.7462-1.2303-2.7252-1.2171-0.99218-3.3999-0.99218h-2.3019v-2.196h2.4077q1.9711 0 3.0162-0.78052 1.0451-0.79375 1.0451-2.2754 0-1.5214-1.0848-2.3283-1.0716-0.8202-3.0824-0.8202-1.098 0-2.3548 0.23812-1.2568 0.23813-2.7649 0.74083v-2.3812q1.5214-0.42334 2.8443-0.635 1.3361-0.21167 2.5135-0.21167 3.0427 0 4.8154 1.3891 1.7727 1.3758 1.7727 3.7306 0 1.6404-0.93927 2.7781-0.93927 1.1245-2.6723 1.561z" style=""/>
  </g>
  <g id="text50" fill="#173b8f" aria-label="(5)">
   <path id="path111" d="m369.99 261.99q-1.1818 2.0285-1.7551 4.0128-0.57327 1.9844-0.57327 4.0217t0.57327 4.0393q0.58208 1.9932 1.7551 4.0128h-1.4111q-1.3229-2.0726-1.9844-4.0746-0.65264-2.002-0.65264-3.9776 0-1.9667 0.65264-3.9599t1.9844-4.0746z" style=""/>
   <path id="path113" d="m373.39 262.53h6.9938v1.4993h-5.3622v3.2279q0.38806-0.13229 0.77611-0.19402 0.38806-0.0706 0.77611-0.0706 2.2049 0 3.4925 1.2083 1.2876 1.2083 1.2876 3.272 0 2.1255-1.3229 3.3073-1.3229 1.173-3.7306 1.173-0.82903 0-1.6933-0.14112-0.85549-0.14111-1.7727-0.42333v-1.7903q0.79375 0.43215 1.6404 0.64382 0.84666 0.21166 1.7903 0.21166 1.5258 0 2.4165-0.80257 0.89076-0.80256 0.89076-2.1784 0-1.3758-0.89076-2.1784-0.89077-0.80257-2.4165-0.80257-0.71437 0-1.4288 0.15875-0.70555 0.15875-1.4464 0.49389z" style=""/>
   <path id="path115" d="m384.39 261.99h1.4111q1.3229 2.0814 1.9756 4.0746 0.66146 1.9932 0.66146 3.9599 0 1.9756-0.66146 3.9776-0.65263 2.002-1.9756 4.0746h-1.4111q1.173-2.0196 1.7462-4.0128 0.58208-2.002 0.58208-4.0393t-0.58208-4.0217q-0.57326-1.9844-1.7462-4.0128z" style=""/>
  </g>
  <g id="g56" stroke="#000" stroke-width="2">
   <path id="path52" d="m320 240c40 0 0-30 30.264-30" fill="none"/>
   <path id="polygon54" d="m350.26 210-2.5-5 10 5-10 5z" fill-rule="evenodd"/>
  </g>
  <g id="text60" aria-label="lista">
   <path id="path119" d="m154.1 202.53h1.6228v13.723h-1.6228z" style=""/>
   <path id="path121" d="m159.11 206.37h1.6228v9.8778h-1.6228zm0-3.8453h1.6228v2.0549h-1.6228z" style=""/>
   <path id="path123" d="m170.41 206.66v1.5346q-0.68792-0.35278-1.4288-0.52917t-1.5346-0.17639q-1.2083 0-1.8168 0.37042-0.59972 0.37041-0.59972 1.1112 0 0.56444 0.43216 0.89076 0.43215 0.3175 1.7374 0.60854l0.55563 0.12347q1.7286 0.37042 2.4518 1.0495 0.73201 0.67027 0.73201 1.8785 0 1.3758-1.0936 2.1784-1.0848 0.80256-2.9898 0.80256-0.79375 0-1.6581-0.15875-0.85548-0.14993-1.808-0.45861v-1.6757q0.89958 0.46743 1.7727 0.70556 0.87313 0.2293 1.7286 0.2293 1.1465 0 1.7639-0.38805 0.61736-0.39688 0.61736-1.1112 0-0.66146-0.44979-1.0142-0.44097-0.35278-1.9491-0.67909l-0.56444-0.1323q-1.5081-0.3175-2.1784-0.97013-0.67028-0.66146-0.67028-1.808 0-1.3935 0.98778-2.1519t2.8046-0.75847q0.89958 0 1.6933 0.13229t1.464 0.39688z" style=""/>
   <path id="path125" d="m175.14 203.57v2.8046h3.3426v1.2612h-3.3426v5.3622q0 1.2083 0.32632 1.5522 0.33514 0.34396 1.3494 0.34396h1.6669v1.3582h-1.6669q-1.8785 0-2.5929-0.69674-0.71437-0.70555-0.71437-2.5576v-5.3622h-1.1906v-1.2612h1.1906v-2.8046z" style=""/>
   <path id="path127" d="m185.11 211.28q-1.9667 0-2.7252 0.44979t-0.75847 1.5346q0 0.86431 0.56444 1.3758 0.57326 0.50271 1.5522 0.50271 1.3494 0 2.1608-0.9525 0.82021-0.96132 0.82021-2.5488v-0.3616zm3.2367-0.67028v5.6356h-1.6228v-1.4993q-0.55563 0.89958-1.3846 1.3317-0.82903 0.42333-2.0285 0.42333-1.5169 0-2.4165-0.84666-0.89076-0.85549-0.89076-2.2842 0-1.6669 1.1112-2.5135 1.1201-0.84667 3.3338-0.84667h2.2754v-0.15875q0-1.1201-0.74083-1.7286-0.73202-0.61736-2.0638-0.61736-0.84667 0-1.6492 0.20285-0.80257 0.20285-1.5434 0.60854v-1.4993q0.89077-0.34396 1.7286-0.51153 0.83785-0.17639 1.6316-0.17639 2.1431 0 3.2014 1.1112 1.0583 1.1112 1.0583 3.369z" style=""/>
  </g>
  <g id="g66" fill="none" stroke="#f62e2e" stroke-width="2">
   <path id="line62" d="m440 205 10 10"/>
   <path id="line64" d="m440 215 10-10"/>
  </g>
  <g id="text70" fill="#173b8f" aria-label="(2)">
   <path id="path132" d="m535.6 261.99q-1.1818 2.0285-1.7551 4.0128-0.57326 1.9844-0.57326 4.0217t0.57326 4.0393q0.58209 1.9932 1.7551 4.0128h-1.4111q-1.3229-2.0726-1.9844-4.0746-0.65264-2.002-0.65264-3.9776 0-1.9667 0.65264-3.9599t1.9844-4.0746z" style=""/>
   <path id="path134" d="m540.52 274.2h6.2177v1.4993h-8.3608v-1.4993q1.0142-1.0495 2.7605-2.8134 1.7551-1.7727 2.2048-2.2842 0.85549-0.96132 1.1906-1.6228 0.34396-0.67028 0.34396-1.3141 0-1.0495-0.74084-1.711-0.73201-0.66145-1.9138-0.66145-0.83785 0-1.7727 0.29104-0.92604 0.29104-1.9844 0.88194v-1.7992q1.076-0.43216 2.0108-0.65264 0.93486-0.22049 1.711-0.22049 2.0461 0 3.2632 1.0231 1.2171 1.023 1.2171 2.734 0 0.81139-0.30868 1.5434-0.29986 0.7232-1.1024 1.711-0.22049 0.25577-1.4023 1.4817-1.1818 1.2171-3.3338 3.4131z" style=""/>
   <path id="path136" d="m550 261.99h1.4111q1.3229 2.0814 1.9756 4.0746 0.66146 1.9932 0.66146 3.9599 0 1.9756-0.66146 3.9776-0.65264 2.002-1.9756 4.0746h-1.4111q1.173-2.0196 1.7462-4.0128 0.58209-2.002 0.58209-4.0393t-0.58209-4.0217q-0.57326-1.9844-1.7462-4.0128z" style=""/>
  </g>
  <g id="text74" fill="#173b8f" aria-label="(1)">
   <path id="path139" d="m525.6 377.54q-1.1818 2.0285-1.7551 4.0128-0.57326 1.9844-0.57326 4.0217t0.57326 4.0393q0.58209 1.9932 1.7551 4.0128h-1.4111q-1.3229-2.0726-1.9844-4.0746-0.65264-2.002-0.65264-3.9776 0-1.9667 0.65264-3.9599t1.9844-4.0746z" style=""/>
   <path id="path141" d="m529.3 389.75h2.9104v-10.045l-3.1662 0.635v-1.6228l3.1485-0.63499h1.7815v11.668h2.9104v1.4993h-7.5847z" style=""/>
   <path id="path143" d="m540 377.54h1.4111q1.3229 2.0814 1.9756 4.0746 0.66146 1.9932 0.66146 3.9599 0 1.9756-0.66146 3.9776-0.65264 2.002-1.9756 4.0746h-1.4111q1.173-2.0196 1.7462-4.0128 0.58209-2.002 0.58209-4.0393t-0.58209-4.0217q-0.57326-1.9844-1.7462-4.0128z" style=""/>
  </g>
  <path id="rect76" d="m380 300h60v60h-60z" fill="#7be38e" stroke="#000" stroke-width="2"/>
  <path id="rect78" d="m480 300h60v60h-60z" fill="#7be38e" stroke="#000" stroke-width="2"/>
  <g id="text82" aria-label="0">
   <path id="path148" d="m409.99 321.38q-2.0638 0-3.1088 2.0373-1.0319 2.0241-1.0319 6.0986 0 4.0614 1.0319 6.0986 1.0451 2.0241 3.1088 2.0241 2.077 0 3.1088-2.0241 1.0451-2.0373 1.0451-6.0986 0-4.0746-1.0451-6.0986-1.0319-2.0373-3.1088-2.0373zm0-2.1167q3.3205 0 5.0668 2.6326 1.7595 2.6194 1.7595 7.62 0 4.9874-1.7595 7.62-1.7462 2.6194-5.0668 2.6194t-5.08-2.6194q-1.7462-2.6326-1.7462-7.62 0-5.0006 1.7462-7.62 1.7595-2.6326 5.08-2.6326z" style=""/>
  </g>
  <g id="text86" aria-label="4">
   <path id="path151" d="m511.61 321.95-6.7469 10.544h6.7469zm-0.70115-2.3283h3.3602v12.872h2.8178v2.2225h-2.8178v4.6567h-2.6591v-4.6567h-8.9164v-2.5797z" style=""/>
  </g>
  <g id="g92" stroke="#f62e2e" stroke-width="2">
   <path id="path88" d="m440 330h30.264" fill="none"/>
   <path id="polygon90" d="m470.26 330-2.5-5 10 5-10 5z" fill="#f62e2e" fill-rule="evenodd"/>
  </g>
  <g id="g98" stroke="#f62e2e" stroke-width="2">
   <path id="path94" d="M 493.116,216.884 C 490,220 460,250 510,270 c 50,20 60,40 30,60" fill="none"/>
   <path id="polygon96" d="m493.12 216.88-5.304-1.767 10.607-3.536-3.536 10.607z" fill="#f62e2e" fill-rule="evenodd"/>
  </g>
  <g id="text102" fill="#173b8f" aria-label="(3)">
   <path id="path156" d="m379.99 377.54q-1.1818 2.0285-1.7551 4.0128-0.57327 1.9844-0.57327 4.0217t0.57327 4.0393q0.58208 1.9932 1.7551 4.0128h-1.4111q-1.3229-2.0726-1.9844-4.0746-0.65264-2.002-0.65264-3.9776 0-1.9667 0.65264-3.9599t1.9844-4.0746z" style=""/>
   <path id="path158" d="m388.77 384.15q1.2788 0.2734 1.9932 1.1377 0.7232 0.86431 0.7232 2.1343 0 1.9491-1.3406 3.0162-1.3406 1.0672-3.81 1.0672-0.82903 0-1.711-0.16757-0.87313-0.15875-1.808-0.48506v-1.7198q0.74084 0.43215 1.6228 0.65263 0.88194 0.22049 1.8433 0.22049 1.6757 0 2.5488-0.66146 0.88194-0.66146 0.88194-1.9226 0-1.1642-0.82021-1.8168-0.81138-0.66146-2.2666-0.66146h-1.5346v-1.464h1.6051q1.3141 0 2.0108-0.52035 0.69674-0.52916 0.69674-1.5169 0-1.0142-0.72319-1.5522-0.71438-0.54681-2.0549-0.54681-0.73201 0-1.5699 0.15875t-1.8433 0.49389v-1.5875q1.0142-0.28222 1.8962-0.42333 0.89076-0.14111 1.6757-0.14111 2.0285 0 3.2103 0.92604 1.1818 0.91722 1.1818 2.4871 0 1.0936-0.62618 1.8521-0.62618 0.74965-1.7815 1.0407z" style=""/>
   <path id="path160" d="m394.39 377.54h1.4111q1.3229 2.0814 1.9756 4.0746 0.66146 1.9932 0.66146 3.9599 0 1.9756-0.66146 3.9776-0.65263 2.002-1.9756 4.0746h-1.4111q1.173-2.0196 1.7462-4.0128 0.58208-2.002 0.58208-4.0393t-0.58208-4.0217q-0.57326-1.9844-1.7462-4.0128z" style=""/>
  </g>
  <g id="text106" fill="#173b8f" aria-label="(4)">
   <path id="path163" d="m452.79 301.99q-1.1818 2.0285-1.7551 4.0128-0.57327 1.9844-0.57327 4.0217t0.57327 4.0393q0.58208 1.9932 1.7551 4.0128h-1.4111q-1.3229-2.0726-1.9844-4.0746-0.65264-2.002-0.65264-3.9776 0-1.9667 0.65264-3.9599t1.9844-4.0746z" style=""/>
   <path id="path165" d="m461.08 304.08-4.4979 7.0291h4.4979zm-0.46743-1.5522h2.2401v8.5813h1.8785v1.4817h-1.8785v3.1044h-1.7727v-3.1044h-5.9443v-1.7198z" style=""/>
   <path id="path167" d="m467.2 301.99h1.4111q1.3229 2.0814 1.9756 4.0746 0.66146 1.9932 0.66146 3.9599 0 1.9756-0.66146 3.9776-0.65264 2.002-1.9756 4.0746h-1.4111q1.173-2.0196 1.7462-4.0128 0.58208-2.002 0.58208-4.0393t-0.58208-4.0217q-0.57327-1.9844-1.7462-4.0128z" style=""/>
  </g>
  <g id="g112" stroke="#000" stroke-width="2">
   <path id="line108" d="m390 150v20.264" fill="none"/>
   <path id="polygon110" d="m390 170.26 5-2.5-5 10-5-10z" fill-rule="evenodd"/>
  </g>
  <g id="text116" aria-label="iter">
   <path id="path172" d="m376.37 115.82h1.6228v9.8778h-1.6228zm0-3.8453h1.6228v2.0549h-1.6228z" style=""/>
   <path id="path174" d="m382.99 113.02v2.8046h3.3426v1.2612h-3.3426v5.3622q0 1.2083 0.32632 1.5522 0.33514 0.34395 1.3494 0.34395h1.6669v1.3582h-1.6669q-1.8785 0-2.5929-0.69674-0.71438-0.70555-0.71438-2.5576v-5.3622h-1.1906v-1.2612h1.1906v-2.8046z" style=""/>
   <path id="path176" d="m396.92 120.36v0.79375h-7.4612q0.10584 1.6757 1.0054 2.5576 0.9084 0.87313 2.5224 0.87313 0.93486 0 1.808-0.22931 0.88195-0.2293 1.7462-0.68791v1.5346q-0.87312 0.37042-1.7903 0.56444-0.91723 0.19403-1.8609 0.19403-2.3636 0-3.7482-1.3758-1.3758-1.3758-1.3758-3.7218 0-2.4254 1.3053-3.8453 1.3141-1.4287 3.5366-1.4287 1.9932 0 3.1485 1.2876 1.1642 1.2788 1.1642 3.4837zm-1.6228-0.47625q-0.0176-1.3317-0.74965-2.1255-0.7232-0.79375-1.9226-0.79375-1.3582 0-2.1784 0.76729-0.81139 0.76729-0.93486 2.1608z" style=""/>
   <path id="path178" d="m405.31 117.34q-0.27341-0.15875-0.59972-0.2293-0.3175-0.0794-0.70556-0.0794-1.3758 0-2.1167 0.89959-0.73202 0.89076-0.73202 2.5664v5.2035h-1.6316v-9.8778h1.6316v1.5346q0.51153-0.89958 1.3317-1.3317 0.82021-0.44097 1.9932-0.44097 0.16757 0 0.37042 0.0265 0.20284 0.0176 0.44979 0.0617z" style=""/>
  </g>
  <path id="rect118" d="m600 180h60v60h-60z" fill="#7babe3" stroke="#000" stroke-width="2"/>
  <g id="text122" aria-label="1">
   <path id="path182" d="m624.73 217.13h4.3656v-15.068l-4.7493 0.9525v-2.4342l4.7228-0.9525h2.6723v17.502h4.3656v2.249h-11.377z" style=""/>
  </g>
  <g id="g128" stroke="#808080" stroke-width="2">
   <path id="path124" d="m390 150c10 20 53-10 70 60s50 60 50 80.264" fill="none"/>
   <path id="polygon126" d="m510 290.26 5-2.5-5 10-5-10z" fill="#808080" fill-rule="evenodd"/>
  </g>
  <g id="text132" fill="#808080" aria-label="(6)">
   <path id="path186" d="m445.6 141.99q-1.1818 2.0285-1.7551 4.0128-0.57326 1.9844-0.57326 4.0217t0.57326 4.0393q0.58209 1.9932 1.7551 4.0128h-1.4111q-1.3229-2.0726-1.9844-4.0746-0.65264-2.002-0.65264-3.9776 0-1.9667 0.65264-3.9599 0.65264-1.9932 1.9844-4.0746z" style=""/>
   <path id="path188" d="m453.02 148.41q-1.1994 0-1.905 0.8202-0.69674 0.82021-0.69674 2.249 0 1.4199 0.69674 2.249 0.70555 0.82021 1.905 0.82021 1.1994 0 1.8962-0.82021 0.70556-0.82902 0.70556-2.249 0-1.4288-0.70556-2.249-0.69673-0.8202-1.8962-0.8202zm3.5366-5.5827v1.6228q-0.67028-0.3175-1.3582-0.48507-0.67909-0.16757-1.3494-0.16757-1.7639 0-2.6988 1.1906-0.92604 1.1906-1.0583 3.5983 0.52035-0.76729 1.3053-1.173 0.78493-0.41451 1.7286-0.41451 1.9844 0 3.1309 1.2083 1.1553 1.1994 1.1553 3.272 0 2.0285-1.1994 3.2544t-3.1926 1.2259q-2.2842 0-3.4925-1.7462-1.2083-1.7551-1.2083-5.08 0-3.1221 1.4817-4.9742 1.4817-1.8609 3.9776-1.8609 0.67027 0 1.3494 0.13229 0.68792 0.13229 1.4288 0.39687z" style=""/>
   <path id="path190" d="m460 141.99h1.4111q1.3229 2.0814 1.9756 4.0746 0.66146 1.9932 0.66146 3.9599 0 1.9756-0.66146 3.9776-0.65264 2.002-1.9756 4.0746h-1.4111q1.173-2.0196 1.7462-4.0128 0.58209-2.002 0.58209-4.0393t-0.58209-4.0217q-0.57326-1.9844-1.7462-4.0128z" style=""/>
  </g>
  <g id="g138" stroke="#f62e2e" stroke-width="2">
   <path id="line134" d="m410 400v-20.264" fill="none"/>
   <path id="polygon136" d="m410 379.74-5 2.5 5-10 5 10z" fill="#f62e2e" fill-rule="evenodd"/>
  </g>
  <g id="g144" stroke="#f62e2e" stroke-width="2">
   <path id="line140" d="m510 400v-20.264" fill="none"/>
   <path id="polygon142" d="m510 379.74-5 2.5 5-10 5 10z" fill="#f62e2e" fill-rule="evenodd"/>
  </g>
  <g id="text148" aria-label="újnulla">
   <path id="path197" d="m381.28 432.9v-5.9796h1.6228v5.9178q0 1.4023 0.5468 2.1078 0.54681 0.69673 1.6404 0.69673 1.3141 0 2.0726-0.83784 0.76729-0.83785 0.76729-2.2842v-5.6003h1.6228v9.8778h-1.6228v-1.5169q-0.59091 0.89958-1.3758 1.3406-0.77611 0.43215-1.808 0.43215-1.7022 0-2.5841-1.0583-0.88195-1.0583-0.88195-3.0956zm4.0834-6.2177zm1.2083-4.3303h1.7551l-2.8751 3.3161h-1.3494z" style=""/>
   <path id="path199" d="m392.92 426.92h1.6228v10.054q0 1.8874-0.72319 2.734-0.71437 0.84667-2.3107 0.84667h-0.61736v-1.3758h0.43215q0.92604 0 1.2612-0.43215 0.33514-0.42333 0.33514-1.7727zm0-3.8453h1.6228v2.0549h-1.6228z" style=""/>
   <path id="path201" d="m406.14 430.84v5.9619h-1.6228v-5.909q0-1.4023-0.5468-2.099-0.54681-0.69673-1.6404-0.69673-1.3141 0-2.0726 0.83784-0.75848 0.83785-0.75848 2.2842v5.5827h-1.6316v-9.8778h1.6316v1.5346q0.58209-0.89076 1.367-1.3317 0.79375-0.44097 1.8256-0.44097 1.7022 0 2.5753 1.0583 0.87313 1.0495 0.87313 3.0956z" style=""/>
   <path id="path203" d="m409.22 432.9v-5.9796h1.6228v5.9178q0 1.4023 0.5468 2.1078 0.54681 0.69673 1.6404 0.69673 1.3141 0 2.0726-0.83784 0.76729-0.83785 0.76729-2.2842v-5.6003h1.6228v9.8778h-1.6228v-1.5169q-0.5909 0.89958-1.3758 1.3406-0.77611 0.43215-1.808 0.43215-1.7022 0-2.5841-1.0583-0.88194-1.0583-0.88194-3.0956zm4.0834-6.2177z" style=""/>
   <path id="path205" d="m420.86 423.08h1.6228v13.723h-1.6228z" style=""/>
   <path id="path207" d="m425.87 423.08h1.6228v13.723h-1.6228z" style=""/>
   <path id="path209" d="m435.36 431.83q-1.9667 0-2.7252 0.44979t-0.75847 1.5346q0 0.8643 0.56444 1.3758 0.57327 0.50271 1.5522 0.50271 1.3494 0 2.1608-0.9525 0.82021-0.96132 0.82021-2.5488v-0.36159zm3.2367-0.67028v5.6356h-1.6228v-1.4993q-0.55562 0.89959-1.3846 1.3317-0.82903 0.42333-2.0285 0.42333-1.5169 0-2.4165-0.84666-0.89077-0.85549-0.89077-2.2842 0-1.6669 1.1112-2.5135 1.1201-0.84666 3.3338-0.84666h2.2754v-0.15875q0-1.1201-0.74083-1.7286-0.73201-0.61736-2.0638-0.61736-0.84666 0-1.6492 0.20285-0.80257 0.20284-1.5434 0.60854v-1.4993q0.89076-0.34395 1.7286-0.51152 0.83784-0.17639 1.6316-0.17639 2.1431 0 3.2015 1.1112 1.0583 1.1112 1.0583 3.369z" style=""/>
  </g>
  <g id="text152" aria-label="újszám">
   <path id="path212" d="m479.5 432.9v-5.9796h1.6228v5.9178q0 1.4023 0.54681 2.1078 0.5468 0.69673 1.6404 0.69673 1.3141 0 2.0726-0.83784 0.76729-0.83785 0.76729-2.2842v-5.6003h1.6228v9.8778h-1.6228v-1.5169q-0.5909 0.89958-1.3758 1.3406-0.77611 0.43215-1.808 0.43215-1.7022 0-2.5841-1.0583t-0.88194-3.0956zm4.0834-6.2177zm1.2083-4.3303h1.7551l-2.8751 3.3161h-1.3494z" style=""/>
   <path id="path214" d="m491.14 426.92h1.6228v10.054q0 1.8874-0.7232 2.734-0.71437 0.84667-2.3107 0.84667h-0.61736v-1.3758h0.43215q0.92604 0 1.2612-0.43215 0.33514-0.42333 0.33514-1.7727zm0-3.8453h1.6228v2.0549h-1.6228z" style=""/>
   <path id="path216" d="m502.44 427.21v1.5346q-0.68792-0.35277-1.4288-0.52916-0.74084-0.17639-1.5346-0.17639-1.2083 0-1.8168 0.37042-0.59972 0.37041-0.59972 1.1112 0 0.56445 0.43215 0.89077 0.43216 0.3175 1.7374 0.60854l0.55563 0.12347q1.7286 0.37042 2.4518 1.0495 0.73201 0.67028 0.73201 1.8785 0 1.3758-1.0936 2.1784-1.0848 0.80257-2.9898 0.80257-0.79375 0-1.658-0.15875-0.85548-0.14993-1.808-0.45861v-1.6757q0.89958 0.46743 1.7727 0.70555 0.87313 0.22931 1.7286 0.22931 1.1465 0 1.7639-0.38806 0.61736-0.39687 0.61736-1.1112 0-0.66145-0.44979-1.0142-0.44097-0.35278-1.9491-0.6791l-0.56444-0.13229q-1.5081-0.3175-2.1784-0.97014-0.67028-0.66145-0.67028-1.808 0-1.3935 0.98778-2.1519 0.98777-0.75847 2.8046-0.75847 0.89958 0 1.6933 0.13229t1.464 0.39687z" style=""/>
   <path id="path218" d="m504.86 426.92h7.7082v1.4817l-6.103 7.0996h6.103v1.2965h-7.9287v-1.4817l6.103-7.0996h-5.8826z" style=""/>
   <path id="path220" d="m519.54 431.83q-1.9667 0-2.7252 0.44979t-0.75847 1.5346q0 0.8643 0.56444 1.3758 0.57327 0.50271 1.5522 0.50271 1.3494 0 2.1608-0.9525 0.8202-0.96132 0.8202-2.5488v-0.36159zm3.2367-0.67028v5.6356h-1.6228v-1.4993q-0.55562 0.89959-1.3846 1.3317-0.82902 0.42333-2.0285 0.42333-1.5169 0-2.4165-0.84666-0.89077-0.85549-0.89077-2.2842 0-1.6669 1.1112-2.5135 1.1201-0.84666 3.3338-0.84666h2.2754v-0.15875q0-1.1201-0.74083-1.7286-0.73201-0.61736-2.0638-0.61736-0.84666 0-1.6492 0.20285-0.80257 0.20284-1.5434 0.60854v-1.4993q0.89076-0.34395 1.7286-0.51152 0.83784-0.17639 1.6316-0.17639 2.1431 0 3.2015 1.1112 1.0583 1.1112 1.0583 3.369zm-2.9633-8.8106h1.7551l-2.8751 3.3161h-1.3494z" style=""/>
   <path id="path222" d="m533.82 428.82q0.60854-1.0936 1.4552-1.614 0.84666-0.52034 1.9932-0.52034 1.5434 0 2.3812 1.0848 0.83784 1.076 0.83784 3.0692v5.9619h-1.6316v-5.909q0-1.4199-0.50271-2.1078-0.50271-0.68791-1.5346-0.68791-1.2612 0-1.9932 0.83784-0.73202 0.83785-0.73202 2.2842v5.5827h-1.6316v-5.909q0-1.4288-0.50271-2.1078-0.50271-0.68791-1.5522-0.68791-1.2435 0-1.9756 0.84666-0.73202 0.83785-0.73202 2.2754v5.5827h-1.6316v-9.8778h1.6316v1.5346q0.55563-0.9084 1.3317-1.3406t1.8433-0.43215q1.076 0 1.8256 0.5468 0.75847 0.54681 1.1201 1.5875z" style=""/>
  </g>
  <path id="rect154" d="m380 130h20v20h-20z" fill="#fdfd04" stroke="#000" stroke-width="2"/>
  <path id="rect156" d="m400 400h20v20h-20z" fill="#fdfd04" stroke="#000" stroke-width="2"/>
  <path id="rect158" d="m500 400h20v20h-20z" fill="#fdfd04" stroke="#000" stroke-width="2"/>
  <path id="rect160" d="m260 230h60v20h-60z" fill="#fdfd04" stroke="#000" stroke-width="2"/>
  <path id="rect162" d="m360 230h60v20h-60z" fill="#fdfd04" stroke="#000" stroke-width="2"/>
  <path id="rect164" d="m500 230h60v20h-60z" fill="#fdfd04" stroke="#000" stroke-width="2"/>
  <path id="rect166" d="m600 230h60v20h-60z" fill="#fdfd04" stroke="#000" stroke-width="2"/>
  <path id="line168" d="m660 230-60 20" fill="none" stroke="#000" stroke-width="2"/>
  <path id="line170" d="m660 250-60-20" fill="none" stroke="#000" stroke-width="2"/>
  <path id="rect172" d="m380 350h60v20h-60z" fill="#fdfd04" stroke="#000" stroke-width="2"/>
  <path id="rect174" d="m480 350h60v20h-60z" fill="#fdfd04" stroke="#000" stroke-width="2"/>
 </g>
</svg>
