<?xml version="1.0" encoding="UTF-8"?>
<svg id="svg165" width="22.889cm" height="13.425cm" version="1.1" viewBox="96 108 442.85 252.2" xmlns="http://www.w3.org/2000/svg" xmlns:cc="http://creativecommons.org/ns#" xmlns:dc="http://purl.org/dc/elements/1.1/" xmlns:rdf="http://www.w3.org/1999/02/22-rdf-syntax-ns#">
 <metadata id="metadata169">
  <rdf:RDF>
   <cc:Work rdf:about="">
    <dc:format>image/svg+xml</dc:format>
    <dc:type rdf:resource="http://purl.org/dc/dcmitype/StillImage"/>
   </cc:Work>
  </rdf:RDF>
 </metadata>
 <g id="Háttér" transform="translate(-2.1519 -7.027)">
  <g id="g8" stroke="#000" stroke-width="2">
   <path id="path4" d="m240 210h30.264" fill="none"/>
   <path id="polygon6" d="m270.26 210-2.5-5 10 5-10 5z" fill-rule="evenodd"/>
  </g>
  <path id="rect10" d="m380 180h60v60h-60z" fill="#7babe3" stroke="#000" stroke-width="2"/>
  <path id="rect12" d="m480 180h60v60h-60z" fill="#7babe3" stroke="#000" stroke-width="2"/>
  <path id="rect14" d="m280 180h60v60h-60z" fill="#7be38e" stroke="#000" stroke-width="2"/>
  <path id="rect16" d="m220 200h20v20h-20z" fill="#fdfd04" stroke="#000" stroke-width="2"/>
  <g id="g22" stroke="#f62e2e" stroke-width="2">
   <path id="path18" d="m240 210c30-30 10-50 70-50s39 20 63.004 43.229" fill="none"/>
   <path id="polygon20" d="m373 203.23 1.68-5.331 3.709 10.547-10.663-3.361z" fill="#f62e2e" fill-rule="evenodd"/>
  </g>
  <g id="g28" stroke="#000" stroke-width="2">
   <path id="path24" d="m440 210h30.264" fill="none"/>
   <path id="polygon26" d="m470.26 210-2.5-5 10 5-10 5z" fill-rule="evenodd"/>
  </g>
  <g id="text32" aria-label="5">
   <path id="path95" d="m504.3 199.62h10.491v2.249h-8.0433v4.8419q0.58208-0.19843 1.1642-0.29104 0.58209-0.10583 1.1642-0.10583 3.3073 0 5.2387 1.8124 1.9315 1.8124 1.9315 4.908 0 3.1882-1.9844 4.9609-1.9844 1.7595-5.5959 1.7595-1.2435 0-2.54-0.21167-1.2832-0.21167-2.6591-0.635v-2.6855q1.1906 0.64823 2.4606 0.96573t2.6855 0.3175q2.2886 0 3.6248-1.2038 1.3361-1.2039 1.3361-3.2676 0-2.0638-1.3361-3.2676-1.3362-1.2039-3.6248-1.2039-1.0716 0-2.1431 0.23813-1.0583 0.23812-2.1696 0.74083z" style=""/>
  </g>
  <g id="text36" aria-label="4">
   <path id="path98" d="m411.61 201.95-6.7469 10.544h6.7469zm-0.70115-2.3283h3.3602v12.872h2.8178v2.2225h-2.8178v4.6567h-2.6591v-4.6567h-8.9164v-2.5797z" style=""/>
  </g>
  <g id="text40" aria-label="3">
   <path id="path101" d="m312.37 208.73q1.9182 0.41011 2.9898 1.7066 1.0848 1.2965 1.0848 3.2015 0 2.9236-2.0108 4.5244-2.0108 1.6007-5.715 1.6007-1.2435 0-2.5664-0.25136-1.3097-0.23812-2.712-0.7276v-2.5797q1.1112 0.64823 2.4342 0.97896 1.3229 0.33073 2.7649 0.33073 2.5135 0 3.8232-0.99219 1.3229-0.99218 1.3229-2.884 0-1.7462-1.2303-2.7252-1.2171-0.99218-3.3999-0.99218h-2.3019v-2.196h2.4077q1.9711 0 3.0162-0.78052 1.0451-0.79375 1.0451-2.2754 0-1.5214-1.0848-2.3283-1.0716-0.8202-3.0824-0.8202-1.098 0-2.3548 0.23812-1.2568 0.23813-2.7649 0.74083v-2.3812q1.5214-0.42334 2.8443-0.635 1.3361-0.21167 2.5135-0.21167 3.0427 0 4.8154 1.3891 1.7727 1.3758 1.7727 3.7306 0 1.6404-0.93927 2.7781-0.93927 1.1245-2.6723 1.561z" style=""/>
  </g>
  <g id="text44" fill="#173b8f" aria-label="(2)">
   <path id="path104" d="m229.99 266.29q-1.1818 2.0285-1.7551 4.0128-0.57327 1.9844-0.57327 4.0217t0.57327 4.0393q0.58208 1.9932 1.7551 4.0128h-1.4111q-1.3229-2.0726-1.9844-4.0746-0.65264-2.002-0.65264-3.9776 0-1.9667 0.65264-3.9599t1.9844-4.0746z" style=""/>
   <path id="path106" d="m234.91 278.5h6.2177v1.4993h-8.3608v-1.4993q1.0142-1.0495 2.7605-2.8134 1.7551-1.7727 2.2049-2.2842 0.85548-0.96131 1.1906-1.6228 0.34396-0.67028 0.34396-1.3141 0-1.0495-0.74083-1.711-0.73202-0.66146-1.9138-0.66146-0.83785 0-1.7727 0.29105-0.92604 0.29104-1.9844 0.88194v-1.7992q1.076-0.43215 2.0108-0.65263 0.93486-0.22049 1.711-0.22049 2.0461 0 3.2632 1.023 1.2171 1.0231 1.2171 2.734 0 0.81139-0.30868 1.5434-0.29986 0.72319-1.1024 1.711-0.22048 0.25576-1.4023 1.4817-1.1818 1.2171-3.3337 3.4131z" style=""/>
   <path id="path108" d="m244.39 266.29h1.4111q1.3229 2.0814 1.9756 4.0746 0.66146 1.9932 0.66146 3.9599 0 1.9756-0.66146 3.9776-0.65263 2.002-1.9756 4.0746h-1.4111q1.173-2.0196 1.7462-4.0128 0.58208-2.002 0.58208-4.0393t-0.58208-4.0217q-0.57326-1.9844-1.7462-4.0128z" style=""/>
  </g>
  <g id="text48" fill="#173b8f" aria-label="(1)">
   <path id="path111" d="m375.6 266.29q-1.1818 2.0285-1.7551 4.0128-0.57326 1.9844-0.57326 4.0217t0.57326 4.0393q0.58209 1.9932 1.7551 4.0128h-1.4111q-1.3229-2.0726-1.9844-4.0746-0.65264-2.002-0.65264-3.9776 0-1.9667 0.65264-3.9599t1.9844-4.0746z" style=""/>
   <path id="path113" d="m379.3 278.5h2.9104v-10.045l-3.1662 0.635v-1.6228l3.1485-0.63499h1.7815v11.668h2.9104v1.4993h-7.5847z" style=""/>
   <path id="path115" d="m390 266.29h1.4111q1.3229 2.0814 1.9756 4.0746 0.66146 1.9932 0.66146 3.9599 0 1.9756-0.66146 3.9776-0.65264 2.002-1.9756 4.0746h-1.4111q1.173-2.0196 1.7462-4.0128 0.58209-2.002 0.58209-4.0393t-0.58209-4.0217q-0.57326-1.9844-1.7462-4.0128z" style=""/>
  </g>
  <g id="text52" fill="#173b8f" aria-label="(3)">
   <path id="path118" d="m239.99 156.29q-1.1818 2.0285-1.7551 4.0128-0.57327 1.9844-0.57327 4.0217t0.57327 4.0393q0.58208 1.9932 1.7551 4.0128h-1.4111q-1.3229-2.0726-1.9844-4.0746-0.65264-2.002-0.65264-3.9776 0-1.9667 0.65264-3.9599t1.9844-4.0746z" style=""/>
   <path id="path120" d="m248.77 162.9q1.2788 0.2734 1.9932 1.1377 0.7232 0.86431 0.7232 2.1343 0 1.9491-1.3406 3.0162-1.3406 1.0672-3.81 1.0672-0.82903 0-1.711-0.16757-0.87313-0.15875-1.808-0.48506v-1.7198q0.74084 0.43215 1.6228 0.65263 0.88194 0.22049 1.8433 0.22049 1.6757 0 2.5488-0.66146 0.88194-0.66146 0.88194-1.9226 0-1.1642-0.82021-1.8168-0.81138-0.66146-2.2666-0.66146h-1.5346v-1.464h1.6051q1.3141 0 2.0108-0.52035 0.69674-0.52916 0.69674-1.5169 0-1.0142-0.72319-1.5522-0.71438-0.54681-2.0549-0.54681-0.73201 0-1.5699 0.15875t-1.8433 0.49389v-1.5875q1.0142-0.28222 1.8962-0.42333 0.89076-0.14111 1.6757-0.14111 2.0285 0 3.2103 0.92604 1.1818 0.91722 1.1818 2.4871 0 1.0936-0.62618 1.8521-0.62618 0.74965-1.7815 1.0407z" style=""/>
   <path id="path122" d="m254.39 156.29h1.4111q1.3229 2.0814 1.9756 4.0746 0.66146 1.9932 0.66146 3.9599 0 1.9756-0.66146 3.9776-0.65263 2.002-1.9756 4.0746h-1.4111q1.173-2.0196 1.7462-4.0128 0.58208-2.002 0.58208-4.0393t-0.58208-4.0217q-0.57326-1.9844-1.7462-4.0128z" style=""/>
  </g>
  <path id="rect54" d="m380 300h60v60h-60z" fill="#7babe3" stroke="#000" stroke-width="2"/>
  <path id="rect56" d="m480 300h60v60h-60z" fill="#7babe3" stroke="#000" stroke-width="2"/>
  <g id="g62" stroke="#000" stroke-width="2">
   <path id="path58" d="m440 330h30.264" fill="none"/>
   <path id="polygon60" d="m470.26 330-2.5-5 10 5-10 5z" fill-rule="evenodd"/>
  </g>
  <g id="text66" aria-label="1">
   <path id="path128" d="m504.73 337.13h4.3656v-15.068l-4.7493 0.9525v-2.4342l4.7228-0.9525h2.6723v17.502h4.3656v2.249h-11.377z" style=""/>
  </g>
  <g id="text70" aria-label="2">
   <path id="path131" d="m406.57 337.13h9.3266v2.249h-12.541v-2.249q1.5214-1.5743 4.1407-4.2201 2.6326-2.6591 3.3073-3.4264 1.2832-1.442 1.7859-2.4342 0.51594-1.0054 0.51594-1.9711 0-1.5743-1.1112-2.5665-1.098-0.99218-2.8707-0.99218-1.2568 0-2.6591 0.43656-1.3891 0.43656-2.9766 1.3229v-2.6987q1.614-0.64823 3.0162-0.97896t2.5665-0.33073q3.0692 0 4.8948 1.5346 1.8256 1.5346 1.8256 4.101 0 1.2171-0.46302 2.3151-0.44979 1.0848-1.6536 2.5665-0.33072 0.38364-2.1034 2.2225-1.7727 1.8256-5.0006 5.1197z" style=""/>
  </g>
  <g id="g76" stroke="#000" stroke-width="2">
   <path id="path72" d="m340 210h30.264" fill="none"/>
   <path id="polygon74" d="m370.26 210-2.5-5 10 5-10 5z" fill-rule="evenodd"/>
  </g>
  <path id="rect78" d="m220 320h20v20h-20z" fill="#fdfd04" stroke="#000" stroke-width="2"/>
  <g id="g84" stroke="#f62e2e" stroke-width="2">
   <path id="path80" d="m240 330c30 0 10-90 33.116-113.12" fill="none"/>
   <path id="polygon82" d="m273.12 216.88-5.304-1.767 10.607-3.536-3.536 10.607z" fill="#f62e2e" fill-rule="evenodd"/>
  </g>
  <g id="g90" stroke="#f62e2e" stroke-width="2">
   <path id="path86" d="m340 210c30 0 10 90 33.116 113.12" fill="none"/>
   <path id="polygon88" d="m373.12 323.12 1.767-5.304 3.536 10.607-10.607-3.536z" fill="#f62e2e" fill-rule="evenodd"/>
  </g>
  <g id="text94" aria-label="eredeti">
   <path id="path138" d="m156.19 210.91v0.79375h-7.4612q0.10584 1.6757 1.0054 2.5576 0.9084 0.87312 2.5224 0.87312 0.93486 0 1.808-0.2293 0.88194-0.22931 1.7462-0.68792v1.5346q-0.87313 0.37042-1.7904 0.56445-0.91722 0.19402-1.8609 0.19402-2.3636 0-3.7483-1.3758-1.3758-1.3758-1.3758-3.7218 0-2.4253 1.3053-3.8453 1.3141-1.4288 3.5366-1.4288 1.9932 0 3.1485 1.2876 1.1642 1.2788 1.1642 3.4837zm-1.6228-0.47625q-0.0176-1.3317-0.74965-2.1255-0.7232-0.79375-1.9226-0.79375-1.3582 0-2.1784 0.76729-0.81139 0.76729-0.93486 2.1608z" style=""/>
   <path id="path140" d="m164.58 207.89q-0.27341-0.15875-0.59973-0.22931-0.3175-0.0794-0.70555-0.0794-1.3758 0-2.1167 0.89958-0.73202 0.89076-0.73202 2.5664v5.2035h-1.6316v-9.8778h1.6316v1.5346q0.51153-0.89959 1.3317-1.3317 0.8202-0.44097 1.9932-0.44097 0.16757 0 0.37042 0.0265 0.20284 0.0176 0.44979 0.0617z" style=""/>
   <path id="path142" d="m174.36 210.91v0.79375h-7.4612q0.10583 1.6757 1.0054 2.5576 0.9084 0.87312 2.5224 0.87312 0.93486 0 1.808-0.2293 0.88195-0.22931 1.7462-0.68792v1.5346q-0.87312 0.37042-1.7903 0.56445-0.91722 0.19402-1.8609 0.19402-2.3636 0-3.7483-1.3758-1.3758-1.3758-1.3758-3.7218 0-2.4253 1.3053-3.8453 1.3141-1.4288 3.5366-1.4288 1.9932 0 3.1485 1.2876 1.1642 1.2788 1.1642 3.4837zm-1.6228-0.47625q-0.0176-1.3317-0.74965-2.1255-0.72319-0.79375-1.9226-0.79375-1.3582 0-2.1784 0.76729-0.81138 0.76729-0.93486 2.1608z" style=""/>
   <path id="path144" d="m183.52 207.87v-5.3446h1.6228v13.723h-1.6228v-1.4817q-0.51153 0.88194-1.2965 1.3141-0.77611 0.42333-1.8697 0.42333-1.7903 0-2.9192-1.4287-1.1201-1.4288-1.1201-3.7571t1.1201-3.7571q1.1289-1.4288 2.9192-1.4288 1.0936 0 1.8697 0.43215 0.78493 0.42333 1.2965 1.3053zm-5.5298 3.4484q0 1.7903 0.73201 2.8134 0.74083 1.0142 2.0285 1.0142t2.0285-1.0142q0.74083-1.0231 0.74083-2.8134 0-1.7904-0.74083-2.8046-0.74083-1.0231-2.0285-1.0231t-2.0285 1.0231q-0.73201 1.0142-0.73201 2.8046z" style=""/>
   <path id="path146" d="m196.94 210.91v0.79375h-7.4612q0.10583 1.6757 1.0054 2.5576 0.9084 0.87312 2.5224 0.87312 0.93486 0 1.808-0.2293 0.88194-0.22931 1.7462-0.68792v1.5346q-0.87312 0.37042-1.7903 0.56445-0.91722 0.19402-1.8609 0.19402-2.3636 0-3.7483-1.3758-1.3758-1.3758-1.3758-3.7218 0-2.4253 1.3053-3.8453 1.3141-1.4288 3.5366-1.4288 1.9932 0 3.1485 1.2876 1.1642 1.2788 1.1642 3.4837zm-1.6228-0.47625q-0.0176-1.3317-0.74965-2.1255-0.72319-0.79375-1.9226-0.79375-1.3582 0-2.1784 0.76729-0.81138 0.76729-0.93486 2.1608z" style=""/>
   <path id="path148" d="m201.21 203.57v2.8046h3.3426v1.2612h-3.3426v5.3622q0 1.2083 0.32631 1.5522 0.33514 0.34396 1.3494 0.34396h1.6669v1.3582h-1.6669q-1.8785 0-2.5929-0.69674-0.71437-0.70555-0.71437-2.5576v-5.3622h-1.1906v-1.2612h1.1906v-2.8046z" style=""/>
   <path id="path150" d="m206.69 206.37h1.6228v9.8778h-1.6228zm0-3.8453h1.6228v2.0549h-1.6228z" style=""/>
  </g>
  <g id="text98" aria-label="megfordított">
   <path id="path153" d="m105.9 328.27q0.60854-1.0936 1.4552-1.614 0.84666-0.52035 1.9932-0.52035 1.5434 0 2.3812 1.0848 0.83784 1.076 0.83784 3.0692v5.9619h-1.6316v-5.909q0-1.4199-0.50271-2.1078-0.50271-0.68791-1.5346-0.68791-1.2612 0-1.9932 0.83784-0.73202 0.83785-0.73202 2.2842v5.5827h-1.6316v-5.909q0-1.4288-0.50271-2.1078-0.50271-0.68791-1.5522-0.68791-1.2435 0-1.9756 0.84666-0.73202 0.83785-0.73202 2.2754v5.5827h-1.6316v-9.8778h1.6316v1.5346q0.55562-0.90841 1.3317-1.3406t1.8433-0.43215q1.076 0 1.8256 0.5468 0.75848 0.54681 1.1201 1.5875z" style=""/>
   <path id="path155" d="m124.27 330.91v0.79375h-7.4612q0.10584 1.6757 1.0054 2.5576 0.9084 0.87312 2.5224 0.87312 0.93486 0 1.808-0.2293 0.88194-0.22931 1.7462-0.68792v1.5346q-0.87313 0.37042-1.7904 0.56445-0.91722 0.19402-1.8609 0.19402-2.3636 0-3.7483-1.3758-1.3758-1.3758-1.3758-3.7218 0-2.4253 1.3053-3.8453 1.3141-1.4288 3.5366-1.4288 1.9932 0 3.1485 1.2876 1.1642 1.2788 1.1642 3.4837zm-1.6228-0.47625q-0.0176-1.3317-0.74965-2.1255-0.7232-0.79375-1.9226-0.79375-1.3582 0-2.1784 0.76729-0.81139 0.76729-0.93486 2.1608z" style=""/>
   <path id="path157" d="m133.43 331.2q0-1.7639-0.73201-2.734-0.72319-0.97014-2.0373-0.97014-1.3053 0-2.0373 0.97014-0.72319 0.97014-0.72319 2.734 0 1.7551 0.72319 2.7252 0.73202 0.97014 2.0373 0.97014 1.3141 0 2.0373-0.97014 0.73201-0.97014 0.73201-2.7252zm1.6228 3.8276q0 2.5224-1.1201 3.7483-1.1201 1.2347-3.4308 1.2347-0.85548 0-1.614-0.13229-0.75848-0.12347-1.4728-0.38806v-1.5787q0.71437 0.38806 1.4111 0.57327 0.69674 0.1852 1.4199 0.1852 1.5963 0 2.3901-0.83784 0.79374-0.82903 0.79374-2.5135v-0.80257q-0.5027 0.87313-1.2876 1.3053t-1.8785 0.43215q-1.8168 0-2.928-1.3846-1.1112-1.3846-1.1112-3.6689 0-2.293 1.1112-3.6777 1.1112-1.3846 2.928-1.3846 1.0936 0 1.8785 0.43215t1.2876 1.3053v-1.4993h1.6228z" style=""/>
   <path id="path159" d="m143.4 322.53v1.3494h-1.5522q-0.87313 0-1.2171 0.35278-0.33514 0.35278-0.33514 1.27v0.87312h2.6723v1.2612h-2.6723v8.6166h-1.6316v-8.6166h-1.5522v-1.2612h1.5522v-0.68791q0-1.6492 0.76729-2.3989 0.76729-0.75847 2.4342-0.75847z" style=""/>
   <path id="path161" d="m148.57 327.51q-1.3053 0-2.0637 1.0231-0.75847 1.0142-0.75847 2.7869 0 1.7727 0.74965 2.7958 0.75847 1.0142 2.0726 1.0142 1.2965 0 2.0549-1.023 0.75847-1.0231 0.75847-2.7869 0-1.7551-0.75847-2.7781-0.75847-1.0319-2.0549-1.0319zm0-1.3758q2.1167 0 3.3249 1.3758t1.2083 3.81q0 2.4253-1.2083 3.81-1.2083 1.3758-3.3249 1.3758-2.1255 0-3.3337-1.3758-1.1994-1.3846-1.1994-3.81 0-2.4342 1.1994-3.81 1.2083-1.3758 3.3337-1.3758z" style=""/>
   <path id="path163" d="m161.51 327.89q-0.2734-0.15875-0.59972-0.22931-0.3175-0.0794-0.70555-0.0794-1.3758 0-2.1167 0.89958-0.73201 0.89076-0.73201 2.5664v5.2035h-1.6316v-9.8778h1.6316v1.5346q0.51153-0.89959 1.3317-1.3317 0.82021-0.44097 1.9932-0.44097 0.16757 0 0.37041 0.0265 0.20285 0.0176 0.44979 0.0617z" style=""/>
   <path id="path165" d="m169.41 327.87v-5.3446h1.6228v13.723h-1.6228v-1.4817q-0.51152 0.88194-1.2964 1.3141-0.77611 0.42333-1.8697 0.42333-1.7904 0-2.9192-1.4287-1.1201-1.4288-1.1201-3.7571t1.1201-3.7571q1.1289-1.4288 2.9192-1.4288 1.0936 0 1.8697 0.43215 0.78493 0.42333 1.2964 1.3053zm-5.5298 3.4484q0 1.7903 0.73201 2.8134 0.74083 1.0142 2.0285 1.0142t2.0285-1.0142q0.74083-1.0231 0.74083-2.8134 0-1.7904-0.74083-2.8046-0.74083-1.0231-2.0285-1.0231t-2.0285 1.0231q-0.73201 1.0142-0.73201 2.8046z" style=""/>
   <path id="path167" d="m176.42 321.8h1.7551l-2.8751 3.3161h-1.3494zm-2.0373 4.5685h1.6228v9.8778h-1.6228zm0.81139-0.23812z" style=""/>
   <path id="path169" d="m180.99 323.57v2.8046h3.3426v1.2612h-3.3426v5.3622q0 1.2083 0.32631 1.5522 0.33514 0.34396 1.3494 0.34396h1.6669v1.3582h-1.6669q-1.8785 0-2.5929-0.69674-0.71437-0.70555-0.71437-2.5576v-5.3622h-1.1906v-1.2612h1.1906v-2.8046z" style=""/>
   <path id="path171" d="m190.31 327.51q-1.3053 0-2.0637 1.0231-0.75848 1.0142-0.75848 2.7869 0 1.7727 0.74966 2.7958 0.75847 1.0142 2.0726 1.0142 1.2965 0 2.0549-1.023 0.75847-1.0231 0.75847-2.7869 0-1.7551-0.75847-2.7781-0.75847-1.0319-2.0549-1.0319zm0-1.3758q2.1167 0 3.3249 1.3758t1.2083 3.81q0 2.4253-1.2083 3.81-1.2083 1.3758-3.3249 1.3758-2.1255 0-3.3337-1.3758-1.1994-1.3846-1.1994-3.81 0-2.4342 1.1994-3.81 1.2083-1.3758 3.3337-1.3758z" style=""/>
   <path id="path173" d="m199.13 323.57v2.8046h3.3426v1.2612h-3.3426v5.3622q0 1.2083 0.32632 1.5522 0.33513 0.34396 1.3494 0.34396h1.6669v1.3582h-1.6669q-1.8785 0-2.5929-0.69674-0.71438-0.70555-0.71438-2.5576v-5.3622h-1.1906v-1.2612h1.1906v-2.8046z" style=""/>
   <path id="path175" d="m206.22 323.57v2.8046h3.3426v1.2612h-3.3426v5.3622q0 1.2083 0.32632 1.5522 0.33514 0.34396 1.3494 0.34396h1.6669v1.3582h-1.6669q-1.8785 0-2.5929-0.69674-0.71437-0.70555-0.71437-2.5576v-5.3622h-1.1906v-1.2612h1.1906v-2.8046z" style=""/>
  </g>
  <g id="g104" stroke="#000" stroke-width="2">
   <path id="line100" d="m310 150v20.264" fill="none"/>
   <path id="polygon102" d="m310 170.26 5-2.5-5 10-5-10z" fill-rule="evenodd"/>
  </g>
  <g id="g110" stroke="#000" stroke-width="2">
   <path id="line106" d="m410 150v20.264" fill="none"/>
   <path id="polygon108" d="m410 170.26 5-2.5-5 10-5-10z" fill-rule="evenodd"/>
  </g>
  <g id="text114" aria-label="átrakott">
   <path id="path182" d="m280.31 120.73q-1.9667 0-2.7252 0.44979t-0.75847 1.5346q0 0.8643 0.56444 1.3758 0.57327 0.50271 1.5522 0.50271 1.3494 0 2.1608-0.9525 0.82021-0.96132 0.82021-2.5488v-0.36159zm3.2367-0.67028v5.6356h-1.6228v-1.4993q-0.55562 0.89959-1.3846 1.3317-0.82903 0.42333-2.0285 0.42333-1.5169 0-2.4165-0.84667-0.89077-0.85548-0.89077-2.2842 0-1.6669 1.1112-2.5135 1.1201-0.84666 3.3338-0.84666h2.2754v-0.15875q0-1.1201-0.74083-1.7286-0.73201-0.61736-2.0638-0.61736-0.84666 0-1.6492 0.20284-0.80257 0.20285-1.5434 0.60855v-1.4993q0.89076-0.34396 1.7286-0.51153 0.83784-0.17638 1.6316-0.17638 2.1431 0 3.2015 1.1112 1.0583 1.1112 1.0583 3.369zm-2.9633-8.8106h1.7551l-2.8751 3.3161h-1.3494z" style=""/>
   <path id="path184" d="m288.51 113.02v2.8046h3.3426v1.2612h-3.3426v5.3622q0 1.2083 0.32632 1.5522 0.33514 0.34395 1.3494 0.34395h1.6669v1.3582h-1.6669q-1.8785 0-2.5929-0.69674-0.71438-0.70555-0.71438-2.5576v-5.3622h-1.1906v-1.2612h1.1906v-2.8046z" style=""/>
   <path id="path186" d="m299.72 117.34q-0.2734-0.15875-0.59972-0.2293-0.3175-0.0794-0.70556-0.0794-1.3758 0-2.1167 0.89959-0.73201 0.89076-0.73201 2.5664v5.2035h-1.6316v-9.8778h1.6316v1.5346q0.51152-0.89958 1.3317-1.3317 0.82021-0.44097 1.9932-0.44097 0.16757 0 0.37042 0.0265 0.20285 0.0176 0.44979 0.0617z" style=""/>
   <path id="path188" d="m305.93 120.73q-1.9667 0-2.7252 0.44979-0.75848 0.44979-0.75848 1.5346 0 0.8643 0.56445 1.3758 0.57326 0.50271 1.5522 0.50271 1.3494 0 2.1608-0.9525 0.82021-0.96132 0.82021-2.5488v-0.36159zm3.2367-0.67028v5.6356h-1.6228v-1.4993q-0.55563 0.89959-1.3846 1.3317-0.82903 0.42333-2.0285 0.42333-1.517 0-2.4165-0.84667-0.89076-0.85548-0.89076-2.2842 0-1.6669 1.1112-2.5135 1.1201-0.84666 3.3337-0.84666h2.2754v-0.15875q0-1.1201-0.74084-1.7286-0.73201-0.61736-2.0637-0.61736-0.84667 0-1.6492 0.20284-0.80257 0.20285-1.5434 0.60855v-1.4993q0.89077-0.34396 1.7286-0.51153 0.83785-0.17638 1.6316-0.17638 2.1431 0 3.2014 1.1112 1.0583 1.1112 1.0583 3.369z" style=""/>
   <path id="path190" d="m312.45 111.98h1.6316v8.1051l4.8419-4.2598h2.0726l-5.2387 4.6214 5.4592 5.2564h-2.1167l-5.0182-4.8242v4.8242h-1.6316z" style=""/>
   <path id="path192" d="m326.18 116.96q-1.3053 0-2.0638 1.023-0.75847 1.0142-0.75847 2.7869 0 1.7727 0.74966 2.7958 0.75847 1.0142 2.0726 1.0142 1.2965 0 2.0549-1.0231 0.75847-1.023 0.75847-2.7869 0-1.7551-0.75847-2.7781-0.75847-1.0319-2.0549-1.0319zm0-1.3758q2.1167 0 3.3249 1.3758t1.2083 3.81q0 2.4254-1.2083 3.81-1.2083 1.3758-3.3249 1.3758-2.1255 0-3.3337-1.3758-1.1994-1.3846-1.1994-3.81 0-2.4342 1.1994-3.81 1.2083-1.3758 3.3337-1.3758z" style=""/>
   <path id="path194" d="m335 113.02v2.8046h3.3426v1.2612h-3.3426v5.3622q0 1.2083 0.32631 1.5522 0.33514 0.34395 1.3494 0.34395h1.6669v1.3582h-1.6669q-1.8785 0-2.5929-0.69674-0.71437-0.70555-0.71437-2.5576v-5.3622h-1.1906v-1.2612h1.1906v-2.8046z" style=""/>
   <path id="path196" d="m342.09 113.02v2.8046h3.3426v1.2612h-3.3426v5.3622q0 1.2083 0.32632 1.5522 0.33513 0.34395 1.3494 0.34395h1.6669v1.3582h-1.6669q-1.8785 0-2.5929-0.69674-0.71438-0.70555-0.71438-2.5576v-5.3622h-1.1906v-1.2612h1.1906v-2.8046z" style=""/>
  </g>
  <g id="text118" aria-label="következő">
   <path id="path199" d="m366.01 111.98h1.6316v8.1051l4.8419-4.2598h2.0726l-5.2388 4.6214 5.4592 5.2564h-2.1167l-5.0183-4.8242v4.8242h-1.6316z" style=""/>
   <path id="path201" d="m379.74 116.96q-1.3053 0-2.0637 1.023-0.75848 1.0142-0.75848 2.7869 0 1.7727 0.74966 2.7958 0.75847 1.0142 2.0726 1.0142 1.2965 0 2.0549-1.0231 0.75847-1.023 0.75847-2.7869 0-1.7551-0.75847-2.7781-0.75847-1.0319-2.0549-1.0319zm0-1.3758q2.1167 0 3.3249 1.3758t1.2083 3.81q0 2.4254-1.2083 3.81-1.2083 1.3758-3.3249 1.3758-2.1255 0-3.3337-1.3758-1.1994-1.3846-1.1994-3.81 0-2.4342 1.1994-3.81 1.2083-1.3758 3.3337-1.3758zm0.82903-3.5719h1.7903v1.7815h-1.7903zm-3.4484 0h1.7904v1.7815h-1.7904z" style=""/>
   <path id="path203" d="m385.79 115.82h1.7198l3.0868 8.2903 3.0868-8.2903h1.7198l-3.7042 9.8778h-2.2048z" style=""/>
   <path id="path205" d="m406.09 120.36v0.79375h-7.4612q0.10583 1.6757 1.0054 2.5576 0.9084 0.87313 2.5224 0.87313 0.93486 0 1.808-0.22931 0.88194-0.2293 1.7462-0.68791v1.5346q-0.87313 0.37042-1.7904 0.56444-0.91722 0.19403-1.8609 0.19403-2.3636 0-3.7483-1.3758-1.3758-1.3758-1.3758-3.7218 0-2.4254 1.3053-3.8453 1.3141-1.4287 3.5366-1.4287 1.9932 0 3.1485 1.2876 1.1642 1.2788 1.1642 3.4837zm-1.6228-0.47625q-0.0176-1.3317-0.74966-2.1255-0.72319-0.79375-1.9226-0.79375-1.3582 0-2.1784 0.76729-0.81139 0.76729-0.93486 2.1608z" style=""/>
   <path id="path207" d="m410.36 113.02v2.8046h3.3426v1.2612h-3.3426v5.3622q0 1.2083 0.32632 1.5522 0.33514 0.34395 1.3494 0.34395h1.6669v1.3582h-1.6669q-1.8785 0-2.5929-0.69674-0.71437-0.70555-0.71437-2.5576v-5.3622h-1.1906v-1.2612h1.1906v-2.8046z" style=""/>
   <path id="path209" d="m415.79 111.98h1.6316v8.1051l4.8419-4.2598h2.0726l-5.2387 4.6214 5.4592 5.2564h-2.1167l-5.0182-4.8242v4.8242h-1.6316z" style=""/>
   <path id="path211" d="m434.14 120.36v0.79375h-7.4612q0.10583 1.6757 1.0054 2.5576 0.9084 0.87313 2.5224 0.87313 0.93486 0 1.808-0.22931 0.88194-0.2293 1.7462-0.68791v1.5346q-0.87313 0.37042-1.7904 0.56444-0.91722 0.19403-1.8609 0.19403-2.3636 0-3.7483-1.3758-1.3758-1.3758-1.3758-3.7218 0-2.4254 1.3053-3.8453 1.3141-1.4287 3.5366-1.4287 1.9932 0 3.1485 1.2876 1.1642 1.2788 1.1642 3.4837zm-1.6228-0.47625q-0.0176-1.3317-0.74966-2.1255-0.72319-0.79375-1.9226-0.79375-1.3582 0-2.1784 0.76729-0.81139 0.76729-0.93486 2.1608z" style=""/>
   <path id="path213" d="m436.1 115.82h7.7082v1.4817l-6.103 7.0996h6.103v1.2965h-7.9287v-1.4817l6.103-7.0996h-5.8826z" style=""/>
   <path id="path215" d="m452.74 111.25h1.5699l-2.1872 3.3161h-1.1906zm-2.9457 0h1.4993l-1.9667 3.3161h-1.2083zm0.32632 5.7062q-1.3053 0-2.0638 1.023-0.75847 1.0142-0.75847 2.7869 0 1.7727 0.74965 2.7958 0.75847 1.0142 2.0726 1.0142 1.2964 0 2.0549-1.0231 0.75847-1.023 0.75847-2.7869 0-1.7551-0.75847-2.7781-0.75848-1.0319-2.0549-1.0319zm0-1.3758q2.1167 0 3.3249 1.3758 1.2083 1.3758 1.2083 3.81 0 2.4254-1.2083 3.81-1.2083 1.3758-3.3249 1.3758-2.1255 0-3.3338-1.3758-1.1994-1.3846-1.1994-3.81 0-2.4342 1.1994-3.81 1.2083-1.3758 3.3338-1.3758z" style=""/>
  </g>
  <g id="g124" fill="none" stroke="#f62e2e" stroke-width="2">
   <path id="line120" d="m252 205 10 10"/>
   <path id="line122" d="m252 215 10-10"/>
  </g>
  <g id="g130" fill="none" stroke="#f62e2e" stroke-width="2">
   <path id="line126" d="m354 205 10 10"/>
   <path id="line128" d="m354 215 10-10"/>
  </g>
  <g id="g136" stroke="#000" stroke-width="2">
   <path id="path132" d="m240 330h130.26" fill="none"/>
   <path id="polygon134" d="m370.26 330-2.5-5 10 5-10 5z" fill-rule="evenodd"/>
  </g>
  <g id="g142" fill="none" stroke="#f62e2e" stroke-width="2">
   <path id="line138" d="m300 325 10 10"/>
   <path id="line140" d="m300 335 10-10"/>
  </g>
  <path id="rect144" d="m380 230h60v20h-60z" fill="#fdfd04" stroke="#000" stroke-width="2"/>
  <path id="rect146" d="m480 230h60v20h-60z" fill="#fdfd04" stroke="#000" stroke-width="2"/>
  <path id="rect148" d="m380 350h60v20h-60z" fill="#fdfd04" stroke="#000" stroke-width="2"/>
  <path id="rect150" d="m480 350h60v20h-60z" fill="#fdfd04" stroke="#000" stroke-width="2"/>
  <path id="line152" d="m480 230 60 20" fill="none" stroke="#000" stroke-width="2"/>
  <path id="line154" d="m480 250 60-20" fill="none" stroke="#000" stroke-width="2"/>
  <path id="line156" d="m480 350 60 20" fill="none" stroke="#000" stroke-width="2"/>
  <path id="line158" d="m480 370 60-20" fill="none" stroke="#000" stroke-width="2"/>
  <path id="rect160" d="m300 130h20v20h-20z" fill="#fdfd04" stroke="#000" stroke-width="2"/>
  <path id="rect162" d="m400 130h20v20h-20z" fill="#fdfd04" stroke="#000" stroke-width="2"/>
 </g>
</svg>
