<?xml version="1.0" encoding="UTF-8"?>
<svg id="svg97" width="18.892cm" height="8.1318cm" version="1.1" viewBox="172 108 366.9 147.28" xmlns="http://www.w3.org/2000/svg" xmlns:cc="http://creativecommons.org/ns#" xmlns:dc="http://purl.org/dc/elements/1.1/" xmlns:rdf="http://www.w3.org/1999/02/22-rdf-syntax-ns#">
 <metadata id="metadata101">
  <rdf:RDF>
   <cc:Work rdf:about="">
    <dc:format>image/svg+xml</dc:format>
    <dc:type rdf:resource="http://purl.org/dc/dcmitype/StillImage"/>
   </cc:Work>
  </rdf:RDF>
 </metadata>
 <g id="Háttér" transform="translate(-2.0961 -8.5798)">
  <g id="g8" stroke="#000" stroke-width="2">
   <path id="path4" d="m240 210h30.264" fill="none"/>
   <path id="polygon6" d="m270.26 210-2.5-5 10 5-10 5z" fill-rule="evenodd"/>
  </g>
  <path id="rect10" d="m380 180h60v60h-60z" fill="#7babe3" stroke="#000" stroke-width="2"/>
  <path id="rect12" d="m480 180h60v60h-60z" fill="#7babe3" stroke="#000" stroke-width="2"/>
  <path id="rect14" d="m280 180h60v60h-60z" fill="#7be38e" stroke="#000" stroke-width="2"/>
  <path id="rect16" d="m220 200h20v20h-20z" fill="#fdfd04" stroke="#000" stroke-width="2"/>
  <g id="g22" stroke="#000" stroke-width="2">
   <path id="path18" d="m440 240c40 0 0-30 30.264-30" fill="none"/>
   <path id="polygon20" d="m470.26 210-2.5-5 10 5-10 5z" fill-rule="evenodd"/>
  </g>
  <g id="text26" aria-label="dió">
   <path id="path60" d="m503.75 207.62v-6.0126h1.8256v15.438h-1.8256v-1.6669q-0.57547 0.99219-1.4585 1.4784-0.87312 0.47625-2.1034 0.47625-2.0141 0-3.2841-1.6074-1.2601-1.6073-1.2601-4.2267 0-2.6194 1.2601-4.2267 1.27-1.6074 3.2841-1.6074 1.2303 0 2.1034 0.48617 0.88305 0.47625 1.4585 1.4684zm-6.221 3.8795q0 2.0141 0.82352 3.1651 0.83344 1.141 2.282 1.141t2.282-1.141q0.83344-1.1509 0.83344-3.1651 0-2.0142-0.83344-3.1552-0.83344-1.1509-2.282-1.1509t-2.282 1.1509q-0.82352 1.141-0.82352 3.1552z" style=""/>
   <path id="path62" d="m509.34 205.94h1.8256v11.112h-1.8256zm0-4.3259h1.8256v2.3118h-1.8256z" style=""/>
   <path id="path64" d="m519.28 207.22q-1.4684 0-2.3217 1.1509-0.85328 1.141-0.85328 3.1353 0 1.9943 0.84336 3.1452 0.85328 1.141 2.3316 1.141 1.4585 0 2.3118-1.1509 0.85328-1.1509 0.85328-3.1353 0-1.9745-0.85328-3.1254-0.85328-1.1608-2.3118-1.1608zm0-1.5478q2.3812 0 3.7406 1.5478 1.3593 1.5478 1.3593 4.2862 0 2.7285-1.3593 4.2862-1.3593 1.5478-3.7406 1.5478-2.3912 0-3.7505-1.5478-1.3494-1.5577-1.3494-4.2862 0-2.7384 1.3494-4.2862 1.3593-1.5478 3.7505-1.5478zm1.3791-4.8716h1.9745l-3.2345 3.7306h-1.518z" style=""/>
  </g>
  <g id="text30" aria-label="körte">
   <path id="path67" d="m385.67 201.61h1.8356v9.1182l5.4471-4.7923h2.3316l-5.8936 5.1991 6.1416 5.9134h-2.3812l-5.6456-5.4273v5.4273h-1.8356z" style=""/>
   <path id="path69" d="m401.12 207.22q-1.4684 0-2.3217 1.1509-0.85328 1.141-0.85328 3.1353 0 1.9943 0.84336 3.1452 0.85328 1.141 2.3316 1.141 1.4585 0 2.3118-1.1509 0.85328-1.1509 0.85328-3.1353 0-1.9745-0.85328-3.1254-0.85328-1.1608-2.3118-1.1608zm0-1.5478q2.3812 0 3.7406 1.5478 1.3593 1.5478 1.3593 4.2862 0 2.7285-1.3593 4.2862-1.3593 1.5478-3.7406 1.5478-2.3912 0-3.7505-1.5478-1.3494-1.5577-1.3494-4.2862 0-2.7384 1.3494-4.2862 1.3593-1.5478 3.7505-1.5478zm0.93266-4.0184h2.0141v2.0042h-2.0141zm-3.8795 0h2.0142v2.0042h-2.0142z" style=""/>
   <path id="path71" d="m415.68 207.64q-0.30758-0.1786-0.67469-0.25797-0.35718-0.0893-0.79375-0.0893-1.5478 0-2.3812 1.012-0.82351 1.0021-0.82351 2.8873v5.8539h-1.8356v-11.112h1.8356v1.7264q0.57547-1.012 1.4982-1.4982 0.92274-0.4961 2.2424-0.4961 0.18851 0 0.41671 0.0298 0.22821 0.0198 0.50602 0.0695z" style=""/>
   <path id="path73" d="m419.42 202.78v3.1552h3.7604v1.4188h-3.7604v6.0325q0 1.3593 0.36711 1.7462 0.37703 0.38695 1.518 0.38695h1.8752v1.528h-1.8752q-2.1134 0-2.917-0.78383-0.80367-0.79375-0.80367-2.8773v-6.0325h-1.3394v-1.4188h1.3394v-3.1552z" style=""/>
   <path id="path75" d="m435.09 211.04v0.89297h-8.3939q0.11907 1.8852 1.1311 2.8773 1.022 0.98226 2.8376 0.98226 1.0517 0 2.034-0.25796 0.99219-0.25797 1.9645-0.77391v1.7264q-0.98227 0.41671-2.0141 0.635-1.0319 0.21828-2.0935 0.21828-2.6591 0-4.2168-1.5478-1.5478-1.5478-1.5478-4.187 0-2.7285 1.4684-4.3259 1.4784-1.6074 3.9787-1.6074 2.2424 0 3.5421 1.4486 1.3097 1.4387 1.3097 3.9191zm-1.8256-0.53578q-0.0198-1.4982-0.84336-2.3912-0.8136-0.89296-2.163-0.89296-1.528 0-2.4507 0.8632-0.91281 0.8632-1.0517 2.4309z" style=""/>
  </g>
  <g id="text34" aria-label="alma">
   <path id="path78" d="m291.78 211.46q-2.2126 0-3.0659 0.50601-0.85328 0.50602-0.85328 1.7264 0 0.97234 0.635 1.5478 0.64492 0.56555 1.7462 0.56555 1.518 0 2.4309-1.0716 0.92273-1.0815 0.92273-2.8674v-0.40679zm3.6413-0.75406v6.3401h-1.8256v-1.6867q-0.62508 1.012-1.5577 1.4982-0.93266 0.47625-2.282 0.47625-1.7066 0-2.7186-0.9525-1.0021-0.96242-1.0021-2.5698 0-1.8752 1.2502-2.8277 1.2601-0.9525 3.7505-0.9525h2.5598v-0.1786q0-1.2601-0.83344-1.9447-0.82351-0.69453-2.3217-0.69453-0.9525 0-1.8554 0.2282t-1.7363 0.68461v-1.6867q1.0021-0.38695 1.9447-0.57547 0.94258-0.19844 1.8356-0.19844 2.411 0 3.6016 1.2502 1.1906 1.2502 1.1906 3.7902z" style=""/>
   <path id="path80" d="m299.2 201.61h1.8256v15.438h-1.8256z" style=""/>
   <path id="path82" d="m313.48 208.07q0.68461-1.2303 1.6371-1.8157t2.2423-0.58539q1.7363 0 2.6789 1.2204 0.94258 1.2105 0.94258 3.4528v6.7072h-1.8356v-6.6476q0-1.5974-0.56555-2.3713t-1.7264-0.77391q-1.4188 0-2.2424 0.94258-0.82351 0.94258-0.82351 2.5698v6.2805h-1.8356v-6.6476q0-1.6074-0.56555-2.3713-0.56554-0.77391-1.7462-0.77391-1.399 0-2.2225 0.9525-0.82351 0.94258-0.82351 2.5598v6.2805h-1.8356v-11.112h1.8356v1.7264q0.62508-1.022 1.4982-1.5081 0.87313-0.48617 2.0737-0.48617 1.2105 0 2.0538 0.61516 0.85328 0.61516 1.2601 1.7859z" style=""/>
   <path id="path84" d="m329.68 211.46q-2.2126 0-3.0659 0.50601-0.85328 0.50602-0.85328 1.7264 0 0.97234 0.635 1.5478 0.64492 0.56555 1.7462 0.56555 1.518 0 2.4309-1.0716 0.92273-1.0815 0.92273-2.8674v-0.40679zm3.6413-0.75406v6.3401h-1.8256v-1.6867q-0.62508 1.012-1.5577 1.4982-0.93266 0.47625-2.282 0.47625-1.7066 0-2.7186-0.9525-1.0021-0.96242-1.0021-2.5698 0-1.8752 1.2502-2.8277 1.2601-0.9525 3.7505-0.9525h2.5598v-0.1786q0-1.2601-0.83343-1.9447-0.82352-0.69453-2.3217-0.69453-0.9525 0-1.8554 0.2282t-1.7363 0.68461v-1.6867q1.0021-0.38695 1.9447-0.57547 0.94257-0.19844 1.8355-0.19844 2.411 0 3.6016 1.2502 1.1906 1.2502 1.1906 3.7902z" style=""/>
  </g>
  <g id="text38" fill="#173b8f" aria-label="(1)">
   <path id="path87" d="m339.99 131.99q-1.1818 2.0285-1.7551 4.0128-0.57327 1.9844-0.57327 4.0217t0.57327 4.0393q0.58208 1.9932 1.7551 4.0128h-1.4111q-1.3229-2.0726-1.9844-4.0746-0.65264-2.002-0.65264-3.9776 0-1.9667 0.65264-3.9599 0.65264-1.9932 1.9844-4.0746z" style=""/>
   <path id="path89" d="m343.68 144.2h2.9104v-10.045l-3.1662 0.635v-1.6228l3.1485-0.635h1.7815v11.668h2.9104v1.4993h-7.5847z" style=""/>
   <path id="path91" d="m354.39 131.99h1.4111q1.3229 2.0814 1.9756 4.0746 0.66146 1.9932 0.66146 3.9599 0 1.9756-0.66146 3.9776-0.65263 2.002-1.9756 4.0746h-1.4111q1.173-2.0196 1.7462-4.0128 0.58208-2.002 0.58208-4.0393t-0.58208-4.0217q-0.57326-1.9844-1.7462-4.0128z" style=""/>
  </g>
  <g id="g44" stroke="#000" stroke-width="2">
   <path id="path40" d="m340 240c40 0 0-30 30.264-30" fill="none"/>
   <path id="polygon42" d="m370.26 210-2.5-5 10 5-10 5z" fill-rule="evenodd"/>
  </g>
  <g id="text48" aria-label="lista">
   <path id="path95" d="m174.1 202.53h1.6228v13.723h-1.6228z" style=""/>
   <path id="path97" d="m179.11 206.37h1.6228v9.8778h-1.6228zm0-3.8453h1.6228v2.0549h-1.6228z" style=""/>
   <path id="path99" d="m190.41 206.66v1.5346q-0.68792-0.35278-1.4288-0.52917t-1.5346-0.17639q-1.2083 0-1.8168 0.37042-0.59972 0.37041-0.59972 1.1112 0 0.56444 0.43216 0.89076 0.43215 0.3175 1.7374 0.60854l0.55563 0.12347q1.7286 0.37042 2.4518 1.0495 0.73201 0.67027 0.73201 1.8785 0 1.3758-1.0936 2.1784-1.0848 0.80256-2.9898 0.80256-0.79375 0-1.6581-0.15875-0.85548-0.14993-1.808-0.45861v-1.6757q0.89958 0.46743 1.7727 0.70556 0.87313 0.2293 1.7286 0.2293 1.1465 0 1.7639-0.38805 0.61736-0.39688 0.61736-1.1112 0-0.66146-0.44979-1.0142-0.44097-0.35278-1.9491-0.67909l-0.56444-0.1323q-1.5081-0.3175-2.1784-0.97013-0.67028-0.66146-0.67028-1.808 0-1.3935 0.98778-2.1519t2.8046-0.75847q0.89958 0 1.6933 0.13229t1.464 0.39688z" style=""/>
   <path id="path101" d="m195.14 203.57v2.8046h3.3426v1.2612h-3.3426v5.3622q0 1.2083 0.32632 1.5522 0.33514 0.34396 1.3494 0.34396h1.6669v1.3582h-1.6669q-1.8785 0-2.5929-0.69674-0.71437-0.70555-0.71437-2.5576v-5.3622h-1.1906v-1.2612h1.1906v-2.8046z" style=""/>
   <path id="path103" d="m205.11 211.28q-1.9667 0-2.7252 0.44979t-0.75847 1.5346q0 0.86431 0.56444 1.3758 0.57326 0.50271 1.5522 0.50271 1.3494 0 2.1608-0.9525 0.82021-0.96132 0.82021-2.5488v-0.3616zm3.2367-0.67028v5.6356h-1.6228v-1.4993q-0.55563 0.89958-1.3846 1.3317-0.82903 0.42333-2.0285 0.42333-1.5169 0-2.4165-0.84666-0.89076-0.85549-0.89076-2.2842 0-1.6669 1.1112-2.5135 1.1201-0.84667 3.3338-0.84667h2.2754v-0.15875q0-1.1201-0.74083-1.7286-0.73202-0.61736-2.0638-0.61736-0.84667 0-1.6492 0.20285-0.80257 0.20285-1.5434 0.60854v-1.4993q0.89077-0.34396 1.7286-0.51153 0.83785-0.17639 1.6316-0.17639 2.1431 0 3.2014 1.1112 1.0583 1.1112 1.0583 3.369z" style=""/>
  </g>
  <g id="g54" stroke="#000" stroke-width="2">
   <path id="line50" d="m310 150v20.264" fill="none"/>
   <path id="polygon52" d="m310 170.26 5-2.5-5 10-5-10z" fill-rule="evenodd"/>
  </g>
  <g id="text58" aria-label="törlendő">
   <path id="path108" d="m275.47 113.02v2.8046h3.3426v1.2612h-3.3426v5.3622q0 1.2083 0.32632 1.5522 0.33513 0.34395 1.3494 0.34395h1.6669v1.3582h-1.6669q-1.8785 0-2.5929-0.69674-0.71438-0.70555-0.71438-2.5576v-5.3622h-1.1906v-1.2612h1.1906v-2.8046z" style=""/>
   <path id="path110" d="m284.79 116.96q-1.3053 0-2.0638 1.023-0.75847 1.0142-0.75847 2.7869 0 1.7727 0.74965 2.7958 0.75847 1.0142 2.0726 1.0142 1.2965 0 2.0549-1.0231 0.75847-1.023 0.75847-2.7869 0-1.7551-0.75847-2.7781-0.75847-1.0319-2.0549-1.0319zm0-1.3758q2.1167 0 3.3249 1.3758 1.2083 1.3758 1.2083 3.81 0 2.4254-1.2083 3.81-1.2083 1.3758-3.3249 1.3758-2.1255 0-3.3338-1.3758-1.1994-1.3846-1.1994-3.81 0-2.4342 1.1994-3.81 1.2083-1.3758 3.3338-1.3758zm0.82903-3.5719h1.7903v1.7815h-1.7903zm-3.4484 0h1.7903v1.7815h-1.7903z" style=""/>
   <path id="path112" d="m297.72 117.34q-0.27341-0.15875-0.59972-0.2293-0.3175-0.0794-0.70556-0.0794-1.3758 0-2.1167 0.89959-0.73202 0.89076-0.73202 2.5664v5.2035h-1.6316v-9.8778h1.6316v1.5346q0.51153-0.89958 1.3317-1.3317 0.82021-0.44097 1.9932-0.44097 0.16757 0 0.37042 0.0265 0.20284 0.0176 0.44979 0.0617z" style=""/>
   <path id="path114" d="m299.44 111.98h1.6228v13.723h-1.6228z" style=""/>
   <path id="path116" d="m312.9 120.36v0.79375h-7.4612q0.10584 1.6757 1.0054 2.5576 0.9084 0.87313 2.5224 0.87313 0.93486 0 1.808-0.22931 0.88194-0.2293 1.7462-0.68791v1.5346q-0.87313 0.37042-1.7904 0.56444-0.91722 0.19403-1.8609 0.19403-2.3636 0-3.7483-1.3758-1.3758-1.3758-1.3758-3.7218 0-2.4254 1.3053-3.8453 1.3141-1.4287 3.5366-1.4287 1.9932 0 3.1485 1.2876 1.1642 1.2788 1.1642 3.4837zm-1.6228-0.47625q-0.0176-1.3317-0.74965-2.1255-0.7232-0.79375-1.9226-0.79375-1.3582 0-2.1784 0.76729-0.81139 0.76729-0.93486 2.1608z" style=""/>
   <path id="path118" d="m323.78 119.74v5.9619h-1.6228v-5.909q0-1.4023-0.5468-2.099-0.54681-0.69673-1.6404-0.69673-1.3141 0-2.0726 0.83784-0.75847 0.83785-0.75847 2.2842v5.5827h-1.6316v-9.8778h1.6316v1.5346q0.58209-0.89076 1.367-1.3317 0.79374-0.44097 1.8256-0.44097 1.7022 0 2.5753 1.0583 0.87313 1.0495 0.87313 3.0956z" style=""/>
   <path id="path120" d="m333.53 117.32v-5.3446h1.6228v13.723h-1.6228v-1.4817q-0.51153 0.88195-1.2965 1.3141-0.77611 0.42333-1.8697 0.42333-1.7903 0-2.9192-1.4288-1.1201-1.4288-1.1201-3.7571t1.1201-3.7571q1.1289-1.4287 2.9192-1.4287 1.0936 0 1.8697 0.43215 0.78493 0.42333 1.2965 1.3053zm-5.5298 3.4484q0 1.7904 0.73202 2.8134 0.74083 1.0142 2.0285 1.0142 1.2876 0 2.0285-1.0142 0.74083-1.023 0.74083-2.8134 0-1.7903-0.74083-2.8046-0.74084-1.023-2.0285-1.023-1.2876 0-2.0285 1.023-0.73202 1.0142-0.73202 2.8046z" style=""/>
   <path id="path122" d="m344.94 111.25h1.5699l-2.1872 3.3161h-1.1906zm-2.9457 0h1.4993l-1.9667 3.3161h-1.2083zm0.32632 5.7062q-1.3053 0-2.0638 1.023-0.75847 1.0142-0.75847 2.7869 0 1.7727 0.74965 2.7958 0.75847 1.0142 2.0726 1.0142 1.2965 0 2.0549-1.0231 0.75847-1.023 0.75847-2.7869 0-1.7551-0.75847-2.7781-0.75847-1.0319-2.0549-1.0319zm0-1.3758q2.1167 0 3.3249 1.3758 1.2083 1.3758 1.2083 3.81 0 2.4254-1.2083 3.81-1.2083 1.3758-3.3249 1.3758-2.1255 0-3.3338-1.3758-1.1994-1.3846-1.1994-3.81 0-2.4342 1.1994-3.81 1.2083-1.3758 3.3338-1.3758z" style=""/>
  </g>
  <g id="g64" fill="none" stroke="#f62e2e" stroke-width="2">
   <path id="line60" d="m252 205 10 10"/>
   <path id="line62" d="m252 215 10-10"/>
  </g>
  <g id="text68" fill="#173b8f" aria-label="(2)">
   <path id="path127" d="m239.99 161.99q-1.1818 2.0285-1.7551 4.0128-0.57327 1.9844-0.57327 4.0217t0.57327 4.0393q0.58208 1.9932 1.7551 4.0128h-1.4111q-1.3229-2.0726-1.9844-4.0746-0.65264-2.002-0.65264-3.9776 0-1.9667 0.65264-3.9599 0.65264-1.9932 1.9844-4.0746z" style=""/>
   <path id="path129" d="m244.91 174.2h6.2177v1.4993h-8.3608v-1.4993q1.0142-1.0495 2.7605-2.8134 1.7551-1.7727 2.2049-2.2842 0.85548-0.96132 1.1906-1.6228 0.34396-0.67027 0.34396-1.3141 0-1.0495-0.74083-1.711-0.73202-0.66146-1.9138-0.66146-0.83785 0-1.7727 0.29104-0.92604 0.29104-1.9844 0.88195v-1.7992q1.076-0.43215 2.0108-0.65264 0.93486-0.22048 1.711-0.22048 2.0461 0 3.2632 1.023 1.2171 1.0231 1.2171 2.734 0 0.81138-0.30868 1.5434-0.29986 0.72319-1.1024 1.711-0.22048 0.25576-1.4023 1.4817-1.1818 1.2171-3.3337 3.4131z" style=""/>
   <path id="path131" d="m254.39 161.99h1.4111q1.3229 2.0814 1.9756 4.0746 0.66146 1.9932 0.66146 3.9599 0 1.9756-0.66146 3.9776-0.65263 2.002-1.9756 4.0746h-1.4111q1.173-2.0196 1.7462-4.0128 0.58208-2.002 0.58208-4.0393t-0.58208-4.0217q-0.57326-1.9844-1.7462-4.0128z" style=""/>
  </g>
  <g id="text72" fill="#173b8f" aria-label="(3)">
   <path id="path134" d="m302.79 253.09q-1.1818 2.0285-1.7551 4.0128-0.57327 1.9844-0.57327 4.0217t0.57327 4.0393q0.58208 1.9932 1.7551 4.0128h-1.4111q-1.3229-2.0726-1.9844-4.0746-0.65264-2.002-0.65264-3.9776 0-1.9667 0.65264-3.9599 0.65264-1.9932 1.9844-4.0746z" style=""/>
   <path id="path136" d="m311.58 259.7q1.2788 0.27341 1.9932 1.1377 0.72319 0.86431 0.72319 2.1343 0 1.9491-1.3406 3.0162t-3.81 1.0672q-0.82903 0-1.711-0.16757-0.87312-0.15875-1.808-0.48507v-1.7198q0.74083 0.43216 1.6228 0.65264 0.88194 0.22049 1.8433 0.22049 1.6757 0 2.5488-0.66146 0.88195-0.66146 0.88195-1.9226 0-1.1642-0.82021-1.8168-0.81139-0.66146-2.2666-0.66146h-1.5346v-1.464h1.6051q1.3141 0 2.0108-0.52035 0.69674-0.52917 0.69674-1.5169 0-1.0142-0.7232-1.5522-0.71437-0.54681-2.0549-0.54681-0.73202 0-1.5699 0.15875-0.83785 0.15875-1.8433 0.49389v-1.5875q1.0142-0.28222 1.8962-0.42333 0.89077-0.14111 1.6757-0.14111 2.0285 0 3.2103 0.92604 1.1818 0.91722 1.1818 2.4871 0 1.0936-0.62618 1.8521-0.62618 0.74965-1.7815 1.0407z" style=""/>
   <path id="path138" d="m317.2 253.09h1.4111q1.3229 2.0814 1.9756 4.0746 0.66146 1.9932 0.66146 3.9599 0 1.9756-0.66146 3.9776-0.65264 2.002-1.9756 4.0746h-1.4111q1.173-2.0196 1.7462-4.0128 0.58208-2.002 0.58208-4.0393t-0.58208-4.0217q-0.57327-1.9844-1.7462-4.0128z" style=""/>
  </g>
  <path id="rect74" d="m300 130h20v20h-20z" fill="#fdfd04" stroke="#000" stroke-width="2"/>
  <path id="rect76" d="m280 230h60v20h-60z" fill="#fdfd04" stroke="#000" stroke-width="2"/>
  <path id="rect78" d="m380 230h60v20h-60z" fill="#fdfd04" stroke="#000" stroke-width="2"/>
  <path id="rect80" d="m480 230h60v20h-60z" fill="#fdfd04" stroke="#000" stroke-width="2"/>
  <path id="line82" d="m480 250 60-20" fill="none" stroke="#000" stroke-width="2"/>
  <path id="line84" d="m480 230 60 20" fill="none" stroke="#000" stroke-width="2"/>
  <path id="line86" d="m280 170 60 90" fill="none" stroke="#f62e2e" stroke-width="2"/>
  <path id="line88" d="m280 260 60-90" fill="none" stroke="#f62e2e" stroke-width="2"/>
  <g id="g94" stroke="#f62e2e" stroke-width="2">
   <path id="path90" d="m240 210c30-30 10-50 70-50s39 20 63.004 43.229" fill="none"/>
   <path id="polygon92" d="m373 203.23 1.68-5.331 3.709 10.547-10.663-3.361z" fill="#f62e2e" fill-rule="evenodd"/>
  </g>
 </g>
</svg>
