<?xml version="1.0" encoding="UTF-8"?>
<svg id="svg107" width="17.324cm" height="12.871cm" version="1.1" viewBox="298 43 332.04 255.45" xmlns="http://www.w3.org/2000/svg" xmlns:cc="http://creativecommons.org/ns#" xmlns:dc="http://purl.org/dc/elements/1.1/" xmlns:rdf="http://www.w3.org/1999/02/22-rdf-syntax-ns#">
 <metadata id="metadata113">
  <rdf:RDF>
   <cc:Work rdf:about="">
    <dc:format>image/svg+xml</dc:format>
    <dc:type rdf:resource="http://purl.org/dc/dcmitype/StillImage"/>
   </cc:Work>
  </rdf:RDF>
 </metadata>
 <g id="Háttér" transform="translate(-6.8857 -2.5538)">
  <g id="g8">
   <path id="rect2" d="m380 100h40v40h-40z" fill="#fff" stroke="#000" stroke-width="2"/>
   <g id="text6" aria-label="2">
    <path id="path61" d="m397.72 124.01h6.2177v1.4993h-8.3608v-1.4993q1.0142-1.0495 2.7605-2.8134 1.7551-1.7727 2.2049-2.2842 0.85548-0.96132 1.1906-1.6228 0.34396-0.67028 0.34396-1.3141 0-1.0495-0.74084-1.711-0.73201-0.66145-1.9138-0.66145-0.83785 0-1.7727 0.29104-0.92604 0.29104-1.9844 0.88194v-1.7992q1.076-0.43216 2.0108-0.65264 0.93486-0.22049 1.711-0.22049 2.0461 0 3.2632 1.0231 1.2171 1.023 1.2171 2.734 0 0.81139-0.30868 1.5434-0.29986 0.7232-1.1024 1.711-0.22048 0.25577-1.4023 1.4817-1.1818 1.2171-3.3337 3.4131z" style=""/>
   </g>
  </g>
  <g id="g16">
   <path id="rect10" d="m300 180h40v40h-40z" fill="#7babe3" stroke="#000" stroke-width="2"/>
   <g id="text14" aria-label="5">
    <path id="path65" d="m316.2 192.34h6.9938v1.4993h-5.3622v3.2279q0.38805-0.13229 0.77611-0.19402 0.38805-0.0706 0.77611-0.0706 2.2049 0 3.4925 1.2083 1.2876 1.2083 1.2876 3.272 0 2.1255-1.3229 3.3073-1.3229 1.173-3.7306 1.173-0.82903 0-1.6933-0.14112-0.85549-0.14111-1.7727-0.42333v-1.7903q0.79375 0.43215 1.6404 0.64381 0.84667 0.21167 1.7904 0.21167 1.5258 0 2.4165-0.80257 0.89077-0.80257 0.89077-2.1784t-0.89077-2.1784q-0.89076-0.80257-2.4165-0.80257-0.71437 0-1.4288 0.15875-0.70555 0.15875-1.4464 0.49389z" style=""/>
   </g>
  </g>
  <g id="g24">
   <path id="rect18" d="m460 180h40v40h-40z" fill="#fff" stroke="#000" stroke-width="2"/>
   <g id="text22" aria-label="9">
    <path id="path69" d="m476.23 205.24v-1.6228q0.67028 0.3175 1.3582 0.48507 0.68792 0.16757 1.3494 0.16757 1.7639 0 2.6899-1.1818 0.93486-1.1906 1.0672-3.6072-0.51153 0.75847-1.2965 1.1642-0.78493 0.4057-1.7374 0.4057-1.9756 0-3.1309-1.1906-1.1465-1.1994-1.1465-3.272 0-2.0285 1.1994-3.2544t3.1926-1.2259q2.2842 0 3.4837 1.7551 1.2083 1.7462 1.2083 5.08 0 3.1133-1.4817 4.9742-1.4728 1.8521-3.9688 1.8521-0.67027 0-1.3582-0.1323-0.68792-0.13229-1.4288-0.39687zm3.5454-5.5827q1.1994 0 1.8962-0.82021 0.70556-0.82021 0.70556-2.249 0-1.4199-0.70556-2.2401-0.69673-0.82903-1.8962-0.82903-1.1994 0-1.905 0.82903-0.69674 0.82021-0.69674 2.2401 0 1.4288 0.69674 2.249 0.70555 0.82021 1.905 0.82021z" style=""/>
   </g>
  </g>
  <g id="g32">
   <path id="rect26" d="m420 260h40v40h-40z" fill="#7babe3" stroke="#000" stroke-width="2"/>
   <g id="text30" aria-label="10">
    <path id="path73" d="m430.74 284.01h2.9104v-10.045l-3.1662 0.635v-1.6228l3.1485-0.635h1.7815v11.668h2.9104v1.4993h-7.5847z" style=""/>
    <path id="path75" d="m445.74 273.52q-1.3758 0-2.0726 1.3582-0.68791 1.3494-0.68791 4.0658 0 2.7076 0.68791 4.0658 0.69674 1.3494 2.0726 1.3494 1.3846 0 2.0726-1.3494 0.69673-1.3582 0.69673-4.0658 0-2.7164-0.69673-4.0658-0.68792-1.3582-2.0726-1.3582zm0-1.4111q2.2137 0 3.3778 1.7551 1.173 1.7462 1.173 5.08 0 3.3249-1.173 5.08-1.1642 1.7462-3.3778 1.7462t-3.3867-1.7462q-1.1642-1.7551-1.1642-5.08 0-3.3338 1.1642-5.08 1.173-1.7551 3.3867-1.7551z" style=""/>
   </g>
  </g>
  <g id="g38" fill="none" stroke="#000" stroke-width="2">
   <path id="line34" d="m379 141-34.836 34.836"/>
   <path id="polyline36" d="m346.12 166.81-3.536 10.607 10.607-3.536"/>
  </g>
  <g id="g44" fill="none" stroke="#000" stroke-width="2">
   <path id="line40" d="m421 141 34.836 34.836"/>
   <path id="polyline42" d="m446.81 173.88 10.607 3.536-3.536-10.607"/>
  </g>
  <g id="g50" fill="none" stroke="#000" stroke-width="2">
   <path id="line46" d="m469.51 220.98-17.024 34.046"/>
   <path id="polyline48" d="m451.49 245.84v11.18l8.945-6.708"/>
  </g>
  <g id="g58">
   <path id="rect52" d="m500 260h40v40h-40z" fill="#7babe3" stroke="#000" stroke-width="2"/>
   <g id="text56" aria-label="11">
    <path id="path85" d="m510.74 284.01h2.9104v-10.045l-3.1662 0.635v-1.6228l3.1485-0.635h1.7815v11.668h2.9104v1.4993h-7.5847z" style=""/>
    <path id="path87" d="m522.24 284.01h2.9104v-10.045l-3.1662 0.635v-1.6228l3.1485-0.635h1.7815v11.668h2.9104v1.4993h-7.5847z" style=""/>
   </g>
  </g>
  <g id="g64" fill="none" stroke="#000" stroke-width="2">
   <path id="line60" d="m490.49 220.98 17.024 34.046"/>
   <path id="polyline62" d="m499.57 250.32 8.945 6.708v-11.18"/>
  </g>
  <g id="text68" aria-label="eredeti">
   <path id="path92" d="m398.17 54.655v0.79375h-7.4612q0.10583 1.6757 1.0054 2.5576 0.9084 0.87312 2.5224 0.87312 0.93486 0 1.808-0.2293 0.88194-0.22931 1.7462-0.68792v1.5346q-0.87313 0.37042-1.7904 0.56444t-1.8609 0.19403q-2.3636 0-3.7483-1.3758-1.3758-1.3758-1.3758-3.7218 0-2.4253 1.3053-3.8453 1.3141-1.4287 3.5366-1.4287 1.9932 0 3.1485 1.2876 1.1642 1.2788 1.1642 3.4837zm-1.6228-0.47625q-0.0176-1.3317-0.74966-2.1255-0.72319-0.79375-1.9226-0.79375-1.3582 0-2.1784 0.76729-0.81139 0.76729-0.93486 2.1608z" style=""/>
   <path id="path94" d="m406.56 51.639q-0.2734-0.15875-0.59972-0.22931-0.3175-0.07937-0.70555-0.07937-1.3758 0-2.1167 0.89958-0.73201 0.89076-0.73201 2.5665v5.2035h-1.6316v-9.8778h1.6316v1.5346q0.51153-0.89958 1.3317-1.3317 0.82021-0.44097 1.9932-0.44097 0.16757 0 0.37041 0.02646 0.20285 0.01764 0.44979 0.06174z" style=""/>
   <path id="path96" d="m416.34 54.655v0.79375h-7.4612q0.10584 1.6757 1.0054 2.5576 0.9084 0.87312 2.5224 0.87312 0.93486 0 1.808-0.2293 0.88194-0.22931 1.7462-0.68792v1.5346q-0.87312 0.37042-1.7904 0.56444-0.91722 0.19403-1.8609 0.19403-2.3636 0-3.7483-1.3758-1.3758-1.3758-1.3758-3.7218 0-2.4253 1.3053-3.8453 1.3141-1.4287 3.5366-1.4287 1.9932 0 3.1485 1.2876 1.1642 1.2788 1.1642 3.4837zm-1.6228-0.47625q-0.0176-1.3317-0.74965-2.1255-0.7232-0.79375-1.9226-0.79375-1.3582 0-2.1784 0.76729-0.81139 0.76729-0.93486 2.1608z" style=""/>
   <path id="path98" d="m425.5 51.622v-5.3446h1.6228v13.723h-1.6228v-1.4817q-0.51153 0.88194-1.2965 1.3141-0.77611 0.42333-1.8697 0.42333-1.7903 0-2.9192-1.4287-1.1201-1.4287-1.1201-3.7571 0-2.3283 1.1201-3.7571 1.1289-1.4287 2.9192-1.4287 1.0936 0 1.8697 0.43215 0.78493 0.42333 1.2965 1.3053zm-5.5298 3.4484q0 1.7903 0.73202 2.8134 0.74083 1.0142 2.0285 1.0142 1.2876 0 2.0285-1.0142 0.74083-1.0231 0.74083-2.8134 0-1.7903-0.74083-2.8046-0.74084-1.0231-2.0285-1.0231-1.2876 0-2.0285 1.0231-0.73202 1.0142-0.73202 2.8046z" style=""/>
   <path id="path100" d="m438.92 54.655v0.79375h-7.4612q0.10584 1.6757 1.0054 2.5576 0.9084 0.87312 2.5224 0.87312 0.93486 0 1.808-0.2293 0.88195-0.22931 1.7462-0.68792v1.5346q-0.87312 0.37042-1.7903 0.56444-0.91723 0.19403-1.8609 0.19403-2.3636 0-3.7482-1.3758-1.3758-1.3758-1.3758-3.7218 0-2.4253 1.3053-3.8453 1.3141-1.4287 3.5366-1.4287 1.9932 0 3.1485 1.2876 1.1642 1.2788 1.1642 3.4837zm-1.6228-0.47625q-0.0176-1.3317-0.74965-2.1255-0.7232-0.79375-1.9226-0.79375-1.3582 0-2.1784 0.76729-0.81139 0.76729-0.93486 2.1608z" style=""/>
   <path id="path102" d="m443.19 47.318v2.8046h3.3426v1.2612h-3.3426v5.3622q0 1.2083 0.32632 1.5522 0.33514 0.34396 1.3494 0.34396h1.6669v1.3582h-1.6669q-1.8785 0-2.5929-0.69674-0.71437-0.70556-0.71437-2.5576v-5.3622h-1.1906v-1.2612h1.1906v-2.8046z" style=""/>
   <path id="path104" d="m448.67 50.122h1.6228v9.8778h-1.6228zm0-3.8453h1.6228v2.0549h-1.6228z" style=""/>
  </g>
  <g id="g74" fill="none" stroke="#000" stroke-width="2">
   <path id="line70" d="m417.32 65.367-12.634 25.267"/>
   <path id="polyline72" d="m403.68 81.453v11.18l8.945-6.7082"/>
  </g>
  <g id="g82">
   <path id="rect76" d="m540 100h40v40h-40z" fill="#fff" stroke="#000" stroke-width="2"/>
   <g id="text80" aria-label="2">
    <path id="path110" d="m557.72 124.01h6.2177v1.4993h-8.3608v-1.4993q1.0142-1.0495 2.7605-2.8134 1.7551-1.7727 2.2049-2.2842 0.85548-0.96132 1.1906-1.6228 0.34396-0.67028 0.34396-1.3141 0-1.0495-0.74084-1.711-0.73201-0.66145-1.9138-0.66145-0.83785 0-1.7727 0.29104-0.92604 0.29104-1.9844 0.88194v-1.7992q1.076-0.43216 2.0108-0.65264 0.93486-0.22049 1.711-0.22049 2.0461 0 3.2632 1.0231 1.2171 1.023 1.2171 2.734 0 0.81139-0.30868 1.5434-0.29986 0.7232-1.1024 1.711-0.22048 0.25577-1.4023 1.4817-1.1818 1.2171-3.3337 3.4131z" style=""/>
   </g>
  </g>
  <g id="g88" fill="none" stroke="#f00" stroke-width="2">
   <path id="line84" d="m539.01 127-193.77 64.592"/>
   <path id="polyline86" d="m351.02 184.39-7.905 7.906 11.068 1.581"/>
  </g>
  <g id="g94" fill="none" stroke="#f00" stroke-width="2">
   <path id="line90" d="m539 141-34.836 34.836"/>
   <path id="polyline92" d="m506.12 166.81-3.536 10.607 10.607-3.536"/>
  </g>
  <g id="g100" fill="none" stroke="#000" stroke-width="2">
   <path id="line96" d="m577.32 65.367-12.634 25.267"/>
   <path id="polyline98" d="m563.68 81.453v11.18l8.945-6.7082"/>
  </g>
  <g id="text104" fill="#f00" aria-label="hibás másolat">
   <path id="path119" d="m526.66 54.038v5.9619h-1.6228v-5.909q0-1.4023-0.54681-2.099-0.5468-0.69674-1.6404-0.69674-1.3141 0-2.0726 0.83785t-0.75847 2.2842v5.5827h-1.6316v-13.723h1.6316v5.3799q0.58208-0.89076 1.367-1.3317 0.79375-0.44097 1.8256-0.44097 1.7022 0 2.5753 1.0583 0.87312 1.0495 0.87312 3.0956z" style=""/>
   <path id="path121" d="m529.91 50.122h1.6228v9.8778h-1.6228zm0-3.8453h1.6228v2.0549h-1.6228z" style=""/>
   <path id="path123" d="m542.01 55.07q0-1.7903-0.74083-2.8046-0.73202-1.0231-2.0196-1.0231-1.2876 0-2.0285 1.0231-0.73202 1.0142-0.73202 2.8046 0 1.7903 0.73202 2.8134 0.74083 1.0142 2.0285 1.0142 1.2876 0 2.0196-1.0142 0.74083-1.0231 0.74083-2.8134zm-5.521-3.4484q0.51153-0.88194 1.2876-1.3053 0.78493-0.43215 1.8697-0.43215 1.7992 0 2.9192 1.4287 1.1289 1.4287 1.1289 3.7571 0 2.3283-1.1289 3.7571-1.1201 1.4287-2.9192 1.4287-1.0848 0-1.8697-0.42333-0.77611-0.43215-1.2876-1.3141v1.4817h-1.6316v-13.723h1.6316z" style=""/>
   <path id="path125" d="m550.88 55.035q-1.9667 0-2.7252 0.44979-0.75848 0.44979-0.75848 1.5346 0 0.8643 0.56445 1.3758 0.57326 0.50271 1.5522 0.50271 1.3494 0 2.1608-0.9525 0.82021-0.96132 0.82021-2.5488v-0.3616zm3.2367-0.67028v5.6356h-1.6228v-1.4993q-0.55563 0.89958-1.3846 1.3317-0.82903 0.42333-2.0285 0.42333-1.517 0-2.4165-0.84667-0.89076-0.85548-0.89076-2.2842 0-1.6669 1.1112-2.5135 1.1201-0.84667 3.3337-0.84667h2.2754v-0.15875q0-1.1201-0.74084-1.7286-0.73201-0.61736-2.0637-0.61736-0.84667 0-1.6492 0.20285t-1.5434 0.60854v-1.4993q0.89077-0.34396 1.7286-0.51153 0.83785-0.17639 1.6316-0.17639 2.1431 0 3.2014 1.1112t1.0583 3.369zm-2.9633-8.8106h1.7551l-2.8751 3.3161h-1.3494z" style=""/>
   <path id="path127" d="m563.76 50.413v1.5346q-0.68792-0.35278-1.4288-0.52917t-1.5346-0.17639q-1.2083 0-1.8168 0.37042-0.59972 0.37042-0.59972 1.1112 0 0.56444 0.43215 0.89076 0.43215 0.3175 1.7374 0.60854l0.55562 0.12347q1.7286 0.37042 2.4518 1.0495 0.73202 0.67028 0.73202 1.8785 0 1.3758-1.0936 2.1784-1.0848 0.80257-2.9898 0.80257-0.79375 0-1.658-0.15875-0.85549-0.14993-1.808-0.45861v-1.6757q0.89958 0.46743 1.7727 0.70555 0.87312 0.22931 1.7286 0.22931 1.1465 0 1.7639-0.38806 0.61736-0.39688 0.61736-1.1112 0-0.66146-0.44979-1.0142-0.44097-0.35278-1.9491-0.6791l-0.56445-0.13229q-1.5081-0.3175-2.1784-0.97014-0.67027-0.66146-0.67027-1.808 0-1.3935 0.98777-2.1519 0.98778-0.75847 2.8046-0.75847 0.89959 0 1.6933 0.13229 0.79375 0.13229 1.464 0.39687z" style=""/>
   <path id="path129" d="m580.33 52.018q0.60854-1.0936 1.4552-1.614 0.84667-0.52035 1.9932-0.52035 1.5434 0 2.3812 1.0848 0.83785 1.076 0.83785 3.0692v5.9619h-1.6316v-5.909q0-1.4199-0.5027-2.1078-0.50271-0.68792-1.5346-0.68792-1.2612 0-1.9932 0.83785-0.73201 0.83785-0.73201 2.2842v5.5827h-1.6316v-5.909q0-1.4287-0.5027-2.1078-0.50271-0.68792-1.5522-0.68792-1.2435 0-1.9756 0.84666-0.73201 0.83785-0.73201 2.2754v5.5827h-1.6316v-9.8778h1.6316v1.5346q0.55562-0.9084 1.3317-1.3406 0.77611-0.43215 1.8433-0.43215 1.076 0 1.8256 0.5468 0.75847 0.5468 1.1201 1.5875z" style=""/>
   <path id="path131" d="m594.73 55.035q-1.9667 0-2.7252 0.44979t-0.75847 1.5346q0 0.8643 0.56444 1.3758 0.57327 0.50271 1.5522 0.50271 1.3494 0 2.1608-0.9525 0.82021-0.96132 0.82021-2.5488v-0.3616zm3.2367-0.67028v5.6356h-1.6228v-1.4993q-0.55562 0.89958-1.3846 1.3317-0.82903 0.42333-2.0285 0.42333-1.5169 0-2.4165-0.84667-0.89077-0.85548-0.89077-2.2842 0-1.6669 1.1112-2.5135 1.1201-0.84667 3.3338-0.84667h2.2754v-0.15875q0-1.1201-0.74083-1.7286-0.73201-0.61736-2.0638-0.61736-0.84666 0-1.6492 0.20285t-1.5434 0.60854v-1.4993q0.89076-0.34396 1.7286-0.51153 0.83785-0.17639 1.6316-0.17639 2.1431 0 3.2014 1.1112 1.0583 1.1112 1.0583 3.369zm-2.9633-8.8106h1.7551l-2.8751 3.3161h-1.3494z" style=""/>
   <path id="path133" d="m607.61 50.413v1.5346q-0.68792-0.35278-1.4288-0.52917t-1.5346-0.17639q-1.2083 0-1.8168 0.37042-0.59972 0.37042-0.59972 1.1112 0 0.56444 0.43216 0.89076 0.43215 0.3175 1.7374 0.60854l0.55563 0.12347q1.7286 0.37042 2.4518 1.0495 0.73201 0.67028 0.73201 1.8785 0 1.3758-1.0936 2.1784-1.0848 0.80257-2.9898 0.80257-0.79375 0-1.6581-0.15875-0.85548-0.14993-1.808-0.45861v-1.6757q0.89958 0.46743 1.7727 0.70555 0.87313 0.22931 1.7286 0.22931 1.1465 0 1.7639-0.38806 0.61736-0.39688 0.61736-1.1112 0-0.66146-0.44979-1.0142-0.44097-0.35278-1.9491-0.6791l-0.56445-0.13229q-1.5081-0.3175-2.1784-0.97014-0.67028-0.66146-0.67028-1.808 0-1.3935 0.98778-2.1519 0.98778-0.75847 2.8046-0.75847 0.89958 0 1.6933 0.13229 0.79375 0.13229 1.464 0.39687z" style=""/>
   <path id="path135" d="m614.56 51.26q-1.3053 0-2.0638 1.0231-0.75847 1.0142-0.75847 2.7869 0 1.7727 0.74965 2.7958 0.75847 1.0142 2.0726 1.0142 1.2964 0 2.0549-1.0231 0.75847-1.0231 0.75847-2.7869 0-1.7551-0.75847-2.7781-0.75848-1.0319-2.0549-1.0319zm0-1.3758q2.1167 0 3.3249 1.3758 1.2083 1.3758 1.2083 3.81 0 2.4253-1.2083 3.81-1.2083 1.3758-3.3249 1.3758-2.1255 0-3.3338-1.3758-1.1994-1.3847-1.1994-3.81 0-2.4342 1.1994-3.81 1.2083-1.3758 3.3338-1.3758z" style=""/>
   <path id="path137" d="m621.78 46.277h1.6228v13.723h-1.6228z" style=""/>
   <path id="path139" d="m631.28 55.035q-1.9667 0-2.7252 0.44979t-0.75847 1.5346q0 0.8643 0.56444 1.3758 0.57326 0.50271 1.5522 0.50271 1.3494 0 2.1608-0.9525 0.82021-0.96132 0.82021-2.5488v-0.3616zm3.2367-0.67028v5.6356h-1.6228v-1.4993q-0.55562 0.89958-1.3846 1.3317-0.82903 0.42333-2.0285 0.42333-1.5169 0-2.4165-0.84667-0.89076-0.85548-0.89076-2.2842 0-1.6669 1.1112-2.5135 1.1201-0.84667 3.3338-0.84667h2.2754v-0.15875q0-1.1201-0.74083-1.7286-0.73201-0.61736-2.0638-0.61736-0.84667 0-1.6492 0.20285-0.80257 0.20285-1.5434 0.60854v-1.4993q0.89076-0.34396 1.7286-0.51153 0.83785-0.17639 1.6316-0.17639 2.1431 0 3.2014 1.1112 1.0583 1.1112 1.0583 3.369z" style=""/>
   <path id="path141" d="m639.47 47.318v2.8046h3.3426v1.2612h-3.3426v5.3622q0 1.2083 0.32632 1.5522 0.33514 0.34396 1.3494 0.34396h1.6669v1.3582h-1.6669q-1.8785 0-2.5929-0.69674-0.71438-0.70556-0.71438-2.5576v-5.3622h-1.1906v-1.2612h1.1906v-2.8046z" style=""/>
  </g>
 </g>
</svg>
