<?xml version="1.0" encoding="UTF-8" standalone="no"?>
<svg id="svg2" xmlns:rdf="http://www.w3.org/1999/02/22-rdf-syntax-ns#" xmlns="http://www.w3.org/2000/svg" viewBox="338 78 360.6082 92.76831" height="5.352cm" width="18.875cm" version="1.1" xmlns:cc="http://creativecommons.org/ns#" xmlns:dc="http://purl.org/dc/elements/1.1/">
 <metadata id="metadata72">
  <rdf:RDF>
   <cc:Work rdf:about="">
    <dc:format>image/svg+xml</dc:format>
    <dc:type rdf:resource="http://purl.org/dc/dcmitype/StillImage"/>
   </cc:Work>
  </rdf:RDF>
 </metadata>
 <g id="g4" transform="translate(-1 -5.7417)">
  <path id="rect6" fill="#fdfd04" d="m340 80h60v20h-60z"/>
  <path id="rect8" d="m340 80h60v20h-60z" stroke="#000" stroke-width="2" fill="none"/>
 </g>
 <g id="g10" transform="translate(-1 -5.7417)">
  <path id="rect12" fill="#8080ff" d="m380 160h20v20h-20z"/>
  <path id="rect14" d="m380 160h20v20h-20z" stroke="#000" stroke-width="2" fill="none"/>
 </g>
 <g id="text16">
  <path id="path44" style="" d="m409.15 169.62v5.8936h-1.8356v-15.339h1.8356v1.6867q0.57547-0.99218 1.4486-1.4684 0.88305-0.48618 2.1034-0.48618 2.0241 0 3.2841 1.6074 1.27 1.6073 1.27 4.2267t-1.27 4.2267q-1.2601 1.6073-3.2841 1.6073-1.2204 0-2.1034-0.47625-0.87312-0.48617-1.4486-1.4784zm6.2111-3.8794q0-2.0141-0.83344-3.1552-0.82351-1.1509-2.2721-1.1509t-2.282 1.1509q-0.82351 1.141-0.82351 3.1552 0 2.0141 0.82351 3.1651 0.83344 1.141 2.282 1.141t2.2721-1.141q0.83344-1.1509 0.83344-3.1651z"/>
  <path id="path46" style="" d="m420.28 160.17h1.8256v11.112h-1.8256v-11.112zm0-4.3259h1.8256v2.3118h-1.8256v-2.3118z"/>
 </g>
 <g id="text20">
  <path id="path49" style="" d="m587.38 80.171h1.8256v11.112h-1.8256v-11.112zm0-4.3259h1.8256v2.3118h-1.8256v-2.3118z"/>
  <path id="path51" style="" d="m602.26 84.576v6.7072h-1.8256v-6.6477q0-1.5776-0.61516-2.3614-0.61515-0.78383-1.8455-0.78383-1.4784 0-2.3316 0.94258-0.85328 0.94258-0.85328 2.5698v6.2805h-1.8355v-11.112h1.8355v1.7264q0.65485-1.0021 1.5379-1.4982 0.89297-0.49609 2.0538-0.49609 1.9149 0 2.8972 1.1906 0.98226 1.1807 0.98226 3.4826z"/>
  <path id="path53" style="" d="m607.72 77.016v3.1552h3.7604v1.4188h-3.7604v6.0325q0 1.3593 0.36711 1.7462 0.37703 0.38695 1.518 0.38695h1.8752v1.528h-1.8752q-2.1134 0-2.917-0.78383-0.80367-0.79375-0.80367-2.8773v-6.0325h-1.3394v-1.4188h1.3394v-3.1552h1.8356z"/>
  <path id="path55" style="" d="m622.17 77.016v3.1552h3.7604v1.4188h-3.7604v6.0325q0 1.3593 0.36711 1.7462 0.37703 0.38695 1.518 0.38695h1.8752v1.528h-1.8752q-2.1134 0-2.917-0.78383-0.80367-0.79375-0.80367-2.8773v-6.0325h-1.3394v-1.4188h1.3394v-3.1552h1.8356z"/>
  <path id="path57" style="" d="m632.65 81.451q-1.4684 0-2.3217 1.1509-0.85328 1.141-0.85328 3.1353t0.84335 3.1452q0.85329 1.141 2.3316 1.141 1.4585 0 2.3118-1.1509 0.85328-1.1509 0.85328-3.1353 0-1.9745-0.85328-3.1254-0.85328-1.1609-2.3118-1.1609zm0-1.5478q2.3812 0 3.7406 1.5478 1.3593 1.5478 1.3593 4.2862 0 2.7285-1.3593 4.2862-1.3593 1.5478-3.7406 1.5478-2.3912 0-3.7505-1.5478-1.3494-1.5577-1.3494-4.2862 0-2.7384 1.3494-4.2862 1.3593-1.5478 3.7505-1.5478z"/>
  <path id="path59" style="" d="m649.42 82.304q0.68461-1.2303 1.6371-1.8157 0.9525-0.58539 2.2424-0.58539 1.7363 0 2.6789 1.2204 0.94258 1.2105 0.94258 3.4528v6.7072h-1.8356v-6.6477q0-1.5974-0.56554-2.3713-0.56555-0.77391-1.7264-0.77391-1.4188 0-2.2423 0.94258-0.82352 0.94258-0.82352 2.5698v6.2805h-1.8355v-6.6477q0-1.6073-0.56555-2.3713-0.56555-0.77391-1.7462-0.77391-1.399 0-2.2225 0.9525-0.82352 0.94258-0.82352 2.5598v6.2805h-1.8355v-11.112h1.8355v1.7264q0.62508-1.022 1.4982-1.5081 0.87312-0.48617 2.0737-0.48617 1.2105 0 2.0538 0.61516 0.85328 0.61516 1.2601 1.7859z"/>
  <path id="path61" style="" d="m668.54 85.737q0-2.0141-0.83344-3.1552-0.82351-1.1509-2.2721-1.1509t-2.282 1.1509q-0.82352 1.141-0.82352 3.1552 0 2.0141 0.82352 3.1651 0.83344 1.141 2.282 1.141t2.2721-1.141q0.83344-1.1509 0.83344-3.1651zm-6.2111-3.8795q0.57547-0.99219 1.4486-1.4684 0.88305-0.48617 2.1034-0.48617 2.0241 0 3.2841 1.6073 1.27 1.6073 1.27 4.2267t-1.27 4.2267q-1.2601 1.6073-3.2841 1.6073-1.2204 0-2.1034-0.47625-0.87313-0.48617-1.4486-1.4784v1.6669h-1.8355v-15.438h1.8355v6.0127z"/>
  <path id="path63" style="" d="m673.3 75.845h4.2069v1.4188h-2.3812v15.28h2.3812v1.4188h-4.2069v-18.117z"/>
  <path id="path65" style="" d="m687.17 78.216-5.0602 7.9077h5.0602v-7.9077zm-0.52586-1.7462h2.5202v9.654h2.1134v1.6669h-2.1134v3.4925h-1.9943v-3.4925h-6.6874v-1.9348l6.1615-9.3861z"/>
  <path id="path67" style="" d="m698.61 75.845v18.117h-4.2069v-1.4188h2.3713v-15.28h-2.3713v-1.4188h4.2069z"/>
 </g>
 <g id="g24" transform="translate(-1 -5.7417)">
  <path id="path26" d="m392.2 159c10-50-34.398-8.008-26.308-48.461" stroke="#000" stroke-width="2" fill="none"/>
  <path id="polygon28" d="m370.3 113.98-4.413-3.432-5.393 1.471 6.864-8.825z"/>
  <path id="polygon30" d="m370.3 113.98-4.413-3.432-5.393 1.471 6.864-8.825z" stroke="#000" stroke-width="2" fill="none"/>
 </g>
 <g id="g32" transform="translate(-1 -5.7417)">
  <path id="rect34" fill="#fdfd04" d="m400 80h60v20h-60z"/>
  <path id="rect36" d="m400 80h60v20h-60z" stroke="#000" stroke-width="2" fill="none"/>
 </g>
 <g id="g38" transform="translate(-1 -5.7417)">
  <path id="rect40" fill="#fdfd04" d="m460 80h60v20h-60z"/>
  <path id="rect42" d="m460 80h60v20h-60z" stroke="#000" stroke-width="2" fill="none"/>
 </g>
 <g id="g44" transform="translate(-1 -5.7417)">
  <path id="rect46" fill="#fdfd04" d="m520 80h60v20h-60z"/>
  <path id="rect48" d="m520 80h60v20h-60z" stroke="#000" stroke-width="2" fill="none"/>
 </g>
 <g id="g50" transform="translate(-1 -5.7417)">
  <path id="rect52" fill="#8080ff" d="m460 160h20v20h-20z"/>
  <path id="rect54" d="m460 160h20v20h-20z" stroke="#000" stroke-width="2" fill="none"/>
 </g>
 <g id="text56">
  <path id="path80" style="" d="m489.15 169.62v5.8936h-1.8356v-15.339h1.8356v1.6867q0.57547-0.99218 1.4486-1.4684 0.88305-0.48618 2.1034-0.48618 2.0241 0 3.2841 1.6074 1.27 1.6073 1.27 4.2267t-1.27 4.2267q-1.2601 1.6073-3.2841 1.6073-1.2204 0-2.1034-0.47625-0.87312-0.48617-1.4486-1.4784zm6.2111-3.8794q0-2.0141-0.83344-3.1552-0.82351-1.1509-2.2721-1.1509t-2.282 1.1509q-0.82351 1.141-0.82351 3.1552 0 2.0141 0.82351 3.1651 0.83344 1.141 2.282 1.141t2.2721-1.141q0.83344-1.1509 0.83344-3.1651z"/>
  <path id="path82" style="" d="m500.28 160.17h1.8256v11.112h-1.8256v-11.112zm0-4.3259h1.8256v2.3118h-1.8256v-2.3118z"/>
  <path id="path84" style="" d="m513.35 158.54v5.5265h5.5265v1.6867h-5.5265v5.5265h-1.6669v-5.5265h-5.5265v-1.6867h5.5265v-5.5265h1.6669z"/>
  <path id="path86" style="" d="m524.93 169.6h6.9949v1.6867h-9.4059v-1.6867q1.141-1.1807 3.1055-3.1651 1.9745-1.9943 2.4805-2.5698 0.96242-1.0815 1.3394-1.8256 0.38696-0.75407 0.38696-1.4784 0-1.1807-0.83344-1.9248-0.82352-0.74414-2.153-0.74414-0.94258 0-1.9943 0.32743-1.0418 0.32742-2.2324 0.99218v-2.0241q1.2105-0.48617 2.2622-0.73422t1.9248-0.24805q2.3019 0 3.6711 1.1509t1.3692 3.0758q0 0.91282-0.34727 1.7363-0.33734 0.8136-1.2402 1.9248-0.24805 0.28773-1.5776 1.6669-1.3295 1.3692-3.7505 3.8398z"/>
 </g>
 <g id="g60" transform="translate(-1 -5.7417)">
  <path id="path62" d="m467.8 159c-10-50 34.398-8.008 26.308-48.461" stroke="#000" stroke-width="2" fill="none"/>
  <path id="polygon64" d="m499.5 112.01-5.393-1.471-4.413 3.432 2.942-10.786z"/>
  <path id="polygon66" d="m499.5 112.01-5.393-1.471-4.413 3.432 2.942-10.786z" stroke="#000" stroke-width="2" fill="none"/>
 </g>
</svg>
