<?xml version="1.0" encoding="UTF-8"?>
<svg id="svg47" width="19cm" height="6.4033cm" version="1.1" viewBox="139 299 362 112.52" xmlns="http://www.w3.org/2000/svg" xmlns:cc="http://creativecommons.org/ns#" xmlns:dc="http://purl.org/dc/elements/1.1/" xmlns:rdf="http://www.w3.org/1999/02/22-rdf-syntax-ns#">
 <metadata id="metadata51">
  <rdf:RDF>
   <cc:Work rdf:about="">
    <dc:format>image/svg+xml</dc:format>
    <dc:type rdf:resource="http://purl.org/dc/dcmitype/StillImage"/>
   </cc:Work>
  </rdf:RDF>
 </metadata>
 <g id="Háttér" transform="translate(0 -4.7423)">
  <g id="text8" aria-label="intmeret">
   <path id="path29" d="m172.44 388.82h1.2171v7.4084h-1.2171zm0-2.884h1.2171v1.5412h-1.2171z" style=""/>
   <path id="path31" d="m182.35 391.76v4.4715h-1.2171v-4.4318q0-1.0517-0.4101-1.5743-0.41011-0.52256-1.2303-0.52256-0.98557 0-1.5544 0.62839t-0.56886 1.7132v4.187h-1.2237v-7.4084h1.2237v1.1509q0.43657-0.66807 1.0253-0.9988 0.59531-0.33073 1.3692-0.33073 1.2766 0 1.9315 0.79375 0.65485 0.78714 0.65485 2.3217z" style=""/>
   <path id="path33" d="m186 386.72v2.1034h2.5069v0.94589h-2.5069v4.0217q0 0.9062 0.24474 1.1642 0.25136 0.25797 1.012 0.25797h1.2502v1.0186h-1.2502q-1.4089 0-1.9447-0.52255-0.53578-0.52917-0.53578-1.9182v-4.0217h-0.89297v-0.94589h0.89297v-2.1034z" style=""/>
   <path id="path35" d="m166.8 407.18q0.45641-0.82021 1.0914-1.2105t1.4949-0.39026q1.1576 0 1.7859 0.81359 0.62839 0.80698 0.62839 2.3019v4.4715h-1.2237v-4.4318q0-1.065-0.37703-1.5809t-1.1509-0.51594q-0.94589 0-1.4949 0.62839t-0.54901 1.7132v4.187h-1.2237v-4.4318q0-1.0716-0.37704-1.5809-0.37703-0.51594-1.1642-0.51594-0.93265 0-1.4817 0.635-0.54901 0.62839-0.54901 1.7066v4.187h-1.2237v-7.4084h1.2237v1.1509q0.41672-0.6813 0.99881-1.0054 0.58208-0.32411 1.3824-0.32411 0.80698 0 1.3692 0.4101 0.56886 0.41011 0.84005 1.1906z" style=""/>
   <path id="path37" d="m180.58 409.16v0.59532h-5.596q0.0794 1.2568 0.75406 1.9182 0.68131 0.65485 1.8918 0.65485 0.70115 0 1.356-0.17198 0.66146-0.17198 1.3097-0.51594v1.1509q-0.65484 0.27781-1.3428 0.42333-0.68792 0.14553-1.3957 0.14553-1.7727 0-2.8112-1.0319-1.0319-1.0319-1.0319-2.7914 0-1.819 0.97896-2.884 0.98557-1.0716 2.6524-1.0716 1.4949 0 2.3614 0.96573 0.87313 0.95912 0.87313 2.6128zm-1.2171-0.35718q-0.0132-0.99881-0.56224-1.5941-0.54239-0.59532-1.442-0.59532-1.0186 0-1.6338 0.57547-0.60854 0.57547-0.70114 1.6206z" style=""/>
   <path id="path39" d="m186.87 406.9q-0.20505-0.11906-0.44979-0.17198-0.23812-0.0595-0.52917-0.0595-1.0319 0-1.5875 0.67469-0.54901 0.66807-0.54901 1.9248v3.9026h-1.2237v-7.4084h1.2237v1.1509q0.38365-0.67469 0.9988-0.9988 0.61516-0.33073 1.4949-0.33073 0.12568 0 0.27782 0.0198 0.15213 0.0132 0.33734 0.0463z" style=""/>
   <path id="path41" d="m194.2 409.16v0.59532h-5.596q0.0794 1.2568 0.75407 1.9182 0.6813 0.65485 1.8918 0.65485 0.70115 0 1.356-0.17198 0.66146-0.17198 1.3097-0.51594v1.1509q-0.65485 0.27781-1.3428 0.42333-0.68791 0.14553-1.3957 0.14553-1.7727 0-2.8112-1.0319-1.0319-1.0319-1.0319-2.7914 0-1.819 0.97896-2.884 0.98558-1.0716 2.6525-1.0716 1.4949 0 2.3614 0.96573 0.87313 0.95912 0.87313 2.6128zm-1.2171-0.35718q-0.0132-0.99881-0.56224-1.5941-0.5424-0.59532-1.442-0.59532-1.0186 0-1.6338 0.57547-0.60854 0.57547-0.70115 1.6206z" style=""/>
   <path id="path43" d="m197.4 403.66v2.1034h2.5069v0.94589h-2.5069v4.0217q0 0.9062 0.24474 1.1642 0.25136 0.25797 1.012 0.25797h1.2502v1.0186h-1.2502q-1.4089 0-1.9447-0.52255-0.53578-0.52917-0.53578-1.9182v-4.0217h-0.89297v-0.94589h0.89297v-2.1034z" style=""/>
  </g>
  <path id="rect10" d="m300 340h200v40h-200z" fill="#7babe3" stroke="#000" stroke-width="2"/>
  <path id="line12" d="m380 340v40" fill="none" stroke="#bfbfbf" stroke-width="2"/>
  <path id="line14" d="m340 340v40" fill="none" stroke="#bfbfbf" stroke-width="2"/>
  <path id="line16" d="m420 340v40" fill="none" stroke="#bfbfbf" stroke-width="2"/>
  <path id="line18" d="m460 340v40" fill="none" stroke="#bfbfbf" stroke-width="2"/>
  <g id="text22" aria-label="double []">
   <path id="path51" d="m371.56 358.14v-4.6765h1.4199v12.008h-1.4199v-1.2965q-0.44759 0.7717-1.1344 1.1498-0.6791 0.37042-1.636 0.37042-1.5666 0-2.5543-1.2502-0.98006-1.2502-0.98006-3.2874 0-2.0373 0.98006-3.2874 0.98778-1.2502 2.5543-1.2502 0.9569 0 1.636 0.37813 0.68681 0.37041 1.1344 1.1421zm-4.8386 3.0174q0 1.5666 0.64051 2.4617 0.64823 0.88745 1.7749 0.88745t1.7749-0.88745q0.64823-0.89517 0.64823-2.4617t-0.64823-2.454q-0.64823-0.89517-1.7749-0.89517t-1.7749 0.89517q-0.64051 0.88746-0.64051 2.454z" style=""/>
   <path id="path53" d="m379.25 357.83q-1.1421 0-1.8058 0.89517-0.66366 0.88745-0.66366 2.4386 0 1.5511 0.65594 2.4463 0.66367 0.88746 1.8135 0.88746 1.1344 0 1.7981-0.89517t0.66366-2.4386q0-1.5357-0.66366-2.4309-0.66366-0.90288-1.7981-0.90288zm0-1.2038q1.8521 0 2.9093 1.2038 1.0572 1.2038 1.0572 3.3337 0 2.1222-1.0572 3.3337-1.0572 1.2038-2.9093 1.2038-1.8598 0-2.917-1.2038-1.0495-1.2116-1.0495-3.3337 0-2.1299 1.0495-3.3337 1.0572-1.2038 2.917-1.2038z" style=""/>
   <path id="path55" d="m385.41 362.06v-5.2321h1.4199v5.1781q0 1.227 0.47845 1.8444 0.47846 0.60964 1.4354 0.60964 1.1498 0 1.8135-0.73311 0.67138-0.73312 0.67138-1.9987v-4.9003h1.4199v8.643h-1.4199v-1.3273q-0.51704 0.78714-1.2039 1.173-0.67909 0.37813-1.582 0.37813-1.4894 0-2.2611-0.92604t-0.7717-2.7087zm3.573-5.4405z" style=""/>
   <path id="path57" d="m401.8 361.16q0-1.5666-0.64823-2.454-0.64051-0.89517-1.7672-0.89517t-1.7749 0.89517q-0.64051 0.88746-0.64051 2.454t0.64051 2.4617q0.64823 0.88745 1.7749 0.88745t1.7672-0.88745q0.64823-0.89517 0.64823-2.4617zm-4.8308-3.0174q0.44759-0.7717 1.1267-1.1421 0.68682-0.37813 1.636-0.37813 1.5743 0 2.5543 1.2502 0.98777 1.2502 0.98777 3.2874 0 2.0373-0.98777 3.2874-0.98006 1.2502-2.5543 1.2502-0.94919 0-1.636-0.37042-0.67909-0.37813-1.1267-1.1498v1.2965h-1.4276v-12.008h1.4276z" style=""/>
   <path id="path59" d="m405.63 353.47h1.4199v12.008h-1.4199z" style=""/>
   <path id="path61" d="m417.4 360.8v0.69453h-6.5286q0.0926 1.4662 0.87974 2.2379 0.79485 0.76398 2.2071 0.76398 0.818 0 1.582-0.20064 0.7717-0.20065 1.528-0.60193v1.3428q-0.76398 0.32411-1.5666 0.49389-0.80257 0.16977-1.6283 0.16977-2.0682 0-3.2797-1.2038-1.2038-1.2038-1.2038-3.2566 0-2.1222 1.1421-3.3646 1.1498-1.2502 3.0945-1.2502 1.744 0 2.755 1.1267 1.0186 1.119 1.0186 3.0482zm-1.4199-0.41672q-0.0154-1.1653-0.65594-1.8598-0.6328-0.69453-1.6823-0.69453-1.1884 0-1.9061 0.67137-0.70997 0.67138-0.81801 1.8907z" style=""/>
   <path id="path63" d="m424.63 353.47h3.272v1.1035h-1.8521v11.884h1.8521v1.1035h-3.272z" style=""/>
   <path id="path65" d="m434.26 353.47v14.091h-3.272v-1.1035h1.8444v-11.884h-1.8444v-1.1035z" style=""/>
  </g>
  <g id="g28" stroke="#000" stroke-width="2">
   <path id="path24" d="m220 340c40 0 40 20 70.264 20" fill="none"/>
   <path id="polygon26" d="m290.26 360-2.5-5 10 5-10 5z" fill-rule="evenodd"/>
  </g>
  <path id="rect30" d="m140 300h80v80h-80z" fill="#fdfd04" stroke="#000" stroke-width="2"/>
  <path id="rect32" d="m140 380h80v40h-80z" fill="#fdfd04" stroke="#000" stroke-width="2"/>
  <g id="text38" aria-label="double *adat">
   <path id="path71" d="m153.78 328.27v-4.6765h1.4199v12.008h-1.4199v-1.2964q-0.44759 0.7717-1.1344 1.1498-0.67909 0.37042-1.636 0.37042-1.5666 0-2.5543-1.2502-0.98006-1.2502-0.98006-3.2874 0-2.0373 0.98006-3.2874 0.98777-1.2502 2.5543-1.2502 0.95691 0 1.636 0.37814 0.68681 0.37041 1.1344 1.1421zm-4.8386 3.0174q0 1.5666 0.64051 2.4617 0.64822 0.88745 1.7749 0.88745 1.1267 0 1.7749-0.88745 0.64823-0.89517 0.64823-2.4617t-0.64823-2.454q-0.64822-0.89517-1.7749-0.89517-1.1267 0-1.7749 0.89517-0.64051 0.88746-0.64051 2.454z" style=""/>
   <path id="path73" d="m161.47 327.95q-1.1421 0-1.8058 0.89517-0.66367 0.88745-0.66367 2.4386 0 1.5511 0.65595 2.4463 0.66366 0.88746 1.8135 0.88746 1.1344 0 1.7981-0.89517 0.66366-0.89518 0.66366-2.4386 0-1.5357-0.66366-2.4309-0.66366-0.90288-1.7981-0.90288zm0-1.2039q1.8521 0 2.9093 1.2039 1.0572 1.2038 1.0572 3.3337 0 2.1222-1.0572 3.3337-1.0572 1.2038-2.9093 1.2038-1.8598 0-2.917-1.2038-1.0495-1.2116-1.0495-3.3337 0-2.1299 1.0495-3.3337 1.0572-1.2039 2.917-1.2039z" style=""/>
   <path id="path75" d="m167.64 332.19v-5.2321h1.4199v5.1781q0 1.227 0.47846 1.8444 0.47845 0.60964 1.4354 0.60964 1.1498 0 1.8135-0.73312 0.67138-0.73311 0.67138-1.9987v-4.9003h1.4199v8.643h-1.4199v-1.3273q-0.51704 0.78714-1.2038 1.173-0.6791 0.37813-1.582 0.37813-1.4894 0-2.2611-0.92604t-0.7717-2.7087zm3.573-5.4405z" style=""/>
   <path id="path77" d="m184.02 331.28q0-1.5666-0.64822-2.454-0.64051-0.89517-1.7672-0.89517-1.1267 0-1.7749 0.89517-0.64051 0.88746-0.64051 2.454t0.64051 2.4617q0.64822 0.88745 1.7749 0.88745 1.1267 0 1.7672-0.88745 0.64822-0.89517 0.64822-2.4617zm-4.8308-3.0174q0.44758-0.7717 1.1267-1.1421 0.68681-0.37814 1.636-0.37814 1.5743 0 2.5543 1.2502 0.98778 1.2502 0.98778 3.2874 0 2.0373-0.98778 3.2874-0.98005 1.2502-2.5543 1.2502-0.94919 0-1.636-0.37042-0.6791-0.37813-1.1267-1.1498v1.2964h-1.4276v-12.008h1.4276z" style=""/>
   <path id="path79" d="m187.85 323.59h1.4199v12.008h-1.4199z" style=""/>
   <path id="path81" d="m199.62 330.92v0.69453h-6.5286q0.0926 1.4662 0.87973 2.2379 0.79485 0.76399 2.2071 0.76399 0.818 0 1.582-0.20064 0.7717-0.20065 1.528-0.60193v1.3428q-0.76398 0.32411-1.5666 0.49388-0.80257 0.16978-1.6283 0.16978-2.0682 0-3.2797-1.2038-1.2039-1.2038-1.2039-3.2566 0-2.1222 1.1421-3.3646 1.1498-1.2502 3.0945-1.2502 1.744 0 2.755 1.1267 1.0186 1.119 1.0186 3.0482zm-1.4199-0.41672q-0.0154-1.1653-0.65595-1.8598-0.63279-0.69452-1.6823-0.69452-1.1884 0-1.9061 0.67137-0.70996 0.67138-0.818 1.8907z" style=""/>
   <path id="path83" d="m212.93 325.97-2.7704 1.4971 2.7704 1.5048-0.44759 0.75626-2.5929-1.5666v2.9093h-0.87973v-2.9093l-2.5929 1.5666-0.44759-0.75626 2.7704-1.5048-2.7704-1.4971 0.44759-0.76399 2.5929 1.5666v-2.9093h0.87973v2.9093l2.5929-1.5666z" style=""/>
   <path id="path85" d="m167.61 351.01q-1.7209 0-2.3846 0.39357-0.66366 0.39356-0.66366 1.3428 0 0.75627 0.49389 1.2038 0.5016 0.43987 1.3582 0.43987 1.1807 0 1.8907-0.83343 0.71768-0.84115 0.71768-2.2302v-0.3164zm2.8321-0.58649v4.9312h-1.4199v-1.3119q-0.48617 0.78713-1.2116 1.1653-0.7254 0.37042-1.7749 0.37042-1.3273 0-2.1144-0.74083-0.77942-0.74855-0.77942-1.9987 0-1.4585 0.97234-2.1994 0.98006-0.74083 2.917-0.74083h1.991v-0.1389q0-0.98006-0.64823-1.5125-0.64051-0.54019-1.8058-0.54019-0.74084 0-1.4431 0.17749-0.70225 0.17749-1.3505 0.53247v-1.3119q0.77942-0.30096 1.5125-0.44758 0.73311-0.15434 1.4276-0.15434 1.8752 0 2.8013 0.97234t0.92604 2.9479z" style=""/>
   <path id="path87" d="m179.06 348.02v-4.6765h1.4199v12.008h-1.4199v-1.2965q-0.44759 0.7717-1.1344 1.1498-0.6791 0.37042-1.636 0.37042-1.5666 0-2.5543-1.2502-0.98006-1.2502-0.98006-3.2874 0-2.0373 0.98006-3.2874 0.98778-1.2502 2.5543-1.2502 0.9569 0 1.636 0.37813 0.68681 0.37041 1.1344 1.1421zm-4.8386 3.0174q0 1.5666 0.64051 2.4617 0.64823 0.88745 1.7749 0.88745t1.7749-0.88745q0.64823-0.89517 0.64823-2.4617t-0.64823-2.454q-0.64823-0.89517-1.7749-0.89517t-1.7749 0.89517q-0.64051 0.88746-0.64051 2.454z" style=""/>
   <path id="path89" d="m187.33 351.01q-1.7209 0-2.3846 0.39357-0.66366 0.39356-0.66366 1.3428 0 0.75627 0.49389 1.2038 0.5016 0.43987 1.3582 0.43987 1.1807 0 1.8907-0.83343 0.71768-0.84115 0.71768-2.2302v-0.3164zm2.8321-0.58649v4.9312h-1.4199v-1.3119q-0.48617 0.78713-1.2116 1.1653-0.72539 0.37042-1.7749 0.37042-1.3273 0-2.1145-0.74083-0.77942-0.74855-0.77942-1.9987 0-1.4585 0.97234-2.1994 0.98006-0.74083 2.917-0.74083h1.991v-0.1389q0-0.98006-0.64823-1.5125-0.64051-0.54019-1.8058-0.54019-0.74083 0-1.4431 0.17749t-1.3505 0.53247v-1.3119q0.77941-0.30096 1.5125-0.44758 0.73311-0.15434 1.4276-0.15434 1.8752 0 2.8013 0.97234t0.92604 2.9479z" style=""/>
   <path id="path91" d="m194.5 344.26v2.454h2.9247v1.1035h-2.9247v4.6919q0 1.0572 0.28553 1.3582 0.29324 0.30096 1.1807 0.30096h1.4585v1.1884h-1.4585q-1.6437 0-2.2688-0.60965-0.62507-0.61735-0.62507-2.2379v-4.6919h-1.0418v-1.1035h1.0418v-2.454z" style=""/>
  </g>
  <g id="text44" aria-label="intmeret">
   <path id="path94" d="m171.18 386.95h1.4199v8.643h-1.4199zm0-3.3646h1.4199v1.7981h-1.4199z" style=""/>
   <path id="path96" d="m182.75 390.38v5.2167h-1.4199v-5.1704q0-1.227-0.47845-1.8366-0.47845-0.60965-1.4354-0.60965-1.1498 0-1.8135 0.73312-0.66367 0.73311-0.66367 1.9987v4.8848h-1.4276v-8.643h1.4276v1.3428q0.50933-0.77942 1.1961-1.1653 0.69453-0.38585 1.5974-0.38585 1.4894 0 2.2534 0.92604 0.76398 0.91833 0.76398 2.7087z" style=""/>
   <path id="path98" d="m187 384.5v2.454h2.9247v1.1035h-2.9247v4.6919q0 1.0572 0.28553 1.3582 0.29325 0.30096 1.1807 0.30096h1.4585v1.1884h-1.4585q-1.6437 0-2.2688-0.60964-0.62508-0.61736-0.62508-2.2379v-4.6919h-1.0418v-1.1035h1.0418v-2.454z" style=""/>
   <path id="path100" d="m164.6 408.37q0.53247-0.95691 1.2733-1.4122 0.74084-0.4553 1.744-0.4553 1.3505 0 2.0836 0.94919 0.73312 0.94147 0.73312 2.6855v5.2167h-1.4276v-5.1704q0-1.2424-0.43987-1.8444-0.43986-0.60192-1.3428-0.60192-1.1035 0-1.744 0.73311t-0.64051 1.9987v4.8849h-1.4276v-5.1704q0-1.2502-0.43987-1.8444-0.43986-0.60192-1.3582-0.60192-1.0881 0-1.7286 0.74083-0.64051 0.73311-0.64051 1.991v4.8849h-1.4276v-8.643h1.4276v1.3428q0.48617-0.79485 1.1653-1.173 0.6791-0.37813 1.6128-0.37813 0.94148 0 1.5974 0.47845 0.66366 0.47845 0.98006 1.3891z" style=""/>
   <path id="path102" d="m180.67 410.68v0.69453h-6.5286q0.0926 1.4662 0.87974 2.2379 0.79485 0.76398 2.2071 0.76398 0.818 0 1.582-0.20064 0.7717-0.20064 1.528-0.60193v1.3428q-0.76398 0.32411-1.5666 0.49389-0.80257 0.16977-1.6283 0.16977-2.0682 0-3.2797-1.2038-1.2038-1.2038-1.2038-3.2566 0-2.1222 1.1421-3.3646 1.1498-1.2502 3.0945-1.2502 1.744 0 2.755 1.1267 1.0186 1.119 1.0186 3.0482zm-1.4199-0.41672q-0.0154-1.1653-0.65594-1.8598-0.6328-0.69453-1.6823-0.69453-1.1884 0-1.9061 0.67138-0.70997 0.67137-0.818 1.8907z" style=""/>
   <path id="path104" d="m188.01 408.04q-0.23923-0.13891-0.52476-0.20064-0.27781-0.0695-0.61736-0.0695-1.2038 0-1.8521 0.78714-0.64051 0.77941-0.64051 2.2456v4.553h-1.4276v-8.643h1.4276v1.3428q0.44758-0.78713 1.1653-1.1653 0.71768-0.38585 1.744-0.38585 0.14662 0 0.32412 0.0231 0.17749 0.0154 0.39356 0.054z" style=""/>
   <path id="path106" d="m196.57 410.68v0.69453h-6.5286q0.0926 1.4662 0.87973 2.2379 0.79485 0.76398 2.2071 0.76398 0.81801 0 1.582-0.20064 0.7717-0.20064 1.528-0.60193v1.3428q-0.76398 0.32411-1.5666 0.49389-0.80256 0.16977-1.6283 0.16977-2.0682 0-3.2797-1.2038-1.2039-1.2038-1.2039-3.2566 0-2.1222 1.1421-3.3646 1.1498-1.2502 3.0945-1.2502 1.744 0 2.755 1.1267 1.0186 1.119 1.0186 3.0482zm-1.4199-0.41672q-0.0154-1.1653-0.65595-1.8598-0.63279-0.69453-1.6823-0.69453-1.1884 0-1.9061 0.67138-0.70996 0.67137-0.818 1.8907z" style=""/>
   <path id="path108" d="m200.3 404.26v2.454h2.9247v1.1035h-2.9247v4.6919q0 1.0572 0.28553 1.3582 0.29324 0.30096 1.1807 0.30096h1.4585v1.1884h-1.4585q-1.6437 0-2.2688-0.60965-0.62508-0.61735-0.62508-2.2379v-4.6919h-1.0418v-1.1035h1.0418v-2.454z" style=""/>
  </g>
 </g>
</svg>
