<?xml version="1.0" encoding="UTF-8"?>
<svg id="svg115" width="26.949cm" height="9.3247cm" version="1.1" viewBox="88 325 532 176.24" xmlns="http://www.w3.org/2000/svg" xmlns:cc="http://creativecommons.org/ns#" xmlns:dc="http://purl.org/dc/elements/1.1/" xmlns:rdf="http://www.w3.org/1999/02/22-rdf-syntax-ns#">
 <metadata id="metadata119">
  <rdf:RDF>
   <cc:Work rdf:about="">
    <dc:format>image/svg+xml</dc:format>
    <dc:type rdf:resource="http://purl.org/dc/dcmitype/StillImage"/>
   </cc:Work>
  </rdf:RDF>
 </metadata>
 <g id="Háttér" transform="translate(-1 -6.9276)">
  <g id="text8" aria-label="intmeret">
   <path id="path871" d="m147.44 398.82h1.2171v7.4084h-1.2171zm0-2.884h1.2171v1.5412h-1.2171z" style=""/>
   <path id="path873" d="m157.35 401.76v4.4715h-1.2171v-4.4318q0-1.0517-0.4101-1.5743-0.41011-0.52256-1.2303-0.52256-0.98557 0-1.5544 0.62839t-0.56886 1.7132v4.187h-1.2237v-7.4084h1.2237v1.1509q0.43657-0.66807 1.0253-0.9988 0.59531-0.33073 1.3692-0.33073 1.2766 0 1.9315 0.79375 0.65485 0.78714 0.65485 2.3217z" style=""/>
   <path id="path875" d="m161 396.72v2.1034h2.5069v0.94589h-2.5069v4.0217q0 0.9062 0.24474 1.1642 0.25136 0.25797 1.012 0.25797h1.2502v1.0186h-1.2502q-1.4089 0-1.9447-0.52255-0.53578-0.52917-0.53578-1.9182v-4.0217h-0.89297v-0.94589h0.89297v-2.1034z" style=""/>
   <path id="path877" d="m141.8 417.18q0.45641-0.82021 1.0914-1.2105t1.4949-0.39026q1.1576 0 1.7859 0.81359 0.62839 0.80698 0.62839 2.3019v4.4715h-1.2237v-4.4318q0-1.065-0.37703-1.5809t-1.1509-0.51594q-0.94589 0-1.4949 0.62839t-0.54901 1.7132v4.187h-1.2237v-4.4318q0-1.0716-0.37704-1.5809-0.37703-0.51594-1.1642-0.51594-0.93265 0-1.4817 0.635-0.54901 0.62839-0.54901 1.7066v4.187h-1.2237v-7.4084h1.2237v1.1509q0.41672-0.6813 0.99881-1.0054 0.58208-0.32411 1.3824-0.32411 0.80698 0 1.3692 0.4101 0.56886 0.41011 0.84005 1.1906z" style=""/>
   <path id="path879" d="m155.58 419.16v0.59532h-5.596q0.0794 1.2568 0.75406 1.9182 0.68131 0.65485 1.8918 0.65485 0.70115 0 1.356-0.17198 0.66146-0.17198 1.3097-0.51594v1.1509q-0.65484 0.27781-1.3428 0.42333-0.68792 0.14553-1.3957 0.14553-1.7727 0-2.8112-1.0319-1.0319-1.0319-1.0319-2.7914 0-1.819 0.97896-2.884 0.98557-1.0716 2.6524-1.0716 1.4949 0 2.3614 0.96573 0.87313 0.95912 0.87313 2.6128zm-1.2171-0.35718q-0.0132-0.99881-0.56224-1.5941-0.54239-0.59532-1.442-0.59532-1.0186 0-1.6338 0.57547-0.60854 0.57547-0.70114 1.6206z" style=""/>
   <path id="path881" d="m161.87 416.9q-0.20505-0.11906-0.44979-0.17198-0.23812-0.0595-0.52917-0.0595-1.0319 0-1.5875 0.67469-0.54901 0.66807-0.54901 1.9248v3.9026h-1.2237v-7.4084h1.2237v1.1509q0.38365-0.67469 0.9988-0.9988 0.61516-0.33073 1.4949-0.33073 0.12568 0 0.27782 0.0198 0.15213 0.0132 0.33734 0.0463z" style=""/>
   <path id="path883" d="m169.2 419.16v0.59532h-5.596q0.0794 1.2568 0.75407 1.9182 0.6813 0.65485 1.8918 0.65485 0.70115 0 1.356-0.17198 0.66146-0.17198 1.3097-0.51594v1.1509q-0.65485 0.27781-1.3428 0.42333-0.68791 0.14553-1.3957 0.14553-1.7727 0-2.8112-1.0319-1.0319-1.0319-1.0319-2.7914 0-1.819 0.97896-2.884 0.98558-1.0716 2.6525-1.0716 1.4949 0 2.3614 0.96573 0.87313 0.95912 0.87313 2.6128zm-1.2171-0.35718q-0.0132-0.99881-0.56224-1.5941-0.5424-0.59532-1.442-0.59532-1.0186 0-1.6338 0.57547-0.60854 0.57547-0.70115 1.6206z" style=""/>
   <path id="path885" d="m172.4 413.66v2.1034h2.5069v0.94589h-2.5069v4.0217q0 0.9062 0.24474 1.1642 0.25136 0.25797 1.012 0.25797h1.2502v1.0186h-1.2502q-1.4089 0-1.9447-0.52255-0.53578-0.52917-0.53578-1.9182v-4.0217h-0.89297v-0.94589h0.89297v-2.1034z" style=""/>
  </g>
  <path id="rect10" d="m300 350h200v40h-200z" fill="#7babe3" stroke="#000" stroke-width="2"/>
  <path id="line12" d="m380 350v40" fill="none" stroke="#bfbfbf" stroke-width="2"/>
  <path id="line14" d="m340 350v40" fill="none" stroke="#bfbfbf" stroke-width="2"/>
  <path id="line16" d="m420 350v40" fill="none" stroke="#bfbfbf" stroke-width="2"/>
  <path id="line18" d="m460 350v40" fill="none" stroke="#bfbfbf" stroke-width="2"/>
  <g id="g24" stroke="#000" stroke-width="2">
   <path id="path20" d="m220 365c40 0 40 5 70.264 5" fill="none"/>
   <path id="polygon22" d="m290.26 370-2.5-5 10 5-10 5z" fill-rule="evenodd"/>
  </g>
  <path id="rect26" d="m90 340h130v50h-130z" fill="#fdfd04" stroke="#000" stroke-width="2"/>
  <path id="rect28" d="m90 390h130v40h-130z" fill="#fdfd04" stroke="#000" stroke-width="2"/>
  <g id="text32" aria-label="double *adat">
   <path id="path896" d="m110.97 363.14v-4.6765h1.4199v12.008h-1.4199v-1.2965q-0.44758 0.7717-1.1344 1.1498-0.67909 0.37042-1.636 0.37042-1.5666 0-2.5543-1.2502-0.98006-1.2502-0.98006-3.2874 0-2.0373 0.98006-3.2874 0.98777-1.2502 2.5543-1.2502 0.95691 0 1.636 0.37813 0.68682 0.37041 1.1344 1.1421zm-4.8386 3.0174q0 1.5666 0.64051 2.4617 0.64822 0.88745 1.7749 0.88745 1.1267 0 1.7749-0.88745 0.64823-0.89517 0.64823-2.4617t-0.64823-2.454q-0.64822-0.89517-1.7749-0.89517-1.1267 0-1.7749 0.89517-0.64051 0.88746-0.64051 2.454z" style=""/>
   <path id="path898" d="m118.66 362.83q-1.1421 0-1.8058 0.89517-0.66366 0.88745-0.66366 2.4386 0 1.5511 0.65594 2.4463 0.66366 0.88746 1.8135 0.88746 1.1344 0 1.7981-0.89517t0.66366-2.4386q0-1.5357-0.66366-2.4309-0.66366-0.90288-1.7981-0.90288zm0-1.2038q1.8521 0 2.9093 1.2038t1.0572 3.3337q0 2.1222-1.0572 3.3337-1.0572 1.2038-2.9093 1.2038-1.8598 0-2.917-1.2038-1.0495-1.2116-1.0495-3.3337 0-2.1299 1.0495-3.3337 1.0572-1.2038 2.917-1.2038z" style=""/>
   <path id="path900" d="m124.83 367.06v-5.2321h1.4199v5.1781q0 1.227 0.47845 1.8444 0.47845 0.60964 1.4354 0.60964 1.1498 0 1.8135-0.73311 0.67138-0.73312 0.67138-1.9987v-4.9003h1.4199v8.643h-1.4199v-1.3273q-0.51704 0.78714-1.2038 1.173-0.6791 0.37813-1.582 0.37813-1.4894 0-2.2611-0.92604t-0.7717-2.7087zm3.573-5.4405z" style=""/>
   <path id="path902" d="m141.21 366.16q0-1.5666-0.64822-2.454-0.64051-0.89517-1.7672-0.89517t-1.7749 0.89517q-0.64051 0.88746-0.64051 2.454t0.64051 2.4617q0.64823 0.88745 1.7749 0.88745t1.7672-0.88745q0.64822-0.89517 0.64822-2.4617zm-4.8308-3.0174q0.44758-0.7717 1.1267-1.1421 0.68681-0.37813 1.636-0.37813 1.5743 0 2.5543 1.2502 0.98777 1.2502 0.98777 3.2874 0 2.0373-0.98777 3.2874-0.98006 1.2502-2.5543 1.2502-0.94919 0-1.636-0.37042-0.6791-0.37813-1.1267-1.1498v1.2965h-1.4276v-12.008h1.4276z" style=""/>
   <path id="path904" d="m145.04 358.47h1.4199v12.008h-1.4199z" style=""/>
   <path id="path906" d="m156.81 365.8v0.69453h-6.5286q0.0926 1.4662 0.87974 2.2379 0.79485 0.76398 2.2071 0.76398 0.818 0 1.582-0.20064 0.7717-0.20065 1.528-0.60193v1.3428q-0.76398 0.32411-1.5666 0.49389-0.80256 0.16977-1.6283 0.16977-2.0682 0-3.2797-1.2038-1.2038-1.2038-1.2038-3.2566 0-2.1222 1.1421-3.3646 1.1498-1.2502 3.0945-1.2502 1.744 0 2.755 1.1267 1.0186 1.119 1.0186 3.0482zm-1.4199-0.41672q-0.0154-1.1653-0.65595-1.8598-0.63279-0.69453-1.6823-0.69453-1.1884 0-1.9061 0.67137-0.70996 0.67138-0.818 1.8907z" style=""/>
   <path id="path908" d="m170.12 360.85-2.7704 1.4971 2.7704 1.5048-0.44759 0.75626-2.5929-1.5666v2.9093h-0.87973v-2.9093l-2.5929 1.5666-0.44759-0.75626 2.7704-1.5048-2.7704-1.4971 0.44759-0.76399 2.5929 1.5666v-2.9093h0.87973v2.9093l2.5929-1.5666z" style=""/>
   <path id="path910" d="m176.01 366.13q-1.7209 0-2.3846 0.39357-0.66366 0.39356-0.66366 1.3428 0 0.75627 0.49389 1.2038 0.5016 0.43987 1.3582 0.43987 1.1807 0 1.8907-0.83343 0.71768-0.84116 0.71768-2.2302v-0.3164zm2.8321-0.58649v4.9312h-1.4199v-1.3119q-0.48617 0.78713-1.2116 1.1653-0.7254 0.37042-1.7749 0.37042-1.3273 0-2.1145-0.74083-0.77942-0.74855-0.77942-1.9987 0-1.4585 0.97235-2.1994 0.98005-0.74083 2.917-0.74083h1.991v-0.1389q0-0.98006-0.64822-1.5125-0.64051-0.54019-1.8058-0.54019-0.74083 0-1.4431 0.17749-0.70224 0.17749-1.3505 0.53247v-1.3119q0.77941-0.30096 1.5125-0.44758 0.73311-0.15434 1.4276-0.15434 1.8752 0 2.8013 0.97234t0.92604 2.9479z" style=""/>
   <path id="path912" d="m187.46 363.14v-4.6765h1.4199v12.008h-1.4199v-1.2965q-0.44758 0.7717-1.1344 1.1498-0.67909 0.37042-1.636 0.37042-1.5666 0-2.5543-1.2502-0.98006-1.2502-0.98006-3.2874 0-2.0373 0.98006-3.2874 0.98777-1.2502 2.5543-1.2502 0.95691 0 1.636 0.37813 0.68682 0.37041 1.1344 1.1421zm-4.8386 3.0174q0 1.5666 0.64051 2.4617 0.64822 0.88745 1.7749 0.88745 1.1267 0 1.7749-0.88745 0.64823-0.89517 0.64823-2.4617t-0.64823-2.454q-0.64822-0.89517-1.7749-0.89517-1.1267 0-1.7749 0.89517-0.64051 0.88746-0.64051 2.454z" style=""/>
   <path id="path914" d="m195.73 366.13q-1.7209 0-2.3846 0.39357-0.66367 0.39356-0.66367 1.3428 0 0.75627 0.49389 1.2038 0.50161 0.43987 1.3582 0.43987 1.1807 0 1.8907-0.83343 0.71768-0.84116 0.71768-2.2302v-0.3164zm2.8321-0.58649v4.9312h-1.4199v-1.3119q-0.48618 0.78713-1.2116 1.1653-0.7254 0.37042-1.7749 0.37042-1.3273 0-2.1145-0.74083-0.77941-0.74855-0.77941-1.9987 0-1.4585 0.97234-2.1994 0.98006-0.74083 2.917-0.74083h1.991v-0.1389q0-0.98006-0.64823-1.5125-0.64051-0.54019-1.8058-0.54019-0.74083 0-1.4431 0.17749-0.70224 0.17749-1.3505 0.53247v-1.3119q0.77942-0.30096 1.5125-0.44758 0.73312-0.15434 1.4276-0.15434 1.8752 0 2.8013 0.97234t0.92604 2.9479z" style=""/>
   <path id="path916" d="m202.9 359.38v2.454h2.9247v1.1035h-2.9247v4.6919q0 1.0572 0.28553 1.3582 0.29325 0.30096 1.1807 0.30096h1.4585v1.1884h-1.4585q-1.6437 0-2.2688-0.60965-0.62508-0.61736-0.62508-2.2379v-4.6919h-1.0418v-1.1035h1.0418v-2.454z" style=""/>
  </g>
  <g id="text36" aria-label="int meret">
   <path id="path919" d="m120.05 406.83h1.4199v8.643h-1.4199zm0-3.3646h1.4199v1.7981h-1.4199z" style=""/>
   <path id="path921" d="m131.62 410.26v5.2167h-1.4199v-5.1704q0-1.227-0.47846-1.8366-0.47845-0.60965-1.4354-0.60965-1.1498 0-1.8135 0.73312-0.66366 0.73311-0.66366 1.9987v4.8849h-1.4276v-8.643h1.4276v1.3428q0.50932-0.77941 1.1961-1.1653 0.69453-0.38585 1.5974-0.38585 1.4894 0 2.2534 0.92603 0.76398 0.91833 0.76398 2.7087z" style=""/>
   <path id="path923" d="m135.87 404.38v2.454h2.9247v1.1035h-2.9247v4.6919q0 1.0572 0.28553 1.3582 0.29324 0.30096 1.1807 0.30096h1.4585v1.1884h-1.4585q-1.6437 0-2.2688-0.60965-0.62508-0.61736-0.62508-2.2379v-4.6919h-1.0418v-1.1035h1.0418v-2.454z" style=""/>
   <path id="path925" d="m152.43 408.49q0.53247-0.95691 1.2733-1.4122 0.74083-0.4553 1.744-0.4553 1.3505 0 2.0836 0.94919 0.73312 0.94147 0.73312 2.6855v5.2167h-1.4276v-5.1704q0-1.2424-0.43986-1.8444-0.43987-0.60193-1.3428-0.60193-1.1035 0-1.744 0.73312-0.64051 0.73311-0.64051 1.9987v4.8849h-1.4276v-5.1704q0-1.2502-0.43987-1.8444-0.43987-0.60193-1.3582-0.60193-1.0881 0-1.7286 0.74084-0.64051 0.73311-0.64051 1.991v4.8849h-1.4276v-8.643h1.4276v1.3428q0.48617-0.79485 1.1653-1.173 0.67909-0.37813 1.6128-0.37813 0.94147 0 1.5974 0.47845 0.66367 0.47845 0.98006 1.3891z" style=""/>
   <path id="path927" d="m168.5 410.8v0.69453h-6.5286q0.0926 1.4662 0.87973 2.2379 0.79485 0.76398 2.2071 0.76398 0.818 0 1.582-0.20064 0.7717-0.20065 1.528-0.60193v1.3428q-0.76398 0.32411-1.5666 0.49389-0.80257 0.16977-1.6283 0.16977-2.0682 0-3.2797-1.2038-1.2038-1.2038-1.2038-3.2566 0-2.1222 1.1421-3.3646 1.1498-1.2502 3.0945-1.2502 1.744 0 2.755 1.1267 1.0186 1.119 1.0186 3.0482zm-1.4199-0.41672q-0.0154-1.1653-0.65594-1.8598-0.63279-0.69453-1.6823-0.69453-1.1884 0-1.9061 0.67137-0.70996 0.67138-0.818 1.8907z" style=""/>
   <path id="path929" d="m175.84 408.16q-0.23923-0.13891-0.52476-0.20064-0.27781-0.0695-0.61736-0.0695-1.2038 0-1.8521 0.78714-0.64051 0.77941-0.64051 2.2456v4.553h-1.4276v-8.643h1.4276v1.3428q0.44758-0.78713 1.1653-1.1653 0.71768-0.38585 1.744-0.38585 0.14662 0 0.32412 0.0231 0.17749 0.0154 0.39356 0.054z" style=""/>
   <path id="path931" d="m184.39 410.8v0.69453h-6.5286q0.0926 1.4662 0.87974 2.2379 0.79485 0.76398 2.2071 0.76398 0.818 0 1.582-0.20064 0.7717-0.20065 1.528-0.60193v1.3428q-0.76398 0.32411-1.5666 0.49389-0.80256 0.16977-1.6283 0.16977-2.0682 0-3.2797-1.2038-1.2038-1.2038-1.2038-3.2566 0-2.1222 1.1421-3.3646 1.1498-1.2502 3.0945-1.2502 1.744 0 2.755 1.1267 1.0186 1.119 1.0186 3.0482zm-1.4199-0.41672q-0.0154-1.1653-0.65595-1.8598-0.63279-0.69453-1.6823-0.69453-1.1884 0-1.9061 0.67137-0.70996 0.67138-0.818 1.8907z" style=""/>
   <path id="path933" d="m188.13 404.38v2.454h2.9247v1.1035h-2.9247v4.6919q0 1.0572 0.28553 1.3582 0.29324 0.30096 1.1807 0.30096h1.4585v1.1884h-1.4585q-1.6437 0-2.2688-0.60965-0.62508-0.61736-0.62508-2.2379v-4.6919h-1.0418v-1.1035h1.0418v-2.454z" style=""/>
  </g>
  <path id="rect38" d="m90 450h130v50h-130z" fill="#fdfd04" stroke="#000" stroke-width="2"/>
  <g id="text42" aria-label="double *ujadat">
   <path id="path937" d="m103.76 473.14v-4.6765h1.4199v12.008h-1.4199v-1.2965q-0.44759 0.7717-1.1344 1.1498-0.67909 0.37042-1.636 0.37042-1.5665 0-2.5543-1.2502-0.98006-1.2502-0.98006-3.2874 0-2.0373 0.98006-3.2874 0.98778-1.2502 2.5543-1.2502 0.95691 0 1.636 0.37813 0.68681 0.37041 1.1344 1.1421zm-4.8386 3.0174q0 1.5666 0.64051 2.4617 0.64822 0.88745 1.7749 0.88745 1.1267 0 1.7749-0.88745 0.64823-0.89517 0.64823-2.4617t-0.64823-2.454q-0.64822-0.89517-1.7749-0.89517-1.1267 0-1.7749 0.89517-0.64051 0.88746-0.64051 2.454z" style=""/>
   <path id="path939" d="m111.45 472.83q-1.1421 0-1.8058 0.89517-0.66367 0.88745-0.66367 2.4386 0 1.5511 0.65595 2.4463 0.66366 0.88746 1.8135 0.88746 1.1344 0 1.7981-0.89517t0.66366-2.4386q0-1.5357-0.66366-2.4309-0.66366-0.90288-1.7981-0.90288zm0-1.2038q1.8521 0 2.9093 1.2038t1.0572 3.3337q0 2.1222-1.0572 3.3337-1.0572 1.2038-2.9093 1.2038-1.8598 0-2.917-1.2038-1.0495-1.2116-1.0495-3.3337 0-2.1299 1.0495-3.3337 1.0572-1.2038 2.917-1.2038z" style=""/>
   <path id="path941" d="m117.62 477.06v-5.2321h1.4199v5.1781q0 1.227 0.47846 1.8444 0.47845 0.60964 1.4354 0.60964 1.1498 0 1.8135-0.73311 0.67138-0.73312 0.67138-1.9987v-4.9003h1.4199v8.643h-1.4199v-1.3273q-0.51704 0.78714-1.2038 1.173-0.6791 0.37813-1.582 0.37813-1.4894 0-2.2611-0.92604t-0.7717-2.7087zm3.573-5.4405z" style=""/>
   <path id="path943" d="m134 476.16q0-1.5666-0.64822-2.454-0.64051-0.89517-1.7672-0.89517-1.1267 0-1.7749 0.89517-0.64051 0.88746-0.64051 2.454t0.64051 2.4617q0.64822 0.88745 1.7749 0.88745 1.1267 0 1.7672-0.88745 0.64822-0.89517 0.64822-2.4617zm-4.8308-3.0174q0.44758-0.7717 1.1267-1.1421 0.68681-0.37813 1.636-0.37813 1.5743 0 2.5543 1.2502 0.98778 1.2502 0.98778 3.2874 0 2.0373-0.98778 3.2874-0.98005 1.2502-2.5543 1.2502-0.94919 0-1.636-0.37042-0.6791-0.37813-1.1267-1.1498v1.2965h-1.4276v-12.008h1.4276z" style=""/>
   <path id="path945" d="m137.83 468.47h1.4199v12.008h-1.4199z" style=""/>
   <path id="path947" d="m149.61 475.8v0.69453h-6.5286q0.0926 1.4662 0.87973 2.2379 0.79485 0.76398 2.2071 0.76398 0.81801 0 1.582-0.20064 0.7717-0.20065 1.528-0.60193v1.3428q-0.76398 0.32411-1.5666 0.49389-0.80256 0.16977-1.6283 0.16977-2.0682 0-3.2797-1.2038-1.2039-1.2038-1.2039-3.2566 0-2.1222 1.1421-3.3646 1.1498-1.2502 3.0945-1.2502 1.744 0 2.755 1.1267 1.0186 1.119 1.0186 3.0482zm-1.4199-0.41672q-0.0154-1.1653-0.65595-1.8598-0.63279-0.69453-1.6823-0.69453-1.1884 0-1.9061 0.67137-0.70996 0.67138-0.818 1.8907z" style=""/>
   <path id="path949" d="m162.91 470.85-2.7704 1.4971 2.7704 1.5048-0.44759 0.75626-2.5929-1.5666v2.9093h-0.87973v-2.9093l-2.5929 1.5666-0.44759-0.75626 2.7704-1.5048-2.7704-1.4971 0.44759-0.76399 2.5929 1.5666v-2.9093h0.87973v2.9093l2.5929-1.5666z" style=""/>
   <path id="path951" d="m164.72 477.06v-5.2321h1.4199v5.1781q0 1.227 0.47845 1.8444 0.47845 0.60964 1.4354 0.60964 1.1498 0 1.8135-0.73311 0.67138-0.73312 0.67138-1.9987v-4.9003h1.4199v8.643h-1.4199v-1.3273q-0.51704 0.78714-1.2038 1.173-0.67909 0.37813-1.582 0.37813-1.4894 0-2.2611-0.92604t-0.7717-2.7087zm3.573-5.4405z" style=""/>
   <path id="path953" d="m174.9 471.83h1.4199v8.7974q0 1.6514-0.63279 2.3923-0.62508 0.74083-2.0219 0.74083h-0.54019v-1.2038h0.37814q0.81028 0 1.1035-0.37813 0.29324-0.37041 0.29324-1.5511zm0-3.3646h1.4199v1.7981h-1.4199z" style=""/>
   <path id="path955" d="m183.21 476.13q-1.7209 0-2.3846 0.39357-0.66367 0.39356-0.66367 1.3428 0 0.75627 0.49389 1.2038 0.50161 0.43987 1.3582 0.43987 1.1807 0 1.8907-0.83343 0.71768-0.84116 0.71768-2.2302v-0.3164zm2.8321-0.58649v4.9312h-1.4199v-1.3119q-0.48617 0.78713-1.2116 1.1653-0.7254 0.37042-1.7749 0.37042-1.3273 0-2.1145-0.74083-0.77941-0.74855-0.77941-1.9987 0-1.4585 0.97234-2.1994 0.98006-0.74083 2.917-0.74083h1.991v-0.1389q0-0.98006-0.64823-1.5125-0.64051-0.54019-1.8058-0.54019-0.74083 0-1.4431 0.17749-0.70225 0.17749-1.3505 0.53247v-1.3119q0.77942-0.30096 1.5125-0.44758 0.73312-0.15434 1.4276-0.15434 1.8752 0 2.8013 0.97234t0.92604 2.9479z" style=""/>
   <path id="path957" d="m194.67 473.14v-4.6765h1.4199v12.008h-1.4199v-1.2965q-0.44758 0.7717-1.1344 1.1498-0.6791 0.37042-1.636 0.37042-1.5666 0-2.5543-1.2502-0.98006-1.2502-0.98006-3.2874 0-2.0373 0.98006-3.2874 0.98777-1.2502 2.5543-1.2502 0.95691 0 1.636 0.37813 0.68681 0.37041 1.1344 1.1421zm-4.8386 3.0174q0 1.5666 0.64051 2.4617 0.64823 0.88745 1.7749 0.88745t1.7749-0.88745q0.64822-0.89517 0.64822-2.4617t-0.64822-2.454q-0.64823-0.89517-1.7749-0.89517t-1.7749 0.89517q-0.64051 0.88746-0.64051 2.454z" style=""/>
   <path id="path959" d="m202.94 476.13q-1.7209 0-2.3846 0.39357-0.66366 0.39356-0.66366 1.3428 0 0.75627 0.49388 1.2038 0.50161 0.43987 1.3582 0.43987 1.1807 0 1.8907-0.83343 0.71768-0.84116 0.71768-2.2302v-0.3164zm2.8321-0.58649v4.9312h-1.4199v-1.3119q-0.48617 0.78713-1.2116 1.1653-0.7254 0.37042-1.7749 0.37042-1.3273 0-2.1144-0.74083-0.77942-0.74855-0.77942-1.9987 0-1.4585 0.97234-2.1994 0.98006-0.74083 2.917-0.74083h1.991v-0.1389q0-0.98006-0.64823-1.5125-0.64051-0.54019-1.8058-0.54019-0.74084 0-1.4431 0.17749-0.70225 0.17749-1.3505 0.53247v-1.3119q0.77942-0.30096 1.5125-0.44758 0.73312-0.15434 1.4276-0.15434 1.8752 0 2.8013 0.97234t0.92604 2.9479z" style=""/>
   <path id="path961" d="m210.11 469.38v2.454h2.9247v1.1035h-2.9247v4.6919q0 1.0572 0.28552 1.3582 0.29325 0.30096 1.1807 0.30096h1.4585v1.1884h-1.4585q-1.6437 0-2.2688-0.60965-0.62508-0.61736-0.62508-2.2379v-4.6919h-1.0418v-1.1035h1.0418v-2.454z" style=""/>
  </g>
  <path id="rect44" d="m300 450h320v40h-320z" fill="#7babe3" stroke="#000" stroke-width="2"/>
  <path id="line46" d="m380 450v40" fill="none" stroke="#bfbfbf" stroke-width="2"/>
  <path id="line48" d="m340 450v40" fill="none" stroke="#bfbfbf" stroke-width="2"/>
  <path id="line50" d="m460 450v40" fill="none" stroke="#bfbfbf" stroke-width="2"/>
  <path id="line52" d="m420 450v40" fill="none" stroke="#bfbfbf" stroke-width="2"/>
  <path id="line54" d="m500 450v40" fill="none" stroke="#bfbfbf" stroke-width="2"/>
  <g id="g60" stroke="#173b8f" stroke-width="2">
   <path id="path56" d="m220 475c40 0 40 5 70.264 5" fill="none"/>
   <path id="polygon58" d="m290.26 480-2.5-5 10 5-10 5z" fill="#173b8f" fill-rule="evenodd"/>
  </g>
  <path id="line62" d="m540 450v40" fill="none" stroke="#bfbfbf" stroke-width="2"/>
  <path id="line64" d="m580 450v40" fill="none" stroke="#bfbfbf" stroke-width="2"/>
  <g id="g70" stroke="#173b8f" stroke-width="2">
   <path id="line66" d="m320 400v30.264" fill="none"/>
   <path id="polygon68" d="m320 430.26 5-2.5-5 10-5-10z" fill="#173b8f" fill-rule="evenodd"/>
  </g>
  <g id="g76" stroke="#173b8f" stroke-width="2">
   <path id="line72" d="m400 400v30.264" fill="none"/>
   <path id="polygon74" d="m400 430.26 5-2.5-5 10-5-10z" fill="#173b8f" fill-rule="evenodd"/>
  </g>
  <g id="g82" stroke="#173b8f" stroke-width="2">
   <path id="line78" d="m480 400v30.264" fill="none"/>
   <path id="polygon80" d="m480 430.26 5-2.5-5 10-5-10z" fill="#173b8f" fill-rule="evenodd"/>
  </g>
  <g id="g88" stroke="#173b8f" stroke-width="2">
   <path id="path84" d="m220 365c40 0 40 95 70.264 95" fill="none"/>
   <path id="polygon86" d="m290.26 460-2.5-5 10 5-10 5z" fill="#173b8f" fill-rule="evenodd"/>
  </g>
  <g id="text92" fill="#173b8f" aria-label="(1a)">
   <path id="path980" d="m448.85 498.01q-1.0341 1.7749-1.5357 3.5112-0.5016 1.7363-0.5016 3.5189 0 1.7826 0.5016 3.5344 0.50933 1.744 1.5357 3.5112h-1.2347q-1.1576-1.8135-1.7363-3.5652-0.57105-1.7518-0.57105-3.4804 0-1.7209 0.57105-3.4649 0.57106-1.744 1.7363-3.5652z" style=""/>
   <path id="path982" d="m452.08 508.69h2.5466v-8.7896l-2.7704 0.55562v-1.4199l2.755-0.55562h1.5588v10.21h2.5466v1.3119h-6.6366z" style=""/>
   <path id="path984" d="m465.6 505.66q-1.7209 0-2.3846 0.39357-0.66367 0.39357-0.66367 1.3428 0 0.75626 0.49389 1.2038 0.50161 0.43987 1.3582 0.43987 1.1807 0 1.8907-0.83344 0.71768-0.84115 0.71768-2.2302v-0.3164zm2.8321-0.58649v4.9312h-1.4199v-1.3119q-0.48618 0.78713-1.2116 1.1653-0.7254 0.37041-1.7749 0.37041-1.3273 0-2.1145-0.74083-0.77941-0.74855-0.77941-1.9987 0-1.4585 0.97234-2.1993 0.98006-0.74083 2.917-0.74083h1.991v-0.13891q0-0.98006-0.64823-1.5125-0.64051-0.54019-1.8058-0.54019-0.74083 0-1.4431 0.17749-0.70224 0.17749-1.3505 0.53247v-1.3119q0.77942-0.30097 1.5125-0.44759 0.73312-0.15434 1.4276-0.15434 1.8752 0 2.8013 0.97234t0.92604 2.9479z" style=""/>
   <path id="path986" d="m471.14 498.01h1.2347q1.1575 1.8212 1.7286 3.5652 0.57878 1.744 0.57878 3.4649 0 1.7286-0.57878 3.4804-0.57106 1.7518-1.7286 3.5652h-1.2347q1.0264-1.7672 1.528-3.5112 0.50932-1.7518 0.50932-3.5344 0-1.7826-0.50932-3.5189-0.5016-1.7363-1.528-3.5112z" style=""/>
  </g>
  <g id="text96" fill="#173b8f" aria-label="(1b)">
   <path id="path989" d="m244.9 488.01q-1.0341 1.7749-1.5357 3.5112-0.50161 1.7363-0.50161 3.5189 0 1.7826 0.50161 3.5344 0.50932 1.744 1.5357 3.5112h-1.2347q-1.1576-1.8135-1.7363-3.5652-0.57106-1.7518-0.57106-3.4804 0-1.7209 0.57106-3.4649t1.7363-3.5652z" style=""/>
   <path id="path991" d="m248.13 498.69h2.5466v-8.7896l-2.7704 0.55562v-1.4199l2.755-0.55562h1.5588v10.21h2.5466v1.3119h-6.6366z" style=""/>
   <path id="path993" d="m263.93 495.69q0-1.5666-0.64822-2.454-0.64052-0.89517-1.7672-0.89517t-1.7749 0.89517q-0.64051 0.88745-0.64051 2.454t0.64051 2.4617q0.64822 0.88746 1.7749 0.88746t1.7672-0.88746q0.64822-0.89517 0.64822-2.4617zm-4.8308-3.0173q0.44758-0.7717 1.1267-1.1421 0.68681-0.37813 1.636-0.37813 1.5743 0 2.5543 1.2502 0.98778 1.2502 0.98778 3.2874 0 2.0373-0.98778 3.2874-0.98005 1.2502-2.5543 1.2502-0.94919 0-1.636-0.37041-0.6791-0.37814-1.1267-1.1498v1.2964h-1.4276v-12.008h1.4276z" style=""/>
   <path id="path995" d="m267.53 488.01h1.2347q1.1576 1.8212 1.7286 3.5652 0.57878 1.744 0.57878 3.4649 0 1.7286-0.57878 3.4804-0.57105 1.7518-1.7286 3.5652h-1.2347q1.0264-1.7672 1.528-3.5112 0.50933-1.7518 0.50933-3.5344 0-1.7826-0.50933-3.5189-0.5016-1.7363-1.528-3.5112z" style=""/>
  </g>
  <g id="text100" fill="#173b8f" aria-label="(2)">
   <path id="path998" d="m414.9 413.48q-1.0341 1.7749-1.5357 3.5112-0.50161 1.7363-0.50161 3.519t0.50161 3.5344q0.50932 1.744 1.5357 3.5112h-1.2347q-1.1576-1.8135-1.7363-3.5652-0.57106-1.7518-0.57106-3.4804 0-1.7209 0.57106-3.4649t1.7363-3.5652z" style=""/>
   <path id="path1000" d="m419.21 424.16h5.4405v1.3119h-7.3157v-1.3119q0.88746-0.91832 2.4154-2.4617 1.5357-1.5511 1.9292-1.9987 0.74855-0.84116 1.0418-1.4199 0.30097-0.58649 0.30097-1.1498 0-0.91832-0.64823-1.4971-0.64051-0.57877-1.6746-0.57877-0.73311 0-1.5511 0.25466-0.81029 0.25466-1.7363 0.7717v-1.5743q0.94148-0.37813 1.7595-0.57106 0.818-0.19292 1.4971-0.19292 1.7904 0 2.8553 0.89517 1.065 0.89517 1.065 2.3923 0 0.70996-0.2701 1.3505-0.26238 0.63279-0.96462 1.4971-0.19293 0.22379-1.227 1.2964-1.0341 1.065-2.917 2.9865z" style=""/>
   <path id="path1002" d="m427.5 413.48h1.2347q1.1576 1.8212 1.7286 3.5652 0.57878 1.744 0.57878 3.4649 0 1.7286-0.57878 3.4804-0.57105 1.7518-1.7286 3.5652h-1.2347q1.0264-1.7672 1.528-3.5112 0.50932-1.7518 0.50932-3.5344t-0.50932-3.519q-0.5016-1.7363-1.528-3.5112z" style=""/>
  </g>
  <g id="text104" fill="#173b8f" aria-label="(3)">
   <path id="path1005" d="m383.7 328.01q-1.0341 1.7749-1.5357 3.5112-0.50161 1.7363-0.50161 3.5189 0 1.7826 0.50161 3.5344 0.50932 1.744 1.5357 3.5112h-1.2347q-1.1576-1.8135-1.7363-3.5652-0.57106-1.7518-0.57106-3.4804 0-1.7209 0.57106-3.4649 0.57105-1.744 1.7363-3.5652z" style=""/>
   <path id="path1007" d="m391.38 333.79q1.119 0.23923 1.744 0.99549 0.6328 0.75627 0.6328 1.8675 0 1.7054-1.173 2.6392-1.173 0.93375-3.3337 0.93375-0.7254 0-1.4971-0.14662-0.76399-0.13891-1.582-0.42443v-1.5048q0.64823 0.37813 1.4199 0.57106 0.7717 0.19292 1.6128 0.19292 1.4662 0 2.2302-0.57877 0.7717-0.57877 0.7717-1.6823 0-1.0186-0.71768-1.5897-0.70996-0.57877-1.9833-0.57877h-1.3428v-1.281h1.4045q1.1498 0 1.7595-0.4553 0.60965-0.46302 0.60965-1.3273 0-0.88745-0.6328-1.3582-0.62507-0.47845-1.7981-0.47845-0.64051 0-1.3736 0.13891-0.73312 0.1389-1.6128 0.43215v-1.3891q0.88745-0.24694 1.6592-0.37042 0.77942-0.12347 1.4662-0.12347 1.7749 0 2.809 0.81029 1.0341 0.80256 1.0341 2.1762 0 0.9569-0.54791 1.6206-0.5479 0.65594-1.5588 0.9106z" style=""/>
   <path id="path1009" d="m396.3 328.01h1.2347q1.1576 1.8212 1.7286 3.5652 0.57877 1.744 0.57877 3.4649 0 1.7286-0.57877 3.4804-0.57106 1.7518-1.7286 3.5652h-1.2347q1.0264-1.7672 1.528-3.5112 0.50932-1.7518 0.50932-3.5344 0-1.7826-0.50932-3.5189-0.5016-1.7363-1.528-3.5112z" style=""/>
  </g>
  <g id="text108" fill="#173b8f" aria-label="(4)">
   <path id="path1012" d="m242.49 423.48q-1.0341 1.7749-1.5357 3.5112-0.5016 1.7363-0.5016 3.519t0.5016 3.5344q0.50932 1.744 1.5357 3.5112h-1.2347q-1.1576-1.8135-1.7363-3.5652-0.57106-1.7518-0.57106-3.4804 0-1.7209 0.57106-3.4649t1.7363-3.5652z" style=""/>
   <path id="path1014" d="m249.74 425.31-3.9357 6.1504h3.9357zm-0.409-1.3582h1.9601v7.5086h1.6437v1.2964h-1.6437v2.7164h-1.5511v-2.7164h-5.2012v-1.5048z" style=""/>
   <path id="path1016" d="m255.09 423.48h1.2347q1.1576 1.8212 1.7286 3.5652 0.57877 1.744 0.57877 3.4649 0 1.7286-0.57877 3.4804-0.57106 1.7518-1.7286 3.5652h-1.2347q1.0264-1.7672 1.528-3.5112 0.50932-1.7518 0.50932-3.5344t-0.50932-3.519q-0.50161-1.7363-1.528-3.5112z" style=""/>
  </g>
  <path id="line110" d="m360 340 60 60" fill="none" stroke="#f00" stroke-width="2"/>
  <path id="line112" d="m360 400 60-60" fill="none" stroke="#f00" stroke-width="2"/>
 </g>
</svg>
