<?xml version="1.0" encoding="UTF-8" standalone="no"?>
<svg id="svg2" xmlns:rdf="http://www.w3.org/1999/02/22-rdf-syntax-ns#" xmlns="http://www.w3.org/2000/svg" viewBox="158 109 192.27013 337.36051" height="17.704cm" width="9.9622cm" version="1.1" xmlns:cc="http://creativecommons.org/ns#" xmlns:dc="http://purl.org/dc/elements/1.1/">
 <metadata id="metadata102">
  <rdf:RDF>
   <cc:Work rdf:about="">
    <dc:format>image/svg+xml</dc:format>
    <dc:type rdf:resource="http://purl.org/dc/dcmitype/StillImage"/>
   </cc:Work>
  </rdf:RDF>
 </metadata>
 <g id="g4" transform="translate(-1 -3.1638)">
  <path id="path6" d="m300 170c60 0 70 210 9.736 210" stroke="#bfbfbf" stroke-width="2" fill="none"/>
  <path id="polygon8" fill="#bfbfbf" d="m312.24 375-2.5 5 2.5 5-10-5z"/>
  <path id="polygon10" d="m312.24 375-2.5 5 2.5 5-10-5z" stroke="#bfbfbf" stroke-width="2" fill="none"/>
 </g>
 <g id="g12" transform="translate(-1 -3.1638)">
  <path id="path14" d="m300 220c40 0 56 160 9.736 160" stroke="#bfbfbf" stroke-width="2" fill="none"/>
  <path id="polygon16" fill="#bfbfbf" d="m312.24 375-2.5 5 2.5 5-10-5z"/>
  <path id="polygon18" d="m312.24 375-2.5 5 2.5 5-10-5z" stroke="#bfbfbf" stroke-width="2" fill="none"/>
 </g>
 <g id="text20">
  <path id="path59" style="" d="m160.77 299.92h1.7815v5.5651l5.909-5.5651h2.2931l-6.5352 6.1383 7.0026 7.0291h-2.346l-6.3235-6.3412v6.3412h-1.7815v-13.167z"/>
  <path id="path61" style="" d="m171.51 309.19v-5.9796h1.6228v5.9178q0 1.4023 0.54681 2.1078 0.5468 0.69674 1.6404 0.69674 1.3141 0 2.0726-0.83785 0.76729-0.83785 0.76729-2.2842v-5.6003h1.6228v9.8778h-1.6228v-1.5169q-0.5909 0.89958-1.3758 1.3406-0.77611 0.43215-1.808 0.43215-1.7022 0-2.5841-1.0583-0.88194-1.0583-0.88194-3.0956zm4.0834-6.2177z"/>
  <path id="path63" style="" d="m184.71 311.6v5.2387h-1.6316v-13.635h1.6316v1.4993q0.51153-0.88194 1.2876-1.3053 0.78493-0.43215 1.8697-0.43215 1.7992 0 2.9192 1.4288 1.1289 1.4288 1.1289 3.7571t-1.1289 3.7571q-1.1201 1.4287-2.9192 1.4287-1.0848 0-1.8697-0.42333-0.77611-0.43215-1.2876-1.3141zm5.521-3.4484q0-1.7904-0.74084-2.8046-0.73201-1.0231-2.0196-1.0231t-2.0285 1.0231q-0.73201 1.0142-0.73201 2.8046 0 1.7903 0.73201 2.8134 0.74084 1.0142 2.0285 1.0142 1.2876 0 2.0196-1.0142 0.74084-1.0231 0.74084-2.8134z"/>
  <path id="path65" style="" d="m199.09 308.12q-1.9667 0-2.7252 0.44979-0.75847 0.44979-0.75847 1.5346 0 0.86431 0.56445 1.3758 0.57326 0.50271 1.5522 0.50271 1.3494 0 2.1608-0.9525 0.8202-0.96132 0.8202-2.5488v-0.3616h-1.614zm3.2367-0.67028v5.6356h-1.6228v-1.4993q-0.55562 0.89958-1.3846 1.3317-0.82902 0.42333-2.0285 0.42333-1.5169 0-2.4165-0.84666-0.89076-0.85549-0.89076-2.2842 0-1.6669 1.1112-2.5135 1.1201-0.84667 3.3338-0.84667h2.2754v-0.15875q0-1.1201-0.74083-1.7286-0.73201-0.61736-2.0638-0.61736-0.84666 0-1.6492 0.20285-0.80257 0.20285-1.5434 0.60854v-1.4993q0.89076-0.34396 1.7286-0.51153 0.83784-0.17639 1.6316-0.17639 2.1431 0 3.2015 1.1112 1.0583 1.1112 1.0583 3.369z"/>
  <path id="path67" style="" d="m212.79 303.59v1.5169q-0.68792-0.37923-1.3847-0.56444-0.68791-0.19403-1.3935-0.19403-1.5787 0-2.4518 1.0054-0.87312 0.99659-0.87312 2.8046t0.87312 2.8134q0.87312 0.99659 2.4518 0.99659 0.70556 0 1.3935-0.18521 0.69674-0.19402 1.3847-0.57326v1.4993q-0.6791 0.3175-1.4111 0.47624-0.7232 0.15875-1.5434 0.15875-2.2313 0-3.5454-1.4023t-1.3141-3.7835q0-2.4165 1.3229-3.8012 1.3317-1.3846 3.6424-1.3846 0.74965 0 1.464 0.15875 0.71438 0.14993 1.3847 0.45861z"/>
 </g>
 <g id="g24" transform="translate(-1 -3.1638)">
  <path id="rect26" fill="#fdfd04" d="m160 340h140v80h-140z"/>
  <path id="rect28" d="m160 340h140v80h-140z" stroke="#000" stroke-width="2" fill="none"/>
 </g>
 <g id="g30" transform="translate(-1 -3.1638)">
  <path id="rect32" fill="#7babe3" d="m160 240h140v40h-140z"/>
  <path id="rect34" d="m160 240h140v40h-140z" stroke="#000" stroke-width="2" fill="none"/>
 </g>
 <g id="text36">
  <path id="path74" style="" d="m206.82 253.21h1.6228v9.8778h-1.6228v-9.8778zm0-3.8453h1.6228v2.0549h-1.6228v-2.0549z"/>
  <path id="path76" style="" d="m220.04 257.12v5.9619h-1.6228v-5.909q0-1.4023-0.54681-2.099-0.5468-0.69674-1.6404-0.69674-1.3141 0-2.0726 0.83785-0.75847 0.83784-0.75847 2.2842v5.5827h-1.6316v-9.8778h1.6316v1.5346q0.58208-0.89077 1.367-1.3317 0.79375-0.44097 1.8256-0.44097 1.7022 0 2.5753 1.0583 0.87313 1.0495 0.87313 3.0956z"/>
  <path id="path78" style="" d="m224.9 250.4v2.8046h3.3426v1.2612h-3.3426v5.3622q0 1.2083 0.32632 1.5522 0.33514 0.34396 1.3494 0.34396h1.6669v1.3582h-1.6669q-1.8785 0-2.5929-0.69673-0.71437-0.70556-0.71437-2.5576v-5.3622h-1.1906v-1.2612h1.1906v-2.8046h1.6316z"/>
  <path id="path80" style="" d="m242.93 252.09-3.1662 1.711 3.1662 1.7198-0.51153 0.8643-2.9633-1.7903v3.3249h-1.0054v-3.3249l-2.9633 1.7903-0.51152-0.8643 3.1662-1.7198-3.1662-1.711 0.51152-0.87313 2.9633 1.7904v-3.3249h1.0054v3.3249l2.9633-1.7904 0.51153 0.87313z"/>
  <path id="path82" style="" d="m251.46 253.5v1.5346q-0.68792-0.35278-1.4288-0.52917-0.74083-0.17639-1.5346-0.17639-1.2083 0-1.8168 0.37042-0.59972 0.37042-0.59972 1.1112 0 0.56444 0.43215 0.89076 0.43216 0.3175 1.7374 0.60854l0.55563 0.12347q1.7286 0.37042 2.4518 1.0495 0.73201 0.67027 0.73201 1.8785 0 1.3758-1.0936 2.1784-1.0848 0.80256-2.9898 0.80256-0.79374 0-1.658-0.15875-0.85548-0.14993-1.808-0.45861v-1.6757q0.89958 0.46743 1.7727 0.70556 0.87313 0.2293 1.7286 0.2293 1.1465 0 1.7639-0.38805 0.61736-0.39688 0.61736-1.1112 0-0.66146-0.44979-1.0142-0.44097-0.35277-1.9491-0.67909l-0.56444-0.13229q-1.5081-0.3175-2.1784-0.97014-0.67028-0.66146-0.67028-1.808 0-1.3935 0.98778-2.1519 0.98778-0.75847 2.8046-0.75847 0.89958 0 1.6933 0.13229 0.79375 0.13229 1.464 0.39688z"/>
 </g>
 <g id="text40">
  <path id="path85" style="" d="m187.86 371.52v-1.6228q0.67028 0.3175 1.3582 0.48507t1.3494 0.16757q1.7639 0 2.6899-1.1818 0.93486-1.1906 1.0672-3.6072-0.51153 0.75847-1.2965 1.1642-0.78493 0.4057-1.7374 0.4057-1.9756 0-3.1309-1.1906-1.1465-1.1994-1.1465-3.272 0-2.0285 1.1994-3.2544t3.1926-1.2259q2.2842 0 3.4837 1.7551 1.2083 1.7462 1.2083 5.08 0 3.1133-1.4817 4.9742-1.4728 1.8521-3.9688 1.8521-0.67027 0-1.3582-0.13229-0.68792-0.13229-1.4288-0.39687zm3.5454-5.5827q1.1994 0 1.8962-0.82021 0.70556-0.82021 0.70556-2.249 0-1.4199-0.70556-2.2401-0.69673-0.82903-1.8962-0.82903-1.1994 0-1.905 0.82903-0.69674 0.8202-0.69674 2.2401 0 1.4288 0.69674 2.249 0.70555 0.82021 1.905 0.82021z"/>
  <path id="path87" style="" d="m199.49 369.56h1.8609v1.517l-1.4464 2.8222h-1.1377l0.72319-2.8222v-1.517z"/>
  <path id="path89" style="" d="m210.82 358.63h6.9938v1.4993h-5.3622v3.2279q0.38806-0.13229 0.77611-0.19403 0.38806-0.0705 0.77611-0.0705 2.2049 0 3.4925 1.2083t1.2876 3.272q0 2.1255-1.3229 3.3073-1.3229 1.173-3.7306 1.173-0.82903 0-1.6933-0.14111-0.85549-0.14111-1.7727-0.42333v-1.7904q0.79375 0.43216 1.6404 0.64382 0.84666 0.21167 1.7903 0.21167 1.5258 0 2.4165-0.80257 0.89076-0.80257 0.89076-2.1784t-0.89076-2.1784q-0.89077-0.80257-2.4165-0.80257-0.71437 0-1.4288 0.15875-0.70555 0.15875-1.4464 0.49389v-6.6146z"/>
  <path id="path91" style="" d="m222.32 358.63h6.9938v1.4993h-5.3622v3.2279q0.38806-0.13229 0.77611-0.19403 0.38806-0.0705 0.77611-0.0705 2.2049 0 3.4925 1.2083t1.2876 3.272q0 2.1255-1.3229 3.3073-1.3229 1.173-3.7306 1.173-0.82903 0-1.6933-0.14111-0.85548-0.14111-1.7727-0.42333v-1.7904q0.79375 0.43216 1.6404 0.64382 0.84666 0.21167 1.7903 0.21167 1.5258 0 2.4165-0.80257 0.89076-0.80257 0.89076-2.1784t-0.89076-2.1784q-0.89076-0.80257-2.4165-0.80257-0.71437 0-1.4287 0.15875-0.70556 0.15875-1.4464 0.49389v-6.6146z"/>
  <path id="path93" style="" d="m233.99 369.56h1.8609v1.517l-1.4464 2.8222h-1.1377l0.72319-2.8222v-1.517z"/>
  <path id="path95" style="" d="m245.62 370.3h2.9104v-10.045l-3.1662 0.635v-1.6228l3.1485-0.635h1.7815v11.668h2.9104v1.4993h-7.5847v-1.4993z"/>
  <path id="path97" style="" d="m258.34 370.3h6.2177v1.4993h-8.3608v-1.4993q1.0142-1.0495 2.7605-2.8134 1.7551-1.7727 2.2048-2.2842 0.85549-0.96132 1.1906-1.6228 0.34396-0.67028 0.34396-1.3141 0-1.0495-0.74084-1.711-0.73201-0.66146-1.9138-0.66146-0.83785 0-1.7727 0.29105-0.92604 0.29104-1.9844 0.88194v-1.7992q1.076-0.43215 2.0108-0.65263 0.93486-0.22049 1.711-0.22049 2.0461 0 3.2632 1.023 1.2171 1.0231 1.2171 2.734 0 0.81139-0.30868 1.5434-0.29986 0.72319-1.1024 1.711-0.22048 0.25576-1.4023 1.4817-1.1818 1.2171-3.3337 3.4131z"/>
  <path id="path99" style="" d="m268.49 369.56h1.8609v1.517l-1.4464 2.8222h-1.1377l0.72319-2.8222v-1.517z"/>
  <path id="path101" style="" d="m203.71 392.88h6.2177v1.4993h-8.3608v-1.4993q1.0142-1.0495 2.7605-2.8134 1.7551-1.7727 2.2049-2.2842 0.85549-0.96132 1.1906-1.6228 0.34395-0.67028 0.34395-1.3141 0-1.0495-0.74083-1.711-0.73201-0.66145-1.9138-0.66145-0.83784 0-1.7727 0.29104-0.92604 0.29104-1.9844 0.88194v-1.7992q1.076-0.43216 2.0108-0.65264 0.93486-0.22049 1.711-0.22049 2.0461 0 3.2632 1.0231 1.2171 1.023 1.2171 2.734 0 0.81139-0.30868 1.5434-0.29986 0.7232-1.1024 1.711-0.22049 0.25577-1.4023 1.4817-1.1818 1.2171-3.3338 3.4131z"/>
  <path id="path103" style="" d="m213.23 381.21h8.4667v0.75847l-4.7801 12.409h-1.8609l4.4979-11.668h-6.3235v-1.4993z"/>
  <path id="path105" style="" d="m225.37 392.14h1.8609v1.5169l-1.4464 2.8222h-1.1377l0.72319-2.8222v-1.5169z"/>
  <path id="path107" style="" d="m236.7 381.21h6.9938v1.4993h-5.3622v3.2279q0.38806-0.13229 0.77611-0.19402 0.38806-0.0706 0.77611-0.0706 2.2049 0 3.4925 1.2083t1.2876 3.272q0 2.1255-1.3229 3.3073-1.3229 1.173-3.7306 1.173-0.82903 0-1.6933-0.14111-0.85549-0.14112-1.7727-0.42334v-1.7903q0.79375 0.43215 1.6404 0.64382 0.84666 0.21166 1.7903 0.21166 1.5258 0 2.4165-0.80257 0.89076-0.80256 0.89076-2.1784t-0.89076-2.1784q-0.89077-0.80256-2.4165-0.80256-0.71437 0-1.4288 0.15874-0.70555 0.15875-1.4464 0.49389v-6.6146z"/>
  <path id="path109" style="" d="m252.21 387.08q-1.1994 0-1.905 0.82021-0.69673 0.82021-0.69673 2.249 0 1.4199 0.69673 2.249 0.70556 0.82021 1.905 0.82021t1.8962-0.82021q0.70555-0.82903 0.70555-2.249 0-1.4287-0.70555-2.249-0.69674-0.82021-1.8962-0.82021zm3.5366-5.5827v1.6228q-0.67027-0.31749-1.3582-0.48506-0.6791-0.16757-1.3494-0.16757-1.7639 0-2.6988 1.1906-0.92604 1.1906-1.0583 3.5983 0.52034-0.76729 1.3053-1.173 0.78493-0.41451 1.7286-0.41451 1.9844 0 3.1309 1.2083 1.1554 1.1994 1.1554 3.272 0 2.0285-1.1994 3.2544t-3.1926 1.2259q-2.2842 0-3.4925-1.7462-1.2083-1.7551-1.2083-5.08 0-3.1221 1.4817-4.9742 1.4817-1.8609 3.9776-1.8609 0.67028 0 1.3494 0.13229 0.68792 0.1323 1.4288 0.39688z"/>
 </g>
 <g id="g46" transform="translate(-1 -3.1638)">
  <path id="rect48" fill="#7babe3" d="m160 140h140v60h-140z"/>
  <path id="rect50" d="m160 140h140v60h-140z" stroke="#000" stroke-width="2" fill="none"/>
 </g>
 <g id="text52">
  <path id="path114" style="" d="m203.29 163.21h1.6228v9.8778h-1.6228v-9.8778zm0-3.8453h1.6228v2.0549h-1.6228v-2.0549z"/>
  <path id="path116" style="" d="m216.51 167.12v5.9619h-1.6228v-5.909q0-1.4023-0.54681-2.099-0.5468-0.69673-1.6404-0.69673-1.3141 0-2.0726 0.83784-0.75847 0.83785-0.75847 2.2842v5.5827h-1.6316v-9.8778h1.6316v1.5346q0.58208-0.89076 1.367-1.3317 0.79375-0.44097 1.8256-0.44097 1.7022 0 2.5753 1.0583 0.87312 1.0495 0.87312 3.0956z"/>
  <path id="path118" style="" d="m221.37 160.4v2.8046h3.3426v1.2612h-3.3426v5.3622q0 1.2083 0.32632 1.5522 0.33514 0.34395 1.3494 0.34395h1.6669v1.3582h-1.6669q-1.8785 0-2.5929-0.69674-0.71438-0.70555-0.71438-2.5576v-5.3622h-1.1906v-1.2612h1.1906v-2.8046h1.6316z"/>
  <path id="path120" style="" d="m239.4 162.09-3.1662 1.711 3.1662 1.7198-0.51152 0.86431-2.9633-1.7904v3.3249h-1.0054v-3.3249l-2.9633 1.7904-0.51153-0.86431 3.1662-1.7198-3.1662-1.711 0.51153-0.87312 2.9633 1.7903v-3.3249h1.0054v3.3249l2.9633-1.7903 0.51152 0.87312z"/>
  <path id="path122" style="" d="m241.47 169.19v-5.9796h1.6228v5.9178q0 1.4023 0.54681 2.1078 0.5468 0.69673 1.6404 0.69673 1.3141 0 2.0726-0.83785 0.76729-0.83784 0.76729-2.2842v-5.6003h1.6228v9.8778h-1.6228v-1.517q-0.5909 0.89959-1.3758 1.3406-0.77611 0.43215-1.808 0.43215-1.7022 0-2.5841-1.0583-0.88194-1.0583-0.88194-3.0956zm4.0834-6.2177z"/>
  <path id="path124" style="" d="m253.1 163.21h1.6228v10.054q0 1.8874-0.72319 2.734-0.71438 0.84667-2.3107 0.84667h-0.61737v-1.3758h0.43216q0.92604 0 1.2612-0.43215 0.33513-0.42333 0.33513-1.7727v-10.054zm0-3.8453h1.6228v2.0549h-1.6228v-2.0549z"/>
 </g>
 <g id="text56">
  <path id="path127" style="" d="m169.92 123.09-5.0271-13.167h1.8609l4.1716 11.086 4.1804-11.086h1.8521l-5.0183 13.167h-2.0196z"/>
  <path id="path129" style="" d="m185.84 117.74v0.79375h-7.4612q0.10583 1.6757 1.0054 2.5576 0.9084 0.87313 2.5224 0.87313 0.93486 0 1.808-0.22931 0.88195-0.2293 1.7462-0.68792v1.5346q-0.87312 0.37041-1.7903 0.56444-0.91722 0.19403-1.8609 0.19403-2.3636 0-3.7483-1.3758-1.3758-1.3758-1.3758-3.7218 0-2.4253 1.3053-3.8453 1.3141-1.4288 3.5366-1.4288 1.9932 0 3.1485 1.2876 1.1642 1.2788 1.1642 3.4837zm-1.6228-0.47625q-0.0176-1.3317-0.74965-2.1255-0.72319-0.79374-1.9226-0.79374-1.3582 0-2.1784 0.76729-0.81139 0.76729-0.93486 2.1608l5.7856-0.009z"/>
  <path id="path131" style="" d="m194.22 114.73q-0.2734-0.15875-0.59972-0.2293-0.3175-0.0794-0.70556-0.0794-1.3758 0-2.1167 0.89958-0.73202 0.89077-0.73202 2.5665v5.2035h-1.6316v-9.8778h1.6316v1.5346q0.51153-0.89958 1.3317-1.3317 0.82021-0.44098 1.9932-0.44098 0.16757 0 0.37042 0.0265 0.20284 0.0176 0.44979 0.0617l0.009 1.6669z"/>
  <path id="path133" style="" d="m204.01 117.74v0.79375h-7.4612q0.10583 1.6757 1.0054 2.5576 0.9084 0.87313 2.5224 0.87313 0.93486 0 1.808-0.22931 0.88194-0.2293 1.7462-0.68792v1.5346q-0.87313 0.37041-1.7904 0.56444-0.91722 0.19403-1.8609 0.19403-2.3636 0-3.7483-1.3758-1.3758-1.3758-1.3758-3.7218 0-2.4253 1.3053-3.8453 1.3141-1.4288 3.5366-1.4288 1.9932 0 3.1485 1.2876 1.1642 1.2788 1.1642 3.4837zm-1.6228-0.47625q-0.0176-1.3317-0.74965-2.1255-0.7232-0.79374-1.9226-0.79374-1.3582 0-2.1784 0.76729-0.81139 0.76729-0.93486 2.1608l5.7856-0.009z"/>
  <path id="path135" style="" d="m214.36 115.1q0.60854-1.0936 1.4552-1.614 0.84667-0.52035 1.9932-0.52035 1.5434 0 2.3812 1.0848 0.83785 1.076 0.83785 3.0692v5.9619h-1.6316v-5.909q0-1.4199-0.50271-2.1078-0.5027-0.68792-1.5346-0.68792-1.2612 0-1.9932 0.83785-0.73201 0.83785-0.73201 2.2842v5.5827h-1.6316v-5.909q0-1.4287-0.50271-2.1078-0.5027-0.68792-1.5522-0.68792-1.2435 0-1.9756 0.84667-0.73201 0.83784-0.73201 2.2754v5.5827h-1.6316v-9.8778h1.6316v1.5346q0.55562-0.9084 1.3317-1.3406 0.77611-0.43216 1.8433-0.43216 1.076 0 1.8256 0.54681 0.75847 0.5468 1.1201 1.5875z"/>
 </g>
 <g id="g60" transform="translate(-1 -3.1638)">
  <path id="rect62" fill="#7babe3" d="m160 200h140v40h-140z"/>
  <path id="rect64" d="m160 200h140v40h-140z" stroke="#000" stroke-width="2" fill="none"/>
 </g>
 <g id="text66">
  <path id="path140" style="" d="m166.55 209.38q-1.1818 2.0285-1.7551 4.0128-0.57326 1.9844-0.57326 4.0217t0.57326 4.0393q0.58208 1.9932 1.7551 4.0128h-1.4111q-1.3229-2.0726-1.9844-4.0746-0.65264-2.002-0.65264-3.9776 0-1.9667 0.65264-3.9599 0.65263-1.9932 1.9844-4.0746h1.4111z"/>
  <path id="path142" style="" d="m168.54 213.21h1.7198l3.0868 8.2903 3.0868-8.2903h1.7198l-3.7042 9.8778h-2.2049l-3.7042-9.8778z"/>
  <path id="path144" style="" d="m180.4 213.21h1.6228v9.8778h-1.6228v-9.8778zm0-3.8453h1.6228v2.0549h-1.6228v-2.0549z"/>
  <path id="path146" style="" d="m191.7 213.5v1.5346q-0.68791-0.35277-1.4287-0.52916-0.74084-0.17639-1.5346-0.17639-1.2083 0-1.8168 0.37041-0.59972 0.37042-0.59972 1.1112 0 0.56445 0.43215 0.89077 0.43215 0.3175 1.7374 0.60854l0.55562 0.12347q1.7286 0.37042 2.4518 1.0495 0.73201 0.67028 0.73201 1.8785 0 1.3758-1.0936 2.1784-1.0848 0.80257-2.9898 0.80257-0.79375 0-1.658-0.15875-0.85549-0.14993-1.808-0.45861v-1.6757q0.89959 0.46743 1.7727 0.70555 0.87312 0.22931 1.7286 0.22931 1.1465 0 1.7639-0.38806 0.61736-0.39687 0.61736-1.1112 0-0.66145-0.44979-1.0142-0.44098-0.35278-1.9491-0.6791l-0.56444-0.13229q-1.5081-0.3175-2.1784-0.97014-0.67028-0.66145-0.67028-1.808 0-1.3935 0.98778-2.1519 0.98777-0.75847 2.8046-0.75847 0.89958 0 1.6933 0.13229 0.79375 0.13229 1.464 0.39687z"/>
  <path id="path148" style="" d="m201.12 213.5v1.5346q-0.68792-0.35277-1.4288-0.52916-0.74083-0.17639-1.5346-0.17639-1.2083 0-1.8168 0.37041-0.59973 0.37042-0.59973 1.1112 0 0.56445 0.43216 0.89077 0.43215 0.3175 1.7374 0.60854l0.55563 0.12347q1.7286 0.37042 2.4518 1.0495 0.73201 0.67028 0.73201 1.8785 0 1.3758-1.0936 2.1784-1.0848 0.80257-2.9898 0.80257-0.79375 0-1.6581-0.15875-0.85548-0.14993-1.808-0.45861v-1.6757q0.89958 0.46743 1.7727 0.70555 0.87312 0.22931 1.7286 0.22931 1.1465 0 1.7639-0.38806 0.61736-0.39687 0.61736-1.1112 0-0.66145-0.44979-1.0142-0.44097-0.35278-1.9491-0.6791l-0.56445-0.13229q-1.5081-0.3175-2.1784-0.97014-0.67027-0.66145-0.67027-1.808 0-1.3935 0.98777-2.1519 0.98778-0.75847 2.8046-0.75847 0.89958 0 1.6933 0.13229 0.79375 0.13229 1.464 0.39687z"/>
  <path id="path150" style="" d="m203.54 213.21h7.7082v1.4817l-6.103 7.0996h6.103v1.2965h-7.9287v-1.4817l6.103-7.0996h-5.8826v-1.2965z"/>
  <path id="path152" style="" d="m218.22 218.12q-1.9667 0-2.7252 0.44979-0.75847 0.44979-0.75847 1.5346 0 0.8643 0.56444 1.3758 0.57326 0.50271 1.5522 0.50271 1.3494 0 2.1608-0.9525 0.82021-0.96132 0.82021-2.5488v-0.36159h-1.614zm3.2367-0.67028v5.6356h-1.6228v-1.4993q-0.55563 0.89958-1.3846 1.3317-0.82903 0.42333-2.0285 0.42333-1.517 0-2.4165-0.84667-0.89076-0.85548-0.89076-2.2842 0-1.6669 1.1112-2.5135 1.1201-0.84666 3.3337-0.84666h2.2754v-0.15875q0-1.1201-0.74083-1.7286-0.73202-0.61736-2.0638-0.61736-0.84667 0-1.6492 0.20284-0.80256 0.20285-1.5434 0.60855v-1.4993q0.89077-0.34396 1.7286-0.51153 0.83785-0.17638 1.6316-0.17638 2.1431 0 3.2014 1.1112t1.0583 3.369z"/>
  <path id="path154" style="" d="m226.42 210.4v2.8046h3.3426v1.2612h-3.3426v5.3622q0 1.2083 0.32632 1.5522 0.33513 0.34395 1.3494 0.34395h1.6669v1.3582h-1.6669q-1.8785 0-2.5929-0.69674-0.71438-0.70555-0.71438-2.5576v-5.3622h-1.1906v-1.2612h1.1906v-2.8046h1.6316z"/>
  <path id="path156" style="" d="m240.35 217.74v0.79375h-7.4612q0.10583 1.6757 1.0054 2.5576 0.9084 0.87313 2.5224 0.87313 0.93486 0 1.808-0.22931 0.88195-0.2293 1.7462-0.68791v1.5346q-0.87312 0.37041-1.7903 0.56444-0.91722 0.19403-1.8609 0.19403-2.3636 0-3.7483-1.3758-1.3758-1.3758-1.3758-3.7218 0-2.4254 1.3053-3.8453 1.3141-1.4287 3.5366-1.4287 1.9932 0 3.1485 1.2876 1.1642 1.2788 1.1642 3.4837zm-1.6228-0.47625q-0.0176-1.3317-0.74965-2.1255-0.72319-0.79375-1.9226-0.79375-1.3582 0-2.1784 0.76729-0.81138 0.76729-0.93486 2.1608l5.7856-0.009zm-1.561-8.6254h1.7551l-2.8751 3.3161h-1.3494l2.4694-3.3161z"/>
  <path id="path158" style="" d="m248.74 214.73q-0.2734-0.15875-0.59972-0.2293-0.3175-0.0794-0.70556-0.0794-1.3758 0-2.1167 0.89959-0.73201 0.89076-0.73201 2.5664v5.2035h-1.6316v-9.8778h1.6316v1.5346q0.51152-0.89958 1.3317-1.3317 0.82021-0.44097 1.9932-0.44097 0.16757 0 0.37042 0.0265 0.20285 0.0176 0.44979 0.0617l0.009 1.6669z"/>
  <path id="path160" style="" d="m249.03 220.85h1.8609v2.2401h-1.8609v-2.2401z"/>
  <path id="path162" style="" d="m268.75 217.74v0.79375h-7.4612q0.10583 1.6757 1.0054 2.5576 0.90841 0.87313 2.5224 0.87313 0.93486 0 1.808-0.22931 0.88194-0.2293 1.7462-0.68791v1.5346q-0.87312 0.37041-1.7903 0.56444-0.91722 0.19403-1.8609 0.19403-2.3636 0-3.7483-1.3758-1.3758-1.3758-1.3758-3.7218 0-2.4254 1.3053-3.8453 1.3141-1.4287 3.5366-1.4287 1.9932 0 3.1485 1.2876 1.1642 1.2788 1.1642 3.4837zm-1.6228-0.47625q-0.0176-1.3317-0.74965-2.1255-0.72319-0.79375-1.9226-0.79375-1.3582 0-2.1784 0.76729-0.81139 0.76729-0.93486 2.1608l5.7855-0.009zm-1.561-8.6254h1.7551l-2.8751 3.3161h-1.3494l2.4694-3.3161z"/>
  <path id="path164" style="" d="m277.14 214.73q-0.2734-0.15875-0.59972-0.2293-0.3175-0.0794-0.70555-0.0794-1.3758 0-2.1167 0.89959-0.73201 0.89076-0.73201 2.5664v5.2035h-1.6316v-9.8778h1.6316v1.5346q0.51153-0.89958 1.3317-1.3317 0.82021-0.44097 1.9932-0.44097 0.16757 0 0.37041 0.0265 0.20285 0.0176 0.44979 0.0617l0.009 1.6669z"/>
  <path id="path166" style="" d="m280.46 210.4v2.8046h3.3426v1.2612h-3.3426v5.3622q0 1.2083 0.32632 1.5522 0.33514 0.34395 1.3494 0.34395h1.6669v1.3582h-1.6669q-1.8785 0-2.5929-0.69674-0.71437-0.70555-0.71437-2.5576v-5.3622h-1.1906v-1.2612h1.1906v-2.8046h1.6316z"/>
  <path id="path168" style="" d="m286.18 220.85h1.8609v2.2401h-1.8609v-2.2401z"/>
  <path id="path170" style="" d="m291.44 209.38h1.4111q1.3229 2.0814 1.9756 4.0746 0.66146 1.9932 0.66146 3.9599 0 1.9756-0.66146 3.9776-0.65264 2.002-1.9756 4.0746h-1.4111q1.173-2.0196 1.7462-4.0128 0.58209-2.002 0.58209-4.0393t-0.58209-4.0217q-0.57326-1.9844-1.7462-4.0128z"/>
 </g>
 <g id="g70" transform="translate(-1 -3.1638)">
  <path id="path72" d="m300 260c40 0 40 120 9.736 120" stroke="#000" stroke-width="2" fill="none"/>
  <path id="polygon74" d="m312.24 375-2.5 5 2.5 5-10-5z"/>
  <path id="polygon76" d="m312.24 375-2.5 5 2.5 5-10-5z" stroke="#000" stroke-width="2" fill="none"/>
 </g>
 <path id="line78" d="m199 146.84 60 80" stroke="#f00" stroke-width="2" fill="none"/>
 <path id="line80" d="m199 226.84 60-80" stroke="#f00" stroke-width="2" fill="none"/>
 <g id="g82" transform="translate(-1 -3.1638)">
  <path id="polygon84" fill="#fdfd04" d="m290 330 10-10v20h-140v-20l10 10 10-10 20 10 20-10h10l10-10 10 10 20-10z"/>
  <path id="polygon86" d="m290 330 10-10v20h-140v-20l10 10 10-10 20 10 20-10h10l10-10 10 10 20-10z" stroke="#000" stroke-width="2" fill="none"/>
 </g>
 <g id="g88" transform="translate(-1 -3.1638)">
  <path id="polygon90" fill="#fdfd04" d="m280 450 20-10v-20h-140v20l10 10 10-10 20 10 20-20 10 10 10-10 10 20 20-20z"/>
  <path id="polygon92" d="m280 450 20-10v-20h-140v20l10 10 10-10 20 10 20-20 10 10 10-10 10 20 20-20z" stroke="#000" stroke-width="2" fill="none"/>
 </g>
 <path id="line94" d="m159 136.84v-30" stroke="#000" stroke-width="2" fill="none"/>
 <path id="line96" d="m299 136.84v-30" stroke="#000" stroke-width="2" fill="none"/>
</svg>
