<?xml version="1.0" encoding="UTF-8" standalone="no"?>
<svg id="svg2" xmlns:rdf="http://www.w3.org/1999/02/22-rdf-syntax-ns#" xmlns="http://www.w3.org/2000/svg" viewBox="158 159 173.34465 167.48778" height="9.2026cm" width="8.9661cm" version="1.1" xmlns:cc="http://creativecommons.org/ns#" xmlns:dc="http://purl.org/dc/elements/1.1/">
 <metadata id="metadata56">
  <rdf:RDF>
   <cc:Work rdf:about="">
    <dc:format>image/svg+xml</dc:format>
    <dc:type rdf:resource="http://purl.org/dc/dcmitype/StillImage"/>
   </cc:Work>
  </rdf:RDF>
 </metadata>
 <g id="g4" transform="translate(-1 -9.2974)">
  <path id="rect6" fill="#7babe3" d="m160 300h140v40h-140z"/>
  <path id="rect8" d="m160 300h140v40h-140z" stroke="#000" stroke-width="2" fill="none"/>
 </g>
 <g id="text10">
  <path id="path34" style="" d="m205.8 307.07h1.6228v9.8778h-1.6228v-9.8778zm0-3.8453h1.6228v2.0549h-1.6228v-2.0549z"/>
  <path id="path36" style="" d="m219.02 310.99v5.9619h-1.6228v-5.909q0-1.4023-0.54681-2.099-0.5468-0.69674-1.6404-0.69674-1.3141 0-2.0726 0.83785-0.75847 0.83785-0.75847 2.2842v5.5827h-1.6316v-9.8778h1.6316v1.5346q0.58208-0.89076 1.367-1.3317 0.79375-0.44097 1.8256-0.44097 1.7022 0 2.5753 1.0583 0.87312 1.0495 0.87312 3.0956z"/>
  <path id="path38" style="" d="m223.88 304.27v2.8046h3.3426v1.2612h-3.3426v5.3622q0 1.2083 0.32632 1.5522 0.33514 0.34396 1.3494 0.34396h1.6669v1.3582h-1.6669q-1.8785 0-2.5929-0.69674-0.71438-0.70555-0.71438-2.5576v-5.3622h-1.1906v-1.2612h1.1906v-2.8046h1.6316z"/>
  <path id="path40" style="" d="m241.9 305.95-3.1662 1.711 3.1662 1.7198-0.51153 0.86431-2.9633-1.7904v3.3249h-1.0054v-3.3249l-2.9633 1.7904-0.51153-0.86431 3.1662-1.7198-3.1662-1.711 0.51153-0.87312 2.9633 1.7903v-3.3249h1.0054v3.3249l2.9633-1.7903 0.51153 0.87312z"/>
  <path id="path42" style="" d="m245.71 315.47v5.2387h-1.6316v-13.635h1.6316v1.4993q0.51152-0.88194 1.2876-1.3053 0.78493-0.43215 1.8697-0.43215 1.7992 0 2.9192 1.4287 1.1289 1.4288 1.1289 3.7571t-1.1289 3.7571q-1.1201 1.4288-2.9192 1.4288-1.0848 0-1.8697-0.42333-0.77611-0.43216-1.2876-1.3141zm5.521-3.4484q0-1.7903-0.74083-2.8046-0.73201-1.023-2.0196-1.023t-2.0285 1.023q-0.73201 1.0142-0.73201 2.8046t0.73201 2.8134q0.74083 1.0142 2.0285 1.0142 1.2876 0 2.0196-1.0142 0.74083-1.023 0.74083-2.8134z"/>
 </g>
 <g id="g14" transform="translate(-1 -9.2974)">
  <path id="rect16" fill="#fdfd04" d="m160 200h140v60h-140z"/>
  <path id="rect18" d="m160 200h140v60h-140z" stroke="#000" stroke-width="2" fill="none"/>
 </g>
 <g id="text20">
  <path id="path47" style="" d="m194.61 217.07h1.6228v9.8778h-1.6228v-9.8778zm0-3.8453h1.6228v2.0549h-1.6228v-2.0549z"/>
  <path id="path49" style="" d="m207.83 220.99v5.9619h-1.6228v-5.909q0-1.4023-0.5468-2.099-0.54681-0.69673-1.6404-0.69673-1.3141 0-2.0726 0.83785-0.75847 0.83784-0.75847 2.2842v5.5827h-1.6316v-9.8778h1.6316v1.5346q0.58208-0.89077 1.367-1.3317 0.79375-0.44097 1.8256-0.44097 1.7022 0 2.5753 1.0583 0.87313 1.0495 0.87313 3.0956z"/>
  <path id="path51" style="" d="m212.69 214.27v2.8046h3.3426v1.2612h-3.3426v5.3622q0 1.2083 0.32632 1.5522 0.33513 0.34396 1.3494 0.34396h1.6669v1.3582h-1.6669q-1.8785 0-2.5929-0.69673-0.71438-0.70556-0.71438-2.5576v-5.3622h-1.1906v-1.2612h1.1906v-2.8046h1.6316z"/>
  <path id="path53" style="" d="m218.03 213.23h3.7394v1.2612h-2.1167v13.582h2.1167v1.2612h-3.7394v-16.104z"/>
  <path id="path55" style="" d="m225.77 225.45h2.9104v-10.045l-3.1662 0.635v-1.6228l3.1485-0.635h1.7815v11.668h2.9104v1.4993h-7.5847v-1.4993z"/>
  <path id="path57" style="" d="m240.77 214.96q-1.3758 0-2.0726 1.3582-0.68792 1.3494-0.68792 4.0658 0 2.7076 0.68792 4.0658 0.69673 1.3494 2.0726 1.3494 1.3847 0 2.0726-1.3494 0.69674-1.3582 0.69674-4.0658 0-2.7164-0.69674-4.0658-0.68791-1.3582-2.0726-1.3582zm0-1.4111q2.2137 0 3.3778 1.7551 1.173 1.7462 1.173 5.08 0 3.3249-1.173 5.08-1.1642 1.7462-3.3778 1.7462-2.2137 0-3.3867-1.7462-1.1642-1.7551-1.1642-5.08 0-3.3337 1.1642-5.08 1.173-1.7551 3.3867-1.7551z"/>
  <path id="path59" style="" d="m252.27 214.96q-1.3758 0-2.0726 1.3582-0.68792 1.3494-0.68792 4.0658 0 2.7076 0.68792 4.0658 0.69673 1.3494 2.0726 1.3494 1.3846 0 2.0726-1.3494 0.69674-1.3582 0.69674-4.0658 0-2.7164-0.69674-4.0658-0.68791-1.3582-2.0726-1.3582zm0-1.4111q2.2137 0 3.3778 1.7551 1.173 1.7462 1.173 5.08 0 3.3249-1.173 5.08-1.1642 1.7462-3.3778 1.7462-2.2137 0-3.3867-1.7462-1.1642-1.7551-1.1642-5.08 0-3.3337 1.1642-5.08 1.173-1.7551 3.3867-1.7551z"/>
  <path id="path61" style="" d="m263.53 213.23v16.104h-3.7394v-1.2612h2.1078v-13.582h-2.1078v-1.2612h3.7394z"/>
 </g>
 <g id="text24">
  <path id="path64" style="" d="m160.77 153.79h1.7815v5.5651l5.909-5.5651h2.2931l-6.5352 6.1383 7.0026 7.0291h-2.346l-6.3235-6.3412v6.3412h-1.7815v-13.167z"/>
  <path id="path66" style="" d="m171.51 163.05v-5.9796h1.6228v5.9178q0 1.4023 0.54681 2.1078 0.5468 0.69674 1.6404 0.69674 1.3141 0 2.0726-0.83785 0.76729-0.83785 0.76729-2.2842v-5.6003h1.6228v9.8778h-1.6228v-1.5169q-0.5909 0.89958-1.3758 1.3406-0.77611 0.43215-1.808 0.43215-1.7022 0-2.5841-1.0583-0.88194-1.0583-0.88194-3.0956zm4.0834-6.2177z"/>
  <path id="path68" style="" d="m184.71 165.47v5.2387h-1.6316v-13.635h1.6316v1.4993q0.51153-0.88194 1.2876-1.3053 0.78493-0.43215 1.8697-0.43215 1.7992 0 2.9192 1.4288 1.1289 1.4288 1.1289 3.7571t-1.1289 3.7571q-1.1201 1.4287-2.9192 1.4287-1.0848 0-1.8697-0.42333-0.77611-0.43215-1.2876-1.3141zm5.521-3.4484q0-1.7904-0.74084-2.8046-0.73201-1.0231-2.0196-1.0231t-2.0285 1.0231q-0.73201 1.0142-0.73201 2.8046 0 1.7903 0.73201 2.8134 0.74084 1.0142 2.0285 1.0142 1.2876 0 2.0196-1.0142 0.74084-1.0231 0.74084-2.8134z"/>
  <path id="path70" style="" d="m199.09 161.99q-1.9667 0-2.7252 0.44979-0.75847 0.44979-0.75847 1.5346 0 0.86431 0.56445 1.3758 0.57326 0.50271 1.5522 0.50271 1.3494 0 2.1608-0.9525 0.8202-0.96132 0.8202-2.5488v-0.3616h-1.614zm3.2367-0.67028v5.6356h-1.6228v-1.4993q-0.55562 0.89958-1.3846 1.3317-0.82902 0.42333-2.0285 0.42333-1.5169 0-2.4165-0.84666-0.89076-0.85549-0.89076-2.2842 0-1.6669 1.1112-2.5135 1.1201-0.84667 3.3338-0.84667h2.2754v-0.15875q0-1.1201-0.74083-1.7286-0.73201-0.61736-2.0638-0.61736-0.84666 0-1.6492 0.20285-0.80257 0.20285-1.5434 0.60854v-1.4993q0.89076-0.34396 1.7286-0.51153 0.83784-0.17639 1.6316-0.17639 2.1431 0 3.2015 1.1112 1.0583 1.1112 1.0583 3.369z"/>
  <path id="path72" style="" d="m212.79 157.45v1.5169q-0.68792-0.37923-1.3847-0.56444-0.68791-0.19403-1.3935-0.19403-1.5787 0-2.4518 1.0054-0.87312 0.99659-0.87312 2.8046t0.87312 2.8134q0.87312 0.99659 2.4518 0.99659 0.70556 0 1.3935-0.18521 0.69674-0.19402 1.3847-0.57326v1.4993q-0.6791 0.31749-1.4111 0.47624-0.7232 0.15875-1.5434 0.15875-2.2313 0-3.5454-1.4023t-1.3141-3.7835q0-2.4165 1.3229-3.8012 1.3317-1.3846 3.6424-1.3846 0.74965 0 1.464 0.15875 0.71438 0.14993 1.3847 0.45861z"/>
 </g>
 <g id="g28" transform="translate(-1 -9.2974)">
  <path id="path30" d="m300 320c40 0 40-90 9.736-90" stroke="#000" stroke-width="2" fill="none"/>
  <path id="polygon32" d="m312.24 225-2.5 5 2.5 5-10-5z"/>
  <path id="polygon34" d="m312.24 225-2.5 5 2.5 5-10-5z" stroke="#000" stroke-width="2" fill="none"/>
 </g>
 <path id="line36" d="m199 200.7 60 40" stroke="#f00" stroke-width="2" fill="none"/>
 <path id="line38" d="m199 240.7 60-40" stroke="#f00" stroke-width="2" fill="none"/>
 <g id="g40" transform="translate(-1 -9.2974)">
  <path id="polygon42" fill="#fdfd04" d="m290 190 10-10v20h-140v-20l10 10 10-10 20 10 20-10h10l10-10 10 10 20-10z"/>
  <path id="polygon44" d="m290 190 10-10v20h-140v-20l10 10 10-10 20 10 20-10h10l10-10 10 10 20-10z" stroke="#000" stroke-width="2" fill="none"/>
 </g>
 <g id="g46" transform="translate(-1 -9.2974)">
  <path id="polygon48" fill="#fdfd04" d="m280 280 20-10v-10h-140v10l10 10 10-10 20 10 20-10 10 10 10-10 10 10 20-10z"/>
  <path id="polygon50" d="m280 280 20-10v-10h-140v10l10 10 10-10 20 10 20-10 10 10 10-10 10 10 20-10z" stroke="#000" stroke-width="2" fill="none"/>
 </g>
</svg>
