<?xml version="1.0" encoding="UTF-8" standalone="no"?>
<svg id="svg2" xmlns:rdf="http://www.w3.org/1999/02/22-rdf-syntax-ns#" xmlns="http://www.w3.org/2000/svg" viewBox="158 109 171.37447 347.91741" height="17.791cm" width="8.8642cm" version="1.1" xmlns:cc="http://creativecommons.org/ns#" xmlns:dc="http://purl.org/dc/elements/1.1/">
 <metadata id="metadata74">
  <rdf:RDF>
   <cc:Work rdf:about="">
    <dc:format>image/svg+xml</dc:format>
    <dc:type rdf:resource="http://purl.org/dc/dcmitype/StillImage"/>
   </cc:Work>
  </rdf:RDF>
 </metadata>
 <g id="g4" transform="translate(-1.9849 -4.0826)">
  <path id="rect6" fill="#7babe3" d="m160 160h140v80h-140z"/>
  <path id="rect8" d="m160 160h140v80h-140z" stroke="#000" stroke-width="2" fill="none"/>
 </g>
 <g id="text10">
  <path id="path43" style="" d="m168.77 370.29v-3.5366h-2.9104v-1.464h4.6743v5.6533q-1.0319 0.73201-2.2754 1.1112-1.2435 0.37041-2.6546 0.37041-3.0868 0-4.833-1.7992-1.7374-1.808-1.7374-5.0271 0-3.2279 1.7374-5.0271 1.7462-1.808 4.833-1.808 1.2876 0 2.443 0.3175 1.1642 0.3175 2.1431 0.93486v1.8962q-0.98777-0.83785-2.099-1.2612-1.1112-0.42333-2.3372-0.42333-2.4165 0-3.6336 1.3494-1.2083 1.3494-1.2083 4.0217 0 2.6635 1.2083 4.0128 1.2171 1.3494 3.6336 1.3494 0.94368 0 1.6845-0.15875 0.74083-0.16757 1.3317-0.51153z"/>
  <path id="path45" style="" d="m173.72 358.44h1.6228v13.723h-1.6228v-13.723z"/>
  <path id="path47" style="" d="m182.56 363.43q-1.3053 0-2.0638 1.023-0.75847 1.0142-0.75847 2.787 0 1.7727 0.74965 2.7958 0.75848 1.0142 2.0726 1.0142 1.2965 0 2.0549-1.023 0.75847-1.0231 0.75847-2.7869 0-1.7551-0.75847-2.7781-0.75847-1.0319-2.0549-1.0319zm0-1.3758q2.1167 0 3.3249 1.3758 1.2083 1.3758 1.2083 3.81 0 2.4253-1.2083 3.81-1.2083 1.3758-3.3249 1.3758-2.1255 0-3.3338-1.3758-1.1994-1.3846-1.1994-3.81 0-2.4342 1.1994-3.81 1.2083-1.3758 3.3338-1.3758z"/>
  <path id="path49" style="" d="m196.86 367.24q0-1.7904-0.74083-2.8046-0.73201-1.0231-2.0196-1.0231t-2.0285 1.0231q-0.73201 1.0142-0.73201 2.8046 0 1.7903 0.73201 2.8134 0.74083 1.0142 2.0285 1.0142 1.2876 0 2.0196-1.0142 0.74083-1.0231 0.74083-2.8134zm-5.521-3.4484q0.51152-0.88195 1.2876-1.3053 0.78493-0.43215 1.8697-0.43215 1.7992 0 2.9192 1.4288 1.1289 1.4288 1.1289 3.7571t-1.1289 3.7571q-1.1201 1.4288-2.9192 1.4288-1.0848 0-1.8697-0.42333-0.77611-0.43215-1.2876-1.3141v1.4817h-1.6316v-13.723h1.6316v5.3446z"/>
  <path id="path51" style="" d="m205.73 367.2q-1.9667 0-2.7252 0.44979-0.75847 0.44979-0.75847 1.5346 0 0.86431 0.56444 1.3758 0.57327 0.50271 1.5522 0.50271 1.3494 0 2.1608-0.9525 0.82021-0.96132 0.82021-2.5488v-0.36159h-1.614zm3.2367-0.67028v5.6356h-1.6228v-1.4993q-0.55562 0.89958-1.3846 1.3317-0.82903 0.42333-2.0285 0.42333-1.5169 0-2.4165-0.84666-0.89077-0.85549-0.89077-2.2842 0-1.6669 1.1112-2.5135 1.1201-0.84667 3.3338-0.84667h2.2754v-0.15875q0-1.1201-0.74083-1.7286-0.73201-0.61736-2.0638-0.61736-0.84666 0-1.6492 0.20285-0.80257 0.20284-1.5434 0.60854v-1.4993q0.89076-0.34395 1.7286-0.51152 0.83784-0.17639 1.6316-0.17639 2.1431 0 3.2014 1.1112t1.0583 3.369zm-2.9633-8.8106h1.7551l-2.8751 3.3161h-1.3494l2.4694-3.3161z"/>
  <path id="path53" style="" d="m212.32 358.44h1.6228v13.723h-1.6228v-13.723z"/>
  <path id="path55" style="" d="m217.33 362.29h1.6228v9.8778h-1.6228v-9.8778zm0-3.8453h1.6228v2.0549h-1.6228v-2.0549z"/>
  <path id="path57" style="" d="m228.63 362.58v1.5346q-0.68791-0.35278-1.4288-0.52917-0.74083-0.17639-1.5346-0.17639-1.2083 0-1.8168 0.37042-0.59972 0.37041-0.59972 1.1112 0 0.56444 0.43215 0.89076 0.43215 0.3175 1.7374 0.60854l0.55562 0.12347q1.7286 0.37042 2.4518 1.0495 0.73201 0.67028 0.73201 1.8785 0 1.3758-1.0936 2.1784-1.0848 0.80257-2.9898 0.80257-0.79375 0-1.658-0.15875-0.85549-0.14993-1.808-0.45861v-1.6757q0.89959 0.46743 1.7727 0.70555 0.87312 0.22931 1.7286 0.22931 1.1465 0 1.7639-0.38805 0.61736-0.39688 0.61736-1.1112 0-0.66146-0.44979-1.0142-0.44098-0.35278-1.9491-0.67909l-0.56444-0.1323q-1.5081-0.3175-2.1784-0.97013-0.67028-0.66146-0.67028-1.808 0-1.3935 0.98778-2.1519 0.98777-0.75847 2.8046-0.75847 0.89958 0 1.6933 0.13229 0.79375 0.13229 1.464 0.39687z"/>
 </g>
 <g id="g14" transform="translate(-1.9849 -4.0826)">
  <path id="rect16" fill="#84fd84" d="m160 380h140v80h-140z"/>
  <path id="rect18" d="m160 380h140v80h-140z" stroke="#000" stroke-width="2" fill="none"/>
 </g>
 <g id="g20" transform="translate(-1.9849 -4.0826)">
  <path id="rect22" fill="#7babe3" d="m160 290h140v50h-140z"/>
  <path id="rect24" d="m160 290h140v50h-140z" stroke="#000" stroke-width="2" fill="none"/>
 </g>
 <g id="text26">
  <path id="path64" style="" d="m209.71 296h1.6228v9.8778h-1.6228v-9.8778zm0-3.8453h1.6228v2.0549h-1.6228v-2.0549z"/>
  <path id="path66" style="" d="m222.94 299.92v5.9619h-1.6228v-5.909q0-1.4023-0.54681-2.099-0.5468-0.69673-1.6404-0.69673-1.3141 0-2.0726 0.83784-0.75847 0.83785-0.75847 2.2842v5.5827h-1.6316v-9.8778h1.6316v1.5346q0.58208-0.89076 1.367-1.3317 0.79375-0.44097 1.8256-0.44097 1.7022 0 2.5753 1.0583 0.87312 1.0495 0.87312 3.0956z"/>
  <path id="path68" style="" d="m227.79 293.2v2.8046h3.3426v1.2612h-3.3426v5.3622q0 1.2083 0.32632 1.5522 0.33514 0.34396 1.3494 0.34396h1.6669v1.3582h-1.6669q-1.8785 0-2.5929-0.69674-0.71438-0.70555-0.71438-2.5576v-5.3622h-1.1906v-1.2612h1.1906v-2.8046h1.6316z"/>
  <path id="path70" style="" d="m247.24 296-3.5719 4.8066 3.7571 5.0712h-1.9138l-2.8751-3.8806-2.8751 3.8806h-1.9138l3.8365-5.1682-3.5101-4.7096h1.9138l2.6194 3.519 2.6194-3.519h1.9138z"/>
  <path id="path72" style="" d="m223.75 315.29h8.4667v0.75847l-4.7801 12.409h-1.8609l4.4979-11.668h-6.3235v-1.4993z"/>
 </g>
 <g id="text32">
  <path id="path75" style="" d="m187.03 397.17q-1.1818 2.0285-1.7551 4.0128-0.57326 1.9844-0.57326 4.0217t0.57326 4.0393q0.58208 1.9932 1.7551 4.0128h-1.4111q-1.3229-2.0726-1.9844-4.0746-0.65263-2.002-0.65263-3.9776 0-1.9667 0.65263-3.9599 0.65264-1.9932 1.9844-4.0746h1.4111z"/>
  <path id="path77" style="" d="m198.4 404.92v5.9619h-1.6228v-5.909q0-1.4023-0.5468-2.099-0.54681-0.69673-1.6404-0.69673-1.3141 0-2.0726 0.83784-0.75847 0.83785-0.75847 2.2842v5.5827h-1.6316v-9.8778h1.6316v1.5346q0.58209-0.89076 1.367-1.3317 0.79374-0.44097 1.8256-0.44097 1.7022 0 2.5753 1.0583 0.87313 1.0495 0.87313 3.0956z"/>
  <path id="path79" style="" d="m210.1 405.53v0.79375h-7.4612q0.10584 1.6757 1.0054 2.5576 0.9084 0.87312 2.5224 0.87312 0.93486 0 1.808-0.22931 0.88195-0.2293 1.7462-0.68791v1.5346q-0.87312 0.37042-1.7904 0.56444-0.91722 0.19403-1.8609 0.19403-2.3636 0-3.7483-1.3758-1.3758-1.3758-1.3758-3.7218 0-2.4254 1.3053-3.8453 1.3141-1.4288 3.5366-1.4288 1.9932 0 3.1485 1.2876 1.1642 1.2788 1.1642 3.4837zm-1.6228-0.47625q-0.0176-1.3317-0.74965-2.1255-0.7232-0.79375-1.9226-0.79375-1.3582 0-2.1784 0.76729-0.81139 0.76729-0.93486 2.1608l5.7856-0.009zm-1.561-8.6254h1.7551l-2.8751 3.3161h-1.3494l2.4694-3.3161z"/>
  <path id="path81" style="" d="m211.6 401h1.7198l3.0868 8.2903 3.0868-8.2903h1.7198l-3.7042 9.8778h-2.2049l-3.7042-9.8778z"/>
  <path id="path83" style="" d="m225.06 398.2v2.8046h3.3426v1.2612h-3.3426v5.3622q0 1.2083 0.32632 1.5522 0.33513 0.34396 1.3494 0.34396h1.6669v1.3582h-1.6669q-1.8785 0-2.5929-0.69674-0.71438-0.70555-0.71438-2.5576v-5.3622h-1.1906v-1.2612h1.1906v-2.8046h1.6316z"/>
  <path id="path85" style="" d="m239 405.53v0.79375h-7.4612q0.10583 1.6757 1.0054 2.5576 0.9084 0.87312 2.5224 0.87312 0.93486 0 1.808-0.22931 0.88194-0.2293 1.7462-0.68791v1.5346q-0.87313 0.37042-1.7904 0.56444-0.91722 0.19403-1.8609 0.19403-2.3636 0-3.7483-1.3758-1.3758-1.3758-1.3758-3.7218 0-2.4254 1.3053-3.8453 1.3141-1.4288 3.5366-1.4288 1.9932 0 3.1485 1.2876 1.1642 1.2788 1.1642 3.4837zm-1.6228-0.47625q-0.0176-1.3317-0.74966-2.1255-0.72319-0.79375-1.9226-0.79375-1.3582 0-2.1784 0.76729-0.81139 0.76729-0.93486 2.1608l5.7856-0.009z"/>
  <path id="path87" style="" d="m241.66 397.16h1.6228v13.723h-1.6228v-13.723z"/>
  <path id="path89" style="" d="m255.12 405.53v0.79375h-7.4612q0.10583 1.6757 1.0054 2.5576 0.9084 0.87312 2.5224 0.87312 0.93486 0 1.808-0.22931 0.88195-0.2293 1.7462-0.68791v1.5346q-0.87312 0.37042-1.7903 0.56444-0.91723 0.19403-1.8609 0.19403-2.3636 0-3.7483-1.3758-1.3758-1.3758-1.3758-3.7218 0-2.4254 1.3053-3.8453 1.3141-1.4288 3.5366-1.4288 1.9932 0 3.1485 1.2876 1.1642 1.2788 1.1642 3.4837zm-1.6228-0.47625q-0.0176-1.3317-0.74965-2.1255-0.72319-0.79375-1.9226-0.79375-1.3582 0-2.1784 0.76729-0.81139 0.76729-0.93486 2.1608l5.7856-0.009z"/>
  <path id="path91" style="" d="m265.99 404.92v5.9619h-1.6228v-5.909q0-1.4023-0.5468-2.099-0.54681-0.69673-1.6404-0.69673-1.3141 0-2.0726 0.83784-0.75847 0.83785-0.75847 2.2842v5.5827h-1.6316v-9.8778h1.6316v1.5346q0.58208-0.89076 1.367-1.3317 0.79375-0.44097 1.8256-0.44097 1.7022 0 2.5753 1.0583 0.87312 1.0495 0.87312 3.0956z"/>
  <path id="path93" style="" d="m268.99 397.17h1.4111q1.3229 2.0814 1.9756 4.0746 0.66146 1.9932 0.66146 3.9599 0 1.9756-0.66146 3.9776-0.65264 2.002-1.9756 4.0746h-1.4111q1.173-2.0197 1.7462-4.0128 0.58209-2.002 0.58209-4.0393t-0.58209-4.0217q-0.57326-1.9844-1.7462-4.0128z"/>
  <path id="path95" style="" d="m207.31 427.49v5.9619h-1.6228v-5.909q0-1.4023-0.54681-2.099-0.5468-0.69673-1.6404-0.69673-1.3141 0-2.0726 0.83785-0.75847 0.83784-0.75847 2.2842v5.5827h-1.6316v-13.723h1.6316v5.3799q0.58208-0.89077 1.367-1.3317 0.79375-0.44097 1.8256-0.44097 1.7022 0 2.5753 1.0583 0.87312 1.0495 0.87312 3.0956z"/>
  <path id="path97" style="" d="m219.01 428.11v0.79375h-7.4612q0.10584 1.6757 1.0054 2.5576 0.9084 0.87312 2.5224 0.87312 0.93486 0 1.808-0.2293 0.88194-0.22931 1.7462-0.68792v1.5346q-0.87313 0.37042-1.7904 0.56445-0.91722 0.19402-1.8609 0.19402-2.3636 0-3.7483-1.3758-1.3758-1.3758-1.3758-3.7218 0-2.4253 1.3053-3.8453 1.3141-1.4288 3.5366-1.4288 1.9932 0 3.1485 1.2876 1.1642 1.2788 1.1642 3.4837zm-1.6228-0.47625q-0.0176-1.3317-0.74965-2.1255-0.7232-0.79375-1.9226-0.79375-1.3582 0-2.1784 0.76729-0.81139 0.76729-0.93486 2.1608l5.7856-0.009z"/>
  <path id="path99" style="" d="m221.67 419.73h1.6228v13.723h-1.6228v-13.723z"/>
  <path id="path101" style="" d="m226.68 419.73h1.6228v13.723h-1.6228v-13.723z"/>
  <path id="path103" style="" d="m235.52 424.72q-1.3053 0-2.0637 1.0231-0.75848 1.0142-0.75848 2.7869t0.74966 2.7958q0.75847 1.0142 2.0726 1.0142 1.2965 0 2.0549-1.023 0.75847-1.0231 0.75847-2.7869 0-1.7551-0.75847-2.7781-0.75847-1.0319-2.0549-1.0319zm0-1.3758q2.1167 0 3.3249 1.3758 1.2083 1.3758 1.2083 3.81 0 2.4253-1.2083 3.81-1.2083 1.3758-3.3249 1.3758-2.1255 0-3.3337-1.3758-1.1994-1.3846-1.1994-3.81 0-2.4342 1.1994-3.81 1.2083-1.3758 3.3337-1.3758zm1.2259-4.3303h1.7551l-2.8751 3.3161h-1.3494l2.4694-3.3161z"/>
  <path id="path105" style="" d="m242.53 420.29 4.5861 14.843h-1.4993l-4.5861-14.843h1.4993z"/>
  <path id="path107" style="" d="m252.88 421.46q-1.3758 0-2.0726 1.3582-0.68791 1.3494-0.68791 4.0658 0 2.7076 0.68791 4.0658 0.69674 1.3494 2.0726 1.3494 1.3846 0 2.0726-1.3494 0.69673-1.3582 0.69673-4.0658 0-2.7164-0.69673-4.0658-0.68792-1.3582-2.0726-1.3582zm0-1.4111q2.2137 0 3.3778 1.7551 1.173 1.7462 1.173 5.08 0 3.3249-1.173 5.08-1.1642 1.7462-3.3778 1.7462-2.2137 0-3.3867-1.7462-1.1642-1.7551-1.1642-5.08 0-3.3337 1.1642-5.08 1.173-1.7551 3.3867-1.7551z"/>
 </g>
 <g id="text38">
  <path id="path110" style="" d="m185.97 181.38v1.5169q-0.68791-0.37924-1.3846-0.56444-0.68791-0.19403-1.3935-0.19403-1.5787 0-2.4518 1.0054-0.87312 0.9966-0.87312 2.8046t0.87312 2.8134q0.87312 0.9966 2.4518 0.9966 0.70556 0 1.3935-0.18521 0.69674-0.19403 1.3846-0.57326v1.4993q-0.67909 0.3175-1.4111 0.47625-0.7232 0.15875-1.5434 0.15875-2.2313 0-3.5454-1.4023t-1.3141-3.7835q0-2.4165 1.3229-3.8012 1.3317-1.3846 3.6424-1.3846 0.74965 0 1.464 0.15875 0.71438 0.14993 1.3846 0.45861z"/>
  <path id="path112" style="" d="m197.02 184.92v5.9619h-1.6228v-5.909q0-1.4023-0.54681-2.099-0.5468-0.69673-1.6404-0.69673-1.3141 0-2.0726 0.83784-0.75847 0.83785-0.75847 2.2842v5.5827h-1.6316v-13.723h1.6316v5.3798q0.58208-0.89076 1.367-1.3317 0.79375-0.44097 1.8256-0.44097 1.7022 0 2.5753 1.0583 0.87313 1.0495 0.87313 3.0956z"/>
  <path id="path114" style="" d="m204.77 185.91q-1.9667 0-2.7252 0.44979-0.75847 0.44979-0.75847 1.5346 0 0.8643 0.56445 1.3758 0.57326 0.50271 1.5522 0.50271 1.3494 0 2.1608-0.9525 0.8202-0.96132 0.8202-2.5488v-0.36159h-1.614zm3.2367-0.67028v5.6356h-1.6228v-1.4993q-0.55562 0.89959-1.3846 1.3317-0.82902 0.42333-2.0285 0.42333-1.5169 0-2.4165-0.84666-0.89076-0.85549-0.89076-2.2842 0-1.6669 1.1112-2.5135 1.1201-0.84666 3.3338-0.84666h2.2754v-0.15875q0-1.1201-0.74083-1.7286-0.73201-0.61736-2.0638-0.61736-0.84666 0-1.6492 0.20285-0.80257 0.20284-1.5434 0.60854v-1.4993q0.89076-0.34395 1.7286-0.51152 0.83784-0.17639 1.6316-0.17639 2.1431 0 3.2015 1.1112 1.0583 1.1112 1.0583 3.369z"/>
  <path id="path116" style="" d="m217.08 182.52q-0.2734-0.15875-0.59972-0.2293-0.3175-0.0794-0.70556-0.0794-1.3758 0-2.1167 0.89959-0.73201 0.89076-0.73201 2.5664v5.2035h-1.6316v-9.8778h1.6316v1.5346q0.51152-0.89958 1.3317-1.3317 0.82021-0.44097 1.9932-0.44097 0.16757 0 0.37042 0.0265 0.20284 0.0176 0.44979 0.0617l0.009 1.6669z"/>
  <path id="path118" style="" d="m230.85 181.29v1.5346q-0.68791-0.35277-1.4288-0.52916-0.74083-0.17639-1.5346-0.17639-1.2083 0-1.8168 0.37042-0.59972 0.37041-0.59972 1.1112 0 0.56444 0.43215 0.89076 0.43215 0.3175 1.7374 0.60854l0.55562 0.12347q1.7286 0.37042 2.4518 1.0495 0.73201 0.67028 0.73201 1.8785 0 1.3758-1.0936 2.1784-1.0848 0.80257-2.9898 0.80257-0.79375 0-1.658-0.15875-0.85549-0.14993-1.808-0.45861v-1.6757q0.89959 0.46743 1.7727 0.70555 0.87312 0.22931 1.7286 0.22931 1.1465 0 1.7639-0.38806 0.61737-0.39687 0.61737-1.1112 0-0.66145-0.4498-1.0142-0.44097-0.35278-1.9491-0.6791l-0.56444-0.13229q-1.5081-0.3175-2.1784-0.97014-0.67028-0.66145-0.67028-1.808 0-1.3935 0.98777-2.1519 0.98778-0.75847 2.8046-0.75847 0.89959 0 1.6933 0.13229 0.79375 0.13229 1.464 0.39687z"/>
  <path id="path120" style="" d="m233.26 181h7.7082v1.4817l-6.103 7.0996h6.103v1.2965h-7.9287v-1.4817l6.103-7.0996h-5.8826v-1.2965z"/>
  <path id="path122" style="" d="m243.31 177.16h3.7394v1.2612h-2.1167v13.582h2.1167v1.2612h-3.7394v-16.104z"/>
  <path id="path124" style="" d="m251.05 189.38h2.9104v-10.045l-3.1662 0.635v-1.6228l3.1485-0.635h1.7815v11.668h2.9104v1.4993h-7.5847v-1.4993z"/>
  <path id="path126" style="" d="m266.05 178.88q-1.3758 0-2.0726 1.3582-0.68791 1.3494-0.68791 4.0658 0 2.7076 0.68791 4.0658 0.69674 1.3494 2.0726 1.3494 1.3846 0 2.0726-1.3494 0.69673-1.3582 0.69673-4.0658 0-2.7164-0.69673-4.0658-0.68792-1.3582-2.0726-1.3582zm0-1.4111q2.2137 0 3.3778 1.7551 1.173 1.7462 1.173 5.08 0 3.3249-1.173 5.08-1.1642 1.7462-3.3778 1.7462-2.2137 0-3.3867-1.7462-1.1642-1.7551-1.1642-5.08 0-3.3338 1.1642-5.08 1.173-1.7551 3.3867-1.7551z"/>
  <path id="path128" style="" d="m277.31 177.16v16.104h-3.7394v-1.2612h2.1078v-13.582h-2.1078v-1.2612h3.7394z"/>
  <path id="path130" style="" d="m180.13 200.29h1.7815v5.3975h6.4735v-5.3975h1.7815v13.167h-1.7815v-6.2706h-6.4735v6.2706h-1.7815v-13.167z"/>
  <path id="path132" style="" d="m193.72 200.29h8.3255v1.4993h-6.544v3.8982h6.2706v1.4993h-6.2706v4.7713h6.7028v1.4993h-8.4843v-13.167z"/>
  <path id="path134" style="" d="m205.15 200.29h1.7815v11.668h6.4117v1.4993h-8.1933v-13.167z"/>
  <path id="path136" style="" d="m215.2 200.29h1.7815v11.668h6.4117v1.4993h-8.1932v-13.167z"/>
  <path id="path138" style="" d="m229.96 201.5q-1.9403 0-3.0868 1.4464-1.1377 1.4464-1.1377 3.9423 0 2.4871 1.1377 3.9335 1.1465 1.4464 3.0868 1.4464t3.0692-1.4464q1.1377-1.4464 1.1377-3.9335 0-2.4959-1.1377-3.9423-1.1289-1.4464-3.0692-1.4464zm0-1.4464q2.7693 0 4.4274 1.8609 1.6581 1.8521 1.6581 4.9742 0 3.1133-1.6581 4.9742-1.658 1.8521-4.4274 1.8521-2.7781 0-4.445-1.8521-1.658-1.8521-1.658-4.9742t1.658-4.9742q1.6669-1.8609 4.445-1.8609zm0.48507-3.3426h1.6316l-2.0108 2.3283h-1.3494l1.7286-2.3283z"/>
  <path id="path140" style="" d="m238.56 200.29 4.5861 14.843h-1.4993l-4.5861-14.843h1.4993z"/>
  <path id="path142" style="" d="m248.91 201.46q-1.3758 0-2.0726 1.3582-0.68792 1.3494-0.68792 4.0658 0 2.7076 0.68792 4.0658 0.69673 1.3494 2.0726 1.3494 1.3846 0 2.0726-1.3494 0.69674-1.3582 0.69674-4.0658 0-2.7164-0.69674-4.0658-0.68792-1.3582-2.0726-1.3582zm0-1.4111q2.2137 0 3.3778 1.7551 1.173 1.7462 1.173 5.08 0 3.3249-1.173 5.08-1.1642 1.7462-3.3778 1.7462-2.2137 0-3.3867-1.7462-1.1642-1.7551-1.1642-5.08 0-3.3337 1.1642-5.08 1.173-1.7551 3.3867-1.7551z"/>
  <path id="path144" style="" d="m256.6 211.22h1.8609v2.2401h-1.8609v-2.2401z"/>
  <path id="path146" style="" d="m262.35 211.22h1.8609v2.2401h-1.8609v-2.2401z"/>
  <path id="path148" style="" d="m268.1 211.22h1.8609v2.2401h-1.8609v-2.2401z"/>
  <path id="path150" style="" d="m273.85 211.22h1.8609v2.2401h-1.8609v-2.2401z"/>
 </g>
 <g id="g44" transform="translate(-1.9849 -4.0826)">
  <path id="rect46" fill="#7babe3" d="m160 240h140v50h-140z"/>
  <path id="rect48" d="m160 240h140v50h-140z" stroke="#000" stroke-width="2" fill="none"/>
 </g>
 <g id="text50">
  <path id="path155" style="" d="m203.74 257.67v1.5169q-0.68791-0.37923-1.3846-0.56444-0.68791-0.19403-1.3935-0.19403-1.5787 0-2.4518 1.0054-0.87312 0.99659-0.87312 2.8046t0.87312 2.8134q0.87312 0.99659 2.4518 0.99659 0.70556 0 1.3935-0.18521 0.69674-0.19402 1.3846-0.57326v1.4993q-0.67909 0.3175-1.4111 0.47625-0.72319 0.15875-1.5434 0.15875-2.2313 0-3.5454-1.4023t-1.3141-3.7835q0-2.4165 1.3229-3.8012 1.3317-1.3846 3.6424-1.3846 0.74965 0 1.464 0.15875 0.71438 0.14993 1.3846 0.45861z"/>
  <path id="path157" style="" d="m214.79 261.21v5.9619h-1.6228v-5.909q0-1.4023-0.54681-2.099-0.5468-0.69673-1.6404-0.69673-1.3141 0-2.0726 0.83784-0.75847 0.83785-0.75847 2.2842v5.5827h-1.6316v-13.723h1.6316v5.3799q0.58208-0.89077 1.367-1.3317 0.79375-0.44097 1.8256-0.44097 1.7022 0 2.5753 1.0583 0.87312 1.0495 0.87312 3.0956z"/>
  <path id="path159" style="" d="m222.53 262.2q-1.9667 0-2.7252 0.44979-0.75847 0.44979-0.75847 1.5346 0 0.86431 0.56445 1.3758 0.57326 0.50271 1.5522 0.50271 1.3494 0 2.1608-0.9525 0.8202-0.96132 0.8202-2.5488v-0.36159h-1.614zm3.2367-0.67028v5.6356h-1.6228v-1.4993q-0.55562 0.89958-1.3846 1.3317-0.82902 0.42333-2.0285 0.42333-1.5169 0-2.4165-0.84666-0.89076-0.85549-0.89076-2.2842 0-1.6669 1.1112-2.5135 1.1201-0.84667 3.3338-0.84667h2.2754v-0.15875q0-1.1201-0.74083-1.7286-0.73201-0.61736-2.0638-0.61736-0.84666 0-1.6492 0.20285-0.80257 0.20284-1.5434 0.60854v-1.4993q0.89076-0.34395 1.7286-0.51152 0.83784-0.17639 1.6316-0.17639 2.1431 0 3.2015 1.1112 1.0583 1.1112 1.0583 3.369z"/>
  <path id="path161" style="" d="m234.84 258.81q-0.2734-0.15875-0.59972-0.22931-0.3175-0.0794-0.70556-0.0794-1.3758 0-2.1167 0.89958-0.73202 0.89076-0.73202 2.5664v5.2035h-1.6316v-9.8778h1.6316v1.5346q0.51153-0.89959 1.3317-1.3317 0.82021-0.44097 1.9932-0.44097 0.16757 0 0.37042 0.0265 0.20284 0.0176 0.44979 0.0617l0.009 1.6669z"/>
  <path id="path163" style="" d="m249.1 256.17-3.1662 1.711 3.1662 1.7198-0.51153 0.8643-2.9633-1.7904v3.3249h-1.0054v-3.3249l-2.9633 1.7904-0.51153-0.8643 3.1662-1.7198-3.1662-1.711 0.51153-0.87313 2.9633 1.7904v-3.3249h1.0054v3.3249l2.9633-1.7904 0.51153 0.87313z"/>
  <path id="path165" style="" d="m252.91 265.69v5.2388h-1.6316v-13.635h1.6316v1.4993q0.51152-0.88195 1.2876-1.3053 0.78493-0.43215 1.8697-0.43215 1.7992 0 2.9192 1.4288 1.1289 1.4288 1.1289 3.7571t-1.1289 3.7571q-1.1201 1.4288-2.9192 1.4288-1.0848 0-1.8697-0.42333-0.77611-0.43215-1.2876-1.3141zm5.521-3.4484q0-1.7904-0.74083-2.8046-0.73201-1.0231-2.0196-1.0231t-2.0285 1.0231q-0.73201 1.0142-0.73201 2.8046 0 1.7903 0.73201 2.8134 0.74083 1.0142 2.0285 1.0142 1.2876 0 2.0196-1.0142 0.74083-1.0231 0.74083-2.8134z"/>
 </g>
 <g id="g54" transform="translate(-1.9849 -4.0826)">
  <path id="path56" d="m300 265c40 0 40 155 9.736 155" stroke="#000" stroke-width="2" fill="none"/>
  <path id="polygon58" d="m312.24 415-2.5 5 2.5 5-10-5z"/>
  <path id="polygon60" d="m312.24 415-2.5 5 2.5 5-10-5z" stroke="#000" stroke-width="2" fill="none"/>
 </g>
 <g id="text62">
  <path id="path170" style="" d="m163.18 122.17-5.02-13.17h1.8609l4.1716 11.086 4.1804-11.086h1.8521l-5.0183 13.167h-2.0196z"/>
  <path id="path172" style="" d="m179.1 116.82v0.79375h-7.4612q0.10583 1.6757 1.0054 2.5576 0.9084 0.87312 2.5224 0.87312 0.93486 0 1.808-0.2293 0.88194-0.22931 1.7462-0.68792v1.5346q-0.87313 0.37042-1.7904 0.56445-0.91722 0.19403-1.8609 0.19403-2.3636 0-3.7483-1.3758-1.3758-1.3758-1.3758-3.7218 0-2.4253 1.3053-3.8453 1.3141-1.4288 3.5366-1.4288 1.9932 0 3.1485 1.2876 1.1642 1.2788 1.1642 3.4837zm-1.6228-0.47624q-0.0176-1.3317-0.74966-2.1255-0.72319-0.79375-1.9226-0.79375-1.3582 0-2.1784 0.76729-0.81139 0.76729-0.93486 2.1608l5.7856-0.009z"/>
  <path id="path174" style="" d="m187.49 113.81q-0.2734-0.15875-0.59972-0.22931-0.3175-0.0794-0.70555-0.0794-1.3758 0-2.1167 0.89958-0.73201 0.89076-0.73201 2.5665v5.2035h-1.6316v-9.8778h1.6316v1.5346q0.51153-0.89958 1.3317-1.3317 0.82021-0.44097 1.9932-0.44097 0.16757 0 0.37041 0.0265 0.20285 0.0176 0.44979 0.0617l0.009 1.6669z"/>
  <path id="path176" style="" d="m197.27 116.82v0.79375h-7.4612q0.10584 1.6757 1.0054 2.5576 0.9084 0.87312 2.5224 0.87312 0.93486 0 1.808-0.2293 0.88195-0.22931 1.7462-0.68792v1.5346q-0.87312 0.37042-1.7903 0.56445-0.91723 0.19403-1.8609 0.19403-2.3636 0-3.7482-1.3758-1.3758-1.3758-1.3758-3.7218 0-2.4253 1.3053-3.8453 1.3141-1.4288 3.5366-1.4288 1.9932 0 3.1485 1.2876 1.1642 1.2788 1.1642 3.4837zm-1.6228-0.47624q-0.0176-1.3317-0.74965-2.1255-0.7232-0.79375-1.9226-0.79375-1.3582 0-2.1784 0.76729-0.81139 0.76729-0.93486 2.1608l5.7856-0.009z"/>
  <path id="path178" style="" d="m207.62 114.19q0.60854-1.0936 1.4552-1.614 0.84666-0.52035 1.9932-0.52035 1.5434 0 2.3812 1.0848 0.83784 1.076 0.83784 3.0692v5.9619h-1.6316v-5.909q0-1.4199-0.50271-2.1078-0.50271-0.68792-1.5346-0.68792-1.2612 0-1.9932 0.83785-0.73202 0.83784-0.73202 2.2842v5.5827h-1.6316v-5.909q0-1.4288-0.50271-2.1078-0.50271-0.68792-1.5522-0.68792-1.2435 0-1.9756 0.84667-0.73202 0.83784-0.73202 2.2754v5.5827h-1.6316v-9.8778h1.6316v1.5346q0.55563-0.9084 1.3317-1.3406 0.77611-0.43215 1.8433-0.43215 1.076 0 1.8256 0.54681 0.75847 0.5468 1.1201 1.5875z"/>
 </g>
 <path id="line66" d="m158.02 155.92v-30" stroke="#000" stroke-width="2" fill="none"/>
 <path id="line68" d="m298.02 155.92v-30" stroke="#000" stroke-width="2" fill="none"/>
</svg>
