<?xml version="1.0" encoding="UTF-8" standalone="no"?>
<svg id="svg2" xmlns:rdf="http://www.w3.org/1999/02/22-rdf-syntax-ns#" xmlns="http://www.w3.org/2000/svg" viewBox="269 129 171.00001 111.52272" height="6.3468cm" width="8.896cm" version="1.1" xmlns:cc="http://creativecommons.org/ns#" xmlns:dc="http://purl.org/dc/elements/1.1/">
 <metadata id="metadata42">
  <rdf:RDF>
   <cc:Work rdf:about="">
    <dc:format>image/svg+xml</dc:format>
    <dc:type rdf:resource="http://purl.org/dc/dcmitype/StillImage"/>
   </cc:Work>
  </rdf:RDF>
 </metadata>
 <g id="g4" transform="translate(0 -5.2386)">
  <path id="rect6" fill="#fff" d="m270 130h150v40h-150z"/>
  <path id="rect8" d="m270 130h150v40h-150z" stroke="#000" stroke-width="2" fill="none"/>
 </g>
 <g id="text10">
  <path id="path27" style="" d="m277.36 138.2h3.272v1.1035h-1.8521v11.884h1.8521v1.1035h-3.272v-14.091z"/>
  <path id="path29" style="" d="m287.2 139.72q-1.2038 0-1.8135 1.1884-0.60192 1.1807-0.60192 3.5575 0 2.3691 0.60192 3.5575 0.60965 1.1807 1.8135 1.1807 1.2116 0 1.8135-1.1807 0.60964-1.1884 0.60964-3.5575 0-2.3768-0.60964-3.5575-0.60193-1.1884-1.8135-1.1884zm0-1.2347q1.937 0 2.9556 1.5357 1.0264 1.528 1.0264 4.445 0 2.9093-1.0264 4.445-1.0186 1.528-2.9556 1.528t-2.9633-1.528q-1.0186-1.5357-1.0186-4.445 0-2.917 1.0186-4.445 1.0264-1.5357 2.9633-1.5357z"/>
  <path id="path31" style="" d="m297.04 138.2v14.091h-3.272v-1.1035h1.8444v-11.884h-1.8444v-1.1035h3.272z"/>
  <path id="path33" style="" d="m300.26 148.25h1.6283v1.9601h-1.6283v-1.9601zm0-6.2122h1.6283v1.9601h-1.6283v-1.9601z"/>
  <path id="path35" style="" d="m317.46 144.99v5.2167h-1.4199v-5.1704q0-1.227-0.47846-1.8366-0.47845-0.60965-1.4354-0.60965-1.1498 0-1.8135 0.73312-0.66366 0.73311-0.66366 1.9987v4.8848h-1.4276v-12.008h1.4276v4.7074q0.50932-0.77942 1.1961-1.1653 0.69453-0.38585 1.5974-0.38585 1.4894 0 2.2534 0.92604 0.76398 0.91833 0.76398 2.7087z"/>
  <path id="path37" style="" d="m327.7 145.53v0.69453h-6.5286q0.0926 1.4662 0.87973 2.2379 0.79485 0.76399 2.2071 0.76399 0.818 0 1.582-0.20065 0.7717-0.20064 1.528-0.60192v1.3428q-0.76398 0.32411-1.5666 0.49388-0.80257 0.16978-1.6283 0.16978-2.0682 0-3.2797-1.2038-1.2038-1.2038-1.2038-3.2566 0-2.1222 1.1421-3.3646 1.1498-1.2502 3.0945-1.2502 1.744 0 2.755 1.1267 1.0186 1.119 1.0186 3.0482zm-1.4199-0.41672q-0.0154-1.1653-0.65594-1.8598-0.63279-0.69452-1.6823-0.69452-1.1884 0-1.9061 0.67137-0.70996 0.67138-0.818 1.8907l5.0623-0.008z"/>
  <path id="path39" style="" d="m330.03 138.2h1.4199v12.008h-1.4199v-12.008z"/>
  <path id="path41" style="" d="m334.41 138.2h1.4199v12.008h-1.4199v-12.008z"/>
  <path id="path43" style="" d="m342.14 142.56q-1.1421 0-1.8058 0.89517-0.66367 0.88745-0.66367 2.4386 0 1.5511 0.65595 2.4463 0.66366 0.88746 1.8135 0.88746 1.1344 0 1.7981-0.89517 0.66366-0.89518 0.66366-2.4386 0-1.5357-0.66366-2.4309-0.66366-0.90288-1.7981-0.90288zm0-1.2039q1.8521 0 2.9093 1.2039 1.0572 1.2038 1.0572 3.3337 0 2.1222-1.0572 3.3337-1.0572 1.2038-2.9093 1.2038-1.8598 0-2.917-1.2038-1.0495-1.2116-1.0495-3.3337 0-2.1299 1.0495-3.3337 1.0572-1.2039 2.917-1.2039z"/>
  <path id="path45" style="" d="m352.47 141.57h1.5048l2.701 7.254 2.701-7.254h1.5048l-3.2411 8.643h-1.9292l-3.2411-8.643z"/>
  <path id="path47" style="" d="m362.84 141.57h1.4199v8.643h-1.4199v-8.643zm0-3.3646h1.4199v1.7981h-1.4199v-1.7981z"/>
  <path id="path49" style="" d="m367.22 138.2h1.4199v12.008h-1.4199v-12.008z"/>
  <path id="path51" style="" d="m375.53 145.87q-1.7209 0-2.3846 0.39356-0.66366 0.39357-0.66366 1.3428 0 0.75627 0.49388 1.2038 0.50161 0.43987 1.3582 0.43987 1.1807 0 1.8907-0.83343 0.71768-0.84116 0.71768-2.2302v-0.31639h-1.4122zm2.8321-0.58649v4.9312h-1.4199v-1.3119q-0.48617 0.78713-1.2116 1.1653-0.7254 0.37042-1.7749 0.37042-1.3273 0-2.1144-0.74083-0.77942-0.74855-0.77942-1.9987 0-1.4585 0.97234-2.1994 0.98006-0.74083 2.917-0.74083h1.991v-0.1389q0-0.98006-0.64823-1.5125-0.64051-0.54018-1.8058-0.54018-0.74083 0-1.4431 0.17749-0.70225 0.17749-1.3505 0.53247v-1.3119q0.77942-0.30096 1.5125-0.44759 0.73312-0.15434 1.4276-0.15434 1.8752 0 2.8013 0.97235 0.92603 0.97234 0.92603 2.9479z"/>
  <path id="path53" style="" d="m386.99 145.79q0-1.5434-0.64051-2.3923-0.6328-0.84887-1.7826-0.84887-1.1421 0-1.7826 0.84887-0.63279 0.84887-0.63279 2.3923 0 1.5357 0.63279 2.3846 0.64052 0.84887 1.7826 0.84887 1.1498 0 1.7826-0.84887 0.64051-0.84887 0.64051-2.3846zm1.4199 3.3492q0 2.2071-0.98006 3.2797-0.98005 1.0804-3.0019 1.0804-0.74854 0-1.4122-0.11575-0.66366-0.10804-1.2887-0.33955v-1.3813q0.62507 0.33955 1.2347 0.5016 0.60964 0.16206 1.2424 0.16206 1.3968 0 2.0913-0.73311 0.69453-0.7254 0.69453-2.1994v-0.70224q-0.43987 0.76398-1.1267 1.1421-0.68681 0.37813-1.6437 0.37813-1.5897 0-2.562-1.2116-0.97234-1.2116-0.97234-3.2103 0-2.0064 0.97234-3.218 0.97235-1.2116 2.562-1.2116 0.9569 0 1.6437 0.37814 0.68682 0.37813 1.1267 1.1421v-1.3119h1.4199v7.5704z"/>
  <path id="path55" style="" d="m391.15 138.69 4.0128 12.988h-1.3119l-4.0128-12.988h1.3119z"/>
  <path id="path57" style="" d="m400.2 139.72q-1.2038 0-1.8135 1.1884-0.60193 1.1807-0.60193 3.5575 0 2.3691 0.60193 3.5575 0.60964 1.1807 1.8135 1.1807 1.2116 0 1.8135-1.1807 0.60965-1.1884 0.60965-3.5575 0-2.3768-0.60965-3.5575-0.60192-1.1884-1.8135-1.1884zm0-1.2347q1.937 0 2.9556 1.5357 1.0264 1.528 1.0264 4.445 0 2.9093-1.0264 4.445-1.0186 1.528-2.9556 1.528t-2.9633-1.528q-1.0186-1.5357-1.0186-4.445 0-2.917 1.0186-4.445 1.0264-1.5357 2.9633-1.5357z"/>
 </g>
 <g id="g14" transform="translate(0 -5.2386)">
  <path id="rect16" fill="#fff" d="m270 170h150v40h-150z"/>
  <path id="rect18" d="m270 170h150v40h-150z" stroke="#000" stroke-width="2" fill="none"/>
 </g>
 <g id="text20">
  <path id="path62" style="" d="m277.36 178.2h3.272v1.1035h-1.8521v11.884h1.8521v1.1035h-3.272v-14.091z"/>
  <path id="path64" style="" d="m284.13 188.9h2.5466v-8.7897l-2.7704 0.55563v-1.4199l2.755-0.55562h1.5588v10.21h2.5466v1.3119h-6.6366v-1.3119z"/>
  <path id="path66" style="" d="m297.04 178.2v14.091h-3.272v-1.1035h1.8444v-11.884h-1.8444v-1.1035h3.272z"/>
  <path id="path68" style="" d="m300.26 188.25h1.6283v1.9601h-1.6283v-1.9601zm0-6.2122h1.6283v1.9601h-1.6283v-1.9601z"/>
  <path id="path70" style="" d="m314.2 185.87q-1.7209 0-2.3846 0.39356-0.66366 0.39357-0.66366 1.3428 0 0.75627 0.49389 1.2038 0.5016 0.43987 1.3582 0.43987 1.1807 0 1.8907-0.83343 0.71768-0.84116 0.71768-2.2302v-0.31639h-1.4122zm2.8321-0.58649v4.9312h-1.4199v-1.3119q-0.48617 0.78713-1.2116 1.1653-0.72539 0.37042-1.7749 0.37042-1.3273 0-2.1145-0.74083-0.77942-0.74855-0.77942-1.9987 0-1.4585 0.97235-2.1994 0.98005-0.74083 2.917-0.74083h1.991v-0.1389q0-0.98006-0.64823-1.5125-0.64051-0.54018-1.8058-0.54018-0.74083 0-1.4431 0.17749-0.70225 0.17749-1.3505 0.53247v-1.3119q0.77941-0.30096 1.5125-0.44759 0.73311-0.15434 1.4276-0.15434 1.8752 0 2.8013 0.97235 0.92604 0.97234 0.92604 2.9479z"/>
  <path id="path72" style="" d="m319.96 178.2h1.4199v12.008h-1.4199v-12.008z"/>
  <path id="path74" style="" d="m331.08 183.23q0.53247-0.95691 1.2733-1.4122 0.74083-0.45531 1.744-0.45531 1.3505 0 2.0836 0.94919 0.73311 0.94148 0.73311 2.6855v5.2167h-1.4276v-5.1704q0-1.2424-0.43987-1.8444-0.43987-0.60193-1.3428-0.60193-1.1035 0-1.744 0.73312-0.64051 0.73311-0.64051 1.9987v4.8848h-1.4276v-5.1704q0-1.2502-0.43987-1.8444-0.43987-0.60193-1.3582-0.60193-1.0881 0-1.7286 0.74083-0.64051 0.73312-0.64051 1.991v4.8848h-1.4276v-8.643h1.4276v1.3428q0.48617-0.79485 1.1653-1.173 0.67909-0.37814 1.6128-0.37814 0.94147 0 1.5974 0.47846 0.66366 0.47845 0.98006 1.3891z"/>
  <path id="path76" style="" d="m343.68 185.87q-1.7209 0-2.3846 0.39356-0.66366 0.39357-0.66366 1.3428 0 0.75627 0.49389 1.2038 0.50161 0.43987 1.3582 0.43987 1.1807 0 1.8907-0.83343 0.71768-0.84116 0.71768-2.2302v-0.31639h-1.4122zm2.8321-0.58649v4.9312h-1.4199v-1.3119q-0.48617 0.78713-1.2116 1.1653-0.7254 0.37042-1.7749 0.37042-1.3273 0-2.1145-0.74083-0.77941-0.74855-0.77941-1.9987 0-1.4585 0.97234-2.1994 0.98006-0.74083 2.917-0.74083h1.991v-0.1389q0-0.98006-0.64822-1.5125-0.64051-0.54018-1.8058-0.54018-0.74083 0-1.4431 0.17749-0.70224 0.17749-1.3505 0.53247v-1.3119q0.77942-0.30096 1.5125-0.44759 0.73311-0.15434 1.4276-0.15434 1.8752 0 2.8013 0.97235 0.92604 0.97234 0.92604 2.9479z"/>
  <path id="path78" style="" d="m353.82 178.2v1.1807h-1.3582q-0.76398 0-1.0649 0.30868-0.29325 0.30868-0.29325 1.1112v0.76398h2.3382v1.1035h-2.3382v7.5395h-1.4276v-7.5395h-1.3582v-1.1035h1.3582v-0.60192q0-1.4431 0.67138-2.099 0.67138-0.66367 2.1299-0.66367h1.3428z"/>
  <path id="path80" style="" d="m358.93 185.87q-1.7209 0-2.3846 0.39356-0.66367 0.39357-0.66367 1.3428 0 0.75627 0.49389 1.2038 0.50161 0.43987 1.3582 0.43987 1.1807 0 1.8907-0.83343 0.71768-0.84116 0.71768-2.2302v-0.31639h-1.4122zm2.8321-0.58649v4.9312h-1.4199v-1.3119q-0.48617 0.78713-1.2116 1.1653-0.7254 0.37042-1.7749 0.37042-1.3273 0-2.1145-0.74083-0.77941-0.74855-0.77941-1.9987 0-1.4585 0.97234-2.1994 0.98006-0.74083 2.917-0.74083h1.991v-0.1389q0-0.98006-0.64823-1.5125-0.64051-0.54018-1.8058-0.54018-0.74083 0-1.4431 0.17749-0.70225 0.17749-1.3505 0.53247v-1.3119q0.77942-0.30096 1.5125-0.44759 0.73312-0.15434 1.4276-0.15434 1.8752 0 2.8013 0.97235 0.92604 0.97234 0.92604 2.9479z"/>
  <path id="path82" style="" d="m364.51 178.69 4.0128 12.988h-1.3119l-4.0128-12.988h1.3119z"/>
  <path id="path84" style="" d="m373.57 179.72q-1.2038 0-1.8135 1.1884-0.60192 1.1807-0.60192 3.5575 0 2.3691 0.60192 3.5575 0.60965 1.1807 1.8135 1.1807 1.2116 0 1.8135-1.1807 0.60964-1.1884 0.60964-3.5575 0-2.3768-0.60964-3.5575-0.60192-1.1884-1.8135-1.1884zm0-1.2347q1.937 0 2.9556 1.5357 1.0264 1.528 1.0264 4.445 0 2.9093-1.0264 4.445-1.0186 1.528-2.9556 1.528t-2.9633-1.528q-1.0186-1.5357-1.0186-4.445 0-2.917 1.0186-4.445 1.0264-1.5357 2.9633-1.5357z"/>
  <path id="path86" style="" d="m380.3 188.25h1.6283v1.9601h-1.6283v-1.9601z"/>
  <path id="path88" style="" d="m385.33 188.25h1.6283v1.9601h-1.6283v-1.9601z"/>
  <path id="path90" style="" d="m390.36 188.25h1.6283v1.9601h-1.6283v-1.9601z"/>
  <path id="path92" style="" d="m395.39 188.25h1.6283v1.9601h-1.6283v-1.9601z"/>
  <path id="path94" style="" d="m400.42 188.25h1.6283v1.9601h-1.6283v-1.9601z"/>
 </g>
 <g id="g24" transform="translate(0 -5.2386)">
  <path id="rect26" fill="#fff" d="m270 210h150v40h-150z"/>
  <path id="rect28" d="m270 210h150v40h-150z" stroke="#000" stroke-width="2" fill="none"/>
 </g>
 <g id="text30">
  <path id="path99" style="" d="m277.36 218.2h3.272v1.1035h-1.8521v11.884h1.8521v1.1035h-3.272v-14.091z"/>
  <path id="path101" style="" d="m285.21 228.9h5.4405v1.3119h-7.3157v-1.3119q0.88746-0.91833 2.4154-2.4617 1.5357-1.5511 1.9292-1.9987 0.74855-0.84115 1.0418-1.4199 0.30097-0.58649 0.30097-1.1498 0-0.91833-0.64823-1.4971-0.64051-0.57877-1.6746-0.57877-0.73311 0-1.5511 0.25466-0.81029 0.25466-1.7363 0.77169v-1.5743q0.94148-0.37813 1.7595-0.57106 0.818-0.19292 1.4971-0.19292 1.7904 0 2.8553 0.89517 1.065 0.89517 1.065 2.3923 0 0.70996-0.2701 1.3505-0.26238 0.63279-0.96462 1.4971-0.19293 0.22379-1.227 1.2964-1.0341 1.0649-2.917 2.9865z"/>
  <path id="path103" style="" d="m297.04 218.2v14.091h-3.272v-1.1035h1.8444v-11.884h-1.8444v-1.1035h3.272z"/>
  <path id="path105" style="" d="m300.26 228.25h1.6283v1.9601h-1.6283v-1.9601zm0-6.2122h1.6283v1.9601h-1.6283v-1.9601z"/>
  <path id="path107" style="" d="m317.46 224.99v5.2167h-1.4199v-5.1704q0-1.227-0.47846-1.8366-0.47845-0.60965-1.4354-0.60965-1.1498 0-1.8135 0.73312-0.66366 0.73311-0.66366 1.9987v4.8848h-1.4276v-12.008h1.4276v4.7074q0.50932-0.77942 1.1961-1.1653 0.69453-0.38585 1.5974-0.38585 1.4894 0 2.2534 0.92604 0.76398 0.91833 0.76398 2.7087z"/>
  <path id="path109" style="" d="m327.7 225.53v0.69453h-6.5286q0.0926 1.4662 0.87973 2.2379 0.79485 0.76399 2.2071 0.76399 0.818 0 1.582-0.20065 0.7717-0.20064 1.528-0.60192v1.3428q-0.76398 0.32411-1.5666 0.49388-0.80257 0.16978-1.6283 0.16978-2.0682 0-3.2797-1.2038-1.2038-1.2038-1.2038-3.2566 0-2.1222 1.1421-3.3646 1.1498-1.2502 3.0945-1.2502 1.744 0 2.755 1.1267 1.0186 1.119 1.0186 3.0482zm-1.4199-0.41672q-0.0154-1.1653-0.65594-1.8598-0.63279-0.69452-1.6823-0.69452-1.1884 0-1.9061 0.67137-0.70996 0.67138-0.818 1.8907l5.0623-0.008z"/>
  <path id="path111" style="" d="m336.93 221.57-3.1254 4.2058 3.2874 4.4373h-1.6746l-2.5157-3.3955-2.5157 3.3955h-1.6746l3.3569-4.5222-3.0714-4.1209h1.6746l2.292 3.0791 2.2919-3.0791h1.6746z"/>
  <path id="path113" style="" d="m344.79 222.88v-4.6765h1.4199v12.008h-1.4199v-1.2964q-0.44758 0.7717-1.1344 1.1498-0.67909 0.37042-1.636 0.37042-1.5666 0-2.5543-1.2502-0.98006-1.2502-0.98006-3.2874 0-2.0373 0.98006-3.2874 0.98777-1.2502 2.5543-1.2502 0.95691 0 1.636 0.37814 0.68682 0.37041 1.1344 1.1421zm-4.8386 3.0174q0 1.5666 0.64051 2.4617 0.64823 0.88745 1.7749 0.88745t1.7749-0.88745q0.64823-0.89517 0.64823-2.4617 0-1.5666-0.64823-2.454-0.64822-0.89517-1.7749-0.89517t-1.7749 0.89517q-0.64051 0.88746-0.64051 2.454z"/>
  <path id="path115" style="" d="m348.99 226.8v-5.2321h1.4199v5.1781q0 1.227 0.47845 1.8444 0.47845 0.60964 1.4354 0.60964 1.1498 0 1.8135-0.73312 0.67138-0.73311 0.67138-1.9987v-4.9003h1.4199v8.643h-1.4199v-1.3273q-0.51704 0.78714-1.2038 1.173-0.67909 0.37814-1.582 0.37814-1.4894 0-2.2611-0.92604t-0.7717-2.7087zm3.573-5.4405z"/>
  <path id="path117" style="" d="m365.9 223.23q0.53247-0.95691 1.2733-1.4122 0.74083-0.45531 1.744-0.45531 1.3505 0 2.0836 0.94919 0.73311 0.94148 0.73311 2.6855v5.2167h-1.4276v-5.1704q0-1.2424-0.43987-1.8444-0.43987-0.60193-1.3428-0.60193-1.1035 0-1.744 0.73312-0.64052 0.73311-0.64052 1.9987v4.8848h-1.4276v-5.1704q0-1.2502-0.43987-1.8444-0.43987-0.60193-1.3582-0.60193-1.0881 0-1.7286 0.74083-0.64051 0.73312-0.64051 1.991v4.8848h-1.4276v-8.643h1.4276v1.3428q0.48617-0.79485 1.1653-1.173 0.6791-0.37814 1.6128-0.37814 0.94148 0 1.5974 0.47846 0.66366 0.47845 0.98006 1.3891z"/>
  <path id="path119" style="" d="m375.94 228.91v4.5839h-1.4276v-11.93h1.4276v1.3119q0.44759-0.7717 1.1267-1.1421 0.68681-0.37814 1.636-0.37814 1.5743 0 2.5543 1.2502 0.98777 1.2502 0.98777 3.2874 0 2.0373-0.98777 3.2874-0.98006 1.2502-2.5543 1.2502-0.94919 0-1.636-0.37042-0.67909-0.37813-1.1267-1.1498zm4.8308-3.0173q0-1.5666-0.64823-2.454-0.64051-0.89517-1.7672-0.89517t-1.7749 0.89517q-0.64051 0.88746-0.64051 2.454 0 1.5666 0.64051 2.4617 0.64823 0.88745 1.7749 0.88745t1.7672-0.88745q0.64823-0.89517 0.64823-2.4617z"/>
  <path id="path121" style="" d="m384.42 218.69 4.0128 12.988h-1.3119l-4.0128-12.988h1.3119z"/>
  <path id="path123" style="" d="m393.48 219.72q-1.2038 0-1.8135 1.1884-0.60193 1.1807-0.60193 3.5575 0 2.3691 0.60193 3.5575 0.60964 1.1807 1.8135 1.1807 1.2116 0 1.8135-1.1807 0.60964-1.1884 0.60964-3.5575 0-2.3768-0.60964-3.5575-0.60193-1.1884-1.8135-1.1884zm0-1.2347q1.937 0 2.9556 1.5357 1.0264 1.528 1.0264 4.445 0 2.9093-1.0264 4.445-1.0186 1.528-2.9556 1.528t-2.9633-1.528q-1.0186-1.5357-1.0186-4.445 0-2.917 1.0186-4.445 1.0264-1.5357 2.9633-1.5357z"/>
  <path id="path125" style="" d="m400.2 228.25h1.6283v1.9601h-1.6283v-1.9601z"/>
  <path id="path127" style="" d="m405.24 228.25h1.6283v1.9601h-1.6283v-1.9601z"/>
  <path id="path129" style="" d="m410.27 228.25h1.6283v1.9601h-1.6283v-1.9601z"/>
 </g>
 <path id="path34" d="m430 124.76c10 0 0 60 10 60" stroke="#000" stroke-width="2" fill="none"/>
 <path id="path36" d="m430 244.76c10 0 0-60 10-60" stroke="#000" stroke-width="2" fill="none"/>
</svg>
