<?xml version="1.0" encoding="UTF-8" standalone="no"?>
<svg id="svg2" xmlns:rdf="http://www.w3.org/1999/02/22-rdf-syntax-ns#" xmlns="http://www.w3.org/2000/svg" viewBox="158 103 192.7146 454.1674" height="22.808cm" width="9.8324cm" version="1.1" xmlns:cc="http://creativecommons.org/ns#" xmlns:dc="http://purl.org/dc/elements/1.1/">
 <metadata id="metadata104">
  <rdf:RDF>
   <cc:Work rdf:about="">
    <dc:format>image/svg+xml</dc:format>
    <dc:type rdf:resource="http://purl.org/dc/dcmitype/StillImage"/>
   </cc:Work>
  </rdf:RDF>
 </metadata>
 <g id="text4">
  <path id="path56" style="" d="m159.23 259.25h1.7815v5.5651l5.909-5.5651h2.293l-6.5352 6.1383 7.0026 7.0291h-2.346l-6.3235-6.3412v6.3412h-1.7815v-13.167z"/>
  <path id="path58" style="" d="m169.97 268.52v-5.9796h1.6228v5.9178q0 1.4023 0.5468 2.1078 0.54681 0.69673 1.6404 0.69673 1.3141 0 2.0726-0.83784 0.76729-0.83785 0.76729-2.2842v-5.6003h1.6228v9.8778h-1.6228v-1.5169q-0.5909 0.89958-1.3758 1.3406-0.77611 0.43215-1.808 0.43215-1.7022 0-2.5841-1.0583-0.88194-1.0583-0.88194-3.0956zm4.0834-6.2177z"/>
  <path id="path60" style="" d="m183.17 270.94v5.2388h-1.6316v-13.635h1.6316v1.4993q0.51153-0.88195 1.2876-1.3053 0.78493-0.43215 1.8697-0.43215 1.7992 0 2.9192 1.4288 1.1289 1.4288 1.1289 3.7571t-1.1289 3.7571q-1.1201 1.4288-2.9192 1.4288-1.0848 0-1.8697-0.42333-0.77611-0.43215-1.2876-1.3141zm5.521-3.4484q0-1.7904-0.74083-2.8046-0.73202-1.0231-2.0196-1.0231t-2.0285 1.0231q-0.73202 1.0142-0.73202 2.8046 0 1.7903 0.73202 2.8134 0.74083 1.0142 2.0285 1.0142 1.2876 0 2.0196-1.0142 0.74083-1.0231 0.74083-2.8134z"/>
  <path id="path63" style="" d="m197.55 267.45q-1.9667 0-2.7252 0.44979-0.75847 0.44979-0.75847 1.5346 0 0.86431 0.56444 1.3758 0.57326 0.50271 1.5522 0.50271 1.3494 0 2.1608-0.9525 0.82021-0.96132 0.82021-2.5488v-0.36159h-1.614zm3.2367-0.67028v5.6356h-1.6228v-1.4993q-0.55563 0.89958-1.3846 1.3317-0.82903 0.42333-2.0285 0.42333-1.517 0-2.4165-0.84666-0.89076-0.85549-0.89076-2.2842 0-1.6669 1.1112-2.5135 1.1201-0.84667 3.3337-0.84667h2.2754v-0.15875q0-1.1201-0.74083-1.7286-0.73202-0.61736-2.0638-0.61736-0.84667 0-1.6492 0.20285-0.80256 0.20284-1.5434 0.60854v-1.4993q0.89077-0.34395 1.7286-0.51152 0.83785-0.17639 1.6316-0.17639 2.1431 0 3.2014 1.1112t1.0583 3.369z"/>
  <path id="path65" style="" d="m211.25 262.92v1.5169q-0.68792-0.37923-1.3846-0.56444-0.68792-0.19403-1.3935-0.19403-1.5787 0-2.4518 1.0054-0.87312 0.99659-0.87312 2.8046t0.87312 2.8134q0.87313 0.99659 2.4518 0.99659 0.70555 0 1.3935-0.18521 0.69673-0.19402 1.3846-0.57326v1.4993q-0.6791 0.3175-1.4111 0.47625-0.72319 0.15875-1.5434 0.15875-2.2313 0-3.5454-1.4023t-1.3141-3.7835q0-2.4165 1.3229-3.8012 1.3317-1.3846 3.6424-1.3846 0.74965 0 1.464 0.15875 0.71437 0.14993 1.3846 0.45861z"/>
 </g>
 <g id="g8" transform="translate(-2.539 -3.8326)">
  <path id="rect10" fill="#fdfd04" d="m160 300h140v40h-140z"/>
  <path id="rect12" d="m160 300h140v40h-140z" stroke="#000" stroke-width="2" fill="none"/>
 </g>
 <g id="g14" transform="translate(-2.539 -3.8326)">
  <path id="rect16" fill="#7babe3" d="m160 180h140v40h-140z"/>
  <path id="rect18" d="m160 180h140v40h-140z" stroke="#000" stroke-width="2" fill="none"/>
 </g>
 <g id="text20">
  <path id="path72" style="" d="m203.18 192.92v1.5169q-0.68791-0.37923-1.3846-0.56444-0.68791-0.19403-1.3935-0.19403-1.5787 0-2.4518 1.0054-0.87313 0.99659-0.87313 2.8046t0.87313 2.8134q0.87312 0.99659 2.4518 0.99659 0.70556 0 1.3935-0.18521 0.69674-0.19402 1.3846-0.57326v1.4993q-0.67909 0.3175-1.4111 0.47625-0.72319 0.15875-1.5434 0.15875-2.2313 0-3.5454-1.4023t-1.3141-3.7835q0-2.4165 1.3229-3.8012 1.3317-1.3846 3.6424-1.3846 0.74965 0 1.464 0.15875 0.71438 0.14993 1.3846 0.45861z"/>
  <path id="path74" style="" d="m214.23 196.46v5.9619h-1.6228v-5.909q0-1.4023-0.54681-2.099-0.5468-0.69673-1.6404-0.69673-1.3141 0-2.0726 0.83784-0.75847 0.83785-0.75847 2.2842v5.5827h-1.6316v-13.723h1.6316v5.3799q0.58208-0.89077 1.367-1.3317 0.79375-0.44097 1.8256-0.44097 1.7022 0 2.5753 1.0583 0.87312 1.0495 0.87312 3.0956z"/>
  <path id="path76" style="" d="m221.98 197.45q-1.9667 0-2.7252 0.44979-0.75847 0.44979-0.75847 1.5346 0 0.86431 0.56444 1.3758 0.57327 0.50271 1.5522 0.50271 1.3494 0 2.1608-0.9525 0.8202-0.96132 0.8202-2.5488v-0.36159h-1.614zm3.2367-0.67028v5.6356h-1.6228v-1.4993q-0.55562 0.89958-1.3846 1.3317-0.82903 0.42333-2.0285 0.42333-1.5169 0-2.4165-0.84666-0.89077-0.85549-0.89077-2.2842 0-1.6669 1.1112-2.5135 1.1201-0.84667 3.3338-0.84667h2.2754v-0.15875q0-1.1201-0.74083-1.7286-0.73201-0.61736-2.0638-0.61736-0.84666 0-1.6492 0.20285-0.80257 0.20284-1.5434 0.60854v-1.4993q0.89076-0.34395 1.7286-0.51152 0.83784-0.17639 1.6316-0.17639 2.1431 0 3.2015 1.1112 1.0583 1.1112 1.0583 3.369z"/>
  <path id="path78" style="" d="m234.29 194.06q-0.27341-0.15875-0.59973-0.22931-0.31749-0.0794-0.70555-0.0794-1.3758 0-2.1167 0.89958-0.73202 0.89076-0.73202 2.5664v5.2035h-1.6316v-9.8778h1.6316v1.5346q0.51153-0.89959 1.3317-1.3317 0.8202-0.44097 1.9932-0.44097 0.16757 0 0.37042 0.0265 0.20284 0.0176 0.44979 0.0617l0.009 1.6669z"/>
  <path id="path80" style="" d="m248.55 191.42-3.1662 1.711 3.1662 1.7198-0.51153 0.8643-2.9633-1.7904v3.3249h-1.0054v-3.3249l-2.9633 1.7904-0.51153-0.8643 3.1662-1.7198-3.1662-1.711 0.51153-0.87313 2.9633 1.7904v-3.3249h1.0054v3.3249l2.9633-1.7904 0.51153 0.87313z"/>
  <path id="path82" style="" d="m252.36 200.94v5.2388h-1.6316v-13.635h1.6316v1.4993q0.51153-0.88195 1.2876-1.3053 0.78493-0.43215 1.8697-0.43215 1.7992 0 2.9192 1.4288 1.1289 1.4288 1.1289 3.7571t-1.1289 3.7571q-1.1201 1.4288-2.9192 1.4288-1.0848 0-1.8697-0.42333-0.77611-0.43215-1.2876-1.3141zm5.521-3.4484q0-1.7904-0.74083-2.8046-0.73202-1.0231-2.0196-1.0231t-2.0285 1.0231q-0.73202 1.0142-0.73202 2.8046 0 1.7903 0.73202 2.8134 0.74083 1.0142 2.0285 1.0142 1.2876 0 2.0196-1.0142 0.74083-1.0231 0.74083-2.8134z"/>
 </g>
 <g id="text24">
  <path id="path85" style="" d="m189.5 316.46v5.9619h-1.6228v-5.909q0-1.4023-0.5468-2.099-0.54681-0.69673-1.6404-0.69673-1.3141 0-2.0726 0.83784-0.75847 0.83785-0.75847 2.2842v5.5827h-1.6316v-13.723h1.6316v5.3799q0.58208-0.89077 1.367-1.3317 0.79375-0.44097 1.8256-0.44097 1.7022 0 2.5753 1.0583 0.87312 1.0495 0.87312 3.0956z"/>
  <path id="path87" style="" d="m201.21 317.07v0.79375h-7.4612q0.10583 1.6757 1.0054 2.5576 0.90841 0.87312 2.5224 0.87312 0.93486 0 1.808-0.2293 0.88194-0.22931 1.7462-0.68792v1.5346q-0.87312 0.37042-1.7903 0.56445-0.91722 0.19402-1.8609 0.19402-2.3636 0-3.7483-1.3758-1.3758-1.3758-1.3758-3.7218 0-2.4253 1.3053-3.8453 1.3141-1.4288 3.5366-1.4288 1.9932 0 3.1485 1.2876 1.1642 1.2788 1.1642 3.4837zm-1.6228-0.47625q-0.0176-1.3317-0.74965-2.1255-0.72319-0.79375-1.9226-0.79375-1.3582 0-2.1784 0.76729-0.81139 0.76729-0.93486 2.1608l5.7855-0.009z"/>
  <path id="path89" style="" d="m203.87 308.69h1.6228v13.723h-1.6228v-13.723z"/>
  <path id="path91" style="" d="m208.88 308.69h1.6228v13.723h-1.6228v-13.723z"/>
  <path id="path93" style="" d="m217.72 313.68q-1.3053 0-2.0638 1.023-0.75847 1.0142-0.75847 2.787 0 1.7727 0.74965 2.7958 0.75847 1.0142 2.0726 1.0142 1.2964 0 2.0549-1.023 0.75847-1.0231 0.75847-2.7869 0-1.7551-0.75847-2.7781-0.75848-1.0319-2.0549-1.0319zm0-1.3758q2.1167 0 3.3249 1.3758 1.2083 1.3758 1.2083 3.81 0 2.4253-1.2083 3.81-1.2083 1.3758-3.3249 1.3758-2.1255 0-3.3338-1.3758-1.1994-1.3846-1.1994-3.81 0-2.4342 1.1994-3.81 1.2083-1.3758 3.3338-1.3758zm1.2259-4.3303h1.7551l-2.8751 3.3161h-1.3494l2.4694-3.3161z"/>
  <path id="path95" style="" d="m224.73 309.25 4.5861 14.843h-1.4993l-4.5861-14.843h1.4993z"/>
  <path id="path97" style="" d="m235.07 310.42q-1.3758 0-2.0726 1.3582-0.68792 1.3494-0.68792 4.0658 0 2.7076 0.68792 4.0658 0.69673 1.3494 2.0726 1.3494 1.3846 0 2.0726-1.3494 0.69674-1.3582 0.69674-4.0658 0-2.7164-0.69674-4.0658-0.68791-1.3582-2.0726-1.3582zm0-1.4111q2.2137 0 3.3778 1.7551 1.173 1.7462 1.173 5.08 0 3.3249-1.173 5.08-1.1642 1.7462-3.3778 1.7462-2.2137 0-3.3867-1.7462-1.1642-1.7551-1.1642-5.08 0-3.3337 1.1642-5.08 1.173-1.7551 3.3867-1.7551z"/>
  <path id="path99" style="" d="m242.76 320.18h1.8609v2.2401h-1.8609v-2.2401z"/>
  <path id="path101" style="" d="m248.51 320.18h1.8609v2.2401h-1.8609v-2.2401z"/>
  <path id="path103" style="" d="m254.26 320.18h1.8609v2.2401h-1.8609v-2.2401z"/>
  <path id="path105" style="" d="m260.01 320.18h1.8609v2.2401h-1.8609v-2.2401z"/>
  <path id="path107" style="" d="m265.76 320.18h1.8609v2.2401h-1.8609v-2.2401z"/>
  <path id="path109" style="" d="m271.51 320.18h1.8609v2.2401h-1.8609v-2.2401z"/>
 </g>
 <g id="g28" transform="translate(-2.539 -3.8326)">
  <path id="path30" d="m300 200c40 0 40 120 9.736 120" stroke="#000" stroke-width="2" fill="none"/>
  <path id="polygon32" d="m312.24 315-2.5 5 2.5 5-10-5z"/>
  <path id="polygon34" d="m312.24 315-2.5 5 2.5 5-10-5z" stroke="#000" stroke-width="2" fill="none"/>
 </g>
 <g id="text36">
  <path id="path114" style="" d="m162.63 116.17-5.03-13.17h1.8609l4.1716 11.086 4.1804-11.086h1.8521l-5.0183 13.167h-2.0196z"/>
  <path id="path116" style="" d="m178.55 110.82v0.79375h-7.4612q0.10583 1.6757 1.0054 2.5576 0.90841 0.87312 2.5224 0.87312 0.93486 0 1.808-0.2293 0.88194-0.22931 1.7462-0.68792v1.5346q-0.87312 0.37042-1.7903 0.56445-0.91722 0.19403-1.8609 0.19403-2.3636 0-3.7483-1.3758-1.3758-1.3758-1.3758-3.7218 0-2.4253 1.3053-3.8453 1.3141-1.4288 3.5366-1.4288 1.9932 0 3.1485 1.2876 1.1642 1.2788 1.1642 3.4837zm-1.6228-0.47624q-0.0176-1.3317-0.74965-2.1255-0.72319-0.79375-1.9226-0.79375-1.3582 0-2.1784 0.76729-0.81139 0.76729-0.93486 2.1608l5.7855-0.009z"/>
  <path id="path118" style="" d="m186.94 107.81q-0.2734-0.15875-0.59972-0.22931-0.3175-0.0794-0.70556-0.0794-1.3758 0-2.1167 0.89958-0.73201 0.89076-0.73201 2.5665v5.2035h-1.6316v-9.8778h1.6316v1.5346q0.51152-0.89958 1.3317-1.3317 0.82021-0.44097 1.9932-0.44097 0.16757 0 0.37042 0.0265 0.20285 0.0176 0.44979 0.0617l0.009 1.6669z"/>
  <path id="path120" style="" d="m196.72 110.82v0.79375h-7.4612q0.10584 1.6757 1.0054 2.5576 0.9084 0.87312 2.5224 0.87312 0.93486 0 1.808-0.2293 0.88194-0.22931 1.7462-0.68792v1.5346q-0.87313 0.37042-1.7904 0.56445-0.91722 0.19403-1.8609 0.19403-2.3636 0-3.7483-1.3758-1.3758-1.3758-1.3758-3.7218 0-2.4253 1.3053-3.8453 1.3141-1.4288 3.5366-1.4288 1.9932 0 3.1485 1.2876 1.1642 1.2788 1.1642 3.4837zm-1.6228-0.47624q-0.0176-1.3317-0.74965-2.1255-0.7232-0.79375-1.9226-0.79375-1.3582 0-2.1784 0.76729-0.81139 0.76729-0.93486 2.1608l5.7856-0.009z"/>
  <path id="path122" style="" d="m207.07 108.19q0.60854-1.0936 1.4552-1.614 0.84666-0.52035 1.9932-0.52035 1.5434 0 2.3812 1.0848 0.83785 1.076 0.83785 3.0692v5.9619h-1.6316v-5.909q0-1.4199-0.50271-2.1078-0.50271-0.68792-1.5346-0.68792-1.2612 0-1.9932 0.83785-0.73201 0.83784-0.73201 2.2842v5.5827h-1.6316v-5.909q0-1.4288-0.50271-2.1078-0.50271-0.68792-1.5522-0.68792-1.2435 0-1.9756 0.84667-0.73201 0.83784-0.73201 2.2754v5.5827h-1.6316v-9.8778h1.6316v1.5346q0.55563-0.9084 1.3317-1.3406 0.77611-0.43215 1.8433-0.43215 1.076 0 1.8256 0.54681 0.75847 0.5468 1.1201 1.5875z"/>
 </g>
 <g id="g40" transform="translate(-2.539 -3.8326)">
  <path id="rect42" fill="#7babe3" d="m160 140h140v40h-140z"/>
  <path id="rect44" d="m160 140h140v40h-140z" stroke="#000" stroke-width="2" fill="none"/>
 </g>
 <g id="text46">
  <path id="path127" style="" d="m206.44 152.54h1.6228v9.8778h-1.6228v-9.8778zm0-3.8453h1.6228v2.0549h-1.6228v-2.0549z"/>
  <path id="path129" style="" d="m219.66 156.46v5.9619h-1.6228v-5.909q0-1.4023-0.54681-2.099-0.5468-0.69673-1.6404-0.69673-1.3141 0-2.0726 0.83784-0.75847 0.83785-0.75847 2.2842v5.5827h-1.6316v-9.8778h1.6316v1.5346q0.58208-0.89077 1.367-1.3317 0.79375-0.44097 1.8256-0.44097 1.7022 0 2.5753 1.0583 0.87312 1.0495 0.87312 3.0956z"/>
  <path id="path131" style="" d="m224.52 149.74v2.8046h3.3426v1.2612h-3.3426v5.3622q0 1.2083 0.32632 1.5522 0.33514 0.34396 1.3494 0.34396h1.6669v1.3582h-1.6669q-1.8785 0-2.5929-0.69674-0.71437-0.70555-0.71437-2.5576v-5.3622h-1.1906v-1.2612h1.1906v-2.8046h1.6316z"/>
  <path id="path133" style="" d="m242.55 151.42-3.1662 1.711 3.1662 1.7198-0.51152 0.8643-2.9633-1.7904v3.3249h-1.0054v-3.3249l-2.9633 1.7904-0.51152-0.8643 3.1662-1.7198-3.1662-1.711 0.51152-0.87313 2.9633 1.7904v-3.3249h1.0054v3.3249l2.9633-1.7904 0.51152 0.87313z"/>
  <path id="path135" style="" d="m246.4 149.74v2.8046h3.3426v1.2612h-3.3426v5.3622q0 1.2083 0.32632 1.5522 0.33513 0.34396 1.3494 0.34396h1.6669v1.3582h-1.6669q-1.8785 0-2.5929-0.69674-0.71438-0.70555-0.71438-2.5576v-5.3622h-1.1906v-1.2612h1.1906v-2.8046h1.6316z"/>
 </g>
 <g id="g50" transform="translate(-2.539 -3.8326)">
  <path id="rect52" fill="#fdfd04" d="m160 340h140v80h-140z"/>
  <path id="rect54" d="m160 340h140v80h-140z" stroke="#000" stroke-width="2" fill="none"/>
 </g>
 <g id="text56">
  <path id="path140" style="" d="m203.16 375.32q1.2788 0.2734 1.9932 1.1377 0.72319 0.86431 0.72319 2.1343 0 1.9491-1.3406 3.0162-1.3406 1.0672-3.81 1.0672-0.82903 0-1.711-0.16757-0.87312-0.15875-1.808-0.48507v-1.7198q0.74083 0.43215 1.6228 0.65263 0.88194 0.22049 1.8433 0.22049 1.6757 0 2.5488-0.66146 0.88194-0.66146 0.88194-1.9226 0-1.1642-0.8202-1.8168-0.81139-0.66146-2.2666-0.66146h-1.5346v-1.464h1.6051q1.3141 0 2.0108-0.52035 0.69673-0.52916 0.69673-1.5169 0-1.0142-0.72319-1.5522-0.71437-0.54681-2.0549-0.54681-0.73201 0-1.5699 0.15875-0.83784 0.15875-1.8433 0.49389v-1.5875q1.0142-0.28222 1.8962-0.42333 0.89076-0.14111 1.6757-0.14111 2.0285 0 3.2103 0.92604 1.1818 0.91722 1.1818 2.4871 0 1.0936-0.62618 1.8521-0.62618 0.74965-1.7815 1.0407z"/>
  <path id="path142" style="" d="m209.45 380.18h1.8609v1.517l-1.4464 2.8222h-1.1377l0.72319-2.8222v-1.517z"/>
  <path id="path144" style="" d="m224.8 375.12q-1.1994 0-1.905 0.8202-0.69674 0.82021-0.69674 2.249 0 1.4199 0.69674 2.249 0.70555 0.8202 1.905 0.8202t1.8962-0.8202q0.70556-0.82903 0.70556-2.249 0-1.4288-0.70556-2.249-0.69673-0.8202-1.8962-0.8202zm3.5366-5.5827v1.6228q-0.67028-0.3175-1.3582-0.48507-0.67909-0.16757-1.3494-0.16757-1.7639 0-2.6988 1.1906-0.92604 1.1906-1.0583 3.5983 0.52035-0.76729 1.3053-1.173 0.78493-0.41451 1.7286-0.41451 1.9844 0 3.1309 1.2083 1.1553 1.1994 1.1553 3.272 0 2.0285-1.1994 3.2544t-3.1926 1.2259q-2.2842 0-3.4925-1.7462-1.2083-1.7551-1.2083-5.08 0-3.1221 1.4817-4.9742 1.4817-1.8609 3.9776-1.8609 0.67027 0 1.3494 0.13229 0.68792 0.13229 1.4288 0.39688z"/>
  <path id="path146" style="" d="m232.45 380.18h1.8609v1.517l-1.4464 2.8222h-1.1377l0.72319-2.8222v-1.517z"/>
  <path id="path148" style="" d="m243.77 380.18h1.8609v2.2401h-1.8609v-2.2401z"/>
  <path id="path150" style="" d="m249.52 380.18h1.8609v2.2401h-1.8609v-2.2401z"/>
  <path id="path152" style="" d="m255.27 380.18h1.8609v2.2401h-1.8609v-2.2401z"/>
 </g>
 <g id="g60" transform="translate(-2.539 -3.8326)">
  <path id="path62" d="m300 160c80 0 60 220 9.736 220" stroke="#000" stroke-width="2" fill="none"/>
  <path id="polygon64" d="m312.24 375-2.5 5 2.5 5-10-5z"/>
  <path id="polygon66" d="m312.24 375-2.5 5 2.5 5-10-5z" stroke="#000" stroke-width="2" fill="none"/>
 </g>
 <g id="g68" transform="translate(-2.539 -3.8326)">
  <path id="rect70" fill="#84fd84" d="m160 500h140v60h-140z"/>
  <path id="rect72" d="m160 500h140v60h-140z" stroke="#000" stroke-width="2" fill="none"/>
 </g>
 <g id="text74">
  <path id="path159" style="" d="m186.48 507.42q-1.1818 2.0285-1.7551 4.0128-0.57327 1.9844-0.57327 4.0217t0.57327 4.0393q0.58208 1.9932 1.7551 4.0128h-1.4111q-1.3229-2.0726-1.9844-4.0746-0.65264-2.002-0.65264-3.9776 0-1.9667 0.65264-3.9599t1.9844-4.0746h1.4111z"/>
  <path id="path161" style="" d="m197.85 515.17v5.9619h-1.6228v-5.909q0-1.4023-0.54681-2.099-0.5468-0.69673-1.6404-0.69673-1.3141 0-2.0726 0.83784-0.75847 0.83785-0.75847 2.2842v5.5827h-1.6316v-9.8778h1.6316v1.5346q0.58208-0.89076 1.367-1.3317 0.79375-0.44097 1.8256-0.44097 1.7022 0 2.5753 1.0583 0.87313 1.0495 0.87313 3.0956z"/>
  <path id="path163" style="" d="m209.55 515.78v0.79375h-7.4612q0.10584 1.6757 1.0054 2.5576 0.9084 0.87312 2.5224 0.87312 0.93486 0 1.808-0.22931 0.88194-0.2293 1.7462-0.68791v1.5346q-0.87313 0.37042-1.7904 0.56444-0.91722 0.19403-1.8609 0.19403-2.3636 0-3.7483-1.3758-1.3758-1.3758-1.3758-3.7218 0-2.4254 1.3053-3.8453 1.3141-1.4288 3.5366-1.4288 1.9932 0 3.1485 1.2876 1.1642 1.2788 1.1642 3.4837zm-1.6228-0.47625q-0.0176-1.3317-0.74965-2.1255-0.7232-0.79375-1.9226-0.79375-1.3582 0-2.1784 0.76729-0.81139 0.76729-0.93486 2.1608l5.7856-0.009zm-1.561-8.6254h1.7551l-2.8751 3.3161h-1.3494l2.4694-3.3161z"/>
  <path id="path165" style="" d="m211.05 511.25h1.7198l3.0868 8.2903 3.0868-8.2903h1.7198l-3.7042 9.8778h-2.2049l-3.7042-9.8778z"/>
  <path id="path167" style="" d="m224.51 508.45v2.8046h3.3426v1.2612h-3.3426v5.3622q0 1.2083 0.32632 1.5522 0.33514 0.34396 1.3494 0.34396h1.6669v1.3582h-1.6669q-1.8785 0-2.5929-0.69674-0.71437-0.70555-0.71437-2.5576v-5.3622h-1.1906v-1.2612h1.1906v-2.8046h1.6316z"/>
  <path id="path169" style="" d="m238.44 515.78v0.79375h-7.4612q0.10583 1.6757 1.0054 2.5576 0.90841 0.87312 2.5224 0.87312 0.93486 0 1.808-0.22931 0.88194-0.2293 1.7462-0.68791v1.5346q-0.87312 0.37042-1.7903 0.56444-0.91722 0.19403-1.8609 0.19403-2.3636 0-3.7483-1.3758-1.3758-1.3758-1.3758-3.7218 0-2.4254 1.3053-3.8453 1.3141-1.4288 3.5366-1.4288 1.9932 0 3.1485 1.2876 1.1642 1.2788 1.1642 3.4837zm-1.6228-0.47625q-0.0176-1.3317-0.74965-2.1255-0.72319-0.79375-1.9226-0.79375-1.3582 0-2.1784 0.76729-0.81138 0.76729-0.93486 2.1608l5.7856-0.009z"/>
  <path id="path171" style="" d="m241.1 507.41h1.6228v13.723h-1.6228v-13.723z"/>
  <path id="path173" style="" d="m254.56 515.78v0.79375h-7.4612q0.10584 1.6757 1.0054 2.5576 0.9084 0.87312 2.5224 0.87312 0.93486 0 1.808-0.22931 0.88194-0.2293 1.7462-0.68791v1.5346q-0.87313 0.37042-1.7904 0.56444-0.91722 0.19403-1.8609 0.19403-2.3636 0-3.7483-1.3758-1.3758-1.3758-1.3758-3.7218 0-2.4254 1.3053-3.8453 1.3141-1.4288 3.5366-1.4288 1.9932 0 3.1485 1.2876 1.1642 1.2788 1.1642 3.4837zm-1.6228-0.47625q-0.0176-1.3317-0.74965-2.1255-0.7232-0.79375-1.9226-0.79375-1.3582 0-2.1784 0.76729-0.81139 0.76729-0.93486 2.1608l5.7856-0.009z"/>
  <path id="path175" style="" d="m265.44 515.17v5.9619h-1.6228v-5.909q0-1.4023-0.5468-2.099-0.54681-0.69673-1.6404-0.69673-1.3141 0-2.0726 0.83784-0.75848 0.83785-0.75848 2.2842v5.5827h-1.6316v-9.8778h1.6316v1.5346q0.58209-0.89076 1.367-1.3317 0.79375-0.44097 1.8256-0.44097 1.7022 0 2.5753 1.0583 0.87313 1.0495 0.87313 3.0956z"/>
  <path id="path177" style="" d="m268.44 507.42h1.4111q1.3229 2.0814 1.9756 4.0746 0.66145 1.9932 0.66145 3.9599 0 1.9756-0.66145 3.9776-0.65264 2.002-1.9756 4.0746h-1.4111q1.173-2.0197 1.7462-4.0128 0.58209-2.002 0.58209-4.0393t-0.58209-4.0217q-0.57326-1.9844-1.7462-4.0128z"/>
  <path id="path179" style="" d="m189.5 537.74v5.9619h-1.6228v-5.909q0-1.4023-0.5468-2.099-0.54681-0.69673-1.6404-0.69673-1.3141 0-2.0726 0.83785-0.75847 0.83784-0.75847 2.2842v5.5827h-1.6316v-13.723h1.6316v5.3799q0.58208-0.89077 1.367-1.3317 0.79375-0.44097 1.8256-0.44097 1.7022 0 2.5753 1.0583 0.87312 1.0495 0.87312 3.0956z"/>
  <path id="path181" style="" d="m201.21 538.36v0.79375h-7.4612q0.10583 1.6757 1.0054 2.5576 0.90841 0.87312 2.5224 0.87312 0.93486 0 1.808-0.2293 0.88194-0.22931 1.7462-0.68792v1.5346q-0.87312 0.37042-1.7903 0.56445-0.91722 0.19402-1.8609 0.19402-2.3636 0-3.7483-1.3758-1.3758-1.3758-1.3758-3.7218 0-2.4253 1.3053-3.8453 1.3141-1.4288 3.5366-1.4288 1.9932 0 3.1485 1.2876 1.1642 1.2788 1.1642 3.4837zm-1.6228-0.47625q-0.0176-1.3317-0.74965-2.1255-0.72319-0.79375-1.9226-0.79375-1.3582 0-2.1784 0.76729-0.81139 0.76729-0.93486 2.1608l5.7855-0.009z"/>
  <path id="path183" style="" d="m203.87 529.98h1.6228v13.723h-1.6228v-13.723z"/>
  <path id="path185" style="" d="m208.88 529.98h1.6228v13.723h-1.6228v-13.723z"/>
  <path id="path187" style="" d="m217.72 534.97q-1.3053 0-2.0638 1.0231-0.75847 1.0142-0.75847 2.7869t0.74965 2.7958q0.75847 1.0142 2.0726 1.0142 1.2964 0 2.0549-1.023 0.75847-1.0231 0.75847-2.7869 0-1.7551-0.75847-2.7781-0.75848-1.0319-2.0549-1.0319zm0-1.3758q2.1167 0 3.3249 1.3758 1.2083 1.3758 1.2083 3.81 0 2.4253-1.2083 3.81-1.2083 1.3758-3.3249 1.3758-2.1255 0-3.3338-1.3758-1.1994-1.3846-1.1994-3.81 0-2.4342 1.1994-3.81 1.2083-1.3758 3.3338-1.3758zm1.2259-4.3303h1.7551l-2.8751 3.3161h-1.3494l2.4694-3.3161z"/>
  <path id="path189" style="" d="m224.73 530.54 4.5861 14.843h-1.4993l-4.5861-14.843h1.4993z"/>
  <path id="path191" style="" d="m235.07 531.71q-1.3758 0-2.0726 1.3582-0.68792 1.3494-0.68792 4.0658 0 2.7076 0.68792 4.0658 0.69673 1.3494 2.0726 1.3494 1.3846 0 2.0726-1.3494 0.69674-1.3582 0.69674-4.0658 0-2.7164-0.69674-4.0658-0.68791-1.3582-2.0726-1.3582zm0-1.4111q2.2137 0 3.3778 1.7551 1.173 1.7462 1.173 5.08 0 3.3249-1.173 5.08-1.1642 1.7462-3.3778 1.7462-2.2137 0-3.3867-1.7462-1.1642-1.7551-1.1642-5.08 0-3.3337 1.1642-5.08 1.173-1.7551 3.3867-1.7551z"/>
  <path id="path193" style="" d="m242.76 541.47h1.8609v2.2401h-1.8609v-2.2401z"/>
  <path id="path195" style="" d="m248.51 541.47h1.8609v2.2401h-1.8609v-2.2401z"/>
  <path id="path197" style="" d="m254.26 541.47h1.8609v2.2401h-1.8609v-2.2401z"/>
  <path id="path199" style="" d="m260.01 541.47h1.8609v2.2401h-1.8609v-2.2401z"/>
  <path id="path201" style="" d="m265.76 541.47h1.8609v2.2401h-1.8609v-2.2401z"/>
  <path id="path203" style="" d="m271.51 541.47h1.8609v2.2401h-1.8609v-2.2401z"/>
 </g>
 <g id="text80">
  <path id="path206" style="" d="m168.21 490.54v-3.5366h-2.9104v-1.464h4.6743v5.6533q-1.0319 0.73201-2.2754 1.1112-1.2435 0.37041-2.6546 0.37041-3.0868 0-4.833-1.7992-1.7374-1.808-1.7374-5.0271 0-3.2279 1.7374-5.0271 1.7462-1.808 4.833-1.808 1.2876 0 2.443 0.3175 1.1642 0.3175 2.1431 0.93486v1.8962q-0.98777-0.83785-2.099-1.2612-1.1112-0.42333-2.3372-0.42333-2.4165 0-3.6336 1.3494-1.2083 1.3494-1.2083 4.0217 0 2.6635 1.2083 4.0128 1.2171 1.3494 3.6336 1.3494 0.94368 0 1.6845-0.15875 0.74083-0.16757 1.3317-0.51153z"/>
  <path id="path208" style="" d="m173.17 478.69h1.6228v13.723h-1.6228v-13.723z"/>
  <path id="path210" style="" d="m182.01 483.68q-1.3053 0-2.0638 1.023-0.75847 1.0142-0.75847 2.787 0 1.7727 0.74965 2.7958 0.75847 1.0142 2.0726 1.0142 1.2965 0 2.0549-1.023 0.75847-1.0231 0.75847-2.7869 0-1.7551-0.75847-2.7781-0.75847-1.0319-2.0549-1.0319zm0-1.3758q2.1167 0 3.3249 1.3758 1.2083 1.3758 1.2083 3.81 0 2.4253-1.2083 3.81-1.2083 1.3758-3.3249 1.3758-2.1255 0-3.3338-1.3758-1.1994-1.3846-1.1994-3.81 0-2.4342 1.1994-3.81 1.2083-1.3758 3.3338-1.3758z"/>
  <path id="path212" style="" d="m196.31 487.49q0-1.7904-0.74083-2.8046-0.73202-1.0231-2.0196-1.0231t-2.0285 1.0231q-0.73202 1.0142-0.73202 2.8046 0 1.7903 0.73202 2.8134 0.74083 1.0142 2.0285 1.0142 1.2876 0 2.0196-1.0142 0.74083-1.0231 0.74083-2.8134zm-5.521-3.4484q0.51153-0.88195 1.2876-1.3053 0.78493-0.43215 1.8697-0.43215 1.7992 0 2.9192 1.4288 1.1289 1.4288 1.1289 3.7571t-1.1289 3.7571q-1.1201 1.4288-2.9192 1.4288-1.0848 0-1.8697-0.42333-0.77611-0.43215-1.2876-1.3141v1.4817h-1.6316v-13.723h1.6316v5.3446z"/>
  <path id="path214" style="" d="m205.17 487.45q-1.9667 0-2.7252 0.44979-0.75847 0.44979-0.75847 1.5346 0 0.86431 0.56444 1.3758 0.57326 0.50271 1.5522 0.50271 1.3494 0 2.1608-0.9525 0.82021-0.96132 0.82021-2.5488v-0.36159h-1.614zm3.2367-0.67028v5.6356h-1.6228v-1.4993q-0.55563 0.89958-1.3846 1.3317-0.82903 0.42333-2.0285 0.42333-1.5169 0-2.4165-0.84666-0.89076-0.85549-0.89076-2.2842 0-1.6669 1.1112-2.5135 1.1201-0.84667 3.3338-0.84667h2.2754v-0.15875q0-1.1201-0.74083-1.7286-0.73202-0.61736-2.0638-0.61736-0.84667 0-1.6492 0.20285-0.80257 0.20284-1.5434 0.60854v-1.4993q0.89077-0.34395 1.7286-0.51152 0.83785-0.17639 1.6316-0.17639 2.1431 0 3.2014 1.1112t1.0583 3.369zm-2.9633-8.8106h1.7551l-2.8751 3.3161h-1.3494l2.4694-3.3161z"/>
  <path id="path216" style="" d="m211.76 478.69h1.6228v13.723h-1.6228v-13.723z"/>
  <path id="path218" style="" d="m216.77 482.54h1.6228v9.8778h-1.6228v-9.8778zm0-3.8453h1.6228v2.0549h-1.6228v-2.0549z"/>
  <path id="path220" style="" d="m228.08 482.83v1.5346q-0.68791-0.35278-1.4288-0.52917-0.74083-0.17639-1.5346-0.17639-1.2083 0-1.8168 0.37042-0.59972 0.37041-0.59972 1.1112 0 0.56444 0.43215 0.89076 0.43215 0.3175 1.7374 0.60854l0.55562 0.12347q1.7286 0.37042 2.4518 1.0495 0.73202 0.67028 0.73202 1.8785 0 1.3758-1.0936 2.1784-1.0848 0.80257-2.9898 0.80257-0.79375 0-1.658-0.15875-0.85549-0.14993-1.808-0.45861v-1.6757q0.89958 0.46743 1.7727 0.70555 0.87312 0.22931 1.7286 0.22931 1.1465 0 1.7639-0.38805 0.61736-0.39688 0.61736-1.1112 0-0.66146-0.44979-1.0142-0.44097-0.35278-1.9491-0.67909l-0.56445-0.1323q-1.5081-0.3175-2.1784-0.97013-0.67027-0.66146-0.67027-1.808 0-1.3935 0.98777-2.1519 0.98778-0.75847 2.8046-0.75847 0.89959 0 1.6933 0.13229 0.79374 0.13229 1.464 0.39687z"/>
 </g>
 <g id="g84" transform="translate(-2.539 -3.8326)">
  <path id="polygon86" fill="#fdfd04" d="m290 290 10-10v20h-140v-20l10 10 10-10 20 10 20-10h10l10-10 10 10 20-10z"/>
  <path id="polygon88" d="m290 290 10-10v20h-140v-20l10 10 10-10 20 10 20-10h10l10-10 10 10 20-10z" stroke="#000" stroke-width="2" fill="none"/>
 </g>
 <g id="g90" transform="translate(-2.539 -3.8326)">
  <path id="polygon92" fill="#fdfd04" d="m280 450 20-10v-20h-140v20l10 10 10-10 20 10 20-20 10 10 10-10 10 20 20-20z"/>
  <path id="polygon94" d="m280 450 20-10v-20h-140v20l10 10 10-10 20 10 20-20 10 10 10-10 10 20 20-20z" stroke="#000" stroke-width="2" fill="none"/>
 </g>
 <path id="line96" d="m157.46 136.17v-20" stroke="#000" stroke-width="2" fill="none"/>
 <path id="line98" d="m297.46 136.17-0.70801-20" stroke="#000" stroke-width="2" fill="none"/>
</svg>
