<?xml version="1.0" encoding="UTF-8" standalone="no"?>
<svg id="svg2" xmlns:rdf="http://www.w3.org/1999/02/22-rdf-syntax-ns#" xmlns="http://www.w3.org/2000/svg" viewBox="338 -2 77.725 97.020002" height="4.9cm" width="3.8862cm" version="1.1" xmlns:cc="http://creativecommons.org/ns#" xmlns:dc="http://purl.org/dc/elements/1.1/">
 <metadata id="metadata68">
  <rdf:RDF>
   <cc:Work rdf:about="">
    <dc:format>image/svg+xml</dc:format>
    <dc:type rdf:resource="http://purl.org/dc/dcmitype/StillImage"/>
   </cc:Work>
  </rdf:RDF>
 </metadata>
 <g id="g4" transform="translate(-1 -1.49)">
  <path id="rect6" fill="#fff" d="m340 0h40v32h-40z"/>
  <path id="rect8" d="m340 0h40v32h-40z" stroke="#000" stroke-width="2" fill="none"/>
 </g>
 <g id="g10" transform="translate(-1 -1.49)">
  <path id="rect12" fill="#fff" d="m340 32h40v32h-40z"/>
  <path id="rect14" d="m340 32h40v32h-40z" stroke="#000" stroke-width="2" fill="none"/>
 </g>
 <g id="g16" transform="translate(-1 -1.49)">
  <path id="rect18" fill="#fff" d="m340 64h40v32h-40z"/>
  <path id="rect20" d="m340 64h40v32h-40z" stroke="#000" stroke-width="2" fill="none"/>
 </g>
 <g id="text22">
  <path id="path44" style="" d="m350.56 40.918h2.8046v0.94589h-1.5875v10.186h1.5875v0.94589h-2.8046v-12.078z"/>
  <path id="path46" style="" d="m356.37 50.086h2.1828v-7.534l-2.3746 0.47625v-1.2171l2.3614-0.47625h1.3362v8.7511h2.1828v1.1245h-5.6886v-1.1245z"/>
  <path id="path48" style="" d="m367.43 40.918v12.078h-2.8046v-0.94589h1.5809v-10.186h-1.5809v-0.94589h2.8046z"/>
 </g>
 <g id="g26" stroke="#000" stroke-width="2" fill="none" transform="translate(-1 -1.49)">
  <path id="line28" d="m380 16h15.528"/>
  <path id="polyline30" d="m390.76 19.5 7-3.5-7-3.5"/>
 </g>
 <g id="g32" stroke="#000" stroke-width="2" fill="none" transform="translate(-1 -1.49)">
  <path id="line34" d="m380 48h15.528"/>
  <path id="polyline36" d="m390.76 51.5 7-3.5-7-3.5"/>
 </g>
 <g id="g38" stroke="#000" stroke-width="2" fill="none" transform="translate(-1 -1.49)">
  <path id="line40" d="m380 80h15.528"/>
  <path id="polyline42" d="m390.76 83.5 7-3.5-7-3.5"/>
 </g>
 <g id="text44">
  <path id="path57" style="" d="m406.26 12.923h1.3188v1.5875h-1.3188v-1.5875z"/>
  <path id="path59" style="" d="m410.33 12.923h1.3188v1.5875h-1.3188v-1.5875z"/>
  <path id="path61" style="" d="m414.41 12.923h1.3188v1.5875h-1.3188v-1.5875z"/>
 </g>
 <g id="text48">
  <path id="path64" style="" d="m406.26 44.923h1.3188v1.5875h-1.3188v-1.5875z"/>
  <path id="path66" style="" d="m410.33 44.923h1.3188v1.5875h-1.3188v-1.5875z"/>
  <path id="path68" style="" d="m414.41 44.923h1.3188v1.5875h-1.3188v-1.5875z"/>
 </g>
 <g id="text52">
  <path id="path71" style="" d="m406.26 76.923h1.3188v1.5875h-1.3188v-1.5875z"/>
  <path id="path73" style="" d="m410.33 76.923h1.3188v1.5875h-1.3188v-1.5875z"/>
  <path id="path75" style="" d="m414.41 76.923h1.3188v1.5875h-1.3188v-1.5875z"/>
 </g>
 <g id="text56">
  <path id="path78" style="" d="m350.56 8.9177h2.8046v0.94589h-1.5875v10.186h1.5875v0.94589h-2.8046v-12.078z"/>
  <path id="path80" style="" d="m358.99 10.214q-1.0319 0-1.5544 1.0186-0.51593 1.012-0.51593 3.0493 0 2.0307 0.51593 3.0493 0.52256 1.012 1.5544 1.012 1.0385 0 1.5544-1.012 0.52255-1.0186 0.52255-3.0493 0-2.0373-0.52255-3.0493-0.51594-1.0186-1.5544-1.0186zm0-1.0583q1.6603 0 2.5334 1.3163 0.87974 1.3097 0.87974 3.81 0 2.4937-0.87974 3.81-0.87313 1.3097-2.5334 1.3097t-2.54-1.3097q-0.87313-1.3163-0.87313-3.81 0-2.5003 0.87313-3.81 0.87974-1.3163 2.54-1.3163z"/>
  <path id="path82" style="" d="m367.43 8.9177v12.078h-2.8046v-0.94589h1.5809v-10.186h-1.5809v-0.94589h2.8046z"/>
 </g>
 <g id="text60">
  <path id="path85" style="" d="m350.56 72.918h2.8046v0.94589h-1.5875v10.186h1.5875v0.94589h-2.8046v-12.078z"/>
  <path id="path87" style="" d="m357.29 82.086h4.6633v1.1245h-6.2706v-1.1245q0.76068-0.78714 2.0704-2.1101 1.3163-1.3295 1.6536-1.7132 0.64162-0.72099 0.89297-1.2171 0.25797-0.50271 0.25797-0.98558 0-0.78714-0.55563-1.2832-0.54901-0.4961-1.4354-0.4961-0.62839 0-1.3295 0.21828-0.69453 0.21828-1.4883 0.66146v-1.3494q0.80698-0.32412 1.5081-0.48948 0.70114-0.16536 1.2832-0.16536 1.5346 0 2.4474 0.76729 0.91281 0.76729 0.91281 2.0505 0 0.60854-0.23151 1.1576-0.22489 0.5424-0.82682 1.2832-0.16537 0.19182-1.0517 1.1113-0.88636 0.91282-2.5003 2.5598z"/>
  <path id="path89" style="" d="m367.43 72.918v12.078h-2.8046v-0.94589h1.5809v-10.186h-1.5809v-0.94589h2.8046z"/>
 </g>
</svg>
