<?xml version="1.0" encoding="UTF-8" standalone="no"?>
<svg id="svg2" xmlns:rdf="http://www.w3.org/1999/02/22-rdf-syntax-ns#" xmlns="http://www.w3.org/2000/svg" viewBox="278 79 442.00001 147.62968" height="7.77cm" width="22.948cm" version="1.1" xmlns:cc="http://creativecommons.org/ns#" xmlns:dc="http://purl.org/dc/elements/1.1/">
 <metadata id="metadata42">
  <rdf:RDF>
   <cc:Work rdf:about="">
    <dc:format>image/svg+xml</dc:format>
    <dc:type rdf:resource="http://purl.org/dc/dcmitype/StillImage"/>
   </cc:Work>
  </rdf:RDF>
 </metadata>
 <g id="g4" transform="translate(-1 -3.8172)">
  <path id="rect6" fill="#84fd84" d="m280 100h100v120h-100z"/>
  <path id="rect8" d="m280 100h100v120h-100z" stroke="#000" stroke-width="2" fill="none"/>
 </g>
 <g id="text10">
  <path id="path27" style="" d="m289.75 90.554v-3.5366h-2.9104v-1.464h4.6743v5.6533q-1.0319 0.73201-2.2754 1.1112-1.2435 0.37042-2.6546 0.37042-3.0868 0-4.833-1.7992-1.7374-1.808-1.7374-5.0271 0-3.2279 1.7374-5.0271 1.7462-1.808 4.833-1.808 1.2876 0 2.443 0.3175 1.1642 0.3175 2.1431 0.93486v1.8962q-0.98778-0.83785-2.099-1.2612-1.1112-0.42333-2.3372-0.42333-2.4165 0-3.6336 1.3494-1.2083 1.3494-1.2083 4.0217 0 2.6635 1.2083 4.0128 1.2171 1.3494 3.6336 1.3494 0.94368 0 1.6845-0.15875 0.74083-0.16757 1.3317-0.51153z"/>
  <path id="path29" style="" d="m294.71 78.71h1.6228v13.723h-1.6228v-13.723z"/>
  <path id="path31" style="" d="m303.54 83.693q-1.3053 0-2.0637 1.0231-0.75847 1.0142-0.75847 2.7869t0.74965 2.7958q0.75847 1.0142 2.0726 1.0142 1.2965 0 2.0549-1.0231 0.75847-1.0231 0.75847-2.7869 0-1.7551-0.75847-2.7781-0.75847-1.0319-2.0549-1.0319zm0-1.3758q2.1167 0 3.3249 1.3758 1.2083 1.3758 1.2083 3.81 0 2.4253-1.2083 3.81-1.2083 1.3758-3.3249 1.3758-2.1255 0-3.3337-1.3758-1.1994-1.3847-1.1994-3.81 0-2.4342 1.1994-3.81 1.2083-1.3758 3.3337-1.3758z"/>
  <path id="path33" style="" d="m317.85 87.503q0-1.7903-0.74084-2.8046-0.73201-1.0231-2.0196-1.0231t-2.0285 1.0231q-0.73201 1.0142-0.73201 2.8046 0 1.7903 0.73201 2.8134 0.74084 1.0142 2.0285 1.0142 1.2876 0 2.0196-1.0142 0.74084-1.0231 0.74084-2.8134zm-5.52-3.449q0.51153-0.88194 1.2876-1.3053 0.78493-0.43215 1.8697-0.43215 1.7992 0 2.9192 1.4287 1.1289 1.4287 1.1289 3.7571 0 2.3283-1.1289 3.7571-1.1201 1.4287-2.9192 1.4287-1.0848 0-1.8697-0.42333-0.77611-0.43215-1.2876-1.3141v1.4817h-1.6316v-13.723h1.6316v5.3446z"/>
  <path id="path35" style="" d="m326.71 87.467q-1.9667 0-2.7252 0.44979-0.75847 0.44979-0.75847 1.5346 0 0.8643 0.56445 1.3758 0.57326 0.50271 1.5522 0.50271 1.3494 0 2.1608-0.9525 0.82021-0.96132 0.82021-2.5488v-0.3616h-1.614zm3.2367-0.67028v5.6356h-1.6228v-1.4993q-0.55563 0.89958-1.3847 1.3317-0.82902 0.42333-2.0285 0.42333-1.5169 0-2.4165-0.84667-0.89076-0.85548-0.89076-2.2842 0-1.6669 1.1112-2.5135 1.1201-0.84667 3.3337-0.84667h2.2754v-0.15875q0-1.1201-0.74084-1.7286-0.73201-0.61736-2.0637-0.61736-0.84667 0-1.6492 0.20285-0.80257 0.20285-1.5434 0.60854v-1.4993q0.89076-0.34396 1.7286-0.51153 0.83785-0.17639 1.6316-0.17639 2.1431 0 3.2015 1.1112 1.0583 1.1112 1.0583 3.369zm-2.9633-8.8106h1.7551l-2.8751 3.3161h-1.3494l2.4694-3.3161z"/>
  <path id="path37" style="" d="m333.3 78.71h1.6228v13.723h-1.6228v-13.723z"/>
  <path id="path39" style="" d="m338.31 82.555h1.6228v9.8778h-1.6228v-9.8778zm0-3.8453h1.6228v2.0549h-1.6228v-2.0549z"/>
  <path id="path41" style="" d="m349.62 82.846v1.5346q-0.68792-0.35278-1.4288-0.52917-0.74083-0.17639-1.5346-0.17639-1.2083 0-1.8168 0.37042-0.59972 0.37042-0.59972 1.1112 0 0.56444 0.43216 0.89076 0.43215 0.3175 1.7374 0.60854l0.55563 0.12347q1.7286 0.37042 2.4518 1.0495 0.73201 0.67028 0.73201 1.8785 0 1.3758-1.0936 2.1784-1.0848 0.80257-2.9898 0.80257-0.79375 0-1.6581-0.15875-0.85548-0.14993-1.808-0.45861v-1.6757q0.89958 0.46743 1.7727 0.70556 0.87313 0.2293 1.7286 0.2293 1.1465 0 1.7639-0.38806 0.61736-0.39688 0.61736-1.1112 0-0.66146-0.44979-1.0142-0.44097-0.35278-1.9491-0.6791l-0.56444-0.13229q-1.5081-0.3175-2.1784-0.97014-0.67028-0.66146-0.67028-1.808 0-1.3935 0.98778-2.1519 0.98778-0.75847 2.8046-0.75847 0.89958 0 1.6933 0.13229 0.79375 0.13229 1.464 0.39688z"/>
 </g>
 <g id="text14">
  <path id="path44" style="" d="m464.17 92.433-5.0271-13.167h1.8609l4.1716 11.086 4.1804-11.086h1.8521l-5.0183 13.167h-2.0196z"/>
  <path id="path46" style="" d="m480.09 87.088v0.79375h-7.4612q0.10583 1.6757 1.0054 2.5576 0.9084 0.87312 2.5224 0.87312 0.93486 0 1.808-0.2293 0.88195-0.22931 1.7462-0.68792v1.5346q-0.87312 0.37042-1.7903 0.56444-0.91723 0.19403-1.8609 0.19403-2.3636 0-3.7483-1.3758-1.3758-1.3758-1.3758-3.7218 0-2.4253 1.3053-3.8453 1.3141-1.4287 3.5366-1.4287 1.9932 0 3.1485 1.2876 1.1642 1.2788 1.1642 3.4837zm-1.6228-0.47625q-0.0176-1.3317-0.74965-2.1255-0.72319-0.79375-1.9226-0.79375-1.3582 0-2.1784 0.76729-0.81139 0.76729-0.93486 2.1608l5.7856-0.0088z"/>
  <path id="path48" style="" d="m488.47 84.072q-0.27341-0.15875-0.59972-0.2293-0.3175-0.07937-0.70556-0.07937-1.3758 0-2.1167 0.89958-0.73202 0.89076-0.73202 2.5665v5.2035h-1.6316v-9.8778h1.6316v1.5346q0.51153-0.89958 1.3317-1.3317 0.82021-0.44097 1.9932-0.44097 0.16757 0 0.37042 0.02646 0.20284 0.01764 0.44979 0.06174l0.009 1.6669z"/>
  <path id="path50" style="" d="m498.26 87.088v0.79375h-7.4612q0.10583 1.6757 1.0054 2.5576 0.90841 0.87312 2.5224 0.87312 0.93486 0 1.808-0.2293 0.88194-0.22931 1.7462-0.68792v1.5346q-0.87312 0.37042-1.7903 0.56444-0.91722 0.19403-1.8609 0.19403-2.3636 0-3.7483-1.3758-1.3758-1.3758-1.3758-3.7218 0-2.4253 1.3053-3.8453 1.3141-1.4287 3.5366-1.4287 1.9932 0 3.1485 1.2876 1.1642 1.2788 1.1642 3.4837zm-1.6228-0.47625q-0.0176-1.3317-0.74965-2.1255-0.72319-0.79375-1.9226-0.79375-1.3582 0-2.1784 0.76729-0.81139 0.76729-0.93486 2.1608l5.7855-0.0088z"/>
  <path id="path52" style="" d="m508.61 84.451q0.60855-1.0936 1.4552-1.614 0.84667-0.52035 1.9932-0.52035 1.5434 0 2.3812 1.0848 0.83785 1.076 0.83785 3.0692v5.9619h-1.6316v-5.909q0-1.4199-0.50271-2.1078-0.5027-0.68792-1.5346-0.68792-1.2612 0-1.9932 0.83785-0.73201 0.83785-0.73201 2.2842v5.5827h-1.6316v-5.909q0-1.4287-0.50271-2.1078-0.5027-0.68792-1.5522-0.68792-1.2435 0-1.9756 0.84667-0.73201 0.83785-0.73201 2.2754v5.5827h-1.6316v-9.8778h1.6316v1.5346q0.55562-0.9084 1.3317-1.3406 0.77611-0.43215 1.8433-0.43215 1.076 0 1.8256 0.5468 0.75847 0.5468 1.1201 1.5875z"/>
 </g>
 <g id="text18">
  <path id="path55" style="" d="m620.77 79.265h1.7815v5.5651l5.909-5.5651h2.2931l-6.5352 6.1383 7.0026 7.0291h-2.346l-6.3235-6.3412v6.3412h-1.7815v-13.167z"/>
  <path id="path57" style="" d="m631.51 88.535v-5.9796h1.6228v5.9178q0 1.4023 0.54681 2.1078 0.5468 0.69674 1.6404 0.69674 1.3141 0 2.0726-0.83785 0.76729-0.83785 0.76729-2.2842v-5.6003h1.6228v9.8778h-1.6228v-1.5169q-0.5909 0.89958-1.3758 1.3406-0.77611 0.43215-1.808 0.43215-1.7022 0-2.5841-1.0583-0.88194-1.0583-0.88194-3.0956zm4.0834-6.2177z"/>
  <path id="path59" style="" d="m644.71 90.951v5.2387h-1.6316v-13.635h1.6316v1.4993q0.51153-0.88194 1.2876-1.3053 0.78493-0.43215 1.8697-0.43215 1.7992 0 2.9192 1.4287 1.1289 1.4287 1.1289 3.7571 0 2.3283-1.1289 3.7571-1.1201 1.4287-2.9192 1.4287-1.0848 0-1.8697-0.42333-0.77611-0.43215-1.2876-1.3141zm5.521-3.4484q0-1.7903-0.74084-2.8046-0.73201-1.0231-2.0196-1.0231t-2.0285 1.0231q-0.73201 1.0142-0.73201 2.8046 0 1.7903 0.73201 2.8134 0.74084 1.0142 2.0285 1.0142 1.2876 0 2.0196-1.0142 0.74084-1.0231 0.74084-2.8134z"/>
  <path id="path61" style="" d="m659.09 87.467q-1.9667 0-2.7252 0.44979-0.75847 0.44979-0.75847 1.5346 0 0.8643 0.56445 1.3758 0.57326 0.50271 1.5522 0.50271 1.3494 0 2.1608-0.9525 0.8202-0.96132 0.8202-2.5488v-0.3616h-1.614zm3.2367-0.67028v5.6356h-1.6228v-1.4993q-0.55562 0.89958-1.3846 1.3317-0.82902 0.42333-2.0285 0.42333-1.5169 0-2.4165-0.84667-0.89076-0.85548-0.89076-2.2842 0-1.6669 1.1112-2.5135 1.1201-0.84667 3.3338-0.84667h2.2754v-0.15875q0-1.1201-0.74083-1.7286-0.73201-0.61736-2.0638-0.61736-0.84666 0-1.6492 0.20285-0.80257 0.20285-1.5434 0.60854v-1.4993q0.89076-0.34396 1.7286-0.51153 0.83784-0.17639 1.6316-0.17639 2.1431 0 3.2015 1.1112 1.0583 1.1112 1.0583 3.369z"/>
  <path id="path63" style="" d="m672.79 82.934v1.5169q-0.68792-0.37924-1.3847-0.56444-0.68791-0.19403-1.3935-0.19403-1.5787 0-2.4518 1.0054-0.87312 0.9966-0.87312 2.8046t0.87312 2.8134q0.87312 0.9966 2.4518 0.9966 0.70556 0 1.3935-0.18521 0.69674-0.19403 1.3847-0.57326v1.4993q-0.6791 0.3175-1.4111 0.47625-0.7232 0.15875-1.5434 0.15875-2.2313 0-3.5454-1.4023t-1.3141-3.7835q0-2.4165 1.3229-3.8012 1.3317-1.3847 3.6424-1.3847 0.74965 0 1.464 0.15875 0.71438 0.14993 1.3847 0.45861z"/>
 </g>
 <g id="g22" transform="translate(-1 -3.8172)">
  <path id="polygon24" fill="#fdfd04" d="m720 220-10 10-20-20-10 10-10-10-30 20-10-20-10 10v-120l10 10 10-10 10 10 20-10 10 10 20-20 10 20 10-10z"/>
  <path id="polygon26" d="m720 220-10 10-20-20-10 10-10-10-30 20-10-20-10 10v-120l10 10 10-10 10 10 20-10 10 10 20-20 10 20 10-10z" stroke="#000" stroke-width="2" fill="none"/>
 </g>
 <g id="g28" transform="translate(-1 -3.8172)">
  <path id="rect30" fill="#7babe3" d="m460 130h100v90h-100z"/>
  <path id="rect32" d="m460 130h100v90h-100z" stroke="#000" stroke-width="2" fill="none"/>
 </g>
 <path id="line34" d="m459 126.18v-30" stroke="#000" stroke-width="2" fill="none"/>
 <path id="line36" d="m559 126.18v-30" stroke="#000" stroke-width="2" fill="none"/>
</svg>
