<?xml version="1.0" encoding="UTF-8"?>
<svg id="svg67" width="21cm" height="6.3731cm" version="1.1" viewBox="199 99 402 111.99" xmlns="http://www.w3.org/2000/svg" xmlns:cc="http://creativecommons.org/ns#" xmlns:dc="http://purl.org/dc/elements/1.1/" xmlns:rdf="http://www.w3.org/1999/02/22-rdf-syntax-ns#">
 <metadata id="metadata71">
  <rdf:RDF>
   <cc:Work rdf:about="">
    <dc:format>image/svg+xml</dc:format>
    <dc:type rdf:resource="http://purl.org/dc/dcmitype/StillImage"/>
   </cc:Work>
  </rdf:RDF>
 </metadata>
 <g id="Háttér" transform="translate(0 -5.0075)" stroke="#000" stroke-width="2">
  <path id="rect4" d="m200 100h40v40h-40z" fill="#7babe3"/>
  <path id="rect6" d="m280 100h40v40h-40z" fill="#ffff04"/>
  <path id="rect8" d="m280 140h40v40h-40z" fill="#ffff04"/>
  <path id="rect10" d="m280 180h40v40h-40z" fill="#ffff04"/>
  <g id="g16">
   <path id="line12" d="m240 120h30.264" fill="none"/>
   <path id="polygon14" d="m270.26 120-2.5-5 10 5-10 5z" fill-rule="evenodd"/>
  </g>
  <g id="g22">
   <path id="line18" d="m320 120h30.264" fill="none"/>
   <path id="polygon20" d="m350.26 120-2.5-5 10 5-10 5z" fill-rule="evenodd"/>
  </g>
  <g id="g28">
   <path id="path24" d="m320 200h190.26" fill="none"/>
   <path id="polygon26" d="m510.26 200-2.5-5 10 5-10 5z" fill-rule="evenodd"/>
  </g>
  <g id="g38" fill="#ffff04">
   <path id="rect30" d="m360 100h20v40h-20z"/>
   <path id="rect32" d="m380 100h20v40h-20z"/>
   <path id="rect34" d="m400 100h20v40h-20z"/>
   <path id="rect36" d="m420 100h20v40h-20z"/>
  </g>
  <g id="g48" fill="#cccc7a">
   <path id="rect40" d="m460 140h20v40h-20z"/>
   <path id="rect42" d="m440 140h20v40h-20z"/>
   <path id="rect44" d="m480 140h20v40h-20z"/>
   <path id="rect46" d="m500 140h20v40h-20z"/>
  </g>
  <g id="g58" fill="#ffff04">
   <path id="rect50" d="m520 180h20v40h-20z"/>
   <path id="rect52" d="m540 180h20v40h-20z"/>
   <path id="rect54" d="m560 180h20v40h-20z"/>
   <path id="rect56" d="m580 180h20v40h-20z"/>
  </g>
  <g id="g64">
   <path id="path60" d="m320 160h110.26" fill="none"/>
   <path id="polygon62" d="m430.26 160-2.5-5 10 5-10 5z" fill-rule="evenodd"/>
  </g>
 </g>
</svg>
