<?xml version="1.0" encoding="UTF-8" standalone="no"?>
<!DOCTYPE svg PUBLIC "-//W3C//DTD SVG 1.1//EN"
 "http://www.w3.org/Graphics/SVG/1.1/DTD/svg11.dtd">
<!-- Generated by graphviz version 2.38.0 (20140413.2041)
 -->
<!-- Title: %3 Pages: 1 -->
<svg width="902pt" height="260pt"
 viewBox="0.00 0.00 902.00 260.00" xmlns="http://www.w3.org/2000/svg" xmlns:xlink="http://www.w3.org/1999/xlink">
<g id="graph0" class="graph" transform="scale(1 1) rotate(0) translate(4 256)">
<title>%3</title>
<polygon fill="white" stroke="none" points="-4,4 -4,-256 898,-256 898,4 -4,4"/>
<!-- malloc -->
<g id="node1" class="node"><title>malloc</title>
<ellipse fill="#eeeeee" stroke="black" cx="333.5" cy="-126" rx="35.194" ry="18"/>
<text text-anchor="middle" x="333.5" y="-122.3" font-family="Times,serif" font-size="14.00">malloc</text>
</g>
<!-- free -->
<g id="node2" class="node"><title>free</title>
<ellipse fill="#eeeeee" stroke="black" cx="333.5" cy="-180" rx="27" ry="18"/>
<text text-anchor="middle" x="333.5" y="-176.3" font-family="Times,serif" font-size="14.00">free</text>
</g>
<!-- szam -->
<g id="node3" class="node"><title>szam</title>
<polygon fill="#8dd3c7" stroke="black" points="888.5,-105 834.5,-105 834.5,-69 888.5,-69 888.5,-105"/>
<text text-anchor="middle" x="861.5" y="-83.3" font-family="Times,serif" font-size="14.00">szam</text>
</g>
<!-- cellacim -->
<g id="node4" class="node"><title>cellacim</title>
<polygon fill="#8dd3c7" stroke="black" points="893,-51 830,-51 830,-15 893,-15 893,-51"/>
<text text-anchor="middle" x="861.5" y="-29.3" font-family="Times,serif" font-size="14.00">cellacim</text>
</g>
<!-- osszeg -->
<g id="node5" class="node"><title>osszeg</title>
<polygon fill="#8dd3c7" stroke="black" points="607,-113 553,-113 553,-77 607,-77 607,-113"/>
<text text-anchor="middle" x="580" y="-91.3" font-family="Times,serif" font-size="14.00">osszeg</text>
</g>
<!-- szorzat -->
<g id="node6" class="node"><title>szorzat</title>
<polygon fill="#8dd3c7" stroke="black" points="698,-113 643,-113 643,-77 698,-77 698,-113"/>
<text text-anchor="middle" x="670.5" y="-91.3" font-family="Times,serif" font-size="14.00">szorzat</text>
</g>
<!-- osszeg&#45;&gt;szorzat -->
<g id="edge1" class="edge"><title>osszeg&#45;&gt;szorzat</title>
<path fill="none" stroke="black" d="M607.074,-95C615.121,-95 624.139,-95 632.765,-95"/>
<polygon fill="black" stroke="black" points="633,-98.5001 643,-95 633,-91.5001 633,-98.5001"/>
</g>
<!-- tenyezo -->
<g id="node7" class="node"><title>tenyezo</title>
<polygon fill="#8dd3c7" stroke="black" points="793,-105 734,-105 734,-69 793,-69 793,-105"/>
<text text-anchor="middle" x="763.5" y="-83.3" font-family="Times,serif" font-size="14.00">tenyezo</text>
</g>
<!-- szorzat&#45;&gt;tenyezo -->
<g id="edge2" class="edge"><title>szorzat&#45;&gt;tenyezo</title>
<path fill="none" stroke="black" d="M698.311,-92.643C706.287,-91.9418 715.191,-91.159 723.767,-90.4051"/>
<polygon fill="black" stroke="black" points="724.325,-93.8696 733.98,-89.5072 723.712,-86.8965 724.325,-93.8696"/>
</g>
<!-- tenyezo&#45;&gt;szam -->
<g id="edge4" class="edge"><title>tenyezo&#45;&gt;szam</title>
<path fill="none" stroke="black" d="M793.043,-87C802.724,-87 813.676,-87 823.896,-87"/>
<polygon fill="black" stroke="black" points="824.198,-90.5001 834.198,-87 824.198,-83.5001 824.198,-90.5001"/>
</g>
<!-- tenyezo&#45;&gt;cellacim -->
<g id="edge5" class="edge"><title>tenyezo&#45;&gt;cellacim</title>
<path fill="none" stroke="black" d="M793.043,-70.9444C801.839,-65.9969 811.684,-60.4591 821.076,-55.176"/>
<polygon fill="black" stroke="black" points="822.893,-58.1696 829.893,-50.2164 819.461,-52.0686 822.893,-58.1696"/>
</g>
<!-- zarojeles -->
<g id="node8" class="node"><title>zarojeles</title>
<polygon fill="#8dd3c7" stroke="black" points="894,-159 829,-159 829,-123 894,-123 894,-159"/>
<text text-anchor="middle" x="861.5" y="-137.3" font-family="Times,serif" font-size="14.00">zarojeles</text>
</g>
<!-- tenyezo&#45;&gt;zarojeles -->
<g id="edge3" class="edge"><title>tenyezo&#45;&gt;zarojeles</title>
<path fill="none" stroke="black" d="M793.043,-103.056C801.5,-107.812 810.926,-113.114 819.987,-118.211"/>
<polygon fill="black" stroke="black" points="818.445,-121.36 828.877,-123.212 821.877,-115.259 818.445,-121.36"/>
</g>
<!-- cella_kiszamol -->
<g id="node12" class="node"><title>cella_kiszamol</title>
<polygon fill="#bebada" stroke="black" points="382.5,-90 284.5,-90 284.5,-54 382.5,-54 382.5,-90"/>
<text text-anchor="middle" x="333.5" y="-68.3" font-family="Times,serif" font-size="14.00">cella_kiszamol</text>
</g>
<!-- tenyezo&#45;&gt;cella_kiszamol -->
<g id="edge6" class="edge"><title>tenyezo&#45;&gt;cella_kiszamol</title>
<path fill="none" stroke="black" d="M733.995,-76.6923C722.914,-73.1937 710.016,-69.733 698,-68 591.28,-52.6085 465.106,-59.5423 392.976,-65.858"/>
<polygon fill="black" stroke="black" points="392.379,-62.3975 382.734,-66.7826 393.009,-69.3691 392.379,-62.3975"/>
</g>
<!-- zarojeles&#45;&gt;osszeg -->
<g id="edge7" class="edge"><title>zarojeles&#45;&gt;osszeg</title>
<path fill="none" stroke="black" d="M828.996,-141.408C786.212,-141.252 707.655,-138.435 643,-122 634.154,-119.751 624.963,-116.379 616.453,-112.772"/>
<polygon fill="black" stroke="black" points="617.746,-109.517 607.187,-108.647 614.9,-115.912 617.746,-109.517"/>
</g>
<!-- kiertekel -->
<g id="node9" class="node"><title>kiertekel</title>
<polygon fill="#8dd3c7" stroke="black" points="517,-113 453,-113 453,-77 517,-77 517,-113"/>
<text text-anchor="middle" x="485" y="-91.3" font-family="Times,serif" font-size="14.00">kiertekel</text>
</g>
<!-- kiertekel&#45;&gt;osszeg -->
<g id="edge8" class="edge"><title>kiertekel&#45;&gt;osszeg</title>
<path fill="none" stroke="black" d="M517.226,-95C525.48,-95 534.455,-95 542.941,-95"/>
<polygon fill="black" stroke="black" points="542.969,-98.5001 552.969,-95 542.969,-91.5001 542.969,-98.5001"/>
</g>
<!-- main -->
<g id="node10" class="node"><title>main</title>
<polygon fill="#ffffb3" stroke="black" points="54,-144 0,-144 0,-108 54,-108 54,-144"/>
<text text-anchor="middle" x="27" y="-122.3" font-family="Times,serif" font-size="14.00">main</text>
</g>
<!-- sorveg_kivesz -->
<g id="node11" class="node"><title>sorveg_kivesz</title>
<polygon fill="#ffffb3" stroke="black" points="199,-90 105,-90 105,-54 199,-54 199,-90"/>
<text text-anchor="middle" x="152" y="-68.3" font-family="Times,serif" font-size="14.00">sorveg_kivesz</text>
</g>
<!-- main&#45;&gt;sorveg_kivesz -->
<g id="edge11" class="edge"><title>main&#45;&gt;sorveg_kivesz</title>
<path fill="none" stroke="black" d="M54.0851,-114.548C67.6434,-108.596 84.6853,-101.114 100.683,-94.0906"/>
<polygon fill="black" stroke="black" points="102.197,-97.2482 109.947,-90.0234 99.3832,-90.8386 102.197,-97.2482"/>
</g>
<!-- cella_modosit -->
<g id="node13" class="node"><title>cella_modosit</title>
<polygon fill="#bebada" stroke="black" points="198.5,-144 105.5,-144 105.5,-108 198.5,-108 198.5,-144"/>
<text text-anchor="middle" x="152" y="-122.3" font-family="Times,serif" font-size="14.00">cella_modosit</text>
</g>
<!-- main&#45;&gt;cella_modosit -->
<g id="edge12" class="edge"><title>main&#45;&gt;cella_modosit</title>
<path fill="none" stroke="black" d="M54.0851,-126C66.0017,-126 80.6092,-126 94.8334,-126"/>
<polygon fill="black" stroke="black" points="95.0791,-129.5 105.079,-126 95.0791,-122.5 95.0791,-129.5"/>
</g>
<!-- tablazat_uj -->
<g id="node14" class="node"><title>tablazat_uj</title>
<polygon fill="#bebada" stroke="black" points="190,-198 114,-198 114,-162 190,-162 190,-198"/>
<text text-anchor="middle" x="152" y="-176.3" font-family="Times,serif" font-size="14.00">tablazat_uj</text>
</g>
<!-- main&#45;&gt;tablazat_uj -->
<g id="edge9" class="edge"><title>main&#45;&gt;tablazat_uj</title>
<path fill="none" stroke="black" d="M54.0851,-137.452C68.7222,-143.878 87.4191,-152.086 104.479,-159.576"/>
<polygon fill="black" stroke="black" points="103.188,-162.832 113.752,-163.647 106.002,-156.422 103.188,-162.832"/>
</g>
<!-- tablazat_felszabadit -->
<g id="node15" class="node"><title>tablazat_felszabadit</title>
<polygon fill="#bebada" stroke="black" points="214,-252 90,-252 90,-216 214,-216 214,-252"/>
<text text-anchor="middle" x="152" y="-230.3" font-family="Times,serif" font-size="14.00">tablazat_felszabadit</text>
</g>
<!-- main&#45;&gt;tablazat_felszabadit -->
<g id="edge13" class="edge"><title>main&#45;&gt;tablazat_felszabadit</title>
<path fill="none" stroke="black" d="M38.2261,-144.233C49.086,-162.211 67.7397,-189.469 90,-207 91.5695,-208.236 93.2044,-209.428 94.8889,-210.576"/>
<polygon fill="black" stroke="black" points="93.2967,-213.706 103.65,-215.956 96.9596,-207.741 93.2967,-213.706"/>
</g>
<!-- tablazat_kiir -->
<g id="node16" class="node"><title>tablazat_kiir</title>
<polygon fill="#bebada" stroke="black" points="194,-36 110,-36 110,-0 194,-0 194,-36"/>
<text text-anchor="middle" x="152" y="-14.3" font-family="Times,serif" font-size="14.00">tablazat_kiir</text>
</g>
<!-- main&#45;&gt;tablazat_kiir -->
<g id="edge10" class="edge"><title>main&#45;&gt;tablazat_kiir</title>
<path fill="none" stroke="black" d="M38.2261,-107.767C49.086,-89.7888 67.7397,-62.5309 90,-45 93.3778,-42.3398 97.0588,-39.8834 100.884,-37.6275"/>
<polygon fill="black" stroke="black" points="102.847,-40.5457 109.996,-32.7264 99.5315,-34.3809 102.847,-40.5457"/>
</g>
<!-- cella_kiszamol&#45;&gt;kiertekel -->
<g id="edge14" class="edge"><title>cella_kiszamol&#45;&gt;kiertekel</title>
<path fill="none" stroke="black" d="M382.626,-79.4039C402.071,-82.3956 424.282,-85.8127 442.948,-88.6843"/>
<polygon fill="black" stroke="black" points="442.497,-92.156 452.913,-90.2174 443.561,-85.2374 442.497,-92.156"/>
</g>
<!-- cella_modosit&#45;&gt;malloc -->
<g id="edge15" class="edge"><title>cella_modosit&#45;&gt;malloc</title>
<path fill="none" stroke="black" d="M198.76,-126C226.207,-126 260.946,-126 288.139,-126"/>
<polygon fill="black" stroke="black" points="288.161,-129.5 298.161,-126 288.161,-122.5 288.161,-129.5"/>
</g>
<!-- cella_modosit&#45;&gt;free -->
<g id="edge18" class="edge"><title>cella_modosit&#45;&gt;free</title>
<path fill="none" stroke="black" d="M198.76,-139.766C229.843,-149.117 270.278,-161.282 298.515,-169.776"/>
<polygon fill="black" stroke="black" points="297.742,-173.199 308.327,-172.728 299.759,-166.495 297.742,-173.199"/>
</g>
<!-- cella_modosit&#45;&gt;cella_kiszamol -->
<g id="edge17" class="edge"><title>cella_modosit&#45;&gt;cella_kiszamol</title>
<path fill="none" stroke="black" d="M198.76,-112.234C221.868,-105.282 250.144,-96.7755 274.735,-89.3777"/>
<polygon fill="black" stroke="black" points="275.745,-92.729 284.312,-86.4965 273.728,-86.0258 275.745,-92.729"/>
</g>
<!-- tablazat_kiszamolva_nullaz -->
<g id="node17" class="node"><title>tablazat_kiszamolva_nullaz</title>
<polygon fill="#bebada" stroke="black" points="417,-36 250,-36 250,-0 417,-0 417,-36"/>
<text text-anchor="middle" x="333.5" y="-14.3" font-family="Times,serif" font-size="14.00">tablazat_kiszamolva_nullaz</text>
</g>
<!-- cella_modosit&#45;&gt;tablazat_kiszamolva_nullaz -->
<g id="edge16" class="edge"><title>cella_modosit&#45;&gt;tablazat_kiszamolva_nullaz</title>
<path fill="none" stroke="black" d="M198.695,-109.278C204.141,-106.295 209.393,-102.878 214,-99 236.066,-80.4235 227.029,-62.4457 250,-45 251.804,-43.6299 253.681,-42.3276 255.615,-41.0899"/>
<polygon fill="black" stroke="black" points="257.469,-44.0617 264.421,-36.0667 254.001,-37.9814 257.469,-44.0617"/>
</g>
<!-- tablazat_uj&#45;&gt;malloc -->
<g id="edge19" class="edge"><title>tablazat_uj&#45;&gt;malloc</title>
<path fill="none" stroke="black" d="M190.193,-168.811C220.177,-159.791 262.245,-147.135 292.862,-137.924"/>
<polygon fill="black" stroke="black" points="294.205,-141.176 302.773,-134.943 292.188,-134.472 294.205,-141.176"/>
</g>
<!-- tablazat_uj&#45;&gt;free -->
<g id="edge20" class="edge"><title>tablazat_uj&#45;&gt;free</title>
<path fill="none" stroke="black" d="M190.193,-180C221.241,-180 265.245,-180 296.077,-180"/>
<polygon fill="black" stroke="black" points="296.39,-183.5 306.39,-180 296.39,-176.5 296.39,-183.5"/>
</g>
<!-- tablazat_felszabadit&#45;&gt;free -->
<g id="edge21" class="edge"><title>tablazat_felszabadit&#45;&gt;free</title>
<path fill="none" stroke="black" d="M213.27,-215.869C241.788,-207.289 274.773,-197.366 298.81,-190.135"/>
<polygon fill="black" stroke="black" points="299.957,-193.445 308.525,-187.213 297.94,-186.742 299.957,-193.445"/>
</g>
<!-- tablazat_kiir&#45;&gt;cella_kiszamol -->
<g id="edge23" class="edge"><title>tablazat_kiir&#45;&gt;cella_kiszamol</title>
<path fill="none" stroke="black" d="M194.181,-30.3887C217.952,-37.5398 248.228,-46.6479 274.39,-54.5185"/>
<polygon fill="black" stroke="black" points="273.609,-57.9384 284.193,-57.4677 275.626,-51.2352 273.609,-57.9384"/>
</g>
<!-- tablazat_kiir&#45;&gt;tablazat_kiszamolva_nullaz -->
<g id="edge22" class="edge"><title>tablazat_kiir&#45;&gt;tablazat_kiszamolva_nullaz</title>
<path fill="none" stroke="black" d="M194.181,-18C207.766,-18 223.476,-18 239.328,-18"/>
<polygon fill="black" stroke="black" points="239.744,-21.5001 249.744,-18 239.744,-14.5001 239.744,-21.5001"/>
</g>
</g>
</svg>
