<?xml version="1.0" encoding="UTF-8" standalone="no"?>
<!-- Created with Inkscape (http://www.inkscape.org/) -->

<svg
   xmlns:dc="http://purl.org/dc/elements/1.1/"
   xmlns:cc="http://creativecommons.org/ns#"
   xmlns:rdf="http://www.w3.org/1999/02/22-rdf-syntax-ns#"
   xmlns:svg="http://www.w3.org/2000/svg"
   xmlns="http://www.w3.org/2000/svg"
   xmlns:sodipodi="http://sodipodi.sourceforge.net/DTD/sodipodi-0.dtd"
   xmlns:inkscape="http://www.inkscape.org/namespaces/inkscape"
   version="1.1"
   width="338.03619"
   height="206.67114"
   viewBox="100 87 180.3085 114.71014"
   id="svg2"
   inkscape:version="0.48.4 r9939"
   sodipodi:docname="cserefv_cimszerint.svg">
  <sodipodi:namedview
     pagecolor="#ffffff"
     bordercolor="#666666"
     borderopacity="1"
     objecttolerance="10"
     gridtolerance="10"
     guidetolerance="10"
     inkscape:pageopacity="0"
     inkscape:pageshadow="2"
     inkscape:window-width="640"
     inkscape:window-height="480"
     id="namedview35"
     showgrid="false"
     inkscape:zoom="1.1100741"
     inkscape:cx="168.45521"
     inkscape:cy="105.25033"
     inkscape:window-x="0"
     inkscape:window-y="25"
     inkscape:window-maximized="0"
     inkscape:current-layer="svg2" />
  <metadata
     id="metadata68">
    <rdf:RDF>
      <cc:Work
         rdf:about="">
        <dc:format>image/svg+xml</dc:format>
        <dc:type
           rdf:resource="http://purl.org/dc/dcmitype/StillImage" />
      </cc:Work>
    </rdf:RDF>
  </metadata>
  <defs
     id="defs66" />
  <g
     style="font-size:13.54669952px;font-style:normal;font-weight:normal;text-anchor:start;fill:#000000;font-family:monospace"
     id="text4">
    <path
       d="m 102.18363,96.915288 c -0.32632,0.189619 -0.66367,0.33073 -1.01203,0.423334 -0.34397,0.09701 -0.69674,0.145521 -1.05834,0.145522 -1.146531,-10e-7 -2.043911,-0.343959 -2.692139,-1.031878 -0.643823,-0.687917 -0.965733,-1.640418 -0.965732,-2.857507 -10e-7,-1.217081 0.321909,-2.169583 0.965732,-2.857507 0.648228,-0.687911 1.545608,-1.03187 2.692139,-1.031877 0.35719,7e-6 0.70555,0.04631 1.04511,0.138906 0.33954,0.09261 0.6813,0.235928 1.02526,0.429949 l 0,1.276618 c -0.32191,-0.286627 -0.64603,-0.493884 -0.97234,-0.621772 -0.32192,-0.127876 -0.68793,-0.191817 -1.09803,-0.191824 -0.762885,7e-6 -1.349379,0.246952 -1.75948,0.740835 -0.410108,0.493896 -0.615161,1.199452 -0.615158,2.116672 -3e-6,0.912818 0.20505,1.618374 0.615158,2.116672 0.414511,0.493891 1.001005,0.740836 1.75948,0.740835 0.42333,1e-6 0.80257,-0.06394 1.13771,-0.191823 0.33514,-0.132291 0.64602,-0.335139 0.93266,-0.608543 l 0,1.263388"
       style=""
       id="path3013" />
    <path
       d="m 109.75073,90.141938 0,1.190628 c -0.34837,-0.202841 -0.69894,-0.354977 -1.05172,-0.456407 -0.35278,-0.101417 -0.71217,-0.152129 -1.07818,-0.152136 -0.55122,7e-6 -0.96353,0.09041 -1.23693,0.271199 -0.26899,0.176395 -0.40349,0.447593 -0.40349,0.813595 0,0.330735 0.10142,0.57768 0.30427,0.740835 0.20285,0.163165 0.70776,0.321915 1.51475,0.476252 l 0.48948,0.0926 c 0.60413,0.114657 1.06053,0.343963 1.36922,0.687918 0.31308,0.343963 0.46963,0.79155 0.46964,1.342764 -1e-5,0.732017 -0.26018,1.305282 -0.78053,1.719796 -0.52035,0.410105 -1.24355,0.615157 -2.16959,0.615158 -0.36601,-10e-7 -0.74965,-0.03969 -1.15094,-0.119063 -0.40128,-0.07497 -0.83564,-0.189619 -1.30307,-0.343959 l 0,-1.256774 c 0.4542,0.233717 0.88856,0.410106 1.30307,0.529168 0.41452,0.114654 0.80698,0.17198 1.1774,0.171979 0.53799,10e-7 0.95471,-0.108037 1.25016,-0.324115 0.29545,-0.220485 0.44318,-0.526961 0.44318,-0.919429 0,-0.564444 -0.5402,-0.954705 -1.62058,-1.170784 l -0.0529,-0.01323 -0.45641,-0.0926 c -0.70115,-0.136698 -1.21268,-0.366004 -1.53459,-0.687918 -0.32191,-0.326316 -0.48286,-0.769494 -0.48286,-1.329535 0,-0.709961 0.24033,-1.256767 0.72099,-1.64042 0.48066,-0.38805 1.16637,-0.582078 2.05714,-0.582085 0.39687,7e-6 0.77831,0.03749 1.14432,0.112448 0.36601,0.07056 0.7254,0.178601 1.07818,0.324115"
       style=""
       id="path3015" />
    <path
       d="m 118.81935,93.283873 0,0.595314 -5.27184,0 0,0.03969 c 0,0.806983 0.20946,1.43096 0.62839,1.871931 0.42333,0.440975 1.01865,0.661461 1.78594,0.66146 0.38805,1e-6 0.79375,-0.06173 1.21709,-0.185209 0.42333,-0.123471 0.87532,-0.310884 1.35599,-0.562241 l 0,1.210472 c -0.46303,0.189619 -0.91061,0.33073 -1.34276,0.423334 -0.42775,0.09701 -0.84227,0.145521 -1.24355,0.145522 -1.15094,-10e-7 -2.05052,-0.343959 -2.69875,-1.031878 -0.64824,-0.692326 -0.97235,-1.644828 -0.97235,-2.857507 0,-1.181803 0.3175,-2.125485 0.9525,-2.831048 0.635,-0.70555 1.48167,-1.058329 2.54001,-1.058336 0.94368,7e-6 1.68672,0.319713 2.22912,0.959117 0.5468,0.639417 0.8202,1.512543 0.82021,2.619381 m -1.21709,-0.357188 c -0.0176,-0.714372 -0.18742,-1.256769 -0.50932,-1.627192 -0.31751,-0.374821 -0.77612,-0.562234 -1.37584,-0.562241 -0.5865,7e-6 -1.06936,0.194035 -1.44859,0.582085 -0.37924,0.388062 -0.60414,0.926049 -0.67469,1.613962 l 4.00844,-0.0066"
       style=""
       id="path3017" />
    <path
       d="m 127.25296,91.411941 c -0.26018,-0.202841 -0.52476,-0.350567 -0.79375,-0.443178 -0.269,-0.0926 -0.56445,-0.1389 -0.88635,-0.138906 -0.75848,6e-6 -1.33836,0.238131 -1.73964,0.714376 -0.40129,0.476257 -0.60194,1.164174 -0.60193,2.063755 l 0,3.684332 -1.2237,0 0,-7.408351 1.2237,0 0,1.448597 c 0.20284,-0.524752 0.51373,-0.926037 0.93266,-1.203857 0.42333,-0.282215 0.92383,-0.423327 1.50151,-0.423334 0.29986,7e-6 0.57987,0.03749 0.84005,0.112448 0.26017,0.07497 0.50932,0.191831 0.74745,0.350574 l 0,1.243544"
       style=""
       id="path3019" />
    <path
       d="m 135.11772,93.283873 0,0.595314 -5.27183,0 0,0.03969 c -1e-5,0.806983 0.20946,1.43096 0.62838,1.871931 0.42333,0.440975 1.01865,0.661461 1.78594,0.66146 0.38806,1e-6 0.79375,-0.06173 1.21709,-0.185209 0.42333,-0.123471 0.87533,-0.310884 1.35599,-0.562241 l 0,1.210472 c -0.46302,0.189619 -0.91061,0.33073 -1.34276,0.423334 -0.42775,0.09701 -0.84226,0.145521 -1.24354,0.145522 -1.15095,-10e-7 -2.05053,-0.343959 -2.69876,-1.031878 -0.64823,-0.692326 -0.97235,-1.644828 -0.97235,-2.857507 0,-1.181803 0.3175,-2.125485 0.95251,-2.831048 0.63499,-0.70555 1.48166,-1.058329 2.54,-1.058336 0.94368,7e-6 1.68672,0.319713 2.22912,0.959117 0.5468,0.639417 0.8202,1.512543 0.82021,2.619381 m -1.21708,-0.357188 c -0.0177,-0.714372 -0.18742,-1.256769 -0.50933,-1.627192 -0.3175,-0.374821 -0.77612,-0.562234 -1.37584,-0.562241 -0.58649,7e-6 -1.06936,0.194035 -1.44859,0.582085 -0.37924,0.388062 -0.60414,0.926049 -0.67469,1.613962 l 4.00845,-0.0066"
       style=""
       id="path3021" />
    <path
       d="m 141.76539,87.013233 c -0.5865,1.005428 -1.02526,2.008641 -1.3163,3.009643 -0.28664,0.996605 -0.42996,2.002024 -0.42995,3.016257 -1e-5,1.009832 0.14331,2.01525 0.42995,3.016257 0.29104,1.00101 0.7298,2.008633 1.3163,3.022872 l -1.05833,0 c -0.66588,-1.049517 -1.16197,-2.070369 -1.48829,-3.062559 -0.32632,-0.996598 -0.48948,-1.988787 -0.48948,-2.97657 0,-0.983365 0.16316,-1.973349 0.48948,-2.969955 0.32632,-0.996592 0.82241,-2.015239 1.48829,-3.055945 l 1.05833,0"
       style=""
       id="path3023" />
    <path
       d="m 145.754,89.883969 3.11548,0 0,6.462464 2.41432,0 0,0.945887 -6.04574,0 0,-0.945887 2.41433,0 0,-5.516576 -1.89839,0 0,-0.945888 m 1.89839,-2.883965 1.21709,0 0,1.541201 -1.21709,0 0,-1.541201"
       style=""
       id="path3025" />
    <path
       d="m 159.16179,92.701788 0,4.590532 -1.2237,0 0,-4.590532 c -10e-6,-0.665864 -0.11686,-1.155344 -0.35057,-1.468441 -0.23373,-0.313084 -0.59973,-0.46963 -1.09803,-0.469636 -0.56886,6e-6 -1.00762,0.202854 -1.3163,0.608543 -0.30428,0.401291 -0.45641,0.978965 -0.45641,1.733025 l 0,4.187041 -1.21709,0 0,-7.408351 1.21709,0 0,1.111253 c 0.21607,-0.423328 0.50932,-0.743033 0.87974,-0.959117 0.37042,-0.220479 0.80918,-0.330723 1.31631,-0.33073 0.75406,7e-6 1.3163,0.249157 1.68672,0.747449 0.37482,0.493897 0.56223,1.243551 0.56224,2.248964"
       style=""
       id="path3027" />
    <path
       d="m 164.4204,87.780526 0,2.103443 2.7649,0 0,0.945888 -2.7649,0 0,4.021676 c -1e-5,0.546809 0.10362,0.92825 0.31088,1.144326 0.20725,0.216078 0.56885,0.324116 1.0848,0.324115 l 1.36922,0 0,0.972346 -1.48829,0 c -0.91282,0 -1.55664,-0.183003 -1.93146,-0.549011 -0.37483,-0.366007 -0.56224,-0.996599 -0.56224,-1.891776 l 0,-4.021676 -1.97777,0 0,-0.945888 1.97777,0 0,-2.103443 1.21709,0"
       style=""
       id="path3029" />
    <path
       d="m 183.71518,89.043915 -2.36803,1.283232 2.36803,1.289847 -0.37703,0.648231 -2.22251,-1.342764 0,2.493704 -0.76068,0 0,-2.493704 -2.2225,1.342764 -0.37703,-0.648231 2.36802,-1.289847 -2.36802,-1.283232 0.37703,-0.654846 2.2225,1.342764 0,-2.493704 0.76068,0 0,2.493704 2.22251,-1.342764 0.37703,0.654846"
       style=""
       id="path3031" />
    <path
       d="m 187.28706,96.359662 0,3.750478 -1.2237,0 0,-10.226171 1.2237,0 0,0.945888 c 0.20285,-0.366001 0.47184,-0.643814 0.80698,-0.83344 0.33955,-0.194021 0.72981,-0.291035 1.17079,-0.291042 0.89517,7e-6 1.59631,0.346171 2.10344,1.038492 0.51152,0.692334 0.76729,1.65145 0.76729,2.877351 0,1.203859 -0.25577,2.149746 -0.76729,2.837663 -0.51154,0.683508 -1.21268,1.025262 -2.10344,1.025263 -0.4498,-10e-7 -0.84447,-0.09481 -1.18402,-0.284428 -0.33514,-0.194028 -0.59972,-0.474046 -0.79375,-0.840054 m 3.57189,-2.764903 c -1e-5,-0.943678 -0.14994,-1.655849 -0.4498,-2.136515 -0.29545,-0.480655 -0.73643,-0.720985 -1.32292,-0.720992 -0.5909,7e-6 -1.03849,0.242542 -1.34276,0.727606 -0.30427,0.480666 -0.45641,1.190633 -0.45641,2.129901 0,0.934866 0.15214,1.644833 0.45641,2.129901 0.30427,0.485072 0.75186,0.727607 1.34276,0.727606 0.58649,1e-6 1.02747,-0.240329 1.32292,-0.720991 0.29986,-0.480659 0.44979,-1.19283 0.4498,-2.136516"
       style=""
       id="path3033" />
    <path
       d="m 197.59923,93.568301 -0.40349,0 c -0.70997,4e-6 -1.24575,0.125681 -1.60735,0.377032 -0.35719,0.246948 -0.53578,0.617365 -0.53578,1.111253 0,0.445384 0.13449,0.791548 0.40349,1.038492 0.26899,0.246946 0.64161,0.370418 1.11787,0.370417 0.67027,10e-7 1.19723,-0.23151 1.58089,-0.694533 0.38364,-0.467429 0.57766,-1.11125 0.58208,-1.931463 l 0,-0.271198 -1.13771,0 m 2.36141,-0.50271 0,4.226729 -1.2237,0 0,-1.098023 c -0.26018,0.440974 -0.5887,0.767294 -0.98558,0.97896 -0.39247,0.207258 -0.87092,0.310886 -1.43536,0.310887 -0.75407,-10e-7 -1.356,-0.211668 -1.80579,-0.635002 -0.44979,-0.427743 -0.67469,-0.998803 -0.67469,-1.713181 0,-0.824617 0.27561,-1.450799 0.82683,-1.878546 0.55562,-0.42774 1.36922,-0.641612 2.44078,-0.641617 l 1.63381,0 0,-0.191823 c -0.004,-0.590899 -0.15435,-1.018642 -0.44979,-1.283232 -0.29546,-0.268987 -0.7673,-0.403484 -1.41553,-0.403491 -0.41452,7e-6 -0.83344,0.05954 -1.25677,0.178594 -0.42334,0.119069 -0.83565,0.293254 -1.23693,0.522554 l 0,-1.217086 c 0.44979,-0.171973 0.87974,-0.299855 1.28985,-0.383647 0.41451,-0.08819 0.81579,-0.132285 1.20385,-0.132292 0.61295,7e-6 1.1355,0.09041 1.56766,0.271198 0.43656,0.180807 0.78934,0.452005 1.05834,0.813596 0.16756,0.220493 0.28662,0.493896 0.35719,0.82021 0.0706,0.321916 0.10582,0.806986 0.10583,1.455212"
       style=""
       id="path3035" />
    <path
       d="m 204.42549,95.288097 1.66688,0 0,1.369222 -1.30307,2.533391 -1.01865,0 0.65484,-2.533391 0,-1.369222"
       style=""
       id="path3037" />
    <path
       d="m 219.09667,89.883969 3.11548,0 0,6.462464 2.41433,0 0,0.945887 -6.04575,0 0,-0.945887 2.41433,0 0,-5.516576 -1.89839,0 0,-0.945888 m 1.89839,-2.883965 1.21709,0 0,1.541201 -1.21709,0 0,-1.541201"
       style=""
       id="path3039" />
    <path
       d="m 232.50446,92.701788 0,4.590532 -1.2237,0 0,-4.590532 c 0,-0.665864 -0.11686,-1.155344 -0.35057,-1.468441 -0.23372,-0.313084 -0.59973,-0.46963 -1.09802,-0.469636 -0.56886,6e-6 -1.00763,0.202854 -1.31631,0.608543 -0.30427,0.401291 -0.45641,0.978965 -0.45641,1.733025 l 0,4.187041 -1.21708,0 0,-7.408351 1.21708,0 0,1.111253 c 0.21608,-0.423328 0.50933,-0.743033 0.87975,-0.959117 0.37041,-0.220479 0.80918,-0.330723 1.3163,-0.33073 0.75406,7e-6 1.3163,0.249157 1.68672,0.747449 0.37482,0.493897 0.56224,1.243551 0.56224,2.248964"
       style=""
       id="path3041" />
    <path
       d="m 237.76307,87.780526 0,2.103443 2.7649,0 0,0.945888 -2.7649,0 0,4.021676 c 0,0.546809 0.10362,0.92825 0.31089,1.144326 0.20725,0.216078 0.56885,0.324116 1.08479,0.324115 l 1.36922,0 0,0.972346 -1.48828,0 c -0.91282,0 -1.55664,-0.183003 -1.93147,-0.549011 -0.37483,-0.366007 -0.56224,-0.996599 -0.56224,-1.891776 l 0,-4.021676 -1.97776,0 0,-0.945888 1.97776,0 0,-2.103443 1.21709,0"
       style=""
       id="path3043" />
    <path
       d="m 257.05785,89.043915 -2.36802,1.283232 2.36802,1.289847 -0.37703,0.648231 -2.2225,-1.342764 0,2.493704 -0.76068,0 0,-2.493704 -2.22251,1.342764 -0.37703,-0.648231 2.36803,-1.289847 -2.36803,-1.283232 0.37703,-0.654846 2.22251,1.342764 0,-2.493704 0.76068,0 0,2.493704 2.2225,-1.342764 0.37703,0.654846"
       style=""
       id="path3045" />
    <path
       d="m 260.62974,96.359662 0,3.750478 -1.2237,0 0,-10.226171 1.2237,0 0,0.945888 c 0.20284,-0.366001 0.47183,-0.643814 0.80698,-0.83344 0.33954,-0.194021 0.7298,-0.291035 1.17078,-0.291042 0.89517,7e-6 1.59632,0.346171 2.10344,1.038492 0.51153,0.692334 0.76729,1.65145 0.7673,2.877351 -1e-5,1.203859 -0.25577,2.149746 -0.7673,2.837663 -0.51153,0.683508 -1.21268,1.025262 -2.10344,1.025263 -0.4498,-10e-7 -0.84447,-0.09481 -1.18401,-0.284428 -0.33514,-0.194028 -0.59973,-0.474046 -0.79375,-0.840054 m 3.57188,-2.764903 c -10e-6,-0.943678 -0.14994,-1.655849 -0.44979,-2.136515 -0.29546,-0.480655 -0.73643,-0.720985 -1.32292,-0.720992 -0.59091,7e-6 -1.0385,0.242542 -1.34277,0.727606 -0.30427,0.480666 -0.45641,1.190633 -0.4564,2.129901 -1e-5,0.934866 0.15213,1.644833 0.4564,2.129901 0.30427,0.485072 0.75186,0.727607 1.34277,0.727606 0.58649,1e-6 1.02746,-0.240329 1.32292,-0.720991 0.29985,-0.480659 0.44978,-1.19283 0.44979,-2.136516"
       style=""
       id="path3047" />
    <path
       d="m 272.37065,93.594759 c -1e-5,-0.943678 -0.14994,-1.655849 -0.44979,-2.136515 -0.29987,-0.480655 -0.74305,-0.720985 -1.32954,-0.720992 -0.59091,7e-6 -1.03849,0.242542 -1.34276,0.727606 -0.30428,0.480666 -0.45641,1.190633 -0.45641,2.129901 0,0.934866 0.15213,1.644833 0.45641,2.129901 0.30427,0.485072 0.75185,0.727607 1.34276,0.727606 0.58649,1e-6 1.02967,-0.240329 1.32954,-0.720991 0.29985,-0.480659 0.44978,-1.19283 0.44979,-2.136516 m -3.5785,-2.764902 c 0.19403,-0.361592 0.46081,-0.639405 0.80037,-0.83344 0.34395,-0.194021 0.74083,-0.291035 1.19063,-0.291042 0.89076,7e-6 1.5919,0.343966 2.10344,1.031877 0.51152,0.683515 0.76728,1.627197 0.76729,2.831049 -1e-5,1.221498 -0.25798,2.180614 -0.77391,2.877351 -0.51153,0.692328 -1.21488,1.038491 -2.11005,1.038492 -0.44098,-10e-7 -0.83124,-0.09481 -1.17079,-0.284428 -0.33514,-0.194028 -0.60413,-0.474046 -0.80698,-0.840054 l 0,0.932658 -1.21709,0 0,-10.292316 1.21709,0 0,3.829853"
       style=""
       id="path3049" />
    <path
       d="m 276.74951,87.013233 1.05834,0 c 0.66586,1.040706 1.16196,2.059353 1.48828,3.055945 0.32632,0.996606 0.48948,1.98659 0.48948,2.969955 0,0.992193 -0.16316,1.986587 -0.48948,2.983184 -0.32632,0.9966 -0.82242,2.015247 -1.48828,3.055945 l -1.05834,0 c 0.58649,-1.023059 1.02306,-2.035091 1.30969,-3.036101 0.29104,-1.001007 0.43656,-2.002016 0.43657,-3.003028 -10e-6,-1.005414 -0.14553,-2.008627 -0.43657,-3.009643 -0.28663,-1.001001 -0.7232,-2.006419 -1.30969,-3.016257"
       style=""
       id="path3051" />
    <path
       d="m 96.85888,174.55097 3.115476,0 0,6.46246 2.414334,0 0,0.94589 -6.045749,0 0,-0.94589 2.414329,0 0,-5.51657 -1.89839,0 0,-0.94589 m 1.89839,-2.88397 1.217086,0 0,1.54121 -1.217086,0 0,-1.54121"
       style=""
       id="path3053" />
    <path
       d="m 110.26667,177.36879 0,4.59053 -1.2237,0 0,-4.59053 c 0,-0.66587 -0.11686,-1.15535 -0.35057,-1.46844 -0.23372,-0.31309 -0.59973,-0.46963 -1.09803,-0.46964 -0.56885,1e-5 -1.00762,0.20285 -1.3163,0.60854 -0.30427,0.40129 -0.45641,0.97897 -0.45641,1.73303 l 0,4.18704 -1.21708,0 0,-7.40835 1.21708,0 0,1.11125 c 0.21608,-0.42333 0.50932,-0.74303 0.87974,-0.95912 0.37042,-0.22047 0.80919,-0.33072 1.31631,-0.33073 0.75406,1e-5 1.3163,0.24916 1.68672,0.74745 0.37482,0.4939 0.56224,1.24355 0.56224,2.24897"
       style=""
       id="path3055" />
    <path
       d="m 115.52528,172.44753 0,2.10344 2.7649,0 0,0.94589 -2.7649,0 0,4.02167 c -10e-6,0.54681 0.10362,0.92825 0.31089,1.14433 0.20725,0.21608 0.56885,0.32411 1.08479,0.32411 l 1.36922,0 0,0.97235 -1.48828,0 c -0.91282,0 -1.55664,-0.183 -1.93147,-0.54901 -0.37483,-0.36601 -0.56224,-0.9966 -0.56224,-1.89178 l 0,-4.02167 -1.97776,0 0,-0.94589 1.97776,0 0,-2.10344 1.21709,0"
       style=""
       id="path3057" />
    <path
       d="m 135.15741,174.55097 -2.65246,3.54542 2.91043,3.86293 -1.40891,0 -2.16959,-2.96996 -2.16297,2.96996 -1.40891,0 2.91042,-3.86293 -2.65245,-3.54542 1.34937,0 1.96454,2.67891 1.95131,-2.67891 1.36922,0"
       style=""
       id="path3059" />
    <path
       d="m 144.64275,178.49327 6.99163,0 0,1.13771 -6.99163,0 0,-1.13771 m 0,-2.68553 6.99163,0 0,1.12448 -6.99163,0 0,-1.12448"
       style=""
       id="path3061" />
    <path
       d="m 165.49196,176.67426 c 0.64823,0.17198 1.14432,0.47846 1.48829,0.91942 0.34395,0.43657 0.51593,0.98338 0.51593,1.64043 0,0.9084 -0.30648,1.62278 -0.91942,2.14313 -0.60855,0.51593 -1.45302,0.7739 -2.5334,0.7739 -0.4542,0 -0.91722,-0.0419 -1.38906,-0.12567 -0.47185,-0.0838 -0.93487,-0.20506 -1.38907,-0.36381 l 0,-1.32953 c 0.44979,0.23372 0.89297,0.4079 1.32954,0.52255 0.43656,0.11466 0.87092,0.17198 1.30307,0.17198 0.73201,0 1.29425,-0.16536 1.68673,-0.49609 0.39246,-0.33073 0.58869,-0.80698 0.58869,-1.42876 0,-0.57326 -0.19623,-1.02746 -0.58869,-1.3626 -0.39248,-0.33955 -0.92385,-0.50932 -1.59412,-0.50933 l -1.01865,0 0,-1.09802 1.01865,0 c 0.61295,0 1.0914,-0.13449 1.43536,-0.40349 0.34396,-0.26899 0.51594,-0.64382 0.51594,-1.12448 0,-0.50712 -0.16096,-0.89517 -0.48286,-1.16417 -0.31751,-0.2734 -0.77171,-0.4101 -1.36261,-0.41011 -0.39247,1e-5 -0.79816,0.0441 -1.21709,0.13229 -0.41892,0.0882 -0.85769,0.2205 -1.3163,0.39688 l 0,-1.23032 c 0.53357,-0.1411 1.00762,-0.24693 1.42214,-0.3175 0.41892,-0.0705 0.78934,-0.10582 1.11125,-0.10583 0.96132,10e-6 1.72861,0.24254 2.30188,0.7276 0.57767,0.48067 0.86651,1.12009 0.86651,1.91824 0,0.5424 -0.15214,0.9944 -0.4564,1.35599 -0.29987,0.36161 -0.73864,0.61737 -1.31631,0.7673"
       style=""
       id="path3063" />
    <path
       d="m 171.82875,179.9551 1.66687,0 0,1.36922 -1.30307,2.53339 -1.01865,0 0.65485,-2.53339 0,-1.36922"
       style=""
       id="path3065" />
    <path
       d="m 190.48191,179.57806 c -0.20285,0.51594 -0.46082,1.19504 -0.7739,2.0373 -0.43657,1.16417 -0.72982,1.87414 -0.87975,2.1299 -0.20285,0.34396 -0.45641,0.60193 -0.76068,0.77391 -0.30427,0.17198 -0.65925,0.25797 -1.06495,0.25797 l -0.97896,0 0,-1.01865 0.72099,0 c 0.35719,0 0.63721,-0.10363 0.84006,-0.31089 0.20284,-0.20725 0.46081,-0.74304 0.77391,-1.60734 l -2.86412,-7.28929 1.28984,0 2.19605,5.79439 2.16297,-5.79439 1.28985,0 -1.95131,5.02709"
       style=""
       id="path3067" />
    <path
       d="m 201.68705,178.49327 6.99163,0 0,1.13771 -6.99163,0 0,-1.13771 m 0,-2.68553 6.99163,0 0,1.12448 -6.99163,0 0,-1.12448"
       style=""
       id="path3069" />
    <path
       d="m 222.26507,173.30081 -3.11548,5.21892 3.11548,0 0,-5.21892 m -0.21829,-1.21709 1.54782,0 0,6.43601 1.31631,0 0,1.08479 -1.31631,0 0,2.3548 -1.32953,0 0,-2.3548 -4.18705,0 0,-1.26339 3.96876,-6.25741"
       style=""
       id="path3071" />
    <path
       d="m 228.87305,179.9551 1.66688,0 0,1.36922 -1.30308,2.53339 -1.01865,0 0.65485,-2.53339 0,-1.36922 m -0.086,-5.0271 1.66688,0 0,2.00422 -1.66688,0 0,-2.00422"
       style=""
       id="path3073" />
    <path
       d="m 102.18363,198.51529 c -0.32632,0.18962 -0.66367,0.33073 -1.01203,0.42333 -0.34397,0.097 -0.69674,0.14552 -1.05834,0.14552 -1.146531,0 -2.043911,-0.34396 -2.692139,-1.03188 -0.643823,-0.68791 -0.965733,-1.64041 -0.965732,-2.8575 -10e-7,-1.21708 0.321909,-2.16959 0.965732,-2.85751 0.648228,-0.68791 1.545608,-1.03187 2.692139,-1.03188 0.35719,1e-5 0.70555,0.0463 1.04511,0.13891 0.33954,0.0926 0.6813,0.23593 1.02526,0.42995 l 0,1.27662 c -0.32191,-0.28663 -0.64603,-0.49389 -0.97234,-0.62178 -0.32192,-0.12787 -0.68793,-0.19181 -1.09803,-0.19182 -0.762885,10e-6 -1.349379,0.24695 -1.75948,0.74084 -0.410108,0.49389 -0.615161,1.19945 -0.615158,2.11667 -3e-6,0.91282 0.20505,1.61837 0.615158,2.11667 0.414511,0.49389 1.001005,0.74084 1.75948,0.74083 0.42333,1e-5 0.80257,-0.0639 1.13771,-0.19182 0.33514,-0.13229 0.64602,-0.33514 0.93266,-0.60854 l 0,1.26339"
       style=""
       id="path3075" />
    <path
       d="m 109.75073,191.74194 0,1.19062 c -0.34837,-0.20284 -0.69894,-0.35497 -1.05172,-0.4564 -0.35278,-0.10142 -0.71217,-0.15213 -1.07818,-0.15214 -0.55122,1e-5 -0.96353,0.0904 -1.23693,0.2712 -0.26899,0.1764 -0.40349,0.44759 -0.40349,0.8136 0,0.33073 0.10142,0.57768 0.30427,0.74083 0.20285,0.16317 0.70776,0.32192 1.51475,0.47625 l 0.48948,0.0926 c 0.60413,0.11465 1.06053,0.34396 1.36922,0.68791 0.31308,0.34397 0.46963,0.79155 0.46964,1.34277 -1e-5,0.73202 -0.26018,1.30528 -0.78053,1.71979 -0.52035,0.41011 -1.24355,0.61516 -2.16959,0.61516 -0.36601,0 -0.74965,-0.0397 -1.15094,-0.11906 -0.40128,-0.075 -0.83564,-0.18962 -1.30307,-0.34396 l 0,-1.25677 c 0.4542,0.23371 0.88856,0.4101 1.30307,0.52916 0.41452,0.11466 0.80698,0.17198 1.1774,0.17198 0.53799,0 0.95471,-0.10803 1.25016,-0.32411 0.29545,-0.22049 0.44318,-0.52696 0.44318,-0.91943 0,-0.56444 -0.5402,-0.95471 -1.62058,-1.17078 l -0.0529,-0.0132 -0.45641,-0.0926 c -0.70115,-0.1367 -1.21268,-0.366 -1.53459,-0.68792 -0.32191,-0.32631 -0.48286,-0.76949 -0.48286,-1.32953 0,-0.70996 0.24033,-1.25677 0.72099,-1.64042 0.48066,-0.38805 1.16637,-0.58208 2.05714,-0.58209 0.39687,1e-5 0.77831,0.0375 1.14432,0.11245 0.36601,0.0706 0.7254,0.1786 1.07818,0.32412"
       style=""
       id="path3077" />
    <path
       d="m 118.81935,194.88387 0,0.59532 -5.27184,0 0,0.0397 c 0,0.80699 0.20946,1.43096 0.62839,1.87193 0.42333,0.44098 1.01865,0.66147 1.78594,0.66146 0.38805,1e-5 0.79375,-0.0617 1.21709,-0.1852 0.42333,-0.12348 0.87532,-0.31089 1.35599,-0.56225 l 0,1.21048 c -0.46303,0.18962 -0.91061,0.33073 -1.34276,0.42333 -0.42775,0.097 -0.84227,0.14552 -1.24355,0.14552 -1.15094,0 -2.05052,-0.34396 -2.69875,-1.03188 -0.64824,-0.69232 -0.97235,-1.64482 -0.97235,-2.8575 0,-1.18181 0.3175,-2.12549 0.9525,-2.83105 0.635,-0.70555 1.48167,-1.05833 2.54001,-1.05834 0.94368,1e-5 1.68672,0.31972 2.22912,0.95912 0.5468,0.63942 0.8202,1.51254 0.82021,2.61938 m -1.21709,-0.35719 c -0.0176,-0.71437 -0.18742,-1.25677 -0.50932,-1.62719 -0.31751,-0.37482 -0.77612,-0.56223 -1.37584,-0.56224 -0.5865,10e-6 -1.06936,0.19404 -1.44859,0.58209 -0.37924,0.38806 -0.60414,0.92604 -0.67469,1.61396 l 4.00844,-0.007"
       style=""
       id="path3079" />
    <path
       d="m 127.25296,193.01194 c -0.26018,-0.20284 -0.52476,-0.35057 -0.79375,-0.44318 -0.269,-0.0926 -0.56445,-0.1389 -0.88635,-0.1389 -0.75848,0 -1.33836,0.23813 -1.73964,0.71437 -0.40129,0.47626 -0.60194,1.16418 -0.60193,2.06376 l 0,3.68433 -1.2237,0 0,-7.40835 1.2237,0 0,1.44859 c 0.20284,-0.52475 0.51373,-0.92603 0.93266,-1.20385 0.42333,-0.28222 0.92383,-0.42333 1.50151,-0.42334 0.29986,1e-5 0.57987,0.0375 0.84005,0.11245 0.26017,0.075 0.50932,0.19183 0.74745,0.35058 l 0,1.24354"
       style=""
       id="path3081" />
    <path
       d="m 135.11772,194.88387 0,0.59532 -5.27183,0 0,0.0397 c -1e-5,0.80699 0.20946,1.43096 0.62838,1.87193 0.42333,0.44098 1.01865,0.66147 1.78594,0.66146 0.38806,1e-5 0.79375,-0.0617 1.21709,-0.1852 0.42333,-0.12348 0.87533,-0.31089 1.35599,-0.56225 l 0,1.21048 c -0.46302,0.18962 -0.91061,0.33073 -1.34276,0.42333 -0.42775,0.097 -0.84226,0.14552 -1.24354,0.14552 -1.15095,0 -2.05053,-0.34396 -2.69876,-1.03188 -0.64823,-0.69232 -0.97235,-1.64482 -0.97235,-2.8575 0,-1.18181 0.3175,-2.12549 0.95251,-2.83105 0.63499,-0.70555 1.48166,-1.05833 2.54,-1.05834 0.94368,1e-5 1.68672,0.31972 2.22912,0.95912 0.5468,0.63942 0.8202,1.51254 0.82021,2.61938 m -1.21708,-0.35719 c -0.0177,-0.71437 -0.18742,-1.25677 -0.50933,-1.62719 -0.3175,-0.37482 -0.77612,-0.56223 -1.37584,-0.56224 -0.58649,10e-6 -1.06936,0.19404 -1.44859,0.58209 -0.37924,0.38806 -0.60414,0.92604 -0.67469,1.61396 l 4.00845,-0.007"
       style=""
       id="path3083" />
    <path
       d="m 141.76539,188.61323 c -0.5865,1.00543 -1.02526,2.00864 -1.3163,3.00964 -0.28664,0.99661 -0.42996,2.00203 -0.42995,3.01626 -1e-5,1.00983 0.14331,2.01525 0.42995,3.01626 0.29104,1.00101 0.7298,2.00863 1.3163,3.02287 l -1.05833,0 c -0.66588,-1.04952 -1.16197,-2.07037 -1.48829,-3.06256 -0.32632,-0.9966 -0.48948,-1.98879 -0.48948,-2.97657 0,-0.98336 0.16316,-1.97335 0.48948,-2.96995 0.32632,-0.9966 0.82241,-2.01524 1.48829,-3.05595 l 1.05833,0"
       style=""
       id="path3085" />
    <path
       d="m 147.67885,192.89288 2.75167,3.69756 c 0.17197,-0.21608 0.29986,-0.48948 0.38365,-0.82021 0.0838,-0.33073 0.12567,-0.7254 0.12567,-1.18402 0,-0.1411 -0.007,-0.366 -0.0198,-0.67468 l -0.007,-0.0463 1.08479,0 0,0.25797 c -1e-5,0.70997 -0.0816,1.33395 -0.24474,1.87193 -0.16317,0.53358 -0.41011,0.9944 -0.74083,1.38246 l 1.12448,1.51474 -1.40891,0 -0.51594,-0.72099 c -0.36601,0.30868 -0.75407,0.53798 -1.16417,0.68792 -0.41011,0.14993 -0.84888,0.22489 -1.31631,0.22489 -0.9525,0 -1.73964,-0.29545 -2.36141,-0.88635 -0.62177,-0.59532 -0.93266,-1.34277 -0.93266,-2.24235 0,-0.60413 0.15214,-1.16417 0.45641,-1.68011 0.30427,-0.51594 0.76288,-0.99439 1.37584,-1.43537 -0.22049,-0.31749 -0.38365,-0.62838 -0.48948,-0.93266 -0.10584,-0.30426 -0.15875,-0.61294 -0.15875,-0.92604 0,-0.66145 0.21828,-1.18401 0.65484,-1.56766 0.44097,-0.38364 1.0429,-0.57546 1.80579,-0.57547 0.28663,1e-5 0.57326,0.0265 0.8599,0.0794 0.29103,0.0529 0.59089,0.1301 0.89958,0.23151 l 0,1.21048 c -0.26018,-0.17198 -0.52917,-0.29765 -0.80698,-0.37704 -0.27341,-0.0838 -0.56225,-0.12566 -0.86651,-0.12567 -0.42775,1e-5 -0.76509,0.10143 -1.01204,0.30427 -0.24694,0.19844 -0.37042,0.46744 -0.37041,0.80698 -1e-5,0.26018 0.0639,0.53358 0.19182,0.82021 0.12788,0.28223 0.36159,0.65044 0.70115,1.10464 m -0.86652,0.68792 c -0.40569,0.32191 -0.70996,0.66366 -0.91281,1.02526 -0.19844,0.35719 -0.29766,0.73863 -0.29766,1.14432 0,0.66588 0.22049,1.2193 0.66146,1.66027 0.44097,0.43656 1.00321,0.65484 1.68673,0.65484 0.1852,0 0.37923,-0.0265 0.58208,-0.0794 0.20284,-0.0529 0.40128,-0.13009 0.59531,-0.23151 0.11906,-0.0662 0.21608,-0.12347 0.29105,-0.17198 0.0794,-0.0529 0.15433,-0.10804 0.22489,-0.16537 l -2.83105,-3.83646"
       style=""
       id="path3087" />
    <path
       d="m 159.60497,191.48397 -2.65246,3.54542 2.91043,3.86293 -1.40891,0 -2.16959,-2.96996 -2.16297,2.96996 -1.40891,0 2.91042,-3.86293 -2.65245,-3.54542 1.34937,0 1.96454,2.67891 1.95131,-2.67891 1.36922,0"
       style=""
       id="path3089" />
    <path
       d="m 163.67956,196.8881 1.66688,0 0,1.36922 -1.30308,2.53339 -1.01864,0 0.65484,-2.53339 0,-1.36922"
       style=""
       id="path3091" />
    <path
       d="m 180.27559,192.89288 2.75167,3.69756 c 0.17197,-0.21608 0.29986,-0.48948 0.38365,-0.82021 0.0838,-0.33073 0.12567,-0.7254 0.12568,-1.18402 -1e-5,-0.1411 -0.007,-0.366 -0.0198,-0.67468 l -0.007,-0.0463 1.08479,0 0,0.25797 c -1e-5,0.70997 -0.0816,1.33395 -0.24474,1.87193 -0.16317,0.53358 -0.41011,0.9944 -0.74083,1.38246 l 1.12448,1.51474 -1.40891,0 -0.51594,-0.72099 c -0.36601,0.30868 -0.75407,0.53798 -1.16417,0.68792 -0.41011,0.14993 -0.84888,0.22489 -1.31631,0.22489 -0.9525,0 -1.73964,-0.29545 -2.36141,-0.88635 -0.62177,-0.59532 -0.93266,-1.34277 -0.93266,-2.24235 0,-0.60413 0.15214,-1.16417 0.45641,-1.68011 0.30427,-0.51594 0.76288,-0.99439 1.37584,-1.43537 -0.22049,-0.31749 -0.38365,-0.62838 -0.48948,-0.93266 -0.10584,-0.30426 -0.15875,-0.61294 -0.15875,-0.92604 0,-0.66145 0.21828,-1.18401 0.65484,-1.56766 0.44097,-0.38364 1.0429,-0.57546 1.80579,-0.57547 0.28663,1e-5 0.57326,0.0265 0.8599,0.0794 0.29103,0.0529 0.5909,0.1301 0.89958,0.23151 l 0,1.21048 c -0.26018,-0.17198 -0.52917,-0.29765 -0.80698,-0.37704 -0.27341,-0.0838 -0.56224,-0.12566 -0.86651,-0.12567 -0.42775,1e-5 -0.76509,0.10143 -1.01204,0.30427 -0.24694,0.19844 -0.37042,0.46744 -0.37041,0.80698 -1e-5,0.26018 0.0639,0.53358 0.19182,0.82021 0.12788,0.28223 0.3616,0.65044 0.70115,1.10464 m -0.86651,0.68792 c -0.4057,0.32191 -0.70997,0.66366 -0.91282,1.02526 -0.19844,0.35719 -0.29766,0.73863 -0.29766,1.14432 0,0.66588 0.22049,1.2193 0.66146,1.66027 0.44097,0.43656 1.00321,0.65484 1.68673,0.65484 0.1852,0 0.37923,-0.0265 0.58208,-0.0794 0.20284,-0.0529 0.40128,-0.13009 0.59532,-0.23151 0.11905,-0.0662 0.21607,-0.12347 0.29104,-0.17198 0.0794,-0.0529 0.15433,-0.10804 0.22489,-0.16537 l -2.83104,-3.83646"
       style=""
       id="path3093" />
    <path
       d="m 190.48191,196.51106 c -0.20285,0.51594 -0.46082,1.19504 -0.7739,2.0373 -0.43657,1.16417 -0.72982,1.87413 -0.87975,2.1299 -0.20285,0.34396 -0.45641,0.60193 -0.76068,0.77391 -0.30427,0.17198 -0.65925,0.25797 -1.06495,0.25797 l -0.97896,0 0,-1.01865 0.72099,0 c 0.35719,0 0.63721,-0.10363 0.84006,-0.31089 0.20284,-0.20726 0.46081,-0.74304 0.77391,-1.60734 l -2.86412,-7.28929 1.28984,0 2.19605,5.79439 2.16297,-5.79439 1.28985,0 -1.95131,5.02709"
       style=""
       id="path3095" />
    <path
       d="m 195.25766,188.61323 1.05834,0 c 0.66586,1.04071 1.16196,2.05935 1.48828,3.05595 0.32632,0.9966 0.48948,1.98659 0.48948,2.96995 0,0.99219 -0.16316,1.98659 -0.48948,2.98319 -0.32632,0.9966 -0.82242,2.01524 -1.48828,3.05594 l -1.05834,0 c 0.58649,-1.02306 1.02306,-2.03509 1.30969,-3.0361 0.29104,-1.00101 0.43656,-2.00202 0.43656,-3.00303 0,-1.00541 -0.14552,-2.00863 -0.43656,-3.00964 -0.28663,-1.001 -0.7232,-2.00642 -1.30969,-3.01626"
       style=""
       id="path3097" />
    <path
       d="m 204.42549,196.8881 1.66688,0 0,1.36922 -1.30307,2.53339 -1.01865,0 0.65484,-2.53339 0,-1.36922 m -0.086,-5.0271 1.66688,0 0,2.00422 -1.66688,0 0,-2.00422"
       style=""
       id="path3099" />
  </g>
  <g
     id="g20"
     transform="translate(-4.8344546,-2.7076906)">
    <path
       style="fill:#fdfd04"
       d="m 182,104 32,0 0,20 -32,0 z"
       id="rect22" />
    <path
       style="fill:none;stroke:#000000;stroke-width:1.60000002"
       d="m 182,104 32,0 0,20 -32,0 z"
       id="rect24" />
  </g>
  <g
     id="g26"
     transform="translate(-4.8344546,-2.7076906)">
    <path
       style="fill:#fdfd04"
       d="m 254,104 34,0 0,20 -34,0 z"
       id="rect28" />
    <path
       style="fill:none;stroke:#000000;stroke-width:1.60000002"
       d="m 254,104 34,0 0,20 -34,0 z"
       id="rect30" />
  </g>
  <g
     id="g32"
     transform="translate(-4.8344546,-2.7076906)">
    <path
       style="fill:#7babe3"
       d="m 126,152 20,0 0,20 -20,0 z"
       id="rect34" />
    <path
       style="fill:none;stroke:#000000;stroke-width:1.60000002"
       d="m 126,152 20,0 0,20 -20,0 z"
       id="rect36" />
  </g>
  <g
     id="g38"
     transform="translate(-4.8344546,-2.7076906)">
    <path
       style="fill:#7babe3"
       d="m 184,152 20,0 0,20 -20,0 z"
       id="rect40" />
    <path
       style="fill:none;stroke:#000000;stroke-width:1.5"
       d="m 184,152 20,0 0,20 -20,0 z"
       id="rect42" />
  </g>
  <g
     style="font-size:13.54669952px;font-style:normal;font-weight:normal;text-anchor:middle;fill:#000000;font-family:monospace"
     id="text44">
    <path
       d="m 132.22388,158.70724 c 0.64822,0.17199 1.14432,0.47847 1.48828,0.91943 0.34396,0.43657 0.51593,0.98338 0.51594,1.64042 -1e-5,0.90841 -0.30648,1.62279 -0.91943,2.14313 -0.60855,0.51594 -1.45301,0.77391 -2.53339,0.77391 -0.4542,0 -0.91723,-0.0419 -1.38906,-0.12567 -0.47185,-0.0838 -0.93487,-0.20506 -1.38907,-0.36381 l 0,-1.32953 c 0.44979,0.23372 0.89297,0.4079 1.32953,0.52255 0.43656,0.11466 0.87092,0.17198 1.30308,0.17198 0.73201,0 1.29425,-0.16536 1.68672,-0.49609 0.39246,-0.33073 0.5887,-0.80698 0.5887,-1.42876 0,-0.57326 -0.19624,-1.02746 -0.5887,-1.3626 -0.39247,-0.33955 -0.92384,-0.50932 -1.59412,-0.50933 l -1.01864,0 0,-1.09802 1.01864,0 c 0.61295,0 1.09141,-0.13449 1.43537,-0.40349 0.34396,-0.26899 0.51594,-0.64382 0.51594,-1.12448 0,-0.50712 -0.16096,-0.89517 -0.48286,-1.16417 -0.31751,-0.2734 -0.77171,-0.4101 -1.36261,-0.41011 -0.39247,1e-5 -0.79817,0.0441 -1.21709,0.13229 -0.41892,0.0882 -0.85769,0.2205 -1.3163,0.39688 l 0,-1.23032 c 0.53357,-0.1411 1.00762,-0.24693 1.42214,-0.3175 0.41892,-0.0705 0.78933,-0.10582 1.11125,-0.10583 0.96132,1e-5 1.72861,0.24254 2.30188,0.7276 0.57767,0.48067 0.8665,1.12008 0.86651,1.91824 -1e-5,0.5424 -0.15214,0.9944 -0.45641,1.35599 -0.29986,0.3616 -0.73863,0.61737 -1.3163,0.76729"
       style=""
       id="path3110" />
  </g>
  <g
     style="font-size:13.54669952px;font-style:normal;font-weight:normal;text-anchor:middle;fill:#000000;font-family:monospace"
     id="text48">
    <path
       d="m 189.95268,155.3338 -3.11548,5.21892 3.11548,0 0,-5.21892 m -0.21828,-1.21709 1.54781,0 0,6.43601 1.31631,0 0,1.08479 -1.31631,0 0,2.3548 -1.32953,0 0,-2.3548 -4.18704,0 0,-1.26339 3.96876,-6.25741"
       style=""
       id="path3113" />
  </g>
  <g
     id="g52"
     transform="translate(-4.8344546,-2.7076906)">
    <path
       d="m 181.205,118.94 c -34,10 9.585,20.646 -30.276,36.953"
       inkscape:connector-curvature="0"
       id="path54"
       style="fill:none;stroke:#000000;stroke-width:2" />
    <path
       style="fill:none;stroke:#000000;stroke-width:2"
       d="m 156.222,148.325 -7.362,8.414 11.148,0.842"
       id="polyline56" />
  </g>
  <g
     id="g58"
     transform="translate(-4.8344546,-2.7076906)">
    <path
       d="m 253.236,119.075 c -35,10 -2.488,20.719 -44.324,37.09"
       inkscape:connector-curvature="0"
       id="path60"
       style="fill:none;stroke:#000000;stroke-width:2" />
    <path
       style="fill:none;stroke:#000000;stroke-width:2"
       d="m 214.321,148.679 -7.491,8.301 11.135,1.012"
       id="polyline62" />
  </g>
</svg>
