<?xml version="1.0" encoding="UTF-8"?>
<svg id="svg97" width="23cm" height="4.2149cm" version="1.1" viewBox="399 199 442 69.968" xmlns="http://www.w3.org/2000/svg" xmlns:cc="http://creativecommons.org/ns#" xmlns:dc="http://purl.org/dc/elements/1.1/" xmlns:rdf="http://www.w3.org/1999/02/22-rdf-syntax-ns#">
 <metadata id="metadata103">
  <rdf:RDF>
   <cc:Work rdf:about="">
    <dc:format>image/svg+xml</dc:format>
    <dc:type rdf:resource="http://purl.org/dc/dcmitype/StillImage"/>
   </cc:Work>
  </rdf:RDF>
 </metadata>
 <g id="Háttér" transform="translate(0 -5.5161)">
  <g id="g8">
   <path id="rect2" d="m400 200h40v40h-40z" fill="#7babe3" stroke="#000" stroke-width="2"/>
   <g id="text6" aria-label="a">
    <path id="path56" d="m420.66 220.48h-0.47074q-1.2424 0-1.8752 0.43987-0.62508 0.43215-0.62508 1.2964 0 0.77942 0.47074 1.2116 0.47073 0.43215 1.3042 0.43215 1.173 0 1.8444-0.81028 0.67138-0.818 0.67909-2.2534v-0.3164zm2.755-0.58649v4.9312h-1.4276v-1.281q-0.4553 0.77169-1.1498 1.1421-0.68681 0.3627-1.6746 0.3627-1.3196 0-2.1067-0.74083-0.78714-0.74855-0.78714-1.9987 0-1.4431 0.96463-2.1916 0.97234-0.74855 2.8476-0.74855h1.9061v-0.22379q-8e-3 -1.0341-0.52475-1.4971-0.51704-0.47073-1.6514-0.47073-0.7254 0-1.4662 0.20836-0.74083 0.20835-1.4431 0.60964v-1.4199q0.78713-0.30096 1.5048-0.44758 0.7254-0.15434 1.4045-0.15434 1.0727 0 1.8289 0.31639 0.76398 0.3164 1.2347 0.94919 0.29324 0.38585 0.41672 0.95691 0.12347 0.56334 0.12347 1.6977z" style=""/>
   </g>
  </g>
  <g id="g16">
   <path id="rect10" d="m440 200h40v40h-40z" fill="#7babe3" stroke="#000" stroke-width="2"/>
   <g id="text14" aria-label="l">
    <path id="path60" d="m460.18 221.69q0 0.9569 0.34727 1.4431 0.35498 0.48618 1.0418 0.48618h1.6592v1.2038h-1.7981q-1.2733 0-1.9756-0.818-0.69453-0.81801-0.69453-2.3151v-7.8482h-2.2765v-1.1112h3.6964z" style=""/>
   </g>
  </g>
  <g id="g24">
   <path id="rect18" d="m480 200h40v40h-40z" fill="#7babe3" stroke="#000" stroke-width="2"/>
   <g id="text22" aria-label="m">
    <path id="path64" d="m500.46 217.06q0.26238-0.55562 0.66366-0.818 0.409-0.27009 0.98006-0.27009 1.0418 0 1.4662 0.81028 0.43215 0.80257 0.43215 3.0328v5.0083h-1.2965v-4.9466q0-1.8289-0.20835-2.2688-0.20065-0.44759-0.74084-0.44759-0.61736 0-0.84886 0.47846-0.2238 0.47073-0.2238 2.2379v4.9466h-1.2964v-4.9466q0-1.8521-0.2238-2.2842-0.21607-0.43215-0.78713-0.43215-0.56334 0-0.78713 0.47846-0.21608 0.47073-0.21608 2.2379v4.9466h-1.2887v-8.643h1.2887v0.74084q0.25466-0.46302 0.6328-0.70225 0.38585-0.24694 0.87202-0.24694 0.58649 0 0.97234 0.27009 0.39356 0.2701 0.60964 0.818z" style=""/>
   </g>
  </g>
  <g id="g32">
   <path id="rect26" d="m520 200h40v40h-40z" fill="#7babe3" stroke="#000" stroke-width="2"/>
   <g id="text30" aria-label="a">
    <path id="path68" d="m540.66 220.48h-0.47074q-1.2424 0-1.8752 0.43987-0.62508 0.43215-0.62508 1.2964 0 0.77942 0.47074 1.2116 0.47073 0.43215 1.3042 0.43215 1.173 0 1.8444-0.81028 0.67138-0.818 0.67909-2.2534v-0.3164zm2.755-0.58649v4.9312h-1.4276v-1.281q-0.4553 0.77169-1.1498 1.1421-0.68681 0.3627-1.6746 0.3627-1.3196 0-2.1067-0.74083-0.78714-0.74855-0.78714-1.9987 0-1.4431 0.96463-2.1916 0.97234-0.74855 2.8476-0.74855h1.9061v-0.22379q-8e-3 -1.0341-0.52475-1.4971-0.51704-0.47073-1.6514-0.47073-0.7254 0-1.4662 0.20836-0.74083 0.20835-1.4431 0.60964v-1.4199q0.78713-0.30096 1.5048-0.44758 0.7254-0.15434 1.4045-0.15434 1.0727 0 1.8289 0.31639 0.76398 0.3164 1.2347 0.94919 0.29324 0.38585 0.41672 0.95691 0.12347 0.56334 0.12347 1.6977z" style=""/>
   </g>
  </g>
  <g id="g40">
   <path id="rect34" d="m560 200h40v40h-40z" fill="#fdfd04" stroke="#000" stroke-width="2"/>
   <g id="text38" aria-label="\t">
    <path id="path72" d="m575.54 213.3 4.0128 12.988h-1.3119l-4.0128-12.988z" style=""/>
    <path id="path74" d="m582.46 213.72v2.454h2.9247v1.1035h-2.9247v4.6919q0 1.0572 0.28553 1.3582 0.29325 0.30096 1.1807 0.30096h1.4585v1.1884h-1.4585q-1.6437 0-2.2688-0.60965-0.62507-0.61736-0.62507-2.2379v-4.6919h-1.0418v-1.1035h1.0418v-2.454z" style=""/>
   </g>
  </g>
  <g id="g48">
   <path id="rect42" d="m640 200h40v40h-40z" fill="#7babe3" stroke="#000" stroke-width="2"/>
   <g id="text46" aria-label="p">
    <path id="path78" d="m657.85 223.53v4.5839h-1.4276v-11.93h1.4276v1.3119q0.44758-0.7717 1.1267-1.1421 0.68681-0.37813 1.636-0.37813 1.5743 0 2.5543 1.2502 0.98777 1.2502 0.98777 3.2874 0 2.0373-0.98777 3.2874-0.98006 1.2502-2.5543 1.2502-0.94919 0-1.636-0.37042-0.6791-0.37813-1.1267-1.1498zm4.8308-3.0173q0-1.5666-0.64823-2.454-0.64051-0.89517-1.7672-0.89517t-1.7749 0.89517q-0.64051 0.88746-0.64051 2.454t0.64051 2.4617q0.64823 0.88745 1.7749 0.88745t1.7672-0.88745q0.64823-0.89517 0.64823-2.4617z" style=""/>
   </g>
  </g>
  <g id="g56">
   <path id="rect50" d="m680 200h40v40h-40z" fill="#7babe3" stroke="#000" stroke-width="2"/>
   <g id="text54" aria-label="p">
    <path id="path82" d="m697.85 223.53v4.5839h-1.4276v-11.93h1.4276v1.3119q0.44758-0.7717 1.1267-1.1421 0.68681-0.37813 1.636-0.37813 1.5743 0 2.5543 1.2502 0.98777 1.2502 0.98777 3.2874 0 2.0373-0.98777 3.2874-0.98006 1.2502-2.5543 1.2502-0.94919 0-1.636-0.37042-0.6791-0.37813-1.1267-1.1498zm4.8308-3.0173q0-1.5666-0.64823-2.454-0.64051-0.89517-1.7672-0.89517t-1.7749 0.89517q-0.64051 0.88746-0.64051 2.454t0.64051 2.4617q0.64823 0.88745 1.7749 0.88745t1.7672-0.88745q0.64823-0.89517 0.64823-2.4617z" style=""/>
   </g>
  </g>
  <g id="g64">
   <path id="rect58" d="m720 200h40v40h-40z" fill="#7babe3" stroke="#000" stroke-width="2"/>
   <g id="text62" aria-label="l">
    <path id="path86" d="m739.3 212.81h1.4199v12.008h-1.4199z" style=""/>
   </g>
  </g>
  <g id="g72">
   <path id="rect66" d="m760 200h40v40h-40z" fill="#7babe3" stroke="#000" stroke-width="2"/>
   <g id="text70" aria-label="e">
    <path id="path90" d="m784.02 220.15v0.69453h-6.5286q0.0926 1.4662 0.87973 2.2379 0.79485 0.76398 2.2071 0.76398 0.81801 0 1.582-0.20064 0.7717-0.20065 1.528-0.60193v1.3428q-0.76398 0.32411-1.5666 0.49389-0.80256 0.16977-1.6283 0.16977-2.0682 0-3.2797-1.2038-1.2039-1.2038-1.2039-3.2566 0-2.1222 1.1421-3.3646 1.1498-1.2502 3.0945-1.2502 1.744 0 2.755 1.1267 1.0186 1.119 1.0186 3.0482zm-1.4199-0.41672q-0.0154-1.1653-0.65595-1.8598-0.63279-0.69453-1.6823-0.69453-1.1884 0-1.9061 0.67138-0.70996 0.67137-0.818 1.8907z" style=""/>
   </g>
  </g>
  <g id="g80">
   <path id="rect74" d="m800 200h40v40h-40z" fill="#fdfd04" stroke="#000" stroke-width="2"/>
   <g id="text78" aria-label="\n">
    <path id="path94" d="m813.63 213.3 4.0128 12.988h-1.3119l-4.0128-12.988z" style=""/>
    <path id="path96" d="m826.33 219.61v5.2167h-1.4199v-5.1704q0-1.227-0.47846-1.8366-0.47845-0.60965-1.4354-0.60965-1.1498 0-1.8135 0.73312-0.66366 0.73311-0.66366 1.9987v4.8849h-1.4276v-8.643h1.4276v1.3428q0.50932-0.77941 1.1961-1.1653 0.69453-0.38585 1.5974-0.38585 1.4894 0 2.2534 0.92604 0.76398 0.91832 0.76398 2.7087z" style=""/>
   </g>
  </g>
  <g id="g88">
   <path id="rect82" d="m600 200h40v40h-40z" fill="#7babe3" stroke="#000" stroke-width="2"/>
   <g id="text86" aria-label="a">
    <path id="path100" d="m620.57 220.48q-1.7209 0-2.3846 0.39357-0.66366 0.39356-0.66366 1.3428 0 0.75627 0.49388 1.2038 0.50161 0.43987 1.3582 0.43987 1.1807 0 1.8907-0.83343 0.71768-0.84116 0.71768-2.2302v-0.3164zm2.8321-0.58649v4.9312h-1.4199v-1.3119q-0.48617 0.78713-1.2116 1.1653-0.7254 0.37042-1.7749 0.37042-1.3273 0-2.1144-0.74083-0.77942-0.74855-0.77942-1.9987 0-1.4585 0.97234-2.1994 0.98006-0.74083 2.917-0.74083h1.991v-0.1389q0-0.98006-0.64823-1.5125-0.64051-0.54019-1.8058-0.54019-0.74083 0-1.4431 0.17749-0.70225 0.17749-1.3505 0.53247v-1.3119q0.77942-0.30096 1.5125-0.44758 0.73312-0.15434 1.4276-0.15434 1.8752 0 2.8013 0.97234 0.92604 0.97234 0.92604 2.9479z" style=""/>
   </g>
  </g>
  <g id="g94" fill="none" stroke="#000" stroke-width="2">
   <path id="line90" d="m580 280v-35.528"/>
   <path id="polyline92" d="m585 252.24-5-10-5 10"/>
  </g>
 </g>
</svg>
