<?xml version="1.0" encoding="UTF-8"?>
<svg id="svg57" width="19.942cm" height="4.6402cm" version="1.1" viewBox="189 47 390.87 85.38" xmlns="http://www.w3.org/2000/svg" xmlns:cc="http://creativecommons.org/ns#" xmlns:dc="http://purl.org/dc/elements/1.1/" xmlns:rdf="http://www.w3.org/1999/02/22-rdf-syntax-ns#">
 <metadata id="metadata61">
  <rdf:RDF>
   <cc:Work rdf:about="">
    <dc:format>image/svg+xml</dc:format>
    <dc:type rdf:resource="http://purl.org/dc/dcmitype/StillImage"/>
   </cc:Work>
  </rdf:RDF>
 </metadata>
 <g id="Háttér" transform="translate(-1.1328 -3.594)">
  <path id="rect4" d="m340 70h40v40h-40z" fill="#7babe3" stroke="#000" stroke-width="2"/>
  <path id="rect6" d="m380 70h40v40h-40z" fill="#7babe3" stroke="#000" stroke-width="2"/>
  <path id="rect8" d="m420 70h40v40h-40z" fill="#7babe3" stroke="#000" stroke-width="2"/>
  <path id="rect10" d="m460 70h40v40h-40z" fill="#7babe3" stroke="#000" stroke-width="2"/>
  <path id="rect12" d="m500 70h40v40h-40z" fill="#7babe3" stroke="#000" stroke-width="2"/>
  <path id="rect14" d="m220 70h40v40h-40z" fill="#fdfd04" stroke="#000" stroke-width="2"/>
  <g id="g20" stroke="#000" stroke-width="2">
   <path id="path16" d="m260.98 69.015c20-20 48.03-30 71.145-6.8845" fill="none"/>
   <path id="polygon18" d="m332.13 62.13 1.768-5.3033 3.536 10.607-10.607-3.5355z" fill-rule="evenodd"/>
  </g>
  <g id="text24" aria-label="H">
   <path id="path41" d="m355.61 83.95h1.5588v4.7228h5.6643v-4.7228h1.5588v11.521h-1.5588v-5.4868h-5.6643v5.4868h-1.5588z" style=""/>
  </g>
  <g id="text28" aria-label="e">
   <path id="path44" d="m404.02 90.795v0.69453h-6.5286q0.0926 1.4662 0.87973 2.2379 0.79485 0.76398 2.2071 0.76398 0.81801 0 1.582-0.20064 0.7717-0.20064 1.528-0.60193v1.3428q-0.76398 0.32411-1.5666 0.49389-0.80256 0.16977-1.6283 0.16977-2.0682 0-3.2797-1.2039-1.2039-1.2038-1.2039-3.2566 0-2.1222 1.1421-3.3646 1.1498-1.2502 3.0945-1.2502 1.744 0 2.755 1.1267 1.0186 1.119 1.0186 3.0482zm-1.4199-0.41672q-0.0154-1.1653-0.65595-1.8598-0.63279-0.69453-1.6823-0.69453-1.1884 0-1.9061 0.67138-0.70996 0.67138-0.818 1.8907z" style=""/>
  </g>
  <g id="text32" aria-label="l">
   <path id="path47" d="m439.29 83.464h1.4199v12.008h-1.4199z" style=""/>
  </g>
  <g id="text36" aria-label="l">
   <path id="path50" d="m479.29 83.464h1.4199v12.008h-1.4199z" style=""/>
  </g>
  <g id="text40" aria-label="o">
   <path id="path53" d="m520 87.824q-1.1421 0-1.8058 0.89517-0.66366 0.88745-0.66366 2.4386 0 1.5511 0.65595 2.4463 0.66366 0.88745 1.8135 0.88745 1.1344 0 1.7981-0.89517t0.66366-2.4386q0-1.5357-0.66366-2.4309-0.66366-0.90289-1.7981-0.90289zm0-1.2039q1.8521 0 2.9093 1.2039 1.0572 1.2039 1.0572 3.3337 0 2.1222-1.0572 3.3337-1.0572 1.2039-2.9093 1.2039-1.8598 0-2.917-1.2039-1.0495-1.2116-1.0495-3.3337 0-2.1299 1.0495-3.3337 1.0572-1.2039 2.917-1.2039z" style=""/>
  </g>
  <path id="rect42" d="m540 70h40v40h-40z" fill="#7babe3" stroke="#000" stroke-width="2"/>
  <g id="text46" aria-label="\0">
   <path id="path57" d="m553.62 83.95 4.0128 12.988h-1.3119l-4.0128-12.988z" style=""/>
   <path id="path59" d="m562.66 84.976q-1.2038 0-1.8135 1.1884-0.60192 1.1807-0.60192 3.5575 0 2.3691 0.60192 3.5575 0.60964 1.1807 1.8135 1.1807 1.2116 0 1.8135-1.1807 0.60964-1.1884 0.60964-3.5575 0-2.3768-0.60964-3.5575-0.60193-1.1884-1.8135-1.1884zm0-1.2347q1.937 0 2.9556 1.5357 1.0264 1.528 1.0264 4.445 0 2.9093-1.0264 4.445-1.0186 1.528-2.9556 1.528-1.937 0-2.9633-1.528-1.0186-1.5357-1.0186-4.445 0-2.917 1.0186-4.445 1.0264-1.5357 2.9633-1.5357z" style=""/>
  </g>
  <g id="text50" aria-label="char h[]">
   <path id="path62" d="m436.58 127.16v1.3273q-0.60193-0.33183-1.2116-0.49388-0.60193-0.16978-1.2193-0.16978-1.3814 0-2.1453 0.87974-0.76398 0.87202-0.76398 2.454 0 1.582 0.76398 2.4617 0.76398 0.87203 2.1453 0.87203 0.61735 0 1.2193-0.16206 0.60964-0.16978 1.2116-0.50161v1.3119q-0.59421 0.27781-1.2347 0.41672-0.63279 0.13891-1.3505 0.13891-1.9524 0-3.1022-1.227-1.1498-1.227-1.1498-3.3106 0-2.1144 1.1576-3.326 1.1653-1.2116 3.1871-1.2116 0.65594 0 1.281 0.13891 0.62508 0.13119 1.2116 0.40128z" style=""/>
   <path id="path64" d="m446.23 130.25v5.2167h-1.4199v-5.1704q0-1.227-0.47845-1.8366-0.47846-0.60964-1.4354-0.60964-1.1498 0-1.8135 0.73312-0.66366 0.73311-0.66366 1.9987v4.8848h-1.4276v-12.008h1.4276v4.7074q0.50932-0.77942 1.1961-1.1653 0.69453-0.38585 1.5974-0.38585 1.4894 0 2.2534 0.92604 0.76399 0.91832 0.76399 2.7087z" style=""/>
   <path id="path66" d="m452.99 131.13q-1.7209 0-2.3846 0.39356-0.66366 0.39357-0.66366 1.3428 0 0.75626 0.49389 1.2038 0.5016 0.43987 1.3582 0.43987 1.1807 0 1.8907-0.83344 0.71768-0.84115 0.71768-2.2302v-0.31639zm2.8321-0.5865v4.9312h-1.4199v-1.3119q-0.48617 0.78714-1.2116 1.1653-0.72539 0.37042-1.7749 0.37042-1.3273 0-2.1144-0.74084-0.77942-0.74854-0.77942-1.9987 0-1.4585 0.97234-2.1993 0.98006-0.74083 2.917-0.74083h1.991v-0.13891q0-0.98005-0.64823-1.5125-0.64051-0.54019-1.8058-0.54019-0.74083 0-1.4431 0.17749-0.70225 0.1775-1.3505 0.53248v-1.3119q0.77941-0.30096 1.5125-0.44759 0.73311-0.15434 1.4276-0.15434 1.8752 0 2.8013 0.97234t0.92604 2.9479z" style=""/>
   <path id="path68" d="m463.76 128.16q-0.23923-0.1389-0.52476-0.20064-0.27781-0.0695-0.61736-0.0695-1.2038 0-1.8521 0.78713-0.64051 0.77942-0.64051 2.2456v4.553h-1.4276v-8.643h1.4276v1.3428q0.44759-0.78713 1.1653-1.1653 0.71768-0.38585 1.744-0.38585 0.14662 0 0.32411 0.0232 0.17749 0.0154 0.39357 0.054z" style=""/>
   <path id="path70" d="m477.46 130.25v5.2167h-1.4199v-5.1704q0-1.227-0.47845-1.8366-0.47846-0.60964-1.4354-0.60964-1.1498 0-1.8135 0.73312-0.66366 0.73311-0.66366 1.9987v4.8848h-1.4276v-12.008h1.4276v4.7074q0.50932-0.77942 1.1961-1.1653 0.69452-0.38585 1.5974-0.38585 1.4894 0 2.2534 0.92604 0.76399 0.91832 0.76399 2.7087z" style=""/>
   <path id="path72" d="m480.16 123.46h3.272v1.1035h-1.8521v11.884h1.8521v1.1035h-3.272z" style=""/>
   <path id="path74" d="m489.77 123.46v14.091h-3.272v-1.1035h1.8444v-11.884h-1.8444v-1.1035z" style=""/>
  </g>
  <g id="text54" aria-label="char *sztring">
   <path id="path77" d="m196.97 127.16v1.3273q-0.60193-0.33183-1.2116-0.49388-0.60192-0.16978-1.2193-0.16978-1.3813 0-2.1453 0.87974-0.76398 0.87202-0.76398 2.454 0 1.582 0.76398 2.4617 0.76399 0.87203 2.1453 0.87203 0.61736 0 1.2193-0.16206 0.60964-0.16978 1.2116-0.50161v1.3119q-0.59421 0.27781-1.2347 0.41672-0.63279 0.13891-1.3505 0.13891-1.9524 0-3.1022-1.227-1.1498-1.227-1.1498-3.3106 0-2.1144 1.1575-3.326 1.1653-1.2116 3.1871-1.2116 0.65595 0 1.281 0.13891 0.62508 0.13119 1.2116 0.40128z" style=""/>
   <path id="path79" d="m206.62 130.25v5.2167h-1.4199v-5.1704q0-1.227-0.47845-1.8366-0.47846-0.60964-1.4354-0.60964-1.1498 0-1.8135 0.73312-0.66366 0.73311-0.66366 1.9987v4.8848h-1.4276v-12.008h1.4276v4.7074q0.50932-0.77942 1.1961-1.1653 0.69453-0.38585 1.5974-0.38585 1.4894 0 2.2534 0.92604 0.76398 0.91832 0.76398 2.7087z" style=""/>
   <path id="path81" d="m213.38 131.13q-1.7209 0-2.3846 0.39356-0.66366 0.39357-0.66366 1.3428 0 0.75626 0.49389 1.2038 0.5016 0.43987 1.3582 0.43987 1.1807 0 1.8907-0.83344 0.71768-0.84115 0.71768-2.2302v-0.31639zm2.8321-0.5865v4.9312h-1.4199v-1.3119q-0.48617 0.78714-1.2116 1.1653-0.7254 0.37042-1.7749 0.37042-1.3273 0-2.1145-0.74084-0.77942-0.74854-0.77942-1.9987 0-1.4585 0.97235-2.1993 0.98005-0.74083 2.917-0.74083h1.991v-0.13891q0-0.98005-0.64822-1.5125-0.64051-0.54019-1.8058-0.54019-0.74083 0-1.4431 0.17749-0.70224 0.1775-1.3505 0.53248v-1.3119q0.77941-0.30096 1.5125-0.44759 0.73311-0.15434 1.4276-0.15434 1.8752 0 2.8013 0.97234t0.92604 2.9479z" style=""/>
   <path id="path83" d="m224.15 128.16q-0.23923-0.1389-0.52476-0.20064-0.27781-0.0695-0.61736-0.0695-1.2038 0-1.8521 0.78713-0.64052 0.77942-0.64052 2.2456v4.553h-1.4276v-8.643h1.4276v1.3428q0.44759-0.78713 1.1653-1.1653 0.71768-0.38585 1.744-0.38585 0.14662 0 0.32411 0.0232 0.1775 0.0154 0.39357 0.054z" style=""/>
   <path id="path85" d="m236.6 125.85-2.7704 1.4971 2.7704 1.5048-0.44758 0.75627-2.5929-1.5666v2.9093h-0.87974v-2.9093l-2.5929 1.5666-0.44758-0.75627 2.7704-1.5048-2.7704-1.4971 0.44758-0.76398 2.5929 1.5666v-2.9093h0.87974v2.9093l2.5929-1.5666z" style=""/>
   <path id="path87" d="m244.07 127.08v1.3428q-0.60192-0.30868-1.2502-0.46302t-1.3428-0.15434q-1.0572 0-1.5897 0.32411-0.52475 0.32412-0.52475 0.97234 0 0.49389 0.37813 0.77942 0.37813 0.27781 1.5202 0.53247l0.48617 0.10804q1.5125 0.32411 2.1453 0.91832 0.64051 0.58649 0.64051 1.6437 0 1.2038-0.95691 1.9061-0.94919 0.70225-2.6161 0.70225-0.69453 0-1.4508-0.13891-0.74855-0.13119-1.582-0.40128v-1.4662q0.78714 0.409 1.5511 0.61736 0.76398 0.20064 1.5125 0.20064 1.0032 0 1.5434-0.33955 0.54019-0.34726 0.54019-0.97234 0-0.57877-0.39357-0.88745-0.38585-0.30868-1.7054-0.59421l-0.49389-0.11576q-1.3196-0.27781-1.9061-0.84887-0.58649-0.57877-0.58649-1.582 0-1.2193 0.8643-1.883 0.86431-0.66366 2.454-0.66366 0.78713 0 1.4817 0.11576 0.69453 0.11575 1.281 0.34726z" style=""/>
   <path id="path89" d="m246.18 126.83h6.7446v1.2965l-5.3402 6.2122h5.3402v1.1344h-6.9376v-1.2964l5.3402-6.2122h-5.1472z" style=""/>
   <path id="path91" d="m256.5 124.37v2.454h2.9247v1.1035h-2.9247v4.6919q0 1.0572 0.28553 1.3582 0.29325 0.30097 1.1807 0.30097h1.4585v1.1884h-1.4585q-1.6437 0-2.2688-0.60964-0.62507-0.61736-0.62507-2.2379v-4.6919h-1.0418v-1.1035h1.0418v-2.454z" style=""/>
   <path id="path93" d="m266.3 128.16q-0.23922-0.1389-0.52475-0.20064-0.27781-0.0695-0.61736-0.0695-1.2038 0-1.8521 0.78713-0.64051 0.77942-0.64051 2.2456v4.553h-1.4276v-8.643h1.4276v1.3428q0.44759-0.78713 1.1653-1.1653 0.71768-0.38585 1.744-0.38585 0.14662 0 0.32411 0.0232 0.17749 0.0154 0.39357 0.054z" style=""/>
   <path id="path95" d="m267.79 126.83h1.4199v8.643h-1.4199zm0-3.3646h1.4199v1.7981h-1.4199z" style=""/>
   <path id="path97" d="m279.36 130.25v5.2167h-1.4199v-5.1704q0-1.227-0.47845-1.8366-0.47846-0.60964-1.4354-0.60964-1.1498 0-1.8135 0.73312-0.66366 0.73311-0.66366 1.9987v4.8848h-1.4276v-8.643h1.4276v1.3428q0.50932-0.77942 1.1961-1.1653 0.69453-0.38585 1.5974-0.38585 1.4894 0 2.2534 0.92604 0.76399 0.91832 0.76399 2.7087z" style=""/>
   <path id="path99" d="m287.88 131.05q0-1.5434-0.64051-2.3923-0.6328-0.84887-1.7826-0.84887-1.1421 0-1.7826 0.84887-0.63279 0.84887-0.63279 2.3923 0 1.5357 0.63279 2.3846 0.64052 0.84887 1.7826 0.84887 1.1498 0 1.7826-0.84887 0.64051-0.84887 0.64051-2.3846zm1.4199 3.3492q0 2.2071-0.98006 3.2797-0.98005 1.0804-3.0019 1.0804-0.74854 0-1.4122-0.11575-0.66366-0.10804-1.2887-0.33955v-1.3813q0.62507 0.33955 1.2347 0.5016 0.60964 0.16206 1.2424 0.16206 1.3968 0 2.0913-0.73312 0.69453-0.72539 0.69453-2.1993v-0.70224q-0.43987 0.76398-1.1267 1.1421-0.68681 0.37813-1.6437 0.37813-1.5897 0-2.562-1.2116-0.97234-1.2116-0.97234-3.2103 0-2.0064 0.97234-3.218t2.562-1.2116q0.9569 0 1.6437 0.37814 0.68682 0.37813 1.1267 1.1421v-1.3119h1.4199z" style=""/>
  </g>
 </g>
</svg>
