<?xml version="1.0" encoding="UTF-8"?>
<svg id="svg89" width="36.935cm" height="5.7001cm" version="1.1" viewBox="604 68 725.73 107.35" xmlns="http://www.w3.org/2000/svg" xmlns:cc="http://creativecommons.org/ns#" xmlns:dc="http://purl.org/dc/elements/1.1/" xmlns:rdf="http://www.w3.org/1999/02/22-rdf-syntax-ns#">
 <metadata id="metadata93">
  <rdf:RDF>
   <cc:Work rdf:about="">
    <dc:format>image/svg+xml</dc:format>
    <dc:type rdf:resource="http://purl.org/dc/dcmitype/StillImage"/>
   </cc:Work>
  </rdf:RDF>
 </metadata>
 <g id="Háttér" transform="translate(-1.2715 -3.3237)">
  <path id="rect4" d="m730 70h40v40h-40z" fill="#7babe3" stroke="#000" stroke-width="2"/>
  <path id="rect6" d="m770 70h40v40h-40z" fill="#7babe3" stroke="#000" stroke-width="2"/>
  <path id="rect8" d="m810 70h40v40h-40z" fill="#7babe3" stroke="#000" stroke-width="2"/>
  <path id="rect10" d="m850 70h40v40h-40z" fill="#7babe3" stroke="#000" stroke-width="2"/>
  <path id="rect12" d="m730 140h40v40h-40z" fill="#fdfd04" stroke="#000" stroke-width="2"/>
  <g id="g18" stroke="#000" stroke-width="2">
   <path id="path14" d="m750 139v-18.274" fill="none"/>
   <path id="polygon16" d="m750 120.73-5 2.5 5-10 5 10z" fill-rule="evenodd"/>
  </g>
  <g id="text22" aria-label="char masolat[]">
   <path id="path56" d="m612.11 87.164v1.3273q-0.60193-0.33183-1.2116-0.49389-0.60192-0.16977-1.2193-0.16977-1.3814 0-2.1453 0.87974-0.76398 0.87202-0.76398 2.454 0 1.582 0.76398 2.4617 0.76398 0.87202 2.1453 0.87202 0.61736 0 1.2193-0.16206 0.60964-0.16977 1.2116-0.5016v1.3119q-0.59421 0.27781-1.2347 0.41672-0.63279 0.13891-1.3505 0.13891-1.9524 0-3.1022-1.227-1.1498-1.227-1.1498-3.3106 0-2.1145 1.1576-3.326 1.1653-1.2116 3.1871-1.2116 0.65595 0 1.281 0.13891 0.62508 0.13119 1.2116 0.40128z" style=""/>
   <path id="path58" d="m621.78 90.258v5.2167h-1.4199v-5.1704q0-1.227-0.47845-1.8366-0.47845-0.60964-1.4354-0.60964-1.1498 0-1.8135 0.73311-0.66366 0.73312-0.66366 1.9987v4.8849h-1.4276v-12.008h1.4276v4.7074q0.50932-0.77942 1.1961-1.1653 0.69453-0.38585 1.5974-0.38585 1.4894 0 2.2534 0.92604 0.76398 0.91832 0.76398 2.7087z" style=""/>
   <path id="path60" d="m628.55 91.13q-1.7209 0-2.3846 0.39357-0.66366 0.39357-0.66366 1.3428 0 0.75626 0.49389 1.2039 0.5016 0.43987 1.3582 0.43987 1.1807 0 1.8907-0.83344 0.71768-0.84115 0.71768-2.2302v-0.3164zm2.8321-0.58649v4.9312h-1.4199v-1.3119q-0.48617 0.78713-1.2116 1.1653-0.72539 0.37042-1.7749 0.37042-1.3273 0-2.1144-0.74083-0.77942-0.74855-0.77942-1.9987 0-1.4585 0.97234-2.1993 0.98006-0.74083 2.917-0.74083h1.991v-0.13891q0-0.98006-0.64823-1.5125-0.64051-0.54019-1.8058-0.54019-0.74083 0-1.4431 0.17749t-1.3505 0.53247v-1.3119q0.77941-0.30096 1.5125-0.44759 0.73311-0.15434 1.4276-0.15434 1.8752 0 2.8013 0.97234t0.92604 2.9479z" style=""/>
   <path id="path62" d="m639.33 88.159q-0.23923-0.13891-0.52475-0.20064-0.27782-0.06945-0.61736-0.06945-1.2038 0-1.8521 0.78713-0.64051 0.77942-0.64051 2.2456v4.553h-1.4276v-8.643h1.4276v1.3428q0.44758-0.78713 1.1653-1.1653 0.71768-0.38585 1.744-0.38585 0.14663 0 0.32412 0.02315 0.17749 0.01543 0.39356 0.05402z" style=""/>
   <path id="path64" d="m652.59 88.491q0.53248-0.95691 1.2733-1.4122 0.74083-0.4553 1.744-0.4553 1.3505 0 2.0836 0.94919 0.73312 0.94147 0.73312 2.6855v5.2167h-1.4276v-5.1704q0-1.2424-0.43987-1.8444-0.43987-0.60192-1.3428-0.60192-1.1035 0-1.744 0.73311-0.64051 0.73312-0.64051 1.9987v4.8849h-1.4276v-5.1704q0-1.2502-0.43987-1.8444-0.43987-0.60192-1.3582-0.60192-1.0881 0-1.7286 0.74083-0.64051 0.73312-0.64051 1.991v4.8849h-1.4276v-8.643h1.4276v1.3428q0.48617-0.79485 1.1653-1.173 0.67909-0.37813 1.6128-0.37813 0.94147 0 1.5974 0.47845 0.66367 0.47845 0.98006 1.3891z" style=""/>
   <path id="path66" d="m665.19 91.13q-1.7209 0-2.3846 0.39357-0.66366 0.39357-0.66366 1.3428 0 0.75626 0.49388 1.2039 0.50161 0.43987 1.3582 0.43987 1.1807 0 1.8907-0.83344 0.71768-0.84115 0.71768-2.2302v-0.3164zm2.8321-0.58649v4.9312h-1.4199v-1.3119q-0.48617 0.78713-1.2116 1.1653-0.7254 0.37042-1.7749 0.37042-1.3273 0-2.1144-0.74083-0.77942-0.74855-0.77942-1.9987 0-1.4585 0.97234-2.1993 0.98006-0.74083 2.917-0.74083h1.991v-0.13891q0-0.98006-0.64823-1.5125-0.64051-0.54019-1.8058-0.54019-0.74083 0-1.4431 0.17749-0.70225 0.17749-1.3505 0.53247v-1.3119q0.77942-0.30096 1.5125-0.44759 0.73312-0.15434 1.4276-0.15434 1.8752 0 2.8013 0.97234 0.92603 0.97234 0.92603 2.9479z" style=""/>
   <path id="path68" d="m676.47 87.087v1.3428q-0.60193-0.30868-1.2502-0.46302-0.64822-0.15434-1.3428-0.15434-1.0572 0-1.5897 0.32411-0.52476 0.32411-0.52476 0.97234 0 0.49389 0.37813 0.77942 0.37814 0.27781 1.5202 0.53247l0.48617 0.10804q1.5125 0.32411 2.1453 0.91832 0.64051 0.58649 0.64051 1.6437 0 1.2039-0.9569 1.9061-0.94919 0.70225-2.6161 0.70225-0.69453 0-1.4508-0.13891-0.74855-0.13119-1.582-0.40128v-1.4662q0.78713 0.409 1.5511 0.61736 0.76399 0.20064 1.5125 0.20064 1.0032 0 1.5434-0.33955 0.54019-0.34726 0.54019-0.97234 0-0.57878-0.39356-0.88745-0.38585-0.30868-1.7055-0.59421l-0.49389-0.11576q-1.3196-0.27781-1.9061-0.84887-0.58649-0.57877-0.58649-1.582 0-1.2193 0.8643-1.8829 0.8643-0.66366 2.454-0.66366 0.78714 0 1.4817 0.11576 0.69453 0.11576 1.281 0.34726z" style=""/>
   <path id="path70" d="m682.55 87.827q-1.1421 0-1.8058 0.89517-0.66367 0.88745-0.66367 2.4386 0 1.5511 0.65595 2.4463 0.66366 0.88745 1.8135 0.88745 1.1344 0 1.7981-0.89517t0.66366-2.4386q0-1.5357-0.66366-2.4309-0.66366-0.90289-1.7981-0.90289zm0-1.2039q1.8521 0 2.9093 1.2039t1.0572 3.3337q0 2.1222-1.0572 3.3337-1.0572 1.2039-2.9093 1.2039-1.8598 0-2.917-1.2039-1.0495-1.2116-1.0495-3.3337 0-2.1299 1.0495-3.3337 1.0572-1.2039 2.917-1.2039z" style=""/>
   <path id="path72" d="m688.86 83.467h1.4199v12.008h-1.4199z" style=""/>
   <path id="path74" d="m697.17 91.13q-1.7209 0-2.3846 0.39357-0.66367 0.39357-0.66367 1.3428 0 0.75626 0.49389 1.2039 0.50161 0.43987 1.3582 0.43987 1.1807 0 1.8907-0.83344 0.71768-0.84115 0.71768-2.2302v-0.3164zm2.8321-0.58649v4.9312h-1.4199v-1.3119q-0.48617 0.78713-1.2116 1.1653-0.7254 0.37042-1.7749 0.37042-1.3273 0-2.1145-0.74083-0.77941-0.74855-0.77941-1.9987 0-1.4585 0.97234-2.1993 0.98006-0.74083 2.917-0.74083h1.991v-0.13891q0-0.98006-0.64823-1.5125-0.64051-0.54019-1.8058-0.54019-0.74083 0-1.4431 0.17749-0.70224 0.17749-1.3505 0.53247v-1.3119q0.77942-0.30096 1.5125-0.44759 0.73312-0.15434 1.4276-0.15434 1.8752 0 2.8013 0.97234t0.92604 2.9479z" style=""/>
   <path id="path76" d="m704.34 84.378v2.454h2.9247v1.1035h-2.9247v4.6919q0 1.0572 0.28553 1.3582 0.29325 0.30096 1.1807 0.30096h1.4585v1.1884h-1.4585q-1.6437 0-2.2688-0.60964-0.62508-0.61736-0.62508-2.2379v-4.6919h-1.0418v-1.1035h1.0418v-2.454z" style=""/>
   <path id="path78" d="m709.01 83.467h3.272v1.1035h-1.8521v11.884h1.8521v1.1035h-3.272z" style=""/>
   <path id="path80" d="m718.63 83.467v14.091h-3.272v-1.1035h1.8444v-11.884h-1.8444v-1.1035z" style=""/>
  </g>
  <g id="text26" aria-label="char *ide">
   <path id="path83" d="m655.69 157.16v1.3273q-0.60192-0.33183-1.2116-0.49389-0.60192-0.16977-1.2193-0.16977-1.3813 0-2.1453 0.87973-0.76399 0.87202-0.76399 2.454 0 1.582 0.76399 2.4617 0.76398 0.87202 2.1453 0.87202 0.61736 0 1.2193-0.16206 0.60965-0.16977 1.2116-0.5016v1.3119q-0.59421 0.27781-1.2347 0.41671-0.63279 0.13891-1.3505 0.13891-1.9524 0-3.1022-1.227t-1.1498-3.3106q0-2.1145 1.1576-3.326 1.1653-1.2116 3.1871-1.2116 0.65595 0 1.281 0.1389 0.62508 0.13119 1.2116 0.40129z" style=""/>
   <path id="path85" d="m665.36 160.26v5.2167h-1.4199v-5.1704q0-1.227-0.47846-1.8366-0.47845-0.60965-1.4354-0.60965-1.1498 0-1.8135 0.73312-0.66366 0.73311-0.66366 1.9987v4.8849h-1.4276v-12.008h1.4276v4.7074q0.50932-0.77941 1.1961-1.1653 0.69453-0.38585 1.5974-0.38585 1.4894 0 2.2534 0.92603 0.76398 0.91833 0.76398 2.7087z" style=""/>
   <path id="path87" d="m672.14 161.13q-1.7209 0-2.3846 0.39357-0.66366 0.39356-0.66366 1.3428 0 0.75627 0.49389 1.2038 0.5016 0.43987 1.3582 0.43987 1.1807 0 1.8907-0.83343 0.71768-0.84116 0.71768-2.2302v-0.3164zm2.8321-0.58649v4.9312h-1.4199v-1.3119q-0.48617 0.78713-1.2116 1.1653-0.7254 0.37042-1.7749 0.37042-1.3273 0-2.1145-0.74083-0.77941-0.74855-0.77941-1.9987 0-1.4585 0.97234-2.1994 0.98005-0.74083 2.917-0.74083h1.991v-0.1389q0-0.98006-0.64822-1.5125-0.64051-0.54019-1.8058-0.54019-0.74083 0-1.4431 0.17749-0.70224 0.17749-1.3505 0.53247v-1.3119q0.77941-0.30096 1.5125-0.44758 0.73311-0.15434 1.4276-0.15434 1.8752 0 2.8013 0.97234t0.92604 2.9479z" style=""/>
   <path id="path89" d="m682.91 158.16q-0.23922-0.13891-0.52475-0.20064-0.27781-0.0695-0.61736-0.0695-1.2038 0-1.8521 0.78714-0.64051 0.77941-0.64051 2.2456v4.553h-1.4276v-8.643h1.4276v1.3428q0.44759-0.78713 1.1653-1.1653 0.71768-0.38585 1.744-0.38585 0.14662 0 0.32411 0.0232 0.17749 0.0154 0.39357 0.054z" style=""/>
   <path id="path91" d="m695.39 155.85-2.7704 1.4971 2.7704 1.5048-0.44758 0.75626-2.5929-1.5666v2.9093h-0.87974v-2.9093l-2.5929 1.5666-0.44758-0.75626 2.7704-1.5048-2.7704-1.4971 0.44758-0.76399 2.5929 1.5666v-2.9093h0.87974v2.9093l2.5929-1.5666z" style=""/>
   <path id="path93" d="m697.35 156.83h1.4199v8.643h-1.4199zm0-3.3646h1.4199v1.7981h-1.4199z" style=""/>
   <path id="path95" d="m707.42 158.14v-4.6765h1.4199v12.008h-1.4199v-1.2965q-0.44758 0.7717-1.1344 1.1498-0.67909 0.37042-1.636 0.37042-1.5666 0-2.5543-1.2502-0.98006-1.2502-0.98006-3.2874 0-2.0373 0.98006-3.2874 0.98777-1.2502 2.5543-1.2502 0.95691 0 1.636 0.37813 0.68682 0.37041 1.1344 1.1421zm-4.8386 3.0174q0 1.5666 0.64051 2.4617 0.64823 0.88745 1.7749 0.88745t1.7749-0.88745q0.64823-0.89517 0.64823-2.4617t-0.64823-2.454q-0.64822-0.89517-1.7749-0.89517t-1.7749 0.89517q-0.64051 0.88746-0.64051 2.454z" style=""/>
   <path id="path97" d="m719.16 160.8v0.69453h-6.5286q0.0926 1.4662 0.87974 2.2379 0.79485 0.76398 2.2071 0.76398 0.818 0 1.582-0.20064 0.7717-0.20065 1.528-0.60193v1.3428q-0.76399 0.32411-1.5666 0.49389-0.80257 0.16977-1.6283 0.16977-2.0682 0-3.2797-1.2038-1.2038-1.2038-1.2038-3.2566 0-2.1222 1.1421-3.3646 1.1498-1.2502 3.0945-1.2502 1.744 0 2.755 1.1267 1.0186 1.119 1.0186 3.0482zm-1.4199-0.41672q-0.0154-1.1653-0.65594-1.8598-0.6328-0.69453-1.6823-0.69453-1.1884 0-1.9061 0.67137-0.70996 0.67138-0.818 1.8907z" style=""/>
  </g>
  <path id="rect28" d="m1090 70h40v40h-40z" fill="#7babe3" stroke="#000" stroke-width="2"/>
  <path id="rect30" d="m1130 70h40v40h-40z" fill="#7babe3" stroke="#000" stroke-width="2"/>
  <path id="rect32" d="m1170 70h40v40h-40z" fill="#7babe3" stroke="#000" stroke-width="2"/>
  <path id="rect34" d="m1210 70h40v40h-40z" fill="#7babe3" stroke="#000" stroke-width="2"/>
  <path id="rect36" d="m1250 70h40v40h-40z" fill="#7babe3" stroke="#000" stroke-width="2"/>
  <path id="rect38" d="m1090 140h40v40h-40z" fill="#fdfd04" stroke="#000" stroke-width="2"/>
  <g id="g44" stroke="#000" stroke-width="2">
   <path id="path40" d="m1110 139v-18.274" fill="none"/>
   <path id="polygon42" d="m1110 120.73-5 2.5 5-10 5 10z" fill-rule="evenodd"/>
  </g>
  <g id="text48" aria-label="H">
   <path id="path107" d="m1105.6 83.954h1.5589v4.7228h5.6642v-4.7228h1.5589v11.521h-1.5589v-5.4868h-5.6642v5.4868h-1.5589z" style=""/>
  </g>
  <g id="text52" aria-label="e">
   <path id="path110" d="m1154 90.799v0.69453h-6.5286q0.093 1.4662 0.8797 2.2379 0.7949 0.76398 2.2071 0.76398 0.818 0 1.582-0.20064 0.7717-0.20064 1.5279-0.60193v1.3428q-0.764 0.32411-1.5665 0.49389-0.8026 0.16977-1.6283 0.16977-2.0682 0-3.2797-1.2039-1.2039-1.2038-1.2039-3.2566 0-2.1222 1.1421-3.3646 1.1499-1.2502 3.0945-1.2502 1.7441 0 2.755 1.1267 1.0187 1.119 1.0187 3.0482zm-1.42-0.41672q-0.015-1.1653-0.6559-1.8598-0.6328-0.69453-1.6823-0.69453-1.1884 0-1.9061 0.67138-0.71 0.67138-0.818 1.8907z" style=""/>
  </g>
  <g id="text56" aria-label="l">
   <path id="path113" d="m1189.3 83.467h1.4199v12.008h-1.4199z" style=""/>
  </g>
  <g id="text60" aria-label="l">
   <path id="path116" d="m1229.3 83.467h1.4199v12.008h-1.4199z" style=""/>
  </g>
  <g id="text64" aria-label="o">
   <path id="path119" d="m1270 87.827q-1.1421 0-1.8058 0.89517-0.6636 0.88745-0.6636 2.4386 0 1.5511 0.6559 2.4463 0.6637 0.88745 1.8135 0.88745 1.1344 0 1.7981-0.89517 0.6636-0.89517 0.6636-2.4386 0-1.5357-0.6636-2.4309-0.6637-0.90289-1.7981-0.90289zm0-1.2039q1.8521 0 2.9093 1.2039 1.0573 1.2039 1.0573 3.3337 0 2.1222-1.0573 3.3337-1.0572 1.2039-2.9093 1.2039-1.8598 0-2.917-1.2039-1.0495-1.2116-1.0495-3.3337 0-2.1299 1.0495-3.3337 1.0572-1.2039 2.917-1.2039z" style=""/>
  </g>
  <path id="rect66" d="m1290 70h40v40h-40z" fill="#7babe3" stroke="#000" stroke-width="2"/>
  <g id="text70" aria-label="\0">
   <path id="path123" d="m1303.6 83.954 4.0129 12.988h-1.3119l-4.0129-12.988z" style=""/>
   <path id="path125" d="m1312.7 84.98q-1.2039 0-1.8135 1.1884-0.602 1.1807-0.602 3.5575 0 2.3691 0.602 3.5575 0.6096 1.1807 1.8135 1.1807 1.2115 0 1.8135-1.1807 0.6096-1.1884 0.6096-3.5575 0-2.3768-0.6096-3.5575-0.602-1.1884-1.8135-1.1884zm0-1.2347q1.9369 0 2.9556 1.5357 1.0263 1.528 1.0263 4.445 0 2.9093-1.0263 4.445-1.0187 1.528-2.9556 1.528-1.937 0-2.9634-1.528-1.0186-1.5357-1.0186-4.445 0-2.917 1.0186-4.445 1.0264-1.5357 2.9634-1.5357z" style=""/>
  </g>
  <g id="text74" aria-label="char eredeti[]">
   <path id="path128" d="m979.42 87.164v1.3273q-0.60193-0.33183-1.2116-0.49389-0.60193-0.16977-1.2193-0.16977-1.3814 0-2.1453 0.87974-0.76398 0.87202-0.76398 2.454 0 1.582 0.76398 2.4617 0.76398 0.87202 2.1453 0.87202 0.61735 0 1.2193-0.16206 0.60964-0.16977 1.2116-0.5016v1.3119q-0.59421 0.27781-1.2347 0.41672-0.63279 0.13891-1.3505 0.13891-1.9524 0-3.1022-1.227-1.1498-1.227-1.1498-3.3106 0-2.1145 1.1576-3.326 1.1653-1.2116 3.1871-1.2116 0.65594 0 1.281 0.13891 0.62508 0.13119 1.2116 0.40128z" style=""/>
   <path id="path130" d="m989.09 90.258v5.2167h-1.4199v-5.1704q0-1.227-0.47845-1.8366-0.47845-0.60964-1.4354-0.60964-1.1498 0-1.8135 0.73311-0.66367 0.73312-0.66367 1.9987v4.8849h-1.4276v-12.008h1.4276v4.7074q0.50933-0.77942 1.1961-1.1653 0.69453-0.38585 1.5974-0.38585 1.4894 0 2.2534 0.92604 0.76398 0.91832 0.76398 2.7087z" style=""/>
   <path id="path132" d="m995.87 91.13q-1.7209 0-2.3846 0.39357-0.66366 0.39357-0.66366 1.3428 0 0.75626 0.49389 1.2039 0.5016 0.43987 1.3582 0.43987 1.1807 0 1.8907-0.83344 0.71768-0.84115 0.71768-2.2302v-0.3164zm2.8321-0.58649v4.9312h-1.4199v-1.3119q-0.48617 0.78713-1.2116 1.1653-0.7254 0.37042-1.7749 0.37042-1.3273 0-2.1144-0.74083-0.77942-0.74855-0.77942-1.9987 0-1.4585 0.97234-2.1993 0.98006-0.74083 2.917-0.74083h1.991v-0.13891q0-0.98006-0.64823-1.5125-0.64051-0.54019-1.8058-0.54019-0.74084 0-1.4431 0.17749-0.70225 0.17749-1.3505 0.53247v-1.3119q0.77942-0.30096 1.5125-0.44759 0.73312-0.15434 1.4276-0.15434 1.8752 0 2.8013 0.97234t0.92604 2.9479z" style=""/>
   <path id="path134" d="m1006.6 88.159q-0.2393-0.13891-0.5248-0.20064-0.2778-0.06945-0.6173-0.06945-1.2039 0-1.8521 0.78713-0.6405 0.77942-0.6405 2.2456v4.553h-1.4277v-8.643h1.4277v1.3428q0.4476-0.78713 1.1652-1.1653 0.7177-0.38585 1.7441-0.38585 0.1466 0 0.3241 0.02315 0.1775 0.01543 0.3936 0.05402z" style=""/>
   <path id="path136" d="m1020.6 90.799v0.69453h-6.5285q0.093 1.4662 0.8797 2.2379 0.7949 0.76398 2.2071 0.76398 0.818 0 1.5819-0.20064 0.7717-0.20064 1.528-0.60193v1.3428q-0.764 0.32411-1.5665 0.49389-0.8026 0.16977-1.6283 0.16977-2.0682 0-3.2797-1.2039-1.2039-1.2038-1.2039-3.2566 0-2.1222 1.1421-3.3646 1.1499-1.2502 3.0945-1.2502 1.7441 0 2.755 1.1267 1.0186 1.119 1.0186 3.0482zm-1.4199-0.41672q-0.015-1.1653-0.6559-1.8598-0.6328-0.69453-1.6823-0.69453-1.1884 0-1.9061 0.67138-0.71 0.67138-0.818 1.8907z" style=""/>
   <path id="path138" d="m1027.9 88.159q-0.2392-0.13891-0.5248-0.20064-0.2778-0.06945-0.6173-0.06945-1.2039 0-1.8521 0.78713-0.6405 0.77942-0.6405 2.2456v4.553h-1.4276v-8.643h1.4276v1.3428q0.4476-0.78713 1.1653-1.1653 0.7176-0.38585 1.744-0.38585 0.1466 0 0.3241 0.02315 0.1775 0.01543 0.3936 0.05402z" style=""/>
   <path id="path140" d="m1036.5 90.799v0.69453h-6.5285q0.093 1.4662 0.8797 2.2379 0.7949 0.76398 2.2071 0.76398 0.818 0 1.582-0.20064 0.7716-0.20064 1.5279-0.60193v1.3428q-0.764 0.32411-1.5665 0.49389-0.8026 0.16977-1.6283 0.16977-2.0682 0-3.2797-1.2039-1.2039-1.2038-1.2039-3.2566 0-2.1222 1.1421-3.3646 1.1499-1.2502 3.0945-1.2502 1.7441 0 2.755 1.1267 1.0186 1.119 1.0186 3.0482zm-1.4199-0.41672q-0.015-1.1653-0.6559-1.8598-0.6328-0.69453-1.6823-0.69453-1.1884 0-1.9061 0.67138-0.71 0.67138-0.818 1.8907z" style=""/>
   <path id="path142" d="m1044.5 88.144v-4.6765h1.4199v12.008h-1.4199v-1.2965q-0.4476 0.7717-1.1344 1.1498-0.6791 0.37042-1.636 0.37042-1.5665 0-2.5543-1.2502-0.9801-1.2502-0.9801-3.2874t0.9801-3.2874q0.9878-1.2502 2.5543-1.2502 0.9569 0 1.636 0.37813 0.6868 0.37042 1.1344 1.1421zm-4.8386 3.0173q0 1.5665 0.6406 2.4617 0.6482 0.88745 1.7749 0.88745 1.1266 0 1.7749-0.88745 0.6482-0.89517 0.6482-2.4617 0-1.5666-0.6482-2.454-0.6483-0.89517-1.7749-0.89517-1.1267 0-1.7749 0.89517-0.6406 0.88745-0.6406 2.454z" style=""/>
   <path id="path144" d="m1056.2 90.799v0.69453h-6.5285q0.093 1.4662 0.8797 2.2379 0.7949 0.76398 2.2071 0.76398 0.818 0 1.582-0.20064 0.7717-0.20064 1.5279-0.60193v1.3428q-0.764 0.32411-1.5665 0.49389-0.8026 0.16977-1.6283 0.16977-2.0682 0-3.2797-1.2039-1.2039-1.2038-1.2039-3.2566 0-2.1222 1.1421-3.3646 1.1499-1.2502 3.0945-1.2502 1.7441 0 2.755 1.1267 1.0186 1.119 1.0186 3.0482zm-1.4199-0.41672q-0.015-1.1653-0.6559-1.8598-0.6328-0.69453-1.6823-0.69453-1.1884 0-1.9061 0.67138-0.71 0.67138-0.818 1.8907z" style=""/>
   <path id="path146" d="m1060 84.378v2.454h2.9247v1.1035h-2.9247v4.6919q0 1.0572 0.2855 1.3582 0.2932 0.30096 1.1807 0.30096h1.4585v1.1884h-1.4585q-1.6437 0-2.2688-0.60964-0.6251-0.61736-0.6251-2.2379v-4.6919h-1.0418v-1.1035h1.0418v-2.454z" style=""/>
   <path id="path148" d="m1064.8 86.832h1.42v8.643h-1.42zm0-3.3646h1.42v1.7981h-1.42z" style=""/>
   <path id="path150" d="m1069 83.467h3.272v1.1035h-1.8521v11.884h1.8521v1.1035h-3.272z" style=""/>
   <path id="path152" d="m1078.6 83.467v14.091h-3.272v-1.1035h1.8443v-11.884h-1.8443v-1.1035z" style=""/>
  </g>
  <g id="text78" aria-label="char *innen">
   <path id="path155" d="m995.63 157.16v1.3273q-0.60192-0.33183-1.2116-0.49389-0.60192-0.16977-1.2193-0.16977-1.3813 0-2.1453 0.87973-0.76399 0.87202-0.76399 2.454 0 1.582 0.76399 2.4617 0.76398 0.87202 2.1453 0.87202 0.61736 0 1.2193-0.16206 0.60965-0.16977 1.2116-0.5016v1.3119q-0.59421 0.27781-1.2347 0.41671-0.63279 0.13891-1.3505 0.13891-1.9524 0-3.1022-1.227t-1.1498-3.3106q0-2.1145 1.1576-3.326 1.1653-1.2116 3.1871-1.2116 0.65595 0 1.281 0.1389 0.62508 0.13119 1.2116 0.40129z" style=""/>
   <path id="path157" d="m1005.3 160.26v5.2167h-1.4199v-5.1704q0-1.227-0.4785-1.8366-0.4784-0.60965-1.4353-0.60965-1.1499 0-1.8135 0.73312-0.66368 0.73311-0.66368 1.9987v4.8849h-1.4276v-12.008h1.4276v4.7074q0.50932-0.77941 1.1962-1.1653 0.6945-0.38585 1.5974-0.38585 1.4893 0 2.2533 0.92603 0.764 0.91833 0.764 2.7087z" style=""/>
   <path id="path159" d="m1012.1 161.13q-1.7209 0-2.3845 0.39357-0.6637 0.39356-0.6637 1.3428 0 0.75627 0.4939 1.2038 0.5016 0.43987 1.3582 0.43987 1.1807 0 1.8907-0.83343 0.7176-0.84116 0.7176-2.2302v-0.3164zm2.8322-0.58649v4.9312h-1.42v-1.3119q-0.4861 0.78713-1.2115 1.1653-0.7254 0.37042-1.7749 0.37042-1.3274 0-2.1145-0.74083-0.7794-0.74855-0.7794-1.9987 0-1.4585 0.9723-2.1994 0.9801-0.74083 2.9171-0.74083h1.9909v-0.1389q0-0.98006-0.6482-1.5125-0.6405-0.54019-1.8058-0.54019-0.7408 0-1.443 0.17749-0.7023 0.17749-1.3505 0.53247v-1.3119q0.7794-0.30096 1.5125-0.44758 0.7331-0.15434 1.4277-0.15434 1.8752 0 2.8012 0.97234 0.9261 0.97234 0.9261 2.9479z" style=""/>
   <path id="path161" d="m1022.8 158.16q-0.2393-0.13891-0.5248-0.20064-0.2778-0.0695-0.6174-0.0695-1.2038 0-1.852 0.78714-0.6405 0.77941-0.6405 2.2456v4.553h-1.4277v-8.643h1.4277v1.3428q0.4475-0.78713 1.1652-1.1653 0.7177-0.38585 1.7441-0.38585 0.1466 0 0.3241 0.0232 0.1775 0.0154 0.3935 0.054z" style=""/>
   <path id="path163" d="m1035.3 155.85-2.7704 1.4971 2.7704 1.5048-0.4476 0.75626-2.5929-1.5666v2.9093h-0.8797v-2.9093l-2.5929 1.5666-0.4476-0.75626 2.7704-1.5048-2.7704-1.4971 0.4476-0.76399 2.5929 1.5666v-2.9093h0.8797v2.9093l2.5929-1.5666z" style=""/>
   <path id="path165" d="m1037.3 156.83h1.42v8.643h-1.42zm0-3.3646h1.42v1.7981h-1.42z" style=""/>
   <path id="path167" d="m1048.9 160.26v5.2167h-1.4199v-5.1704q0-1.227-0.4785-1.8366-0.4784-0.60965-1.4353-0.60965-1.1499 0-1.8135 0.73312-0.6637 0.73311-0.6637 1.9987v4.8849h-1.4276v-8.643h1.4276v1.3428q0.5093-0.77941 1.1962-1.1653 0.6945-0.38585 1.5974-0.38585 1.4894 0 2.2533 0.92603 0.764 0.91833 0.764 2.7087z" style=""/>
   <path id="path169" d="m1058.9 160.26v5.2167h-1.4199v-5.1704q0-1.227-0.4785-1.8366-0.4784-0.60965-1.4353-0.60965-1.1499 0-1.8135 0.73312-0.6637 0.73311-0.6637 1.9987v4.8849h-1.4276v-8.643h1.4276v1.3428q0.5093-0.77941 1.1961-1.1653 0.6946-0.38585 1.5975-0.38585 1.4893 0 2.2533 0.92603 0.764 0.91833 0.764 2.7087z" style=""/>
   <path id="path171" d="m1069.1 160.8v0.69453h-6.5286q0.093 1.4662 0.8797 2.2379 0.7949 0.76398 2.2071 0.76398 0.818 0 1.582-0.20064 0.7717-0.20065 1.5279-0.60193v1.3428q-0.764 0.32411-1.5665 0.49389-0.8026 0.16977-1.6283 0.16977-2.0682 0-3.2797-1.2038-1.2039-1.2038-1.2039-3.2566 0-2.1222 1.1421-3.3646 1.1499-1.2502 3.0945-1.2502 1.7441 0 2.755 1.1267 1.0187 1.119 1.0187 3.0482zm-1.42-0.41672q-0.015-1.1653-0.6559-1.8598-0.6328-0.69453-1.6823-0.69453-1.1884 0-1.9061 0.67137-0.71 0.67138-0.818 1.8907z" style=""/>
   <path id="path173" d="m1078.6 160.26v5.2167h-1.4199v-5.1704q0-1.227-0.4785-1.8366-0.4784-0.60965-1.4353-0.60965-1.1499 0-1.8135 0.73312-0.6637 0.73311-0.6637 1.9987v4.8849h-1.4276v-8.643h1.4276v1.3428q0.5093-0.77941 1.1962-1.1653 0.6945-0.38585 1.5974-0.38585 1.4893 0 2.2533 0.92603 0.764 0.91833 0.764 2.7087z" style=""/>
  </g>
  <path id="line80" d="m890 70h40" fill="none" stroke="#000" stroke-width="2"/>
  <path id="line82" d="m890 110h40" fill="none" stroke="#000" stroke-width="2"/>
  <g id="text86" aria-label="...">
   <path id="path178" d="m906.6 91.515h1.6283v1.9601h-1.6283z" style=""/>
   <path id="path180" d="m911.63 91.515h1.6283v1.9601h-1.6283z" style=""/>
   <path id="path182" d="m916.66 91.515h1.6283v1.9601h-1.6283z" style=""/>
  </g>
 </g>
</svg>
