<?xml version="1.0" encoding="UTF-8" standalone="no"?>
<svg id="svg2" xmlns:rdf="http://www.w3.org/1999/02/22-rdf-syntax-ns#" xmlns="http://www.w3.org/2000/svg" viewBox="418 106 202.00001 81.085723" height="4.6601cm" width="10.946cm" version="1.1" xmlns:cc="http://creativecommons.org/ns#" xmlns:dc="http://purl.org/dc/elements/1.1/">
 <metadata id="metadata74">
  <rdf:RDF>
   <cc:Work rdf:about="">
    <dc:format>image/svg+xml</dc:format>
    <dc:type rdf:resource="http://purl.org/dc/dcmitype/StillImage"/>
   </cc:Work>
  </rdf:RDF>
 </metadata>
 <g id="g4" stroke="#f00" stroke-width="2" fill="none" transform="translate(-1 -3.4571)">
  <path id="polyline6" d="m440 168v-18h120v-13.528"/>
  <path id="polyline8" d="m563 140.24-3-6-3 6"/>
 </g>
 <g id="g10" transform="translate(-1 -3.4571)">
  <path id="rect12" fill="#fff" d="m420 108h40v24h-40z"/>
  <path id="rect14" d="m420 108h40v24h-40z" stroke="#000" stroke-width="2" fill="none"/>
  <g id="text16">
   <path id="path45" style="" d="m434.34 115.42-3.3734 5.2718h3.3734v-5.2718zm-0.35057-1.1642h1.6801v6.436h1.4089v1.1112h-1.4089v2.3283h-1.3295v-2.3283h-4.4582v-1.2898l4.1077-6.2574z"/>
   <path id="path47" style="" d="m439.29 122.45h1.3957v1.6801h-1.3957v-1.6801z"/>
   <path id="path49" style="" d="m443.62 114.26h5.2454v1.1245h-4.0217v2.4209q0.29104-0.0992 0.58208-0.14552 0.29104-0.0529 0.58209-0.0529 1.6536 0 2.6194 0.9062 0.96573 0.9062 0.96573 2.454 0 1.5941-0.99219 2.4805-0.99219 0.87975-2.798 0.87975-0.62177 0-1.27-0.10584-0.64162-0.10583-1.3295-0.3175v-1.3428q0.59531 0.32411 1.2303 0.48286 0.635 0.15875 1.3428 0.15875 1.1443 0 1.8124-0.60192 0.66807-0.60193 0.66807-1.6338t-0.66807-1.6338q-0.66808-0.60192-1.8124-0.60192-0.53579 0-1.0716 0.11906-0.52917 0.11906-1.0848 0.37042v-4.961z"/>
  </g>
 </g>
 <g id="g20" transform="translate(-1 -3.4571)">
  <path id="rect22" fill="#fff" d="m460 108h40v24h-40z"/>
  <path id="rect24" d="m460 108h40v24h-40z" stroke="#000" stroke-width="2" fill="none"/>
  <g id="text26">
   <path id="path54" style="" d="m470.71 123.93v-1.2171q0.50271 0.23813 1.0186 0.36381 0.51593 0.12567 1.012 0.12567 1.3229 0 2.0174-0.88635 0.70115-0.89297 0.80037-2.7054-0.38365 0.56885-0.97235 0.87312-0.5887 0.30428-1.3031 0.30428-1.4817 0-2.3482-0.89297-0.85989-0.89959-0.85989-2.454 0-1.5214 0.89958-2.4408 0.89959-0.91943 2.3945-0.91943 1.7132 0 2.6128 1.3163 0.9062 1.3097 0.9062 3.81 0 2.335-1.1112 3.7306-1.1046 1.3891-2.9766 1.3891-0.50271 0-1.0186-0.0992-0.51594-0.0992-1.0716-0.29766zm2.6591-4.187q0.89958 0 1.4221-0.61516 0.52916-0.61516 0.52916-1.6867 0-1.065-0.52916-1.6801-0.52256-0.62177-1.4221-0.62177-0.89959 0-1.4288 0.62177-0.52255 0.61516-0.52255 1.6801 0 1.0716 0.52255 1.6867 0.52917 0.61516 1.4288 0.61516z"/>
   <path id="path56" style="" d="m479.29 122.45h1.3957v1.6801h-1.3957v-1.6801z"/>
   <path id="path58" style="" d="m484.76 123.01h4.6633v1.1245h-6.2706v-1.1245q0.76068-0.78714 2.0704-2.1101 1.3163-1.3295 1.6536-1.7132 0.64161-0.72099 0.89297-1.2171 0.25797-0.50271 0.25797-0.98558 0-0.78714-0.55563-1.2832-0.54901-0.4961-1.4354-0.4961-0.62838 0-1.3295 0.21829-0.69453 0.21828-1.4883 0.66146v-1.3494q0.80698-0.32412 1.5081-0.48948 0.70115-0.16537 1.2832-0.16537 1.5346 0 2.4474 0.7673 0.91281 0.76729 0.91281 2.0505 0 0.60854-0.23151 1.1576-0.22489 0.54239-0.82682 1.2832-0.16537 0.19182-1.0517 1.1112-0.88636 0.91282-2.5003 2.5598z"/>
  </g>
 </g>
 <g id="g30" transform="translate(-1 -3.4571)">
  <path id="rect32" fill="#fff" d="m500 108h40v24h-40z"/>
  <path id="rect34" d="m500 108h40v24h-40z" stroke="#000" stroke-width="2" fill="none"/>
  <g id="text36">
   <path id="path63" style="" d="m510.33 114.26h6.35v0.56885l-3.5851 9.3067h-1.3957l3.3734-8.7511h-4.7427v-1.1245z"/>
   <path id="path65" style="" d="m519.29 122.45h1.3957v1.6801h-1.3957v-1.6801z"/>
   <path id="path67" style="" d="m523.84 123.01h2.1828v-7.534l-2.3746 0.47625v-1.2171l2.3614-0.47625h1.3362v8.7511h2.1828v1.1245h-5.6886v-1.1245z"/>
  </g>
 </g>
 <g id="g40" transform="translate(-1 -3.4571)">
  <path id="rect42" fill="#ff0" d="m540 108h40v24h-40z"/>
  <path id="rect44" d="m540 108h40v24h-40z" stroke="#000" stroke-width="2" fill="none"/>
  <g id="text46">
   <path id="path72" style="" d="m547.43 119.88h3.5653v1.0848h-3.5653v-1.0848z"/>
   <path id="path74" style="" d="m556.14 118.66q-0.89958 0-1.4288 0.61516-0.52255 0.61516-0.52255 1.6867 0 1.065 0.52255 1.6867 0.52917 0.61516 1.4288 0.61516 0.89959 0 1.4221-0.61516 0.52917-0.62177 0.52917-1.6867 0-1.0716-0.52917-1.6867-0.52255-0.61516-1.4221-0.61516zm2.6525-4.187v1.2171q-0.50271-0.23812-1.0186-0.3638-0.50932-0.12568-1.012-0.12568-1.3229 0-2.0241 0.89297-0.69453 0.89298-0.79375 2.6988 0.39026-0.57547 0.97896-0.87974 0.5887-0.31089 1.2965-0.31089 1.4883 0 2.3482 0.9062 0.86651 0.89959 0.86651 2.454 0 1.5214-0.89958 2.4408-0.89959 0.91943-2.3945 0.91943-1.7132 0-2.6194-1.3097-0.9062-1.3163-0.9062-3.81 0-2.3416 1.1113-3.7306 1.1112-1.3957 2.9832-1.3957 0.50271 0 1.012 0.0992 0.51594 0.0992 1.0716 0.29766z"/>
   <path id="path76" style="" d="m561.74 122.45h1.3957v1.6801h-1.3957v-1.6801z"/>
   <path id="path78" style="" d="m566.09 123.93v-1.2171q0.50271 0.23813 1.0186 0.36381 0.51594 0.12567 1.012 0.12567 1.3229 0 2.0174-0.88635 0.70115-0.89297 0.80037-2.7054-0.38365 0.56885-0.97235 0.87312-0.5887 0.30428-1.3031 0.30428-1.4817 0-2.3482-0.89297-0.8599-0.89959-0.8599-2.454 0-1.5214 0.89959-2.4408 0.89959-0.91943 2.3945-0.91943 1.7132 0 2.6128 1.3163 0.9062 1.3097 0.9062 3.81 0 2.335-1.1112 3.7306-1.1046 1.3891-2.9766 1.3891-0.50271 0-1.0186-0.0992-0.51594-0.0992-1.0716-0.29766zm2.6591-4.187q0.89958 0 1.4221-0.61516 0.52917-0.61516 0.52917-1.6867 0-1.065-0.52917-1.6801-0.52255-0.62177-1.4221-0.62177-0.89959 0-1.4288 0.62177-0.52255 0.61516-0.52255 1.6801 0 1.0716 0.52255 1.6867 0.52917 0.61516 1.4288 0.61516z"/>
  </g>
 </g>
 <g id="g50" transform="translate(-1 -3.4571)">
  <path id="rect52" fill="#fff" d="m580 108h40v24h-40z"/>
  <path id="rect54" d="m580 108h40v24h-40z" stroke="#000" stroke-width="2" fill="none"/>
  <g id="text56">
   <path id="path83" style="" d="m599.99 119.44q-0.95251 0-1.5015 0.50933-0.5424 0.50932-0.5424 1.4023 0 0.89297 0.5424 1.4023 0.54901 0.50932 1.5015 0.50932 0.9525 0 1.5015-0.50932 0.54901-0.51594 0.54901-1.4023 0-0.89297-0.54901-1.4023-0.5424-0.50933-1.5015-0.50933zm-1.3362-0.56885q-0.8599-0.21167-1.3428-0.80037-0.47625-0.5887-0.47625-1.4354 0-1.184 0.84006-1.8719 0.84666-0.68792 2.3151-0.68792 1.475 0 2.3151 0.68792 0.84005 0.68792 0.84005 1.8719 0 0.84667-0.48287 1.4354-0.47625 0.5887-1.3295 0.80037 0.96573 0.22489 1.5015 0.87974 0.5424 0.65484 0.5424 1.6007 0 1.4354-0.87974 2.2027-0.87313 0.7673-2.5069 0.7673t-2.5136-0.7673q-0.87313-0.76729-0.87313-2.2027 0-0.94589 0.5424-1.6007 0.54239-0.65485 1.5081-0.87974zm-0.48948-2.1101q0 0.76729 0.47625 1.1972 0.48286 0.42995 1.3494 0.42995 0.85989 0 1.3428-0.42995 0.48948-0.42995 0.48948-1.1972 0-0.76729-0.48948-1.1972-0.48287-0.42995-1.3428-0.42995-0.86652 0-1.3494 0.42995-0.47625 0.42995-0.47625 1.1972z"/>
  </g>
 </g>
 <g id="g60" transform="translate(-1 -3.4571)">
  <path id="rect62" fill="#fff" d="m420 168h40v24h-40z"/>
  <path id="rect64" d="m420 168h40v24h-40z" stroke="#f00" stroke-width="2" fill="none"/>
  <g id="text66">
   <path id="path88" style="" d="m431.79 182.45h1.3428v1.6801h-1.3428v-1.6801zm1.3031-0.97235h-1.2634v-1.0186q0-0.66807 0.18521-1.098 0.18521-0.42995 0.78052-0.99881l0.59532-0.58869q0.37703-0.35058 0.54239-0.66146 0.17198-0.31089 0.17198-0.63501 0-0.5887-0.43656-0.9525-0.42995-0.3638-1.1443-0.3638-0.52255 0-1.1179 0.23151-0.5887 0.23151-1.2303 0.67469v-1.2436q0.62177-0.37703 1.2568-0.56224 0.64162-0.18521 1.3229-0.18521 1.2171 0 1.9513 0.64162 0.74084 0.64162 0.74084 1.6933 0 0.50271-0.23813 0.95912-0.23813 0.44979-0.83344 1.0186l-0.58208 0.56886q-0.31089 0.31089-0.44318 0.48948-0.12568 0.17198-0.1786 0.33734-0.0397 0.13891-0.0595 0.33735t-0.0198 0.5424v0.81359z"/>
   <path id="path90" style="" d="m438.99 182.45h1.3428v1.6801h-1.3428v-1.6801zm1.3031-0.97235h-1.2634v-1.0186q0-0.66807 0.18521-1.098 0.18521-0.42995 0.78053-0.99881l0.59531-0.58869q0.37703-0.35058 0.5424-0.66146 0.17198-0.31089 0.17198-0.63501 0-0.5887-0.43657-0.9525-0.42995-0.3638-1.1443-0.3638-0.52256 0-1.1179 0.23151-0.5887 0.23151-1.2303 0.67469v-1.2436q0.62178-0.37703 1.2568-0.56224 0.64161-0.18521 1.3229-0.18521 1.2171 0 1.9513 0.64162 0.74084 0.64162 0.74084 1.6933 0 0.50271-0.23813 0.95912-0.23812 0.44979-0.83344 1.0186l-0.58208 0.56886q-0.31089 0.31089-0.44318 0.48948-0.12568 0.17198-0.17859 0.33734-0.0397 0.13891-0.0595 0.33735t-0.0198 0.5424v0.81359z"/>
   <path id="path92" style="" d="m446.18 182.45h1.3428v1.6801h-1.3428v-1.6801zm1.3031-0.97235h-1.2634v-1.0186q0-0.66807 0.18521-1.098 0.18521-0.42995 0.78052-0.99881l0.59531-0.58869q0.37704-0.35058 0.5424-0.66146 0.17198-0.31089 0.17198-0.63501 0-0.5887-0.43656-0.9525-0.42995-0.3638-1.1443-0.3638-0.52255 0-1.1179 0.23151-0.5887 0.23151-1.2303 0.67469v-1.2436q0.62177-0.37703 1.2568-0.56224 0.64162-0.18521 1.3229-0.18521 1.2171 0 1.9513 0.64162 0.74083 0.64162 0.74083 1.6933 0 0.50271-0.23812 0.95912-0.23813 0.44979-0.83344 1.0186l-0.58209 0.56886q-0.31088 0.31089-0.44317 0.48948-0.12568 0.17198-0.1786 0.33734-0.0397 0.13891-0.0595 0.33735t-0.0198 0.5424v0.81359z"/>
  </g>
 </g>
</svg>
