<?xml version="1.0" encoding="UTF-8" standalone="no"?>
<svg id="svg2" xmlns:rdf="http://www.w3.org/1999/02/22-rdf-syntax-ns#" xmlns="http://www.w3.org/2000/svg" viewBox="328 106 291.99999 76.607502" height="4.4027cm" width="14.949cm" version="1.1" xmlns:cc="http://creativecommons.org/ns#" xmlns:dc="http://purl.org/dc/elements/1.1/">
 <metadata id="metadata88">
  <rdf:RDF>
   <cc:Work rdf:about="">
    <dc:format>image/svg+xml</dc:format>
    <dc:type rdf:resource="http://purl.org/dc/dcmitype/StillImage"/>
   </cc:Work>
  </rdf:RDF>
 </metadata>
 <path id="rect4" d="m367 164.3h42v20h-42z" stroke="#f00" stroke-width="2" fill="none"/>
 <path id="rect6" d="m329 104.3h80v20h-80z" stroke="#f00" stroke-width="2" fill="none"/>
 <g id="g8" transform="translate(-1 -5.6962)">
  <path id="rect10" fill="#fff" d="m420 108h40v24h-40z"/>
  <path id="rect12" d="m420 108h40v24h-40z" stroke="#000" stroke-width="2" fill="none"/>
  <g id="text14">
   <path id="path52" style="" d="m434.34 115.42-3.3734 5.2718h3.3734v-5.2718zm-0.35057-1.1642h1.6801v6.436h1.4089v1.1112h-1.4089v2.3283h-1.3295v-2.3283h-4.4582v-1.2898l4.1077-6.2574z"/>
   <path id="path54" style="" d="m439.29 122.45h1.3957v1.6801h-1.3957v-1.6801z"/>
   <path id="path56" style="" d="m443.62 114.26h5.2454v1.1245h-4.0217v2.4209q0.29104-0.0992 0.58208-0.14552 0.29104-0.0529 0.58209-0.0529 1.6536 0 2.6194 0.9062 0.96573 0.9062 0.96573 2.454 0 1.5941-0.99219 2.4805-0.99219 0.87975-2.798 0.87975-0.62177 0-1.27-0.10584-0.64162-0.10583-1.3295-0.3175v-1.3428q0.59531 0.32411 1.2303 0.48286 0.635 0.15875 1.3428 0.15875 1.1443 0 1.8124-0.60192 0.66807-0.60193 0.66807-1.6338t-0.66807-1.6338q-0.66808-0.60192-1.8124-0.60192-0.53579 0-1.0716 0.11906-0.52917 0.11906-1.0848 0.37042v-4.961z"/>
  </g>
 </g>
 <g id="g18" transform="translate(-1 -5.6962)">
  <path id="rect20" fill="#fff" d="m460 108h40v24h-40z"/>
  <path id="rect22" d="m460 108h40v24h-40z" stroke="#000" stroke-width="2" fill="none"/>
  <g id="text24">
   <path id="path61" style="" d="m470.71 123.93v-1.2171q0.50271 0.23813 1.0186 0.36381 0.51593 0.12567 1.012 0.12567 1.3229 0 2.0174-0.88635 0.70115-0.89297 0.80037-2.7054-0.38365 0.56885-0.97235 0.87312-0.5887 0.30428-1.3031 0.30428-1.4817 0-2.3482-0.89297-0.85989-0.89959-0.85989-2.454 0-1.5214 0.89958-2.4408 0.89959-0.91943 2.3945-0.91943 1.7132 0 2.6128 1.3163 0.9062 1.3097 0.9062 3.81 0 2.335-1.1112 3.7306-1.1046 1.3891-2.9766 1.3891-0.50271 0-1.0186-0.0992-0.51594-0.0992-1.0716-0.29766zm2.6591-4.187q0.89958 0 1.4221-0.61516 0.52916-0.61516 0.52916-1.6867 0-1.065-0.52916-1.6801-0.52256-0.62177-1.4221-0.62177-0.89959 0-1.4288 0.62177-0.52255 0.61516-0.52255 1.6801 0 1.0716 0.52255 1.6867 0.52917 0.61516 1.4288 0.61516z"/>
   <path id="path63" style="" d="m479.29 122.45h1.3957v1.6801h-1.3957v-1.6801z"/>
   <path id="path65" style="" d="m484.76 123.01h4.6633v1.1245h-6.2706v-1.1245q0.76068-0.78714 2.0704-2.1101 1.3163-1.3295 1.6536-1.7132 0.64161-0.72099 0.89297-1.2171 0.25797-0.50271 0.25797-0.98558 0-0.78714-0.55563-1.2832-0.54901-0.4961-1.4354-0.4961-0.62838 0-1.3295 0.21829-0.69453 0.21828-1.4883 0.66146v-1.3494q0.80698-0.32412 1.5081-0.48948 0.70115-0.16537 1.2832-0.16537 1.5346 0 2.4474 0.7673 0.91281 0.76729 0.91281 2.0505 0 0.60854-0.23151 1.1576-0.22489 0.54239-0.82682 1.2832-0.16537 0.19182-1.0517 1.1112-0.88636 0.91282-2.5003 2.5598z"/>
  </g>
 </g>
 <g id="g28" transform="translate(-1 -5.6962)">
  <path id="rect30" fill="#fff" d="m500 108h40v24h-40z"/>
  <path id="rect32" d="m500 108h40v24h-40z" stroke="#000" stroke-width="2" fill="none"/>
  <g id="text34">
   <path id="path70" style="" d="m510.33 114.26h6.35v0.56885l-3.5851 9.3067h-1.3957l3.3734-8.7511h-4.7427v-1.1245z"/>
   <path id="path72" style="" d="m519.29 122.45h1.3957v1.6801h-1.3957v-1.6801z"/>
   <path id="path74" style="" d="m523.84 123.01h2.1828v-7.534l-2.3746 0.47625v-1.2171l2.3614-0.47625h1.3362v8.7511h2.1828v1.1245h-5.6886v-1.1245z"/>
  </g>
 </g>
 <g id="g38" transform="translate(-1 -5.6962)">
  <path id="rect40" fill="#ff0" d="m540 108h40v24h-40z"/>
  <path id="rect42" d="m540 108h40v24h-40z" stroke="#000" stroke-width="2" fill="none"/>
  <g id="text44">
   <path id="path79" style="" d="m547.43 119.88h3.5653v1.0848h-3.5653v-1.0848z"/>
   <path id="path81" style="" d="m556.14 118.66q-0.89958 0-1.4288 0.61516-0.52255 0.61516-0.52255 1.6867 0 1.065 0.52255 1.6867 0.52917 0.61516 1.4288 0.61516 0.89959 0 1.4221-0.61516 0.52917-0.62177 0.52917-1.6867 0-1.0716-0.52917-1.6867-0.52255-0.61516-1.4221-0.61516zm2.6525-4.187v1.2171q-0.50271-0.23812-1.0186-0.3638-0.50932-0.12568-1.012-0.12568-1.3229 0-2.0241 0.89297-0.69453 0.89298-0.79375 2.6988 0.39026-0.57547 0.97896-0.87974 0.5887-0.31089 1.2965-0.31089 1.4883 0 2.3482 0.9062 0.86651 0.89959 0.86651 2.454 0 1.5214-0.89958 2.4408-0.89959 0.91943-2.3945 0.91943-1.7132 0-2.6194-1.3097-0.9062-1.3163-0.9062-3.81 0-2.3416 1.1113-3.7306 1.1112-1.3957 2.9832-1.3957 0.50271 0 1.012 0.0992 0.51594 0.0992 1.0716 0.29766z"/>
   <path id="path83" style="" d="m561.74 122.45h1.3957v1.6801h-1.3957v-1.6801z"/>
   <path id="path85" style="" d="m566.09 123.93v-1.2171q0.50271 0.23813 1.0186 0.36381 0.51594 0.12567 1.012 0.12567 1.3229 0 2.0174-0.88635 0.70115-0.89297 0.80037-2.7054-0.38365 0.56885-0.97235 0.87312-0.5887 0.30428-1.3031 0.30428-1.4817 0-2.3482-0.89297-0.8599-0.89959-0.8599-2.454 0-1.5214 0.89959-2.4408 0.89959-0.91943 2.3945-0.91943 1.7132 0 2.6128 1.3163 0.9062 1.3097 0.9062 3.81 0 2.335-1.1112 3.7306-1.1046 1.3891-2.9766 1.3891-0.50271 0-1.0186-0.0992-0.51594-0.0992-1.0716-0.29766zm2.6591-4.187q0.89958 0 1.4221-0.61516 0.52917-0.61516 0.52917-1.6867 0-1.065-0.52917-1.6801-0.52255-0.62177-1.4221-0.62177-0.89959 0-1.4288 0.62177-0.52255 0.61516-0.52255 1.6801 0 1.0716 0.52255 1.6867 0.52917 0.61516 1.4288 0.61516z"/>
  </g>
 </g>
 <g id="g48" transform="translate(-1 -5.6962)">
  <path id="rect50" fill="#fff" d="m580 108h40v24h-40z"/>
  <path id="rect52" d="m580 108h40v24h-40z" stroke="#000" stroke-width="2" fill="none"/>
  <g id="text54">
   <path id="path90" style="" d="m599.99 119.44q-0.95251 0-1.5015 0.50933-0.5424 0.50932-0.5424 1.4023 0 0.89297 0.5424 1.4023 0.54901 0.50932 1.5015 0.50932 0.9525 0 1.5015-0.50932 0.54901-0.51594 0.54901-1.4023 0-0.89297-0.54901-1.4023-0.5424-0.50933-1.5015-0.50933zm-1.3362-0.56885q-0.8599-0.21167-1.3428-0.80037-0.47625-0.5887-0.47625-1.4354 0-1.184 0.84006-1.8719 0.84666-0.68792 2.3151-0.68792 1.475 0 2.3151 0.68792 0.84005 0.68792 0.84005 1.8719 0 0.84667-0.48287 1.4354-0.47625 0.5887-1.3295 0.80037 0.96573 0.22489 1.5015 0.87974 0.5424 0.65484 0.5424 1.6007 0 1.4354-0.87974 2.2027-0.87313 0.7673-2.5069 0.7673t-2.5136-0.7673q-0.87313-0.76729-0.87313-2.2027 0-0.94589 0.5424-1.6007 0.54239-0.65485 1.5081-0.87974zm-0.48948-2.1101q0 0.76729 0.47625 1.1972 0.48286 0.42995 1.3494 0.42995 0.85989 0 1.3428-0.42995 0.48948-0.42995 0.48948-1.1972 0-0.76729-0.48948-1.1972-0.48287-0.42995-1.3428-0.42995-0.86652 0-1.3494 0.42995-0.47625 0.42995-0.47625 1.1972z"/>
  </g>
 </g>
 <g id="text58">
  <path id="path93" style="" d="m342.58 111.81v1.1509q-0.51594-0.26458-1.0716-0.39687-0.55563-0.13229-1.1509-0.13229-0.9062 0-1.3626 0.27781-0.44979 0.27781-0.44979 0.83344 0 0.42333 0.32411 0.66807 0.32412 0.23813 1.3031 0.45641l0.41672 0.0926q1.2965 0.27781 1.8389 0.78713 0.54901 0.50271 0.54901 1.4089 0 1.0319-0.82021 1.6338-0.8136 0.60193-2.2424 0.60193-0.59532 0-1.2436-0.11907-0.64161-0.11244-1.356-0.34395v-1.2568q0.67469 0.35057 1.3295 0.52917 0.65484 0.17198 1.2965 0.17198 0.85989 0 1.3229-0.29104 0.46302-0.29766 0.46302-0.83344 0-0.4961-0.33735-0.76068-0.33073-0.26459-1.4618-0.50933l-0.42334-0.0992q-1.1311-0.23812-1.6338-0.7276-0.50271-0.4961-0.50271-1.356 0-1.0451 0.74083-1.614 0.74084-0.56885 2.1034-0.56885 0.67468 0 1.27 0.0992 0.59531 0.0992 1.098 0.29765z"/>
  <path id="path95" style="" d="m344.4 111.6h5.7812v1.1113l-4.5773 5.3248h4.5773v0.97234h-5.9465v-1.1112l4.5773-5.3248h-4.4119v-0.97235z"/>
  <path id="path97" style="" d="m355.41 115.28q-1.475 0-2.0439 0.33735-0.56886 0.33734-0.56886 1.1509 0 0.64823 0.42334 1.0319 0.42995 0.37703 1.1642 0.37703 1.012 0 1.6206-0.71438 0.61516-0.72099 0.61516-1.9116v-0.2712h-1.2105zm2.4276-0.50271v4.2267h-1.2171v-1.1245q-0.41672 0.67469-1.0385 0.99881-0.62177 0.3175-1.5214 0.3175-1.1377 0-1.8124-0.635-0.66807-0.64162-0.66807-1.7132 0-1.2502 0.83344-1.8852 0.84005-0.635 2.5003-0.635h1.7066v-0.11906q0-0.84006-0.55562-1.2965-0.54902-0.46302-1.5478-0.46302-0.635 0-1.2369 0.15213-0.60193 0.15214-1.1576 0.45641v-1.1245q0.66808-0.25797 1.2965-0.38365 0.62838-0.13229 1.2237-0.13229 1.6073 0 2.4011 0.83344 0.79375 0.83344 0.79375 2.5268z"/>
  <path id="path99" style="" d="m366.12 113.02q0.4564-0.82021 1.0914-1.2105 0.63501-0.39026 1.4949-0.39026 1.1576 0 1.786 0.81359 0.62838 0.80699 0.62838 2.3019v4.4715h-1.2237v-4.4318q0-1.065-0.37703-1.5809-0.37703-0.51594-1.1509-0.51594-0.94589 0-1.4949 0.62839t-0.54901 1.7132v4.187h-1.2237v-4.4318q0-1.0716-0.37703-1.5809-0.37704-0.51594-1.1642-0.51594-0.93266 0-1.4817 0.63501-0.54902 0.62838-0.54902 1.7066v4.187h-1.2237v-7.4084h1.2237v1.1509q0.41672-0.6813 0.99881-1.0054 0.58208-0.32411 1.3824-0.32411 0.80698 0 1.3692 0.4101 0.56886 0.41011 0.84006 1.1906z"/>
  <path id="path101" style="" d="m376.42 112.45q-0.97896 0-1.5478 0.76729-0.56886 0.76068-0.56886 2.0902t0.56224 2.0968q0.56886 0.76068 1.5544 0.76068 0.97235 0 1.5412-0.76729 0.56886-0.7673 0.56886-2.0902 0-1.3163-0.56886-2.0836-0.56885-0.7739-1.5412-0.7739zm0-1.0319q1.5875 0 2.4937 1.0319t0.9062 2.8575q0 1.819-0.9062 2.8575-0.9062 1.0319-2.4937 1.0319-1.5941 0-2.5003-1.0319-0.89958-1.0385-0.89958-2.8575 0-1.8256 0.89958-2.8575 0.9062-1.0319 2.5003-1.0319z"/>
  <path id="path103" style="" d="m381.79 108.71h1.2237v6.0788l3.6314-3.1948h1.5544l-3.9291 3.466 4.0944 3.9423h-1.5875l-3.7637-3.6182v3.6182h-1.2237v-10.292z"/>
  <path id="path105" style="" d="m389.58 108.71h2.8046v0.94588h-1.5875v10.186h1.5875v0.94589h-2.8046v-12.078z"/>
  <path id="path107" style="" d="m397.83 108.71v12.078h-2.8046v-0.94589h1.5809v-10.186h-1.5809v-0.94588h2.8046z"/>
 </g>
 <g id="g62" transform="translate(-1 -5.6962)">
  <path id="rect64" fill="#fff" d="m420 168h40v24h-40z"/>
  <path id="rect66" d="m420 168h40v24h-40z" stroke="#000" stroke-width="2" fill="none"/>
  <g id="text68">
   <path id="path112" style="" d="m441.18 178.81q0.95912 0.20506 1.4949 0.85329 0.5424 0.64823 0.5424 1.6007 0 1.4618-1.0054 2.2622-1.0054 0.80037-2.8575 0.80037-0.62177 0-1.2832-0.12568-0.65484-0.11906-1.356-0.3638v-1.2898q0.55563 0.32412 1.2171 0.48948 0.66146 0.16537 1.3825 0.16537 1.2568 0 1.9116-0.4961 0.66146-0.49609 0.66146-1.442 0-0.87313-0.61516-1.3626-0.60855-0.49609-1.7-0.49609h-1.1509v-1.098h1.2038q0.98558 0 1.5081-0.39026 0.52255-0.39687 0.52255-1.1377 0-0.76068-0.54239-1.1642-0.53579-0.4101-1.5412-0.4101-0.54902 0-1.1774 0.11906-0.62839 0.11906-1.3824 0.37042v-1.1906q0.76067-0.21167 1.4221-0.3175 0.66808-0.10584 1.2568-0.10584 1.5214 0 2.4077 0.69454 0.88636 0.68792 0.88636 1.8653 0 0.82021-0.46964 1.3891-0.46963 0.56224-1.3362 0.78052z"/>
  </g>
 </g>
 <g id="text72">
  <path id="path115" style="" d="m379.9 171.6h1.2171v7.4084h-1.2171v-7.4084zm0-2.884h1.2171v1.5412h-1.2171v-1.5412z"/>
  <path id="path117" style="" d="m388.54 172.72v-4.0084h1.2171v10.292h-1.2171v-1.1112q-0.38364 0.66146-0.97234 0.98557-0.58209 0.3175-1.4023 0.3175-1.3428 0-2.1894-1.0716-0.84005-1.0716-0.84005-2.8178 0-1.7463 0.84005-2.8178 0.84667-1.0716 2.1894-1.0716 0.82021 0 1.4023 0.32412 0.5887 0.3175 0.97234 0.97896zm-4.1474 2.5863q0 1.3428 0.54901 2.11 0.55563 0.76068 1.5214 0.76068 0.96573 0 1.5214-0.76068 0.55562-0.76729 0.55562-2.11 0-1.3428-0.55562-2.1034-0.55563-0.76729-1.5214-0.76729-0.96573 0-1.5214 0.76729-0.54901 0.76068-0.54901 2.1034z"/>
  <path id="path119" style="" d="m398.42 171.6-2.6789 3.605 2.8178 3.8034h-1.4354l-2.1564-2.9104-2.1564 2.9104h-1.4354l2.8774-3.8762-2.6326-3.5322h1.4354l1.9645 2.6392 1.9645-2.6392h1.4354z"/>
 </g>
 <g id="g76" stroke="#f00" stroke-width="2" fill="none" transform="translate(-1 -5.6962)">
  <path id="polyline78" d="m400 130v20h160v-13.528"/>
  <path id="polyline80" d="m563 140.24-3-6-3 6"/>
 </g>
 <path id="line82" d="m399 144.3v20" stroke="#f00" stroke-width="2" fill="none"/>
</svg>
