<?xml version="1.0" encoding="UTF-8" standalone="no"?>
<!-- Created with Inkscape (http://www.inkscape.org/) -->
<svg id="svg2" xmlns:rdf="http://www.w3.org/1999/02/22-rdf-syntax-ns#" xmlns="http://www.w3.org/2000/svg" height="266.35" width="421.79" version="1.1" xmlns:cc="http://creativecommons.org/ns#" xmlns:dc="http://purl.org/dc/elements/1.1/" viewBox="216 77 223.19919 135.30462">
 <metadata id="metadata160">
  <rdf:RDF>
   <cc:Work rdf:about="">
    <dc:format>image/svg+xml</dc:format>
    <dc:type rdf:resource="http://purl.org/dc/dcmitype/StillImage"/>
   </cc:Work>
  </rdf:RDF>
 </metadata>
 <g id="g4" transform="translate(-1.4508 -5.5265)">
  <path id="rect6" fill="#ff0" d="m320 100h120v20h-120z"/>
  <path id="rect8" d="m320 100h120v20h-120z" stroke="#000" stroke-width="1.3" fill="none"/>
 </g>
 <g id="g10" transform="translate(-1.4508 -5.5265)">
  <path id="rect12" fill="#ff0" d="m320 120h120v20h-120z"/>
  <path id="rect14" d="m320 120h120v20h-120z" stroke="#000" stroke-width="1.3" fill="none"/>
 </g>
 <g id="g16" transform="translate(-1.4508 -5.5265)">
  <path id="rect18" fill="#ff0" d="m320 140h120v20h-120z"/>
  <path id="rect20" d="m320 140h120v20h-120z" stroke="#000" stroke-width="1.3" fill="none"/>
 </g>
 <g id="g22" transform="translate(-1.4508 -5.5265)">
  <path id="line24" d="m260 110h54.047" stroke="#000" stroke-width="1.3" fill="none"/>
  <path id="polygon26" d="m314.05 110-1.5-3 6 3-6 3z"/>
  <path id="polygon28" d="m314.05 110-1.5-3 6 3-6 3z" stroke="#000" stroke-width="1.3" fill="none"/>
 </g>
 <g id="g30" transform="translate(-1.4508 -5.5265)">
  <path id="line32" d="m260 130h54.047" stroke="#000" stroke-width="1.3" fill="none"/>
  <path id="polygon34" d="m314.05 130-1.5-3 6 3-6 3z"/>
  <path id="polygon36" d="m314.05 130-1.5-3 6 3-6 3z" stroke="#000" stroke-width="1.3" fill="none"/>
 </g>
 <g id="g38" transform="translate(-1.4508 -5.5265)">
  <path id="line40" d="m260 150h54.047" stroke="#000" stroke-width="1.3" fill="none"/>
  <path id="polygon42" d="m314.05 150-1.5-3 6 3-6 3z"/>
  <path id="polygon44" d="m314.05 150-1.5-3 6 3-6 3z" stroke="#000" stroke-width="1.3" fill="none"/>
 </g>
 <g id="g46" transform="translate(-1.4508 -5.5265)">
  <path id="rect48" fill="#ff0" d="m320 160h120v20h-120z"/>
  <path id="rect50" d="m320 160h120v20h-120z" stroke="#000" stroke-width="1.3" fill="none"/>
 </g>
 <g id="g52" transform="translate(-1.4508 -5.5265)">
  <path id="rect54" fill="#ff0" d="m320 180h120v20h-120z"/>
  <path id="rect56" d="m320 180h120v20h-120z" stroke="#000" stroke-width="1.3" fill="none"/>
 </g>
 <g id="g58" transform="translate(-1.4508 -5.5265)">
  <path id="rect60" fill="#ff0" d="m320 200h120v20h-120z"/>
  <path id="rect62" d="m320 200h120v20h-120z" stroke="#000" stroke-width="1.3" fill="none"/>
 </g>
 <g id="g64" transform="translate(-1.4508 -5.5265)">
  <path id="line66" d="m260 170h54.047" stroke="#000" stroke-width="1.3" fill="none"/>
  <path id="polygon68" d="m314.05 170-1.5-3 6 3-6 3z"/>
  <path id="polygon70" d="m314.05 170-1.5-3 6 3-6 3z" stroke="#000" stroke-width="1.3" fill="none"/>
 </g>
 <g id="g72" transform="translate(-1.4508 -5.5265)">
  <path id="line74" d="m260 190h54.047" stroke="#000" stroke-width="1.3" fill="none"/>
  <path id="polygon76" d="m314.05 190-1.5-3 6 3-6 3z"/>
  <path id="polygon78" d="m314.05 190-1.5-3 6 3-6 3z" stroke="#000" stroke-width="1.3" fill="none"/>
 </g>
 <g id="g80" transform="translate(-1.4508 -5.5265)">
  <path id="line82" d="m260 210h54.047" stroke="#000" stroke-width="1.3" fill="none"/>
  <path id="polygon84" d="m314.05 210-1.5-3 6 3-6 3z"/>
  <path id="polygon86" d="m314.05 210-1.5-3 6 3-6 3z" stroke="#000" stroke-width="1.3" fill="none"/>
 </g>
 <g id="text88">
  <path id="path3089" style="" d="m216 77.065h1.2171v7.4084h-1.2171v-7.4084m0-2.884h1.2171v1.5412h-1.2171v-1.5412"/>
  <path id="path3091" style="" d="m225.92 80.002v4.4715h-1.2171v-4.4318c0-0.70114-0.13671-1.2259-0.4101-1.5743-0.27341-0.34836-0.68352-0.52255-1.2303-0.52255-0.65705 0.000007-1.1752 0.20947-1.5544 0.62839-0.37924 0.41893-0.56886 0.98999-0.56885 1.7132v4.187h-1.2237v-7.4084h1.2237v1.1509c0.29104-0.44538 0.63279-0.77831 1.0253-0.9988 0.39687-0.22048 0.85328-0.33072 1.3692-0.33073 0.85107 0.000008 1.4949 0.26459 1.9315 0.79375 0.43656 0.52476 0.65484 1.2987 0.65485 2.3217"/>
  <path id="path3093" style="" d="m233.23 78.19v-4.0084h1.2171v10.292h-1.2171v-1.1113c-0.25577 0.44097-0.57989 0.7695-0.97235 0.98558-0.38806 0.21167-0.85549 0.3175-1.4023 0.3175-0.89517 0-1.625-0.35719-2.1894-1.0716-0.56003-0.71438-0.84005-1.6536-0.84005-2.8178s0.28002-2.1034 0.84005-2.8178c0.56445-0.71437 1.2943-1.0716 2.1894-1.0716 0.54681 0.000008 1.0142 0.10805 1.4023 0.32412 0.39246 0.21167 0.71658 0.53799 0.97235 0.97896m-4.1474 2.5863c0 0.89518 0.183 1.5985 0.54901 2.1101 0.37042 0.50712 0.87754 0.76068 1.5214 0.76068 0.64382 0.000001 1.1509-0.25356 1.5214-0.76068 0.37041-0.51153 0.55562-1.2149 0.55563-2.1101-0.00001-0.89517-0.18522-1.5963-0.55563-2.1034-0.37042-0.51152-0.87754-0.76729-1.5214-0.76729-0.64382 0.000006-1.1509 0.25577-1.5214 0.76729-0.36601 0.50712-0.54901 1.2083-0.54901 2.1034"/>
  <path id="path3095" style="" d="m243.29 80.465v0.59531h-5.596c0.0529 0.83785 0.30427 1.4773 0.75407 1.9182 0.45419 0.43656 1.0848 0.65485 1.8918 0.65484 0.46743 0.000001 0.91942-0.05733 1.356-0.17198 0.44097-0.11465 0.87753-0.28663 1.3097-0.51594v1.1509c-0.43657 0.18521-0.88415 0.32632-1.3428 0.42333-0.45862 0.09701-0.92384 0.14552-1.3957 0.14552-1.1818 0-2.1189-0.34396-2.8112-1.0319-0.68792-0.68792-1.0319-1.6184-1.0319-2.7914 0-1.2127 0.32632-2.174 0.97896-2.884 0.65705-0.71437 1.5412-1.0716 2.6524-1.0716 0.9966 0.000008 1.7837 0.32192 2.3614 0.96573 0.58207 0.63942 0.87311 1.5103 0.87312 2.6128m-1.2171-0.35719c-0.009-0.66586-0.19624-1.1972-0.56225-1.5941-0.3616-0.39687-0.84226-0.59531-1.442-0.59531-0.6791 0.000007-1.2237 0.19183-1.6338 0.57547-0.4057 0.38365-0.63942 0.92384-0.70115 1.6206l4.3392-0.0066"/>
  <path id="path3097" style="" d="m251.21 77.065-2.6789 3.605 2.8178 3.8034h-1.4354l-2.1564-2.9104-2.1564 2.9104h-1.4354l2.8774-3.8762-2.6326-3.5322h1.4354l1.9645 2.6392 1.9645-2.6392h1.4354"/>
  <path id="path3099" style="" d="m252.96 74.181h2.8046v0.94589h-1.5875v10.186h1.5875v0.94589h-2.8046v-12.078"/>
  <path id="path3101" style="" d="m261.2 74.181v12.078h-2.8046v-0.94589h1.5809v-10.186h-1.5809v-0.94589h2.8046"/>
 </g>
 <g id="text92">
  <path id="path3104" style="" d="m356.75 80.002v4.4715h-1.2171v-4.4318c-0.00001-0.70114-0.13671-1.2259-0.41011-1.5743-0.27341-0.34836-0.68351-0.52255-1.2303-0.52255-0.65706 0.000007-1.1752 0.20947-1.5544 0.62839-0.37924 0.41893-0.56886 0.98999-0.56886 1.7132v4.187h-1.2237v-7.4084h1.2237v1.1509c0.29104-0.44538 0.63279-0.77831 1.0253-0.9988 0.39688-0.22048 0.85328-0.33072 1.3692-0.33073 0.85107 0.000008 1.4949 0.26459 1.9315 0.79375 0.43655 0.52476 0.65484 1.2987 0.65484 2.3217"/>
  <path id="path3106" style="" d="m365.53 80.465v0.59531h-5.596c0.0529 0.83785 0.30426 1.4773 0.75406 1.9182 0.4542 0.43656 1.0848 0.65485 1.8918 0.65484 0.46742 0.000001 0.91942-0.05733 1.356-0.17198 0.44096-0.11465 0.87753-0.28663 1.3097-0.51594v1.1509c-0.43657 0.18521-0.88416 0.32632-1.3428 0.42333-0.45862 0.09701-0.92385 0.14552-1.3957 0.14552-1.1818 0-2.1189-0.34396-2.8112-1.0319-0.68792-0.68792-1.0319-1.6184-1.0319-2.7914 0-1.2127 0.32632-2.174 0.97896-2.884 0.65705-0.71437 1.5412-1.0716 2.6525-1.0716 0.99659 0.000008 1.7837 0.32192 2.3614 0.96573 0.58208 0.63942 0.87312 1.5103 0.87313 2.6128m-1.2171-0.35719c-0.009-0.66586-0.19624-1.1972-0.56224-1.5941-0.3616-0.39687-0.84226-0.59531-1.442-0.59531-0.67911 0.000007-1.2237 0.19183-1.6338 0.57547-0.4057 0.38365-0.63941 0.92384-0.70115 1.6206l4.3392-0.0066"/>
  <path id="path3108" style="" d="m366.65 77.065h1.2898l2.3151 6.2177 2.3151-6.2177h1.2898l-2.7781 7.4084h-1.6536l-2.7781-7.4084"/>
  <path id="path3110" style="" d="m380.27 77.283v1.1509c-0.34396-0.17638-0.70115-0.30868-1.0716-0.39688-0.37042-0.08819-0.75407-0.13229-1.1509-0.13229-0.60414 0.000006-1.0583 0.09261-1.3626 0.27781-0.29986 0.18522-0.44979 0.46303-0.44979 0.83344 0 0.28223 0.10803 0.50492 0.32411 0.66808 0.21608 0.15876 0.65044 0.31089 1.3031 0.45641l0.41672 0.09261c0.8643 0.18521 1.4772 0.44759 1.8389 0.78714 0.366 0.33514 0.549 0.80478 0.54901 1.4089-0.00001 0.68792-0.27341 1.2325-0.82021 1.6338-0.5424 0.40129-1.2898 0.60193-2.2424 0.60193-0.39688 0-0.81139-0.03969-1.2436-0.11906-0.42774-0.07497-0.87974-0.18962-1.356-0.34396v-1.2568c0.44979 0.23372 0.89297 0.41011 1.3295 0.52917 0.43656 0.11465 0.86871 0.17198 1.2965 0.17198 0.57326 0.000001 1.0142-0.09701 1.3229-0.29104 0.30867-0.19844 0.46301-0.47625 0.46302-0.83344-0.00001-0.33073-0.11245-0.58429-0.33734-0.76068-0.2205-0.17639-0.70777-0.34616-1.4618-0.50932l-0.42334-0.09922c-0.75406-0.15875-1.2987-0.40128-1.6338-0.72761-0.33514-0.33072-0.50271-0.78272-0.50271-1.356 0-0.69673 0.24694-1.2347 0.74083-1.614 0.49389-0.37923 1.195-0.56885 2.1034-0.56886 0.44979 0.000008 0.87312 0.03308 1.27 0.09922 0.39687 0.06615 0.76288 0.16537 1.098 0.29766"/>
  <path id="path3112" style="" d="m385.48 77.918c-0.65265 0.000007-1.1686 0.25577-1.5478 0.76729-0.37924 0.50712-0.56886 1.2039-0.56885 2.0902-0.00001 0.88636 0.18741 1.5853 0.56224 2.0968 0.37923 0.50712 0.89737 0.76068 1.5544 0.76068 0.64822 0.000001 1.162-0.25576 1.5412-0.76729 0.37923-0.51153 0.56885-1.2083 0.56885-2.0902 0-0.87753-0.18962-1.5721-0.56885-2.0836-0.37924-0.51593-0.89298-0.7739-1.5412-0.77391m0-1.0319c1.0583 0.000008 1.8896 0.34397 2.4937 1.0319 0.60413 0.68792 0.90619 1.6404 0.9062 2.8575-0.00001 1.2127-0.30207 2.1652-0.9062 2.8575-0.60414 0.68792-1.4354 1.0319-2.4937 1.0319-1.0628 0-1.8962-0.34396-2.5003-1.0319-0.59973-0.69233-0.89959-1.6448-0.89959-2.8575 0-1.2171 0.29986-2.1696 0.89959-2.8575 0.60413-0.68791 1.4376-1.0319 2.5003-1.0319"/>
  <path id="path3114" style="" d="m395.18 78.203c-0.13671-0.07937-0.28664-0.1367-0.4498-0.17198-0.15875-0.03968-0.33514-0.05952-0.52917-0.05953-0.68792 0.000006-1.2171 0.2249-1.5875 0.67469-0.36601 0.44539-0.54901 1.087-0.54901 1.9248v3.9026h-1.2237v-7.4084h1.2237v1.1509c0.25576-0.44979 0.5887-0.78272 0.9988-0.9988 0.4101-0.22048 0.9084-0.33072 1.4949-0.33073 0.0838 0.000008 0.17639 0.0066 0.27782 0.01984 0.10141 0.0088 0.21386 0.02426 0.33734 0.0463l0.007 1.2502"/>
  <path id="path3116" style="" d="m396.36 74.181h2.8046v0.94589h-1.5875v10.186h1.5875v0.94589h-2.8046v-12.078"/>
  <path id="path3118" style="" d="m404.61 74.181v12.078h-2.8046v-0.94589h1.5809v-10.186h-1.5809v-0.94589h2.8046"/>
 </g>
 <g id="g96" transform="translate(-1.4508 -5.5265)">
  <path id="rect98" fill="#7babe3" d="m220 100h40v20h-40z"/>
  <path id="rect100" d="m220 100h40v20h-40z" stroke="#000" stroke-width="1.3" fill="none"/>
 </g>
 <g id="g102" transform="translate(-1.4508 -5.5265)">
  <path id="rect104" fill="#7babe3" d="m220 120h40v20h-40z"/>
  <path id="rect106" d="m220 120h40v20h-40z" stroke="#000" stroke-width="1.3" fill="none"/>
 </g>
 <g id="g108" transform="translate(-1.4508 -5.5265)">
  <path id="rect110" fill="#7babe3" d="m220 140h40v20h-40z"/>
  <path id="rect112" d="m220 140h40v20h-40z" stroke="#000" stroke-width="1.3" fill="none"/>
 </g>
 <g id="g114" transform="translate(-1.4508 -5.5265)">
  <path id="rect116" fill="#7babe3" d="m220 160h40v20h-40z"/>
  <path id="rect118" d="m220 160h40v20h-40z" stroke="#000" stroke-width="1.3" fill="none"/>
 </g>
 <g id="g120" transform="translate(-1.4508 -5.5265)">
  <path id="rect122" fill="#7babe3" d="m220 180h40v20h-40z"/>
  <path id="rect124" d="m220 180h40v20h-40z" stroke="#000" stroke-width="1.3" fill="none"/>
 </g>
 <g id="g126" transform="translate(-1.4508 -5.5265)">
  <path id="rect128" fill="#7babe3" d="m220 200h40v20h-40z"/>
  <path id="rect130" d="m220 200h40v20h-40z" stroke="#000" stroke-width="1.3" fill="none"/>
 </g>
 <g id="text132">
  <path id="path3133" style="" d="m238.54 100.18c-0.68792 0.00001-1.2061 0.33955-1.5544 1.0186-0.34396 0.67469-0.51594 1.6911-0.51594 3.0493 0 1.3538 0.17198 2.3702 0.51594 3.0493 0.34836 0.67469 0.86651 1.012 1.5544 1.012 0.69232 0 1.2105-0.33734 1.5544-1.012 0.34836-0.6791 0.52255-1.6955 0.52255-3.0493 0-1.3582-0.17419-2.3746-0.52255-3.0493-0.34396-0.6791-0.86211-1.0186-1.5544-1.0186m0-1.0583c1.1068 0.00001 1.9513 0.43878 2.5334 1.3163 0.58649 0.87313 0.87973 2.1431 0.87974 3.81-0.00001 1.6625-0.29325 2.9325-0.87974 3.81-0.58209 0.87313-1.4266 1.3097-2.5334 1.3097s-1.9535-0.43657-2.54-1.3097c-0.58208-0.87753-0.87312-2.1475-0.87312-3.81 0-1.6669 0.29104-2.9369 0.87312-3.81 0.5865-0.87753 1.4332-1.3163 2.54-1.3163"/>
 </g>
 <g id="text136">
  <path id="path3136" style="" d="m235.92 128.05h2.1828v-7.534l-2.3746 0.47625v-1.2171l2.3614-0.47625h1.3362v8.7511h2.1828v1.1245h-5.6886v-1.1245"/>
 </g>
 <g id="text140">
  <path id="path3139" style="" d="m236.84 148.05h4.6633v1.1245h-6.2706v-1.1245c0.50712-0.52476 1.1972-1.2281 2.0704-2.1101 0.87754-0.88635 1.4288-1.4574 1.6536-1.7132 0.42774-0.48065 0.7254-0.88635 0.89298-1.2171 0.17197-0.33514 0.25796-0.66366 0.25796-0.98558 0-0.52475-0.18521-0.95249-0.55562-1.2832-0.36601-0.33072-0.84447-0.49609-1.4354-0.4961-0.41893 0.00001-0.86211 0.0728-1.3295 0.21828-0.46303 0.14553-0.95912 0.36602-1.4883 0.66146v-1.3494c0.53799-0.21607 1.0407-0.37923 1.5081-0.48948 0.46743-0.11024 0.89517-0.16536 1.2832-0.16537 1.0231 0.00001 1.8388 0.25578 2.4474 0.76729 0.60854 0.51154 0.91281 1.195 0.91282 2.0505-0.00001 0.4057-0.0772 0.79155-0.23151 1.1576-0.14994 0.3616-0.42555 0.78934-0.82683 1.2832-0.11025 0.12788-0.46082 0.4983-1.0517 1.1112-0.59091 0.60855-1.4244 1.4618-2.5003 2.5598"/>
 </g>
 <g id="text144">
  <path id="path3142" style="" d="m239.73 163.85c0.6394 0.13671 1.1377 0.42113 1.4949 0.85328 0.36159 0.43216 0.54239 0.96574 0.54239 1.6007 0 0.97455-0.33514 1.7286-1.0054 2.2622-0.67028 0.53358-1.6228 0.80037-2.8575 0.80037-0.41452 0-0.84226-0.0419-1.2832-0.12568-0.43657-0.0794-0.88857-0.20064-1.356-0.36381v-1.2898c0.37042 0.21608 0.77611 0.37924 1.2171 0.48948 0.44097 0.11024 0.90179 0.16536 1.3824 0.16536 0.83784 0 1.475-0.16536 1.9116-0.49609 0.44097-0.33073 0.66145-0.81139 0.66146-1.442-0.00001-0.58209-0.20506-1.0363-0.61516-1.3626-0.4057-0.33073-0.97235-0.49609-1.7-0.4961h-1.1509v-1.098h1.2039c0.65704 0.00001 1.1598-0.13008 1.5081-0.39026 0.34837-0.26458 0.52255-0.64382 0.52256-1.1377-0.00001-0.50711-0.18081-0.89517-0.5424-1.1642-0.35719-0.2734-0.87093-0.4101-1.5412-0.41011-0.36601 0.00001-0.75848 0.0397-1.1774 0.11907-0.41893 0.0794-0.87974 0.20285-1.3824 0.37041v-1.1906c0.50712-0.14111 0.98116-0.24694 1.4221-0.31751 0.44538-0.0705 0.8643-0.10582 1.2568-0.10583 1.0142 0.00001 1.8168 0.23152 2.4077 0.69453 0.59089 0.45862 0.88635 1.0804 0.88635 1.8653 0 0.54681-0.15655 1.0098-0.46963 1.3891-0.3131 0.37483-0.75848 0.635-1.3362 0.78052"/>
 </g>
 <g id="text148">
  <path id="path3145" style="" d="m239.36 180.46-3.3734 5.2718h3.3734v-5.2718m-0.35057-1.1642h1.6801v6.436h1.4089v1.1112h-1.4089v2.3283h-1.3295v-2.3283h-4.4582v-1.2898l4.1077-6.2574"/>
 </g>
 <g id="text152">
  <path id="path3148" style="" d="m235.7 199.3h5.2454v1.1245h-4.0217v2.4209c0.19403-0.0661 0.38806-0.11465 0.58209-0.14552 0.19402-0.0353 0.38805-0.0529 0.58208-0.0529 1.1024 0.00001 1.9756 0.30208 2.6194 0.9062 0.64382 0.60414 0.96573 1.4222 0.96573 2.454 0 1.0628-0.33073 1.8896-0.99219 2.4805-0.66146 0.5865-1.5941 0.87975-2.798 0.87975-0.41452 0-0.83785-0.0353-1.27-0.10584-0.42775-0.0705-0.87093-0.17639-1.3295-0.3175v-1.3428c0.39688 0.21608 0.80698 0.37703 1.2303 0.48286 0.42333 0.10584 0.87092 0.15875 1.3428 0.15875 0.76288 0 1.367-0.20064 1.8124-0.60193 0.44538-0.40128 0.66807-0.94588 0.66808-1.6338-0.00001-0.68792-0.2227-1.2325-0.66808-1.6338-0.44539-0.40128-1.0495-0.60192-1.8124-0.60193-0.35719 0.00001-0.71438 0.0397-1.0716 0.11907-0.35279 0.0794-0.71438 0.20285-1.0848 0.37041v-4.9609"/>
 </g>
</svg>
