<?xml version="1.0" encoding="UTF-8" standalone="no"?>
<svg id="svg2" xmlns:rdf="http://www.w3.org/1999/02/22-rdf-syntax-ns#" xmlns="http://www.w3.org/2000/svg" viewBox="589 -21 304.66069 340.63844" height="17.824cm" width="15.878cm" version="1.1" xmlns:cc="http://creativecommons.org/ns#" xmlns:dc="http://purl.org/dc/elements/1.1/">
 <metadata id="metadata116">
  <rdf:RDF>
   <cc:Work rdf:about="">
    <dc:format>image/svg+xml</dc:format>
    <dc:type rdf:resource="http://purl.org/dc/dcmitype/StillImage"/>
   </cc:Work>
  </rdf:RDF>
 </metadata>
 <g id="g4" transform="translate(-1 -.68078)">
  <path id="rect6" fill="#fdfd04" d="m630 200h170v40h-170z"/>
  <path id="rect8" d="m630 200h170v40h-170z" stroke="#000" stroke-width="2" fill="none"/>
 </g>
 <g id="g10" transform="translate(-1 -.68078)">
  <path id="rect12" fill="#7babe3" d="m630 120h170v40h-170z"/>
  <path id="rect14" d="m630 120h170v40h-170z" stroke="#000" stroke-width="2" fill="none"/>
 </g>
 <g id="text16">
  <path id="path66" style="" d="m692.54 136.38v1.3428q-0.60192-0.30868-1.2502-0.46302-0.64823-0.15434-1.3428-0.15434-1.0572 0-1.5897 0.32412-0.52475 0.32411-0.52475 0.97234 0 0.49388 0.37813 0.77941 0.37813 0.27782 1.5202 0.53248l0.48617 0.10803q1.5125 0.32412 2.1453 0.91833 0.64051 0.58649 0.64051 1.6437 0 1.2038-0.9569 1.9061-0.94919 0.70225-2.6161 0.70225-0.69453 0-1.4508-0.13891-0.74855-0.13119-1.582-0.40128v-1.4662q0.78713 0.409 1.5511 0.61736 0.76399 0.20064 1.5125 0.20064 1.0032 0 1.5434-0.33955 0.54019-0.34726 0.54019-0.97234 0-0.57877-0.39356-0.88745-0.38585-0.30868-1.7055-0.59421l-0.49389-0.11575q-1.3196-0.27782-1.9061-0.84887-0.5865-0.57878-0.5865-1.582 0-1.2193 0.86431-1.8829 0.8643-0.66366 2.454-0.66366 0.78713 0 1.4817 0.11575 0.69453 0.11576 1.281 0.34727z"/>
  <path id="path68" style="" d="m694.65 136.13h6.7446v1.2965l-5.3402 6.2122h5.3402v1.1344h-6.9376v-1.2965l5.3402-6.2122h-5.1472v-1.1344z"/>
  <path id="path70" style="" d="m706.92 137.12q-1.1421 0-1.8058 0.89517-0.66366 0.88745-0.66366 2.4386 0 1.5511 0.65594 2.4463 0.66367 0.88746 1.8135 0.88746 1.1344 0 1.7981-0.89517 0.66366-0.89517 0.66366-2.4386 0-1.5357-0.66366-2.4309-0.66367-0.90288-1.7981-0.90288zm0-1.2038q1.8521 0 2.9093 1.2038t1.0572 3.3337q0 2.1222-1.0572 3.3337-1.0572 1.2038-2.9093 1.2038-1.8598 0-2.917-1.2038-1.0495-1.2116-1.0495-3.3337 0-2.1299 1.0495-3.3337 1.0572-1.2038 2.917-1.2038z"/>
  <path id="path72" style="" d="m718.24 137.45q-0.23922-0.13891-0.52475-0.20064-0.27781-0.0695-0.61736-0.0695-1.2038 0-1.8521 0.78714-0.64051 0.77941-0.64051 2.2456v4.553h-1.4276v-8.643h1.4276v1.3428q0.44759-0.78713 1.1653-1.1653 0.71768-0.38585 1.744-0.38585 0.14662 0 0.32411 0.0231 0.17749 0.0154 0.39357 0.054l0.008 1.4585z"/>
  <path id="path74" style="" d="m719.13 136.13h6.7446v1.2965l-5.3402 6.2122h5.3402v1.1344h-6.9376v-1.2965l5.3402-6.2122h-5.1472v-1.1344z"/>
  <path id="path76" style="" d="m731.98 140.42q-1.7209 0-2.3846 0.39357-0.66366 0.39356-0.66366 1.3428 0 0.75627 0.49389 1.2038 0.5016 0.43987 1.3582 0.43987 1.1807 0 1.8907-0.83343 0.71768-0.84116 0.71768-2.2302v-0.3164h-1.4122zm2.8321-0.58649v4.9312h-1.4199v-1.3119q-0.48617 0.78713-1.2116 1.1653-0.7254 0.37042-1.7749 0.37042-1.3273 0-2.1145-0.74083-0.77942-0.74855-0.77942-1.9987 0-1.4585 0.97235-2.1994 0.98005-0.74083 2.917-0.74083h1.991v-0.1389q0-0.98006-0.64822-1.5125-0.64051-0.54019-1.8058-0.54019-0.74083 0-1.4431 0.17749-0.70224 0.17749-1.3505 0.53247v-1.3119q0.77941-0.30096 1.5125-0.44758 0.73311-0.15434 1.4276-0.15434 1.8752 0 2.8013 0.97234 0.92604 0.97234 0.92604 2.9479z"/>
  <path id="path78" style="" d="m739.15 133.67v2.454h2.9247v1.1035h-2.9247v4.6919q0 1.0572 0.28552 1.3582 0.29325 0.30096 1.1807 0.30096h1.4585v1.1884h-1.4585q-1.6437 0-2.2688-0.60965-0.62508-0.61736-0.62508-2.2379v-4.6919h-1.0418v-1.1035h1.0418v-2.454h1.4276z"/>
 </g>
 <g id="g20" transform="translate(-1 -.68078)">
  <path id="rect22" fill="#fdfd04" d="m630 160h170v40h-170z"/>
  <path id="rect24" d="m630 160h170v40h-170z" stroke="#000" stroke-width="2" fill="none"/>
 </g>
 <g id="text26">
  <path id="path83" style="" d="m651.38 216.13h1.5048l2.701 7.254 2.7009-7.254h1.5048l-3.2411 8.643h-1.9292l-3.2411-8.643z"/>
  <path id="path85" style="" d="m661.75 216.13h1.4199v8.643h-1.4199v-8.643zm0-3.3646h1.4199v1.7981h-1.4199v-1.7981z"/>
  <path id="path87" style="" d="m671.64 216.38v1.3428q-0.60193-0.30868-1.2502-0.46302-0.64823-0.15434-1.3428-0.15434-1.0572 0-1.5897 0.32412-0.52476 0.32411-0.52476 0.97234 0 0.49388 0.37814 0.77941 0.37813 0.27782 1.5202 0.53248l0.48617 0.10803q1.5125 0.32412 2.1453 0.91833 0.64051 0.58649 0.64051 1.6437 0 1.2038-0.95691 1.9061-0.94919 0.70225-2.6161 0.70225-0.69453 0-1.4508-0.13891-0.74855-0.13119-1.582-0.40128v-1.4662q0.78714 0.409 1.5511 0.61736 0.76398 0.20064 1.5125 0.20064 1.0032 0 1.5434-0.33955 0.54019-0.34726 0.54019-0.97234 0-0.57877-0.39357-0.88745-0.38585-0.30868-1.7055-0.59421l-0.49388-0.11575q-1.3196-0.27782-1.9061-0.84887-0.58649-0.57878-0.58649-1.582 0-1.2193 0.8643-1.8829 0.8643-0.66366 2.454-0.66366 0.78713 0 1.4817 0.11575 0.69453 0.11576 1.281 0.34727z"/>
  <path id="path89" style="" d="m679.88 216.38v1.3428q-0.60193-0.30868-1.2502-0.46302-0.64822-0.15434-1.3428-0.15434-1.0572 0-1.5897 0.32412-0.52476 0.32411-0.52476 0.97234 0 0.49388 0.37813 0.77941 0.37814 0.27782 1.5202 0.53248l0.48617 0.10803q1.5125 0.32412 2.1453 0.91833 0.64051 0.58649 0.64051 1.6437 0 1.2038-0.95691 1.9061-0.94919 0.70225-2.6161 0.70225-0.69453 0-1.4508-0.13891-0.74854-0.13119-1.582-0.40128v-1.4662q0.78713 0.409 1.5511 0.61736 0.76398 0.20064 1.5125 0.20064 1.0032 0 1.5434-0.33955 0.54019-0.34726 0.54019-0.97234 0-0.57877-0.39357-0.88745-0.38585-0.30868-1.7055-0.59421l-0.49388-0.11575q-1.3196-0.27782-1.9061-0.84887-0.58649-0.57878-0.58649-1.582 0-1.2193 0.8643-1.8829 0.8643-0.66366 2.454-0.66366 0.78714 0 1.4817 0.11575 0.69453 0.11576 1.281 0.34727z"/>
  <path id="path91" style="" d="m682 216.13h6.7446v1.2965l-5.3402 6.2122h5.3402v1.1344h-6.9376v-1.2965l5.3402-6.2122h-5.1472v-1.1344z"/>
  <path id="path93" style="" d="m694.85 220.42q-1.7209 0-2.3846 0.39357-0.66367 0.39356-0.66367 1.3428 0 0.75627 0.49389 1.2038 0.50161 0.43987 1.3582 0.43987 1.1807 0 1.8907-0.83343 0.71768-0.84116 0.71768-2.2302v-0.3164h-1.4122zm2.8321-0.58649v4.9312h-1.4199v-1.3119q-0.48617 0.78713-1.2116 1.1653-0.7254 0.37042-1.7749 0.37042-1.3273 0-2.1145-0.74083-0.77941-0.74855-0.77941-1.9987 0-1.4585 0.97234-2.1994 0.98006-0.74083 2.917-0.74083h1.991v-0.1389q0-0.98006-0.64823-1.5125-0.64051-0.54019-1.8058-0.54019-0.74083 0-1.4431 0.17749-0.70224 0.17749-1.3505 0.53247v-1.3119q0.77942-0.30096 1.5125-0.44758 0.73312-0.15434 1.4276-0.15434 1.8752 0 2.8013 0.97234 0.92604 0.97234 0.92604 2.9479z"/>
  <path id="path95" style="" d="m702.02 213.67v2.454h2.9247v1.1035h-2.9247v4.6919q0 1.0572 0.28553 1.3582 0.29324 0.30096 1.1807 0.30096h1.4585v1.1884h-1.4585q-1.6437 0-2.2688-0.60965-0.62507-0.61736-0.62507-2.2379v-4.6919h-1.0418v-1.1035h1.0418v-2.454h1.4276z"/>
  <path id="path97" style="" d="m714.21 220.09v0.69453h-6.5286q0.0926 1.4662 0.87974 2.2379 0.79485 0.76398 2.2071 0.76398 0.818 0 1.582-0.20064 0.7717-0.20065 1.528-0.60193v1.3428q-0.76398 0.32411-1.5666 0.49389-0.80257 0.16977-1.6283 0.16977-2.0682 0-3.2797-1.2038-1.2038-1.2038-1.2038-3.2566 0-2.1222 1.1421-3.3646 1.1498-1.2502 3.0945-1.2502 1.744 0 2.755 1.1267 1.0186 1.119 1.0186 3.0482zm-1.4199-0.41672q-0.0154-1.1653-0.65594-1.8598-0.6328-0.69453-1.6823-0.69453-1.1884 0-1.9061 0.67137-0.70997 0.67138-0.818 1.8907l5.0623-0.008zm-1.3659-7.5472h1.5357l-2.5157 2.9016h-1.1807l2.1608-2.9016z"/>
  <path id="path99" style="" d="m721.55 217.45q-0.23923-0.13891-0.52476-0.20064-0.27781-0.0695-0.61736-0.0695-1.2038 0-1.8521 0.78714-0.64051 0.77941-0.64051 2.2456v4.553h-1.4276v-8.643h1.4276v1.3428q0.44759-0.78713 1.1653-1.1653 0.71768-0.38585 1.744-0.38585 0.14662 0 0.32411 0.0231 0.17749 0.0154 0.39357 0.054l0.008 1.4585z"/>
  <path id="path101" style="" d="m730.11 220.09v0.69453h-6.5286q0.0926 1.4662 0.87974 2.2379 0.79485 0.76398 2.2071 0.76398 0.818 0 1.582-0.20064 0.7717-0.20065 1.528-0.60193v1.3428q-0.76399 0.32411-1.5666 0.49389-0.80257 0.16977-1.6283 0.16977-2.0682 0-3.2797-1.2038-1.2038-1.2038-1.2038-3.2566 0-2.1222 1.1421-3.3646 1.1498-1.2502 3.0945-1.2502 1.744 0 2.755 1.1267 1.0186 1.119 1.0186 3.0482zm-1.4199-0.41672q-0.0154-1.1653-0.65594-1.8598-0.6328-0.69453-1.6823-0.69453-1.1884 0-1.9061 0.67137-0.70996 0.67138-0.818 1.8907l5.0624-0.008zm-1.3659-7.5472h1.5357l-2.5157 2.9016h-1.1807l2.1608-2.9016z"/>
  <path id="path103" style="" d="m737.95 216.38v1.3428q-0.60192-0.30868-1.2502-0.46302-0.64823-0.15434-1.3428-0.15434-1.0572 0-1.5897 0.32412-0.52475 0.32411-0.52475 0.97234 0 0.49388 0.37813 0.77941 0.37813 0.27782 1.5202 0.53248l0.48617 0.10803q1.5125 0.32412 2.1453 0.91833 0.64051 0.58649 0.64051 1.6437 0 1.2038-0.95691 1.9061-0.94919 0.70225-2.6161 0.70225-0.69453 0-1.4508-0.13891-0.74855-0.13119-1.582-0.40128v-1.4662q0.78713 0.409 1.5511 0.61736 0.76398 0.20064 1.5125 0.20064 1.0032 0 1.5434-0.33955 0.54019-0.34726 0.54019-0.97234 0-0.57877-0.39357-0.88745-0.38585-0.30868-1.7054-0.59421l-0.49389-0.11575q-1.3196-0.27782-1.9061-0.84887-0.58649-0.57878-0.58649-1.582 0-1.2193 0.8643-1.8829 0.86431-0.66366 2.454-0.66366 0.78713 0 1.4817 0.11575 0.69453 0.11576 1.281 0.34727z"/>
  <path id="path105" style="" d="m740.68 216.13h1.4199v8.643h-1.4199v-8.643zm0-3.3646h1.4199v1.7981h-1.4199v-1.7981z"/>
  <path id="path107" style="" d="m756.31 216.46v1.3273q-0.60193-0.33183-1.2116-0.49389-0.60193-0.16977-1.2193-0.16977-1.3813 0-2.1453 0.87973-0.76398 0.87202-0.76398 2.454t0.76398 2.4617q0.76398 0.87202 2.1453 0.87202 0.61736 0 1.2193-0.16206 0.60964-0.16977 1.2116-0.5016v1.3119q-0.59421 0.27781-1.2347 0.41671-0.6328 0.13891-1.3505 0.13891-1.9524 0-3.1022-1.227t-1.1498-3.3106q0-2.1145 1.1576-3.326 1.1653-1.2116 3.1871-1.2116 0.65594 0 1.281 0.1389 0.62507 0.13119 1.2116 0.40129z"/>
  <path id="path109" style="" d="m760.58 212.13h1.5357l-2.5157 2.9016h-1.1807l2.1608-2.9016zm-1.7826 3.9974h1.4199v8.643h-1.4199v-8.643zm0.70997-0.20835z"/>
  <path id="path111" style="" d="m769.91 217.79q0.53247-0.95691 1.2733-1.4122 0.74083-0.4553 1.744-0.4553 1.3505 0 2.0836 0.94919 0.73311 0.94147 0.73311 2.6855v5.2167h-1.4276v-5.1704q0-1.2424-0.43987-1.8444-0.43987-0.60193-1.3428-0.60193-1.1035 0-1.744 0.73312-0.64052 0.73311-0.64052 1.9987v4.8849h-1.4276v-5.1704q0-1.2502-0.43987-1.8444-0.43987-0.60193-1.3582-0.60193-1.0881 0-1.7286 0.74084-0.64051 0.73311-0.64051 1.991v4.8849h-1.4276v-8.643h1.4276v1.3428q0.48617-0.79485 1.1653-1.173 0.6791-0.37813 1.6128-0.37813 0.94148 0 1.5974 0.47845 0.66366 0.47845 0.98006 1.3891z"/>
 </g>
 <g id="text30">
  <path id="path114" style="" d="m717.66 179.55v5.2167h-1.4199v-5.1704q0-1.227-0.47846-1.8366-0.47845-0.60965-1.4354-0.60965-1.1498 0-1.8135 0.73312-0.66366 0.73311-0.66366 1.9987v4.8849h-1.4276v-8.643h1.4276v1.3428q0.50932-0.77941 1.1961-1.1653 0.69453-0.38585 1.5974-0.38585 1.4894 0 2.2534 0.92603 0.76398 0.91833 0.76398 2.7087z"/>
 </g>
 <g id="g34" transform="translate(-1 -.68078)">
  <path id="rect36" fill="#fdfd04" d="m630 240h170v40h-170z"/>
  <path id="rect38" d="m630 240h170v40h-170z" stroke="#000" stroke-width="2" fill="none"/>
 </g>
 <g id="text40">
  <path id="path119" style="" d="m644.96 256.13h1.5048l2.701 7.254 2.701-7.254h1.5048l-3.2411 8.643h-1.9292l-3.2411-8.643z"/>
  <path id="path121" style="" d="m655.33 256.13h1.4199v8.643h-1.4199v-8.643zm0-3.3646h1.4199v1.7981h-1.4199v-1.7981z"/>
  <path id="path123" style="" d="m665.22 256.38v1.3428q-0.60192-0.30868-1.2502-0.46302-0.64823-0.15434-1.3428-0.15434-1.0572 0-1.5897 0.32412-0.52475 0.32411-0.52475 0.97234 0 0.49389 0.37813 0.77941 0.37813 0.27782 1.5202 0.53248l0.48617 0.10803q1.5125 0.32412 2.1453 0.91833 0.64051 0.58649 0.64051 1.6437 0 1.2038-0.95691 1.9061-0.94919 0.70225-2.6161 0.70225-0.69453 0-1.4508-0.13891-0.74855-0.13119-1.582-0.40128v-1.4662q0.78714 0.409 1.5511 0.61736 0.76398 0.20064 1.5125 0.20064 1.0032 0 1.5434-0.33955 0.54019-0.34726 0.54019-0.97234 0-0.57877-0.39357-0.88745-0.38585-0.30868-1.7054-0.59421l-0.49389-0.11575q-1.3196-0.27782-1.9061-0.84887-0.58649-0.57878-0.58649-1.582 0-1.2193 0.8643-1.8829 0.86431-0.66366 2.454-0.66366 0.78713 0 1.4817 0.11575 0.69453 0.11576 1.281 0.34727z"/>
  <path id="path125" style="" d="m673.46 256.38v1.3428q-0.60193-0.30868-1.2502-0.46302-0.64823-0.15434-1.3428-0.15434-1.0572 0-1.5897 0.32412-0.52476 0.32411-0.52476 0.97234 0 0.49389 0.37814 0.77941 0.37813 0.27782 1.5202 0.53248l0.48617 0.10803q1.5125 0.32412 2.1453 0.91833 0.64051 0.58649 0.64051 1.6437 0 1.2038-0.95691 1.9061-0.94919 0.70225-2.6161 0.70225-0.69453 0-1.4508-0.13891-0.74855-0.13119-1.582-0.40128v-1.4662q0.78714 0.409 1.5511 0.61736 0.76398 0.20064 1.5125 0.20064 1.0032 0 1.5434-0.33955 0.54019-0.34726 0.54019-0.97234 0-0.57877-0.39357-0.88745-0.38585-0.30868-1.7054-0.59421l-0.49389-0.11575q-1.3196-0.27782-1.9061-0.84887-0.58649-0.57878-0.58649-1.582 0-1.2193 0.8643-1.8829 0.86431-0.66366 2.454-0.66366 0.78713 0 1.4817 0.11575 0.69453 0.11576 1.281 0.34727z"/>
  <path id="path127" style="" d="m675.58 256.13h6.7447v1.2964l-5.3402 6.2122h5.3402v1.1344h-6.9376v-1.2965l5.3402-6.2122h-5.1472v-1.1344z"/>
  <path id="path129" style="" d="m688.43 260.42q-1.7209 0-2.3846 0.39357-0.66366 0.39356-0.66366 1.3428 0 0.75627 0.49388 1.2038 0.50161 0.43987 1.3582 0.43987 1.1807 0 1.8907-0.83343 0.71768-0.84115 0.71768-2.2302v-0.3164h-1.4122zm2.8321-0.58649v4.9312h-1.4199v-1.3119q-0.48617 0.78713-1.2116 1.1653-0.7254 0.37042-1.7749 0.37042-1.3273 0-2.1144-0.74083-0.77942-0.74855-0.77942-1.9987 0-1.4585 0.97234-2.1994 0.98006-0.74083 2.917-0.74083h1.991v-0.1389q0-0.98006-0.64823-1.5125-0.64051-0.54019-1.8058-0.54019-0.74083 0-1.4431 0.17749-0.70225 0.17749-1.3505 0.53247v-1.3119q0.77942-0.30096 1.5125-0.44758 0.73312-0.15434 1.4276-0.15434 1.8752 0 2.8013 0.97234 0.92603 0.97234 0.92603 2.9479z"/>
  <path id="path131" style="" d="m695.59 253.67v2.454h2.9247v1.1035h-2.9247v4.6919q0 1.0572 0.28553 1.3582 0.29325 0.30096 1.1807 0.30096h1.4585v1.1884h-1.4585q-1.6437 0-2.2688-0.60965-0.62507-0.61736-0.62507-2.2379v-4.6919h-1.0418v-1.1035h1.0418v-2.454h1.4276z"/>
  <path id="path133" style="" d="m707.79 260.09v0.69453h-6.5286q0.0926 1.4662 0.87973 2.2379 0.79485 0.76398 2.2071 0.76398 0.818 0 1.582-0.20064 0.7717-0.20065 1.528-0.60193v1.3428q-0.76398 0.32411-1.5666 0.49389-0.80257 0.16977-1.6283 0.16977-2.0682 0-3.2797-1.2038-1.2038-1.2038-1.2038-3.2566 0-2.1222 1.1421-3.3646 1.1498-1.2502 3.0945-1.2502 1.744 0 2.755 1.1267 1.0186 1.119 1.0186 3.0482zm-1.4199-0.41672q-0.0154-1.1653-0.65594-1.8598-0.63279-0.69453-1.6823-0.69453-1.1884 0-1.9061 0.67138-0.70996 0.67137-0.818 1.8907l5.0623-0.008zm-1.3659-7.5472h1.5357l-2.5157 2.9016h-1.1807l2.1608-2.9016z"/>
  <path id="path135" style="" d="m715.13 257.45q-0.23923-0.13891-0.52476-0.20064-0.27781-0.0695-0.61736-0.0695-1.2038 0-1.8521 0.78714-0.64051 0.77941-0.64051 2.2456v4.553h-1.4276v-8.643h1.4276v1.3428q0.44758-0.78713 1.1653-1.1653 0.71768-0.38585 1.744-0.38585 0.14662 0 0.32412 0.0232 0.17749 0.0154 0.39356 0.054l0.008 1.4585z"/>
  <path id="path137" style="" d="m723.68 260.09v0.69453h-6.5286q0.0926 1.4662 0.87974 2.2379 0.79485 0.76398 2.2071 0.76398 0.818 0 1.582-0.20064 0.7717-0.20065 1.528-0.60193v1.3428q-0.76398 0.32411-1.5666 0.49389-0.80257 0.16977-1.6283 0.16977-2.0682 0-3.2797-1.2038-1.2038-1.2038-1.2038-3.2566 0-2.1222 1.1421-3.3646 1.1498-1.2502 3.0945-1.2502 1.744 0 2.755 1.1267 1.0186 1.119 1.0186 3.0482zm-1.4199-0.41672q-0.0154-1.1653-0.65594-1.8598-0.6328-0.69453-1.6823-0.69453-1.1884 0-1.9061 0.67138-0.70997 0.67137-0.81801 1.8907l5.0624-0.008zm-1.3659-7.5472h1.5357l-2.5157 2.9016h-1.1807l2.1608-2.9016z"/>
  <path id="path139" style="" d="m731.53 256.38v1.3428q-0.60192-0.30868-1.2502-0.46302-0.64823-0.15434-1.3428-0.15434-1.0572 0-1.5897 0.32412-0.52475 0.32411-0.52475 0.97234 0 0.49389 0.37813 0.77941 0.37813 0.27782 1.5202 0.53248l0.48617 0.10803q1.5125 0.32412 2.1453 0.91833 0.64051 0.58649 0.64051 1.6437 0 1.2038-0.9569 1.9061-0.94919 0.70225-2.6161 0.70225-0.69453 0-1.4508-0.13891-0.74855-0.13119-1.582-0.40128v-1.4662q0.78713 0.409 1.5511 0.61736 0.76399 0.20064 1.5125 0.20064 1.0032 0 1.5434-0.33955 0.54019-0.34726 0.54019-0.97234 0-0.57877-0.39356-0.88745-0.38585-0.30868-1.7055-0.59421l-0.49389-0.11575q-1.3196-0.27782-1.9061-0.84887-0.5865-0.57878-0.5865-1.582 0-1.2193 0.86431-1.8829 0.8643-0.66366 2.454-0.66366 0.78713 0 1.4817 0.11575 0.69453 0.11576 1.281 0.34727z"/>
  <path id="path141" style="" d="m734.26 256.13h1.4199v8.643h-1.4199v-8.643zm0-3.3646h1.4199v1.7981h-1.4199v-1.7981z"/>
  <path id="path143" style="" d="m751.06 260.09v0.69453h-6.5286q0.0926 1.4662 0.87973 2.2379 0.79485 0.76398 2.2071 0.76398 0.818 0 1.582-0.20064 0.7717-0.20065 1.528-0.60193v1.3428q-0.76398 0.32411-1.5666 0.49389-0.80257 0.16977-1.6283 0.16977-2.0682 0-3.2797-1.2038-1.2038-1.2038-1.2038-3.2566 0-2.1222 1.1421-3.3646 1.1498-1.2502 3.0945-1.2502 1.744 0 2.755 1.1267 1.0186 1.119 1.0186 3.0482zm-1.4199-0.41672q-0.0154-1.1653-0.65594-1.8598-0.63279-0.69453-1.6823-0.69453-1.1884 0-1.9061 0.67138-0.70996 0.67137-0.818 1.8907l5.0623-0.008zm-1.3659-7.5472h1.5357l-2.5157 2.9016h-1.1807l2.1608-2.9016z"/>
  <path id="path145" style="" d="m758.4 257.45q-0.23922-0.13891-0.52475-0.20064-0.27781-0.0695-0.61736-0.0695-1.2038 0-1.8521 0.78714-0.64051 0.77941-0.64051 2.2456v4.553h-1.4276v-8.643h1.4276v1.3428q0.44758-0.78713 1.1653-1.1653 0.71768-0.38585 1.744-0.38585 0.14663 0 0.32412 0.0232 0.17749 0.0154 0.39357 0.054l0.008 1.4585z"/>
  <path id="path147" style="" d="m761.31 253.67v2.454h2.9247v1.1035h-2.9247v4.6919q0 1.0572 0.28553 1.3582 0.29325 0.30096 1.1807 0.30096h1.4585v1.1884h-1.4585q-1.6437 0-2.2688-0.60965-0.62508-0.61736-0.62508-2.2379v-4.6919h-1.0418v-1.1035h1.0418v-2.454h1.4276z"/>
  <path id="path149" style="" d="m773.51 260.09v0.69453h-6.5286q0.0926 1.4662 0.87974 2.2379 0.79485 0.76398 2.2071 0.76398 0.818 0 1.582-0.20064 0.7717-0.20065 1.528-0.60193v1.3428q-0.76398 0.32411-1.5666 0.49389-0.80257 0.16977-1.6283 0.16977-2.0682 0-3.2797-1.2038-1.2038-1.2038-1.2038-3.2566 0-2.1222 1.1421-3.3646 1.1498-1.2502 3.0945-1.2502 1.744 0 2.755 1.1267 1.0186 1.119 1.0186 3.0482zm-1.4199-0.41672q-0.0154-1.1653-0.65594-1.8598-0.6328-0.69453-1.6823-0.69453-1.1884 0-1.9061 0.67138-0.70997 0.67137-0.81801 1.8907l5.0624-0.008zm-1.3659-7.5472h1.5357l-2.5157 2.9016h-1.1807l2.1608-2.9016z"/>
  <path id="path151" style="" d="m775.78 252.76h1.4276v7.0919l4.2366-3.7273h1.8135l-4.5839 4.0437 4.7768 4.5993h-1.8521l-4.391-4.2212v4.2212h-1.4276v-12.008z"/>
 </g>
 <g id="g44" transform="translate(-1 -.68078)">
  <path id="rect46" fill="#7babe3" d="m630 280h170v40h-170z"/>
  <path id="rect48" d="m630 280h170v40h-170z" stroke="#000" stroke-width="2" fill="none"/>
 </g>
 <g id="text50">
  <path id="path156" style="" d="m718 296.13-3.1254 4.2058 3.2874 4.4373h-1.6746l-2.5157-3.3955-2.5157 3.3955h-1.6746l3.3569-4.5222-3.0714-4.1209h1.6746l2.292 3.0791 2.2919-3.0791h1.6746z"/>
 </g>
 <path id="path54" d="m809 289.32c10 0 0 10 10 10" stroke="#000" stroke-width="2" fill="none"/>
 <path id="path56" d="m819 299.32c-10 0 0 10-10 10" stroke="#000" stroke-width="2" fill="none"/>
 <path id="path58" d="m809 169.32c10 0 0 50 10 50" stroke="#000" stroke-width="2" fill="none"/>
 <path id="path60" d="m819 219.32c-10 0 0 50-10 50" stroke="#000" stroke-width="2" fill="none"/>
 <path id="path62" d="m809 89.319c10 0 0 30 10 30" stroke="#000" stroke-width="2" fill="none"/>
 <path id="path64" d="m819 119.32c-10 0 0 30-10 30" stroke="#000" stroke-width="2" fill="none"/>
 <g id="text66">
  <path id="path159" style="" d="m837.22 297.79q0.53247-0.95691 1.2733-1.4122 0.74083-0.4553 1.744-0.4553 1.3505 0 2.0836 0.94919 0.73311 0.94147 0.73311 2.6855v5.2167h-1.4276v-5.1704q0-1.2424-0.43987-1.8444-0.43987-0.60192-1.3428-0.60192-1.1035 0-1.744 0.73311-0.64051 0.73311-0.64051 1.9987v4.8849h-1.4276v-5.1704q0-1.2502-0.43987-1.8444-0.43987-0.60192-1.3582-0.60192-1.0881 0-1.7286 0.74083-0.64051 0.73311-0.64051 1.991v4.8849h-1.4276v-8.643h1.4276v1.3428q0.48617-0.79485 1.1653-1.173 0.6791-0.37813 1.6128-0.37813 0.94147 0 1.5974 0.47845 0.66366 0.47845 0.98006 1.3891z"/>
  <path id="path161" style="" d="m849.82 300.42q-1.7209 0-2.3846 0.39357-0.66367 0.39356-0.66367 1.3428 0 0.75627 0.49389 1.2038 0.50161 0.43987 1.3582 0.43987 1.1807 0 1.8907-0.83343 0.71768-0.84115 0.71768-2.2302v-0.3164h-1.4122zm2.8321-0.58649v4.9312h-1.4199v-1.3119q-0.48618 0.78713-1.2116 1.1653-0.7254 0.37042-1.7749 0.37042-1.3273 0-2.1145-0.74083-0.77941-0.74855-0.77941-1.9987 0-1.4585 0.97234-2.1994 0.98006-0.74083 2.917-0.74083h1.991v-0.1389q0-0.98006-0.64823-1.5125-0.64051-0.54019-1.8058-0.54019-0.74083 0-1.4431 0.17749-0.70224 0.17749-1.3505 0.53247v-1.3119q0.77942-0.30096 1.5125-0.44758 0.73312-0.15434 1.4276-0.15434 1.8752 0 2.8013 0.97234 0.92604 0.97234 0.92604 2.9479z"/>
  <path id="path163" style="" d="m855.59 296.13h1.4199v8.643h-1.4199v-8.643zm0-3.3646h1.4199v1.7981h-1.4199v-1.7981z"/>
  <path id="path165" style="" d="m867.15 299.55v5.2167h-1.4199v-5.1704q0-1.227-0.47845-1.8366-0.47845-0.60964-1.4354-0.60964-1.1498 0-1.8135 0.73311-0.66367 0.73311-0.66367 1.9987v4.8849h-1.4276v-8.643h1.4276v1.3428q0.50933-0.77941 1.1961-1.1653 0.69453-0.38585 1.5974-0.38585 1.4894 0 2.2534 0.92604 0.76398 0.91832 0.76398 2.7087z"/>
  <path id="path167" style="" d="m873.41 292.78q-1.0341 1.7749-1.5357 3.5112t-0.5016 3.519q0 1.7826 0.5016 3.5344 0.50932 1.744 1.5357 3.5112h-1.2347q-1.1576-1.8135-1.7363-3.5652-0.57106-1.7518-0.57106-3.4804 0-1.7209 0.57106-3.4649t1.7363-3.5652h1.2347z"/>
  <path id="path169" style="" d="m875.95 292.78h1.2347q1.1576 1.8212 1.7286 3.5652 0.57877 1.744 0.57877 3.4649 0 1.7286-0.57877 3.4804-0.57106 1.7518-1.7286 3.5652h-1.2347q1.0264-1.7672 1.528-3.5112 0.50933-1.7518 0.50933-3.5344t-0.50933-3.519q-0.5016-1.7363-1.528-3.5112z"/>
 </g>
 <g id="text70">
  <path id="path172" style="" d="m834.86 212.76v1.1807h-1.3582q-0.76398 0-1.0649 0.30868-0.29325 0.30868-0.29325 1.1112v0.76398h2.3382v1.1035h-2.3382v7.5395h-1.4276v-7.5395h-1.3582v-1.1035h1.3582v-0.60192q0-1.4431 0.67138-2.099 0.67138-0.66366 2.1299-0.66366h1.3428z"/>
  <path id="path174" style="" d="m835.03 216.13h1.5048l2.701 7.254 2.701-7.254h1.5048l-3.2411 8.643h-1.9292l-3.2411-8.643z"/>
  <path id="path176" style="" d="m844.36 222.81h1.6283v1.9601h-1.6283v-1.9601z"/>
  <path id="path178" style="" d="m861.41 219.55v5.2167h-1.4199v-5.1704q0-1.227-0.47845-1.8366-0.47846-0.60965-1.4354-0.60965-1.1498 0-1.8135 0.73312-0.66366 0.73311-0.66366 1.9987v4.8849h-1.4276v-12.008h1.4276v4.7074q0.50932-0.77941 1.1961-1.1653 0.69453-0.38585 1.5974-0.38585 1.4894 0 2.2534 0.92603 0.76398 0.91833 0.76398 2.7087z"/>
  <path id="path180" style="" d="m866.04 212.13h1.5357l-2.5157 2.9016h-1.1807l2.1608-2.9016zm-1.7826 3.9974h1.4199v8.643h-1.4199v-8.643zm0.70996-0.20835z"/>
  <path id="path182" style="" d="m867.62 216.13h1.5048l2.701 7.254 2.7009-7.254h1.5048l-3.2411 8.643h-1.9292l-3.2411-8.643z"/>
  <path id="path184" style="" d="m881.92 220.42q-1.7209 0-2.3846 0.39357-0.66366 0.39356-0.66366 1.3428 0 0.75627 0.49389 1.2038 0.5016 0.43987 1.3582 0.43987 1.1807 0 1.8907-0.83343 0.71768-0.84116 0.71768-2.2302v-0.3164h-1.4122zm2.8321-0.58649v4.9312h-1.4199v-1.3119q-0.48617 0.78713-1.2116 1.1653-0.7254 0.37042-1.7749 0.37042-1.3273 0-2.1145-0.74083-0.77941-0.74855-0.77941-1.9987 0-1.4585 0.97234-2.1994 0.98006-0.74083 2.917-0.74083h1.991v-0.1389q0-0.98006-0.64822-1.5125-0.64051-0.54019-1.8058-0.54019-0.74083 0-1.4431 0.17749-0.70224 0.17749-1.3505 0.53247v-1.3119q0.77942-0.30096 1.5125-0.44758 0.73311-0.15434 1.4276-0.15434 1.8752 0 2.8013 0.97234 0.92604 0.97234 0.92604 2.9479zm-2.5929-7.7093h1.5357l-2.5157 2.9016h-1.1807l2.1608-2.9016z"/>
  <path id="path186" style="" d="m893.2 216.38v1.3428q-0.60193-0.30868-1.2502-0.46302-0.64822-0.15434-1.3428-0.15434-1.0572 0-1.5897 0.32412-0.52476 0.32411-0.52476 0.97234 0 0.49388 0.37813 0.77941 0.37814 0.27782 1.5202 0.53248l0.48617 0.10803q1.5125 0.32412 2.1453 0.91833 0.64051 0.58649 0.64051 1.6437 0 1.2038-0.95691 1.9061-0.94919 0.70225-2.6161 0.70225-0.69453 0-1.4508-0.13891-0.74854-0.13119-1.582-0.40128v-1.4662q0.78713 0.409 1.5511 0.61736 0.76398 0.20064 1.5125 0.20064 1.0032 0 1.5434-0.33955 0.54019-0.34726 0.54019-0.97234 0-0.57877-0.39357-0.88745-0.38585-0.30868-1.7055-0.59421l-0.49388-0.11575q-1.3196-0.27782-1.9061-0.84887-0.58649-0.57878-0.58649-1.582 0-1.2193 0.8643-1.8829 0.8643-0.66366 2.454-0.66366 0.78714 0 1.4817 0.11575 0.69453 0.11576 1.281 0.34727z"/>
 </g>
 <g id="text74">
  <path id="path189" style="" d="m834.86 112.76v1.1807h-1.3582q-0.76398 0-1.0649 0.30868-0.29325 0.30868-0.29325 1.1112v0.76399h2.3382v1.1035h-2.3382v7.5395h-1.4276v-7.5395h-1.3582v-1.1035h1.3582v-0.60193q0-1.4431 0.67138-2.099 0.67138-0.66366 2.1299-0.66366h1.3428z"/>
  <path id="path191" style="" d="m839.97 120.42q-1.7209 0-2.3846 0.39357-0.66366 0.39356-0.66366 1.3428 0 0.75626 0.49389 1.2038 0.5016 0.43986 1.3582 0.43986 1.1807 0 1.8907-0.83343 0.71768-0.84115 0.71768-2.2302v-0.3164h-1.4122zm2.8321-0.58649v4.9312h-1.4199v-1.3119q-0.48617 0.78713-1.2116 1.1653-0.72539 0.37041-1.7749 0.37041-1.3273 0-2.1145-0.74083-0.77942-0.74855-0.77942-1.9987 0-1.4585 0.97235-2.1993 0.98005-0.74084 2.917-0.74084h1.991v-0.1389q0-0.98006-0.64822-1.5125-0.64052-0.54019-1.8058-0.54019-0.74083 0-1.4431 0.17749-0.70224 0.17749-1.3505 0.53247v-1.3119q0.77941-0.30096 1.5125-0.44758 0.73311-0.15434 1.4276-0.15434 1.8752 0 2.8013 0.97234 0.92604 0.97234 0.92604 2.9479z"/>
  <path id="path193" style="" d="m845.68 112.76h1.4276v7.0919l4.2366-3.7273h1.8135l-4.5839 4.0437 4.7768 4.5993h-1.8521l-4.391-4.2212v4.2212h-1.4276v-12.008z"/>
  <path id="path195" style="" d="m856.31 113.67v2.454h2.9247v1.1035h-2.9247v4.6919q0 1.0572 0.28552 1.3582 0.29325 0.30096 1.1807 0.30096h1.4585v1.1884h-1.4585q-1.6437 0-2.2688-0.60964-0.62508-0.61736-0.62508-2.2379v-4.6919h-1.0418v-1.1035h1.0418v-2.454h1.4276z"/>
  <path id="path197" style="" d="m861.11 116.13h1.4199v8.643h-1.4199v-8.643zm0-3.3646h1.4199v1.7981h-1.4199v-1.7981z"/>
  <path id="path199" style="" d="m868.9 112.78q-1.0341 1.7749-1.5357 3.5112t-0.5016 3.519q0 1.7826 0.5016 3.5344 0.50933 1.744 1.5357 3.5112h-1.2347q-1.1576-1.8135-1.7363-3.5652-0.57105-1.7518-0.57105-3.4804 0-1.7209 0.57105-3.4649 0.57106-1.744 1.7363-3.5652h1.2347z"/>
  <path id="path201" style="" d="m871.44 112.78h1.2347q1.1576 1.8212 1.7286 3.5652 0.57878 1.744 0.57878 3.4649 0 1.7286-0.57878 3.4804-0.57105 1.7518-1.7286 3.5652h-1.2347q1.0264-1.7672 1.528-3.5112 0.50932-1.7518 0.50932-3.5344t-0.50932-3.519q-0.5016-1.7363-1.528-3.5112z"/>
 </g>
 <g id="g78" transform="translate(-1 -.68078)">
  <path id="line80" d="m600 70v240.26" stroke="#000" stroke-width="2" fill="none"/>
  <path id="polygon82" d="m595 307.76 5 2.5 5-2.5-5 10z"/>
  <path id="polygon84" d="m595 307.76 5 2.5 5-2.5-5 10z" stroke="#000" stroke-width="2" fill="none"/>
 </g>
 <g id="g86" transform="translate(-1 -.68078)">
  <path id="line88" d="m610 300v-240.26" stroke="#000" stroke-width="2" fill="none"/>
  <path id="polygon90" d="m615 62.236-5-2.5-5 2.5 5-10z"/>
  <path id="polygon92" d="m615 62.236-5-2.5-5 2.5 5-10z" stroke="#000" stroke-width="2" fill="none"/>
 </g>
 <path id="line94" d="m629 119.32v-140" stroke="#000" stroke-width="2" fill="none"/>
 <path id="line96" d="m629-20.681h-40" stroke="#000" stroke-width="2" fill="none"/>
 <path id="line98" d="m799 119.32v-140" stroke="#000" stroke-width="2" fill="none"/>
 <path id="line100" d="m799-20.681h40" stroke="#000" stroke-width="2" fill="none"/>
 <g id="g102" transform="translate(-1 -.68078)">
  <path id="rect104" fill="#7babe3" d="m630 80h170v40h-170z"/>
  <path id="rect106" d="m630 80h170v40h-170z" stroke="#000" stroke-width="2" fill="none"/>
 </g>
 <g id="text108">
  <path id="path216" style="" d="m713.3 96.126h1.4199v8.643h-1.4199v-8.643zm0-3.3646h1.4199v1.7981h-1.4199v-1.7981z"/>
 </g>
</svg>
