<?xml version="1.0" encoding="UTF-8" standalone="no"?>
<svg id="svg2" xmlns:rdf="http://www.w3.org/1999/02/22-rdf-syntax-ns#" xmlns="http://www.w3.org/2000/svg" viewBox="78 47 331.77452 271.74233" height="13.834cm" width="17.411cm" version="1.1" xmlns:cc="http://creativecommons.org/ns#" xmlns:dc="http://purl.org/dc/elements/1.1/">
 <metadata id="metadata90">
  <rdf:RDF>
   <cc:Work rdf:about="">
    <dc:format>image/svg+xml</dc:format>
    <dc:type rdf:resource="http://purl.org/dc/dcmitype/StillImage"/>
   </cc:Work>
  </rdf:RDF>
 </metadata>
 <g id="g4" transform="translate(-6.1127 -2.9458)">
  <path id="rect6" fill="#7babe3" d="m80 280h140v40h-140z"/>
  <path id="rect8" d="m80 280h140v40h-140z" stroke="#000" stroke-width="2" fill="none"/>
  <g id="text10">
   <path id="path51" style="" d="m95.879 299.66v4.4715h-1.2171v-4.4318q0-1.0517-0.41011-1.5743-0.4101-0.52255-1.2303-0.52255-0.98558 0-1.5544 0.62838-0.56886 0.62839-0.56886 1.7132v4.187h-1.2237v-10.292h1.2237v4.0349q0.43656-0.66807 1.0253-0.9988 0.59531-0.33073 1.3692-0.33073 1.2766 0 1.9315 0.79375 0.65484 0.78714 0.65484 2.3217z"/>
   <path id="path53" style="" d="m98.631 302.45h1.3957v1.6801h-1.3957v-1.6801zm0-5.3248h1.3957v1.6801h-1.3957v-1.6801z"/>
   <path id="path55" style="" d="m111.93 296.94v1.1509q-0.51594-0.26459-1.0716-0.39688-0.55563-0.13229-1.151-0.13229-0.9062 0-1.3626 0.27781-0.4498 0.27781-0.4498 0.83344 0 0.42334 0.32412 0.66808 0.32412 0.23812 1.3031 0.4564l0.41672 0.0926q1.2965 0.27781 1.8388 0.78713 0.54902 0.50271 0.54902 1.4089 0 1.0319-0.82021 1.6338-0.8136 0.60193-2.2424 0.60193-0.59532 0-1.2436-0.11906-0.64161-0.11245-1.356-0.34396v-1.2568q0.67469 0.35058 1.3295 0.52917 0.65485 0.17198 1.2965 0.17198 0.85989 0 1.3229-0.29104 0.46303-0.29766 0.46303-0.83344 0-0.4961-0.33735-0.76068-0.33073-0.26458-1.4618-0.50932l-0.42334-0.0992q-1.1311-0.23813-1.6338-0.72761-0.50271-0.49609-0.50271-1.356 0-1.0451 0.74083-1.614 0.74084-0.56886 2.1034-0.56886 0.67469 0 1.27 0.0992t1.098 0.29766z"/>
   <path id="path57" style="" d="m115.48 294.62v2.1034h2.5069v0.94589h-2.5069v4.0217q0 0.9062 0.24474 1.1642 0.25135 0.25797 1.012 0.25797h1.2502v1.0186h-1.2502q-1.4089 0-1.9447-0.52256-0.53579-0.52917-0.53579-1.9182v-4.0217h-0.89297v-0.94589h0.89297v-2.1034h1.2237z"/>
   <path id="path59" style="" d="m123.89 297.86q-0.20505-0.11907-0.44979-0.17198-0.23813-0.0595-0.52917-0.0595-1.0319 0-1.5875 0.67469-0.54901 0.66808-0.54901 1.9248v3.9026h-1.2237v-7.4084h1.2237v1.1509q0.38364-0.67468 0.9988-0.9988 0.61516-0.33073 1.4949-0.33073 0.12568 0 0.27781 0.0198 0.15214 0.0132 0.33735 0.0463l0.007 1.2502z"/>
   <path id="path61" style="" d="m125.05 301.21v-4.4847h1.2171v4.4384q0 1.0517 0.4101 1.5809 0.41011 0.52255 1.2303 0.52255 0.98557 0 1.5544-0.62838 0.57547-0.62839 0.57547-1.7132v-4.2003h1.2171v7.4084h-1.2171v-1.1377q-0.44318 0.67469-1.0319 1.0054-0.58208 0.32412-1.356 0.32412-1.2766 0-1.9381-0.79375-0.66146-0.79375-0.66146-2.3217zm3.0626-4.6633z"/>
   <path id="path63" style="" d="m139.11 297.01v1.1377q-0.51594-0.28442-1.0385-0.42333-0.51594-0.14552-1.0451-0.14552-1.184 0-1.8388 0.75406-0.65485 0.74745-0.65485 2.1034t0.65485 2.1101q0.65484 0.74745 1.8388 0.74745 0.52917 0 1.0451-0.13891 0.52255-0.14552 1.0385-0.42994v1.1245q-0.50932 0.23812-1.0583 0.35719-0.5424 0.11906-1.1576 0.11906-1.6735 0-2.6591-1.0517-0.98557-1.0517-0.98557-2.8377 0-1.8124 0.99219-2.8509 0.9988-1.0385 2.7318-1.0385 0.56224 0 1.098 0.11906 0.53578 0.11245 1.0385 0.34396z"/>
   <path id="path65" style="" d="m142.44 294.62v2.1034h2.5069v0.94589h-2.5069v4.0217q0 0.9062 0.24474 1.1642 0.25136 0.25797 1.012 0.25797h1.2502v1.0186h-1.2502q-1.4089 0-1.9447-0.52256-0.53578-0.52917-0.53578-1.9182v-4.0217h-0.89297v-0.94589h0.89297v-2.1034h1.2237z"/>
   <path id="path67" style="" d="m150.92 294.26h1.3362v4.0481h4.8551v-4.0481h1.3362v9.8756h-1.3362v-4.703h-4.8551v4.703h-1.3362v-9.8756z"/>
   <path id="path69" style="" d="m164.42 300.41q-1.4751 0-2.0439 0.33734-0.56886 0.33735-0.56886 1.1509 0 0.64823 0.42334 1.0319 0.42994 0.37703 1.1642 0.37703 1.012 0 1.6206-0.71438 0.61516-0.72099 0.61516-1.9116v-0.27119h-1.2105zm2.4276-0.50271v4.2267h-1.2171v-1.1245q-0.41672 0.67469-1.0385 0.99881-0.62178 0.3175-1.5214 0.3175-1.1377 0-1.8124-0.635-0.66808-0.64162-0.66808-1.7132 0-1.2502 0.83344-1.8852 0.84006-0.63501 2.5003-0.63501h1.7066v-0.11906q0-0.84005-0.55563-1.2965-0.54901-0.46302-1.5478-0.46302-0.635 0-1.2369 0.15213-0.60193 0.15214-1.1576 0.45641v-1.1245q0.66808-0.25797 1.2965-0.38365 0.62839-0.13229 1.2237-0.13229 1.6074 0 2.4011 0.83344 0.79376 0.83344 0.79376 2.5268z"/>
   <path id="path71" style="" d="m169.36 293.84h1.2171v10.292h-1.2171v-10.292z"/>
   <path id="path73" style="" d="m178.89 298.15q0.45641-0.82021 1.0914-1.2105 0.635-0.39026 1.4949-0.39026 1.1576 0 1.7859 0.8136 0.62839 0.80698 0.62839 2.3019v4.4715h-1.2237v-4.4318q0-1.065-0.37703-1.5809-0.37704-0.51593-1.1509-0.51593-0.94589 0-1.4949 0.62838-0.54902 0.62839-0.54902 1.7132v4.187h-1.2237v-4.4318q0-1.0716-0.37703-1.5809-0.37703-0.51593-1.1642-0.51593-0.93266 0-1.4817 0.635-0.54901 0.62838-0.54901 1.7066v4.187h-1.2237v-7.4084h1.2237v1.1509q0.41672-0.6813 0.9988-1.0054 0.58209-0.32412 1.3825-0.32412 0.80698 0 1.3692 0.41011 0.56885 0.4101 0.84005 1.1906z"/>
   <path id="path75" style="" d="m189.69 300.41q-1.4751 0-2.0439 0.33734-0.56886 0.33735-0.56886 1.1509 0 0.64823 0.42333 1.0319 0.42995 0.37703 1.1642 0.37703 1.012 0 1.6206-0.71438 0.61516-0.72099 0.61516-1.9116v-0.27119h-1.2105zm2.4276-0.50271v4.2267h-1.2171v-1.1245q-0.41672 0.67469-1.0385 0.99881-0.62178 0.3175-1.5214 0.3175-1.1377 0-1.8124-0.635-0.66808-0.64162-0.66808-1.7132 0-1.2502 0.83344-1.8852 0.84006-0.63501 2.5003-0.63501h1.7066v-0.11906q0-0.84005-0.55563-1.2965-0.54901-0.46302-1.5478-0.46302-0.63501 0-1.2369 0.15213-0.60193 0.15214-1.1576 0.45641v-1.1245q0.66807-0.25797 1.2965-0.38365 0.62839-0.13229 1.2237-0.13229 1.6074 0 2.4011 0.83344 0.79375 0.83344 0.79375 2.5268z"/>
   <path id="path77" style="" d="m194.1 296.72h5.7812v1.1113l-4.5773 5.3248h4.5773v0.97235h-5.9465v-1.1113l4.5773-5.3248h-4.4119v-0.97235z"/>
   <path id="path79" style="" d="m211.15 295.88-2.3746 1.2832 2.3746 1.2898-0.38365 0.64823-2.2225-1.3428v2.4937h-0.75406v-2.4937l-2.2225 1.3428-0.38364-0.64823 2.3746-1.2898-2.3746-1.2832 0.38364-0.65485 2.2225 1.3428v-2.4937h0.75406v2.4937l2.2225-1.3428 0.38365 0.65485z"/>
  </g>
 </g>
 <path id="line14" d="m73.887 277.05v-210" stroke="#000" stroke-width="2" fill="none"/>
 <path id="line16" d="m213.89 277.05v-210" stroke="#000" stroke-width="2" fill="none"/>
 <g id="g18" transform="translate(-6.1127 -2.9458)">
  <path id="polygon20" fill="#fdfd04" d="m410 90 10-10v30h-140v-30l10 10 10-10 20 10 20-20 10 10 10-10 10 10 20-10z"/>
  <path id="polygon22" d="m410 90 10-10v30h-140v-30l10 10 10-10 20 10 20-20 10 10 10-10 10 10 20-10z" stroke="#000" stroke-width="2" fill="none"/>
 </g>
 <g id="g24" transform="translate(-6.1127 -2.9458)">
  <path id="polygon26" fill="#fdfd04" d="m400 320 20-10v-20h-140v20l10 10 10-10 20 10 20-20 10 10 10-10 10 20 20-20z"/>
  <path id="polygon28" d="m400 320 20-10v-20h-140v20l10 10 10-10 20 10 20-20 10 10 10-10 10 20 20-20z" stroke="#000" stroke-width="2" fill="none"/>
 </g>
 <g id="g30" transform="translate(-6.1127 -2.9458)">
  <path id="rect32" fill="#fdfd04" d="m280 210h140v80h-140z"/>
  <path id="rect34" d="m280 210h140v80h-140z" stroke="#000" stroke-width="2" fill="none"/>
  <g id="text36">
   <path id="path90" style="" d="m323.46 222.45v-4.0084h1.2171v10.292h-1.2171v-1.1112q-0.38365 0.66146-0.97235 0.98557-0.58208 0.31751-1.4023 0.31751-1.3428 0-2.1894-1.0716-0.84005-1.0716-0.84005-2.8178t0.84005-2.8178q0.84667-1.0716 2.1894-1.0716 0.82021 0 1.4023 0.32411 0.5887 0.3175 0.97235 0.97896zm-4.1474 2.5863q0 1.3428 0.54902 2.1101 0.55562 0.76068 1.5214 0.76068 0.96573 0 1.5214-0.76068 0.55563-0.7673 0.55563-2.1101t-0.55563-2.1034q-0.55563-0.7673-1.5214-0.7673-0.96573 0-1.5214 0.7673-0.54902 0.76068-0.54902 2.1034z"/>
   <path id="path92" style="" d="m330.06 222.18q-0.97896 0-1.5478 0.7673-0.56886 0.76068-0.56886 2.0902t0.56224 2.0968q0.56886 0.76068 1.5544 0.76068 0.97235 0 1.5412-0.7673 0.56886-0.76729 0.56886-2.0902 0-1.3163-0.56886-2.0836-0.56885-0.77391-1.5412-0.77391zm0-1.0319q1.5875 0 2.4937 1.0319t0.9062 2.8575q0 1.819-0.9062 2.8575-0.9062 1.0319-2.4937 1.0319-1.5941 0-2.5003-1.0319-0.89958-1.0385-0.89958-2.8575 0-1.8256 0.89958-2.8575 0.9062-1.0319 2.5003-1.0319z"/>
   <path id="path94" style="" d="m335.34 225.81v-4.4847h1.2171v4.4384q0 1.0517 0.4101 1.5809 0.41011 0.52255 1.2303 0.52255 0.98557 0 1.5544-0.62839 0.57547-0.62838 0.57547-1.7132v-4.2003h1.2171v7.4084h-1.2171v-1.1377q-0.44318 0.67469-1.0319 1.0054-0.58209 0.32412-1.356 0.32412-1.2766 0-1.9381-0.79376-0.66146-0.79375-0.66146-2.3217zm3.0626-4.6633z"/>
   <path id="path96" style="" d="m349.38 225.04q0-1.3428-0.55562-2.1034-0.54902-0.7673-1.5148-0.7673-0.96573 0-1.5214 0.7673-0.54901 0.76068-0.54901 2.1034 0 1.3428 0.54901 2.1101 0.55563 0.76068 1.5214 0.76068 0.96573 0 1.5148-0.76068 0.55562-0.7673 0.55562-2.1101zm-4.1407-2.5863q0.38365-0.66146 0.96573-0.97896 0.5887-0.32411 1.4023-0.32411 1.3494 0 2.1894 1.0716 0.84667 1.0716 0.84667 2.8178t-0.84667 2.8178q-0.84005 1.0716-2.1894 1.0716-0.8136 0-1.4023-0.31751-0.58208-0.32411-0.96573-0.98557v1.1112h-1.2237v-10.292h1.2237v4.0084z"/>
   <path id="path98" style="" d="m352.67 218.44h1.2171v10.292h-1.2171v-10.292z"/>
   <path id="path100" style="" d="m362.76 224.72v0.59532h-5.596q0.0794 1.2568 0.75407 1.9182 0.6813 0.65485 1.8918 0.65485 0.70115 0 1.356-0.17198 0.66146-0.17198 1.3097-0.51594v1.1509q-0.65485 0.27781-1.3428 0.42333-0.68792 0.14553-1.3957 0.14553-1.7727 0-2.8112-1.0319-1.0319-1.0319-1.0319-2.7914 0-1.819 0.97896-2.884 0.98558-1.0716 2.6524-1.0716 1.4949 0 2.3614 0.96573 0.87312 0.95911 0.87312 2.6128zm-1.2171-0.35718q-0.0132-0.99881-0.56224-1.5941-0.5424-0.59532-1.442-0.59532-1.0186 0-1.6338 0.57547-0.60855 0.57547-0.70115 1.6206l4.3392-0.007z"/>
   <path id="path102" style="" d="m364.64 218.44h2.8046v0.94588h-1.5875v10.186h1.5875v0.94588h-2.8046v-12.078z"/>
   <path id="path104" style="" d="m374.27 223.41q0.95912 0.20505 1.4949 0.85328 0.5424 0.64823 0.5424 1.6007 0 1.4618-1.0054 2.2622-1.0054 0.80037-2.8575 0.80037-0.62177 0-1.2832-0.12568-0.65484-0.11907-1.356-0.36381v-1.2898q0.55563 0.32411 1.2171 0.48948 0.66146 0.16536 1.3824 0.16536 1.2568 0 1.9116-0.49609 0.66146-0.4961 0.66146-1.442 0-0.87313-0.61516-1.3626-0.60854-0.4961-1.7-0.4961h-1.1509v-1.098h1.2038q0.98558 0 1.5081-0.39026 0.52256-0.39688 0.52256-1.1377 0-0.76068-0.5424-1.1642-0.53578-0.41011-1.5412-0.41011-0.54902 0-1.1774 0.11907-0.62839 0.11906-1.3824 0.37041v-1.1906q0.76068-0.21167 1.4221-0.31751 0.66807-0.10583 1.2568-0.10583 1.5214 0 2.4077 0.69453 0.88636 0.68792 0.88636 1.8653 0 0.82021-0.46964 1.3891-0.46963 0.56224-1.3362 0.78052z"/>
   <path id="path106" style="" d="m381.52 218.44v12.078h-2.8046v-0.94588h1.5809v-10.186h-1.5809v-0.94588h2.8046z"/>
   <path id="path108" style="" d="m340.4 240.34q0.95911 0.20506 1.4949 0.85329 0.54239 0.64823 0.54239 1.6007 0 1.4618-1.0054 2.2622-1.0054 0.80037-2.8575 0.80037-0.62178 0-1.2832-0.12568-0.65484-0.11906-1.356-0.3638v-1.2898q0.55563 0.32412 1.2171 0.48948 0.66146 0.16537 1.3824 0.16537 1.2568 0 1.9116-0.4961 0.66146-0.49609 0.66146-1.442 0-0.87313-0.61516-1.3626-0.60854-0.49609-1.7-0.49609h-1.1509v-1.098h1.2039q0.98557 0 1.5081-0.39027 0.52256-0.39687 0.52256-1.1377 0-0.76068-0.5424-1.1642-0.53578-0.4101-1.5412-0.4101-0.54901 0-1.1774 0.11906t-1.3824 0.37042v-1.1906q0.76068-0.21167 1.4221-0.3175 0.66807-0.10583 1.2568-0.10583 1.5214 0 2.4077 0.69453 0.88635 0.68792 0.88635 1.8653 0 0.82021-0.46963 1.3891-0.46964 0.56224-1.3362 0.78052z"/>
   <path id="path110" style="" d="m344.98 243.99h1.3957v1.6801h-1.3957v-1.6801z"/>
   <path id="path112" style="" d="m349.52 244.54h2.1828v-7.534l-2.3746 0.47625v-1.2171l2.3614-0.47625h1.3362v8.7511h2.1828v1.1245h-5.6886v-1.1245z"/>
   <path id="path114" style="" d="m361.59 236.96-3.3734 5.2718h3.3734v-5.2718zm-0.35057-1.1642h1.6801v6.436h1.4089v1.1112h-1.4089v2.3283h-1.3295v-2.3283h-4.4582v-1.2898l4.1077-6.2574z"/>
   <path id="path116" style="" d="m341.82 261.48h4.6633v1.1245h-6.2706v-1.1245q0.76068-0.78713 2.0704-2.11 1.3163-1.3295 1.6536-1.7132 0.64162-0.721 0.89297-1.2171 0.25797-0.50271 0.25797-0.98558 0-0.78713-0.55562-1.2832-0.54902-0.49609-1.4354-0.49609-0.62839 0-1.3295 0.21828-0.69453 0.21828-1.4883 0.66146v-1.3494q0.80698-0.32411 1.5081-0.48948 0.70115-0.16536 1.2832-0.16536 1.5346 0 2.4474 0.76729 0.91282 0.76729 0.91282 2.0505 0 0.60855-0.23151 1.1576-0.2249 0.5424-0.82683 1.2832-0.16536 0.19182-1.0517 1.1112-0.88636 0.91282-2.5003 2.5598z"/>
   <path id="path118" style="" d="m349.29 260.92h1.3957v1.6801h-1.3957v-1.6801z"/>
   <path id="path120" style="" d="m356.46 253.6q-1.0319 0-1.5544 1.0186-0.51594 1.012-0.51594 3.0493 0 2.0307 0.51594 3.0493 0.52256 1.012 1.5544 1.012 1.0385 0 1.5544-1.012 0.52256-1.0186 0.52256-3.0493 0-2.0373-0.52256-3.0493-0.51593-1.0186-1.5544-1.0186zm0-1.0583q1.6603 0 2.5334 1.3163 0.87975 1.3097 0.87975 3.81 0 2.4937-0.87975 3.81-0.87312 1.3097-2.5334 1.3097t-2.54-1.3097q-0.87313-1.3163-0.87313-3.81 0-2.5003 0.87313-3.81 0.87974-1.3163 2.54-1.3163z"/>
   <path id="path122" style="" d="m343.69 274.06q-0.89958 0-1.4288 0.61515-0.52255 0.61516-0.52255 1.6867 0 1.065 0.52255 1.6867 0.52917 0.61516 1.4288 0.61516 0.89959 0 1.4221-0.61516 0.52917-0.62177 0.52917-1.6867 0-1.0716-0.52917-1.6867-0.52255-0.61515-1.4221-0.61515zm2.6525-4.187v1.2171q-0.50271-0.23812-1.0186-0.3638-0.50933-0.12568-1.012-0.12568-1.3229 0-2.0241 0.89297-0.69454 0.89297-0.79375 2.6988 0.39026-0.57547 0.97896-0.87974 0.5887-0.31089 1.2965-0.31089 1.4883 0 2.3482 0.9062 0.86651 0.89959 0.86651 2.454 0 1.5214-0.89958 2.4408-0.89959 0.91943-2.3945 0.91943-1.7132 0-2.6194-1.3097-0.9062-1.3163-0.9062-3.81 0-2.3416 1.1112-3.7306 1.1113-1.3957 2.9832-1.3957 0.50271 0 1.012 0.0992 0.51594 0.0992 1.0716 0.29765z"/>
   <path id="path124" style="" d="m349.29 277.85h1.3957v1.6801h-1.3957v-1.6801z"/>
   <path id="path126" style="" d="m353.84 278.41h2.1828v-7.534l-2.3746 0.47625v-1.2171l2.3614-0.47625h1.3362v8.7511h2.1828v1.1245h-5.6886v-1.1245z"/>
  </g>
 </g>
 <g id="g46" stroke="#000" stroke-width="2" fill="none" transform="translate(-6.1127 -2.9458)">
  <path id="path48" d="m280 160c-20-4-40 60-4.472 60"/>
  <path id="polyline50" d="m267.76 225 10-5-10-5"/>
 </g>
 <g id="text52">
  <path id="path130" style="" d="m124 57.054-3.7703-9.8756h1.3957l3.1287 8.3146 3.1353-8.3146h1.3891l-3.7637 9.8756h-1.5148z"/>
  <path id="path132" style="" d="m130.72 47.179h6.2442v1.1245h-4.908v2.9237h4.703v1.1245h-4.703v3.5785h5.0271v1.1245h-6.3632v-9.8756z"/>
  <path id="path134" style="" d="m143.97 52.424q0.42995 0.14552 0.83344 0.62177 0.4101 0.47625 0.82021 1.3097l1.356 2.6988h-1.4354l-1.2634-2.5334q-0.48948-0.99219-0.9525-1.3163-0.45641-0.32412-1.2502-0.32412h-1.4552v4.1738h-1.3362v-9.8756h3.0163q1.6933 0 2.5268 0.70776 0.83344 0.70776 0.83344 2.1365 0 0.93266-0.43657 1.5478-0.42995 0.61516-1.2568 0.85328zm-3.347-4.1474v3.5057h1.6801q0.96573 0 1.4552-0.44318 0.4961-0.44979 0.4961-1.3163t-0.4961-1.3031q-0.48948-0.44318-1.4552-0.44318h-1.6801z"/>
  <path id="path136" style="" d="m148.71 47.179h6.2442v1.1245h-4.908v2.9237h4.703v1.1245h-4.703v3.5785h5.0271v1.1245h-6.3632v-9.8756z"/>
  <path id="path138" style="" d="m157.28 47.179h1.991l2.5202 6.7204 2.5334-6.7204h1.991v9.8756h-1.3031v-8.6717l-2.5466 6.7734h-1.3428l-2.5466-6.7734v8.6717h-1.2965v-9.8756z"/>
 </g>
 <g id="text56">
  <path id="path141" style="" d="m323.1 47.179h1.3362v4.1738l4.4318-4.1738h1.7198l-4.9014 4.6038 5.252 5.2718h-1.7595l-4.7427-4.7559v4.7559h-1.3362v-9.8756z"/>
  <path id="path143" style="" d="m331.47 47.179h1.3428v5.9994q0 1.5875 0.57547 2.2887 0.57547 0.69453 1.8653 0.69453 1.2832 0 1.8587-0.69453 0.57547-0.70115 0.57547-2.2887v-5.9994h1.3428v6.1648q0 1.9315-0.95912 2.917-0.9525 0.98558-2.8178 0.98558-1.8719 0-2.831-0.98558-0.9525-0.98558-0.9525-2.917v-6.1648z"/>
  <path id="path145" style="" d="m342.88 48.277v3.7108h1.6801q0.93266 0 1.442-0.48287 0.50933-0.48287 0.50933-1.3758 0-0.88636-0.50933-1.3692-0.50932-0.48286-1.442-0.48286h-1.6801zm-1.3362-1.098h3.0163q1.6603 0 2.5069 0.75406 0.85329 0.74745 0.85329 2.196 0 1.4618-0.85329 2.2093-0.84666 0.74745-2.5069 0.74745h-1.6801v3.9688h-1.3362v-9.8756z"/>
  <path id="path147" style="" d="m352.14 48.495-1.8124 4.9146h3.6314l-1.819-4.9146zm-0.75407-1.3163h1.5148l3.7637 9.8756h-1.3891l-0.89959-2.5334h-4.4516l-0.89959 2.5334h-1.4089l3.7703-9.8756z"/>
  <path id="path149" style="" d="m365.26 47.939v1.4089q-0.67469-0.62839-1.442-0.93927-0.76068-0.31089-1.6206-0.31089-1.6933 0-2.5929 1.0385-0.89959 1.0319-0.89959 2.9898 0 1.9513 0.89959 2.9898 0.89958 1.0319 2.5929 1.0319 0.8599 0 1.6206-0.31089 0.76729-0.31089 1.442-0.93927v1.3957q-0.70115 0.47625-1.4883 0.71438-0.78052 0.23812-1.6536 0.23812-2.2424 0-3.5322-1.3692-1.2898-1.3758-1.2898-3.7505 0-2.3813 1.2898-3.7505 1.2898-1.3758 3.5322-1.3758 0.88636 0 1.6669 0.23812 0.78714 0.23151 1.4751 0.70115z"/>
 </g>
 <g id="g60" transform="translate(-6.1127 -2.9458)">
  <path id="rect62" fill="#fdfd04" d="m280 110h140v60h-140z"/>
  <path id="rect64" d="m280 110h140v60h-140z" stroke="#000" stroke-width="2" fill="none"/>
  <g id="text66">
   <path id="path154" style="" d="m308.73 120.01v1.1509q-0.51593-0.26459-1.0716-0.39688-0.55563-0.13229-1.1509-0.13229-0.9062 0-1.3626 0.27781-0.44979 0.27782-0.44979 0.83344 0 0.42334 0.32411 0.66808 0.32412 0.23812 1.3031 0.4564l0.41672 0.0926q1.2965 0.27781 1.8389 0.78714 0.54901 0.50271 0.54901 1.4089 0 1.0319-0.82021 1.6338-0.8136 0.60193-2.2424 0.60193-0.59531 0-1.2435-0.11906-0.64162-0.11245-1.356-0.34396v-1.2568q0.67469 0.35058 1.3295 0.52917 0.65484 0.17198 1.2965 0.17198 0.8599 0 1.3229-0.29104 0.46302-0.29766 0.46302-0.83344 0-0.49609-0.33734-0.76068-0.33073-0.26458-1.4618-0.50932l-0.42333-0.0992q-1.1311-0.23813-1.6338-0.72761-0.50271-0.49609-0.50271-1.356 0-1.0451 0.74084-1.614 0.74083-0.56886 2.1034-0.56886 0.67469 0 1.27 0.0992t1.098 0.29766z"/>
   <path id="path156" style="" d="m312.28 117.69v2.1034h2.5069v0.94588h-2.5069v4.0217q0 0.9062 0.24474 1.1642 0.25135 0.25797 1.012 0.25797h1.2502v1.0186h-1.2502q-1.4089 0-1.9447-0.52256-0.53578-0.52916-0.53578-1.9182v-4.0217h-0.89297v-0.94588h0.89297v-2.1034h1.2237z"/>
   <path id="path158" style="" d="m320.68 120.93q-0.20506-0.11907-0.4498-0.17198-0.23812-0.0595-0.52916-0.0595-1.0319 0-1.5875 0.67468-0.54901 0.66808-0.54901 1.9248v3.9026h-1.2237v-7.4084h1.2237v1.1509q0.38365-0.67469 0.9988-0.99881 0.61516-0.33073 1.4949-0.33073 0.12568 0 0.27782 0.0199 0.15213 0.0132 0.33734 0.0463l0.007 1.2502z"/>
   <path id="path160" style="" d="m321.85 124.28v-4.4847h1.2171v4.4384q0 1.0517 0.41011 1.5809 0.4101 0.52255 1.2303 0.52255 0.98558 0 1.5544-0.62838 0.57547-0.62839 0.57547-1.7132v-4.2003h1.2171v7.4084h-1.2171v-1.1377q-0.44318 0.67468-1.0319 1.0054-0.58209 0.32412-1.356 0.32412-1.2766 0-1.9381-0.79375-0.66146-0.79375-0.66146-2.3217zm3.0626-4.6633z"/>
   <path id="path162" style="" d="m335.9 120.08v1.1377q-0.51594-0.28442-1.0385-0.42333-0.51594-0.14552-1.0451-0.14552-1.184 0-1.8389 0.75406-0.65484 0.74745-0.65484 2.1034t0.65484 2.11q0.65485 0.74745 1.8389 0.74745 0.52917 0 1.0451-0.1389 0.52255-0.14552 1.0385-0.42995v1.1245q-0.50932 0.23812-1.0583 0.35719-0.54239 0.11906-1.1576 0.11906-1.6735 0-2.6591-1.0517-0.98558-1.0517-0.98558-2.8377 0-1.8124 0.99219-2.8509 0.99881-1.0385 2.7318-1.0385 0.56224 0 1.098 0.11906 0.53578 0.11245 1.0385 0.34396z"/>
   <path id="path164" style="" d="m339.24 117.69v2.1034h2.5069v0.94588h-2.5069v4.0217q0 0.9062 0.24474 1.1642 0.25135 0.25797 1.012 0.25797h1.2502v1.0186h-1.2502q-1.4089 0-1.9447-0.52256-0.53579-0.52916-0.53579-1.9182v-4.0217h-0.89297v-0.94588h0.89297v-2.1034h1.2237z"/>
   <path id="path166" style="" d="m347.72 117.32h1.3362v4.0481h4.8551v-4.0481h1.3362v9.8756h-1.3362v-4.703h-4.8551v4.703h-1.3362v-9.8756z"/>
   <path id="path168" style="" d="m361.22 123.48q-1.4751 0-2.0439 0.33734-0.56886 0.33735-0.56886 1.1509 0 0.64823 0.42334 1.0319 0.42995 0.37703 1.1642 0.37703 1.012 0 1.6206-0.71437 0.61516-0.721 0.61516-1.9116v-0.2712h-1.2105zm2.4276-0.50271v4.2267h-1.2171v-1.1245q-0.41672 0.67468-1.0385 0.9988-0.62177 0.3175-1.5214 0.3175-1.1377 0-1.8124-0.635-0.66807-0.64162-0.66807-1.7132 0-1.2502 0.83344-1.8852 0.84005-0.635 2.5003-0.635h1.7066v-0.11907q0-0.84005-0.55562-1.2965-0.54902-0.46302-1.5478-0.46302-0.635 0-1.2369 0.15213-0.60193 0.15214-1.1576 0.45641v-1.1245q0.66808-0.25797 1.2965-0.38365 0.62838-0.13229 1.2237-0.13229 1.6073 0 2.4011 0.83344 0.79375 0.83344 0.79375 2.5268z"/>
   <path id="path170" style="" d="m366.16 116.91h1.2171v10.292h-1.2171v-10.292z"/>
   <path id="path172" style="" d="m375.68 121.21q0.45641-0.82021 1.0914-1.2105 0.635-0.39026 1.4949-0.39026 1.1576 0 1.7859 0.8136 0.62839 0.80698 0.62839 2.3019v4.4715h-1.2237v-4.4318q0-1.065-0.37703-1.5809-0.37703-0.51594-1.1509-0.51594-0.94589 0-1.4949 0.62838-0.54901 0.62839-0.54901 1.7132v4.187h-1.2237v-4.4318q0-1.0716-0.37703-1.5809-0.37703-0.51594-1.1642-0.51594-0.93266 0-1.4817 0.635-0.54901 0.62839-0.54901 1.7066v4.187h-1.2237v-7.4084h1.2237v1.1509q0.41672-0.68131 0.9988-1.0054 0.58209-0.32412 1.3824-0.32412 0.80698 0 1.3692 0.41011 0.56886 0.4101 0.84006 1.1906z"/>
   <path id="path174" style="" d="m386.49 123.48q-1.475 0-2.0439 0.33734-0.56885 0.33735-0.56885 1.1509 0 0.64823 0.42333 1.0319 0.42995 0.37703 1.1642 0.37703 1.012 0 1.6206-0.71437 0.61515-0.721 0.61515-1.9116v-0.2712h-1.2105zm2.4276-0.50271v4.2267h-1.2171v-1.1245q-0.41672 0.67468-1.0385 0.9988-0.62177 0.3175-1.5214 0.3175-1.1377 0-1.8124-0.635-0.66807-0.64162-0.66807-1.7132 0-1.2502 0.83344-1.8852 0.84005-0.635 2.5003-0.635h1.7066v-0.11907q0-0.84005-0.55562-1.2965-0.54901-0.46302-1.5478-0.46302-0.635 0-1.2369 0.15213-0.60193 0.15214-1.1576 0.45641v-1.1245q0.66807-0.25797 1.2965-0.38365 0.62839-0.13229 1.2237-0.13229 1.6074 0 2.4011 0.83344 0.79375 0.83344 0.79375 2.5268z"/>
   <path id="path176" style="" d="m390.9 119.79h5.7812v1.1112l-4.5773 5.3248h4.5773v0.97235h-5.9465v-1.1113l4.5773-5.3248h-4.4119v-0.97234z"/>
   <path id="path178" style="" d="m331.68 136.72h1.2171v7.4084h-1.2171v-7.4084zm0-2.884h1.2171v1.5412h-1.2171v-1.5412z"/>
   <path id="path180" style="" d="m341.6 139.66v4.4715h-1.2171v-4.4318q0-1.0517-0.4101-1.5743-0.41011-0.52255-1.2303-0.52255-0.98557 0-1.5544 0.62838-0.56885 0.62839-0.56885 1.7132v4.187h-1.2237v-7.4084h1.2237v1.1509q0.43656-0.66807 1.0253-0.9988 0.59531-0.33073 1.3692-0.33073 1.2766 0 1.9315 0.79375 0.65485 0.78714 0.65485 2.3217z"/>
   <path id="path182" style="" d="m345.24 134.62v2.1034h2.5069v0.94589h-2.5069v4.0217q0 0.9062 0.24474 1.1642 0.25136 0.25797 1.012 0.25797h1.2502v1.0186h-1.2502q-1.4089 0-1.9447-0.52256-0.53578-0.52917-0.53578-1.9182v-4.0217h-0.89297v-0.94589h0.89297v-2.1034h1.2237z"/>
   <path id="path184" style="" d="m358.55 137.85v-4.0084h1.2171v10.292h-1.2171v-1.1113q-0.38364 0.66146-0.97234 0.98558-0.58209 0.3175-1.4023 0.3175-1.3428 0-2.1894-1.0716-0.84005-1.0716-0.84005-2.8178t0.84005-2.8178q0.84667-1.0716 2.1894-1.0716 0.82021 0 1.4023 0.32412 0.5887 0.3175 0.97234 0.97896zm-4.1474 2.5863q0 1.3428 0.54901 2.1101 0.55563 0.76068 1.5214 0.76068 0.96573 0 1.5214-0.76068 0.55562-0.76729 0.55562-2.1101t-0.55562-2.1034q-0.55563-0.76729-1.5214-0.76729-0.96573 0-1.5214 0.76729-0.54901 0.76068-0.54901 2.1034z"/>
   <path id="path186" style="" d="m367.59 140.44q0-1.3428-0.55563-2.1034-0.54901-0.76729-1.5147-0.76729-0.96573 0-1.5214 0.76729-0.54901 0.76068-0.54901 2.1034 0 1.3428 0.54901 2.1101 0.55563 0.76068 1.5214 0.76068 0.96573 0 1.5147-0.76068 0.55563-0.76729 0.55563-2.1101zm-4.1407-2.5863q0.38365-0.66146 0.96573-0.97896 0.5887-0.32412 1.4023-0.32412 1.3494 0 2.1894 1.0716 0.84667 1.0716 0.84667 2.8178 0 1.7463-0.84667 2.8178-0.84006 1.0716-2.1894 1.0716-0.8136 0-1.4023-0.3175-0.58208-0.32412-0.96573-0.98558v1.1113h-1.2237v-10.292h1.2237v4.0084z"/>
   <path id="path188" style="" d="m312.26 154.78v-4.0084h1.2171v10.292h-1.2171v-1.1112q-0.38365 0.66146-0.97235 0.98557-0.58208 0.3175-1.4023 0.3175-1.3428 0-2.1894-1.0716-0.84005-1.0716-0.84005-2.8178t0.84005-2.8178q0.84667-1.0716 2.1894-1.0716 0.82022 0 1.4023 0.32411 0.5887 0.3175 0.97235 0.97896zm-4.1474 2.5863q0 1.3428 0.54901 2.1101 0.55563 0.76068 1.5214 0.76068 0.96573 0 1.5214-0.76068 0.55563-0.7673 0.55563-2.1101t-0.55563-2.1034q-0.55563-0.7673-1.5214-0.7673-0.96573 0-1.5214 0.7673-0.54901 0.76068-0.54901 2.1034z"/>
   <path id="path190" style="" d="m318.85 154.51q-0.97896 0-1.5478 0.7673-0.56886 0.76068-0.56886 2.0902t0.56224 2.0968q0.56886 0.76068 1.5544 0.76068 0.97235 0 1.5412-0.7673 0.56886-0.76729 0.56886-2.0902 0-1.3163-0.56886-2.0836-0.56885-0.77391-1.5412-0.77391zm0-1.0319q1.5875 0 2.4937 1.0319t0.9062 2.8575q0 1.819-0.9062 2.8575-0.9062 1.0319-2.4937 1.0319-1.5941 0-2.5003-1.0319-0.89958-1.0385-0.89958-2.8575 0-1.8256 0.89958-2.8575 0.9062-1.0319 2.5003-1.0319z"/>
   <path id="path192" style="" d="m324.14 158.14v-4.4847h1.2171v4.4384q0 1.0517 0.41011 1.5809 0.4101 0.52255 1.2303 0.52255 0.98558 0 1.5544-0.62839 0.57547-0.62839 0.57547-1.7132v-4.2003h1.2171v7.4084h-1.2171v-1.1377q-0.44318 0.67469-1.0319 1.0054-0.58209 0.32411-1.356 0.32411-1.2766 0-1.9381-0.79375-0.66146-0.79375-0.66146-2.3217zm3.0626-4.6633z"/>
   <path id="path194" style="" d="m338.18 157.37q0-1.3428-0.55563-2.1034-0.54901-0.7673-1.5147-0.7673-0.96573 0-1.5214 0.7673-0.54901 0.76068-0.54901 2.1034 0 1.3428 0.54901 2.1101 0.55563 0.76068 1.5214 0.76068 0.96573 0 1.5147-0.76068 0.55563-0.7673 0.55563-2.1101zm-4.1407-2.5863q0.38365-0.66146 0.96573-0.97896 0.5887-0.32411 1.4023-0.32411 1.3494 0 2.1894 1.0716 0.84667 1.0716 0.84667 2.8178t-0.84667 2.8178q-0.84005 1.0716-2.1894 1.0716-0.8136 0-1.4023-0.3175-0.58208-0.32411-0.96573-0.98557v1.1112h-1.2237v-10.292h1.2237v4.0084z"/>
   <path id="path196" style="" d="m341.46 150.77h1.2171v10.292h-1.2171v-10.292z"/>
   <path id="path198" style="" d="m351.55 157.06v0.59532h-5.596q0.0794 1.2568 0.75407 1.9182 0.6813 0.65485 1.8918 0.65485 0.70115 0 1.356-0.17198 0.66146-0.17198 1.3097-0.51594v1.1509q-0.65484 0.27781-1.3428 0.42333-0.68792 0.14552-1.3957 0.14552-1.7727 0-2.8112-1.0319-1.0319-1.0319-1.0319-2.7914 0-1.819 0.97896-2.884 0.98557-1.0716 2.6524-1.0716 1.4949 0 2.3614 0.96573 0.87312 0.95911 0.87312 2.6128zm-1.2171-0.35718q-0.0132-0.99881-0.56224-1.5941-0.5424-0.59532-1.442-0.59532-1.0186 0-1.6338 0.57547-0.60855 0.57547-0.70115 1.6206l4.3392-0.007z"/>
   <path id="path200" style="" d="m362.96 152.82-2.3746 1.2832 2.3746 1.2898-0.38364 0.64823-2.2225-1.3428v2.4937h-0.75406v-2.4937l-2.2225 1.3428-0.38365-0.64823 2.3746-1.2898-2.3746-1.2832 0.38365-0.65485 2.2225 1.3428v-2.4937h0.75406v2.4937l2.2225-1.3428 0.38364 0.65485z"/>
   <path id="path202" style="" d="m368 157.34q-1.475 0-2.0439 0.33735-0.56886 0.33734-0.56886 1.1509 0 0.64823 0.42334 1.0319 0.42995 0.37704 1.1642 0.37704 1.012 0 1.6206-0.71438 0.61515-0.72099 0.61515-1.9116v-0.2712h-1.2105zm2.4276-0.50271v4.2267h-1.2171v-1.1245q-0.41672 0.67469-1.0385 0.9988-0.62177 0.3175-1.5214 0.3175-1.1377 0-1.8124-0.635-0.66807-0.64161-0.66807-1.7132 0-1.2502 0.83344-1.8852 0.84005-0.635 2.5003-0.635h1.7066v-0.11906q0-0.84006-0.55562-1.2965-0.54902-0.46303-1.5478-0.46303-0.635 0-1.2369 0.15214-0.60193 0.15213-1.1576 0.45641v-1.1245q0.66807-0.25796 1.2965-0.38364 0.62838-0.13229 1.2237-0.13229 1.6074 0 2.4011 0.83344 0.79375 0.83343 0.79375 2.5268z"/>
   <path id="path204" style="" d="m377.82 154.78v-4.0084h1.2171v10.292h-1.2171v-1.1112q-0.38365 0.66146-0.97235 0.98557-0.58208 0.3175-1.4023 0.3175-1.3428 0-2.1894-1.0716-0.84005-1.0716-0.84005-2.8178t0.84005-2.8178q0.84667-1.0716 2.1894-1.0716 0.82021 0 1.4023 0.32411 0.5887 0.3175 0.97235 0.97896zm-4.1474 2.5863q0 1.3428 0.54902 2.1101 0.55562 0.76068 1.5214 0.76068 0.96573 0 1.5214-0.76068 0.55563-0.7673 0.55563-2.1101t-0.55563-2.1034q-0.55563-0.7673-1.5214-0.7673-0.96573 0-1.5214 0.7673-0.54902 0.76068-0.54902 2.1034z"/>
   <path id="path206" style="" d="m384.91 157.34q-1.475 0-2.0439 0.33735-0.56885 0.33734-0.56885 1.1509 0 0.64823 0.42333 1.0319 0.42995 0.37704 1.1642 0.37704 1.012 0 1.6206-0.71438 0.61516-0.72099 0.61516-1.9116v-0.2712h-1.2105zm2.4276-0.50271v4.2267h-1.2171v-1.1245q-0.41672 0.67469-1.0385 0.9988-0.62177 0.3175-1.5214 0.3175-1.1377 0-1.8124-0.635-0.66808-0.64161-0.66808-1.7132 0-1.2502 0.83344-1.8852 0.84006-0.635 2.5003-0.635h1.7066v-0.11906q0-0.84006-0.55563-1.2965-0.54901-0.46303-1.5478-0.46303-0.635 0-1.2369 0.15214-0.60192 0.15213-1.1576 0.45641v-1.1245q0.66807-0.25796 1.2965-0.38364 0.62839-0.13229 1.2237-0.13229 1.6074 0 2.4011 0.83344 0.79375 0.83343 0.79375 2.5268z"/>
   <path id="path208" style="" d="m391.06 151.56v2.1034h2.5069v0.94589h-2.5069v4.0217q0 0.9062 0.24474 1.1642 0.25135 0.25797 1.012 0.25797h1.2502v1.0186h-1.2502q-1.4089 0-1.9447-0.52255-0.53578-0.52917-0.53578-1.9182v-4.0217h-0.89297v-0.94589h0.89297v-2.1034h1.2237z"/>
  </g>
 </g>
 <g id="g74" transform="translate(-6.1127 -2.9458)">
  <path id="rect76" fill="#fdfd04" d="m280 170h140v40h-140z"/>
  <path id="rect78" d="m280 170h140v40h-140z" stroke="#000" stroke-width="2" fill="none"/>
 </g>
 <g id="g80" stroke="#000" stroke-width="2" fill="none" transform="translate(-6.1127 -2.9458)">
  <path id="path82" d="m220 300c60 0 0-180 55.528-180"/>
  <path id="polyline84" d="m267.76 125 10-5-10-5"/>
 </g>
</svg>
