<?xml version="1.0" encoding="UTF-8" standalone="no"?>
<!-- Created with Inkscape (http://www.inkscape.org/) -->

<svg
   xmlns:dc="http://purl.org/dc/elements/1.1/"
   xmlns:cc="http://creativecommons.org/ns#"
   xmlns:rdf="http://www.w3.org/1999/02/22-rdf-syntax-ns#"
   xmlns:svg="http://www.w3.org/2000/svg"
   xmlns="http://www.w3.org/2000/svg"
   xmlns:sodipodi="http://sodipodi.sourceforge.net/DTD/sodipodi-0.dtd"
   xmlns:inkscape="http://www.inkscape.org/namespaces/inkscape"
   version="1.1"
   width="599.62415"
   height="163.71696"
   viewBox="248 50 331.48634 84.092307"
   id="svg2"
   inkscape:version="0.48.4 r9939"
   sodipodi:docname="pointer.svg">
  <sodipodi:namedview
     pagecolor="#ffffff"
     bordercolor="#666666"
     borderopacity="1"
     objecttolerance="10"
     gridtolerance="10"
     guidetolerance="10"
     inkscape:pageopacity="0"
     inkscape:pageshadow="2"
     inkscape:window-width="640"
     inkscape:window-height="480"
     id="namedview28"
     showgrid="false"
     inkscape:zoom="0.7121961"
     inkscape:cx="298.44301"
     inkscape:cy="81.828206"
     inkscape:window-x="0"
     inkscape:window-y="25"
     inkscape:window-maximized="0"
     inkscape:current-layer="svg2" />
  <metadata
     id="metadata54">
    <rdf:RDF>
      <cc:Work
         rdf:about="">
        <dc:format>image/svg+xml</dc:format>
        <dc:type
           rdf:resource="http://purl.org/dc/dcmitype/StillImage" />
      </cc:Work>
    </rdf:RDF>
  </metadata>
  <defs
     id="defs52" />
  <g
     id="g4"
     transform="translate(-1.5136745,-3.700554)">
    <path
       style="fill:#ffffff"
       d="m 280,100 60,0 0,40 -60,0 z"
       id="rect6" />
    <path
       style="fill:none;stroke:#000000;stroke-width:2"
       d="m 280,100 60,0 0,40 -60,0 z"
       id="rect8" />
  </g>
  <g
     id="g10"
     transform="translate(-1.5136745,-3.700554)">
    <path
       style="fill:#ffffff"
       d="m 420,100 40,0 0,40 -40,0 z"
       id="rect12" />
    <path
       style="fill:none;stroke:#000000;stroke-width:2"
       d="m 420,100 40,0 0,40 -40,0 z"
       id="rect14" />
  </g>
  <g
     id="g16"
     transform="translate(-1.5136745,-3.700554)">
    <path
       style="fill:#ffffff"
       d="m 540,100 40,0 0,40 -40,0 z"
       id="rect18" />
    <path
       style="fill:none;stroke:#000000;stroke-width:2"
       d="m 540,100 40,0 0,40 -40,0 z"
       id="rect20" />
  </g>
  <path
     style="fill:none;stroke:#000000;stroke-width:2"
     d="m 538.48633,96.299446 40,39.999994"
     id="line22" />
  <path
     style="fill:none;stroke:#000000;stroke-width:2"
     d="m 578.48633,96.299446 -40,39.999994"
     id="line24" />
  <g
     id="g26"
     transform="translate(-1.5136745,-3.700554)">
    <path
       d="M 440,100 A 67.8039,67.8039 0 0 0 313.403,90.9572"
       inkscape:connector-curvature="0"
       id="path28"
       style="fill:none;stroke:#000000;stroke-width:2" />
    <path
       style="fill:#000000"
       d="m 312.771,90.6665 5.505,-0.9736 -7.64,8.1635 -1.947,-11.0095 z"
       id="polygon30" />
    <path
       style="fill:none;stroke:#000000;stroke-width:2"
       d="m 312.771,90.6665 5.505,-0.9736 -7.64,8.1635 -1.947,-11.0095 z"
       id="polygon32" />
  </g>
  <g
     style="font-size:18.06220055px;font-style:normal;font-weight:normal;text-anchor:middle;fill:#000000;font-family:sans-serif"
     id="text34">
    <path
       d="m 255.20547,114.17099 0,-5.34458 1.62277,0 0,13.72304 -1.62277,0 0,-1.48166 c -0.34103,0.58796 -0.77318,1.02599 -1.29646,1.31409 -0.51741,0.28223 -1.14065,0.42334 -1.86972,0.42334 -1.19357,0 -2.16664,-0.47625 -2.91923,-1.42875 -0.74671,-0.9525 -1.12007,-2.20486 -1.12007,-3.75708 0,-1.55221 0.37336,-2.80457 1.12007,-3.75708 0.75259,-0.95249 1.72566,-1.42874 2.91923,-1.42875 0.72907,1e-5 1.35231,0.14406 1.86972,0.43216 0.52328,0.28223 0.95543,0.71732 1.29646,1.30527 m -5.52979,3.4484 c 0,1.19357 0.244,2.13137 0.73202,2.8134 0.49388,0.67616 1.17004,1.01424 2.02847,1.01423 0.85841,1e-5 1.53457,-0.33807 2.02847,-1.01423 0.49388,-0.68203 0.74082,-1.61983 0.74083,-2.8134 -1e-5,-1.19356 -0.24695,-2.12842 -0.74083,-2.80458 -0.4939,-0.68203 -1.17006,-1.02305 -2.02847,-1.02305 -0.85843,0 -1.53459,0.34102 -2.02847,1.02305 -0.48802,0.67616 -0.73202,1.61102 -0.73202,2.80458"
       style=""
       id="path3016" />
    <path
       d="m 260.7088,121.05015 2.91041,0 0,-10.04534 -3.16618,0.635 0,-1.62277 3.14854,-0.635 1.78153,0 0,11.66811 2.91041,0 0,1.4993 -7.58471,0 0,-1.4993"
       style=""
       id="path3018" />
  </g>
  <g
     style="font-size:18.06220055px;font-style:normal;font-weight:normal;text-anchor:middle;fill:#000000;font-family:sans-serif"
     id="text38">
    <path
       d="m 390.2754,121.06779 0,5.23874 -1.63159,0 0,-13.63484 1.63159,0 0,1.4993 c 0.34102,-0.58795 0.77023,-1.02304 1.28764,-1.30527 0.52328,-0.2881 1.14652,-0.43215 1.86972,-0.43216 1.19944,1e-5 2.17251,0.47626 2.91923,1.42875 0.75259,0.95251 1.12888,2.20487 1.12889,3.75708 -1e-5,1.55222 -0.3763,2.80458 -1.12889,3.75708 -0.74672,0.9525 -1.71979,1.42875 -2.91923,1.42875 -0.7232,0 -1.34644,-0.14111 -1.86972,-0.42334 -0.51741,-0.2881 -0.94662,-0.72613 -1.28764,-1.31409 m 5.52097,-3.4484 c -1e-5,-1.19356 -0.24695,-2.12842 -0.74083,-2.80458 -0.48802,-0.68203 -1.16123,-1.02305 -2.01965,-1.02305 -0.85843,0 -1.53459,0.34102 -2.02847,1.02305 -0.48801,0.67616 -0.73202,1.61102 -0.73202,2.80458 0,1.19357 0.24401,2.13137 0.73202,2.8134 0.49388,0.67616 1.17004,1.01424 2.02847,1.01423 0.85842,1e-5 1.53163,-0.33807 2.01965,-1.01423 0.49388,-0.68203 0.74082,-1.61983 0.74083,-2.8134"
       style=""
       id="path3021" />
    <path
       d="m 400.7088,121.05015 2.91041,0 0,-10.04534 -3.16618,0.635 0,-1.62277 3.14854,-0.635 1.78153,0 0,11.66811 2.91041,0 0,1.4993 -7.58471,0 0,-1.4993"
       style=""
       id="path3023" />
  </g>
  <g
     style="font-size:18.06220055px;font-style:normal;font-weight:normal;text-anchor:middle;fill:#000000;font-family:sans-serif"
     id="text42">
    <path
       d="m 510.27544,121.06779 0,5.23874 -1.6316,0 0,-13.63484 1.6316,0 0,1.4993 c 0.34101,-0.58795 0.77022,-1.02304 1.28763,-1.30527 0.52328,-0.2881 1.14652,-0.43215 1.86972,-0.43216 1.19944,1e-5 2.17251,0.47626 2.91924,1.42875 0.75258,0.95251 1.12887,2.20487 1.12888,3.75708 -10e-6,1.55222 -0.3763,2.80458 -1.12888,3.75708 -0.74673,0.9525 -1.7198,1.42875 -2.91924,1.42875 -0.7232,0 -1.34644,-0.14111 -1.86972,-0.42334 -0.51741,-0.2881 -0.94662,-0.72613 -1.28763,-1.31409 m 5.52096,-3.4484 c -10e-6,-1.19356 -0.24695,-2.12842 -0.74083,-2.80458 -0.48802,-0.68203 -1.16123,-1.02305 -2.01965,-1.02305 -0.85843,0 -1.53459,0.34102 -2.02847,1.02305 -0.48801,0.67616 -0.73202,1.61102 -0.73201,2.80458 -1e-5,1.19357 0.244,2.13137 0.73201,2.8134 0.49388,0.67616 1.17004,1.01424 2.02847,1.01423 0.85842,1e-5 1.53163,-0.33807 2.01965,-1.01423 0.49388,-0.68203 0.74082,-1.61983 0.74083,-2.8134"
       style=""
       id="path3026" />
    <path
       d="m 521.93473,121.05015 6.2177,0 0,1.4993 -8.36083,0 0,-1.4993 c 0.67616,-0.69967 1.59632,-1.63747 2.76049,-2.8134 1.17004,-1.1818 1.90499,-1.94321 2.20486,-2.28423 0.57031,-0.64087 0.96719,-1.1818 1.19062,-1.62278 0.2293,-0.44684 0.34395,-0.88487 0.34396,-1.31409 -10e-6,-0.69967 -0.24695,-1.26999 -0.74084,-1.71097 -0.48801,-0.44096 -1.12595,-0.66145 -1.91381,-0.66146 -0.55857,1e-5 -1.14947,0.097 -1.77271,0.29104 -0.61736,0.19404 -1.27882,0.48802 -1.98437,0.88194 l 0,-1.79916 c 0.71731,-0.28809 1.38759,-0.50564 2.01083,-0.65264 0.62324,-0.14698 1.19356,-0.22047 1.71097,-0.22049 1.36407,2e-5 2.4518,0.34104 3.26319,1.02306 0.81138,0.68205 1.21707,1.59339 1.21708,2.73402 -10e-6,0.54094 -0.1029,1.0554 -0.30868,1.5434 -0.19991,0.48214 -0.56739,1.05246 -1.10243,1.71097 -0.147,0.17052 -0.61443,0.66441 -1.40229,1.48167 -0.78787,0.81139 -1.89912,1.9491 -3.33374,3.41312"
       style=""
       id="path3028" />
  </g>
  <g
     style="font-size:18.06220055px;font-style:normal;font-weight:normal;text-anchor:middle;fill:#000000;font-family:sans-serif"
     id="text46">
    <path
       d="m 295.6893,115.44981 c 0.85254,0.18227 1.51693,0.56151 1.99319,1.13771 0.48212,0.5762 0.72318,1.28764 0.72319,2.1343 -1e-5,1.2994 -0.44686,2.30481 -1.34055,3.01625 -0.89371,0.71143 -2.16371,1.06715 -3.80999,1.06715 -0.55269,0 -1.12302,-0.0559 -1.71097,-0.16757 -0.58209,-0.10584 -1.18475,-0.26752 -1.80799,-0.48507 l 0,-1.71979 c 0.49389,0.2881 1.03481,0.50565 1.62278,0.65264 0.58796,0.14699 1.20238,0.22048 1.84326,0.22048 1.11712,0 1.96673,-0.22048 2.54882,-0.66145 0.58795,-0.44097 0.88193,-1.08185 0.88194,-1.92264 -10e-6,-0.77611 -0.27341,-1.38171 -0.82021,-1.8168 -0.54093,-0.44097 -1.29646,-0.66146 -2.26659,-0.66146 l -1.53458,0 0,-1.46403 1.60513,0 c 0.87606,1e-5 1.54634,-0.17344 2.01083,-0.52034 0.46449,-0.35277 0.69673,-0.85842 0.69674,-1.51695 -10e-6,-0.67614 -0.24107,-1.19355 -0.7232,-1.55222 -0.47625,-0.36452 -1.16123,-0.54679 -2.05492,-0.5468 -0.48802,1e-5 -1.0113,0.0529 -1.56986,0.15875 -0.55857,0.10584 -1.17299,0.27047 -1.84326,0.49389 l 0,-1.5875 c 0.67615,-0.18814 1.30821,-0.32925 1.89617,-0.42333 0.59384,-0.0941 1.15241,-0.1411 1.6757,-0.14112 1.3523,2e-5 2.42239,0.3087 3.21027,0.92604 0.78786,0.6115 1.18179,1.44052 1.1818,2.48709 -10e-6,0.72908 -0.20873,1.34644 -0.62618,1.85208 -0.41746,0.49977 -1.0113,0.84667 -1.78152,1.04069"
       style=""
       id="path3031" />
    <path
       d="m 301.79235,120.30932 1.8609,0 0,2.24013 -1.8609,0 0,-2.24013"
       style=""
       id="path3033" />
    <path
       d="m 307.8513,121.05015 2.91041,0 0,-10.04534 -3.16618,0.635 0,-1.62277 3.14854,-0.635 1.78153,0 0,11.66811 2.91041,0 0,1.4993 -7.58471,0 0,-1.4993"
       style=""
       id="path3035" />
    <path
       d="m 323.93795,110.93426 -4.49792,7.02909 4.49792,0 0,-7.02909 m -0.46743,-1.55222 2.24013,0 0,8.58131 1.87854,0 0,1.48166 -1.87854,0 0,3.10444 -1.7727,0 0,-3.10444 -5.9443,0 0,-1.71979 5.47687,-8.34318"
       style=""
       id="path3037" />
  </g>
</svg>
