<?xml version="1.0" encoding="UTF-8" standalone="no"?>
<!-- Created with Inkscape (http://www.inkscape.org/) -->
<svg id="svg2" xmlns:rdf="http://www.w3.org/1999/02/22-rdf-syntax-ns#" xmlns="http://www.w3.org/2000/svg" height="275.55" width="777.71" version="1.1" xmlns:cc="http://creativecommons.org/ns#" xmlns:dc="http://purl.org/dc/elements/1.1/" viewBox="153 118 428.99999 148.73025">
 <metadata id="metadata122">
  <rdf:RDF>
   <cc:Work rdf:about="">
    <dc:format>image/svg+xml</dc:format>
    <dc:type rdf:resource="http://purl.org/dc/dcmitype/StillImage"/>
   </cc:Work>
  </rdf:RDF>
 </metadata>
 <g id="g4" transform="translate(-1 -2.6349)">
  <path id="rect6" fill="#735710" d="m162 170h420v100h-420z"/>
  <path id="rect8" d="m162 170h420v100h-420z" stroke="#000" stroke-width="2" fill="none"/>
 </g>
 <g id="g10" transform="translate(-1 -2.6349)">
  <path id="path12" d="m200 170h340s-40 56-80 80-28-20-60-30-88 58-100 10-100-60-100-60z" fill="#7babe3"/>
  <path id="path14" d="m200 170h340s-40 56-80 80-28-20-60-30-88 58-100 10-100-60-100-60" stroke="#000" stroke-width="2" fill="none"/>
 </g>
 <g id="g16" transform="translate(-1 -2.6349)">
  <path id="path18" d="m170 150c20 0 20-30 0-30s-20 30 0 30z" fill="#090"/>
  <path id="path20" d="m170 150c20 0 20-30 0-30s-20 30 0 30" stroke="#000" stroke-width="2" fill="none"/>
 </g>
 <g id="g22" transform="translate(-1 -2.6349)">
  <path id="rect24" fill="#824000" d="m168 150h4v20h-4z"/>
  <path id="rect26" d="m168 150h4v20h-4z" stroke="#000" stroke-width="2" fill="none"/>
 </g>
 <path id="line28" d="m419 233.37v-82" stroke="#000" stroke-width="2" fill="none"/>
 <path id="line30" d="m439 254.37v-103" stroke="#000" stroke-width="2" fill="none"/>
 <path id="line32" d="m551 167.37 8-8" stroke="#000" stroke-width="2" fill="none"/>
 <path id="line34" d="m559 159.37 8 8" stroke="#000" stroke-width="2" fill="none"/>
 <path id="line36" d="m559 159.37v-12" stroke="#000" stroke-width="2" fill="none"/>
 <path id="line38" d="m551 151.37h16" stroke="#000" stroke-width="2" fill="none"/>
 <g id="g40" transform="translate(-1 -2.6349)">
  <path id="path42" d="m560 150c6 0 6-10 0-10s-6 10 0 10z" fill="#fff"/>
  <path id="path44" d="m560 150c6 0 6-10 0-10s-6 10 0 10" stroke="#000" stroke-width="2" fill="none"/>
 </g>
 <g id="g46" transform="translate(-1 -2.6349)">
  <path id="path48" d="m324 219c2 0 2-2 0-2s-2 2 0 2z" fill="#fff"/>
  <path id="path50" d="m324 219c2 0 2-2 0-2s-2 2 0 2" stroke="#000" fill="none"/>
 </g>
 <g id="g52" transform="translate(-1 -2.6349)">
  <path id="path54" d="m320 211c2 0 2-2 0-2s-2 2 0 2z" fill="#fff"/>
  <path id="path56" d="m320 211c2 0 2-2 0-2s-2 2 0 2" stroke="#000" fill="none"/>
 </g>
 <g id="g58" transform="translate(-1 -2.6349)">
  <path id="path60" d="m322 201c2 0 2-2 0-2s-2 2 0 2z" fill="#fff"/>
  <path id="path62" d="m322 201c2 0 2-2 0-2s-2 2 0 2" stroke="#000" fill="none"/>
 </g>
 <g id="g64" transform="translate(-1 -2.6349)">
  <path id="path66" d="m320 191c2 0 2-2 0-2s-2 2 0 2z" fill="#fff"/>
  <path id="path68" d="m320 191c2 0 2-2 0-2s-2 2 0 2" stroke="#000" fill="none"/>
 </g>
 <g id="g70" transform="translate(-1 -2.6349)">
  <path id="path72" d="m321 180.8c2 0 2-2 0-2s-2 2 0 2z" fill="#fff"/>
  <path id="path74" d="m321 180.8c2 0 2-2 0-2s-2 2 0 2" stroke="#000" fill="none"/>
 </g>
 <g id="g76" transform="translate(-1 -2.6349)">
  <path id="path78" d="m348 230c0 10-24-18-24 0s24-10 24 0z" fill="#fdfd04"/>
  <path id="path80" d="m348 230c0 10-24-18-24 0s24-10 24 0" stroke="#000" stroke-width="2" fill="none"/>
 </g>
 <g id="g82" transform="translate(-1 -2.6349)">
  <path id="path84" d="m328 228c2 0 1-2 0-2s-2 2 0 2z" fill="#fff"/>
  <path id="path86" d="m328 228c2 0 1-2 0-2s-2 2 0 2" stroke="#000" fill="none"/>
 </g>
 <path id="line88" d="m325 231.37 3-1" stroke="#000" stroke-width="2" fill="none"/>
 <path id="line90" d="m419 233.37h-27" stroke="#000" stroke-width="2" fill="none"/>
 <path id="line92" d="m439 254.37h-47" stroke="#000" stroke-width="2" fill="none"/>
 <g id="g94" stroke="#000" stroke-width="2" fill="none" transform="translate(-1 -2.6349)">
  <path id="line96" d="m398 252.53v-12.056"/>
  <path id="polyline98" d="m396 250.76 2 4 2-4"/>
  <path id="polyline100" d="m400 242.24-2-4-2 4"/>
 </g>
 <g id="g102" stroke="#000" stroke-width="2" fill="none" transform="translate(-1 -2.6349)">
  <path id="line104" d="m435.53 162h-11.056"/>
  <path id="polyline106" d="m433.76 164 4-2-4-2"/>
  <path id="polyline108" d="m426.24 160-4 2 4 2"/>
 </g>
 <g id="text110">
  <path id="path3059" style="" d="m421.14 148.3h4.4062v1.0625h-5.925v-1.0625c0.47917-0.49583 1.1312-1.1604 1.9562-1.9938 0.82916-0.8375 1.35-1.3771 1.5625-1.6188 0.40416-0.45416 0.68541-0.8375 0.84375-1.15 0.16249-0.31666 0.24374-0.62708 0.24375-0.93125-0.00001-0.49583-0.17501-0.89999-0.525-1.2125-0.34584-0.31249-0.79792-0.46874-1.3562-0.46875-0.39584 0.00001-0.81459 0.0688-1.2562 0.20625-0.4375 0.13751-0.90625 0.34584-1.4062 0.625v-1.275c0.50833-0.20416 0.98333-0.35833 1.425-0.4625 0.44166-0.10416 0.84583-0.15624 1.2125-0.15625 0.96666 0.00001 1.7375 0.24167 2.3125 0.725 0.57499 0.48334 0.86249 1.1292 0.8625 1.9375-0.00001 0.38334-0.0729 0.74792-0.21875 1.0938-0.14167 0.34167-0.40209 0.74584-0.78125 1.2125-0.10417 0.12084-0.43542 0.47083-0.99375 1.05-0.55834 0.575-1.3458 1.3812-2.3625 2.4188"/>
  <path id="path3061" style="" d="m433.49 143.71c0.28749-0.51666 0.63124-0.89791 1.0312-1.1438 0.39999-0.24583 0.87083-0.36875 1.4125-0.36875 0.72916 0 1.2917 0.25625 1.6875 0.76875 0.39582 0.50834 0.59374 1.2333 0.59375 2.175v4.225h-1.1562v-4.1875c-0.00001-0.67083-0.11876-1.1688-0.35625-1.4938-0.23751-0.325-0.60001-0.4875-1.0875-0.4875-0.59584 0-1.0667 0.19792-1.4125 0.59375-0.34584 0.39584-0.51876 0.93542-0.51875 1.6188v3.9562h-1.1562v-4.1875c-0.00001-0.675-0.11876-1.1729-0.35625-1.4938-0.2375-0.325-0.60417-0.4875-1.1-0.4875-0.5875 0-1.0542 0.2-1.4 0.6-0.34584 0.39584-0.51875 0.93334-0.51875 1.6125v3.9562h-1.1562v-7h1.1562v1.0875c0.2625-0.42916 0.57708-0.74583 0.94375-0.95 0.36666-0.20416 0.80208-0.30625 1.3062-0.30625 0.50833 0 0.93958 0.12917 1.2938 0.3875 0.35833 0.25834 0.62291 0.63334 0.79375 1.125"/>
 </g>
 <g id="text114">
  <path id="path3064" style="" d="m379.38 239.28-2.5625 7.0375h5.1312l-2.5688-7.0375m-4.275 8.0875 3.5625-9.3312h1.4312l3.5562 9.3312h-8.55"/>
  <path id="path3066" style="" d="m390.78 243.14v4.225h-1.15v-4.1875c-0.00001-0.6625-0.12917-1.1583-0.3875-1.4875-0.25834-0.32916-0.64584-0.49375-1.1625-0.49375-0.62084 0-1.1104 0.19792-1.4688 0.59375-0.35834 0.39584-0.5375 0.93542-0.5375 1.6188v3.9562h-1.1562v-9.725h1.1562v3.8125c0.275-0.42083 0.59791-0.73541 0.96875-0.94375 0.375-0.20833 0.80625-0.3125 1.2938-0.3125 0.80416 0 1.4125 0.25 1.825 0.75 0.41249 0.49584 0.61874 1.2271 0.61875 2.1938"/>
 </g>
</svg>
